<?xml version="1.0" encoding="UTF-8"?><svg xmlns="http://www.w3.org/2000/svg" xmlns:xlink="http://www.w3.org/1999/xlink" viewBox="0 0 110.93 101.13"><defs><style>.cls-1{clip-path:url(#clippath-2);}.cls-2{isolation:isolate;}.cls-3{fill:#f1b784;fill-rule:evenodd;}.cls-4{clip-path:url(#clippath);}.cls-5{stroke:#ebebec;}.cls-5,.cls-6,.cls-7,.cls-8,.cls-9{fill:none;}.cls-5,.cls-7,.cls-8,.cls-9{stroke-linecap:round;stroke-linejoin:round;}.cls-5,.cls-8,.cls-9{stroke-width:.31px;}.cls-7{stroke-width:.46px;}.cls-7,.cls-8,.cls-9{stroke:#000;}.cls-10{fill:#333132;}.cls-8{stroke-dasharray:0 0 3.88 1.94;}.cls-11{clip-path:url(#clippath-85);}</style><clipPath id="clippath"><rect class="cls-6" x="-484.99" y="-648.3" width="612" height="792"/></clipPath><clipPath id="clippath-2"><rect class="cls-6" x="-6.19" y="3.31" width="133.2" height="104.39"/></clipPath><clipPath id="clippath-85"><rect class="cls-6" x="-484.99" y="-539.09" width="612" height="594.6"/></clipPath><clipPath id="clippath-93"><rect class="cls-6" x="-484.99" y="-648.3" width="612" height="792"/></clipPath></defs><g class="cls-2"><g id="Layer_1"><g class="cls-4"><polygon class="cls-3" points="71.17 62.76 68.42 63.76 66.12 64.6 70.4 76.34 75.44 74.51 71.17 62.76"/><polygon class="cls-3" points="28.59 15.71 25.64 15.71 23.23 15.71 23.23 28.21 28.59 28.21 28.59 15.71"/><polygon class="cls-3" points="41.37 30.23 35.96 30.23 35.96 33.42 36.01 33.42 36.01 42.73 38.48 42.73 41.37 42.73 41.37 30.23"/><polygon class="cls-3" points="46.74 30.23 41.37 30.23 41.37 42.73 44.32 42.73 46.74 42.73 46.74 30.23"/><polygon class="cls-3" points="52.1 31.3 52.05 31.3 52.05 30.23 46.74 30.23 46.74 42.73 49.2 42.73 52.1 42.73 52.1 31.3"/><polygon class="cls-5" points="28.59 15.71 25.64 15.71 23.23 15.71 23.23 28.21 28.59 28.21 28.59 15.71"/><polygon class="cls-5" points="41.37 30.23 35.96 30.23 35.96 33.42 36.01 33.42 36.01 42.73 38.48 42.73 41.37 42.73 41.37 30.23"/><polygon class="cls-5" points="46.74 30.23 41.37 30.23 41.37 42.73 44.32 42.73 46.74 42.73 46.74 30.23"/><polygon class="cls-5" points="52.1 31.3 52.05 31.3 52.05 30.23 46.74 30.23 46.74 42.73 49.19 42.73 52.1 42.73 52.1 31.3"/><polygon class="cls-5" points="71.16 62.76 68.42 63.76 66.12 64.59 70.4 76.34 75.44 74.51 71.16 62.76"/><line class="cls-9" x1="32.56" y1="33.42" x2="32.56" y2="30.23"/><polyline class="cls-9" points="35.96 33.42 32.56 30.23 29.16 33.42"/><polyline class="cls-9" points="35.96 30.23 32.56 33.42 29.16 30.23"/><line class="cls-9" x1="89.45" y1="65.74" x2="92.12" y2="64.77"/><polyline class="cls-9" points="90.63 68.98 92.12 64.77 88.28 62.51"/><polyline class="cls-9" points="93.29 68.01 89.45 65.74 90.94 61.54"/><line class="cls-8" x1="96.1" y1="69.77" x2="106.93" y2="74.28"/><line class="cls-8" x1="104.2" y1="66.79" x2="98.98" y2="77.69"/><line class="cls-9" x1="75.63" y1="15.6" x2="71.7" y2="18.93"/><line class="cls-9" x1="75.63" y1="18.93" x2="71.7" y2="15.6"/><line class="cls-9" x1="52.1" y1="42.73" x2="52.1" y2="46.27"/><line class="cls-9" x1="41.37" y1="42.73" x2="41.37" y2="46.27"/><line class="cls-9" x1="13.26" y1="26.27" x2="11.74" y2="26.27"/><line class="cls-9" x1="13.26" y1="23.36" x2="14.78" y2="22.65"/><line class="cls-9" x1="69.95" y1="59.42" x2="71.16" y2="62.76"/><line class="cls-9" x1="80.03" y1="55.75" x2="81.24" y2="59.09"/><line class="cls-9" x1="77.3" y1="34.03" x2="79.4" y2="34.03"/><polyline class="cls-9" points="104.67 61.44 106.13 60.91 108.12 66.39 104.53 67.69"/><line class="cls-9" x1="93.92" y1="44.93" x2="91.3" y2="44.93"/><line class="cls-9" x1="96.41" y1="64.86" x2="94.96" y2="65.39"/><polyline class="cls-9" points="97.81 64.17 96.36 64.7 97.31 67.32 95.86 67.85"/><line class="cls-9" x1="97.25" y1="67.16" x2="98.71" y2="66.63"/><polyline class="cls-9" points="60.29 73.75 58.97 74.23 60.42 78.24 61.88 77.71"/><line class="cls-9" x1="58.85" y1="78.46" x2="60.31" y2="77.93"/><line class="cls-9" x1="59.52" y1="75.75" x2="58.31" y2="76.96"/><polyline class="cls-9" points="97.03 32.45 95.48 32.45 95.48 29.5 93.92 29.5"/><line class="cls-9" x1="97.03" y1="29.83" x2="95.48" y2="29.83"/><line class="cls-9" x1="93.92" y1="32.13" x2="95.48" y2="32.13"/><polyline class="cls-9" points="47.49 71.38 46.88 71.6 45.66 68.26 54.03 65.21 55.25 68.55"/><polyline class="cls-9" points="58.09 67.52 56.87 64.18 60.46 62.87"/><line class="cls-9" x1="61.64" y1="62.44" x2="65.05" y2="61.21"/><rect class="cls-9" x="60.13" y="60.45" width="1.25" height="2.82" transform="translate(-17.5 24.53) rotate(-20.01)"/><rect class="cls-9" x="64.71" y="58.78" width="1.25" height="2.81" transform="translate(-16.65 26) rotate(-20.01)"/><rect class="cls-9" x="69.75" y="56.94" width="1.25" height="2.82" transform="translate(-15.72 27.61) rotate(-20.01)"/><rect class="cls-9" x="74.79" y="55.11" width="1.25" height="2.82" transform="translate(-14.79 29.23) rotate(-20.01)"/><rect class="cls-9" x="79.83" y="53.27" width="1.25" height="2.82" transform="translate(-13.86 30.84) rotate(-20.01)"/><line class="cls-9" x1="66.22" y1="60.78" x2="70.09" y2="59.37"/><line class="cls-9" x1="71.26" y1="58.94" x2="75.13" y2="57.54"/><line class="cls-9" x1="76.3" y1="57.11" x2="80.16" y2="55.7"/><polyline class="cls-9" points="81.34 55.27 83 54.67 84.22 58.01"/><line class="cls-9" x1="74.99" y1="57.59" x2="76.2" y2="60.93"/><line class="cls-9" x1="64.91" y1="61.26" x2="66.12" y2="64.59"/><rect class="cls-9" x="73.33" y="45.05" width="2.71" height="1.25"/><rect class="cls-9" x="73.33" y="43.57" width="2.71" height="1.25"/><line class="cls-9" x1="76.03" y1="44.82" x2="76.03" y2="45.05"/><line class="cls-9" x1="77.05" y1="44.93" x2="76.03" y2="44.93"/><polyline class="cls-9" points="75.32 46.3 75.32 51.13 78.86 51.13 78.86 50.61"/><rect class="cls-9" x="73.33" y="37.99" width="2.71" height="1.25"/><rect class="cls-9" x="73.33" y="32.63" width="2.71" height="1.25"/><line class="cls-9" x1="75.32" y1="22.78" x2="75.32" y2="32.63"/><line class="cls-9" x1="75.32" y1="33.88" x2="75.32" y2="37.99"/><line class="cls-9" x1="75.32" y1="39.25" x2="75.32" y2="43.57"/><line class="cls-9" x1="78.86" y1="39.39" x2="75.32" y2="39.38"/><line class="cls-9" x1="79.4" y1="34.03" x2="75.32" y2="34.03"/><line class="cls-9" x1="78.86" y1="28.66" x2="75.32" y2="28.66"/><line class="cls-9" x1="109.17" y1="22.94" x2="109.17" y2="44.64"/><line class="cls-9" x1="106.96" y1="39.39" x2="109.17" y2="39.39"/><line class="cls-9" x1="106.96" y1="34.15" x2="109.17" y2="34.15"/><polyline class="cls-9" points="109.17 45.23 109.17 50.35 106.96 50.35"/><rect class="cls-9" x="63.96" y="45.74" width="1.25" height="2.8"/><rect class="cls-9" x="52.24" y="45.74" width="1.25" height="2.8"/><rect class="cls-9" x="46.88" y="45.74" width="1.25" height="2.8"/><rect class="cls-9" x="41.7" y="45.74" width="1.25" height="2.8"/><rect class="cls-9" x="36.19" y="45.74" width="1.25" height="2.8"/><rect class="cls-9" x="28.91" y="45.74" width="1.25" height="2.8"/><rect class="cls-9" x="22.33" y="45.74" width="1.25" height="2.8"/><polyline class="cls-9" points="69.15 42.73 69.68 42.73 69.68 46.27 65.21 46.27"/><line class="cls-9" x1="63.96" y1="46.27" x2="59.63" y2="46.27"/><line class="cls-9" x1="57.84" y1="46.27" x2="53.5" y2="46.27"/><line class="cls-9" x1="52.24" y1="46.27" x2="48.13" y2="46.27"/><line class="cls-9" x1="46.88" y1="46.27" x2="42.95" y2="46.27"/><line class="cls-9" x1="41.7" y1="46.27" x2="37.44" y2="46.27"/><line class="cls-9" x1="36.19" y1="46.27" x2="30.17" y2="46.27"/><line class="cls-9" x1="28.91" y1="46.27" x2="23.59" y2="46.27"/><polyline class="cls-9" points="22.33 46.27 20.23 46.27 17.86 44.84 17.86 42.73 18.24 42.73"/><line class="cls-9" x1="46.74" y1="42.73" x2="46.74" y2="46.27"/><line class="cls-9" x1="36.01" y1="42.73" x2="36.01" y2="46.27"/><line class="cls-9" x1="23.73" y1="42.73" x2="23.73" y2="46.27"/><line class="cls-9" x1="59.63" y1="42.73" x2="59.63" y2="46.27"/><line class="cls-9" x1="57.84" y1="42.73" x2="57.84" y2="46.27"/><polyline class="cls-9" points="3.39 15.71 2.65 15.71 2.65 12.85 11.55 12.85 11.55 15.71"/><polyline class="cls-9" points="28.05 15.71 28.05 12.86 18.68 12.86 18.68 13.89 14.94 13.89 14.94 15.71"/><line class="cls-9" x1="23.23" y1="15.71" x2="23.23" y2="12.86"/><line class="cls-9" x1="13.26" y1="24.79" x2="11.74" y2="24.79"/><line class="cls-9" x1="13.26" y1="17.29" x2="11.74" y2="17.29"/><line class="cls-9" x1="13.26" y1="19.37" x2="14.78" y2="19.37"/><line class="cls-9" x1="13.26" y1="20.35" x2="14.78" y2="20.35"/><line class="cls-9" x1="13.26" y1="22.35" x2="14.78" y2="22.35"/><line class="cls-9" x1="59.29" y1="36" x2="60.81" y2="35.29"/><line class="cls-9" x1="59.29" y1="36.95" x2="60.81" y2="36.95"/><polyline class="cls-9" points="65.48 92.61 65.63 93.01 62.32 94.2 62.19 93.83"/><polyline class="cls-9" points="52.07 96.95 53.1 99.79 57.3 98.26 57.1 97.72 60.96 96.33 60.3 94.52"/><polyline class="cls-9" points="69.95 90.99 72.87 88.69 80.79 85.78 80.55 85.11 83.83 83.91 83.72 83.62"/><polyline class="cls-9" points="94.9 79.17 95.13 79.79 91.76 81.03 91.65 80.74"/><line class="cls-9" x1="72.83" y1="88.72" x2="72.47" y2="87.72"/><polygon class="cls-9" points="2.5 21.2 2.5 20.75 3.39 20.75 3.39 15.71 7.83 15.71 15.28 15.71 19.03 15.71 25.64 15.71 31.48 15.71 35.57 15.71 35.57 11.55 38.07 11.55 38.07 12.26 68.71 12.26 68.71 15.6 69.42 15.6 69.42 22.51 69.15 22.51 69.15 32.41 69.15 37.67 69.15 42.73 64.72 42.73 56.95 42.73 49.19 42.73 44.32 42.73 38.48 42.73 32.08 42.73 27.72 42.73 21.28 42.73 18.24 42.73 18.24 40.69 14.81 40.69 10.2 40.69 10.2 37.78 9.67 37.78 9.67 36.17 6.6 36.17 6.6 31.74 3.39 31.74 3.39 21.2 2.5 21.2"/><polyline class="cls-9" points="35.86 15.71 35.86 28.21 62.76 28.21 62.76 30.23 9.79 30.23 9.79 28.21 28.59 28.21 28.59 15.71"/><line class="cls-9" x1="9.79" y1="29.22" x2="3.39" y2="29.22"/><line class="cls-9" x1="14.67" y1="30.23" x2="14.67" y2="40.69"/><line class="cls-9" x1="23.73" y1="30.23" x2="23.73" y2="42.73"/><polyline class="cls-9" points="29.16 30.23 29.16 33.42 35.96 33.42 35.96 30.23"/><polyline class="cls-9" points="36.01 42.73 36.01 33.42 35.96 33.42"/><line class="cls-9" x1="41.37" y1="42.73" x2="41.37" y2="30.23"/><line class="cls-9" x1="46.74" y1="42.73" x2="46.74" y2="30.23"/><line class="cls-9" x1="52.1" y1="42.73" x2="52.1" y2="31.3"/><polyline class="cls-9" points="52.05 30.31 52.05 31.3 54.66 31.3 54.66 30.23"/><line class="cls-9" x1="57.77" y1="30.23" x2="57.77" y2="42.73"/><line class="cls-9" x1="60.81" y1="42.73" x2="60.81" y2="30.23"/><line class="cls-9" x1="69.15" y1="29.22" x2="62.76" y2="29.22"/><line class="cls-9" x1="23.23" y1="28.21" x2="23.23" y2="15.71"/><line class="cls-9" x1="11.74" y1="28.21" x2="11.74" y2="15.71"/><line class="cls-9" x1="14.78" y1="15.71" x2="14.78" y2="28.21"/><polyline class="cls-9" points="17.61 28.21 17.61 27.14 14.78 27.14"/><polyline class="cls-9" points="14.78 26.61 13.26 26.61 13.26 22.02"/><polygon class="cls-9" points="85.72 57.46 85.72 50.61 78.86 50.61 78.86 47.95 79.4 47.95 79.4 45.23 77.05 45.23 77.05 44.63 79.4 44.64 79.4 41.92 78.86 41.92 78.86 36.95 79.4 36.95 79.4 31.11 78.86 31.11 78.86 25.86 79.4 25.86 79.4 23.07 78.86 23.07 78.86 22.78 72.82 22.78 72.82 18.93 71.7 18.93 71.7 15.6 72.87 15.6 72.87 12.26 87.26 12.26 87.26 11.55 89.78 11.55 89.78 12.26 96.03 12.26 96.03 11.55 98.55 11.55 98.55 12.26 108.27 12.26 108.27 20.43 109.5 20.43 109.5 22.93 106.96 22.93 106.96 26.69 106.42 26.69 106.42 30.21 106.96 30.21 106.96 34.15 106.42 34.15 106.42 36.95 106.96 36.95 106.96 41.92 106.42 41.92 106.42 44.64 109.17 44.64 109.17 45.23 106.42 45.23 106.42 47.95 106.96 47.95 106.96 50.61 101.01 50.61 101.01 51.39 101.01 51.4 104.75 61.68 104.22 61.88 105.69 65.93 106.2 65.74 106.34 66.12 104.24 66.88 106.93 74.28 102.92 75.74 103.09 76.19 94.86 79.19 94.36 77.84 91.08 79.03 91.7 80.72 83.72 83.62 83.11 81.93 79.82 83.13 80.44 84.82 72.47 87.72 71.85 86.03 68.57 87.22 69.95 90.99 65.48 92.61 64.88 90.95 61.58 92.15 62.19 93.83 56.42 95.93 56.24 95.43 52.07 96.95 50.7 93.19 50.2 93.37 48.78 89.48 51.01 88.67 49.62 84.85 51.56 84.14 48.71 76.31 49.22 76.13 47.49 71.38 51.53 69.91 58.66 67.31 62.18 66.03 68.42 63.76 73.91 61.76 78.5 60.09 85.72 57.46"/><polyline class="cls-9" points="93.29 68.01 90.94 61.54 88.28 62.51 90.63 68.98"/><polyline class="cls-9" points="88.66 62.37 88.66 61.29 90.55 61.29 90.68 61.64"/><polyline class="cls-9" points="90.94 61.54 90.89 61.4 91.89 61.03 91.89 52.47 87.81 52.47 87.81 53.06 85.72 53.06"/><polyline class="cls-9" points="91.89 58.29 90.77 58.29 90.77 61.29 90.55 61.29"/><polyline class="cls-9" points="91.89 22.89 90.83 22.89 90.83 25.58 91.89 25.58"/><polyline class="cls-9" points="93.92 27.69 97.03 27.69 97.03 34.03 93.92 34.03"/><polyline class="cls-9" points="94.3 63.6 97.22 62.54 99.41 68.54 96.5 69.6"/><line class="cls-9" x1="58.16" y1="67.49" x2="62.44" y2="79.24"/><polyline class="cls-9" points="65.11 78.26 64.75 77.26 62.07 78.24"/><line class="cls-9" x1="93.92" y1="22.94" x2="106.96" y2="22.94"/><polyline class="cls-9" points="106.42 34.15 106.42 34.03 97.03 34.03"/><line class="cls-9" x1="106.96" y1="39.39" x2="93.92" y2="39.39"/><line class="cls-9" x1="93.92" y1="44.93" x2="109.17" y2="44.93"/><line class="cls-9" x1="77.05" y1="44.93" x2="91.3" y2="44.93"/><polyline class="cls-9" points="93.92 58.03 99.53 58.03 102.97 56.78"/><polyline class="cls-9" points="104.24 66.88 104.2 66.79 99.4 68.54"/><line class="cls-9" x1="98.98" y1="77.69" x2="96.1" y2="69.77"/><polyline class="cls-9" points="83.11 81.93 83.2 81.9 80.61 74.78"/><polyline class="cls-9" points="61.58 92.15 61.46 92.2 58.1 82.97"/><polyline class="cls-9" points="51.56 84.14 51.6 84.26 55.96 82.68"/><line class="cls-9" x1="55.25" y1="68.55" x2="59.52" y2="80.3"/><line class="cls-9" x1="66.12" y1="64.59" x2="70.4" y2="76.34"/><line class="cls-9" x1="71.16" y1="62.76" x2="75.44" y2="74.51"/><line class="cls-9" x1="76.2" y1="60.93" x2="80.48" y2="72.67"/><line class="cls-9" x1="81.24" y1="59.09" x2="85.52" y2="70.84"/><polyline class="cls-9" points="85.72 56.89 85.85 56.89 85.85 57.78 88.71 57.78 88.71 61.29"/><line class="cls-9" x1="78.86" y1="39.39" x2="91.9" y2="39.39"/><line class="cls-9" x1="79.4" y1="34.03" x2="91.89" y2="34.03"/><line class="cls-9" x1="78.86" y1="28.66" x2="91.9" y2="28.66"/><polyline class="cls-9" points="79.4 23.07 79.4 22.94 90.83 22.94"/><polyline class="cls-9" points="56.92 73.14 58.37 72.61 56.7 68.03"/><polyline class="cls-9" points="93.29 68.01 55.61 81.72 56.3 83.63 94.05 69.89 94.25 70.45 96.51 69.62 93.92 62.56 93.92 22.89 91.89 22.89 91.89 42.16 91.3 42.5 91.3 47.36 91.65 47.56 91.89 47.7 91.89 50.48 85.72 50.48 85.72 50.61"/><polyline class="cls-9" points="72.87 15.6 75.63 15.6 75.63 18.93 72.82 18.93"/><polyline class="cls-9" points="11.74 20.61 13.26 20.61 13.26 15.71"/><polyline class="cls-9" points="59.29 39.57 59.29 32.08 60.81 32.08"/><polyline class="cls-9" points="95.66 22.94 95.66 21.03 89.43 21.03 89.43 22.94"/><polyline class="cls-9" points="71.85 86.03 71.95 85.99 69.36 78.88"/><g class="cls-1"><rect class="cls-9" x="-164.43" y="-429.28" width="442.64" height="572.83"/></g><g class="cls-11"><rect class="cls-7" x="-515.36" y="-595.02" width="666.99" height="863.17"/></g><g><path class="cls-10" d="M87.44,94.99v3.91h2.46v.5h-3.07v-4.41h.61Z"/><path class="cls-10" d="M93.65,99.4h-3.15v-4.41h3.08v.5h-2.49v1.39h1.98v.5h-1.98v1.52h2.56v.5Z"/><path class="cls-10" d="M95.72,99.4l-1.77-4.41h.62l1.49,3.71h.03l1.45-3.71h.62l-1.78,4.41h-.66Z"/><path class="cls-10" d="M101.81,99.4h-3.15v-4.41h3.08v.5h-2.49v1.39h1.98v.5h-1.98v1.52h2.56v.5Z"/><path class="cls-10" d="M103.11,94.99v3.91h2.46v.5h-3.07v-4.41h.61Z"/><path class="cls-10" d="M107.07,95.64c.62,0,.88-.21,1.04-.67h.4v4.44h-.61v-3.38h-.83v-.39Z"/></g><g><path class="cls-10" d="M5.77,4.12h.02l.65-2.62h.41l-.81,3.15h-.5l-.66-2.52h-.02l-.67,2.52h-.5l-.81-3.15h.42l.66,2.61h.02l.69-2.61h.41l.7,2.62Z"/><path class="cls-10" d="M9.45,4.65h-2.25V1.5h2.2v.36h-1.78v.99h1.42v.36h-1.42v1.09h1.83v.36Z"/><path class="cls-10" d="M10.09,3.5c.02,.58,.42,.87,.95,.87,.47,0,.77-.2,.77-.55,0-.29-.19-.43-.6-.51l-.62-.12c-.47-.09-.79-.34-.79-.83,0-.55,.44-.93,1.13-.93,.79,0,1.25,.42,1.25,1.13l-.4,.02c-.02-.52-.33-.82-.85-.82-.46,0-.71,.21-.71,.57,0,.31,.21,.41,.57,.48l.57,.11c.58,.11,.87,.36,.87,.87,0,.58-.5,.92-1.18,.92-.78,0-1.34-.42-1.34-1.19l.39-.03Z"/><path class="cls-10" d="M13.48,4.65V1.86h-1.15v-.36h2.74v.36h-1.17v2.79h-.43Z"/><path class="cls-10" d="M17.73,4.65h-1.34V1.5h1.29c.78,0,1.1,.34,1.1,.84,0,.37-.26,.62-.6,.68,.39,.07,.69,.32,.69,.77,0,.55-.4,.87-1.14,.87Zm-.92-1.79h.88c.46,0,.65-.2,.65-.5s-.19-.51-.65-.51h-.88v1.01Zm0,.34v1.1h.91c.47,0,.72-.21,.72-.55s-.25-.55-.72-.55h-.91Z"/><path class="cls-10" d="M19.3,3.45V1.5h.43v1.95c0,.6,.3,.9,.85,.9s.86-.29,.86-.89V1.5h.42v1.95c0,.92-.57,1.27-1.28,1.27s-1.28-.34-1.28-1.27Z"/><path class="cls-10" d="M22.85,1.5v3.15h-.43V1.5h.43Z"/><path class="cls-10" d="M23.9,1.5v2.79h1.76v.36h-2.19V1.5h.43Z"/><path class="cls-10" d="M26.09,1.5h1.14c.99,0,1.62,.59,1.62,1.58s-.63,1.58-1.62,1.58h-1.14V1.5Zm1.12,2.8c.77,0,1.19-.46,1.19-1.22s-.42-1.22-1.19-1.22h-.68v2.44h.68Z"/><path class="cls-10" d="M29.74,1.5v3.15h-.44V1.5h.44Z"/><path class="cls-10" d="M32.52,3.91V1.5h.41v3.15h-.35l-1.83-2.53v2.53h-.41V1.5h.45l1.73,2.41Z"/><path class="cls-10" d="M33.39,3.08c0-.97,.67-1.64,1.54-1.64s1.41,.5,1.46,1.3l-.42,.03c-.04-.58-.41-.96-1.04-.96s-1.1,.49-1.1,1.27,.46,1.27,1.14,1.27c.59,0,.97-.37,1.03-.91h-.96v-.34h1.36v1.56h-.4v-.56c-.14,.4-.58,.62-1.08,.62-.89,0-1.54-.66-1.54-1.64Z"/></g><g><path class="cls-10" d="M78.6,4.65h-2.25V1.5h2.2v.36h-1.78v.99h1.42v.36h-1.42v1.09h1.83v.36Z"/><path class="cls-10" d="M80.61,1.5l1.31,3.15h-.46l-.38-.93h-1.44l-.37,.93h-.42l1.29-3.15h.48Zm-.83,1.88h1.16l-.58-1.4h-.02l-.57,1.4Z"/><path class="cls-10" d="M82.45,3.5c.02,.58,.42,.87,.95,.87,.47,0,.77-.2,.77-.55,0-.29-.19-.43-.6-.51l-.62-.12c-.47-.09-.79-.34-.79-.83,0-.55,.44-.93,1.13-.93,.79,0,1.25,.42,1.25,1.13l-.4,.02c-.02-.52-.33-.82-.85-.82-.46,0-.71,.21-.71,.57,0,.31,.21,.41,.57,.48l.57,.11c.58,.11,.87,.36,.87,.87,0,.58-.5,.92-1.18,.92-.78,0-1.34-.42-1.34-1.19l.39-.03Z"/><path class="cls-10" d="M85.84,4.65V1.86h-1.15v-.36h2.74v.36h-1.17v2.79h-.43Z"/><path class="cls-10" d="M90.09,4.65h-1.34V1.5h1.29c.78,0,1.1,.34,1.1,.84,0,.37-.26,.62-.6,.68,.39,.07,.69,.32,.69,.77,0,.55-.4,.87-1.14,.87Zm-.92-1.79h.88c.46,0,.65-.2,.65-.5s-.2-.51-.65-.51h-.88v1.01Zm0,.34v1.1h.91c.47,0,.72-.21,.72-.55s-.25-.55-.72-.55h-.91Z"/><path class="cls-10" d="M91.66,3.45V1.5h.43v1.95c0,.6,.3,.9,.85,.9s.86-.29,.86-.89V1.5h.43v1.95c0,.92-.57,1.27-1.28,1.27s-1.28-.34-1.28-1.27Z"/><path class="cls-10" d="M95.22,1.5v3.15h-.44V1.5h.44Z"/><path class="cls-10" d="M96.26,1.5v2.79h1.76v.36h-2.19V1.5h.44Z"/><path class="cls-10" d="M98.45,1.5h1.14c.99,0,1.62,.59,1.62,1.58s-.62,1.58-1.62,1.58h-1.14V1.5Zm1.12,2.8c.77,0,1.19-.46,1.19-1.22s-.42-1.22-1.19-1.22h-.68v2.44h.68Z"/><path class="cls-10" d="M102.1,1.5v3.15h-.43V1.5h.43Z"/><path class="cls-10" d="M104.88,3.91V1.5h.41v3.15h-.34l-1.83-2.53v2.53h-.41V1.5h.45l1.73,2.41Z"/><path class="cls-10" d="M105.75,3.08c0-.97,.67-1.64,1.54-1.64s1.41,.5,1.46,1.3l-.42,.03c-.04-.58-.41-.96-1.04-.96s-1.1,.49-1.1,1.27,.46,1.27,1.14,1.27c.59,0,.97-.37,1.03-.91h-.96v-.34h1.36v1.56h-.4v-.56c-.14,.4-.58,.62-1.08,.62-.89,0-1.54-.66-1.54-1.64Z"/></g></g></g></g></svg>