<?xml version="1.0" encoding="UTF-8"?><svg id="Layer_1" xmlns="http://www.w3.org/2000/svg" xmlns:xlink="http://www.w3.org/1999/xlink" viewBox="0 0 109.43 100.2"><defs><style>.cls-1{stroke:#ebebec;}.cls-1,.cls-2{stroke-width:.31px;}.cls-1,.cls-2,.cls-3,.cls-4{fill:none;}.cls-1,.cls-2,.cls-4{stroke-linecap:round;stroke-linejoin:round;}.cls-5{clip-path:url(#clippath-2);}.cls-6{clip-path:url(#clippath-1);}.cls-7{fill:#f1b784;fill-rule:evenodd;}.cls-2,.cls-4{stroke:#000;}.cls-8{clip-path:url(#clippath);}.cls-4{stroke-width:.46px;}.cls-9{fill:#333132;}</style><clipPath id="clippath"><rect class="cls-3" x="-485.52" y="-648.18" width="612" height="792"/></clipPath><clipPath id="clippath-1"><rect class="cls-3" x="-193.92" y="-16.98" width="320.4" height="119.4"/></clipPath><clipPath id="clippath-2"><rect class="cls-3" x="-485.52" y="-533.86" width="612" height="537.9"/></clipPath></defs><g class="cls-8"><g><polygon class="cls-7" points="80.44 58.75 77.69 59.75 77.51 59.24 75.21 60.08 79.67 72.33 84.71 70.49 80.44 58.75"/><polygon class="cls-1" points="80.44 58.75 77.69 59.75 77.51 59.24 75.21 60.08 79.67 72.33 84.71 70.49 80.44 58.75"/><polygon class="cls-7" points="70.36 62.42 73.1 61.42 72.92 60.91 75.21 60.08 79.67 72.33 74.63 74.16 70.36 62.42"/><polygon class="cls-1" points="70.36 62.42 73.1 61.42 72.92 60.91 75.21 60.08 79.67 72.33 74.63 74.16 70.36 62.42"/><polygon class="cls-1" points="59.96 15.36 59.83 15.36 57.01 15.36 57.01 14.83 54.6 14.83 54.6 27.86 59.96 27.86 59.96 15.36"/><line class="cls-2" x1="31.75" y1="33.07" x2="31.75" y2="29.89"/><polyline class="cls-2" points="35.15 33.07 31.75 29.89 28.35 33.07"/><polyline class="cls-2" points="35.15 29.89 31.75 33.07 28.35 29.89"/><line class="cls-2" x1="88.65" y1="65.4" x2="91.31" y2="64.43"/><polyline class="cls-2" points="89.83 68.63 91.31 64.43 87.47 62.16"/><polyline class="cls-2" points="92.49 67.66 88.65 65.4 90.13 61.2"/><polyline class="cls-2" points="86.74 55.88 86.1 54.13 86.1 19.38 103.61 19.38 103.61 44.29"/><polyline class="cls-2" points="103.61 44.89 103.61 45.2 96.8 47.68 98.26 51.69"/><polyline class="cls-2" points="1.69 20.7 .56 20.7 .56 13.27 7.3 13.27 7.3 14.83"/><polyline class="cls-2" points="14.2 14.83 14.2 13.27 18.5 13.27 18.5 14.83"/><polyline class="cls-2" points="24.59 14.83 24.59 13.27 30.98 13.27 30.98 14.83"/><line class="cls-2" x1="27.78" y1="13.27" x2="27.78" y2="15.36"/><polyline class="cls-2" points="35.32 14.83 35.32 13.27 41.71 13.27 41.71 14.83"/><polyline class="cls-2" points="46.04 14.83 46.04 13.27 52.43 13.27 52.43 14.83"/><line class="cls-2" x1="49.24" y1="15.36" x2="49.24" y2="13.27"/><polyline class="cls-2" points="56.74 14.83 56.74 13.27 60.01 13.27 60.01 14.83"/><polyline class="cls-2" points="63.64 14.83 63.64 13.27 70.37 13.27 70.37 20.7 68.88 20.7"/><polyline class="cls-2" points="68.88 37.05 70.37 37.05 70.37 44.48 63.64 44.48 63.64 42.92"/><polyline class="cls-2" points="56.42 42.92 56.42 44.48 48.11 44.48 48.11 42.92"/><line class="cls-2" x1="51.29" y1="42.39" x2="51.29" y2="44.48"/><polyline class="cls-2" points="43.76 42.92 43.76 44.48 37.37 44.48 37.37 42.92"/><line class="cls-2" x1="40.57" y1="42.39" x2="40.57" y2="44.48"/><polyline class="cls-2" points="31.55 42.92 31.55 44.48 26.64 44.48 26.64 42.92"/><polyline class="cls-2" points="20.75 42.92 20.75 44.48 17.48 44.48 17.48 42.93"/><polyline class="cls-2" points="14.28 40.89 14.28 42.44 10.84 42.44 10.84 40.35"/><polyline class="cls-2" points="13.98 26.26 12.46 26.26 12.46 21.49"/><line class="cls-2" x1="12.46" y1="25.92" x2="10.94" y2="25.92"/><line class="cls-2" x1="10.94" y1="24.31" x2="12.46" y2="23.6"/><polyline class="cls-2" points="60 31.69 58.48 31.69 58.48 36.24"/><line class="cls-2" x1="56.96" y1="34.4" x2="58.48" y2="33.7"/><line class="cls-2" x1="56.96" y1="32.08" x2="58.48" y2="32.08"/><polyline class="cls-2" points="84.91 56.55 84.91 50.26 78.05 50.26 78.05 44.89 76.24 44.89 76.24 44.29 78.05 44.29 78.05 36.6 78.05 30.76 78.05 25.52 78.05 22.72 78.05 13.68 98.26 13.68 98.26 14.21 105.61 14.21 105.61 18.65 106.15 18.65 106.15 26.34 106.15 29.87 106.15 33.81 106.15 36.6 106.15 44.29 108.37 44.29 108.37 44.89 106.15 44.89 106.15 50.26 100.2 50.26 100.2 51.04"/><polyline class="cls-2" points="55.88 95.49 56.18 96.32 49.78 98.65 47.84 93.3 49.3 92.77"/><polyline class="cls-2" points="48 76.23 46.48 76.78 43.94 69.8 50.27 67.5 50.8 68.96"/><polyline class="cls-2" points="57.44 66.55 56.91 65.09 60.94 63.62 61.48 65.08"/><polyline class="cls-2" points="67.17 63.01 66.64 61.54 72.64 59.36 73.18 60.82"/><line class="cls-2" x1="69.64" y1="60.45" x2="70.36" y2="62.42"/><polyline class="cls-2" points="77.25 59.34 76.72 57.87 82.72 55.69 83.26 57.15"/><line class="cls-2" x1="79.72" y1="56.78" x2="80.44" y2="58.75"/><polyline class="cls-2" points="103.86 61.1 105.33 60.57 107.01 65.21 105.52 65.75"/><polyline class="cls-2" points="64.95 92.19 65.25 93.02 61.43 94.41 61.12 93.59"/><line class="cls-2" x1="95.61" y1="64.51" x2="94.15" y2="65.05"/><polyline class="cls-2" points="97.01 63.82 95.55 64.36 96.5 66.98 95.05 67.51"/><line class="cls-2" x1="96.45" y1="66.82" x2="97.9" y2="66.29"/><polyline class="cls-2" points="59.49 73.41 58.16 73.89 59.62 77.9 61.07 77.36"/><line class="cls-2" x1="58.05" y1="78.12" x2="59.51" y2="77.59"/><line class="cls-2" x1="58.71" y1="75.41" x2="57.5" y2="76.62"/><polyline class="cls-2" points="96.33 32.11 94.67 32.11 94.67 28.5 93.02 28.5"/><line class="cls-2" x1="96.33" y1="29.09" x2="94.67" y2="29.09"/><line class="cls-2" x1="93.02" y1="31.78" x2="94.67" y2="31.78"/><rect class="cls-2" x="102.5" y="44.29" width="5.87" height=".6"/><rect class="cls-2" x="76.24" y="44.29" width="5.46" height=".6"/><polyline class="cls-2" points="104.95 69.28 106.43 68.74 108.54 74.54 102.36 76.79 102.05 75.93"/><polyline class="cls-2" points="90.88 80.35 94.4 79.07 94.28 78.76"/><line class="cls-2" x1="79.62" y1="84.45" x2="82.91" y2="83.25"/><polyline class="cls-2" points="71.9 87.29 72.08 87.81 68.58 89.08"/><polygon class="cls-2" points="1.69 20.86 1.69 20.41 2.23 20.41 2.23 15.36 7.02 15.36 7.02 14.83 14.48 14.83 14.48 15.36 18.22 15.36 18.22 14.83 24.84 14.83 24.84 15.36 30.67 15.36 30.67 14.83 35.56 14.83 35.56 15.36 41.4 15.36 41.4 14.83 46.29 14.83 46.29 15.36 52.13 15.36 52.13 14.83 57.01 14.83 57.01 15.36 59.83 15.36 59.83 14.83 63.92 14.83 63.92 15.36 68.35 15.36 68.35 20.42 68.88 20.42 68.88 25.69 68.35 25.69 68.35 32.06 68.88 32.06 68.88 37.33 68.35 37.33 68.35 42.39 63.92 42.39 63.92 42.92 56.15 42.92 56.15 42.39 48.39 42.39 48.39 42.92 43.52 42.92 43.52 42.39 37.68 42.39 37.68 42.92 31.27 42.92 31.27 42.39 26.91 42.39 26.91 42.92 20.48 42.92 20.48 42.39 17.88 42.39 17.88 42.93 17.43 42.93 17.43 40.88 14 40.88 14 40.35 9.4 40.35 9.4 37.43 8.86 37.43 8.86 35.83 5.8 35.83 5.8 31.39 2.59 31.39 2.59 20.86 1.69 20.86"/><rect class="cls-2" x="8.98" y="27.86" width="52.97" height="2.03"/><line class="cls-2" x1="8.98" y1="28.88" x2="2.59" y2="28.88"/><polyline class="cls-2" points="17.56 29.89 17.56 40.88 17.43 40.88"/><line class="cls-2" x1="22.92" y1="29.89" x2="22.92" y2="42.92"/><polyline class="cls-2" points="28.35 29.89 28.35 33.07 35.15 33.07 35.15 29.89"/><polyline class="cls-2" points="35.2 42.92 35.2 33.07 35.15 33.07"/><line class="cls-2" x1="40.57" y1="42.39" x2="40.57" y2="29.89"/><line class="cls-2" x1="45.93" y1="42.92" x2="45.93" y2="29.89"/><line class="cls-2" x1="51.29" y1="42.39" x2="51.29" y2="30.95"/><polyline class="cls-2" points="51.24 29.97 51.24 30.95 53.85 30.95 53.85 29.89"/><polyline class="cls-2" points="56.96 29.89 56.96 36.24 60 36.24 60 29.89"/><line class="cls-2" x1="59.96" y1="42.92" x2="59.96" y2="36.24"/><line class="cls-2" x1="68.35" y1="28.88" x2="61.96" y2="28.88"/><polyline class="cls-2" points="59.96 27.86 59.96 15.36 59.83 15.36"/><line class="cls-2" x1="54.6" y1="27.86" x2="54.6" y2="14.83"/><line class="cls-2" x1="49.24" y1="27.86" x2="49.24" y2="15.36"/><line class="cls-2" x1="43.87" y1="27.86" x2="43.87" y2="14.83"/><line class="cls-2" x1="38.51" y1="27.86" x2="38.51" y2="15.36"/><line class="cls-2" x1="33.15" y1="27.86" x2="33.15" y2="14.83"/><line class="cls-2" x1="27.78" y1="27.86" x2="27.78" y2="15.36"/><line class="cls-2" x1="22.42" y1="27.86" x2="22.42" y2="14.83"/><polyline class="cls-2" points="10.94 27.75 10.94 21.49 13.98 21.49 13.98 27.86"/><polyline class="cls-2" points="16.8 27.86 16.8 26.8 13.98 26.8"/><line class="cls-2" x1="10.98" y1="21.49" x2="10.98" y2="14.83"/><polygon class="cls-2" points="100.18 50.99 103.96 61.36 103.45 61.54 104.92 65.57 105.39 65.4 105.53 65.78 103.89 66.37 105.03 69.52 104.52 69.7 106.04 73.9 102.09 75.33 102.28 75.85 94.05 78.85 93.56 77.49 90.27 78.69 90.89 80.38 82.92 83.28 82.3 81.59 79.02 82.78 79.63 84.47 71.66 87.38 71.05 85.68 67.76 86.88 69.15 90.65 64.68 92.26 64.07 90.61 60.77 91.81 61.38 93.49 55.62 95.59 55.43 95.09 51.27 96.6 49.9 92.84 49.39 93.03 47.98 89.14 50.21 88.32 48.82 84.5 50.75 83.8 47.91 75.97 48.41 75.79 46.68 71.03 50.72 69.56 50.54 69.06 57.67 66.46 57.85 66.97 61.37 65.69 61.19 65.18 67.43 62.91 67.61 63.42 73.1 61.42 72.92 60.91 77.51 59.24 77.69 59.75 83.18 57.75 83 57.25 100.18 50.99"/><polyline class="cls-2" points="92.49 67.66 90.13 61.2 87.47 62.17 89.82 68.63"/><polyline class="cls-2" points="92.67 61 95.7 69.28 93.65 70.03 93.45 69.47 55.49 83.28 54.8 81.38 92.49 67.66"/><rect class="cls-2" x="93.02" y="26.85" width="3.31" height="7"/><polyline class="cls-2" points="93.5 63.26 96.41 62.2 98.6 68.2 95.69 69.25"/><polyline class="cls-2" points="58.72 79.95 56.52 73.91 59.43 72.85 61.63 78.89"/><polyline class="cls-2" points="64.3 77.92 63.94 76.92 61.27 77.89"/><polyline class="cls-2" points="103.45 61.54 103.41 61.43 96.98 63.76"/><polyline class="cls-2" points="50.75 83.8 50.8 83.92 55.15 82.33"/><line class="cls-2" x1="54.38" y1="67.66" x2="56.63" y2="73.87"/><line class="cls-2" x1="65.13" y1="63.75" x2="69.59" y2="76"/><line class="cls-2" x1="70.36" y1="62.42" x2="74.63" y2="74.16"/><line class="cls-2" x1="75.21" y1="60.08" x2="79.67" y2="72.33"/><line class="cls-2" x1="80.44" y1="58.75" x2="84.71" y2="70.49"/><polyline class="cls-2" points="85.3 56.41 87.4 62.19 87.47 62.16"/><polyline class="cls-2" points="90.37 61.83 93.16 60.82 92.19 58.15 86.66 60.16"/><polyline class="cls-2" points="90.13 61.2 90.26 61.15 89.99 60.41 88.48 60.96 88.74 61.7"/><polyline class="cls-2" points="93.56 77.49 93.65 77.46 91.06 70.34"/><polyline class="cls-2" points="64.07 90.61 64.13 90.59 60.77 81.36"/><polyline class="cls-2" points="79.02 82.78 78.92 82.82 76.33 75.7"/><g class="cls-6"><rect class="cls-2" x="-231.32" y="-429.63" width="442.64" height="572.83"/></g><g><path class="cls-9" d="M85.09,95.11v3.91h2.46v.5h-3.07v-4.41h.61Z"/><path class="cls-9" d="M91.29,99.52h-3.15v-4.41h3.08v.5h-2.49v1.39h1.98v.5h-1.98v1.52h2.56v.5Z"/><path class="cls-9" d="M93.37,99.52l-1.77-4.41h.62l1.49,3.71h.03l1.45-3.71h.62l-1.78,4.41h-.66Z"/><path class="cls-9" d="M99.46,99.52h-3.15v-4.41h3.08v.5h-2.49v1.39h1.98v.5h-1.98v1.52h2.56v.5Z"/><path class="cls-9" d="M100.76,95.11v3.91h2.46v.5h-3.07v-4.41h.61Z"/><path class="cls-9" d="M105.42,97.48c.15-.51,.6-.9,1.32-.9,.95,0,1.55,.62,1.55,1.49s-.62,1.53-1.61,1.53c-1.18,0-1.79-.85-1.79-2.21s.58-2.37,1.82-2.37c.88,0,1.46,.5,1.54,1.33l-.58,.02c-.08-.52-.37-.87-.97-.87-.9,0-1.28,.82-1.27,1.97h-.01Zm1.25,1.64c.65,0,1.04-.41,1.04-1.02s-.39-1.03-1.06-1.03-1.05,.41-1.05,1.03,.41,1.02,1.07,1.02Z"/></g><g class="cls-5"><rect class="cls-4" x="-515.23" y="-644.5" width="666.99" height="863.17"/></g><g><path class="cls-9" d="M5.23,4.24h.02l.65-2.62h.41l-.81,3.15h-.5l-.66-2.52h-.02l-.67,2.52h-.5l-.81-3.15h.42l.66,2.61h.02l.69-2.61h.41l.7,2.62h0Z"/><path class="cls-9" d="M8.91,4.77h-2.25V1.62h2.2v.36h-1.78v.99h1.42v.36h-1.42v1.09h1.83v.36h0Z"/><path class="cls-9" d="M9.55,3.62c.02,.58,.42,.87,.95,.87,.47,0,.77-.2,.77-.55,0-.29-.19-.43-.6-.51l-.62-.12c-.47-.09-.79-.34-.79-.83,0-.55,.44-.93,1.13-.93,.79,0,1.25,.42,1.25,1.13l-.4,.02c-.02-.52-.33-.82-.85-.82-.46,0-.71,.21-.71,.57,0,.31,.21,.41,.57,.48l.57,.11c.58,.11,.87,.36,.87,.87,0,.58-.5,.92-1.18,.92-.78,0-1.34-.42-1.34-1.19l.39-.03h0Z"/><path class="cls-9" d="M12.94,4.77V1.98h-1.15v-.36h2.74v.36h-1.17v2.79h-.42Z"/><path class="cls-9" d="M17.19,4.77h-1.34V1.62h1.29c.78,0,1.1,.34,1.1,.84,0,.37-.26,.62-.6,.68,.39,.07,.69,.32,.69,.77,0,.55-.4,.87-1.14,.87h0Zm-.92-1.8h.88c.46,0,.65-.2,.65-.5s-.19-.51-.65-.51h-.88v1.01Zm0,.34v1.1h.91c.47,0,.72-.21,.72-.55s-.25-.55-.72-.55h-.91Z"/><path class="cls-9" d="M18.76,3.57V1.62h.43v1.95c0,.6,.3,.9,.85,.9s.86-.29,.86-.89V1.62h.42v1.95c0,.92-.57,1.27-1.28,1.27s-1.28-.34-1.28-1.27Z"/><path class="cls-9" d="M22.32,1.62v3.15h-.43V1.62h.43Z"/><path class="cls-9" d="M23.36,1.62v2.79h1.76v.36h-2.19V1.62h.43Z"/><path class="cls-9" d="M25.55,1.62h1.14c.99,0,1.62,.59,1.62,1.58s-.63,1.58-1.62,1.58h-1.14V1.62Zm1.12,2.8c.77,0,1.19-.46,1.19-1.22s-.42-1.22-1.19-1.22h-.68v2.44h.68Z"/><path class="cls-9" d="M29.2,1.62v3.15h-.44V1.62h.44Z"/><path class="cls-9" d="M31.98,4.03V1.62h.41v3.15h-.35l-1.83-2.53v2.53h-.41V1.62h.45l1.73,2.41Z"/><path class="cls-9" d="M32.85,3.19c0-.97,.67-1.64,1.54-1.64s1.41,.5,1.46,1.3l-.42,.03c-.04-.58-.41-.96-1.04-.96s-1.1,.49-1.1,1.27,.46,1.27,1.14,1.27c.59,0,.97-.37,1.03-.91h-.96v-.34h1.36v1.56h-.4v-.56c-.14,.4-.58,.62-1.08,.62-.89,0-1.54-.66-1.54-1.64h.01Z"/></g><g><path class="cls-9" d="M78.07,4.77h-2.25V1.62h2.2v.36h-1.78v.99h1.42v.36h-1.42v1.09h1.83v.36h0Z"/><path class="cls-9" d="M80.08,1.62l1.31,3.15h-.46l-.38-.93h-1.44l-.37,.93h-.42l1.29-3.15h.47Zm-.83,1.88h1.16l-.58-1.4h-.02l-.57,1.4h0Z"/><path class="cls-9" d="M81.91,3.62c.02,.58,.42,.87,.95,.87,.47,0,.77-.2,.77-.55,0-.29-.19-.43-.6-.51l-.62-.12c-.47-.09-.79-.34-.79-.83,0-.55,.44-.93,1.13-.93,.79,0,1.25,.42,1.25,1.13l-.4,.02c-.02-.52-.33-.82-.85-.82-.46,0-.71,.21-.71,.57,0,.31,.21,.41,.57,.48l.57,.11c.58,.11,.87,.36,.87,.87,0,.58-.5,.92-1.18,.92-.78,0-1.34-.42-1.34-1.19l.39-.03h0Z"/><path class="cls-9" d="M85.3,4.77V1.98h-1.15v-.36h2.74v.36h-1.17v2.79h-.42Z"/><path class="cls-9" d="M89.55,4.77h-1.34V1.62h1.29c.78,0,1.1,.34,1.1,.84,0,.37-.26,.62-.6,.68,.39,.07,.69,.32,.69,.77,0,.55-.4,.87-1.14,.87h0Zm-.92-1.8h.88c.46,0,.65-.2,.65-.5s-.2-.51-.65-.51h-.88v1.01Zm0,.34v1.1h.91c.47,0,.72-.21,.72-.55s-.25-.55-.72-.55h-.91Z"/><path class="cls-9" d="M91.12,3.57V1.62h.43v1.95c0,.6,.3,.9,.85,.9s.86-.29,.86-.89V1.62h.43v1.95c0,.92-.57,1.27-1.28,1.27s-1.28-.34-1.28-1.27h-.01Z"/><path class="cls-9" d="M94.68,1.62v3.15h-.44V1.62h.44Z"/><path class="cls-9" d="M95.72,1.62v2.79h1.76v.36h-2.19V1.62h.43Z"/><path class="cls-9" d="M97.91,1.62h1.14c.99,0,1.62,.59,1.62,1.58s-.62,1.58-1.62,1.58h-1.14V1.62Zm1.12,2.8c.77,0,1.19-.46,1.19-1.22s-.42-1.22-1.19-1.22h-.68v2.44h.68Z"/><path class="cls-9" d="M101.56,1.62v3.15h-.43V1.62h.43Z"/><path class="cls-9" d="M104.34,4.03V1.62h.41v3.15h-.34l-1.83-2.53v2.53h-.41V1.62h.45l1.73,2.41h-.01Z"/><path class="cls-9" d="M105.21,3.19c0-.97,.67-1.64,1.54-1.64s1.41,.5,1.46,1.3l-.42,.03c-.04-.58-.41-.96-1.04-.96s-1.1,.49-1.1,1.27,.46,1.27,1.14,1.27c.59,0,.97-.37,1.03-.91h-.96v-.34h1.36v1.56h-.4v-.56c-.14,.4-.58,.62-1.08,.62-.89,0-1.54-.66-1.54-1.64h.01Z"/></g></g></g></svg>