<?xml version="1.0" encoding="UTF-8"?><svg id="Layer_1" xmlns="http://www.w3.org/2000/svg" xmlns:xlink="http://www.w3.org/1999/xlink" viewBox="0 0 112.77 100.2"><defs><style>.cls-1{stroke:#ebebec;}.cls-1,.cls-2{stroke-width:.31px;}.cls-1,.cls-2,.cls-3,.cls-4{fill:none;}.cls-1,.cls-2,.cls-4{stroke-linecap:round;stroke-linejoin:round;}.cls-5{clip-path:url(#clippath-1);}.cls-6{fill:#f1b784;fill-rule:evenodd;}.cls-2,.cls-4{stroke:#000;}.cls-7{clip-path:url(#clippath);}.cls-8{clip-path:url(#clippath-3);}.cls-4{stroke-width:.46px;}.cls-9{fill:#333132;}</style><clipPath id="clippath"><rect class="cls-3" x="-352.99" y="-648.18" width="612" height="792"/></clipPath><clipPath id="clippath-1"><rect class="cls-3" x="-61.39" y="-16.98" width="320.4" height="119.4"/></clipPath><clipPath id="clippath-3"><rect class="cls-3" x="-352.99" y="-533.86" width="612" height="537.9"/></clipPath></defs><g class="cls-7"><g><polygon class="cls-6" points="80.81 58.75 78.07 59.75 77.88 59.24 75.59 60.08 80.05 72.33 85.09 70.49 80.81 58.75"/><polygon class="cls-1" points="80.81 58.75 78.07 59.75 77.88 59.24 75.59 60.08 80.05 72.33 85.09 70.49 80.81 58.75"/><polygon class="cls-6" points="70.73 62.42 73.48 61.42 73.29 60.91 75.59 60.08 80.05 72.33 75.01 74.16 70.73 62.42"/><polygon class="cls-1" points="70.73 62.42 73.48 61.42 73.29 60.91 75.59 60.08 80.05 72.33 75.01 74.16 70.73 62.42"/><polygon class="cls-1" points="60.34 15.36 60.21 15.36 57.39 15.36 57.39 14.83 54.97 14.83 54.97 27.86 60.34 27.86 60.34 15.36"/><line class="cls-2" x1="32.12" y1="33.07" x2="32.12" y2="29.89"/><polyline class="cls-2" points="35.52 33.07 32.12 29.89 28.72 33.07"/><polyline class="cls-2" points="35.52 29.89 32.12 33.07 28.72 29.89"/><line class="cls-2" x1="89.02" y1="65.4" x2="91.68" y2="64.43"/><polyline class="cls-2" points="90.2 68.63 91.68 64.43 87.84 62.16"/><polyline class="cls-2" points="92.86 67.66 89.02 65.4 90.51 61.2"/><polyline class="cls-2" points="2.07 20.7 .94 20.7 .94 13.27 7.67 13.27 7.67 14.83"/><polyline class="cls-2" points="14.57 14.83 14.57 13.27 18.87 13.27 18.87 14.83"/><polyline class="cls-2" points="24.96 14.83 24.96 13.27 31.35 13.27 31.35 14.83"/><line class="cls-2" x1="28.16" y1="13.27" x2="28.16" y2="15.36"/><polyline class="cls-2" points="69.26 37.05 70.75 37.05 70.75 44.48 64.01 44.48 64.01 42.92"/><polyline class="cls-2" points="56.8 42.92 56.8 44.48 48.49 44.48 48.49 42.92"/><line class="cls-2" x1="51.67" y1="42.39" x2="51.67" y2="44.48"/><polyline class="cls-2" points="44.13 42.92 44.13 44.48 37.74 44.48 37.74 42.92"/><line class="cls-2" x1="40.94" y1="42.39" x2="40.94" y2="44.48"/><polyline class="cls-2" points="31.92 42.92 31.92 44.48 27.01 44.48 27.01 42.92"/><polyline class="cls-2" points="21.13 42.92 21.13 44.48 17.86 44.48 17.86 42.93"/><polyline class="cls-2" points="14.65 40.89 14.65 42.44 11.21 42.44 11.21 40.35"/><polyline class="cls-2" points="14.35 26.26 12.83 26.26 12.83 21.49"/><line class="cls-2" x1="12.83" y1="25.92" x2="11.31" y2="25.92"/><line class="cls-2" x1="11.31" y1="24.31" x2="12.83" y2="23.6"/><polyline class="cls-2" points="60.37 31.69 58.85 31.69 58.85 36.24"/><line class="cls-2" x1="57.33" y1="34.4" x2="58.85" y2="33.7"/><line class="cls-2" x1="57.33" y1="32.08" x2="58.85" y2="32.08"/><polyline class="cls-2" points="56.25 95.49 56.55 96.32 50.16 98.65 48.21 93.3 49.67 92.77"/><polyline class="cls-2" points="48.37 76.23 46.86 76.78 44.32 69.8 50.64 67.5 51.17 68.96"/><polyline class="cls-2" points="57.81 66.55 57.28 65.09 61.32 63.62 61.85 65.08"/><polyline class="cls-2" points="67.55 63.01 67.01 61.54 73.02 59.36 73.55 60.82"/><line class="cls-2" x1="70.02" y1="60.45" x2="70.73" y2="62.42"/><polyline class="cls-2" points="77.63 59.34 77.09 57.87 83.1 55.69 83.63 57.15"/><line class="cls-2" x1="80.09" y1="56.78" x2="80.81" y2="58.75"/><polyline class="cls-2" points="78.43 47.89 76.87 47.89 76.87 44.89"/><polyline class="cls-2" points="78.43 41.3 76.87 41.3 76.87 44.29"/><polyline class="cls-2" points="78.43 36.88 76.87 36.88 76.87 30.49 78.43 30.49"/><line class="cls-2" x1="76.87" y1="33.68" x2="78.96" y2="33.68"/><polyline class="cls-2" points="106.52 26.07 108.08 26.07 108.08 30.15 106.52 30.15"/><polyline class="cls-2" points="106.52 33.54 108.08 33.54 108.08 36.88 106.52 36.88"/><polyline class="cls-2" points="106.52 41.3 108.08 41.3 108.08 44.29"/><polyline class="cls-2" points="108.08 44.89 108.08 47.88 106.52 47.88"/><polyline class="cls-2" points="104.24 61.1 105.7 60.57 107.39 65.21 105.9 65.75"/><polyline class="cls-2" points="105.32 69.28 106.81 68.74 109.15 75.17 102.96 77.42 102.42 75.93"/><polyline class="cls-2" points="65.25 92.2 65.56 93.05 61.8 94.42 61.5 93.59"/><line class="cls-2" x1="93.49" y1="44.59" x2="90.87" y2="44.59"/><line class="cls-2" x1="95.98" y1="64.51" x2="94.52" y2="65.05"/><polyline class="cls-2" points="97.38 63.82 95.92 64.36 96.88 66.98 95.43 67.51"/><line class="cls-2" x1="96.82" y1="66.82" x2="98.28" y2="66.29"/><polyline class="cls-2" points="59.86 73.41 58.53 73.89 59.99 77.9 61.45 77.36"/><line class="cls-2" x1="58.42" y1="78.12" x2="59.88" y2="77.59"/><line class="cls-2" x1="59.09" y1="75.41" x2="57.88" y2="76.62"/><polyline class="cls-2" points="96.6 32.11 95.05 32.11 95.05 29.16 93.49 29.16"/><line class="cls-2" x1="96.6" y1="29.49" x2="95.05" y2="29.49"/><line class="cls-2" x1="93.49" y1="31.78" x2="95.05" y2="31.78"/><line class="cls-2" x1="38.88" y1="15.36" x2="38.88" y2="13.27"/><polyline class="cls-2" points="91.25 80.35 94.77 79.07 94.66 78.76"/><line class="cls-2" x1="80" y1="84.45" x2="83.28" y2="83.25"/><polyline class="cls-2" points="72.27 87.29 72.46 87.81 68.95 89.08"/><polyline class="cls-2" points="100.65 13.68 100.65 12.12 108.08 12.12 108.08 18.92 106.52 18.92"/><polyline class="cls-2" points="78.43 18.92 76.87 18.92 76.87 12.12 84.3 12.12 84.3 13.68"/><polyline class="cls-2" points="78.43 22.45 76.87 22.45 76.87 25.79 78.43 25.79"/><polyline class="cls-2" points="35.69 14.83 35.69 13.27 42.08 13.27 42.08 14.83"/><line class="cls-2" x1="49.61" y1="15.36" x2="49.61" y2="13.27"/><polyline class="cls-2" points="46.42 14.83 46.42 13.27 52.81 13.27 52.81 14.83"/><polyline class="cls-2" points="57.11 14.83 57.11 13.27 60.48 13.27 60.48 14.83"/><polyline class="cls-2" points="64.01 14.83 64.01 13.27 70.75 13.27 70.75 20.7 69.26 20.7"/><polygon class="cls-2" points="2.07 20.86 2.07 20.41 2.6 20.41 2.6 15.36 7.39 15.36 7.39 14.83 14.85 14.83 14.85 15.36 18.6 15.36 18.6 14.83 25.21 14.83 25.21 15.36 31.05 15.36 31.05 14.83 35.94 14.83 35.94 15.36 41.77 15.36 41.77 14.83 46.66 14.83 46.66 15.36 52.5 15.36 52.5 14.83 57.39 14.83 57.39 15.36 60.21 15.36 60.21 14.83 64.29 14.83 64.29 15.36 68.72 15.36 68.72 20.42 69.26 20.42 69.26 25.69 68.72 25.69 68.72 32.06 69.26 32.06 69.26 37.33 68.72 37.33 68.72 42.39 64.29 42.39 64.29 42.92 56.52 42.92 56.52 42.39 48.76 42.39 48.76 42.92 43.89 42.92 43.89 42.39 38.05 42.39 38.05 42.92 31.64 42.92 31.64 42.39 27.29 42.39 27.29 42.92 20.85 42.92 20.85 42.39 18.26 42.39 18.26 42.93 17.8 42.93 17.8 40.88 14.37 40.88 14.37 40.35 9.77 40.35 9.77 37.43 9.23 37.43 9.23 35.83 6.17 35.83 6.17 31.39 2.96 31.39 2.96 20.86 2.07 20.86"/><rect class="cls-2" x="9.36" y="27.86" width="52.97" height="2.03"/><line class="cls-2" x1="9.36" y1="28.88" x2="2.96" y2="28.88"/><polyline class="cls-2" points="17.93 29.89 17.93 40.88 17.8 40.88"/><line class="cls-2" x1="23.29" y1="29.89" x2="23.29" y2="42.92"/><polyline class="cls-2" points="28.72 29.89 28.72 33.07 35.52 33.07 35.52 29.89"/><polyline class="cls-2" points="35.58 42.92 35.58 33.07 35.52 33.07"/><line class="cls-2" x1="40.94" y1="42.39" x2="40.94" y2="29.89"/><line class="cls-2" x1="46.3" y1="42.92" x2="46.3" y2="29.89"/><line class="cls-2" x1="51.67" y1="42.39" x2="51.67" y2="30.95"/><polyline class="cls-2" points="51.61 29.97 51.61 30.95 54.23 30.95 54.23 29.89"/><polyline class="cls-2" points="57.33 29.89 57.33 36.24 60.37 36.24 60.37 29.89"/><line class="cls-2" x1="60.34" y1="42.92" x2="60.34" y2="36.24"/><line class="cls-2" x1="68.72" y1="28.88" x2="62.33" y2="28.88"/><polyline class="cls-2" points="60.34 27.86 60.34 15.36 60.21 15.36"/><line class="cls-2" x1="54.97" y1="27.86" x2="54.97" y2="14.83"/><line class="cls-2" x1="49.61" y1="27.86" x2="49.61" y2="15.36"/><line class="cls-2" x1="44.25" y1="27.86" x2="44.25" y2="14.83"/><line class="cls-2" x1="38.88" y1="27.86" x2="38.88" y2="15.36"/><line class="cls-2" x1="33.52" y1="27.86" x2="33.52" y2="14.83"/><line class="cls-2" x1="28.16" y1="27.86" x2="28.16" y2="15.36"/><line class="cls-2" x1="22.8" y1="27.86" x2="22.8" y2="14.83"/><polyline class="cls-2" points="11.31 27.75 11.31 21.49 14.35 21.49 14.35 27.86"/><polyline class="cls-2" points="17.17 27.86 17.17 26.8 14.35 26.8"/><line class="cls-2" x1="11.35" y1="21.49" x2="11.35" y2="14.83"/><polygon class="cls-2" points="78.96 14.21 84.02 14.21 84.02 13.68 89.28 13.68 89.28 14.21 95.67 14.21 95.67 13.68 100.9 13.68 100.9 14.21 105.99 14.21 105.99 18.64 106.52 18.64 106.52 26.34 105.99 26.34 105.99 29.87 106.52 29.87 106.52 33.81 105.99 33.81 105.99 36.6 106.52 36.6 106.52 41.57 105.99 41.57 105.99 44.29 108.74 44.29 108.74 44.89 105.99 44.89 105.99 47.61 106.52 47.61 106.52 50.26 100.57 50.26 100.57 51.05 100.58 51.06 104.33 61.36 103.83 61.54 105.29 65.57 105.77 65.4 105.91 65.78 104.26 66.37 105.4 69.52 104.89 69.7 106.42 73.9 102.47 75.33 102.65 75.85 94.42 78.85 93.93 77.49 90.65 78.69 91.26 80.38 83.29 83.28 82.67 81.59 79.39 82.78 80.01 84.47 72.03 87.37 71.42 85.68 68.15 86.88 69.52 90.65 65.02 92.29 64.41 90.62 61.14 91.81 61.76 93.49 55.99 95.59 55.81 95.09 51.64 96.6 50.27 92.84 49.77 93.03 48.35 89.13 50.58 88.32 49.19 84.5 51.13 83.8 48.28 75.97 48.78 75.79 47.05 71.03 51.1 69.56 50.91 69.06 58.04 66.46 58.23 66.97 61.75 65.69 61.56 65.18 67.8 62.91 67.99 63.42 73.47 61.42 73.29 60.91 77.88 59.24 78.07 59.75 83.55 57.75 83.37 57.25 85.29 56.55 85.29 50.26 78.43 50.26 78.43 47.61 78.96 47.61 78.96 44.89 76.61 44.89 76.61 44.29 78.96 44.29 78.96 41.57 78.43 41.57 78.43 36.6 78.96 36.6 78.96 30.76 78.43 30.76 78.43 25.52 78.96 25.52 78.96 22.72 78.43 22.72 78.43 18.64 78.96 18.64 78.96 14.21"/><polyline class="cls-2" points="92.86 67.66 90.51 61.2 87.84 62.17 90.2 68.63"/><polyline class="cls-2" points="88.23 62.02 88.23 60.94 90.12 60.94 90.24 61.29"/><polyline class="cls-2" points="90.51 61.2 90.46 61.06 91.46 60.69 91.46 47.36 91.22 47.22 90.87 47.01 90.87 42.16 91.46 41.81 91.46 20.6 93.49 20.6 93.49 62.22 96.08 69.28 94.43 69.88 94.23 69.32 55.87 83.28 55.18 81.38 92.86 67.66"/><polyline class="cls-2" points="91.46 57.95 90.34 57.95 90.34 60.94 90.12 60.94"/><polyline class="cls-2" points="91.46 22.54 90.4 22.54 90.4 25.23 91.46 25.23"/><polyline class="cls-2" points="93.49 27.35 96.6 27.35 96.6 33.69 93.49 33.69"/><polyline class="cls-2" points="93.87 63.26 96.79 62.2 98.97 68.2 96.07 69.25"/><polyline class="cls-2" points="59.09 79.95 56.89 73.91 59.81 72.85 62.01 78.89"/><polyline class="cls-2" points="64.68 77.92 64.31 76.92 61.64 77.89"/><line class="cls-2" x1="92.48" y1="20.6" x2="92.48" y2="14.21"/><line class="cls-2" x1="93.49" y1="22.6" x2="106.52" y2="22.6"/><polyline class="cls-2" points="105.99 33.81 105.99 33.68 96.6 33.68"/><line class="cls-2" x1="106.52" y1="39.05" x2="93.49" y2="39.05"/><line class="cls-2" x1="93.49" y1="44.59" x2="108.74" y2="44.59"/><line class="cls-2" x1="76.61" y1="44.59" x2="90.87" y2="44.59"/><polyline class="cls-2" points="93.49 57.69 99.1 57.69 102.54 56.44"/><polyline class="cls-2" points="104.26 66.37 104.22 66.25 98.97 68.19"/><polyline class="cls-2" points="61.14 91.81 61.03 91.86 57.67 82.63"/><polyline class="cls-2" points="51.13 83.8 51.17 83.92 55.52 82.33"/><line class="cls-2" x1="54.75" y1="67.66" x2="57.01" y2="73.87"/><line class="cls-2" x1="65.51" y1="63.75" x2="69.97" y2="76"/><line class="cls-2" x1="70.73" y1="62.42" x2="75.01" y2="74.16"/><line class="cls-2" x1="75.59" y1="60.08" x2="80.05" y2="72.33"/><line class="cls-2" x1="80.81" y1="58.75" x2="85.09" y2="70.49"/><polyline class="cls-2" points="85.29 56.55 85.41 56.55 85.41 57.44 88.28 57.44 88.28 60.94"/><line class="cls-2" x1="78.43" y1="39.05" x2="91.46" y2="39.05"/><line class="cls-2" x1="78.96" y1="33.68" x2="91.46" y2="33.68"/><line class="cls-2" x1="78.43" y1="28.32" x2="91.46" y2="28.32"/><polyline class="cls-2" points="78.96 22.72 78.96 22.6 90.4 22.6"/><polyline class="cls-2" points="71.42 85.68 71.51 85.65 68.92 78.53"/><polyline class="cls-2" points="82.67 81.59 82.77 81.55 80.18 74.44"/><polyline class="cls-2" points="93.93 77.49 94.02 77.46 91.43 70.34"/><g class="cls-5"><rect class="cls-2" x="-98.79" y="-429.63" width="442.64" height="572.83"/></g><g><path class="cls-9" d="M83.09,95.11v3.91h2.46v.5h-3.07v-4.41h.61Z"/><path class="cls-9" d="M89.29,99.52h-3.15v-4.41h3.08v.5h-2.49v1.39h1.98v.5h-1.98v1.52h2.56v.5Z"/><path class="cls-9" d="M91.36,99.52l-1.77-4.41h.62l1.49,3.71h.03l1.45-3.71h.62l-1.78,4.41h-.66Z"/><path class="cls-9" d="M97.45,99.52h-3.15v-4.41h3.08v.5h-2.49v1.39h1.98v.5h-1.98v1.52h2.56v.5Z"/><path class="cls-9" d="M98.75,95.11v3.91h2.46v.5h-3.07v-4.41h.61Z"/><path class="cls-9" d="M106.07,99v.53h-3.24v-.35l1.25-1.07c.69-.6,1.21-1.05,1.21-1.69,0-.52-.29-.88-.88-.88s-.94,.38-.94,1.03c0,.13,.01,.27,.05,.4l-.6-.03c-.03-.14-.05-.28-.05-.41,0-.9,.61-1.48,1.55-1.48,1.03,0,1.5,.6,1.5,1.35,0,.8-.68,1.41-1.32,1.93l-.83,.69h2.3v-.02Z"/><path class="cls-9" d="M106.33,97.48h1.61v.52h-1.61v-.52Z"/><path class="cls-9" d="M111.54,95.66h-2.12c0,.24-.11,1.14-.16,1.37,.2-.25,.56-.45,1.05-.45,1,0,1.52,.67,1.52,1.48,0,.92-.64,1.55-1.6,1.55-1.06,0-1.67-.67-1.62-1.65l.59,.05c0,.67,.36,1.11,1.05,1.11,.62,0,1-.41,1-1.06,0-.58-.38-1.01-1-1.01-.49,0-.81,.26-.97,.56l-.6-.04c.11-.61,.26-1.74,.28-2.46h2.58v.55h0Z"/></g><g class="cls-8"><rect class="cls-4" x="-382.7" y="-644.5" width="666.99" height="863.17"/></g><g><path class="cls-9" d="M4.33,4.24h.02l.65-2.62h.41l-.81,3.15h-.5l-.66-2.52h-.02l-.67,2.52h-.5L1.44,1.62h.42l.66,2.61h.02l.69-2.61h.41l.7,2.62h-.01Z"/><path class="cls-9" d="M8.01,4.77h-2.25V1.62h2.2v.36h-1.78v.99h1.42v.36h-1.42v1.09h1.83v.36h0Z"/><path class="cls-9" d="M8.65,3.62c.03,.58,.42,.87,.95,.87,.47,0,.77-.2,.77-.55,0-.29-.19-.43-.6-.51l-.62-.12c-.47-.09-.79-.34-.79-.83,0-.55,.44-.93,1.13-.93,.79,0,1.25,.42,1.25,1.13l-.39,.02c-.02-.52-.33-.82-.85-.82-.46,0-.71,.21-.71,.57,0,.31,.21,.41,.57,.48l.57,.11c.58,.11,.87,.36,.87,.87,0,.58-.5,.92-1.18,.92-.78,0-1.34-.42-1.34-1.19l.39-.03h-.02Z"/><path class="cls-9" d="M12.04,4.77V1.98h-1.15v-.36h2.74v.36h-1.17v2.79h-.42Z"/><path class="cls-9" d="M16.29,4.77h-1.34V1.62h1.29c.78,0,1.1,.34,1.1,.84,0,.37-.26,.62-.6,.68,.39,.07,.69,.32,.69,.77,0,.55-.4,.87-1.14,.87h0Zm-.92-1.8h.88c.46,0,.65-.2,.65-.5s-.2-.51-.65-.51h-.88v1.01Zm0,.34v1.1h.91c.47,0,.72-.21,.72-.55s-.25-.55-.72-.55h-.91Z"/><path class="cls-9" d="M17.86,3.57V1.62h.43v1.95c0,.6,.3,.9,.85,.9s.86-.29,.86-.89V1.62h.43v1.95c0,.92-.57,1.27-1.28,1.27s-1.28-.34-1.28-1.27h-.01Z"/><path class="cls-9" d="M21.42,1.62v3.15h-.44V1.62h.44Z"/><path class="cls-9" d="M22.46,1.62v2.79h1.76v.36h-2.19V1.62h.43Z"/><path class="cls-9" d="M24.65,1.62h1.14c.99,0,1.62,.59,1.62,1.58s-.62,1.58-1.62,1.58h-1.14V1.62Zm1.12,2.8c.77,0,1.19-.46,1.19-1.22s-.42-1.22-1.19-1.22h-.68v2.44h.68Z"/><path class="cls-9" d="M28.3,1.62v3.15h-.43V1.62h.43Z"/><path class="cls-9" d="M31.09,4.03V1.62h.41v3.15h-.34l-1.83-2.53v2.53h-.41V1.62h.45l1.73,2.41h-.01Z"/><path class="cls-9" d="M31.95,3.19c0-.97,.67-1.64,1.54-1.64s1.41,.5,1.46,1.3l-.42,.03c-.04-.58-.41-.96-1.04-.96s-1.1,.49-1.1,1.27,.46,1.27,1.14,1.27c.59,0,.97-.37,1.03-.91h-.96v-.34h1.36v1.56h-.4v-.56c-.14,.4-.58,.62-1.08,.62-.89,0-1.54-.66-1.54-1.64h.01Z"/></g><g><path class="cls-9" d="M77.17,4.77h-2.25V1.62h2.2v.36h-1.78v.99h1.42v.36h-1.42v1.09h1.83v.36h0Z"/><path class="cls-9" d="M79.18,1.62l1.31,3.15h-.46l-.38-.93h-1.44l-.37,.93h-.43l1.29-3.15h.48Zm-.83,1.88h1.16l-.58-1.4h-.02l-.57,1.4h0Z"/><path class="cls-9" d="M81.01,3.62c.03,.58,.42,.87,.95,.87,.47,0,.77-.2,.77-.55,0-.29-.19-.43-.6-.51l-.62-.12c-.47-.09-.79-.34-.79-.83,0-.55,.44-.93,1.13-.93,.79,0,1.25,.42,1.25,1.13l-.39,.02c-.02-.52-.33-.82-.85-.82-.46,0-.71,.21-.71,.57,0,.31,.21,.41,.57,.48l.57,.11c.58,.11,.87,.36,.87,.87,0,.58-.5,.92-1.18,.92-.78,0-1.34-.42-1.34-1.19l.39-.03h-.02Z"/><path class="cls-9" d="M84.41,4.77V1.98h-1.15v-.36h2.74v.36h-1.17v2.79h-.42Z"/><path class="cls-9" d="M88.65,4.77h-1.34V1.62h1.29c.78,0,1.1,.34,1.1,.84,0,.37-.26,.62-.6,.68,.39,.07,.69,.32,.69,.77,0,.55-.4,.87-1.14,.87h0Zm-.92-1.8h.88c.46,0,.65-.2,.65-.5s-.19-.51-.65-.51h-.88v1.01Zm0,.34v1.1h.91c.47,0,.72-.21,.72-.55s-.25-.55-.72-.55h-.91Z"/><path class="cls-9" d="M90.22,3.57V1.62h.43v1.95c0,.6,.3,.9,.85,.9s.86-.29,.86-.89V1.62h.42v1.95c0,.92-.57,1.27-1.28,1.27s-1.28-.34-1.28-1.27Z"/><path class="cls-9" d="M93.78,1.62v3.15h-.43V1.62h.43Z"/><path class="cls-9" d="M94.82,1.62v2.79h1.76v.36h-2.19V1.62h.43Z"/><path class="cls-9" d="M97.01,1.62h1.14c.99,0,1.62,.59,1.62,1.58s-.63,1.58-1.62,1.58h-1.14V1.62Zm1.12,2.8c.77,0,1.19-.46,1.19-1.22s-.42-1.22-1.19-1.22h-.68v2.44h.68Z"/><path class="cls-9" d="M100.66,1.62v3.15h-.44V1.62h.44Z"/><path class="cls-9" d="M103.45,4.03V1.62h.41v3.15h-.35l-1.83-2.53v2.53h-.41V1.62h.45l1.73,2.41Z"/><path class="cls-9" d="M104.31,3.19c0-.97,.67-1.64,1.54-1.64s1.41,.5,1.46,1.3l-.42,.03c-.04-.58-.41-.96-1.04-.96s-1.1,.49-1.1,1.27,.46,1.27,1.14,1.27c.59,0,.97-.37,1.03-.91h-.96v-.34h1.36v1.56h-.4v-.56c-.14,.4-.58,.62-1.08,.62-.89,0-1.54-.66-1.54-1.64h.01Z"/></g></g></g></svg>