<?xml version="1.0" encoding="UTF-8"?><svg id="Layer_1" xmlns="http://www.w3.org/2000/svg" xmlns:xlink="http://www.w3.org/1999/xlink" viewBox="0 0 110.45 100.3"><defs><style>.cls-1{stroke:#ebebec;}.cls-1,.cls-2{stroke-linecap:round;stroke-linejoin:round;stroke-width:.31px;}.cls-1,.cls-2,.cls-3{fill:none;}.cls-4{fill:#f1b784;fill-rule:evenodd;}.cls-2{stroke:#000;}.cls-5{clip-path:url(#clippath);}.cls-6{fill:#333132;}</style><clipPath id="clippath"><rect class="cls-3" x="-484.51" y="-648.66" width="612" height="792"/></clipPath></defs><g class="cls-5"><g><polygon class="cls-4" points="60.39 14.08 60.26 14.08 57.44 14.08 57.44 13.54 55.03 13.54 55.03 26.58 60.39 26.58 60.39 14.08"/><polygon class="cls-4" points="46.57 28.58 41.21 28.58 41.21 41.08 44.16 41.08 44.16 41.61 46.57 41.61 46.57 28.58"/><polygon class="cls-1" points="46.57 28.58 41.2 28.58 41.2 41.08 44.15 41.08 44.15 41.61 46.57 41.61 46.57 28.58"/><polygon class="cls-4" points="28.42 14.05 25.47 14.05 25.47 13.52 23.06 13.52 23.06 26.55 28.42 26.55 28.42 14.05"/><polygon class="cls-1" points="28.42 14.05 25.47 14.05 25.47 13.52 23.06 13.52 23.06 26.55 28.42 26.55 28.42 14.05"/><polygon class="cls-4" points="33.79 13.52 31.31 13.52 31.31 14.05 28.42 14.05 28.42 26.55 33.79 26.55 33.79 13.52"/><polygon class="cls-1" points="33.79 13.52 31.31 13.52 31.31 14.05 28.42 14.05 28.42 26.55 33.79 26.55 33.79 13.52"/><polygon class="cls-4" points="39.15 14.05 36.2 14.05 36.2 13.52 33.79 13.52 33.79 26.55 39.15 26.55 39.15 14.05"/><polygon class="cls-1" points="39.15 14.05 36.2 14.05 36.2 13.52 33.79 13.52 33.79 26.55 39.15 26.55 39.15 14.05"/><polygon class="cls-4" points="44.51 13.52 42.04 13.52 42.04 14.05 39.15 14.05 39.15 26.55 44.51 26.55 44.51 13.52"/><polygon class="cls-1" points="44.51 13.52 42.04 13.52 42.04 14.05 39.15 14.05 39.15 26.55 44.51 26.55 44.51 13.52"/><polygon class="cls-4" points="49.88 14.05 46.93 14.05 46.93 13.52 44.51 13.52 44.51 26.55 49.88 26.55 49.88 14.05"/><polygon class="cls-1" points="49.88 14.05 46.93 14.05 46.93 13.52 44.51 13.52 44.51 26.55 49.88 26.55 49.88 14.05"/><polygon class="cls-4" points="55.24 13.52 52.77 13.52 52.77 14.05 49.88 14.05 49.88 26.55 55.24 26.55 55.24 13.52"/><polygon class="cls-1" points="55.24 13.52 52.76 13.52 52.76 14.05 49.88 14.05 49.88 26.55 55.24 26.55 55.24 13.52"/><polygon class="cls-4" points="51.93 29.64 51.88 29.64 51.88 28.58 46.57 28.58 46.57 41.61 49.03 41.61 49.03 41.08 51.93 41.08 51.93 29.64"/><polygon class="cls-1" points="51.93 29.64 51.88 29.64 51.88 28.58 46.57 28.58 46.57 41.61 49.03 41.61 49.03 41.08 51.93 41.08 51.93 29.64"/><polygon class="cls-4" points="35.84 28.58 41.21 28.58 41.21 41.08 38.26 41.08 38.26 41.61 35.84 41.61 35.84 28.58"/><polygon class="cls-1" points="35.84 28.58 41.2 28.58 41.2 41.08 38.26 41.08 38.26 41.61 35.84 41.61 35.84 28.58"/><polygon class="cls-4" points="23.56 28.58 18.19 28.58 18.19 39.57 18.07 39.57 18.07 41.62 18.52 41.62 18.52 41.08 21.12 41.08 21.12 41.61 23.56 41.61 23.56 28.58"/><polygon class="cls-1" points="23.56 28.58 18.2 28.58 18.2 39.57 18.07 39.57 18.07 41.62 18.52 41.62 18.52 41.08 21.11 41.08 21.11 41.61 23.56 41.61 23.56 28.58"/><polygon class="cls-4" points="71 61.11 68.25 62.1 68.07 61.6 65.77 62.44 70.23 74.68 75.27 72.85 71 61.11"/><polygon class="cls-1" points="71 61.1 68.25 62.1 68.07 61.6 65.77 62.43 70.23 74.68 75.27 72.85 71 61.1"/><polygon class="cls-4" points="85.93 55.1 83.64 55.93 83.82 56.44 81.08 57.44 85.35 69.18 90.46 67.32 88.11 60.85 88.04 60.88 85.93 55.1"/><polygon class="cls-1" points="85.93 55.1 83.64 55.93 83.82 56.44 81.08 57.44 85.35 69.18 90.46 67.32 88.11 60.85 88.04 60.88 85.93 55.1"/><line class="cls-2" x1="32.39" y1="31.76" x2="32.39" y2="28.58"/><polyline class="cls-2" points="35.79 31.76 32.39 28.58 28.99 31.76"/><polyline class="cls-2" points="35.79 28.58 32.39 31.76 28.99 28.58"/><line class="cls-2" x1="89.29" y1="64.09" x2="91.95" y2="63.12"/><polyline class="cls-2" points="90.46 67.32 91.95 63.12 88.11 60.85"/><polyline class="cls-2" points="93.13 66.35 89.29 64.09 90.77 59.88"/><polyline class="cls-2" points="87.38 54.57 86.74 52.82 86.74 18.07 104.25 18.07 104.25 42.98"/><polyline class="cls-2" points="104.25 43.58 104.25 43.89 97.44 46.37 98.9 50.38"/><polyline class="cls-2" points="2.33 19.39 1.2 19.39 1.2 11.96 7.93 11.96 7.93 13.52"/><polyline class="cls-2" points="14.84 13.52 14.84 11.96 19.14 11.96 19.14 13.52"/><polyline class="cls-2" points="25.23 13.52 25.23 11.96 31.62 11.96 31.62 13.52"/><line class="cls-2" x1="28.42" y1="11.96" x2="28.42" y2="14.05"/><polyline class="cls-2" points="35.95 13.52 35.95 11.96 42.34 11.96 42.34 13.52"/><polyline class="cls-2" points="46.68 13.52 46.68 11.96 53.07 11.96 53.07 13.52"/><line class="cls-2" x1="49.88" y1="14.05" x2="49.88" y2="11.96"/><polyline class="cls-2" points="57.38 13.52 57.38 11.96 60.65 11.96 60.65 13.52"/><polyline class="cls-2" points="64.28 13.52 64.28 11.96 71.01 11.96 71.01 19.39 69.52 19.39"/><polyline class="cls-2" points="69.52 35.74 71.01 35.74 71.01 43.17 64.28 43.17 64.28 41.61"/><polyline class="cls-2" points="57.06 41.61 57.06 43.17 48.75 43.17 48.75 41.61"/><line class="cls-2" x1="51.93" y1="41.08" x2="51.93" y2="43.17"/><polyline class="cls-2" points="44.4 41.61 44.4 43.17 38.01 43.17 38.01 41.61"/><line class="cls-2" x1="41.2" y1="41.08" x2="41.2" y2="43.17"/><polyline class="cls-2" points="32.18 41.61 32.18 43.17 27.28 43.17 27.28 41.61"/><polyline class="cls-2" points="21.39 41.61 21.39 43.17 18.12 43.17 18.12 41.62"/><polyline class="cls-2" points="14.91 39.57 14.91 41.13 11.47 41.13 11.47 39.04"/><polyline class="cls-2" points="14.62 24.95 13.1 24.95 13.1 20.18"/><line class="cls-2" x1="13.1" y1="24.61" x2="11.58" y2="24.61"/><line class="cls-2" x1="11.58" y1="23" x2="13.1" y2="22.29"/><polyline class="cls-2" points="60.64 30.38 59.12 30.38 59.12 34.93"/><line class="cls-2" x1="57.6" y1="33.09" x2="59.12" y2="32.39"/><line class="cls-2" x1="57.6" y1="30.77" x2="59.12" y2="30.77"/><polyline class="cls-2" points="85.55 55.24 85.55 48.95 78.69 48.95 78.69 43.58 76.88 43.58 76.88 42.98 78.69 42.98 78.69 35.29 78.69 29.45 78.69 24.2 78.69 21.41 78.69 12.36 98.9 12.36 98.9 12.9 106.25 12.9 106.25 17.33 106.79 17.33 106.79 25.03 106.79 28.56 106.79 32.5 106.79 35.29 106.79 42.98 109 42.98 109 43.58 106.79 43.58 106.79 48.95 100.84 48.95 100.84 49.73"/><polyline class="cls-2" points="56.52 94.18 56.82 95.01 50.42 97.34 48.47 91.99 49.94 91.46"/><polyline class="cls-2" points="48.64 74.92 47.12 75.47 44.58 68.49 50.9 66.19 51.44 67.65"/><polyline class="cls-2" points="58.08 65.24 57.54 63.77 61.58 62.3 62.11 63.77"/><polyline class="cls-2" points="67.81 61.69 67.28 60.23 73.28 58.05 73.81 59.51"/><line class="cls-2" x1="70.28" y1="59.14" x2="71" y2="61.11"/><polyline class="cls-2" points="77.89 58.03 77.36 56.56 83.36 54.38 83.89 55.84"/><line class="cls-2" x1="80.36" y1="55.47" x2="81.08" y2="57.44"/><polyline class="cls-2" points="104.5 59.79 105.96 59.26 107.65 63.9 106.16 64.44"/><polyline class="cls-2" points="65.58 90.88 65.89 91.71 62.06 93.1 61.76 92.27"/><line class="cls-2" x1="96.24" y1="63.2" x2="94.79" y2="63.73"/><polyline class="cls-2" points="97.65 62.51 96.19 63.04 97.14 65.66 95.69 66.2"/><line class="cls-2" x1="97.08" y1="65.51" x2="98.54" y2="64.98"/><polyline class="cls-2" points="60.13 72.1 58.8 72.58 60.26 76.58 61.71 76.05"/><line class="cls-2" x1="58.69" y1="76.81" x2="60.14" y2="76.27"/><line class="cls-2" x1="59.35" y1="74.1" x2="58.14" y2="75.31"/><polyline class="cls-2" points="96.96 30.8 95.31 30.8 95.31 27.19 93.66 27.19"/><line class="cls-2" x1="96.96" y1="27.78" x2="95.31" y2="27.78"/><line class="cls-2" x1="93.66" y1="30.47" x2="95.31" y2="30.47"/><rect class="cls-2" x="103.14" y="42.98" width="5.87" height=".6"/><rect class="cls-2" x="76.88" y="42.98" width="5.46" height=".6"/><polyline class="cls-2" points="105.58 67.97 107.07 67.43 109.18 73.23 103 75.48 102.69 74.62"/><polyline class="cls-2" points="91.52 79.04 95.04 77.76 94.92 77.45"/><line class="cls-2" x1="80.26" y1="83.14" x2="83.55" y2="81.94"/><polyline class="cls-2" points="72.53 85.98 72.72 86.5 69.22 87.77"/><polygon class="cls-2" points="2.33 19.55 2.33 19.09 2.87 19.09 2.87 14.05 7.66 14.05 7.66 13.52 15.11 13.52 15.11 14.05 18.86 14.05 18.86 13.52 25.47 13.52 25.47 14.05 31.31 14.05 31.31 13.52 36.2 13.52 36.2 14.05 42.04 14.05 42.04 13.52 46.93 13.52 46.93 14.05 52.77 14.05 52.77 13.52 57.65 13.52 57.65 14.05 60.47 14.05 60.47 13.52 64.55 13.52 64.55 14.05 68.98 14.05 68.98 19.11 69.52 19.11 69.52 24.38 68.98 24.38 68.98 30.75 69.52 30.75 69.52 36.02 68.98 36.02 68.98 41.08 64.55 41.08 64.55 41.61 56.78 41.61 56.78 41.08 49.03 41.08 49.03 41.61 44.15 41.61 44.15 41.08 38.31 41.08 38.31 41.61 31.91 41.61 31.91 41.08 27.55 41.08 27.55 41.61 21.11 41.61 21.11 41.08 18.52 41.08 18.52 41.62 18.07 41.62 18.07 39.57 14.64 39.57 14.64 39.04 10.03 39.04 10.03 36.12 9.5 36.12 9.5 34.51 6.44 34.51 6.44 30.08 3.23 30.08 3.23 19.55 2.33 19.55"/><rect class="cls-2" x="9.62" y="26.55" width="52.97" height="2.03"/><line class="cls-2" x1="9.62" y1="27.56" x2="3.23" y2="27.56"/><polyline class="cls-2" points="18.2 28.58 18.2 39.57 18.07 39.57"/><line class="cls-2" x1="23.56" y1="28.58" x2="23.56" y2="41.61"/><polyline class="cls-2" points="28.99 28.58 28.99 31.76 35.79 31.76 35.79 28.58"/><polyline class="cls-2" points="35.84 41.61 35.84 31.76 35.79 31.76"/><line class="cls-2" x1="41.2" y1="41.08" x2="41.2" y2="28.58"/><line class="cls-2" x1="46.57" y1="41.61" x2="46.57" y2="28.58"/><line class="cls-2" x1="51.93" y1="41.08" x2="51.93" y2="29.64"/><polyline class="cls-2" points="51.88 28.66 51.88 29.64 54.49 29.64 54.49 28.58"/><polyline class="cls-2" points="57.6 28.58 57.6 34.93 60.64 34.93 60.64 28.58"/><line class="cls-2" x1="60.6" y1="41.61" x2="60.6" y2="34.93"/><line class="cls-2" x1="68.99" y1="27.56" x2="62.59" y2="27.56"/><polyline class="cls-2" points="60.6 26.55 60.6 14.05 60.47 14.05"/><line class="cls-2" x1="55.24" y1="26.55" x2="55.24" y2="13.52"/><line class="cls-2" x1="49.88" y1="26.55" x2="49.88" y2="14.05"/><line class="cls-2" x1="44.51" y1="26.55" x2="44.51" y2="13.52"/><line class="cls-2" x1="39.15" y1="26.55" x2="39.15" y2="14.05"/><line class="cls-2" x1="33.79" y1="26.55" x2="33.79" y2="13.52"/><line class="cls-2" x1="28.42" y1="26.55" x2="28.42" y2="14.05"/><line class="cls-2" x1="23.06" y1="26.55" x2="23.06" y2="13.52"/><polyline class="cls-2" points="11.58 26.44 11.58 20.18 14.62 20.18 14.62 26.55"/><polyline class="cls-2" points="17.44 26.55 17.44 25.49 14.62 25.49"/><line class="cls-2" x1="11.61" y1="20.18" x2="11.61" y2="13.52"/><polygon class="cls-2" points="100.82 49.68 104.59 60.05 104.09 60.23 105.56 64.26 106.03 64.09 106.17 64.46 104.53 65.06 105.67 68.21 105.15 68.39 106.68 72.59 102.73 74.02 102.92 74.54 94.69 77.53 94.19 76.18 90.91 77.37 91.53 79.06 83.55 81.97 82.94 80.28 79.66 81.47 80.27 83.16 72.3 86.06 71.68 84.37 68.4 85.57 69.78 89.34 65.31 90.95 64.71 89.3 61.41 90.5 62.02 92.18 56.26 94.28 56.07 93.77 51.9 95.29 50.54 91.53 50.03 91.72 48.62 87.82 50.85 87.01 49.45 83.19 51.39 82.48 48.54 74.66 49.05 74.48 47.32 69.72 51.36 68.25 51.18 67.75 58.31 65.15 58.49 65.66 62.01 64.37 61.83 63.87 68.07 61.6 68.25 62.1 73.74 60.11 73.56 59.6 78.15 57.93 78.33 58.44 83.82 56.44 83.64 55.93 100.82 49.68"/><polyline class="cls-2" points="93.13 66.35 90.77 59.88 88.11 60.85 90.46 67.32"/><polyline class="cls-2" points="93.3 59.68 96.34 67.97 94.29 68.72 94.09 68.16 56.13 81.97 55.44 80.07 93.13 66.35"/><rect class="cls-2" x="93.66" y="25.54" width="3.31" height="7"/><polyline class="cls-2" points="94.14 61.95 97.05 60.89 99.24 66.89 96.33 67.94"/><polyline class="cls-2" points="59.36 78.64 57.16 72.6 60.07 71.54 62.27 77.58"/><polyline class="cls-2" points="64.94 76.61 64.58 75.61 61.91 76.58"/><polyline class="cls-2" points="104.09 60.23 104.05 60.11 97.62 62.45"/><polyline class="cls-2" points="51.39 82.48 51.44 82.6 55.79 81.02"/><line class="cls-2" x1="55.01" y1="66.35" x2="57.27" y2="72.56"/><line class="cls-2" x1="65.77" y1="62.44" x2="70.23" y2="74.68"/><line class="cls-2" x1="71" y1="61.1" x2="75.27" y2="72.85"/><line class="cls-2" x1="75.85" y1="58.77" x2="80.31" y2="71.02"/><line class="cls-2" x1="81.08" y1="57.44" x2="85.35" y2="69.18"/><polyline class="cls-2" points="85.93 55.1 88.04 60.88 88.11 60.85"/><polyline class="cls-2" points="91 60.52 93.8 59.51 92.83 56.84 87.3 58.85"/><polyline class="cls-2" points="90.77 59.88 90.89 59.84 90.63 59.1 89.11 59.65 89.38 60.39"/><polyline class="cls-2" points="94.19 76.18 94.29 76.15 91.7 69.03"/><polyline class="cls-2" points="64.71 89.3 64.77 89.28 61.41 80.05"/><polyline class="cls-2" points="79.66 81.47 79.56 81.5 76.97 74.39"/><g><path class="cls-6" d="M86.11,94.63v3.91h2.46v.5h-3.07v-4.41h.61Z"/><path class="cls-6" d="M92.31,99.05h-3.15v-4.41h3.08v.5h-2.49v1.39h1.98v.5h-1.98v1.52h2.56v.5Z"/><path class="cls-6" d="M94.38,99.05l-1.77-4.41h.62l1.49,3.71h.03l1.45-3.71h.62l-1.78,4.41h-.66Z"/><path class="cls-6" d="M100.47,99.05h-3.15v-4.41h3.08v.5h-2.49v1.39h1.98v.5h-1.98v1.52h2.56v.5Z"/><path class="cls-6" d="M101.77,94.63v3.91h2.46v.5h-3.07v-4.41h.61Z"/><path class="cls-6" d="M106.43,97.01c.15-.51,.6-.9,1.32-.9,.95,0,1.55,.62,1.55,1.49s-.62,1.53-1.61,1.53c-1.18,0-1.79-.85-1.79-2.21s.58-2.37,1.82-2.37c.88,0,1.46,.5,1.54,1.33l-.58,.02c-.08-.52-.37-.87-.97-.87-.9,0-1.28,.82-1.27,1.97h-.01Zm1.25,1.64c.65,0,1.04-.41,1.04-1.02s-.39-1.03-1.06-1.03-1.05,.41-1.05,1.03,.41,1.02,1.07,1.02Z"/></g><g><path class="cls-6" d="M6.41,3.76h.02l.65-2.62h.41l-.81,3.15h-.5l-.66-2.52h-.02l-.67,2.52h-.5l-.81-3.15h.42l.66,2.61h.02l.69-2.61h.41l.7,2.62h0Z"/><path class="cls-6" d="M10.09,4.29h-2.25V1.14h2.2v.36h-1.78v.99h1.42v.36h-1.42v1.09h1.83v.36h0Z"/><path class="cls-6" d="M10.73,3.14c.02,.58,.42,.87,.95,.87,.47,0,.77-.2,.77-.55,0-.29-.19-.43-.6-.51l-.62-.12c-.47-.09-.79-.34-.79-.83,0-.55,.44-.93,1.13-.93,.79,0,1.25,.42,1.25,1.13l-.4,.02c-.02-.52-.33-.82-.85-.82-.46,0-.71,.21-.71,.57,0,.31,.21,.41,.57,.48l.57,.11c.58,.11,.87,.36,.87,.87,0,.58-.5,.92-1.18,.92-.78,0-1.34-.42-1.34-1.19l.39-.03h0Z"/><path class="cls-6" d="M14.12,4.29V1.5h-1.15v-.36h2.74v.36h-1.17v2.79h-.42Z"/><path class="cls-6" d="M18.37,4.29h-1.34V1.14h1.29c.78,0,1.1,.34,1.1,.84,0,.37-.26,.62-.6,.68,.39,.07,.69,.32,.69,.77,0,.55-.4,.87-1.14,.87h0Zm-.92-1.8h.88c.46,0,.65-.2,.65-.5s-.19-.51-.65-.51h-.88v1.01Zm0,.34v1.1h.91c.47,0,.72-.21,.72-.55s-.25-.55-.72-.55h-.91Z"/><path class="cls-6" d="M19.94,3.09V1.14h.43v1.95c0,.6,.3,.9,.85,.9s.86-.29,.86-.89V1.14h.42v1.95c0,.92-.57,1.27-1.28,1.27s-1.28-.34-1.28-1.27Z"/><path class="cls-6" d="M23.5,1.14v3.15h-.43V1.14h.43Z"/><path class="cls-6" d="M24.54,1.14V3.93h1.76v.36h-2.19V1.14h.43Z"/><path class="cls-6" d="M26.73,1.14h1.14c.99,0,1.62,.59,1.62,1.58s-.63,1.58-1.62,1.58h-1.14V1.14Zm1.12,2.8c.77,0,1.19-.46,1.19-1.22s-.42-1.22-1.19-1.22h-.68V3.94h.68Z"/><path class="cls-6" d="M30.38,1.14v3.15h-.44V1.14h.44Z"/><path class="cls-6" d="M33.16,3.55V1.14h.41v3.15h-.35l-1.83-2.53v2.53h-.41V1.14h.45l1.73,2.41Z"/><path class="cls-6" d="M34.03,2.72c0-.97,.67-1.64,1.54-1.64s1.41,.5,1.46,1.3l-.42,.03c-.04-.58-.41-.96-1.04-.96s-1.1,.49-1.1,1.27,.46,1.27,1.14,1.27c.59,0,.97-.37,1.03-.91h-.96v-.34h1.36v1.56h-.4v-.56c-.14,.4-.58,.62-1.08,.62-.89,0-1.54-.66-1.54-1.64h.01Z"/></g><g><path class="cls-6" d="M79.24,4.29h-2.25V1.14h2.2v.36h-1.78v.99h1.42v.36h-1.42v1.09h1.83v.36h0Z"/><path class="cls-6" d="M81.25,1.14l1.31,3.15h-.46l-.38-.93h-1.44l-.37,.93h-.42l1.29-3.15h.47Zm-.83,1.88h1.16l-.58-1.4h-.02l-.57,1.4h0Z"/><path class="cls-6" d="M83.09,3.14c.02,.58,.42,.87,.95,.87,.47,0,.77-.2,.77-.55,0-.29-.19-.43-.6-.51l-.62-.12c-.47-.09-.79-.34-.79-.83,0-.55,.44-.93,1.13-.93,.79,0,1.25,.42,1.25,1.13l-.4,.02c-.02-.52-.33-.82-.85-.82-.46,0-.71,.21-.71,.57,0,.31,.21,.41,.57,.48l.57,.11c.58,.11,.87,.36,.87,.87,0,.58-.5,.92-1.18,.92-.78,0-1.34-.42-1.34-1.19l.39-.03h0Z"/><path class="cls-6" d="M86.48,4.29V1.5h-1.15v-.36h2.74v.36h-1.17v2.79h-.42Z"/><path class="cls-6" d="M90.73,4.29h-1.34V1.14h1.29c.78,0,1.1,.34,1.1,.84,0,.37-.26,.62-.6,.68,.39,.07,.69,.32,.69,.77,0,.55-.4,.87-1.14,.87h0Zm-.92-1.8h.88c.46,0,.65-.2,.65-.5s-.2-.51-.65-.51h-.88v1.01Zm0,.34v1.1h.91c.47,0,.72-.21,.72-.55s-.25-.55-.72-.55h-.91Z"/><path class="cls-6" d="M92.3,3.09V1.14h.43v1.95c0,.6,.3,.9,.85,.9s.86-.29,.86-.89V1.14h.43v1.95c0,.92-.57,1.27-1.28,1.27s-1.28-.34-1.28-1.27h-.01Z"/><path class="cls-6" d="M95.86,1.14v3.15h-.44V1.14h.44Z"/><path class="cls-6" d="M96.9,1.14V3.93h1.76v.36h-2.19V1.14h.43Z"/><path class="cls-6" d="M99.09,1.14h1.14c.99,0,1.62,.59,1.62,1.58s-.62,1.58-1.62,1.58h-1.14V1.14Zm1.12,2.8c.77,0,1.19-.46,1.19-1.22s-.42-1.22-1.19-1.22h-.68V3.94h.68Z"/><path class="cls-6" d="M102.74,1.14v3.15h-.43V1.14h.43Z"/><path class="cls-6" d="M105.52,3.55V1.14h.41v3.15h-.34l-1.83-2.53v2.53h-.41V1.14h.45l1.73,2.41h-.01Z"/><path class="cls-6" d="M106.39,2.72c0-.97,.67-1.64,1.54-1.64s1.41,.5,1.46,1.3l-.42,.03c-.04-.58-.41-.96-1.04-.96s-1.1,.49-1.1,1.27,.46,1.27,1.14,1.27c.59,0,.97-.37,1.03-.91h-.96v-.34h1.36v1.56h-.4v-.56c-.14,.4-.58,.62-1.08,.62-.89,0-1.54-.66-1.54-1.64h.01Z"/></g></g></g></svg>