<?xml version="1.0" encoding="UTF-8"?><svg id="Layer_1" xmlns="http://www.w3.org/2000/svg" xmlns:xlink="http://www.w3.org/1999/xlink" viewBox="0 0 113.19 99.15"><defs><style>.cls-1{stroke:#ebebec;}.cls-1,.cls-2{stroke-linecap:round;stroke-linejoin:round;stroke-width:.31px;}.cls-1,.cls-2,.cls-3{fill:none;}.cls-4{fill:#f1b784;fill-rule:evenodd;}.cls-2{stroke:#000;}.cls-5{clip-path:url(#clippath);}.cls-6{fill:#333132;}</style><clipPath id="clippath"><rect class="cls-3" x="-481.76" y="-540" width="612" height="792"/></clipPath></defs><g class="cls-5"><g><polygon class="cls-4" points="63.14 14.27 63.01 14.27 60.19 14.27 60.19 13.73 57.77 13.73 57.77 26.77 63.14 26.77 63.14 14.27"/><polygon class="cls-4" points="38.36 28.82 43.72 28.82 43.72 41.32 40.77 41.32 40.77 41.86 38.36 41.86 38.36 28.82"/><polygon class="cls-1" points="38.36 28.82 43.72 28.82 43.72 41.32 40.77 41.32 40.77 41.86 38.36 41.86 38.36 28.82"/><polygon class="cls-4" points="30.94 14.3 27.99 14.3 27.99 13.76 25.58 13.76 25.58 26.8 30.94 26.8 30.94 14.3"/><polygon class="cls-1" points="30.94 14.3 27.99 14.3 27.99 13.76 25.58 13.76 25.58 26.8 30.94 26.8 30.94 14.3"/><polygon class="cls-4" points="36.3 13.76 33.83 13.76 33.83 14.3 30.94 14.3 30.94 26.8 36.3 26.8 36.3 13.76"/><polygon class="cls-1" points="36.3 13.76 33.83 13.76 33.83 14.3 30.94 14.3 30.94 26.8 36.3 26.8 36.3 13.76"/><polygon class="cls-4" points="41.67 14.3 38.72 14.3 38.72 13.76 36.3 13.76 36.3 26.8 41.67 26.8 41.67 14.3"/><polygon class="cls-1" points="41.67 14.3 38.72 14.3 38.72 13.76 36.3 13.76 36.3 26.8 41.67 26.8 41.67 14.3"/><polygon class="cls-4" points="47.03 13.76 44.55 13.76 44.55 14.3 41.67 14.3 41.67 26.8 47.03 26.8 47.03 13.76"/><polygon class="cls-1" points="47.03 13.76 44.55 13.76 44.55 14.3 41.67 14.3 41.67 26.8 47.03 26.8 47.03 13.76"/><polygon class="cls-4" points="52.39 14.3 49.44 14.3 49.44 13.76 47.03 13.76 47.03 26.8 52.39 26.8 52.39 14.3"/><polygon class="cls-1" points="52.39 14.3 49.44 14.3 49.44 13.76 47.03 13.76 47.03 26.8 52.39 26.8 52.39 14.3"/><polygon class="cls-4" points="57.75 13.76 55.28 13.76 55.28 14.3 52.39 14.3 52.39 26.8 57.75 26.8 57.75 13.76"/><polygon class="cls-1" points="57.75 13.76 55.28 13.76 55.28 14.3 52.39 14.3 52.39 26.8 57.75 26.8 57.75 13.76"/><polygon class="cls-4" points="54.45 29.89 54.39 29.89 54.39 28.82 49.08 28.82 49.08 41.86 51.54 41.86 51.54 41.32 54.45 41.32 54.45 29.89"/><polygon class="cls-1" points="54.45 29.89 54.39 29.89 54.39 28.82 49.08 28.82 49.08 41.86 51.54 41.86 51.54 41.32 54.45 41.32 54.45 29.89"/><polygon class="cls-4" points="49.08 28.82 43.72 28.82 43.72 41.32 46.67 41.32 46.67 41.86 49.08 41.86 49.08 28.82"/><polygon class="cls-1" points="49.08 28.82 43.72 28.82 43.72 41.32 46.67 41.32 46.67 41.86 49.08 41.86 49.08 28.82"/><polygon class="cls-4" points="26.07 28.82 20.71 28.82 20.71 39.82 20.58 39.82 20.58 41.87 21.04 41.87 21.04 41.32 23.63 41.32 23.63 41.86 26.07 41.86 26.07 28.82"/><polygon class="cls-1" points="26.07 28.82 20.71 28.82 20.71 39.82 20.58 39.82 20.58 41.87 21.04 41.87 21.04 41.32 23.63 41.32 23.63 41.86 26.07 41.86 26.07 28.82"/><polygon class="cls-4" points="94.24 27.26 81.21 27.26 81.21 29.7 81.74 29.7 81.74 32.62 94.24 32.62 94.24 27.26"/><polygon class="cls-1" points="94.24 27.26 81.21 27.26 81.21 29.7 81.74 29.7 81.74 32.62 94.24 32.62 94.24 27.26"/><polygon class="cls-4" points="94.24 32.62 81.74 32.62 81.74 35.54 81.21 35.54 81.21 37.98 94.24 37.98 94.24 32.62"/><polygon class="cls-1" points="94.24 32.62 81.74 32.62 81.74 35.54 81.21 35.54 81.21 37.98 94.24 37.98 94.24 32.62"/><polygon class="cls-4" points="109.31 35.54 108.77 35.54 108.77 32.62 99.38 32.62 99.38 32.62 96.27 32.62 96.27 37.98 109.31 37.98 109.31 35.54"/><polygon class="cls-1" points="109.3 35.54 108.77 35.54 108.77 32.62 99.38 32.62 99.38 32.62 96.27 32.62 96.27 37.98 109.3 37.98 109.3 35.54"/><polygon class="cls-4" points="108.77 40.51 109.31 40.51 109.31 37.98 96.27 37.98 96.27 43.53 111.52 43.53 111.52 43.23 108.77 43.23 108.77 40.51"/><polygon class="cls-1" points="108.77 40.51 109.3 40.51 109.3 37.98 96.27 37.98 96.27 43.53 111.52 43.53 111.52 43.23 108.77 43.23 108.77 40.51"/><polygon class="cls-4" points="73.51 61.35 70.77 62.35 70.58 61.85 68.29 62.68 72.75 74.93 77.79 73.1 73.51 61.35"/><polygon class="cls-1" points="73.51 61.35 70.77 62.35 70.58 61.85 68.29 62.68 72.75 74.93 77.79 73.1 73.51 61.35"/><line class="cls-2" x1="34.9" y1="32.01" x2="34.9" y2="28.82"/><polyline class="cls-2" points="38.3 32.01 34.9 28.82 31.5 32.01"/><polyline class="cls-2" points="38.3 28.82 34.9 32.01 31.5 28.82"/><line class="cls-2" x1="91.8" y1="64.33" x2="94.47" y2="63.36"/><polyline class="cls-2" points="92.98 67.57 94.46 63.36 90.62 61.1"/><polyline class="cls-2" points="95.64 66.6 91.8 64.33 93.29 60.13"/><polyline class="cls-2" points="4.85 19.63 3.72 19.63 3.72 12.2 10.45 12.2 10.45 13.76"/><polyline class="cls-2" points="17.35 13.76 17.35 12.2 21.65 12.2 21.65 13.76"/><polyline class="cls-2" points="27.74 13.76 27.74 12.2 34.13 12.2 34.13 13.76"/><line class="cls-2" x1="30.94" y1="12.21" x2="30.94" y2="14.3"/><polyline class="cls-2" points="72.04 35.99 73.53 35.99 73.53 43.42 66.79 43.42 66.79 41.86"/><polyline class="cls-2" points="59.58 41.86 59.58 43.42 51.27 43.42 51.27 41.86"/><line class="cls-2" x1="54.45" y1="41.32" x2="54.45" y2="43.42"/><polyline class="cls-2" points="46.92 41.86 46.92 43.42 40.53 43.42 40.53 41.86"/><line class="cls-2" x1="43.72" y1="41.32" x2="43.72" y2="43.42"/><polyline class="cls-2" points="34.7 41.86 34.7 43.42 29.79 43.42 29.79 41.86"/><polyline class="cls-2" points="23.91 41.86 23.91 43.42 20.64 43.42 20.64 41.87"/><polyline class="cls-2" points="17.43 39.82 17.43 41.38 13.99 41.38 13.99 39.28"/><polyline class="cls-2" points="17.13 25.2 15.61 25.2 15.61 20.43"/><line class="cls-2" x1="15.61" y1="24.86" x2="14.09" y2="24.86"/><line class="cls-2" x1="14.09" y1="23.25" x2="15.61" y2="22.54"/><polyline class="cls-2" points="63.15 30.63 61.64 30.63 61.64 35.18"/><line class="cls-2" x1="60.12" y1="33.34" x2="61.63" y2="32.63"/><line class="cls-2" x1="60.12" y1="31.02" x2="61.63" y2="31.02"/><polyline class="cls-2" points="59.03 94.43 59.33 95.26 52.94 97.59 50.99 92.24 52.45 91.7"/><polyline class="cls-2" points="51.15 75.16 49.64 75.72 47.1 68.74 53.42 66.44 53.95 67.9"/><polyline class="cls-2" points="60.59 65.48 60.06 64.02 64.1 62.55 64.63 64.01"/><polyline class="cls-2" points="70.33 61.94 69.79 60.48 75.8 58.29 76.33 59.76"/><line class="cls-2" x1="72.8" y1="59.38" x2="73.51" y2="61.35"/><polyline class="cls-2" points="80.41 58.27 79.87 56.81 85.88 54.62 86.41 56.09"/><line class="cls-2" x1="82.88" y1="55.72" x2="83.59" y2="57.68"/><polyline class="cls-2" points="81.21 46.82 79.65 46.82 79.65 43.83"/><polyline class="cls-2" points="81.21 40.23 79.65 40.23 79.65 43.23"/><polyline class="cls-2" points="81.21 35.81 79.65 35.81 79.65 29.42 81.21 29.42"/><line class="cls-2" x1="79.65" y1="32.62" x2="81.74" y2="32.62"/><polyline class="cls-2" points="109.3 25 110.86 25 110.86 29.08 109.3 29.08"/><polyline class="cls-2" points="109.3 32.47 110.86 32.47 110.86 35.82 109.3 35.82"/><polyline class="cls-2" points="109.3 40.23 110.86 40.23 110.86 43.23"/><polyline class="cls-2" points="110.86 43.83 110.86 46.82 109.3 46.82"/><polyline class="cls-2" points="107.02 60.04 108.48 59.5 110.17 64.14 108.68 64.69"/><polyline class="cls-2" points="108.1 68.22 109.59 67.68 111.93 74.11 105.74 76.36 105.2 74.87"/><polyline class="cls-2" points="68.03 91.14 68.34 91.98 64.58 93.35 64.28 92.52"/><line class="cls-2" x1="96.27" y1="43.53" x2="93.65" y2="43.53"/><line class="cls-2" x1="98.76" y1="63.45" x2="97.31" y2="63.98"/><polyline class="cls-2" points="100.16 62.76 98.7 63.29 99.66 65.91 98.21 66.44"/><line class="cls-2" x1="99.6" y1="65.75" x2="101.06" y2="65.22"/><polyline class="cls-2" points="62.64 72.34 61.31 72.83 62.77 76.83 64.23 76.3"/><line class="cls-2" x1="61.2" y1="77.05" x2="62.66" y2="76.52"/><line class="cls-2" x1="61.87" y1="74.34" x2="60.66" y2="75.55"/><polyline class="cls-2" points="99.38 31.04 97.82 31.04 97.82 28.09 96.27 28.09"/><line class="cls-2" x1="99.38" y1="28.42" x2="97.82" y2="28.42"/><line class="cls-2" x1="96.27" y1="30.72" x2="97.83" y2="30.72"/><line class="cls-2" x1="41.67" y1="14.3" x2="41.67" y2="12.21"/><polyline class="cls-2" points="94.03 79.29 97.55 78.01 97.44 77.7"/><line class="cls-2" x1="82.78" y1="83.38" x2="86.06" y2="82.19"/><polyline class="cls-2" points="75.05 86.22 75.24 86.74 71.73 88.02"/><polyline class="cls-2" points="103.43 12.61 103.43 11.05 110.86 11.05 110.86 17.86 109.3 17.86"/><polyline class="cls-2" points="81.21 17.86 79.65 17.86 79.65 11.05 87.08 11.05 87.08 12.61"/><polyline class="cls-2" points="81.21 21.38 79.65 21.38 79.65 24.73 81.21 24.73"/><polyline class="cls-2" points="38.47 13.76 38.47 12.2 44.86 12.2 44.86 13.76"/><line class="cls-2" x1="52.39" y1="14.3" x2="52.39" y2="12.21"/><polyline class="cls-2" points="49.2 13.76 49.2 12.2 55.59 12.2 55.59 13.76"/><polyline class="cls-2" points="59.89 13.76 59.89 12.2 63.26 12.2 63.26 13.76"/><polyline class="cls-2" points="66.79 13.76 66.79 12.2 73.53 12.2 73.53 19.63 72.04 19.63"/><polygon class="cls-2" points="4.85 19.8 4.85 19.34 5.38 19.34 5.38 14.3 10.17 14.3 10.17 13.76 17.63 13.76 17.63 14.3 21.38 14.3 21.38 13.76 27.99 13.76 27.99 14.3 33.83 14.3 33.83 13.76 38.72 13.76 38.72 14.3 44.55 14.3 44.55 13.76 49.44 13.76 49.44 14.3 55.28 14.3 55.28 13.76 60.17 13.76 60.17 14.3 62.99 14.3 62.99 13.76 67.07 13.76 67.07 14.3 71.5 14.3 71.5 19.36 72.04 19.36 72.04 24.62 71.5 24.62 71.5 31 72.04 31 72.04 36.26 71.5 36.26 71.5 41.32 67.07 41.32 67.07 41.86 59.3 41.86 59.3 41.32 51.54 41.32 51.54 41.86 46.67 41.86 46.67 41.32 40.83 41.32 40.83 41.86 34.42 41.86 34.42 41.32 30.07 41.32 30.07 41.86 23.63 41.86 23.63 41.32 21.04 41.32 21.04 41.87 20.58 41.87 20.58 39.82 17.15 39.82 17.15 39.28 12.55 39.28 12.55 36.37 12.01 36.37 12.01 34.76 8.95 34.76 8.95 30.33 5.74 30.33 5.74 19.8 4.85 19.8"/><rect class="cls-2" x="12.14" y="26.8" width="52.97" height="2.03"/><line class="cls-2" x1="12.14" y1="27.81" x2="5.74" y2="27.81"/><polyline class="cls-2" points="20.71 28.82 20.71 39.82 20.58 39.82"/><line class="cls-2" x1="26.07" y1="28.82" x2="26.07" y2="41.86"/><polyline class="cls-2" points="31.5 28.82 31.5 32.01 38.31 32.01 38.31 28.82"/><polyline class="cls-2" points="38.36 41.86 38.36 32.01 38.31 32.01"/><line class="cls-2" x1="43.72" y1="41.32" x2="43.72" y2="28.82"/><line class="cls-2" x1="49.08" y1="41.86" x2="49.08" y2="28.82"/><line class="cls-2" x1="54.45" y1="41.32" x2="54.45" y2="29.89"/><polyline class="cls-2" points="54.39 28.9 54.39 29.89 57.01 29.89 57.01 28.82"/><polyline class="cls-2" points="60.12 28.82 60.12 35.18 63.15 35.18 63.15 28.82"/><line class="cls-2" x1="63.12" y1="41.86" x2="63.12" y2="35.18"/><line class="cls-2" x1="71.5" y1="27.81" x2="65.11" y2="27.81"/><polyline class="cls-2" points="63.12 26.8 63.12 14.3 62.99 14.3"/><line class="cls-2" x1="57.75" y1="26.8" x2="57.75" y2="13.76"/><line class="cls-2" x1="52.39" y1="26.8" x2="52.39" y2="14.3"/><line class="cls-2" x1="47.03" y1="26.8" x2="47.03" y2="13.76"/><line class="cls-2" x1="41.67" y1="26.8" x2="41.67" y2="14.3"/><line class="cls-2" x1="36.3" y1="26.8" x2="36.3" y2="13.76"/><line class="cls-2" x1="30.94" y1="26.8" x2="30.94" y2="14.3"/><line class="cls-2" x1="25.58" y1="26.8" x2="25.58" y2="13.76"/><polyline class="cls-2" points="14.09 26.69 14.09 20.43 17.13 20.43 17.13 26.8"/><polyline class="cls-2" points="19.95 26.8 19.95 25.73 17.13 25.73"/><line class="cls-2" x1="14.13" y1="20.43" x2="14.13" y2="13.76"/><polygon class="cls-2" points="81.74 13.15 86.8 13.15 86.8 12.61 92.06 12.61 92.06 13.15 98.45 13.15 98.45 12.61 103.68 12.61 103.68 13.15 108.77 13.15 108.77 17.58 109.3 17.58 109.3 25.28 108.77 25.28 108.77 28.81 109.3 28.81 109.3 32.75 108.77 32.75 108.77 35.54 109.3 35.54 109.3 40.51 108.77 40.51 108.77 43.23 111.52 43.23 111.52 43.83 108.77 43.83 108.77 46.54 109.3 46.54 109.3 49.2 103.35 49.2 103.35 49.98 103.36 50 107.11 60.29 106.61 60.48 108.07 64.51 108.55 64.33 108.69 64.71 107.04 65.31 108.19 68.45 107.67 68.64 109.2 72.83 105.25 74.27 105.44 74.78 97.2 77.78 96.71 76.43 93.43 77.62 94.04 79.31 86.07 82.21 85.46 80.52 82.17 81.72 82.79 83.41 74.81 86.31 74.2 84.62 70.93 85.81 72.3 89.58 67.8 91.22 67.19 89.56 63.93 90.75 64.54 92.43 58.77 94.52 58.59 94.02 54.42 95.54 53.05 91.78 52.55 91.96 51.13 88.07 53.36 87.26 51.97 83.44 53.91 82.73 51.06 74.91 51.56 74.72 49.84 69.97 53.88 68.5 53.69 67.99 60.82 65.4 61.01 65.9 64.53 64.62 64.34 64.12 70.58 61.85 70.77 62.35 76.26 60.35 76.07 59.85 80.66 58.18 80.85 58.68 86.33 56.68 86.15 56.18 88.07 55.48 88.07 49.2 81.21 49.2 81.21 46.54 81.74 46.54 81.74 43.83 79.4 43.83 79.4 43.23 81.74 43.23 81.74 40.51 81.21 40.51 81.21 35.54 81.74 35.54 81.74 29.7 81.21 29.7 81.21 24.45 81.74 24.45 81.74 21.66 81.21 21.66 81.21 17.58 81.74 17.58 81.74 13.15"/><polyline class="cls-2" points="95.64 66.6 93.29 60.13 90.63 61.1 92.98 67.57"/><polyline class="cls-2" points="91.01 60.96 91.01 59.88 92.9 59.88 93.02 60.23"/><polyline class="cls-2" points="93.29 60.13 93.24 59.99 94.24 59.62 94.24 46.29 94 46.15 93.65 45.95 93.65 41.09 94.24 40.75 94.24 19.54 96.27 19.54 96.27 61.15 98.86 68.21 97.22 68.82 97.01 68.26 58.65 82.22 57.96 80.31 95.64 66.6"/><polyline class="cls-2" points="94.24 56.88 93.12 56.88 93.12 59.88 92.9 59.88"/><polyline class="cls-2" points="94.24 21.48 93.18 21.48 93.18 24.17 94.24 24.17"/><polyline class="cls-2" points="96.27 26.29 99.38 26.29 99.38 32.62 96.27 32.62"/><polyline class="cls-2" points="96.65 62.2 99.57 61.13 101.75 67.13 98.85 68.19"/><polyline class="cls-2" points="61.87 78.89 59.67 72.85 62.59 71.79 64.79 77.83"/><polyline class="cls-2" points="67.46 76.86 67.09 75.86 64.42 76.83"/><line class="cls-2" x1="95.26" y1="19.54" x2="95.26" y2="13.15"/><line class="cls-2" x1="96.27" y1="21.53" x2="109.3" y2="21.53"/><polyline class="cls-2" points="108.77 32.75 108.77 32.62 99.38 32.62"/><line class="cls-2" x1="109.3" y1="37.98" x2="96.27" y2="37.98"/><line class="cls-2" x1="96.27" y1="43.53" x2="111.52" y2="43.53"/><line class="cls-2" x1="79.39" y1="43.53" x2="93.65" y2="43.53"/><polyline class="cls-2" points="96.27 56.62 101.88 56.62 105.32 55.37"/><polyline class="cls-2" points="107.04 65.31 107 65.19 101.75 67.13"/><polyline class="cls-2" points="63.92 90.75 63.81 90.79 60.45 81.56"/><polyline class="cls-2" points="53.91 82.73 53.95 82.85 58.3 81.27"/><line class="cls-2" x1="57.53" y1="66.6" x2="59.79" y2="72.81"/><line class="cls-2" x1="68.29" y1="62.68" x2="72.75" y2="74.93"/><line class="cls-2" x1="73.51" y1="61.35" x2="77.79" y2="73.1"/><line class="cls-2" x1="78.37" y1="59.01" x2="82.83" y2="71.26"/><line class="cls-2" x1="83.59" y1="57.68" x2="87.87" y2="69.43"/><polyline class="cls-2" points="88.07 55.48 88.19 55.48 88.19 56.37 91.06 56.37 91.06 59.88"/><line class="cls-2" x1="81.21" y1="37.98" x2="94.24" y2="37.98"/><line class="cls-2" x1="81.74" y1="32.62" x2="94.24" y2="32.62"/><line class="cls-2" x1="81.21" y1="27.26" x2="94.24" y2="27.26"/><polyline class="cls-2" points="81.74 21.66 81.74 21.53 93.18 21.53"/><polyline class="cls-2" points="74.2 84.62 74.29 84.59 71.7 77.47"/><polyline class="cls-2" points="85.46 80.52 85.55 80.49 82.96 73.37"/><polyline class="cls-2" points="96.71 76.43 96.8 76.39 94.21 69.27"/><g><path class="cls-6" d="M89.01,93.66v3.91h2.46v.5h-3.07v-4.41h.61Z"/><path class="cls-6" d="M95.22,98.07h-3.15v-4.41h3.08v.5h-2.49v1.39h1.98v.5h-1.98v1.52h2.56v.5Z"/><path class="cls-6" d="M97.29,98.07l-1.77-4.41h.62l1.49,3.71h.03l1.45-3.71h.62l-1.78,4.41h-.66Z"/><path class="cls-6" d="M103.38,98.07h-3.15v-4.41h3.08v.5h-2.49v1.39h1.98v.5h-1.98v1.52h2.56v.5Z"/><path class="cls-6" d="M104.68,93.66v3.91h2.46v.5h-3.07v-4.41h.61Z"/><path class="cls-6" d="M111.76,94.2h-2.12c0,.24-.11,1.14-.16,1.37,.2-.25,.56-.45,1.05-.45,1,0,1.52,.67,1.52,1.48,0,.92-.64,1.55-1.6,1.55-1.06,0-1.67-.67-1.62-1.65l.59,.05c0,.67,.36,1.11,1.05,1.11,.62,0,1-.41,1-1.06,0-.58-.38-1.01-1-1.01-.49,0-.81,.26-.97,.56l-.6-.04c.11-.61,.26-1.74,.28-2.46h2.58v.55h0Z"/></g><g><path class="cls-6" d="M9.16,3.82h.02l.65-2.62h.41l-.81,3.15h-.5l-.66-2.52h-.02l-.67,2.52h-.5l-.81-3.15h.42l.66,2.61h.02l.69-2.61h.41l.7,2.62h0Z"/><path class="cls-6" d="M12.84,4.35h-2.25V1.2h2.2v.36h-1.78v.99h1.42v.36h-1.42v1.09h1.83v.36h0Z"/><path class="cls-6" d="M13.48,3.2c.02,.58,.42,.87,.95,.87,.47,0,.77-.2,.77-.55,0-.29-.19-.43-.6-.51l-.62-.12c-.47-.09-.79-.34-.79-.83,0-.55,.44-.93,1.13-.93,.79,0,1.25,.42,1.25,1.13l-.4,.02c-.02-.52-.33-.82-.85-.82-.46,0-.71,.22-.71,.57,0,.31,.21,.41,.57,.48l.57,.11c.58,.11,.87,.36,.87,.87,0,.58-.5,.92-1.18,.92-.78,0-1.34-.43-1.34-1.19l.39-.03h0Z"/><path class="cls-6" d="M16.87,4.35V1.56h-1.15v-.36h2.74v.36h-1.17v2.79h-.42Z"/><path class="cls-6" d="M21.11,4.35h-1.34V1.2h1.29c.78,0,1.1,.34,1.1,.84,0,.37-.26,.62-.6,.68,.39,.07,.69,.32,.69,.77,0,.55-.4,.87-1.14,.87h0Zm-.92-1.8h.88c.46,0,.65-.2,.65-.5s-.19-.51-.65-.51h-.88v1.01Zm0,.34v1.1h.91c.47,0,.72-.21,.72-.54s-.25-.56-.72-.56h-.91Z"/><path class="cls-6" d="M22.69,3.14V1.2h.43v1.95c0,.6,.3,.9,.85,.9s.86-.29,.86-.89V1.2h.42v1.95c0,.92-.57,1.27-1.28,1.27s-1.28-.35-1.28-1.27h0Z"/><path class="cls-6" d="M26.24,1.2v3.15h-.43V1.2h.43Z"/><path class="cls-6" d="M27.29,1.2V3.99h1.76v.36h-2.19V1.2h.43Z"/><path class="cls-6" d="M29.47,1.2h1.14c.99,0,1.62,.59,1.62,1.58s-.63,1.58-1.62,1.58h-1.14V1.2Zm1.12,2.8c.77,0,1.19-.46,1.19-1.22s-.42-1.22-1.19-1.22h-.68V3.99h.68Z"/><path class="cls-6" d="M33.12,1.2v3.15h-.44V1.2h.44Z"/><path class="cls-6" d="M35.91,3.61V1.2h.41v3.15h-.35l-1.83-2.53v2.53h-.41V1.2h.45l1.73,2.41Z"/><path class="cls-6" d="M36.78,2.77c0-.97,.67-1.64,1.54-1.64s1.41,.5,1.46,1.3l-.42,.03c-.04-.58-.41-.96-1.04-.96s-1.1,.49-1.1,1.27,.46,1.27,1.14,1.27c.59,0,.97-.37,1.03-.91h-.96v-.34h1.36v1.56h-.4v-.56c-.14,.4-.58,.62-1.08,.62-.89,0-1.54-.66-1.54-1.64h.01Z"/></g><g><path class="cls-6" d="M81.99,4.35h-2.25V1.2h2.2v.36h-1.78v.99h1.42v.36h-1.42v1.09h1.83v.36h0Z"/><path class="cls-6" d="M84,1.2l1.31,3.15h-.46l-.38-.93h-1.44l-.37,.93h-.42l1.29-3.15h.47Zm-.83,1.88h1.16l-.58-1.4h-.02l-.57,1.4h0Z"/><path class="cls-6" d="M85.84,3.2c.02,.58,.42,.87,.95,.87,.47,0,.77-.2,.77-.55,0-.29-.19-.43-.6-.51l-.62-.12c-.47-.09-.79-.34-.79-.83,0-.55,.44-.93,1.13-.93,.79,0,1.25,.42,1.25,1.13l-.4,.02c-.02-.52-.33-.82-.85-.82-.46,0-.71,.22-.71,.57,0,.31,.21,.41,.57,.48l.57,.11c.58,.11,.87,.36,.87,.87,0,.58-.5,.92-1.18,.92-.78,0-1.34-.43-1.34-1.19l.39-.03h0Z"/><path class="cls-6" d="M89.23,4.35V1.56h-1.15v-.36h2.74v.36h-1.17v2.79h-.42Z"/><path class="cls-6" d="M93.47,4.35h-1.34V1.2h1.29c.78,0,1.1,.34,1.1,.84,0,.37-.26,.62-.6,.68,.39,.07,.69,.32,.69,.77,0,.55-.4,.87-1.14,.87h0Zm-.92-1.8h.88c.46,0,.65-.2,.65-.5s-.2-.51-.65-.51h-.88v1.01Zm0,.34v1.1h.91c.47,0,.72-.21,.72-.54s-.25-.56-.72-.56h-.91Z"/><path class="cls-6" d="M95.05,3.14V1.2h.43v1.95c0,.6,.3,.9,.85,.9s.86-.29,.86-.89V1.2h.43v1.95c0,.92-.57,1.27-1.28,1.27s-1.28-.35-1.28-1.27h-.01Z"/><path class="cls-6" d="M98.6,1.2v3.15h-.44V1.2h.44Z"/><path class="cls-6" d="M99.65,1.2V3.99h1.76v.36h-2.19V1.2h.43Z"/><path class="cls-6" d="M101.83,1.2h1.14c.99,0,1.62,.59,1.62,1.58s-.62,1.58-1.62,1.58h-1.14V1.2Zm1.12,2.8c.77,0,1.19-.46,1.19-1.22s-.42-1.22-1.19-1.22h-.68V3.99h.68Z"/><path class="cls-6" d="M105.48,1.2v3.15h-.43V1.2h.43Z"/><path class="cls-6" d="M108.27,3.61V1.2h.41v3.15h-.34l-1.83-2.53v2.53h-.41V1.2h.45l1.73,2.41h-.01Z"/><path class="cls-6" d="M109.14,2.77c0-.97,.67-1.64,1.54-1.64s1.41,.5,1.46,1.3l-.42,.03c-.04-.58-.41-.96-1.04-.96s-1.1,.49-1.1,1.27,.46,1.27,1.14,1.27c.59,0,.97-.37,1.03-.91h-.96v-.34h1.36v1.56h-.4v-.56c-.14,.4-.58,.62-1.08,.62-.89,0-1.54-.66-1.54-1.64h.01Z"/></g></g></g></svg>