<?xml version="1.0" encoding="UTF-8"?><svg id="Layer_1" xmlns="http://www.w3.org/2000/svg" xmlns:xlink="http://www.w3.org/1999/xlink" viewBox="0 0 113.19 100.57"><defs><style>.cls-1{stroke:#ebebec;}.cls-1,.cls-2,.cls-3{stroke-width:.31px;}.cls-1,.cls-2,.cls-3,.cls-4,.cls-5{fill:none;}.cls-1,.cls-2,.cls-3,.cls-5{stroke-linecap:round;stroke-linejoin:round;}.cls-6{fill:#f1b784;fill-rule:evenodd;}.cls-2{stroke-dasharray:0 0 0 0 0 0 3.88 1.94;}.cls-2,.cls-3,.cls-5{stroke:#000;}.cls-7{clip-path:url(#clippath);}.cls-8{fill:#333132;}.cls-5{stroke-width:.31px;}</style><clipPath id="clippath"><rect class="cls-4" x="-481.76" y="-319.31" width="612" height="792"/></clipPath></defs><g class="cls-7"><g><polygon class="cls-6" points="90.84 28.03 77.8 28.03 77.8 30.48 78.34 30.48 78.34 33.4 90.84 33.4 90.84 28.03"/><polygon class="cls-1" points="90.84 28.03 77.8 28.03 77.8 30.48 78.34 30.48 78.34 33.4 90.84 33.4 90.84 28.03"/><polygon class="cls-6" points="90.84 33.4 78.34 33.4 78.34 36.32 77.8 36.32 77.8 38.76 90.84 38.76 90.84 33.4"/><polygon class="cls-1" points="90.84 33.4 78.34 33.4 78.34 36.32 77.8 36.32 77.8 38.76 90.84 38.76 90.84 33.4"/><polygon class="cls-6" points="105.9 36.32 105.36 36.32 105.36 33.4 95.97 33.4 95.97 33.4 92.87 33.4 92.87 38.76 105.9 38.76 105.9 36.32"/><polygon class="cls-1" points="105.9 36.32 105.36 36.32 105.36 33.4 95.97 33.4 95.97 33.4 92.86 33.4 92.86 38.76 105.9 38.76 105.9 36.32"/><polygon class="cls-6" points="105.36 41.29 105.9 41.29 105.9 38.76 92.87 38.76 92.87 44.3 108.12 44.3 108.12 44 105.36 44 105.36 41.29"/><polygon class="cls-1" points="105.36 41.29 105.9 41.29 105.9 38.76 92.87 38.76 92.87 44.3 108.12 44.3 108.12 44 105.36 44 105.36 41.29"/><line class="cls-3" x1="31.5" y1="32.79" x2="31.5" y2="29.6"/><polyline class="cls-3" points="34.9 32.79 31.5 29.6 28.1 32.79"/><polyline class="cls-3" points="34.9 29.6 31.5 32.79 28.1 29.6"/><line class="cls-3" x1="88.4" y1="65.11" x2="91.06" y2="64.14"/><polyline class="cls-3" points="89.57 68.35 91.06 64.14 87.22 61.88"/><polyline class="cls-3" points="92.24 67.38 88.4 65.11 89.88 60.91"/><line class="cls-2" x1="95.04" y1="69.14" x2="105.87" y2="73.65"/><line class="cls-2" x1="103.15" y1="66.16" x2="97.92" y2="77.06"/><line class="cls-3" x1="74.57" y1="14.97" x2="70.64" y2="18.3"/><line class="cls-3" x1="74.57" y1="18.3" x2="70.64" y2="14.97"/><line class="cls-3" x1="51.04" y1="42.1" x2="51.04" y2="45.64"/><line class="cls-3" x1="40.32" y1="42.1" x2="40.32" y2="45.64"/><line class="cls-3" x1="12.21" y1="25.63" x2="10.69" y2="25.63"/><line class="cls-3" x1="12.21" y1="22.73" x2="13.73" y2="22.02"/><line class="cls-3" x1="68.89" y1="58.79" x2="70.11" y2="62.13"/><line class="cls-3" x1="78.97" y1="55.12" x2="80.19" y2="58.46"/><line class="cls-3" x1="76.25" y1="33.4" x2="78.34" y2="33.4"/><polyline class="cls-3" points="103.61 60.81 105.08 60.28 107.07 65.75 103.48 67.06"/><line class="cls-3" x1="92.86" y1="44.3" x2="90.24" y2="44.3"/><line class="cls-3" x1="95.36" y1="64.23" x2="93.9" y2="64.76"/><polyline class="cls-3" points="96.76 63.54 95.3 64.07 96.25 66.69 94.8 67.22"/><line class="cls-3" x1="96.2" y1="66.53" x2="97.65" y2="66"/><polyline class="cls-3" points="59.24 73.12 57.91 73.6 59.37 77.61 60.82 77.08"/><line class="cls-3" x1="57.8" y1="77.83" x2="59.26" y2="77.3"/><line class="cls-3" x1="58.46" y1="75.12" x2="57.25" y2="76.33"/><polyline class="cls-3" points="95.97 31.82 94.42 31.82 94.42 28.87 92.86 28.87"/><line class="cls-3" x1="95.97" y1="29.2" x2="94.42" y2="29.2"/><line class="cls-3" x1="92.86" y1="31.5" x2="94.42" y2="31.5"/><polyline class="cls-3" points="46.43 70.75 45.82 70.97 44.6 67.63 52.97 64.58 54.19 67.92"/><polyline class="cls-3" points="57.03 66.89 55.81 63.55 59.41 62.24"/><line class="cls-3" x1="60.58" y1="61.81" x2="63.99" y2="60.57"/><rect class="cls-5" x="59.08" y="59.82" width="1.25" height="2.82" transform="translate(-17.35 24.13) rotate(-20.01)"/><rect class="cls-5" x="63.66" y="58.16" width="1.25" height="2.81" transform="translate(-16.5 25.59) rotate(-20.01)"/><rect class="cls-5" x="68.7" y="56.31" width="1.25" height="2.82" transform="translate(-15.57 27.21) rotate(-20.01)"/><rect class="cls-5" x="73.73" y="54.49" width="1.25" height="2.81" transform="translate(-14.64 28.82) rotate(-20.01)"/><rect class="cls-5" x="78.78" y="52.65" width="1.25" height="2.81" transform="translate(-13.7 30.43) rotate(-20.01)"/><line class="cls-3" x1="65.17" y1="60.15" x2="69.03" y2="58.74"/><line class="cls-3" x1="70.21" y1="58.31" x2="74.07" y2="56.9"/><line class="cls-3" x1="75.25" y1="56.48" x2="79.11" y2="55.07"/><polyline class="cls-3" points="80.28 54.64 81.95 54.04 83.17 57.38"/><line class="cls-3" x1="73.93" y1="56.96" x2="75.15" y2="60.3"/><line class="cls-3" x1="63.85" y1="60.62" x2="65.07" y2="63.96"/><rect class="cls-3" x="72.27" y="44.42" width="2.71" height="1.25"/><rect class="cls-3" x="72.27" y="42.94" width="2.71" height="1.25"/><line class="cls-3" x1="74.98" y1="44.19" x2="74.98" y2="44.42"/><line class="cls-3" x1="75.99" y1="44.3" x2="74.98" y2="44.3"/><polyline class="cls-3" points="74.26 45.67 74.26 50.5 77.8 50.5 77.8 49.97"/><rect class="cls-3" x="72.27" y="37.36" width="2.71" height="1.25"/><rect class="cls-3" x="72.27" y="32" width="2.71" height="1.25"/><line class="cls-3" x1="74.26" y1="22.15" x2="74.26" y2="32"/><line class="cls-3" x1="74.26" y1="33.25" x2="74.26" y2="37.36"/><line class="cls-3" x1="74.26" y1="38.61" x2="74.26" y2="42.94"/><line class="cls-3" x1="77.8" y1="38.76" x2="74.27" y2="38.75"/><line class="cls-3" x1="78.34" y1="33.4" x2="74.27" y2="33.4"/><line class="cls-3" x1="77.8" y1="28.03" x2="74.27" y2="28.03"/><line class="cls-3" x1="108.12" y1="22.31" x2="108.12" y2="44"/><line class="cls-3" x1="105.9" y1="38.76" x2="108.12" y2="38.76"/><line class="cls-3" x1="105.9" y1="33.52" x2="108.12" y2="33.52"/><polyline class="cls-3" points="108.12 44.6 108.12 49.72 105.9 49.72"/><rect class="cls-3" x="62.91" y="45.11" width="1.25" height="2.8"/><rect class="cls-3" x="51.19" y="45.11" width="1.25" height="2.8"/><rect class="cls-3" x="45.83" y="45.11" width="1.25" height="2.8"/><rect class="cls-3" x="40.64" y="45.11" width="1.25" height="2.8"/><rect class="cls-3" x="35.13" y="45.11" width="1.25" height="2.8"/><rect class="cls-3" x="27.86" y="45.11" width="1.25" height="2.8"/><rect class="cls-3" x="21.28" y="45.11" width="1.25" height="2.8"/><polyline class="cls-3" points="68.1 42.1 68.63 42.1 68.63 45.64 64.16 45.64"/><line class="cls-3" x1="62.91" y1="45.64" x2="58.58" y2="45.64"/><line class="cls-3" x1="56.79" y1="45.64" x2="52.44" y2="45.64"/><line class="cls-3" x1="51.19" y1="45.64" x2="47.08" y2="45.64"/><line class="cls-3" x1="45.83" y1="45.64" x2="41.89" y2="45.64"/><line class="cls-3" x1="40.64" y1="45.64" x2="36.39" y2="45.64"/><line class="cls-3" x1="35.13" y1="45.64" x2="29.11" y2="45.64"/><line class="cls-3" x1="27.86" y1="45.64" x2="22.53" y2="45.64"/><polyline class="cls-3" points="21.28 45.64 19.18 45.64 16.8 44.21 16.8 42.1 17.18 42.1"/><line class="cls-3" x1="45.68" y1="42.1" x2="45.68" y2="45.64"/><line class="cls-3" x1="34.95" y1="42.1" x2="34.95" y2="45.64"/><line class="cls-3" x1="22.67" y1="42.1" x2="22.67" y2="45.64"/><line class="cls-3" x1="58.58" y1="42.1" x2="58.58" y2="45.64"/><line class="cls-3" x1="56.79" y1="42.1" x2="56.79" y2="45.64"/><polyline class="cls-3" points="2.34 15.08 1.6 15.08 1.6 12.22 10.5 12.22 10.5 15.08"/><polyline class="cls-3" points="26.99 15.08 26.99 12.23 17.62 12.23 17.62 13.26 13.89 13.26 13.89 15.08"/><line class="cls-3" x1="22.17" y1="15.08" x2="22.17" y2="12.23"/><line class="cls-3" x1="12.21" y1="24.16" x2="10.69" y2="24.16"/><line class="cls-3" x1="12.21" y1="16.66" x2="10.69" y2="16.66"/><line class="cls-3" x1="12.21" y1="18.74" x2="13.73" y2="18.74"/><line class="cls-3" x1="12.21" y1="19.72" x2="13.73" y2="19.72"/><line class="cls-3" x1="12.21" y1="21.72" x2="13.73" y2="21.72"/><line class="cls-3" x1="58.23" y1="35.36" x2="59.75" y2="34.66"/><line class="cls-3" x1="58.23" y1="36.32" x2="59.75" y2="36.32"/><polyline class="cls-3" points="64.43 91.98 64.57 92.38 61.26 93.57 61.13 93.2"/><polyline class="cls-3" points="51.02 96.32 52.04 99.16 56.25 97.63 56.05 97.08 59.9 95.7 59.24 93.89"/><polyline class="cls-3" points="68.9 90.36 71.82 88.06 79.73 85.15 79.49 84.48 82.77 83.28 82.67 82.99"/><polyline class="cls-3" points="93.85 78.54 94.07 79.16 90.7 80.4 90.59 80.11"/><line class="cls-3" x1="71.78" y1="88.09" x2="71.41" y2="87.09"/><polygon class="cls-3" points="1.44 20.57 1.44 20.12 2.34 20.12 2.34 15.08 6.77 15.08 14.23 15.08 17.97 15.08 24.59 15.08 30.42 15.08 34.51 15.08 34.51 10.91 37.01 10.91 37.01 11.63 67.65 11.63 67.65 14.97 68.37 14.97 68.37 21.88 68.1 21.88 68.1 31.78 68.1 37.04 68.1 42.1 63.67 42.1 55.9 42.1 48.14 42.1 43.27 42.1 37.43 42.1 31.02 42.1 26.66 42.1 20.23 42.1 17.18 42.1 17.18 40.06 13.75 40.06 9.15 40.06 9.15 37.15 8.61 37.15 8.61 35.54 5.55 35.54 5.55 31.11 2.34 31.11 2.34 20.57 1.44 20.57"/><polyline class="cls-3" points="34.81 15.08 34.81 27.58 61.71 27.58 61.71 29.6 8.73 29.6 8.73 27.58 27.54 27.58 27.54 15.08"/><line class="cls-3" x1="8.73" y1="28.59" x2="2.34" y2="28.59"/><line class="cls-3" x1="13.62" y1="29.6" x2="13.62" y2="40.06"/><line class="cls-3" x1="22.67" y1="29.6" x2="22.67" y2="42.1"/><polyline class="cls-3" points="28.1 29.6 28.1 32.79 34.9 32.79 34.9 29.6"/><polyline class="cls-3" points="34.95 42.1 34.95 32.79 34.9 32.79"/><line class="cls-3" x1="40.32" y1="42.1" x2="40.32" y2="29.6"/><line class="cls-3" x1="45.68" y1="42.1" x2="45.68" y2="29.6"/><line class="cls-3" x1="51.04" y1="42.1" x2="51.04" y2="30.67"/><polyline class="cls-3" points="50.99 29.68 50.99 30.67 53.61 30.67 53.61 29.6"/><line class="cls-3" x1="56.71" y1="29.6" x2="56.71" y2="42.1"/><line class="cls-3" x1="59.75" y1="42.1" x2="59.75" y2="29.6"/><line class="cls-3" x1="68.1" y1="28.59" x2="61.71" y2="28.59"/><line class="cls-3" x1="22.17" y1="27.58" x2="22.17" y2="15.08"/><line class="cls-3" x1="10.69" y1="27.58" x2="10.69" y2="15.08"/><line class="cls-3" x1="13.73" y1="15.08" x2="13.73" y2="27.58"/><polyline class="cls-3" points="16.55 27.58 16.55 26.51 13.73 26.51"/><polyline class="cls-3" points="13.73 25.98 12.21 25.98 12.21 21.39"/><polygon class="cls-3" points="84.66 56.83 84.66 49.97 77.8 49.97 77.8 47.32 78.34 47.32 78.34 44.6 75.99 44.6 75.99 44 78.34 44 78.34 41.28 77.8 41.28 77.8 36.32 78.34 36.32 78.34 30.48 77.8 30.48 77.8 25.23 78.34 25.23 78.34 22.44 77.8 22.44 77.8 22.15 71.76 22.15 71.76 18.3 70.64 18.3 70.64 14.97 71.81 14.97 71.81 11.63 86.21 11.63 86.21 10.91 88.73 10.91 88.73 11.63 94.98 11.63 94.98 10.91 97.49 10.91 97.49 11.63 107.21 11.63 107.21 19.8 108.44 19.8 108.44 22.3 105.9 22.3 105.9 26.06 105.36 26.06 105.36 29.58 105.9 29.58 105.9 33.52 105.36 33.52 105.36 36.32 105.9 36.32 105.9 41.28 105.36 41.28 105.36 44 108.12 44 108.12 44.6 105.36 44.6 105.36 47.32 105.9 47.32 105.9 49.97 99.95 49.97 99.95 50.76 99.96 50.77 103.7 61.05 103.16 61.24 104.63 65.3 105.14 65.11 105.28 65.49 103.18 66.25 105.87 73.65 101.87 75.11 102.03 75.56 93.8 78.56 93.31 77.2 90.02 78.4 90.64 80.09 82.67 82.99 82.05 81.3 78.77 82.5 79.38 84.19 71.41 87.09 70.8 85.4 67.51 86.59 68.9 90.36 64.43 91.98 63.82 90.32 60.52 91.52 61.13 93.2 55.37 95.3 55.18 94.8 51.02 96.32 49.65 92.56 49.14 92.74 47.73 88.85 49.96 88.04 48.57 84.21 50.51 83.51 47.66 75.68 48.16 75.5 46.43 70.75 50.47 69.28 57.6 66.68 61.12 65.4 67.36 63.13 72.85 61.13 77.44 59.46 84.66 56.83"/><polyline class="cls-3" points="92.24 67.38 89.88 60.91 87.22 61.88 89.58 68.35"/><polyline class="cls-3" points="87.61 61.74 87.61 60.66 89.49 60.66 89.62 61"/><polyline class="cls-3" points="89.88 60.91 89.83 60.77 90.84 60.4 90.84 51.84 86.75 51.84 86.75 52.43 84.66 52.43"/><polyline class="cls-3" points="90.84 57.66 89.71 57.66 89.71 60.66 89.49 60.66"/><polyline class="cls-3" points="90.84 22.26 89.77 22.26 89.77 24.95 90.84 24.95"/><polyline class="cls-3" points="92.86 27.06 95.97 27.06 95.97 33.4 92.86 33.4"/><polyline class="cls-3" points="93.25 62.97 96.17 61.91 98.35 67.91 95.45 68.97"/><line class="cls-3" x1="57.11" y1="66.86" x2="61.38" y2="78.61"/><polyline class="cls-3" points="64.05 77.63 63.69 76.63 61.02 77.61"/><line class="cls-3" x1="92.86" y1="22.31" x2="105.9" y2="22.31"/><polyline class="cls-3" points="105.36 33.52 105.36 33.4 95.97 33.4"/><line class="cls-3" x1="105.9" y1="38.76" x2="92.86" y2="38.76"/><line class="cls-3" x1="92.86" y1="44.3" x2="108.12" y2="44.3"/><line class="cls-3" x1="75.99" y1="44.3" x2="90.24" y2="44.3"/><polyline class="cls-3" points="92.86 57.4 98.48 57.4 101.91 56.15"/><polyline class="cls-3" points="103.18 66.25 103.15 66.16 98.35 67.91"/><line class="cls-3" x1="97.92" y1="77.06" x2="95.04" y2="69.14"/><polyline class="cls-3" points="82.05 81.3 82.15 81.27 79.56 74.15"/><polyline class="cls-3" points="60.52 91.52 60.4 91.57 57.04 82.34"/><polyline class="cls-3" points="50.51 83.51 50.55 83.63 54.9 82.04"/><line class="cls-3" x1="54.19" y1="67.92" x2="58.47" y2="79.67"/><line class="cls-3" x1="65.07" y1="63.96" x2="69.34" y2="75.71"/><line class="cls-3" x1="70.11" y1="62.13" x2="74.38" y2="73.88"/><line class="cls-3" x1="75.15" y1="60.29" x2="79.42" y2="72.04"/><line class="cls-3" x1="80.19" y1="58.46" x2="84.46" y2="70.21"/><polyline class="cls-3" points="84.66 56.26 84.79 56.26 84.79 57.15 87.66 57.15 87.66 60.66"/><line class="cls-3" x1="77.8" y1="38.76" x2="90.84" y2="38.76"/><line class="cls-3" x1="78.34" y1="33.4" x2="90.84" y2="33.4"/><line class="cls-3" x1="77.8" y1="28.03" x2="90.84" y2="28.03"/><polyline class="cls-3" points="78.34 22.44 78.34 22.31 89.77 22.31"/><polyline class="cls-3" points="55.86 72.51 57.31 71.98 55.64 67.4"/><polyline class="cls-3" points="92.24 67.38 54.55 81.09 55.25 83 92.99 69.26 93.2 69.82 95.45 68.99 92.86 61.93 92.86 22.26 90.84 22.26 90.84 41.52 90.24 41.87 90.24 46.73 90.59 46.93 90.84 47.07 90.84 49.85 84.66 49.85 84.66 49.97"/><polyline class="cls-3" points="71.81 14.97 74.57 14.97 74.57 18.3 71.76 18.3"/><polyline class="cls-3" points="10.69 19.98 12.21 19.98 12.21 15.08"/><polyline class="cls-3" points="58.23 38.94 58.23 31.45 59.75 31.45"/><polyline class="cls-3" points="94.6 22.31 94.6 20.4 88.37 20.4 88.37 22.31"/><polyline class="cls-3" points="70.8 85.4 70.89 85.36 68.3 78.24"/><g><path class="cls-8" d="M90.67,95.08v3.91h2.46v.5h-3.07v-4.41h.61Z"/><path class="cls-8" d="M96.87,99.5h-3.15v-4.41h3.08v.5h-2.49v1.39h1.98v.5h-1.98v1.52h2.56v.5Z"/><path class="cls-8" d="M98.94,99.5l-1.77-4.41h.62l1.49,3.71h.03l1.45-3.71h.62l-1.78,4.41h-.66Z"/><path class="cls-8" d="M105.03,99.5h-3.15v-4.41h3.08v.5h-2.49v1.39h1.98v.5h-1.98v1.52h2.56v.5Z"/><path class="cls-8" d="M106.33,95.08v3.91h2.46v.5h-3.07v-4.41h.61Z"/><path class="cls-8" d="M110.29,95.73c.62,0,.88-.21,1.04-.67h.4v4.44h-.61v-3.38h-.83v-.39Z"/></g><g><path class="cls-8" d="M9.16,4.06h.02l.65-2.62h.41l-.81,3.15h-.5l-.66-2.52h-.02l-.67,2.52h-.5l-.81-3.15h.42l.66,2.61h.02l.69-2.61h.41l.7,2.62h0Z"/><path class="cls-8" d="M12.84,4.59h-2.25V1.44h2.2v.36h-1.78v.99h1.42v.36h-1.42v1.09h1.83v.36h0Z"/><path class="cls-8" d="M13.48,3.44c.02,.58,.42,.87,.95,.87,.47,0,.77-.2,.77-.55,0-.29-.19-.43-.6-.51l-.62-.12c-.47-.09-.79-.34-.79-.83,0-.55,.44-.93,1.13-.93,.79,0,1.25,.42,1.25,1.13l-.4,.02c-.02-.52-.33-.82-.85-.82-.46,0-.71,.22-.71,.57,0,.31,.21,.41,.57,.48l.57,.11c.58,.11,.87,.36,.87,.87,0,.58-.5,.92-1.18,.92-.78,0-1.34-.43-1.34-1.19l.39-.02h0Z"/><path class="cls-8" d="M16.87,4.59V1.8h-1.15v-.36h2.74v.36h-1.17v2.79h-.42Z"/><path class="cls-8" d="M21.11,4.59h-1.34V1.44h1.29c.78,0,1.1,.34,1.1,.84,0,.37-.26,.62-.6,.68,.39,.06,.69,.32,.69,.77,0,.55-.4,.87-1.14,.87h0Zm-.92-1.8h.88c.46,0,.65-.2,.65-.5s-.19-.51-.65-.51h-.88v1.01Zm0,.33v1.1h.91c.47,0,.72-.21,.72-.55s-.25-.56-.72-.56h-.91Z"/><path class="cls-8" d="M22.69,3.38V1.44h.43v1.95c0,.6,.3,.9,.85,.9s.86-.3,.86-.89V1.44h.42v1.95c0,.92-.57,1.27-1.28,1.27s-1.28-.35-1.28-1.27h0Z"/><path class="cls-8" d="M26.24,1.44v3.15h-.43V1.44h.43Z"/><path class="cls-8" d="M27.29,1.44v2.79h1.76v.36h-2.19V1.44h.43Z"/><path class="cls-8" d="M29.47,1.44h1.14c.99,0,1.62,.59,1.62,1.58s-.63,1.58-1.62,1.58h-1.14V1.44Zm1.12,2.8c.77,0,1.19-.46,1.19-1.22s-.42-1.22-1.19-1.22h-.68v2.44h.68Z"/><path class="cls-8" d="M33.12,1.44v3.15h-.44V1.44h.44Z"/><path class="cls-8" d="M35.91,3.85V1.44h.41v3.15h-.35l-1.83-2.53v2.53h-.41V1.44h.45l1.73,2.41Z"/><path class="cls-8" d="M36.78,3.01c0-.97,.67-1.64,1.54-1.64s1.41,.5,1.46,1.3l-.42,.02c-.04-.58-.41-.96-1.04-.96s-1.1,.49-1.1,1.27,.46,1.27,1.14,1.27c.59,0,.97-.37,1.03-.91h-.96v-.34h1.36v1.56h-.4v-.56c-.14,.4-.58,.62-1.08,.62-.89,0-1.54-.66-1.54-1.64h.01Z"/></g><g><path class="cls-8" d="M81.99,4.59h-2.25V1.44h2.2v.36h-1.78v.99h1.42v.36h-1.42v1.09h1.83v.36h0Z"/><path class="cls-8" d="M84,1.44l1.31,3.15h-.46l-.38-.93h-1.44l-.37,.93h-.42l1.29-3.15h.47Zm-.83,1.88h1.16l-.58-1.4h-.02l-.57,1.4h0Z"/><path class="cls-8" d="M85.84,3.44c.02,.58,.42,.87,.95,.87,.47,0,.77-.2,.77-.55,0-.29-.19-.43-.6-.51l-.62-.12c-.47-.09-.79-.34-.79-.83,0-.55,.44-.93,1.13-.93,.79,0,1.25,.42,1.25,1.13l-.4,.02c-.02-.52-.33-.82-.85-.82-.46,0-.71,.22-.71,.57,0,.31,.21,.41,.57,.48l.57,.11c.58,.11,.87,.36,.87,.87,0,.58-.5,.92-1.18,.92-.78,0-1.34-.43-1.34-1.19l.39-.02h0Z"/><path class="cls-8" d="M89.23,4.59V1.8h-1.15v-.36h2.74v.36h-1.17v2.79h-.42Z"/><path class="cls-8" d="M93.47,4.59h-1.34V1.44h1.29c.78,0,1.1,.34,1.1,.84,0,.37-.26,.62-.6,.68,.39,.06,.69,.32,.69,.77,0,.55-.4,.87-1.14,.87h0Zm-.92-1.8h.88c.46,0,.65-.2,.65-.5s-.2-.51-.65-.51h-.88v1.01Zm0,.33v1.1h.91c.47,0,.72-.21,.72-.55s-.25-.56-.72-.56h-.91Z"/><path class="cls-8" d="M95.05,3.38V1.44h.43v1.95c0,.6,.3,.9,.85,.9s.86-.3,.86-.89V1.44h.43v1.95c0,.92-.57,1.27-1.28,1.27s-1.28-.35-1.28-1.27h-.01Z"/><path class="cls-8" d="M98.6,1.44v3.15h-.44V1.44h.44Z"/><path class="cls-8" d="M99.65,1.44v2.79h1.76v.36h-2.19V1.44h.43Z"/><path class="cls-8" d="M101.83,1.44h1.14c.99,0,1.62,.59,1.62,1.58s-.62,1.58-1.62,1.58h-1.14V1.44Zm1.12,2.8c.77,0,1.19-.46,1.19-1.22s-.42-1.22-1.19-1.22h-.68v2.44h.68Z"/><path class="cls-8" d="M105.48,1.44v3.15h-.43V1.44h.43Z"/><path class="cls-8" d="M108.27,3.85V1.44h.41v3.15h-.34l-1.83-2.53v2.53h-.41V1.44h.45l1.73,2.41h-.01Z"/><path class="cls-8" d="M109.14,3.01c0-.97,.67-1.64,1.54-1.64s1.41,.5,1.46,1.3l-.42,.02c-.04-.58-.41-.96-1.04-.96s-1.1,.49-1.1,1.27,.46,1.27,1.14,1.27c.59,0,.97-.37,1.03-.91h-.96v-.34h1.36v1.56h-.4v-.56c-.14,.4-.58,.62-1.08,.62-.89,0-1.54-.66-1.54-1.64h.01Z"/></g></g></g></svg>