<?xml version="1.0" encoding="UTF-8"?><svg id="Layer_1" xmlns="http://www.w3.org/2000/svg" xmlns:xlink="http://www.w3.org/1999/xlink" viewBox="0 0 113.19 98.16"><defs><style>.cls-1{stroke:#ebebec;}.cls-1,.cls-2{stroke-linecap:round;stroke-linejoin:round;stroke-width:.31px;}.cls-1,.cls-2,.cls-3{fill:none;}.cls-4{fill:#f1b784;fill-rule:evenodd;}.cls-2{stroke:#000;}.cls-5{clip-path:url(#clippath);}.cls-6{fill:#333132;}</style><clipPath id="clippath"><rect class="cls-3" x="-481.76" y="-431.47" width="612" height="792"/></clipPath></defs><g class="cls-5"><g><polygon class="cls-4" points="63.14 13.29 63.01 13.29 60.19 13.29 60.19 12.76 57.78 12.76 57.78 25.79 63.14 25.79 63.14 13.29"/><polygon class="cls-4" points="38.36 27.79 43.72 27.79 43.72 40.29 40.77 40.29 40.77 40.83 38.36 40.83 38.36 27.79"/><polygon class="cls-1" points="38.36 27.79 43.72 27.79 43.72 40.29 40.77 40.29 40.77 40.83 38.36 40.83 38.36 27.79"/><polygon class="cls-4" points="30.94 13.27 27.99 13.27 27.99 12.73 25.58 12.73 25.58 25.76 30.94 25.76 30.94 13.27"/><polygon class="cls-1" points="30.94 13.27 27.99 13.27 27.99 12.73 25.58 12.73 25.58 25.76 30.94 25.76 30.94 13.27"/><polygon class="cls-4" points="36.3 12.73 33.83 12.73 33.83 13.27 30.94 13.27 30.94 25.77 36.3 25.77 36.3 12.73"/><polygon class="cls-1" points="36.3 12.73 33.83 12.73 33.83 13.27 30.94 13.27 30.94 25.77 36.3 25.77 36.3 12.73"/><polygon class="cls-4" points="41.67 13.27 38.72 13.27 38.72 12.73 36.3 12.73 36.3 25.76 41.67 25.76 41.67 13.27"/><polygon class="cls-1" points="41.67 13.27 38.72 13.27 38.72 12.73 36.3 12.73 36.3 25.76 41.67 25.76 41.67 13.27"/><polygon class="cls-4" points="47.03 12.73 44.55 12.73 44.55 13.27 41.67 13.27 41.67 25.77 47.03 25.77 47.03 12.73"/><polygon class="cls-1" points="47.03 12.73 44.55 12.73 44.55 13.27 41.67 13.27 41.67 25.77 47.03 25.77 47.03 12.73"/><polygon class="cls-4" points="52.39 13.27 49.44 13.27 49.44 12.73 47.03 12.73 47.03 25.76 52.39 25.76 52.39 13.27"/><polygon class="cls-1" points="52.39 13.27 49.44 13.27 49.44 12.73 47.03 12.73 47.03 25.76 52.39 25.76 52.39 13.27"/><polygon class="cls-4" points="57.75 12.73 55.28 12.73 55.28 13.27 52.39 13.27 52.39 25.77 57.75 25.77 57.75 12.73"/><polygon class="cls-1" points="57.75 12.73 55.28 12.73 55.28 13.27 52.39 13.27 52.39 25.77 57.75 25.77 57.75 12.73"/><polygon class="cls-4" points="54.45 28.86 54.39 28.86 54.39 27.79 49.08 27.79 49.08 40.83 51.54 40.83 51.54 40.29 54.45 40.29 54.45 28.86"/><polygon class="cls-1" points="54.45 28.86 54.39 28.86 54.39 27.79 49.08 27.79 49.08 40.83 51.54 40.83 51.54 40.29 54.45 40.29 54.45 28.86"/><polygon class="cls-4" points="49.08 27.79 43.72 27.79 43.72 40.29 46.67 40.29 46.67 40.83 49.08 40.83 49.08 27.79"/><polygon class="cls-1" points="49.08 27.79 43.72 27.79 43.72 40.29 46.67 40.29 46.67 40.83 49.08 40.83 49.08 27.79"/><polygon class="cls-4" points="26.07 27.79 20.71 27.79 20.71 38.79 20.58 38.79 20.58 40.83 21.04 40.83 21.04 40.29 23.63 40.29 23.63 40.83 26.07 40.83 26.07 27.79"/><polygon class="cls-1" points="26.07 27.79 20.71 27.79 20.71 38.79 20.58 38.79 20.58 40.83 21.04 40.83 21.04 40.29 23.63 40.29 23.63 40.83 26.07 40.83 26.07 27.79"/><polygon class="cls-1" points="94.24 26.22 81.21 26.22 81.21 28.67 81.74 28.67 81.74 31.59 94.24 31.59 94.24 26.22"/><polygon class="cls-1" points="94.24 31.59 81.74 31.59 81.74 34.51 81.21 34.51 81.21 36.95 94.24 36.95 94.24 31.59"/><polygon class="cls-4" points="109.31 34.51 108.77 34.51 108.77 31.59 99.38 31.59 99.38 31.59 96.27 31.59 96.27 36.95 109.31 36.95 109.31 34.51"/><polygon class="cls-1" points="109.3 34.51 108.77 34.51 108.77 31.59 99.38 31.59 99.38 31.59 96.27 31.59 96.27 36.95 109.3 36.95 109.3 34.51"/><polygon class="cls-4" points="108.77 39.47 109.31 39.47 109.31 36.95 96.27 36.95 96.27 42.49 111.52 42.49 111.52 42.19 108.77 42.19 108.77 39.47"/><polygon class="cls-1" points="108.77 39.47 109.3 39.47 109.3 36.95 96.27 36.95 96.27 42.49 111.52 42.49 111.52 42.19 108.77 42.19 108.77 39.47"/><polygon class="cls-4" points="73.51 60.32 70.77 61.32 70.58 60.81 68.29 61.65 72.75 73.9 77.79 72.07 73.51 60.32"/><polygon class="cls-1" points="73.51 60.32 70.77 61.32 70.58 60.81 68.29 61.65 72.75 73.9 77.79 72.06 73.51 60.32"/><line class="cls-2" x1="34.9" y1="30.98" x2="34.9" y2="27.79"/><polyline class="cls-2" points="38.3 30.98 34.9 27.79 31.5 30.98"/><polyline class="cls-2" points="38.3 27.79 34.9 30.98 31.5 27.79"/><line class="cls-2" x1="91.8" y1="63.3" x2="94.47" y2="62.33"/><polyline class="cls-2" points="92.98 66.53 94.46 62.33 90.62 60.07"/><polyline class="cls-2" points="95.64 65.57 91.8 63.3 93.29 59.1"/><polyline class="cls-2" points="4.85 18.6 3.72 18.6 3.72 11.17 10.45 11.17 10.45 12.73"/><polyline class="cls-2" points="17.35 12.73 17.35 11.17 21.65 11.17 21.65 12.73"/><polyline class="cls-2" points="27.74 12.73 27.74 11.17 34.13 11.17 34.13 12.73"/><line class="cls-2" x1="30.94" y1="11.17" x2="30.94" y2="13.27"/><polyline class="cls-2" points="72.04 34.96 73.53 34.96 73.53 42.38 66.79 42.38 66.79 40.83"/><polyline class="cls-2" points="59.58 40.83 59.58 42.38 51.27 42.38 51.27 40.83"/><line class="cls-2" x1="54.45" y1="40.29" x2="54.45" y2="42.38"/><polyline class="cls-2" points="46.92 40.83 46.92 42.38 40.53 42.38 40.53 40.83"/><line class="cls-2" x1="43.72" y1="40.29" x2="43.72" y2="42.38"/><polyline class="cls-2" points="34.7 40.83 34.7 42.38 29.79 42.38 29.79 40.83"/><polyline class="cls-2" points="23.91 40.83 23.91 42.38 20.64 42.38 20.64 40.83"/><polyline class="cls-2" points="17.43 38.79 17.43 40.34 13.99 40.34 13.99 38.25"/><polyline class="cls-2" points="17.13 24.17 15.61 24.17 15.61 19.4"/><line class="cls-2" x1="15.61" y1="23.82" x2="14.09" y2="23.82"/><line class="cls-2" x1="14.09" y1="22.21" x2="15.61" y2="21.51"/><polyline class="cls-2" points="63.15 29.6 61.64 29.6 61.64 34.15"/><line class="cls-2" x1="60.12" y1="32.31" x2="61.63" y2="31.6"/><line class="cls-2" x1="60.12" y1="29.99" x2="61.63" y2="29.99"/><polyline class="cls-2" points="59.03 93.4 59.33 94.23 52.94 96.55 50.99 91.2 52.45 90.67"/><polyline class="cls-2" points="51.15 74.13 49.64 74.68 47.1 67.71 53.42 65.4 53.95 66.87"/><polyline class="cls-2" points="60.59 64.45 60.06 62.99 64.1 61.52 64.63 62.98"/><polyline class="cls-2" points="70.33 60.91 69.79 59.44 75.8 57.26 76.33 58.72"/><line class="cls-2" x1="72.8" y1="58.35" x2="73.51" y2="60.32"/><polyline class="cls-2" points="80.41 57.24 79.87 55.78 85.88 53.59 86.41 55.05"/><line class="cls-2" x1="82.88" y1="54.68" x2="83.59" y2="56.65"/><polyline class="cls-2" points="81.21 45.79 79.65 45.79 79.65 42.79"/><polyline class="cls-2" points="81.21 39.2 79.65 39.2 79.65 42.19"/><polyline class="cls-2" points="81.21 34.78 79.65 34.78 79.65 28.39 81.21 28.39"/><line class="cls-2" x1="79.65" y1="31.59" x2="81.74" y2="31.59"/><polyline class="cls-2" points="109.3 23.97 110.86 23.97 110.86 28.05 109.3 28.05"/><polyline class="cls-2" points="109.3 31.44 110.86 31.44 110.86 34.78 109.3 34.78"/><polyline class="cls-2" points="109.3 39.2 110.86 39.2 110.86 42.19"/><polyline class="cls-2" points="110.86 42.79 110.86 45.79 109.3 45.79"/><polyline class="cls-2" points="107.02 59 108.48 58.47 110.17 63.11 108.68 63.65"/><polyline class="cls-2" points="108.1 67.18 109.59 66.64 111.93 73.07 105.74 75.32 105.2 73.84"/><polyline class="cls-2" points="68.03 90.11 68.34 90.95 64.58 92.32 64.28 91.49"/><line class="cls-2" x1="96.27" y1="42.49" x2="93.65" y2="42.49"/><line class="cls-2" x1="98.76" y1="62.41" x2="97.31" y2="62.95"/><polyline class="cls-2" points="100.16 61.73 98.7 62.26 99.66 64.88 98.21 65.41"/><line class="cls-2" x1="99.6" y1="64.72" x2="101.06" y2="64.19"/><polyline class="cls-2" points="62.64 71.31 61.31 71.79 62.77 75.8 64.23 75.27"/><line class="cls-2" x1="61.2" y1="76.02" x2="62.66" y2="75.49"/><line class="cls-2" x1="61.87" y1="73.31" x2="60.66" y2="74.52"/><polyline class="cls-2" points="99.38 30.01 97.82 30.01 97.82 27.06 96.27 27.06"/><line class="cls-2" x1="99.38" y1="27.39" x2="97.82" y2="27.39"/><line class="cls-2" x1="96.27" y1="29.69" x2="97.83" y2="29.69"/><line class="cls-2" x1="41.67" y1="13.27" x2="41.67" y2="11.17"/><polyline class="cls-2" points="94.03 78.25 97.55 76.97 97.44 76.66"/><line class="cls-2" x1="82.78" y1="82.35" x2="86.06" y2="81.16"/><polyline class="cls-2" points="75.05 85.19 75.24 85.71 71.73 86.99"/><polyline class="cls-2" points="103.43 11.58 103.43 10.02 110.86 10.02 110.86 16.82 109.3 16.82"/><polyline class="cls-2" points="81.21 16.82 79.65 16.82 79.65 10.02 87.08 10.02 87.08 11.58"/><polyline class="cls-2" points="81.21 20.35 79.65 20.35 79.65 23.69 81.21 23.69"/><polyline class="cls-2" points="38.47 12.73 38.47 11.17 44.86 11.17 44.86 12.73"/><line class="cls-2" x1="52.39" y1="13.27" x2="52.39" y2="11.17"/><polyline class="cls-2" points="49.2 12.73 49.2 11.17 55.59 11.17 55.59 12.73"/><polyline class="cls-2" points="59.89 12.73 59.89 11.17 63.26 11.17 63.26 12.73"/><polyline class="cls-2" points="66.79 12.73 66.79 11.17 73.53 11.17 73.53 18.6 72.04 18.6"/><polygon class="cls-2" points="4.85 18.76 4.85 18.31 5.38 18.31 5.38 13.27 10.17 13.27 10.17 12.73 17.63 12.73 17.63 13.27 21.38 13.27 21.38 12.73 27.99 12.73 27.99 13.27 33.83 13.27 33.83 12.73 38.72 12.73 38.72 13.27 44.55 13.27 44.55 12.73 49.44 12.73 49.44 13.27 55.28 13.27 55.28 12.73 60.17 12.73 60.17 13.27 62.99 13.27 62.99 12.73 67.07 12.73 67.07 13.27 71.5 13.27 71.5 18.32 72.04 18.32 72.04 23.59 71.5 23.59 71.5 29.97 72.04 29.97 72.04 35.23 71.5 35.23 71.5 40.29 67.07 40.29 67.07 40.83 59.3 40.83 59.3 40.29 51.54 40.29 51.54 40.83 46.67 40.83 46.67 40.29 40.83 40.29 40.83 40.83 34.42 40.83 34.42 40.29 30.07 40.29 30.07 40.83 23.63 40.83 23.63 40.29 21.04 40.29 21.04 40.83 20.58 40.83 20.58 38.79 17.15 38.79 17.15 38.25 12.55 38.25 12.55 35.34 12.01 35.34 12.01 33.73 8.95 33.73 8.95 29.3 5.74 29.3 5.74 18.76 4.85 18.76"/><rect class="cls-2" x="12.14" y="25.77" width="52.97" height="2.03"/><line class="cls-2" x1="12.14" y1="26.78" x2="5.74" y2="26.78"/><polyline class="cls-2" points="20.71 27.79 20.71 38.79 20.58 38.79"/><line class="cls-2" x1="26.07" y1="27.79" x2="26.07" y2="40.83"/><polyline class="cls-2" points="31.5 27.79 31.5 30.98 38.31 30.98 38.31 27.79"/><polyline class="cls-2" points="38.36 40.83 38.36 30.98 38.31 30.98"/><line class="cls-2" x1="43.72" y1="40.29" x2="43.72" y2="27.79"/><line class="cls-2" x1="49.08" y1="40.83" x2="49.08" y2="27.79"/><line class="cls-2" x1="54.45" y1="40.29" x2="54.45" y2="28.86"/><polyline class="cls-2" points="54.39 27.87 54.39 28.86 57.01 28.86 57.01 27.79"/><polyline class="cls-2" points="60.12 27.79 60.12 34.15 63.15 34.15 63.15 27.79"/><line class="cls-2" x1="63.12" y1="40.83" x2="63.12" y2="34.15"/><line class="cls-2" x1="71.5" y1="26.78" x2="65.11" y2="26.78"/><polyline class="cls-2" points="63.12 25.77 63.12 13.27 62.99 13.27"/><line class="cls-2" x1="57.75" y1="25.77" x2="57.75" y2="12.73"/><line class="cls-2" x1="52.39" y1="25.77" x2="52.39" y2="13.27"/><line class="cls-2" x1="47.03" y1="25.77" x2="47.03" y2="12.73"/><line class="cls-2" x1="41.67" y1="25.77" x2="41.67" y2="13.27"/><line class="cls-2" x1="36.3" y1="25.77" x2="36.3" y2="12.73"/><line class="cls-2" x1="30.94" y1="25.77" x2="30.94" y2="13.27"/><line class="cls-2" x1="25.58" y1="25.77" x2="25.58" y2="12.73"/><polyline class="cls-2" points="14.09 25.66 14.09 19.4 17.13 19.4 17.13 25.76"/><polyline class="cls-2" points="19.95 25.77 19.95 24.7 17.13 24.7"/><line class="cls-2" x1="14.13" y1="19.4" x2="14.13" y2="12.73"/><polygon class="cls-2" points="81.74 12.11 86.8 12.11 86.8 11.58 92.06 11.58 92.06 12.11 98.45 12.11 98.45 11.58 103.68 11.58 103.68 12.11 108.77 12.11 108.77 16.55 109.3 16.55 109.3 24.25 108.77 24.25 108.77 27.77 109.3 27.77 109.3 31.71 108.77 31.71 108.77 34.51 109.3 34.51 109.3 39.47 108.77 39.47 108.77 42.19 111.52 42.19 111.52 42.79 108.77 42.79 108.77 45.51 109.3 45.51 109.3 48.16 103.35 48.16 103.35 48.95 103.36 48.96 107.11 59.26 106.61 59.45 108.07 63.47 108.55 63.3 108.69 63.68 107.04 64.28 108.19 67.42 107.67 67.61 109.2 71.8 105.25 73.24 105.44 73.75 97.2 76.75 96.71 75.39 93.43 76.59 94.04 78.28 86.07 81.18 85.46 79.49 82.17 80.68 82.79 82.38 74.81 85.28 74.2 83.59 70.93 84.78 72.3 88.55 67.8 90.19 67.19 88.52 63.93 89.71 64.54 91.39 58.77 93.49 58.59 92.99 54.42 94.5 53.05 90.75 52.55 90.93 51.13 87.04 53.36 86.23 51.97 82.4 53.91 81.7 51.06 73.87 51.56 73.69 49.84 68.94 53.88 67.47 53.69 66.96 60.82 64.37 61.01 64.87 64.53 63.59 64.34 63.08 70.58 60.81 70.77 61.32 76.26 59.32 76.07 58.82 80.66 57.15 80.85 57.65 86.33 55.65 86.15 55.15 88.07 54.45 88.07 48.16 81.21 48.16 81.21 45.51 81.74 45.51 81.74 42.79 79.4 42.79 79.4 42.19 81.74 42.19 81.74 39.47 81.21 39.47 81.21 34.51 81.74 34.51 81.74 28.67 81.21 28.67 81.21 23.42 81.74 23.42 81.74 20.63 81.21 20.63 81.21 16.55 81.74 16.55 81.74 12.11"/><polyline class="cls-2" points="95.64 65.57 93.29 59.1 90.63 60.07 92.98 66.54"/><polyline class="cls-2" points="91.01 59.93 91.01 58.85 92.9 58.85 93.02 59.19"/><polyline class="cls-2" points="93.29 59.1 93.24 58.96 94.24 58.59 94.24 45.26 94 45.12 93.65 44.92 93.65 40.06 94.24 39.71 94.24 18.51 96.27 18.51 96.27 60.12 98.86 67.18 97.22 67.79 97.01 67.22 58.65 81.19 57.96 79.28 95.64 65.57"/><polyline class="cls-2" points="94.24 55.85 93.12 55.85 93.12 58.85 92.9 58.85"/><polyline class="cls-2" points="94.24 20.45 93.18 20.45 93.18 23.14 94.24 23.14"/><polyline class="cls-2" points="96.27 25.25 99.38 25.25 99.38 31.59 96.27 31.59"/><polyline class="cls-2" points="96.65 61.16 99.57 60.1 101.75 66.1 98.85 67.16"/><polyline class="cls-2" points="61.87 77.86 59.67 71.82 62.59 70.75 64.79 76.8"/><polyline class="cls-2" points="67.46 75.82 67.09 74.82 64.42 75.8"/><line class="cls-2" x1="95.26" y1="18.51" x2="95.26" y2="12.11"/><line class="cls-2" x1="96.27" y1="20.5" x2="109.3" y2="20.5"/><polyline class="cls-2" points="108.77 31.71 108.77 31.59 99.38 31.59"/><line class="cls-2" x1="109.3" y1="36.95" x2="96.27" y2="36.95"/><line class="cls-2" x1="96.27" y1="42.49" x2="111.52" y2="42.49"/><line class="cls-2" x1="79.39" y1="42.49" x2="93.65" y2="42.49"/><polyline class="cls-2" points="96.27 55.59 101.88 55.59 105.32 54.34"/><polyline class="cls-2" points="107.04 64.28 107 64.16 101.75 66.1"/><polyline class="cls-2" points="63.92 89.71 63.81 89.76 60.45 80.53"/><polyline class="cls-2" points="53.91 81.7 53.95 81.82 58.3 80.23"/><line class="cls-2" x1="57.53" y1="65.57" x2="59.79" y2="71.77"/><line class="cls-2" x1="68.29" y1="61.65" x2="72.75" y2="73.9"/><line class="cls-2" x1="73.51" y1="60.32" x2="77.79" y2="72.06"/><line class="cls-2" x1="78.37" y1="57.98" x2="82.83" y2="70.23"/><line class="cls-2" x1="83.59" y1="56.65" x2="87.87" y2="68.4"/><polyline class="cls-2" points="88.07 54.45 88.19 54.45 88.19 55.34 91.06 55.34 91.06 58.85"/><line class="cls-2" x1="81.21" y1="36.95" x2="94.24" y2="36.95"/><line class="cls-2" x1="81.74" y1="31.59" x2="94.24" y2="31.59"/><line class="cls-2" x1="81.21" y1="26.22" x2="94.24" y2="26.22"/><polyline class="cls-2" points="81.74 20.63 81.74 20.5 93.18 20.5"/><polyline class="cls-2" points="74.2 83.59 74.29 83.55 71.7 76.43"/><polyline class="cls-2" points="85.46 79.49 85.55 79.46 82.96 72.34"/><polyline class="cls-2" points="96.71 75.39 96.8 75.36 94.21 68.24"/><g><path class="cls-6" d="M83.05,92.55v3.91h2.46v.5h-3.07v-4.41h.61Z"/><path class="cls-6" d="M89.25,96.97h-3.15v-4.41h3.08v.5h-2.49v1.39h1.98v.5h-1.98v1.52h2.56v.5Z"/><path class="cls-6" d="M91.32,96.97l-1.77-4.41h.62l1.49,3.71h.03l1.45-3.71h.62l-1.78,4.41h-.66Z"/><path class="cls-6" d="M97.42,96.97h-3.15v-4.41h3.08v.5h-2.49v1.39h1.98v.5h-1.98v1.52h2.56v.5Z"/><path class="cls-6" d="M98.72,92.55v3.91h2.46v.5h-3.07v-4.41h.61Z"/><path class="cls-6" d="M106.03,96.44v.53h-3.24v-.35l1.25-1.07c.69-.6,1.21-1.05,1.21-1.69,0-.52-.29-.88-.88-.88s-.94,.38-.94,1.03c0,.13,.01,.27,.05,.4l-.6-.03c-.03-.14-.05-.28-.05-.41,0-.9,.61-1.48,1.55-1.48,1.03,0,1.5,.6,1.5,1.35,0,.8-.68,1.41-1.32,1.93l-.83,.69h2.3v-.02Z"/><path class="cls-6" d="M106.3,94.92h1.61v.52h-1.61v-.52Z"/><path class="cls-6" d="M111.44,95.29h.76v.5h-.76v1.18h-.59v-1.18h-2.32v-.57l2.18-2.66h.74v2.74h-.01Zm-2.39,0h1.79v-2.19l-1.79,2.19Z"/></g><g><path class="cls-6" d="M9.16,3.75h.02l.65-2.62h.41l-.81,3.15h-.5l-.66-2.52h-.02l-.67,2.52h-.5l-.81-3.15h.42l.66,2.61h.02l.69-2.61h.41l.7,2.62h0Z"/><path class="cls-6" d="M12.84,4.28h-2.25V1.12h2.2v.36h-1.78v.99h1.42v.36h-1.42v1.09h1.83v.36Z"/><path class="cls-6" d="M13.48,3.13c.02,.58,.42,.87,.95,.87,.47,0,.77-.2,.77-.55,0-.29-.19-.43-.6-.51l-.62-.12c-.47-.09-.79-.34-.79-.83,0-.55,.44-.93,1.13-.93,.79,0,1.25,.42,1.25,1.13l-.4,.02c-.02-.52-.33-.82-.85-.82-.46,0-.71,.22-.71,.57,0,.31,.21,.41,.57,.48l.57,.11c.58,.11,.87,.36,.87,.87,0,.58-.5,.92-1.18,.92-.78,0-1.34-.43-1.34-1.19l.39-.03h0Z"/><path class="cls-6" d="M16.87,4.28V1.49h-1.15v-.36h2.74v.36h-1.17v2.79h-.42Z"/><path class="cls-6" d="M21.11,4.28h-1.34V1.12h1.29c.78,0,1.1,.34,1.1,.84,0,.37-.26,.62-.6,.68,.39,.07,.69,.32,.69,.77,0,.55-.4,.87-1.14,.87Zm-.92-1.79h.88c.46,0,.65-.2,.65-.5s-.19-.51-.65-.51h-.88v1.01Zm0,.34v1.1h.91c.47,0,.72-.21,.72-.54s-.25-.56-.72-.56h-.91Z"/><path class="cls-6" d="M22.69,3.07V1.12h.43v1.95c0,.6,.3,.9,.85,.9s.86-.29,.86-.89V1.12h.42v1.95c0,.92-.57,1.27-1.28,1.27s-1.28-.35-1.28-1.27Z"/><path class="cls-6" d="M26.24,1.12v3.15h-.43V1.12h.43Z"/><path class="cls-6" d="M27.29,1.12V3.92h1.76v.36h-2.19V1.12h.43Z"/><path class="cls-6" d="M29.47,1.12h1.14c.99,0,1.62,.59,1.62,1.58s-.63,1.58-1.62,1.58h-1.14V1.12Zm1.12,2.8c.77,0,1.19-.46,1.19-1.22s-.42-1.22-1.19-1.22h-.68V3.92h.68Z"/><path class="cls-6" d="M33.12,1.12v3.15h-.44V1.12h.44Z"/><path class="cls-6" d="M35.91,3.54V1.12h.41v3.15h-.35l-1.83-2.53v2.53h-.41V1.12h.45l1.73,2.41h0Z"/><path class="cls-6" d="M36.78,2.7c0-.97,.67-1.64,1.54-1.64s1.41,.5,1.46,1.3l-.42,.03c-.04-.58-.41-.96-1.04-.96s-1.1,.49-1.1,1.27,.46,1.27,1.14,1.27c.59,0,.97-.37,1.03-.91h-.96v-.34h1.36v1.56h-.4v-.56c-.14,.4-.58,.62-1.08,.62-.89,0-1.54-.66-1.54-1.64h.01Z"/></g><g><path class="cls-6" d="M81.99,4.28h-2.25V1.12h2.2v.36h-1.78v.99h1.42v.36h-1.42v1.09h1.83v.36Z"/><path class="cls-6" d="M84,1.12l1.31,3.15h-.46l-.38-.93h-1.44l-.37,.93h-.42l1.29-3.15h.47Zm-.83,1.88h1.16l-.58-1.4h-.02l-.57,1.4h0Z"/><path class="cls-6" d="M85.84,3.13c.02,.58,.42,.87,.95,.87,.47,0,.77-.2,.77-.55,0-.29-.19-.43-.6-.51l-.62-.12c-.47-.09-.79-.34-.79-.83,0-.55,.44-.93,1.13-.93,.79,0,1.25,.42,1.25,1.13l-.4,.02c-.02-.52-.33-.82-.85-.82-.46,0-.71,.22-.71,.57,0,.31,.21,.41,.57,.48l.57,.11c.58,.11,.87,.36,.87,.87,0,.58-.5,.92-1.18,.92-.78,0-1.34-.43-1.34-1.19l.39-.03h0Z"/><path class="cls-6" d="M89.23,4.28V1.49h-1.15v-.36h2.74v.36h-1.17v2.79h-.42Z"/><path class="cls-6" d="M93.47,4.28h-1.34V1.12h1.29c.78,0,1.1,.34,1.1,.84,0,.37-.26,.62-.6,.68,.39,.07,.69,.32,.69,.77,0,.55-.4,.87-1.14,.87Zm-.92-1.79h.88c.46,0,.65-.2,.65-.5s-.2-.51-.65-.51h-.88v1.01Zm0,.34v1.1h.91c.47,0,.72-.21,.72-.54s-.25-.56-.72-.56h-.91Z"/><path class="cls-6" d="M95.05,3.07V1.12h.43v1.95c0,.6,.3,.9,.85,.9s.86-.29,.86-.89V1.12h.43v1.95c0,.92-.57,1.27-1.28,1.27s-1.28-.35-1.28-1.27h-.01Z"/><path class="cls-6" d="M98.6,1.12v3.15h-.44V1.12h.44Z"/><path class="cls-6" d="M99.65,1.12V3.92h1.76v.36h-2.19V1.12h.43Z"/><path class="cls-6" d="M101.83,1.12h1.14c.99,0,1.62,.59,1.62,1.58s-.62,1.58-1.62,1.58h-1.14V1.12Zm1.12,2.8c.77,0,1.19-.46,1.19-1.22s-.42-1.22-1.19-1.22h-.68V3.92h.68Z"/><path class="cls-6" d="M105.48,1.12v3.15h-.43V1.12h.43Z"/><path class="cls-6" d="M108.27,3.54V1.12h.41v3.15h-.34l-1.83-2.53v2.53h-.41V1.12h.45l1.73,2.41h-.01Z"/><path class="cls-6" d="M109.14,2.7c0-.97,.67-1.64,1.54-1.64s1.41,.5,1.46,1.3l-.42,.03c-.04-.58-.41-.96-1.04-.96s-1.1,.49-1.1,1.27,.46,1.27,1.14,1.27c.59,0,.97-.37,1.03-.91h-.96v-.34h1.36v1.56h-.4v-.56c-.14,.4-.58,.62-1.08,.62-.89,0-1.54-.66-1.54-1.64h.01Z"/></g></g></g></svg>