<?xml version="1.0" encoding="UTF-8"?><svg id="Layer_1" xmlns="http://www.w3.org/2000/svg" xmlns:xlink="http://www.w3.org/1999/xlink" viewBox="0 0 112.24 103.04"><defs><style>.cls-1{stroke:#ebebec;}.cls-1,.cls-2,.cls-3,.cls-4,.cls-5,.cls-6{fill:none;}.cls-1,.cls-2,.cls-3,.cls-4,.cls-6{stroke-linecap:round;stroke-linejoin:round;}.cls-1,.cls-3,.cls-6{stroke-width:.31px;}.cls-7{clip-path:url(#clippath-2);}.cls-8{clip-path:url(#clippath-1);}.cls-2{stroke-width:.31px;}.cls-2,.cls-3,.cls-4,.cls-6{stroke:#000;}.cls-9{fill:#f1b784;fill-rule:evenodd;}.cls-4{stroke-width:.43px;}.cls-10{clip-path:url(#clippath);}.cls-6{stroke-dasharray:0 0 0 0 0 0 3.94 1.97;}.cls-11{fill:#333132;}</style><clipPath id="clippath"><rect class="cls-5" x="-482.48" y="-648.66" width="612" height="792"/></clipPath><clipPath id="clippath-1"><rect class="cls-5" x="-4.08" y="2.34" width="128.4" height="105"/></clipPath><clipPath id="clippath-2"><polygon class="cls-5" points="-476.48 -538.86 -476.48 58.14 -68.38 58.14 -68.38 -115.26 129.52 -115.26 129.52 -538.86 -476.48 -538.86"/></clipPath></defs><g id="Layer_1-2"><g class="cls-10"><g><polygon class="cls-9" points="57.95 31.2 54.79 31.2 54.79 32.29 52.18 32.29 52.18 43.91 57.12 43.91 57.95 43.91 57.95 31.2"/><polygon class="cls-1" points="57.95 31.2 54.79 31.2 54.79 32.29 52.18 32.29 52.18 43.91 57.12 43.91 57.95 43.91 57.95 31.2"/><line class="cls-3" x1="32.31" y1="34.44" x2="32.31" y2="31.2"/><polyline class="cls-3" points="35.77 34.44 32.31 31.2 28.85 34.44"/><polyline class="cls-3" points="35.77 31.2 32.31 34.44 28.85 31.2"/><line class="cls-3" x1="90.17" y1="67.31" x2="92.88" y2="66.33"/><polyline class="cls-3" points="91.37 70.6 92.88 66.33 88.97 64.03"/><polyline class="cls-3" points="94.08 69.62 90.17 67.31 91.68 63.04"/><line class="cls-6" x1="96.93" y1="71.41" x2="107.94" y2="75.99"/><line class="cls-6" x1="105.17" y1="68.38" x2="99.86" y2="79.46"/><line class="cls-3" x1="76.11" y1="16.32" x2="72.11" y2="19.7"/><line class="cls-3" x1="76.11" y1="19.71" x2="72.11" y2="16.33"/><line class="cls-3" x1="52.18" y1="43.91" x2="52.18" y2="47.51"/><line class="cls-3" x1="41.27" y1="43.91" x2="41.27" y2="47.51"/><line class="cls-3" x1="12.69" y1="27.17" x2="11.14" y2="27.17"/><line class="cls-3" x1="12.69" y1="24.21" x2="14.23" y2="23.49"/><line class="cls-3" x1="70.33" y1="60.89" x2="71.57" y2="64.28"/><line class="cls-3" x1="80.59" y1="57.15" x2="81.82" y2="60.55"/><line class="cls-3" x1="77.81" y1="35.06" x2="79.94" y2="35.06"/><polyline class="cls-3" points="105.64 62.94 107.13 62.4 109.16 67.97 105.5 69.3"/><line class="cls-3" x1="94.71" y1="46.15" x2="92.05" y2="46.15"/><line class="cls-3" x1="97.25" y1="66.41" x2="95.77" y2="66.95"/><polyline class="cls-3" points="98.67 65.71 97.19 66.25 98.16 68.92 96.69 69.46"/><line class="cls-3" x1="98.1" y1="68.76" x2="99.58" y2="68.22"/><polyline class="cls-3" points="60.52 75.46 59.17 75.95 60.65 80.02 62.13 79.48"/><line class="cls-3" x1="59.05" y1="80.25" x2="60.53" y2="79.71"/><line class="cls-3" x1="59.73" y1="77.49" x2="58.5" y2="78.72"/><polyline class="cls-3" points="97.87 33.46 96.3 33.46 96.3 30.46 94.71 30.46"/><line class="cls-3" x1="97.87" y1="30.79" x2="96.3" y2="30.79"/><line class="cls-3" x1="94.71" y1="33.13" x2="96.3" y2="33.13"/><polyline class="cls-3" points="47.49 73.04 46.87 73.27 45.63 69.88 54.14 66.78 55.39 70.17"/><polyline class="cls-3" points="58.27 69.12 57.04 65.72 60.69 64.4"/><line class="cls-3" x1="61.88" y1="63.96" x2="65.35" y2="62.7"/><rect class="cls-2" x="60.35" y="61.93" width="1.27" height="2.86" transform="translate(-17.99 24.68) rotate(-20)"/><rect class="cls-2" x="65.01" y="60.24" width="1.27" height="2.86" transform="translate(-17.13 26.17) rotate(-20)"/><rect class="cls-2" x="70.13" y="58.38" width="1.27" height="2.86" transform="translate(-16.19 27.81) rotate(-20)"/><rect class="cls-2" x="75.26" y="56.51" width="1.27" height="2.86" transform="translate(-15.24 29.45) rotate(-20)"/><rect class="cls-2" x="80.39" y="54.64" width="1.27" height="2.86" transform="translate(-14.29 31.09) rotate(-20)"/><line class="cls-3" x1="66.54" y1="62.27" x2="70.47" y2="60.84"/><line class="cls-3" x1="71.67" y1="60.4" x2="75.6" y2="58.97"/><line class="cls-3" x1="76.79" y1="58.53" x2="80.72" y2="57.1"/><polyline class="cls-3" points="81.92 56.67 83.61 56.05 84.85 59.45"/><line class="cls-3" x1="75.46" y1="59.02" x2="76.7" y2="62.42"/><line class="cls-3" x1="65.21" y1="62.75" x2="66.45" y2="66.15"/><rect class="cls-3" x="73.77" y="46.27" width="2.75" height="1.27"/><rect class="cls-3" x="73.77" y="44.77" width="2.75" height="1.27"/><line class="cls-3" x1="76.52" y1="46.04" x2="76.52" y2="46.27"/><line class="cls-3" x1="77.55" y1="46.15" x2="76.52" y2="46.15"/><polyline class="cls-3" points="75.8 47.54 75.8 52.46 79.4 52.46 79.4 51.92"/><rect class="cls-3" x="73.77" y="39.1" width="2.75" height="1.27"/><rect class="cls-3" x="73.77" y="33.64" width="2.75" height="1.27"/><line class="cls-3" x1="75.8" y1="23.63" x2="75.8" y2="33.64"/><line class="cls-3" x1="75.8" y1="34.91" x2="75.8" y2="39.1"/><line class="cls-3" x1="75.8" y1="40.37" x2="75.8" y2="44.77"/><line class="cls-3" x1="79.4" y1="40.52" x2="75.8" y2="40.51"/><line class="cls-3" x1="79.94" y1="35.06" x2="75.8" y2="35.06"/><line class="cls-3" x1="79.4" y1="29.61" x2="75.8" y2="29.61"/><line class="cls-3" x1="110.22" y1="23.79" x2="110.22" y2="45.85"/><line class="cls-3" x1="107.97" y1="40.52" x2="110.22" y2="40.52"/><line class="cls-3" x1="107.97" y1="35.19" x2="110.22" y2="35.19"/><polyline class="cls-3" points="110.22 46.46 110.22 51.66 107.97 51.66"/><rect class="cls-3" x="64.25" y="46.97" width="1.27" height="2.85"/><rect class="cls-3" x="52.33" y="46.97" width="1.27" height="2.85"/><rect class="cls-3" x="46.88" y="46.97" width="1.27" height="2.85"/><rect class="cls-3" x="41.6" y="46.97" width="1.27" height="2.85"/><rect class="cls-3" x="36" y="46.97" width="1.27" height="2.85"/><rect class="cls-3" x="28.6" y="46.97" width="1.27" height="2.85"/><rect class="cls-3" x="21.91" y="46.97" width="1.27" height="2.85"/><polyline class="cls-3" points="69.53 43.91 70.06 43.91 70.06 47.51 65.52 47.51"/><line class="cls-3" x1="64.25" y1="47.51" x2="59.84" y2="47.51"/><line class="cls-3" x1="58.02" y1="47.51" x2="53.6" y2="47.51"/><line class="cls-3" x1="52.33" y1="47.51" x2="48.15" y2="47.51"/><line class="cls-3" x1="46.88" y1="47.51" x2="42.88" y2="47.51"/><line class="cls-3" x1="41.6" y1="47.51" x2="37.28" y2="47.51"/><line class="cls-3" x1="36" y1="47.51" x2="29.88" y2="47.51"/><line class="cls-3" x1="28.6" y1="47.51" x2="23.19" y2="47.51"/><polyline class="cls-3" points="21.91 47.51 19.78 47.51 17.36 46.06 17.36 43.91 17.75 43.91"/><line class="cls-3" x1="46.73" y1="43.91" x2="46.73" y2="47.51"/><line class="cls-3" x1="35.82" y1="43.91" x2="35.82" y2="47.51"/><line class="cls-3" x1="23.33" y1="43.91" x2="23.33" y2="47.51"/><line class="cls-3" x1="59.84" y1="43.91" x2="59.84" y2="47.51"/><line class="cls-3" x1="58.02" y1="43.91" x2="58.02" y2="47.51"/><polyline class="cls-3" points="2.65 16.43 1.9 16.43 1.9 13.53 10.95 13.53 10.95 16.43"/><polyline class="cls-3" points="27.73 16.43 27.73 13.53 18.2 13.53 18.2 14.58 14.4 14.58 14.4 16.43"/><line class="cls-3" x1="22.82" y1="16.43" x2="22.82" y2="13.53"/><line class="cls-3" x1="12.69" y1="25.67" x2="11.14" y2="25.67"/><line class="cls-3" x1="12.69" y1="18.04" x2="11.14" y2="18.04"/><line class="cls-3" x1="12.69" y1="20.15" x2="14.23" y2="20.15"/><line class="cls-3" x1="12.69" y1="21.15" x2="14.23" y2="21.15"/><line class="cls-3" x1="12.69" y1="23.18" x2="14.23" y2="23.18"/><line class="cls-3" x1="59.49" y1="37.06" x2="61.04" y2="36.34"/><line class="cls-3" x1="59.49" y1="38.04" x2="61.04" y2="38.04"/><polyline class="cls-3" points="65.79 94.63 65.94 95.04 62.58 96.25 62.44 95.88"/><polyline class="cls-3" points="52.16 99.05 53.2 101.94 57.47 100.39 57.27 99.83 61.19 98.42 60.52 96.58"/><polyline class="cls-3" points="70.34 92.99 73.31 90.65 81.36 87.69 81.11 87.01 84.45 85.79 84.34 85.5"/><polyline class="cls-3" points="95.71 80.97 95.94 81.6 92.51 82.86 92.4 82.56"/><line class="cls-3" x1="73.27" y1="90.68" x2="72.9" y2="89.66"/><polygon class="cls-3" points="1.74 22.02 1.74 21.56 2.65 21.56 2.65 16.43 7.16 16.43 14.74 16.43 18.55 16.43 25.28 16.43 31.21 16.43 35.37 16.43 35.37 12.2 37.91 12.2 37.91 12.93 69.07 12.93 69.07 16.32 69.8 16.32 69.8 23.35 69.53 23.35 69.53 33.41 69.53 38.77 69.53 43.91 65.02 43.91 57.12 43.91 49.23 43.91 44.27 43.91 38.34 43.91 31.82 43.91 27.39 43.91 20.84 43.91 17.75 43.91 17.75 41.84 14.26 41.84 9.58 41.84 9.58 38.87 9.03 38.87 9.03 37.24 5.92 37.24 5.92 32.73 2.65 32.73 2.65 22.02 1.74 22.02"/><polyline class="cls-3" points="35.67 16.43 35.67 29.14 63.03 29.14 63.03 31.2 9.16 31.2 9.16 29.14 28.28 29.14 28.28 16.43"/><line class="cls-3" x1="9.16" y1="30.17" x2="2.65" y2="30.17"/><line class="cls-3" x1="14.12" y1="31.2" x2="14.12" y2="41.84"/><line class="cls-3" x1="23.33" y1="31.2" x2="23.33" y2="43.91"/><polyline class="cls-3" points="28.85 31.2 28.85 34.44 35.77 34.44 35.77 31.2"/><polyline class="cls-3" points="35.82 43.91 35.82 34.44 35.77 34.44"/><line class="cls-3" x1="41.27" y1="43.91" x2="41.27" y2="31.2"/><line class="cls-3" x1="46.73" y1="43.91" x2="46.73" y2="31.2"/><line class="cls-3" x1="52.18" y1="43.91" x2="52.18" y2="32.29"/><polyline class="cls-3" points="52.13 31.28 52.13 32.28 54.79 32.28 54.79 31.2"/><line class="cls-3" x1="57.95" y1="31.2" x2="57.95" y2="43.91"/><line class="cls-3" x1="61.04" y1="43.91" x2="61.04" y2="31.2"/><line class="cls-3" x1="69.53" y1="30.17" x2="63.03" y2="30.17"/><line class="cls-3" x1="22.82" y1="29.14" x2="22.82" y2="16.43"/><line class="cls-3" x1="11.14" y1="29.14" x2="11.14" y2="16.43"/><line class="cls-3" x1="14.23" y1="16.43" x2="14.23" y2="29.14"/><polyline class="cls-3" points="17.11 29.14 17.11 28.06 14.23 28.06"/><polyline class="cls-3" points="14.23 27.52 12.69 27.52 12.69 22.85"/><polygon class="cls-3" points="86.37 58.89 86.37 51.92 79.4 51.92 79.4 49.22 79.94 49.22 79.94 46.46 77.55 46.46 77.55 45.85 79.94 45.85 79.94 43.08 79.4 43.08 79.4 38.03 79.94 38.03 79.94 32.09 79.4 32.09 79.4 26.76 79.94 26.76 79.94 23.91 79.4 23.91 79.4 23.63 73.25 23.63 73.25 19.7 72.11 19.71 72.11 16.32 73.3 16.32 73.3 12.93 87.94 12.93 87.94 12.2 90.5 12.2 90.5 12.93 96.86 12.93 96.86 12.2 99.42 12.2 99.42 12.93 109.3 12.93 109.3 21.23 110.56 21.23 110.56 23.78 107.97 23.78 107.97 27.6 107.42 27.6 107.42 31.18 107.97 31.18 107.97 35.19 107.42 35.19 107.42 38.03 107.97 38.03 107.97 43.08 107.42 43.08 107.42 45.85 110.22 45.85 110.22 46.46 107.42 46.46 107.42 49.22 107.97 49.22 107.97 51.92 101.92 51.92 101.92 52.72 101.93 52.73 105.73 63.18 105.18 63.38 106.68 67.5 107.2 67.31 107.34 67.7 105.21 68.47 107.94 76 103.87 77.48 104.04 77.94 95.66 80.99 95.16 79.61 91.82 80.83 92.45 82.55 84.34 85.5 83.72 83.78 80.38 84.99 81 86.71 72.9 89.66 72.27 87.94 68.93 89.16 70.34 92.99 65.79 94.63 65.18 92.95 61.82 94.17 62.44 95.88 56.58 98.02 56.39 97.5 52.16 99.05 50.76 95.22 50.25 95.41 48.81 91.45 51.08 90.63 49.66 86.74 51.63 86.02 48.74 78.06 49.25 77.88 47.49 73.04 51.6 71.55 58.85 68.91 62.43 67.61 68.78 65.3 74.36 63.27 79.03 61.57 86.37 58.89"/><polyline class="cls-3" points="94.08 69.62 91.68 63.04 88.97 64.02 91.37 70.6"/><polyline class="cls-3" points="89.36 63.88 89.36 62.78 91.29 62.78 91.41 63.14"/><polyline class="cls-3" points="91.68 63.04 91.63 62.9 92.65 62.52 92.65 53.81 88.5 53.81 88.5 54.42 86.37 54.42"/><polyline class="cls-3" points="92.65 59.74 91.51 59.74 91.51 62.78 91.29 62.78"/><polyline class="cls-3" points="92.65 23.73 91.57 23.73 91.57 26.47 92.65 26.47"/><polyline class="cls-3" points="94.71 28.62 97.87 28.62 97.87 35.07 94.71 35.07"/><polyline class="cls-3" points="95.1 65.14 98.07 64.06 100.29 70.16 97.34 71.23"/><line class="cls-3" x1="58.35" y1="69.09" x2="62.7" y2="81.04"/><polyline class="cls-3" points="65.41 80.05 65.04 79.03 62.33 80.02"/><line class="cls-3" x1="94.71" y1="23.79" x2="107.97" y2="23.79"/><polyline class="cls-3" points="107.42 35.19 107.42 35.06 97.87 35.06"/><line class="cls-3" x1="107.97" y1="40.52" x2="94.71" y2="40.52"/><line class="cls-3" x1="94.71" y1="46.15" x2="110.22" y2="46.15"/><line class="cls-3" x1="77.55" y1="46.15" x2="92.05" y2="46.15"/><polyline class="cls-3" points="94.71 59.47 100.42 59.47 103.92 58.2"/><polyline class="cls-3" points="105.21 68.47 105.17 68.38 100.29 70.16"/><line class="cls-3" x1="99.86" y1="79.46" x2="96.93" y2="71.41"/><polyline class="cls-3" points="83.72 83.78 83.81 83.74 81.18 76.5"/><polyline class="cls-3" points="61.82 94.17 61.7 94.22 58.28 84.84"/><polyline class="cls-3" points="51.64 86.02 51.68 86.14 56.1 84.53"/><line class="cls-3" x1="55.38" y1="70.17" x2="59.73" y2="82.12"/><line class="cls-3" x1="66.45" y1="66.15" x2="70.79" y2="78.09"/><line class="cls-3" x1="71.57" y1="64.28" x2="75.92" y2="76.23"/><line class="cls-3" x1="76.7" y1="62.42" x2="81.04" y2="74.36"/><line class="cls-3" x1="81.82" y1="60.55" x2="86.17" y2="72.5"/><polyline class="cls-3" points="86.37 58.31 86.5 58.31 86.5 59.22 89.42 59.22 89.42 62.78"/><line class="cls-3" x1="79.4" y1="40.52" x2="92.65" y2="40.52"/><line class="cls-3" x1="79.94" y1="35.06" x2="92.65" y2="35.06"/><line class="cls-3" x1="79.4" y1="29.61" x2="92.65" y2="29.61"/><polyline class="cls-3" points="79.94 23.91 79.94 23.79 91.57 23.79"/><polyline class="cls-3" points="57.08 74.84 58.55 74.3 56.86 69.64"/><polyline class="cls-3" points="94.08 69.62 55.75 83.57 56.46 85.5 94.84 71.53 95.05 72.1 97.35 71.26 94.71 64.08 94.71 23.73 92.65 23.73 92.65 43.33 92.05 43.68 92.05 48.62 92.4 48.83 92.65 48.97 92.65 51.79 86.37 51.79 86.37 51.92"/><polyline class="cls-3" points="73.3 16.32 76.11 16.32 76.11 19.71 73.25 19.7"/><polyline class="cls-3" points="11.14 21.42 12.69 21.42 12.69 16.43"/><polyline class="cls-3" points="59.49 40.7 59.49 33.08 61.04 33.08"/><polyline class="cls-3" points="96.48 23.79 96.48 21.84 90.14 21.84 90.14 23.79"/><polyline class="cls-3" points="72.27 87.94 72.37 87.91 69.73 80.67"/><g class="cls-8"><rect class="cls-3" x="-312.02" y="-436.1" width="450.14" height="582.54"/></g><g><path class="cls-11" d="M89.95,94.63v3.91h2.46v.5h-3.07v-4.41h.61Z"/><path class="cls-11" d="M96.15,99.05h-3.15v-4.41h3.08v.5h-2.49v1.39h1.98v.5h-1.98v1.52h2.56v.5Z"/><path class="cls-11" d="M98.22,99.05l-1.77-4.41h.62l1.49,3.71h.03l1.45-3.71h.62l-1.78,4.41h-.66Z"/><path class="cls-11" d="M104.32,99.05h-3.15v-4.41h3.08v.5h-2.49v1.39h1.98v.5h-1.98v1.52h2.56v.5Z"/><path class="cls-11" d="M105.62,94.63v3.91h2.46v.5h-3.07v-4.41h.61Z"/><path class="cls-11" d="M109.58,95.28c.62,0,.88-.21,1.04-.67h.4v4.44h-.61v-3.38h-.83v-.39Z"/></g><g class="cls-7"><rect class="cls-4" x="-482.27" y="-648.44" width="616.64" height="798"/></g><g><path class="cls-11" d="M8.28,3.76h.02l.65-2.62h.41l-.81,3.15h-.5l-.66-2.52h-.02l-.67,2.52h-.5l-.81-3.15h.42l.66,2.61h.02l.69-2.61h.41l.7,2.62h0Z"/><path class="cls-11" d="M11.96,4.29h-2.25V1.14h2.2v.36h-1.78v.99h1.42v.36h-1.42v1.09h1.83v.36h0Z"/><path class="cls-11" d="M12.6,3.14c.02,.58,.42,.87,.95,.87,.47,0,.77-.2,.77-.55,0-.29-.19-.43-.6-.51l-.62-.12c-.47-.09-.79-.34-.79-.83,0-.55,.44-.93,1.13-.93,.79,0,1.25,.42,1.25,1.13l-.4,.02c-.02-.52-.33-.82-.85-.82-.46,0-.71,.21-.71,.57,0,.31,.21,.41,.57,.48l.57,.11c.58,.11,.87,.36,.87,.87,0,.58-.5,.92-1.18,.92-.78,0-1.34-.42-1.34-1.19l.39-.03h0Z"/><path class="cls-11" d="M15.99,4.29V1.5h-1.15v-.36h2.74v.36h-1.17v2.79h-.42Z"/><path class="cls-11" d="M20.23,4.29h-1.34V1.14h1.29c.78,0,1.1,.34,1.1,.84,0,.37-.26,.62-.6,.68,.39,.07,.69,.32,.69,.77,0,.55-.4,.87-1.14,.87h0Zm-.92-1.8h.88c.46,0,.65-.2,.65-.5s-.19-.51-.65-.51h-.88v1.01Zm0,.34v1.1h.91c.47,0,.72-.21,.72-.55s-.25-.55-.72-.55h-.91Z"/><path class="cls-11" d="M21.81,3.09V1.14h.43v1.95c0,.6,.3,.9,.85,.9s.86-.29,.86-.89V1.14h.42v1.95c0,.92-.57,1.27-1.28,1.27s-1.28-.34-1.28-1.27Z"/><path class="cls-11" d="M25.36,1.14v3.15h-.43V1.14h.43Z"/><path class="cls-11" d="M26.41,1.14V3.93h1.76v.36h-2.19V1.14h.43Z"/><path class="cls-11" d="M28.59,1.14h1.14c.99,0,1.62,.59,1.62,1.58s-.63,1.58-1.62,1.58h-1.14V1.14Zm1.12,2.8c.77,0,1.19-.46,1.19-1.22s-.42-1.22-1.19-1.22h-.68V3.94h.68Z"/><path class="cls-11" d="M32.24,1.14v3.15h-.44V1.14h.44Z"/><path class="cls-11" d="M35.03,3.55V1.14h.41v3.15h-.35l-1.83-2.53v2.53h-.41V1.14h.45l1.73,2.41Z"/><path class="cls-11" d="M35.9,2.72c0-.97,.67-1.64,1.54-1.64s1.41,.5,1.46,1.3l-.42,.03c-.04-.58-.41-.96-1.04-.96s-1.1,.49-1.1,1.27,.46,1.27,1.14,1.27c.59,0,.97-.37,1.03-.91h-.96v-.34h1.36v1.56h-.4v-.56c-.14,.4-.58,.62-1.08,.62-.89,0-1.54-.66-1.54-1.64h.01Z"/></g><g><path class="cls-11" d="M81.11,4.29h-2.25V1.14h2.2v.36h-1.78v.99h1.42v.36h-1.42v1.09h1.83v.36h0Z"/><path class="cls-11" d="M83.12,1.14l1.31,3.15h-.46l-.38-.93h-1.44l-.37,.93h-.42l1.29-3.15h.47Zm-.83,1.88h1.16l-.58-1.4h-.02l-.57,1.4h0Z"/><path class="cls-11" d="M84.96,3.14c.02,.58,.42,.87,.95,.87,.47,0,.77-.2,.77-.55,0-.29-.19-.43-.6-.51l-.62-.12c-.47-.09-.79-.34-.79-.83,0-.55,.44-.93,1.13-.93,.79,0,1.25,.42,1.25,1.13l-.4,.02c-.02-.52-.33-.82-.85-.82-.46,0-.71,.21-.71,.57,0,.31,.21,.41,.57,.48l.57,.11c.58,.11,.87,.36,.87,.87,0,.58-.5,.92-1.18,.92-.78,0-1.34-.42-1.34-1.19l.39-.03h0Z"/><path class="cls-11" d="M88.35,4.29V1.5h-1.15v-.36h2.74v.36h-1.17v2.79h-.42Z"/><path class="cls-11" d="M92.59,4.29h-1.34V1.14h1.29c.78,0,1.1,.34,1.1,.84,0,.37-.26,.62-.6,.68,.39,.07,.69,.32,.69,.77,0,.55-.4,.87-1.14,.87h0Zm-.92-1.8h.88c.46,0,.65-.2,.65-.5s-.2-.51-.65-.51h-.88v1.01Zm0,.34v1.1h.91c.47,0,.72-.21,.72-.55s-.25-.55-.72-.55h-.91Z"/><path class="cls-11" d="M94.17,3.09V1.14h.43v1.95c0,.6,.3,.9,.85,.9s.86-.29,.86-.89V1.14h.43v1.95c0,.92-.57,1.27-1.28,1.27s-1.28-.34-1.28-1.27h-.01Z"/><path class="cls-11" d="M97.72,1.14v3.15h-.44V1.14h.44Z"/><path class="cls-11" d="M98.77,1.14V3.93h1.76v.36h-2.19V1.14h.43Z"/><path class="cls-11" d="M100.95,1.14h1.14c.99,0,1.62,.59,1.62,1.58s-.62,1.58-1.62,1.58h-1.14V1.14Zm1.12,2.8c.77,0,1.19-.46,1.19-1.22s-.42-1.22-1.19-1.22h-.68V3.94h.68Z"/><path class="cls-11" d="M104.6,1.14v3.15h-.43V1.14h.43Z"/><path class="cls-11" d="M107.39,3.55V1.14h.41v3.15h-.34l-1.83-2.53v2.53h-.41V1.14h.45l1.73,2.41h-.01Z"/><path class="cls-11" d="M108.26,2.72c0-.97,.67-1.64,1.54-1.64s1.41,.5,1.46,1.3l-.42,.03c-.04-.58-.41-.96-1.04-.96s-1.1,.49-1.1,1.27,.46,1.27,1.14,1.27c.59,0,.97-.37,1.03-.91h-.96v-.34h1.36v1.56h-.4v-.56c-.14,.4-.58,.62-1.08,.62-.89,0-1.54-.66-1.54-1.64h.01Z"/></g></g></g></g></svg>