<?xml version="1.0" encoding="UTF-8"?><svg xmlns="http://www.w3.org/2000/svg" xmlns:xlink="http://www.w3.org/1999/xlink" viewBox="0 0 114.17 101.25"><defs><style>.cls-1{clip-path:url(#clippath-78);}.cls-2{clip-path:url(#clippath-2);}.cls-3{isolation:isolate;}.cls-4{stroke:#ebebec;}.cls-4,.cls-5,.cls-6{stroke-width:.31px;}.cls-4,.cls-5,.cls-6,.cls-7,.cls-8{fill:none;}.cls-4,.cls-5,.cls-6,.cls-8{stroke-linecap:round;stroke-linejoin:round;}.cls-5,.cls-6,.cls-8{stroke:#000;}.cls-9{fill:#f1b784;fill-rule:evenodd;}.cls-6{stroke-dasharray:0 0 3.94 1.97;}.cls-10{clip-path:url(#clippath);}.cls-11{fill:#333132;}.cls-8{stroke-width:.47px;}</style><clipPath id="clippath"><rect class="cls-7" x="-352.37" y="-648.42" width="612" height="792"/></clipPath><clipPath id="clippath-2"><rect class="cls-7" x="-3.97" y="4.58" width="252.6" height="105"/></clipPath><clipPath id="clippath-78"><rect class="cls-7" x="-352.37" y="-548.5" width="612" height="553.08"/></clipPath><clipPath id="clippath-83"><rect class="cls-7" x="-352.37" y="-648.42" width="612" height="792"/></clipPath></defs><g class="cls-3"><g id="Layer_1"><g class="cls-10"><polygon class="cls-9" points="92.46 38.76 79.21 38.76 79.21 41.33 79.75 41.33 79.75 44.09 77.36 44.09 77.36 44.4 91.86 44.4 91.86 41.92 92.46 41.57 92.46 38.76"/><polygon class="cls-4" points="92.46 38.76 79.2 38.76 79.2 41.33 79.75 41.33 79.75 44.09 77.36 44.09 77.36 44.4 91.86 44.4 91.86 41.92 92.46 41.57 92.46 38.76"/><polygon class="cls-9" points="91.86 44.4 77.36 44.4 77.36 44.7 79.75 44.7 79.75 47.47 79.21 47.47 79.21 50.16 86.18 50.16 86.18 50.03 92.46 50.03 92.46 47.21 92.21 47.07 91.86 46.86 91.86 44.4"/><polygon class="cls-4" points="91.86 44.4 77.36 44.4 77.36 44.7 79.75 44.7 79.75 47.47 79.21 47.47 79.21 50.16 86.18 50.16 86.18 50.03 92.46 50.03 92.46 47.21 92.21 47.07 91.86 46.86 91.86 44.4"/><line class="cls-5" x1="32.12" y1="32.68" x2="32.12" y2="29.44"/><polyline class="cls-5" points="35.58 32.68 32.12 29.44 28.66 32.68"/><polyline class="cls-5" points="35.58 29.44 32.12 32.68 28.66 29.44"/><line class="cls-5" x1="89.98" y1="65.56" x2="92.69" y2="64.57"/><polyline class="cls-5" points="91.18 68.85 92.69 64.57 88.78 62.27"/><polyline class="cls-5" points="93.89 67.86 89.98 65.56 91.49 61.28"/><line class="cls-6" x1="96.73" y1="69.66" x2="107.75" y2="74.24"/><line class="cls-6" x1="104.98" y1="66.62" x2="99.67" y2="77.7"/><line class="cls-5" x1="75.92" y1="14.57" x2="71.92" y2="17.95"/><line class="cls-5" x1="75.92" y1="17.95" x2="71.92" y2="14.57"/><line class="cls-5" x1="51.99" y1="42.16" x2="51.99" y2="45.75"/><line class="cls-5" x1="41.08" y1="42.16" x2="41.08" y2="45.75"/><line class="cls-5" x1="12.5" y1="25.41" x2="10.95" y2="25.41"/><line class="cls-5" x1="12.5" y1="22.45" x2="14.04" y2="21.73"/><line class="cls-5" x1="70.14" y1="59.13" x2="71.38" y2="62.52"/><line class="cls-5" x1="80.39" y1="55.4" x2="81.63" y2="58.79"/><line class="cls-5" x1="77.62" y1="33.3" x2="79.75" y2="33.3"/><polyline class="cls-5" points="105.45 61.19 106.94 60.64 108.97 66.21 105.31 67.54"/><line class="cls-5" x1="94.52" y1="44.4" x2="91.86" y2="44.4"/><line class="cls-5" x1="97.06" y1="64.66" x2="95.58" y2="65.2"/><polyline class="cls-5" points="98.48 63.96 97 64.5 97.97 67.16 96.5 67.7"/><line class="cls-5" x1="97.91" y1="67" x2="99.39" y2="66.46"/><polyline class="cls-5" points="60.32 73.7 58.98 74.19 60.46 78.27 61.94 77.73"/><line class="cls-5" x1="58.86" y1="78.49" x2="60.34" y2="77.95"/><line class="cls-5" x1="59.54" y1="75.74" x2="58.31" y2="76.97"/><polyline class="cls-5" points="97.68 31.7 96.1 31.7 96.1 28.7 94.52 28.7"/><line class="cls-5" x1="97.68" y1="29.04" x2="96.1" y2="29.04"/><line class="cls-5" x1="94.52" y1="31.37" x2="96.11" y2="31.37"/><polyline class="cls-5" points="47.3 71.29 46.68 71.51 45.44 68.12 53.95 65.02 55.19 68.41"/><polyline class="cls-5" points="58.08 67.36 56.84 63.97 60.5 62.64"/><line class="cls-5" x1="61.69" y1="62.2" x2="65.16" y2="60.94"/><rect class="cls-5" x="60.16" y="60.17" width="1.27" height="2.86" transform="translate(-17.4 24.51) rotate(-20)"/><rect class="cls-5" x="64.82" y="58.47" width="1.27" height="2.86" transform="translate(-16.54 26) rotate(-20)"/><rect class="cls-5" x="69.95" y="56.61" width="1.27" height="2.86" transform="translate(-15.6 27.64) rotate(-20)"/><rect class="cls-5" x="75.07" y="54.74" width="1.27" height="2.86" transform="translate(-14.65 29.29) rotate(-20)"/><rect class="cls-5" x="80.19" y="52.87" width="1.27" height="2.86" transform="translate(-13.7 30.93) rotate(-20)"/><line class="cls-5" x1="66.35" y1="60.51" x2="70.28" y2="59.08"/><line class="cls-5" x1="71.48" y1="58.64" x2="75.41" y2="57.21"/><line class="cls-5" x1="76.6" y1="56.78" x2="80.53" y2="55.35"/><polyline class="cls-5" points="81.73 54.91 83.42 54.3 84.66 57.69"/><line class="cls-5" x1="75.27" y1="57.26" x2="76.5" y2="60.66"/><line class="cls-5" x1="65.02" y1="60.99" x2="66.25" y2="64.39"/><rect class="cls-5" x="73.58" y="44.51" width="2.75" height="1.27"/><rect class="cls-5" x="73.58" y="43.01" width="2.75" height="1.27"/><line class="cls-5" x1="76.33" y1="44.28" x2="76.33" y2="44.51"/><line class="cls-5" x1="77.36" y1="44.4" x2="76.33" y2="44.4"/><polyline class="cls-5" points="75.61 45.78 75.61 50.7 79.2 50.7 79.2 50.16"/><rect class="cls-5" x="73.58" y="37.34" width="2.75" height="1.27"/><rect class="cls-5" x="73.58" y="31.88" width="2.75" height="1.27"/><line class="cls-5" x1="75.61" y1="21.87" x2="75.61" y2="31.88"/><line class="cls-5" x1="75.61" y1="33.16" x2="75.61" y2="37.34"/><line class="cls-5" x1="75.61" y1="38.61" x2="75.61" y2="43.01"/><line class="cls-5" x1="79.21" y1="38.76" x2="75.61" y2="38.75"/><line class="cls-5" x1="79.75" y1="33.3" x2="75.61" y2="33.3"/><line class="cls-5" x1="79.21" y1="27.85" x2="75.61" y2="27.85"/><line class="cls-5" x1="110.03" y1="22.03" x2="110.03" y2="44.09"/><line class="cls-5" x1="107.78" y1="38.76" x2="110.03" y2="38.76"/><line class="cls-5" x1="107.78" y1="33.43" x2="110.03" y2="33.43"/><polyline class="cls-5" points="110.03 44.7 110.03 49.91 107.78 49.91"/><rect class="cls-5" x="64.05" y="45.21" width="1.27" height="2.85"/><rect class="cls-5" x="52.14" y="45.21" width="1.27" height="2.85"/><rect class="cls-5" x="46.69" y="45.21" width="1.27" height="2.85"/><rect class="cls-5" x="41.41" y="45.21" width="1.27" height="2.85"/><rect class="cls-5" x="35.81" y="45.21" width="1.27" height="2.85"/><rect class="cls-5" x="28.41" y="45.21" width="1.27" height="2.85"/><rect class="cls-5" x="21.72" y="45.21" width="1.27" height="2.85"/><polyline class="cls-5" points="69.33 42.16 69.87 42.16 69.87 45.75 65.33 45.75"/><line class="cls-5" x1="64.05" y1="45.75" x2="59.65" y2="45.75"/><line class="cls-5" x1="57.83" y1="45.75" x2="53.41" y2="45.75"/><line class="cls-5" x1="52.14" y1="45.75" x2="47.96" y2="45.75"/><line class="cls-5" x1="46.68" y1="45.75" x2="42.69" y2="45.75"/><line class="cls-5" x1="41.41" y1="45.75" x2="37.09" y2="45.75"/><line class="cls-5" x1="35.81" y1="45.75" x2="29.69" y2="45.75"/><line class="cls-5" x1="28.41" y1="45.75" x2="23" y2="45.75"/><polyline class="cls-5" points="21.72 45.75 19.59 45.75 17.17 44.3 17.17 42.16 17.55 42.16"/><line class="cls-5" x1="46.54" y1="42.16" x2="46.54" y2="45.75"/><line class="cls-5" x1="35.63" y1="42.16" x2="35.63" y2="45.75"/><line class="cls-5" x1="23.14" y1="42.16" x2="23.14" y2="45.75"/><line class="cls-5" x1="59.65" y1="42.16" x2="59.65" y2="45.75"/><line class="cls-5" x1="57.83" y1="42.16" x2="57.83" y2="45.75"/><polyline class="cls-5" points="2.46 14.67 1.71 14.67 1.71 11.77 10.76 11.77 10.76 14.67"/><polyline class="cls-5" points="27.54 14.67 27.54 11.77 18.01 11.77 18.01 12.82 14.21 12.82 14.21 14.67"/><line class="cls-5" x1="22.63" y1="14.67" x2="22.63" y2="11.77"/><line class="cls-5" x1="12.5" y1="23.91" x2="10.95" y2="23.91"/><line class="cls-5" x1="12.5" y1="16.28" x2="10.95" y2="16.28"/><line class="cls-5" x1="12.5" y1="18.4" x2="14.04" y2="18.4"/><line class="cls-5" x1="12.5" y1="19.4" x2="14.04" y2="19.4"/><line class="cls-5" x1="12.5" y1="21.43" x2="14.04" y2="21.43"/><line class="cls-5" x1="59.3" y1="35.31" x2="60.85" y2="34.58"/><line class="cls-5" x1="59.3" y1="36.28" x2="60.85" y2="36.28"/><polyline class="cls-5" points="65.6 92.88 65.75 93.28 62.39 94.49 62.25 94.13"/><polyline class="cls-5" points="51.96 97.29 53.01 100.18 57.28 98.63 57.08 98.07 61 96.66 60.33 94.82"/><polyline class="cls-5" points="70.15 91.24 73.12 88.89 81.17 85.93 80.92 85.25 84.26 84.03 84.15 83.74"/><polyline class="cls-5" points="95.52 79.21 95.75 79.85 92.32 81.1 92.21 80.81"/><line class="cls-5" x1="73.08" y1="88.92" x2="72.7" y2="87.91"/><polygon class="cls-5" points="1.55 20.26 1.55 19.8 2.46 19.8 2.46 14.67 6.97 14.67 14.55 14.67 18.36 14.67 25.09 14.67 31.02 14.67 35.18 14.67 35.18 10.44 37.72 10.44 37.72 11.17 68.88 11.17 68.88 14.57 69.61 14.57 69.61 21.59 69.33 21.59 69.33 31.66 69.33 37.01 69.33 42.16 64.83 42.16 56.93 42.16 49.04 42.16 44.08 42.16 38.14 42.16 31.63 42.16 27.2 42.16 20.65 42.16 17.55 42.16 17.55 40.08 14.07 40.08 9.39 40.08 9.39 37.12 8.84 37.12 8.84 35.48 5.73 35.48 5.73 30.98 2.46 30.98 2.46 20.26 1.55 20.26"/><polyline class="cls-5" points="35.48 14.67 35.48 27.38 62.84 27.38 62.84 29.45 8.97 29.45 8.97 27.38 28.09 27.38 28.09 14.67"/><line class="cls-5" x1="8.97" y1="28.41" x2="2.46" y2="28.41"/><line class="cls-5" x1="13.93" y1="29.44" x2="13.93" y2="40.08"/><line class="cls-5" x1="23.14" y1="29.44" x2="23.14" y2="42.16"/><polyline class="cls-5" points="28.66 29.44 28.66 32.68 35.58 32.68 35.58 29.44"/><polyline class="cls-5" points="35.63 42.16 35.63 32.68 35.58 32.68"/><line class="cls-5" x1="41.08" y1="42.16" x2="41.08" y2="29.44"/><line class="cls-5" x1="46.54" y1="42.16" x2="46.54" y2="29.44"/><line class="cls-5" x1="51.99" y1="42.16" x2="51.99" y2="30.53"/><polyline class="cls-5" points="51.94 29.52 51.94 30.53 54.6 30.53 54.6 29.44"/><line class="cls-5" x1="57.76" y1="29.44" x2="57.76" y2="42.16"/><line class="cls-5" x1="60.85" y1="42.16" x2="60.85" y2="29.44"/><line class="cls-5" x1="69.33" y1="28.41" x2="62.83" y2="28.41"/><line class="cls-5" x1="22.63" y1="27.38" x2="22.63" y2="14.67"/><line class="cls-5" x1="10.95" y1="27.38" x2="10.95" y2="14.67"/><line class="cls-5" x1="14.04" y1="14.67" x2="14.04" y2="27.38"/><polyline class="cls-5" points="16.91 27.38 16.91 26.3 14.04 26.3"/><polyline class="cls-5" points="14.04 25.76 12.5 25.76 12.5 21.09"/><polygon class="cls-5" points="86.18 57.14 86.18 50.16 79.21 50.16 79.21 47.47 79.75 47.47 79.75 44.7 77.36 44.7 77.36 44.09 79.75 44.09 79.75 41.33 79.21 41.33 79.21 36.27 79.75 36.27 79.75 30.34 79.21 30.34 79.21 25 79.75 25 79.75 22.16 79.21 22.16 79.21 21.87 73.06 21.87 73.06 17.95 71.92 17.95 71.92 14.57 73.11 14.57 73.11 11.17 87.75 11.17 87.75 10.44 90.31 10.44 90.31 11.17 96.67 11.17 96.67 10.44 99.23 10.44 99.23 11.17 109.11 11.17 109.11 19.48 110.36 19.48 110.36 22.02 107.78 22.02 107.78 25.84 107.23 25.84 107.23 29.43 107.78 29.43 107.78 33.43 107.23 33.43 107.23 36.27 107.78 36.27 107.78 41.33 107.23 41.33 107.23 44.09 110.03 44.09 110.03 44.7 107.23 44.7 107.23 47.47 107.78 47.47 107.78 50.16 101.73 50.16 101.73 50.96 101.74 50.98 105.54 61.42 104.99 61.62 106.49 65.74 107.01 65.56 107.15 65.94 105.01 66.72 107.75 74.24 103.68 75.72 103.84 76.18 95.47 79.23 94.97 77.85 91.63 79.07 92.26 80.79 84.15 83.74 83.53 82.02 80.19 83.24 80.81 84.95 72.7 87.91 72.08 86.19 68.74 87.4 70.15 91.24 65.6 92.88 64.99 91.19 61.63 92.42 62.25 94.13 56.39 96.26 56.2 95.75 51.96 97.29 50.57 93.47 50.06 93.65 48.62 89.7 50.89 88.87 49.47 84.98 51.44 84.27 48.55 76.31 49.06 76.12 47.3 71.29 51.41 69.79 58.66 67.15 62.24 65.85 68.59 63.54 74.17 61.51 78.84 59.81 86.18 57.14"/><polyline class="cls-5" points="93.89 67.86 91.49 61.28 88.78 62.27 91.18 68.85"/><polyline class="cls-5" points="89.17 62.13 89.17 61.03 91.09 61.03 91.22 61.38"/><polyline class="cls-5" points="91.49 61.28 91.44 61.14 92.46 60.77 92.46 52.06 88.31 52.06 88.31 52.66 86.18 52.66"/><polyline class="cls-5" points="92.46 57.98 91.32 57.98 91.32 61.03 91.09 61.03"/><polyline class="cls-5" points="92.46 21.98 91.38 21.98 91.38 24.71 92.46 24.71"/><polyline class="cls-5" points="94.52 26.86 97.68 26.86 97.68 33.31 94.52 33.31"/><polyline class="cls-5" points="94.91 63.38 97.88 62.3 100.1 68.4 97.15 69.48"/><line class="cls-5" x1="58.16" y1="67.34" x2="62.51" y2="79.28"/><polyline class="cls-5" points="65.22 78.29 64.85 77.27 62.14 78.26"/><line class="cls-5" x1="94.52" y1="22.03" x2="107.78" y2="22.03"/><polyline class="cls-5" points="107.23 33.43 107.23 33.3 97.68 33.3"/><line class="cls-5" x1="107.78" y1="38.76" x2="94.52" y2="38.76"/><line class="cls-5" x1="94.52" y1="44.4" x2="110.03" y2="44.4"/><line class="cls-5" x1="77.36" y1="44.4" x2="91.86" y2="44.4"/><polyline class="cls-5" points="94.52 57.72 100.23 57.72 103.73 56.44"/><polyline class="cls-5" points="105.01 66.72 104.98 66.62 100.1 68.4"/><line class="cls-5" x1="99.67" y1="77.7" x2="96.74" y2="69.66"/><polyline class="cls-5" points="83.53 82.02 83.62 81.98 80.99 74.75"/><polyline class="cls-5" points="61.63 92.42 61.51 92.46 58.09 83.08"/><polyline class="cls-5" points="51.44 84.27 51.49 84.39 55.91 82.78"/><line class="cls-5" x1="55.19" y1="68.41" x2="59.54" y2="80.36"/><line class="cls-5" x1="66.25" y1="64.39" x2="70.6" y2="76.33"/><line class="cls-5" x1="71.38" y1="62.52" x2="75.73" y2="74.47"/><line class="cls-5" x1="76.5" y1="60.66" x2="80.85" y2="72.6"/><line class="cls-5" x1="81.63" y1="58.79" x2="85.98" y2="70.74"/><polyline class="cls-5" points="86.18 56.56 86.31 56.56 86.31 57.46 89.23 57.46 89.23 61.03"/><line class="cls-5" x1="79.21" y1="38.76" x2="92.46" y2="38.76"/><line class="cls-5" x1="79.75" y1="33.3" x2="92.46" y2="33.3"/><line class="cls-5" x1="79.21" y1="27.85" x2="92.46" y2="27.85"/><polyline class="cls-5" points="79.75 22.16 79.75 22.03 91.38 22.03"/><polyline class="cls-5" points="56.89 73.08 58.36 72.55 56.67 67.88"/><polyline class="cls-5" points="93.89 67.86 55.56 81.81 56.27 83.74 94.65 69.77 94.86 70.34 97.16 69.5 94.52 62.32 94.52 21.98 92.46 21.98 92.46 41.57 91.86 41.92 91.86 46.86 92.21 47.07 92.46 47.21 92.46 50.03 86.18 50.03 86.18 50.16"/><polyline class="cls-5" points="73.11 14.57 75.92 14.57 75.92 17.95 73.06 17.95"/><polyline class="cls-5" points="10.95 19.66 12.5 19.66 12.5 14.67"/><polyline class="cls-5" points="59.3 38.94 59.3 31.33 60.85 31.33"/><polyline class="cls-5" points="96.29 22.03 96.29 20.08 89.95 20.08 89.95 22.03"/><polyline class="cls-5" points="72.08 86.19 72.17 86.15 69.54 78.91"/><g class="cls-2"><rect class="cls-5" x="-101.01" y="-437.86" width="450.14" height="582.54"/></g><g><path class="cls-11" d="M91.06,94.87v3.91h2.46v.5h-3.07v-4.41h.61Z"/><path class="cls-11" d="M97.27,99.28h-3.15v-4.41h3.08v.5h-2.49v1.39h1.98v.5h-1.98v1.52h2.56v.5Z"/><path class="cls-11" d="M99.34,99.28l-1.77-4.41h.62l1.49,3.71h.03l1.45-3.71h.62l-1.78,4.41h-.66Z"/><path class="cls-11" d="M105.43,99.28h-3.15v-4.41h3.08v.5h-2.49v1.39h1.98v.5h-1.98v1.52h2.56v.5Z"/><path class="cls-11" d="M106.73,94.87v3.91h2.46v.5h-3.07v-4.41h.61Z"/><path class="cls-11" d="M110.69,95.52c.62,0,.88-.21,1.04-.67h.4v4.44h-.61v-3.38h-.83v-.39Z"/></g><g class="cls-1"><rect class="cls-8" x="-383.88" y="-641.98" width="678.3" height="877.8"/></g><g><path class="cls-11" d="M4.96,4h.02l.65-2.62h.41l-.81,3.15h-.5l-.66-2.52h-.02l-.67,2.52h-.5l-.81-3.15h.42l.66,2.61h.02l.69-2.61h.41l.7,2.62Z"/><path class="cls-11" d="M8.63,4.53h-2.25V1.38h2.2v.36h-1.78v.99h1.42v.36h-1.42v1.09h1.83v.36Z"/><path class="cls-11" d="M9.28,3.38c.03,.58,.42,.87,.95,.87,.47,0,.77-.2,.77-.55,0-.29-.19-.43-.6-.51l-.62-.12c-.47-.09-.79-.34-.79-.83,0-.55,.44-.93,1.13-.93,.79,0,1.25,.42,1.25,1.13l-.39,.02c-.02-.52-.33-.82-.85-.82-.46,0-.71,.21-.71,.57,0,.31,.21,.41,.57,.48l.57,.11c.58,.11,.87,.36,.87,.87,0,.58-.5,.92-1.18,.92-.78,0-1.34-.42-1.34-1.19l.39-.03Z"/><path class="cls-11" d="M12.67,4.53V1.74h-1.15v-.36h2.74v.36h-1.17v2.79h-.43Z"/><path class="cls-11" d="M16.91,4.53h-1.34V1.38h1.29c.78,0,1.1,.34,1.1,.84,0,.37-.26,.62-.6,.68,.39,.07,.69,.32,.69,.77,0,.55-.4,.87-1.14,.87Zm-.92-1.79h.88c.46,0,.65-.2,.65-.5s-.2-.51-.65-.51h-.88v1.01Zm0,.34v1.1h.91c.47,0,.72-.21,.72-.55s-.25-.55-.72-.55h-.91Z"/><path class="cls-11" d="M18.49,3.33V1.38h.43v1.95c0,.6,.3,.9,.85,.9s.86-.29,.86-.89V1.38h.43v1.95c0,.92-.57,1.27-1.28,1.27s-1.28-.34-1.28-1.27Z"/><path class="cls-11" d="M22.04,1.38v3.15h-.44V1.38h.44Z"/><path class="cls-11" d="M23.09,1.38v2.79h1.76v.36h-2.19V1.38h.44Z"/><path class="cls-11" d="M25.27,1.38h1.14c.99,0,1.62,.59,1.62,1.58s-.62,1.58-1.62,1.58h-1.14V1.38Zm1.12,2.8c.77,0,1.19-.46,1.19-1.22s-.42-1.22-1.19-1.22h-.68v2.44h.68Z"/><path class="cls-11" d="M28.92,1.38v3.15h-.43V1.38h.43Z"/><path class="cls-11" d="M31.71,3.79V1.38h.41v3.15h-.34l-1.83-2.53v2.53h-.41V1.38h.45l1.73,2.41Z"/><path class="cls-11" d="M32.58,2.96c0-.97,.67-1.64,1.54-1.64s1.41,.5,1.46,1.3l-.42,.03c-.04-.58-.41-.96-1.04-.96s-1.1,.49-1.1,1.27,.46,1.27,1.14,1.27c.59,0,.97-.37,1.03-.91h-.96v-.34h1.36v1.56h-.4v-.56c-.14,.4-.58,.62-1.08,.62-.89,0-1.54-.66-1.54-1.64Z"/></g><g><path class="cls-11" d="M77.79,4.53h-2.25V1.38h2.2v.36h-1.78v.99h1.42v.36h-1.42v1.09h1.83v.36Z"/><path class="cls-11" d="M79.8,1.38l1.31,3.15h-.46l-.38-.93h-1.44l-.37,.93h-.43l1.29-3.15h.47Zm-.83,1.88h1.16l-.58-1.4h-.02l-.57,1.4Z"/><path class="cls-11" d="M81.64,3.38c.03,.58,.42,.87,.95,.87,.47,0,.77-.2,.77-.55,0-.29-.19-.43-.6-.51l-.62-.12c-.47-.09-.79-.34-.79-.83,0-.55,.44-.93,1.13-.93,.79,0,1.25,.42,1.25,1.13l-.39,.02c-.02-.52-.33-.82-.85-.82-.46,0-.71,.21-.71,.57,0,.31,.21,.41,.57,.48l.57,.11c.58,.11,.87,.36,.87,.87,0,.58-.5,.92-1.18,.92-.78,0-1.34-.42-1.34-1.19l.39-.03Z"/><path class="cls-11" d="M85.03,4.53V1.74h-1.15v-.36h2.74v.36h-1.17v2.79h-.43Z"/><path class="cls-11" d="M89.27,4.53h-1.34V1.38h1.29c.78,0,1.1,.34,1.1,.84,0,.37-.26,.62-.6,.68,.39,.07,.69,.32,.69,.77,0,.55-.4,.87-1.14,.87Zm-.92-1.79h.88c.46,0,.65-.2,.65-.5s-.19-.51-.65-.51h-.88v1.01Zm0,.34v1.1h.91c.47,0,.72-.21,.72-.55s-.25-.55-.72-.55h-.91Z"/><path class="cls-11" d="M90.85,3.33V1.38h.43v1.95c0,.6,.3,.9,.85,.9s.86-.29,.86-.89V1.38h.42v1.95c0,.92-.57,1.27-1.28,1.27s-1.28-.34-1.28-1.27Z"/><path class="cls-11" d="M94.4,1.38v3.15h-.43V1.38h.43Z"/><path class="cls-11" d="M95.45,1.38v2.79h1.76v.36h-2.19V1.38h.43Z"/><path class="cls-11" d="M97.63,1.38h1.14c.99,0,1.62,.59,1.62,1.58s-.63,1.58-1.62,1.58h-1.14V1.38Zm1.12,2.8c.77,0,1.19-.46,1.19-1.22s-.42-1.22-1.19-1.22h-.68v2.44h.68Z"/><path class="cls-11" d="M101.28,1.38v3.15h-.44V1.38h.44Z"/><path class="cls-11" d="M104.07,3.79V1.38h.41v3.15h-.35l-1.83-2.53v2.53h-.41V1.38h.45l1.73,2.41Z"/><path class="cls-11" d="M104.94,2.96c0-.97,.67-1.64,1.54-1.64s1.41,.5,1.46,1.3l-.42,.03c-.04-.58-.41-.96-1.04-.96s-1.1,.49-1.1,1.27,.46,1.27,1.14,1.27c.59,0,.97-.37,1.03-.91h-.96v-.34h1.36v1.56h-.4v-.56c-.14,.4-.58,.62-1.08,.62-.89,0-1.54-.66-1.54-1.64Z"/></g></g></g></g></svg>