<?xml version="1.0" encoding="UTF-8"?><svg xmlns="http://www.w3.org/2000/svg" xmlns:xlink="http://www.w3.org/1999/xlink" viewBox="0 0 112.58 101.25"><defs><style>.cls-1{clip-path:url(#clippath-78);}.cls-2{clip-path:url(#clippath-2);}.cls-3{isolation:isolate;}.cls-4{stroke:#ebebec;}.cls-4,.cls-5{stroke-width:.31px;}.cls-4,.cls-5,.cls-6,.cls-7{fill:none;}.cls-4,.cls-5,.cls-7{stroke-linecap:round;stroke-linejoin:round;}.cls-5,.cls-7{stroke:#000;}.cls-8{fill:#f1b784;fill-rule:evenodd;}.cls-9{clip-path:url(#clippath);}.cls-10{fill:#333132;}.cls-7{stroke-width:.47px;}</style><clipPath id="clippath"><rect class="cls-6" x="-485.96" y="-648.42" width="612" height="792"/></clipPath><clipPath id="clippath-2"><rect class="cls-6" x="-137.56" y="4.58" width="252.6" height="105"/></clipPath><clipPath id="clippath-78"><rect class="cls-6" x="-485.96" y="-548.5" width="612" height="553.08"/></clipPath><clipPath id="clippath-83"><rect class="cls-6" x="-485.96" y="-648.42" width="612" height="792"/></clipPath></defs><g class="cls-3"><g id="Layer_1"><g class="cls-9"><polygon class="cls-8" points="93.27 38.76 80.01 38.76 80.01 41.33 80.56 41.33 80.56 44.09 78.17 44.09 78.17 44.4 92.66 44.4 92.66 41.92 93.27 41.57 93.27 38.76"/><polygon class="cls-4" points="93.27 38.76 80.01 38.76 80.01 41.33 80.56 41.33 80.56 44.09 78.17 44.09 78.17 44.4 92.66 44.4 92.66 41.92 93.27 41.57 93.27 38.76"/><line class="cls-5" x1="32.93" y1="32.68" x2="32.93" y2="29.44"/><polyline class="cls-5" points="36.38 32.68 32.93 29.44 29.47 32.68"/><polyline class="cls-5" points="36.38 29.44 32.93 32.68 29.47 29.44"/><line class="cls-5" x1="90.79" y1="65.56" x2="93.5" y2="64.57"/><polyline class="cls-5" points="91.98 68.85 93.5 64.57 89.59 62.27"/><polyline class="cls-5" points="94.69 67.86 90.79 65.56 92.3 61.28"/><polyline class="cls-5" points="2.36 20.1 1.21 20.1 1.21 12.55 8.06 12.55 8.06 14.13"/><polyline class="cls-5" points="15.08 14.13 15.08 12.54 19.45 12.54 19.45 14.13"/><polyline class="cls-5" points="25.64 14.13 25.64 12.54 32.14 12.54 32.14 14.13"/><line class="cls-5" x1="28.89" y1="12.54" x2="28.89" y2="14.67"/><polyline class="cls-5" points="70.69 36.73 72.2 36.73 72.2 44.28 65.35 44.28 65.35 42.7"/><polyline class="cls-5" points="58.01 42.7 58.01 44.28 49.56 44.28 49.56 42.7"/><line class="cls-5" x1="52.8" y1="42.16" x2="52.8" y2="44.28"/><polyline class="cls-5" points="45.14 42.7 45.14 44.28 38.64 44.28 38.64 42.7"/><line class="cls-5" x1="41.89" y1="42.16" x2="41.89" y2="44.28"/><polyline class="cls-5" points="32.72 42.7 32.72 44.28 27.73 44.28 27.73 42.7"/><polyline class="cls-5" points="21.74 42.7 21.74 44.28 18.42 44.28 18.42 42.71"/><polyline class="cls-5" points="15.15 40.63 15.15 42.21 11.66 42.21 11.66 40.08"/><polyline class="cls-5" points="14.85 25.76 13.31 25.76 13.31 20.91"/><line class="cls-5" x1="13.31" y1="25.41" x2="11.76" y2="25.41"/><line class="cls-5" x1="11.76" y1="23.77" x2="13.31" y2="23.05"/><polyline class="cls-5" points="61.65 31.28 60.11 31.28 60.11 35.91"/><line class="cls-5" x1="58.56" y1="34.04" x2="60.11" y2="33.32"/><line class="cls-5" x1="58.56" y1="31.68" x2="60.11" y2="31.68"/><polyline class="cls-5" points="57.46 96.16 57.77 97.01 51.26 99.37 49.28 93.93 50.77 93.39"/><polyline class="cls-5" points="49.45 76.57 47.91 77.13 45.32 70.04 51.76 67.7 52.3 69.18"/><polyline class="cls-5" points="59.05 66.73 58.51 65.24 62.61 63.74 63.16 65.23"/><polyline class="cls-5" points="68.95 63.12 68.41 61.64 74.51 59.41 75.05 60.9"/><line class="cls-5" x1="71.46" y1="60.52" x2="72.19" y2="62.52"/><polyline class="cls-5" points="79.2 59.39 78.66 57.9 84.76 55.68 85.3 57.17"/><line class="cls-5" x1="81.71" y1="56.79" x2="82.44" y2="58.79"/><polyline class="cls-5" points="80.01 47.75 78.43 47.75 78.43 44.7"/><polyline class="cls-5" points="80.01 41.05 78.43 41.05 78.43 44.09"/><polyline class="cls-5" points="80.01 36.55 78.43 36.55 78.43 30.06 80.01 30.06"/><line class="cls-5" x1="78.43" y1="33.3" x2="80.56" y2="33.3"/><polyline class="cls-5" points="108.59 25.56 110.17 25.56 110.17 29.71 108.59 29.71"/><polyline class="cls-5" points="108.59 33.15 110.17 33.15 110.17 36.55 108.59 36.55"/><polyline class="cls-5" points="108.59 41.05 110.17 41.05 110.17 44.09"/><polyline class="cls-5" points="110.17 44.7 110.17 47.75 108.59 47.75"/><polyline class="cls-5" points="106.26 61.19 107.75 60.64 109.46 65.36 107.95 65.91"/><polyline class="cls-5" points="107.36 69.51 108.87 68.96 111.25 75.49 104.96 77.78 104.41 76.27"/><polyline class="cls-5" points="66.61 92.82 66.93 93.67 63.1 95.06 62.8 94.22"/><line class="cls-5" x1="95.33" y1="44.4" x2="92.66" y2="44.4"/><line class="cls-5" x1="97.86" y1="64.66" x2="96.38" y2="65.2"/><polyline class="cls-5" points="99.29 63.96 97.8 64.5 98.77 67.16 97.3 67.7"/><line class="cls-5" x1="98.72" y1="67" x2="100.2" y2="66.46"/><polyline class="cls-5" points="61.13 73.7 59.78 74.19 61.26 78.27 62.75 77.73"/><line class="cls-5" x1="59.67" y1="78.49" x2="61.15" y2="77.95"/><line class="cls-5" x1="60.34" y1="75.74" x2="59.11" y2="76.97"/><polyline class="cls-5" points="98.49 31.7 96.91 31.7 96.91 28.7 95.33 28.7"/><line class="cls-5" x1="98.49" y1="29.04" x2="96.91" y2="29.04"/><line class="cls-5" x1="95.33" y1="31.37" x2="96.91" y2="31.37"/><line class="cls-5" x1="39.8" y1="14.67" x2="39.8" y2="12.54"/><polyline class="cls-5" points="93.06 80.76 96.63 79.46 96.52 79.15"/><line class="cls-5" x1="81.61" y1="84.93" x2="84.95" y2="83.71"/><polyline class="cls-5" points="73.75 87.82 73.94 88.35 70.38 89.64"/><polyline class="cls-5" points="102.62 12.96 102.62 11.37 110.17 11.37 110.17 18.29 108.59 18.29"/><polyline class="cls-5" points="80.01 18.29 78.43 18.29 78.43 11.37 85.98 11.37 85.98 12.96"/><polyline class="cls-5" points="80.01 21.88 78.43 21.88 78.43 25.28 80.01 25.28"/><polyline class="cls-5" points="36.55 14.13 36.55 12.54 43.05 12.54 43.05 14.13"/><line class="cls-5" x1="50.71" y1="14.67" x2="50.71" y2="12.54"/><polyline class="cls-5" points="47.46 14.13 47.46 12.54 53.96 12.54 53.96 14.13"/><polyline class="cls-5" points="58.34 14.13 58.34 12.54 61.76 12.54 61.76 14.13"/><polyline class="cls-5" points="65.35 14.13 65.35 12.54 72.2 12.54 72.2 20.1 70.69 20.1"/><polygon class="cls-5" points="2.36 20.26 2.36 19.8 2.9 19.8 2.9 14.67 7.78 14.67 7.78 14.13 15.36 14.13 15.36 14.67 19.17 14.67 19.17 14.13 25.89 14.13 25.89 14.67 31.83 14.67 31.83 14.13 36.8 14.13 36.8 14.67 42.74 14.67 42.74 14.13 47.71 14.13 47.71 14.67 53.65 14.67 53.65 14.13 58.62 14.13 58.62 14.67 61.48 14.67 61.48 14.13 65.63 14.13 65.63 14.67 70.14 14.67 70.14 19.82 70.69 19.82 70.69 25.17 70.14 25.17 70.14 31.66 70.69 31.66 70.69 37.01 70.14 37.01 70.14 42.16 65.63 42.16 65.63 42.7 57.73 42.7 57.73 42.16 49.85 42.16 49.85 42.7 44.89 42.7 44.89 42.16 38.95 42.16 38.95 42.7 32.44 42.7 32.44 42.16 28.01 42.16 28.01 42.7 21.46 42.7 21.46 42.16 18.82 42.16 18.82 42.71 18.36 42.71 18.36 40.63 14.87 40.63 14.87 40.08 10.19 40.08 10.19 37.12 9.65 37.12 9.65 35.48 6.53 35.48 6.53 30.98 3.27 30.98 3.27 20.26 2.36 20.26"/><rect class="cls-5" x="9.77" y="27.38" width="53.87" height="2.06"/><line class="cls-5" x1="9.77" y1="28.41" x2="3.27" y2="28.41"/><polyline class="cls-5" points="18.49 29.44 18.49 40.63 18.36 40.63"/><line class="cls-5" x1="23.95" y1="29.44" x2="23.95" y2="42.7"/><polyline class="cls-5" points="29.47 29.44 29.47 32.68 36.38 32.68 36.38 29.44"/><polyline class="cls-5" points="36.44 42.7 36.44 32.68 36.38 32.68"/><line class="cls-5" x1="41.89" y1="42.16" x2="41.89" y2="29.44"/><line class="cls-5" x1="47.34" y1="42.7" x2="47.34" y2="29.44"/><line class="cls-5" x1="52.8" y1="42.16" x2="52.8" y2="30.53"/><polyline class="cls-5" points="52.75 29.52 52.75 30.53 55.4 30.53 55.4 29.44"/><polyline class="cls-5" points="58.56 29.44 58.56 35.91 61.65 35.91 61.65 29.44"/><line class="cls-5" x1="61.62" y1="42.7" x2="61.62" y2="35.91"/><line class="cls-5" x1="70.14" y1="28.41" x2="63.64" y2="28.41"/><polyline class="cls-5" points="61.62 27.38 61.62 14.67 61.48 14.67"/><line class="cls-5" x1="56.16" y1="27.38" x2="56.16" y2="14.13"/><line class="cls-5" x1="50.71" y1="27.38" x2="50.71" y2="14.67"/><line class="cls-5" x1="45.25" y1="27.38" x2="45.25" y2="14.13"/><line class="cls-5" x1="39.8" y1="27.38" x2="39.8" y2="14.67"/><line class="cls-5" x1="34.35" y1="27.38" x2="34.35" y2="14.13"/><line class="cls-5" x1="28.89" y1="27.38" x2="28.89" y2="14.67"/><line class="cls-5" x1="23.44" y1="27.38" x2="23.44" y2="14.13"/><polyline class="cls-5" points="11.76 27.27 11.76 20.91 14.85 20.91 14.85 27.38"/><polyline class="cls-5" points="17.72 27.38 17.72 26.3 14.85 26.3"/><line class="cls-5" x1="11.8" y1="20.91" x2="11.8" y2="14.13"/><polygon class="cls-5" points="80.56 13.5 85.7 13.5 85.7 12.96 91.05 12.96 91.05 13.5 97.55 13.5 97.55 12.96 102.87 12.96 102.87 13.5 108.04 13.5 108.04 18.01 108.59 18.01 108.59 25.84 108.04 25.84 108.04 29.43 108.59 29.43 108.59 33.43 108.04 33.43 108.04 36.27 108.59 36.27 108.59 41.33 108.04 41.33 108.04 44.09 110.84 44.09 110.84 44.7 108.04 44.7 108.04 47.47 108.59 47.47 108.59 50.16 102.54 50.16 102.54 50.96 102.54 50.98 106.36 61.45 105.84 61.64 107.33 65.73 107.82 65.55 107.96 65.94 106.28 66.55 107.45 69.74 106.93 69.93 108.48 74.2 104.46 75.66 104.65 76.18 96.28 79.23 95.78 77.85 92.44 79.07 93.07 80.79 84.96 83.74 84.33 82.02 80.99 83.23 81.62 84.95 73.51 87.9 72.89 86.19 69.56 87.4 70.96 91.23 66.38 92.9 65.76 91.21 62.44 92.42 63.06 94.12 57.2 96.26 57.01 95.75 52.77 97.29 51.38 93.47 50.87 93.65 49.43 89.69 51.7 88.87 50.28 84.98 52.25 84.27 49.36 76.31 49.87 76.12 48.11 71.29 52.22 69.79 52.03 69.28 59.28 66.64 59.47 67.15 63.05 65.85 62.86 65.34 69.21 63.03 69.4 63.54 74.98 61.51 74.79 61 79.46 59.3 79.65 59.81 85.23 57.78 85.04 57.26 86.99 56.56 86.99 50.16 80.01 50.16 80.01 47.47 80.56 47.47 80.56 44.7 78.17 44.7 78.17 44.09 80.56 44.09 80.56 41.33 80.01 41.33 80.01 36.27 80.56 36.27 80.56 30.33 80.01 30.33 80.01 25 80.56 25 80.56 22.16 80.01 22.16 80.01 18.01 80.56 18.01 80.56 13.5"/><polyline class="cls-5" points="94.69 67.86 92.3 61.28 89.59 62.27 91.98 68.85"/><polyline class="cls-5" points="89.98 62.13 89.98 61.03 91.9 61.03 92.03 61.38"/><polyline class="cls-5" points="92.3 61.28 92.25 61.14 93.27 60.77 93.27 47.21 93.02 47.07 92.66 46.86 92.66 41.92 93.27 41.57 93.27 20 95.33 20 95.33 62.32 97.96 69.5 96.29 70.12 96.08 69.55 57.07 83.74 56.37 81.81 94.69 67.86"/><polyline class="cls-5" points="93.27 57.98 92.13 57.98 92.13 61.03 91.9 61.03"/><polyline class="cls-5" points="93.27 21.98 92.19 21.98 92.19 24.71 93.27 24.71"/><polyline class="cls-5" points="95.33 26.86 98.49 26.86 98.49 33.31 95.33 33.31"/><polyline class="cls-5" points="95.72 63.38 98.69 62.3 100.91 68.4 97.95 69.48"/><polyline class="cls-5" points="60.35 80.36 58.11 74.21 61.08 73.14 63.31 79.28"/><polyline class="cls-5" points="66.03 78.29 65.66 77.27 62.94 78.26"/><line class="cls-5" x1="94.3" y1="20" x2="94.3" y2="13.5"/><line class="cls-5" x1="95.33" y1="22.03" x2="108.59" y2="22.03"/><polyline class="cls-5" points="108.04 33.43 108.04 33.3 98.49 33.3"/><line class="cls-5" x1="108.59" y1="38.76" x2="95.33" y2="38.76"/><line class="cls-5" x1="95.33" y1="44.4" x2="110.84" y2="44.4"/><line class="cls-5" x1="78.17" y1="44.4" x2="92.66" y2="44.4"/><polyline class="cls-5" points="95.33 57.72 101.04 57.72 104.53 56.44"/><polyline class="cls-5" points="106.28 66.55 106.24 66.43 100.9 68.4"/><polyline class="cls-5" points="62.44 92.42 62.32 92.46 58.9 83.08"/><polyline class="cls-5" points="52.25 84.27 52.3 84.39 56.72 82.78"/><line class="cls-5" x1="55.93" y1="67.86" x2="58.23" y2="74.17"/><line class="cls-5" x1="66.88" y1="63.88" x2="71.41" y2="76.33"/><line class="cls-5" x1="72.19" y1="62.52" x2="76.53" y2="74.47"/><line class="cls-5" x1="77.13" y1="60.15" x2="81.66" y2="72.6"/><line class="cls-5" x1="82.44" y1="58.79" x2="86.79" y2="70.74"/><polyline class="cls-5" points="86.99 56.56 87.12 56.56 87.12 57.46 90.03 57.46 90.03 61.03"/><line class="cls-5" x1="80.01" y1="38.76" x2="93.27" y2="38.76"/><line class="cls-5" x1="80.56" y1="33.3" x2="93.27" y2="33.3"/><line class="cls-5" x1="80.01" y1="27.85" x2="93.27" y2="27.85"/><polyline class="cls-5" points="80.56 22.16 80.56 22.03 92.19 22.03"/><polyline class="cls-5" points="72.89 86.19 72.98 86.15 70.35 78.91"/><polyline class="cls-5" points="84.33 82.02 84.43 81.98 81.79 74.75"/><polyline class="cls-5" points="95.78 77.85 95.88 77.82 93.24 70.58"/><g class="cls-2"><rect class="cls-5" x="-234.6" y="-437.86" width="450.14" height="582.54"/></g><g><path class="cls-10" d="M84.82,94.87v3.91h2.46v.5h-3.07v-4.41h.61Z"/><path class="cls-10" d="M91.02,99.28h-3.15v-4.41h3.08v.5h-2.49v1.39h1.98v.5h-1.98v1.52h2.56v.5Z"/><path class="cls-10" d="M93.09,99.28l-1.77-4.41h.62l1.49,3.71h.03l1.45-3.71h.62l-1.78,4.41h-.66Z"/><path class="cls-10" d="M99.18,99.28h-3.15v-4.41h3.08v.5h-2.49v1.39h1.98v.5h-1.98v1.52h2.56v.5Z"/><path class="cls-10" d="M100.48,94.87v3.91h2.46v.5h-3.07v-4.41h.61Z"/><path class="cls-10" d="M107.57,95.42h-2.12c0,.24-.11,1.14-.16,1.37,.2-.25,.56-.45,1.05-.45,1,0,1.52,.67,1.52,1.48,0,.92-.64,1.55-1.6,1.55-1.06,0-1.67-.67-1.62-1.65l.59,.05c0,.67,.36,1.11,1.05,1.11,.62,0,1-.41,1-1.06,0-.58-.38-1.01-1-1.01-.49,0-.81,.26-.97,.56l-.6-.04c.11-.61,.26-1.74,.28-2.46h2.58v.55Z"/></g><g class="cls-1"><rect class="cls-7" x="-517.48" y="-641.98" width="678.3" height="877.8"/></g><g><path class="cls-10" d="M4.79,4h.02l.65-2.62h.41l-.81,3.15h-.5l-.66-2.52h-.02l-.67,2.52h-.5L1.9,1.38h.42l.66,2.61h.02l.69-2.61h.41l.7,2.62Z"/><path class="cls-10" d="M8.47,4.53h-2.25V1.38h2.2v.36h-1.78v.99h1.42v.36h-1.42v1.09h1.83v.36Z"/><path class="cls-10" d="M9.12,3.38c.02,.58,.42,.87,.95,.87,.47,0,.77-.2,.77-.55,0-.29-.19-.43-.6-.51l-.62-.12c-.47-.09-.79-.34-.79-.83,0-.55,.44-.93,1.13-.93,.79,0,1.25,.42,1.25,1.13l-.4,.02c-.02-.52-.33-.82-.85-.82-.46,0-.71,.21-.71,.57,0,.31,.21,.41,.57,.48l.57,.11c.58,.11,.87,.36,.87,.87,0,.58-.5,.92-1.18,.92-.78,0-1.34-.42-1.34-1.19l.39-.03Z"/><path class="cls-10" d="M12.51,4.53V1.74h-1.15v-.36h2.74v.36h-1.17v2.79h-.43Z"/><path class="cls-10" d="M16.75,4.53h-1.34V1.38h1.29c.78,0,1.1,.34,1.1,.84,0,.37-.26,.62-.6,.68,.39,.07,.69,.32,.69,.77,0,.55-.4,.87-1.14,.87Zm-.92-1.79h.88c.46,0,.65-.2,.65-.5s-.19-.51-.65-.51h-.88v1.01Zm0,.34v1.1h.91c.47,0,.72-.21,.72-.55s-.25-.55-.72-.55h-.91Z"/><path class="cls-10" d="M18.33,3.33V1.38h.43v1.95c0,.6,.3,.9,.85,.9s.86-.29,.86-.89V1.38h.42v1.95c0,.92-.57,1.27-1.28,1.27s-1.28-.34-1.28-1.27Z"/><path class="cls-10" d="M21.88,1.38v3.15h-.43V1.38h.43Z"/><path class="cls-10" d="M22.93,1.38v2.79h1.76v.36h-2.19V1.38h.43Z"/><path class="cls-10" d="M25.11,1.38h1.14c.99,0,1.62,.59,1.62,1.58s-.63,1.58-1.62,1.58h-1.14V1.38Zm1.12,2.8c.77,0,1.19-.46,1.19-1.22s-.42-1.22-1.19-1.22h-.68v2.44h.68Z"/><path class="cls-10" d="M28.76,1.38v3.15h-.44V1.38h.44Z"/><path class="cls-10" d="M31.55,3.79V1.38h.41v3.15h-.35l-1.83-2.53v2.53h-.41V1.38h.45l1.73,2.41Z"/><path class="cls-10" d="M32.42,2.96c0-.97,.67-1.64,1.54-1.64s1.41,.5,1.46,1.3l-.42,.03c-.04-.58-.41-.96-1.04-.96s-1.1,.49-1.1,1.27,.46,1.27,1.14,1.27c.59,0,.97-.37,1.03-.91h-.96v-.34h1.36v1.56h-.4v-.56c-.14,.4-.58,.62-1.08,.62-.89,0-1.54-.66-1.54-1.64Z"/></g><g><path class="cls-10" d="M77.63,4.53h-2.25V1.38h2.2v.36h-1.78v.99h1.42v.36h-1.42v1.09h1.83v.36Z"/><path class="cls-10" d="M79.64,1.38l1.31,3.15h-.46l-.38-.93h-1.44l-.37,.93h-.42l1.29-3.15h.48Zm-.83,1.88h1.16l-.58-1.4h-.02l-.57,1.4Z"/><path class="cls-10" d="M81.48,3.38c.02,.58,.42,.87,.95,.87,.47,0,.77-.2,.77-.55,0-.29-.19-.43-.6-.51l-.62-.12c-.47-.09-.79-.34-.79-.83,0-.55,.44-.93,1.13-.93,.79,0,1.25,.42,1.25,1.13l-.4,.02c-.02-.52-.33-.82-.85-.82-.46,0-.71,.21-.71,.57,0,.31,.21,.41,.57,.48l.57,.11c.58,.11,.87,.36,.87,.87,0,.58-.5,.92-1.18,.92-.78,0-1.34-.42-1.34-1.19l.39-.03Z"/><path class="cls-10" d="M84.87,4.53V1.74h-1.15v-.36h2.74v.36h-1.17v2.79h-.43Z"/><path class="cls-10" d="M89.11,4.53h-1.34V1.38h1.29c.78,0,1.1,.34,1.1,.84,0,.37-.26,.62-.6,.68,.39,.07,.69,.32,.69,.77,0,.55-.4,.87-1.14,.87Zm-.92-1.79h.88c.46,0,.65-.2,.65-.5s-.2-.51-.65-.51h-.88v1.01Zm0,.34v1.1h.91c.47,0,.72-.21,.72-.55s-.25-.55-.72-.55h-.91Z"/><path class="cls-10" d="M90.69,3.33V1.38h.43v1.95c0,.6,.3,.9,.85,.9s.86-.29,.86-.89V1.38h.43v1.95c0,.92-.57,1.27-1.28,1.27s-1.28-.34-1.28-1.27Z"/><path class="cls-10" d="M94.24,1.38v3.15h-.44V1.38h.44Z"/><path class="cls-10" d="M95.29,1.38v2.79h1.76v.36h-2.19V1.38h.44Z"/><path class="cls-10" d="M97.47,1.38h1.14c.99,0,1.62,.59,1.62,1.58s-.62,1.58-1.62,1.58h-1.14V1.38Zm1.12,2.8c.77,0,1.19-.46,1.19-1.22s-.42-1.22-1.19-1.22h-.68v2.44h.68Z"/><path class="cls-10" d="M101.12,1.38v3.15h-.43V1.38h.43Z"/><path class="cls-10" d="M103.91,3.79V1.38h.41v3.15h-.34l-1.83-2.53v2.53h-.41V1.38h.45l1.73,2.41Z"/><path class="cls-10" d="M104.78,2.96c0-.97,.67-1.64,1.54-1.64s1.41,.5,1.46,1.3l-.42,.03c-.04-.58-.41-.96-1.04-.96s-1.1,.49-1.1,1.27,.46,1.27,1.14,1.27c.59,0,.97-.37,1.03-.91h-.96v-.34h1.36v1.56h-.4v-.56c-.14,.4-.58,.62-1.08,.62-.89,0-1.54-.66-1.54-1.64Z"/></g></g></g></g></svg>