<?xml version="1.0" encoding="UTF-8"?><svg id="Layer_1" xmlns="http://www.w3.org/2000/svg" xmlns:xlink="http://www.w3.org/1999/xlink" viewBox="0 0 111.52 100.9"><defs><style>.cls-1{stroke:#ebebec;}.cls-1,.cls-2{stroke-width:.31px;}.cls-1,.cls-2,.cls-3,.cls-4{fill:none;}.cls-1,.cls-2,.cls-4{stroke-linecap:round;stroke-linejoin:round;}.cls-5{clip-path:url(#clippath-21);}.cls-2,.cls-4{stroke:#000;}.cls-6{fill:#f1b784;fill-rule:evenodd;}.cls-7{clip-path:url(#clippath);}.cls-8{clip-path:url(#clippath-3);}.cls-9{fill:#333132;}.cls-4{stroke-width:.47px;}</style><clipPath id="clippath"><rect class="cls-3" x="-483.07" y="-648.47" width="612" height="792"/></clipPath><clipPath id="clippath-3"><rect class="cls-3" x="-5.27" y="4.53" width="126" height="97.8"/></clipPath><clipPath id="clippath-21"><rect class="cls-3" x="-483.07" y="-541.37" width="608.94" height="547.8"/></clipPath></defs><g class="cls-7"><polygon class="cls-6" points="92.95 25.06 91.87 25.06 91.87 22.38 80.24 22.38 80.24 22.51 80.24 25.35 79.7 25.35 79.7 28.2 92.95 28.2 92.95 25.06"/><polygon class="cls-1" points="92.95 25.06 91.87 25.06 91.87 22.38 80.24 22.38 80.24 22.51 80.24 25.35 79.7 25.35 79.7 28.2 92.95 28.2 92.95 25.06"/><line class="cls-2" x1="32.61" y1="33.03" x2="32.61" y2="29.8"/><polyline class="cls-2" points="36.07 33.03 32.61 29.8 29.15 33.03"/><polyline class="cls-2" points="36.07 29.8 32.61 33.04 29.15 29.8"/><line class="cls-2" x1="90.47" y1="65.91" x2="93.18" y2="64.92"/><polyline class="cls-2" points="91.67 69.2 93.18 64.92 89.27 62.62"/><polyline class="cls-2" points="94.38 68.21 90.47 65.91 91.98 61.63"/><polyline class="cls-2" points="2.04 20.45 .89 20.45 .89 12.9 7.74 12.9 7.74 14.48"/><polyline class="cls-2" points="14.76 14.48 14.76 12.9 19.13 12.9 19.13 14.48"/><polyline class="cls-2" points="25.33 14.48 25.33 12.9 31.82 12.9 31.82 14.48"/><line class="cls-2" x1="28.58" y1="12.9" x2="28.58" y2="15.03"/><polyline class="cls-2" points="70.37 37.08 71.89 37.08 71.89 44.64 65.04 44.64 65.04 43.05"/><polyline class="cls-2" points="57.7 43.05 57.7 44.64 49.25 44.64 49.25 43.05"/><line class="cls-2" x1="52.48" y1="42.51" x2="52.48" y2="44.64"/><polyline class="cls-2" points="44.82 43.05 44.82 44.64 38.33 44.64 38.33 43.05"/><line class="cls-2" x1="41.57" y1="42.51" x2="41.57" y2="44.64"/><polyline class="cls-2" points="32.4 43.05 32.4 44.64 27.41 44.64 27.41 43.05"/><polyline class="cls-2" points="21.42 43.05 21.42 44.64 18.1 44.64 18.1 43.06"/><polyline class="cls-2" points="14.84 40.98 14.84 42.56 11.34 42.56 11.34 40.43"/><polyline class="cls-2" points="14.53 26.11 12.99 26.11 12.99 21.26"/><line class="cls-2" x1="12.99" y1="25.76" x2="11.44" y2="25.76"/><line class="cls-2" x1="11.44" y1="24.12" x2="12.99" y2="23.4"/><polyline class="cls-2" points="61.34 31.63 59.79 31.63 59.79 36.26"/><line class="cls-2" x1="58.25" y1="34.39" x2="59.79" y2="33.67"/><line class="cls-2" x1="58.25" y1="32.03" x2="59.79" y2="32.03"/><polyline class="cls-2" points="57.14 96.51 57.45 97.36 50.95 99.73 48.97 94.28 50.46 93.74"/><polyline class="cls-2" points="49.13 76.92 47.59 77.48 45.01 70.39 51.44 68.05 51.98 69.53"/><polyline class="cls-2" points="58.73 67.08 58.19 65.59 62.3 64.09 62.84 65.58"/><polyline class="cls-2" points="68.63 63.47 68.09 61.99 74.2 59.76 74.74 61.25"/><line class="cls-2" x1="71.14" y1="60.87" x2="71.87" y2="62.87"/><polyline class="cls-2" points="78.88 59.74 78.34 58.26 84.45 56.03 84.99 57.52"/><line class="cls-2" x1="81.39" y1="57.14" x2="82.12" y2="59.14"/><polyline class="cls-2" points="79.7 48.1 78.11 48.1 78.11 45.05"/><polyline class="cls-2" points="79.7 41.4 78.11 41.4 78.11 44.44"/><polyline class="cls-2" points="79.7 36.9 78.11 36.9 78.11 30.41 79.7 30.41"/><line class="cls-2" x1="78.11" y1="33.66" x2="80.24" y2="33.66"/><polyline class="cls-2" points="108.27 25.91 109.85 25.91 109.85 30.06 108.27 30.06"/><polyline class="cls-2" points="108.27 33.5 109.85 33.5 109.85 36.91 108.27 36.91"/><polyline class="cls-2" points="108.27 41.4 109.85 41.4 109.85 44.44"/><polyline class="cls-2" points="109.85 45.05 109.85 48.1 108.27 48.1"/><polyline class="cls-2" points="105.94 61.54 107.43 61 109.15 65.71 107.63 66.27"/><polyline class="cls-2" points="107.04 69.86 108.56 69.31 110.94 75.85 104.65 78.13 104.1 76.62"/><polyline class="cls-2" points="66.3 93.17 66.61 94.02 62.79 95.42 62.48 94.57"/><line class="cls-2" x1="95.01" y1="44.75" x2="92.35" y2="44.75"/><line class="cls-2" x1="97.55" y1="65.01" x2="96.07" y2="65.55"/><polyline class="cls-2" points="98.97 64.31 97.49 64.85 98.46 67.51 96.99 68.05"/><line class="cls-2" x1="98.4" y1="67.35" x2="99.88" y2="66.81"/><polyline class="cls-2" points="60.82 74.05 59.47 74.54 60.95 78.62 62.43 78.08"/><line class="cls-2" x1="59.35" y1="78.84" x2="60.83" y2="78.3"/><line class="cls-2" x1="60.03" y1="76.09" x2="58.8" y2="77.32"/><polyline class="cls-2" points="98.17 32.05 96.6 32.05 96.6 29.05 95.01 29.05"/><line class="cls-2" x1="98.17" y1="29.39" x2="96.6" y2="29.39"/><line class="cls-2" x1="95.01" y1="31.72" x2="96.6" y2="31.72"/><line class="cls-2" x1="39.48" y1="15.02" x2="39.48" y2="12.9"/><polyline class="cls-2" points="92.74 81.11 96.32 79.81 96.2 79.5"/><line class="cls-2" x1="81.29" y1="85.28" x2="84.63" y2="84.07"/><polyline class="cls-2" points="73.43 88.17 73.63 88.7 70.06 89.99"/><polyline class="cls-2" points="102.3 13.31 102.3 11.73 109.85 11.73 109.85 18.64 108.27 18.64"/><polyline class="cls-2" points="79.7 18.64 78.11 18.64 78.11 11.73 85.67 11.73 85.67 13.31"/><polyline class="cls-2" points="79.7 22.23 78.11 22.23 78.11 25.63 79.7 25.63"/><polyline class="cls-2" points="36.23 14.48 36.23 12.9 42.73 12.9 42.73 14.48"/><line class="cls-2" x1="50.39" y1="15.02" x2="50.39" y2="12.9"/><polyline class="cls-2" points="47.14 14.48 47.14 12.9 53.64 12.9 53.64 14.48"/><polyline class="cls-2" points="58.02 14.48 58.02 12.9 61.45 12.9 61.45 14.48"/><polyline class="cls-2" points="65.04 14.48 65.04 12.9 71.89 12.9 71.89 20.45 70.37 20.45"/><polygon class="cls-2" points="2.04 20.62 2.04 20.15 2.59 20.15 2.59 15.02 7.46 15.02 7.46 14.48 15.04 14.48 15.04 15.02 18.85 15.02 18.85 14.48 25.58 14.48 25.58 15.02 31.51 15.02 31.51 14.48 36.49 14.48 36.49 15.02 42.42 15.02 42.42 14.48 47.39 14.48 47.39 15.02 53.33 15.02 53.33 14.48 58.3 14.48 58.3 15.02 61.17 15.02 61.17 14.48 65.32 14.48 65.32 15.02 69.83 15.02 69.83 20.17 70.37 20.17 70.37 25.52 69.83 25.52 69.83 32.01 70.37 32.01 70.37 37.36 69.83 37.36 69.83 42.51 65.32 42.51 65.32 43.05 57.42 43.05 57.42 42.51 49.53 42.51 49.53 43.05 44.57 43.05 44.57 42.51 38.64 42.51 38.64 43.05 32.12 43.05 32.12 42.51 27.69 42.51 27.69 43.05 21.14 43.05 21.14 42.51 18.51 42.51 18.51 43.06 18.05 43.06 18.05 40.98 14.56 40.98 14.56 40.43 9.88 40.43 9.88 37.47 9.33 37.47 9.33 35.83 6.22 35.83 6.22 31.33 2.95 31.33 2.95 20.62 2.04 20.62"/><rect class="cls-2" x="9.46" y="27.74" width="53.87" height="2.06"/><line class="cls-2" x1="9.46" y1="28.77" x2="2.95" y2="28.77"/><polyline class="cls-2" points="18.17 29.8 18.17 40.98 18.05 40.98"/><line class="cls-2" x1="23.63" y1="29.8" x2="23.63" y2="43.05"/><polyline class="cls-2" points="29.15 29.8 29.15 33.04 36.07 33.04 36.07 29.8"/><polyline class="cls-2" points="36.12 43.05 36.12 33.03 36.07 33.03"/><line class="cls-2" x1="41.57" y1="42.51" x2="41.57" y2="29.8"/><line class="cls-2" x1="47.03" y1="43.05" x2="47.03" y2="29.8"/><line class="cls-2" x1="52.48" y1="42.51" x2="52.48" y2="30.88"/><polyline class="cls-2" points="52.43 29.88 52.43 30.88 55.09 30.88 55.09 29.8"/><polyline class="cls-2" points="58.25 29.8 58.25 36.26 61.34 36.26 61.34 29.8"/><line class="cls-2" x1="61.3" y1="43.05" x2="61.3" y2="36.26"/><line class="cls-2" x1="69.83" y1="28.77" x2="63.33" y2="28.77"/><polyline class="cls-2" points="61.3 27.74 61.3 15.02 61.17 15.02"/><line class="cls-2" x1="55.85" y1="27.74" x2="55.85" y2="14.48"/><line class="cls-2" x1="50.39" y1="27.74" x2="50.39" y2="15.02"/><line class="cls-2" x1="44.94" y1="27.74" x2="44.94" y2="14.48"/><line class="cls-2" x1="39.48" y1="27.74" x2="39.48" y2="15.02"/><line class="cls-2" x1="34.03" y1="27.74" x2="34.03" y2="14.48"/><line class="cls-2" x1="28.58" y1="27.74" x2="28.58" y2="15.02"/><line class="cls-2" x1="23.12" y1="27.74" x2="23.12" y2="14.48"/><polyline class="cls-2" points="11.44 27.63 11.44 21.26 14.53 21.26 14.53 27.74"/><polyline class="cls-2" points="17.41 27.74 17.41 26.65 14.53 26.65"/><line class="cls-2" x1="11.48" y1="21.26" x2="11.48" y2="14.48"/><polygon class="cls-2" points="80.24 13.85 85.38 13.85 85.38 13.31 90.74 13.31 90.74 13.85 97.23 13.85 97.23 13.31 102.55 13.31 102.55 13.85 107.72 13.85 107.72 18.36 108.27 18.36 108.27 26.19 107.72 26.19 107.72 29.78 108.27 29.78 108.27 33.78 107.72 33.78 107.72 36.63 108.27 36.63 108.27 41.68 107.72 41.68 107.72 44.44 110.52 44.44 110.52 45.05 107.72 45.05 107.72 47.82 108.27 47.82 108.27 50.51 102.22 50.51 102.22 51.32 102.23 51.33 106.04 61.8 105.53 61.99 107.02 66.08 107.5 65.91 107.64 66.29 105.97 66.9 107.13 70.1 106.61 70.29 108.16 74.55 104.15 76.01 104.34 76.54 95.96 79.58 95.46 78.21 92.12 79.42 92.75 81.14 84.64 84.09 84.02 82.37 80.68 83.59 81.3 85.31 73.2 88.26 72.57 86.54 69.24 87.75 70.64 91.59 66.06 93.25 65.44 91.56 62.12 92.77 62.74 94.48 56.88 96.61 56.69 96.1 52.46 97.64 51.06 93.82 50.55 94 49.11 90.05 51.38 89.22 49.96 85.34 51.94 84.62 49.04 76.66 49.55 76.47 47.79 71.64 51.9 70.14 51.72 69.63 58.97 66.99 59.15 67.5 62.73 66.2 62.55 65.69 68.89 63.38 69.08 63.89 74.66 61.86 74.47 61.35 79.14 59.65 79.33 60.16 84.91 58.13 84.72 57.62 86.67 56.91 86.67 50.51 79.7 50.51 79.7 47.82 80.24 47.82 80.24 45.05 77.85 45.05 77.85 44.44 80.24 44.44 80.24 41.68 79.7 41.68 79.7 36.63 80.24 36.63 80.24 30.69 79.7 30.69 79.7 25.35 80.24 25.35 80.24 22.51 79.7 22.51 79.7 18.36 80.24 18.36 80.24 13.85"/><polyline class="cls-2" points="94.38 68.21 91.98 61.63 89.27 62.62 91.67 69.2"/><polyline class="cls-2" points="89.66 62.48 89.66 61.38 91.59 61.38 91.71 61.73"/><polyline class="cls-2" points="91.98 61.63 91.93 61.49 92.95 61.12 92.95 47.56 92.7 47.42 92.35 47.21 92.35 42.27 92.95 41.92 92.95 20.35 95.01 20.35 95.01 62.67 97.65 69.85 95.98 70.47 95.77 69.9 56.76 84.1 56.05 82.16 94.38 68.21"/><polyline class="cls-2" points="92.95 58.33 91.81 58.33 91.81 61.38 91.59 61.38"/><polyline class="cls-2" points="92.95 22.33 91.87 22.33 91.87 25.06 92.95 25.06"/><polyline class="cls-2" points="95.01 27.21 98.17 27.21 98.17 33.66 95.01 33.66"/><polyline class="cls-2" points="95.4 63.73 98.37 62.65 100.59 68.75 97.64 69.83"/><polyline class="cls-2" points="60.03 80.71 57.8 74.57 60.76 73.49 63 79.63"/><polyline class="cls-2" points="65.71 78.64 65.34 77.62 62.63 78.61"/><line class="cls-2" x1="93.98" y1="20.35" x2="93.98" y2="13.85"/><line class="cls-2" x1="95.01" y1="22.38" x2="108.27" y2="22.38"/><polyline class="cls-2" points="107.72 33.78 107.72 33.66 98.17 33.66"/><line class="cls-2" x1="108.27" y1="39.11" x2="95.01" y2="39.11"/><line class="cls-2" x1="95.01" y1="44.75" x2="110.52" y2="44.75"/><line class="cls-2" x1="77.85" y1="44.75" x2="92.35" y2="44.75"/><polyline class="cls-2" points="95.01 58.07 100.72 58.07 104.22 56.79"/><polyline class="cls-2" points="105.97 66.9 105.92 66.78 100.59 68.75"/><polyline class="cls-2" points="62.12 92.77 62 92.81 58.58 83.43"/><polyline class="cls-2" points="51.94 84.62 51.98 84.74 56.4 83.13"/><line class="cls-2" x1="55.62" y1="68.21" x2="57.91" y2="74.52"/><line class="cls-2" x1="66.56" y1="64.23" x2="71.09" y2="76.68"/><line class="cls-2" x1="71.87" y1="62.88" x2="76.22" y2="74.82"/><line class="cls-2" x1="76.81" y1="60.5" x2="81.34" y2="72.95"/><line class="cls-2" x1="82.12" y1="59.14" x2="86.47" y2="71.09"/><polyline class="cls-2" points="86.67 56.91 86.8 56.91 86.8 57.81 89.72 57.81 89.72 61.38"/><line class="cls-2" x1="79.7" y1="39.11" x2="92.95" y2="39.11"/><line class="cls-2" x1="80.24" y1="33.66" x2="92.95" y2="33.66"/><line class="cls-2" x1="79.7" y1="28.2" x2="92.95" y2="28.2"/><polyline class="cls-2" points="80.24 22.51 80.24 22.38 91.87 22.38"/><polyline class="cls-2" points="72.57 86.54 72.67 86.5 70.03 79.26"/><polyline class="cls-2" points="84.02 82.37 84.11 82.34 81.48 75.1"/><polyline class="cls-2" points="95.46 78.21 95.56 78.17 92.92 70.93"/><g class="cls-8"><rect class="cls-2" x="-234.92" y="-437.51" width="450.14" height="582.54"/></g><g><path class="cls-9" d="M87.7,94.82v3.91h2.46v.5h-3.07v-4.41h.61Z"/><path class="cls-9" d="M93.9,99.23h-3.15v-4.41h3.08v.5h-2.49v1.39h1.98v.5h-1.98v1.52h2.56v.5Z"/><path class="cls-9" d="M95.98,99.23l-1.77-4.41h.62l1.49,3.71h.03l1.45-3.71h.62l-1.78,4.41h-.66Z"/><path class="cls-9" d="M102.07,99.23h-3.15v-4.41h3.08v.5h-2.49v1.39h1.98v.5h-1.98v1.52h2.56v.5Z"/><path class="cls-9" d="M103.37,94.82v3.91h2.46v.5h-3.07v-4.41h.61Z"/><path class="cls-9" d="M110.45,95.37h-2.12c0,.24-.11,1.14-.16,1.37,.2-.25,.56-.45,1.05-.45,1,0,1.52,.67,1.52,1.48,0,.92-.64,1.55-1.6,1.55-1.06,0-1.67-.67-1.62-1.65l.59,.05c0,.67,.36,1.11,1.05,1.11,.62,0,1-.41,1-1.06,0-.58-.38-1.01-1-1.01-.49,0-.81,.26-.97,.56l-.6-.04c.11-.61,.26-1.74,.28-2.46h2.58v.55Z"/></g><g class="cls-5"><rect class="cls-4" x="-512.78" y="-648.71" width="678.3" height="877.8"/></g><g><path class="cls-9" d="M7.58,3.95h.02l.65-2.62h.41l-.81,3.15h-.5l-.66-2.52h-.02l-.67,2.52h-.5l-.81-3.15h.42l.66,2.61h.02l.69-2.61h.41l.7,2.62Z"/><path class="cls-9" d="M11.26,4.48h-2.25V1.33h2.2v.36h-1.78v.99h1.42v.36h-1.42v1.09h1.83v.36Z"/><path class="cls-9" d="M11.9,3.33c.02,.58,.42,.87,.95,.87,.47,0,.77-.2,.77-.55,0-.29-.19-.43-.6-.51l-.62-.12c-.47-.09-.79-.34-.79-.83,0-.55,.44-.93,1.13-.93,.79,0,1.25,.42,1.25,1.13l-.4,.02c-.02-.52-.33-.82-.85-.82-.46,0-.71,.21-.71,.57,0,.31,.21,.41,.57,.48l.57,.11c.58,.11,.87,.36,.87,.87,0,.58-.5,.92-1.18,.92-.78,0-1.34-.42-1.34-1.19l.39-.03Z"/><path class="cls-9" d="M15.29,4.48V1.69h-1.15v-.36h2.74v.36h-1.17v2.79h-.43Z"/><path class="cls-9" d="M19.54,4.48h-1.34V1.33h1.29c.78,0,1.1,.34,1.1,.84,0,.37-.26,.62-.6,.68,.39,.07,.69,.32,.69,.77,0,.55-.4,.87-1.14,.87Zm-.92-1.79h.88c.46,0,.65-.2,.65-.5s-.19-.51-.65-.51h-.88v1.01Zm0,.34v1.1h.91c.47,0,.72-.21,.72-.55s-.25-.55-.72-.55h-.91Z"/><path class="cls-9" d="M21.11,3.28V1.33h.43v1.95c0,.6,.3,.9,.85,.9s.86-.29,.86-.89V1.33h.42v1.95c0,.92-.57,1.27-1.28,1.27s-1.28-.34-1.28-1.27Z"/><path class="cls-9" d="M24.67,1.33v3.15h-.43V1.33h.43Z"/><path class="cls-9" d="M25.71,1.33v2.79h1.76v.36h-2.19V1.33h.43Z"/><path class="cls-9" d="M27.9,1.33h1.14c.99,0,1.62,.59,1.62,1.58s-.63,1.58-1.62,1.58h-1.14V1.33Zm1.12,2.8c.77,0,1.19-.46,1.19-1.22s-.42-1.22-1.19-1.22h-.68v2.44h.68Z"/><path class="cls-9" d="M31.55,1.33v3.15h-.44V1.33h.44Z"/><path class="cls-9" d="M34.33,3.74V1.33h.41v3.15h-.35l-1.83-2.53v2.53h-.41V1.33h.45l1.73,2.41Z"/><path class="cls-9" d="M35.2,2.91c0-.97,.67-1.64,1.54-1.64s1.41,.5,1.46,1.3l-.42,.03c-.04-.58-.41-.96-1.04-.96s-1.1,.49-1.1,1.27,.46,1.27,1.14,1.27c.59,0,.97-.37,1.03-.91h-.96v-.34h1.36v1.56h-.4v-.56c-.14,.4-.58,.62-1.08,.62-.89,0-1.54-.66-1.54-1.64Z"/></g><g><path class="cls-9" d="M80.41,4.48h-2.25V1.33h2.2v.36h-1.78v.99h1.42v.36h-1.42v1.09h1.83v.36Z"/><path class="cls-9" d="M82.42,1.33l1.31,3.15h-.46l-.38-.93h-1.44l-.37,.93h-.42l1.29-3.15h.48Zm-.83,1.88h1.16l-.58-1.4h-.02l-.57,1.4Z"/><path class="cls-9" d="M84.26,3.33c.02,.58,.42,.87,.95,.87,.47,0,.77-.2,.77-.55,0-.29-.19-.43-.6-.51l-.62-.12c-.47-.09-.79-.34-.79-.83,0-.55,.44-.93,1.13-.93,.79,0,1.25,.42,1.25,1.13l-.4,.02c-.02-.52-.33-.82-.85-.82-.46,0-.71,.21-.71,.57,0,.31,.21,.41,.57,.48l.57,.11c.58,.11,.87,.36,.87,.87,0,.58-.5,.92-1.18,.92-.78,0-1.34-.42-1.34-1.19l.39-.03Z"/><path class="cls-9" d="M87.65,4.48V1.69h-1.15v-.36h2.74v.36h-1.17v2.79h-.43Z"/><path class="cls-9" d="M91.9,4.48h-1.34V1.33h1.29c.78,0,1.1,.34,1.1,.84,0,.37-.26,.62-.6,.68,.39,.07,.69,.32,.69,.77,0,.55-.4,.87-1.14,.87Zm-.92-1.79h.88c.46,0,.65-.2,.65-.5s-.2-.51-.65-.51h-.88v1.01Zm0,.34v1.1h.91c.47,0,.72-.21,.72-.55s-.25-.55-.72-.55h-.91Z"/><path class="cls-9" d="M93.47,3.28V1.33h.43v1.95c0,.6,.3,.9,.85,.9s.86-.29,.86-.89V1.33h.43v1.95c0,.92-.57,1.27-1.28,1.27s-1.28-.34-1.28-1.27Z"/><path class="cls-9" d="M97.03,1.33v3.15h-.44V1.33h.44Z"/><path class="cls-9" d="M98.07,1.33v2.79h1.76v.36h-2.19V1.33h.44Z"/><path class="cls-9" d="M100.26,1.33h1.14c.99,0,1.62,.59,1.62,1.58s-.62,1.58-1.62,1.58h-1.14V1.33Zm1.12,2.8c.77,0,1.19-.46,1.19-1.22s-.42-1.22-1.19-1.22h-.68v2.44h.68Z"/><path class="cls-9" d="M103.91,1.33v3.15h-.43V1.33h.43Z"/><path class="cls-9" d="M106.69,3.74V1.33h.41v3.15h-.34l-1.83-2.53v2.53h-.41V1.33h.45l1.73,2.41Z"/><path class="cls-9" d="M107.56,2.91c0-.97,.67-1.64,1.54-1.64s1.41,.5,1.46,1.3l-.42,.03c-.04-.58-.41-.96-1.04-.96s-1.1,.49-1.1,1.27,.46,1.27,1.14,1.27c.59,0,.97-.37,1.03-.91h-.96v-.34h1.36v1.56h-.4v-.56c-.14,.4-.58,.62-1.08,.62-.89,0-1.54-.66-1.54-1.64Z"/></g></g></svg>