<?xml version="1.0" encoding="UTF-8"?><svg id="Layer_1" xmlns="http://www.w3.org/2000/svg" xmlns:xlink="http://www.w3.org/1999/xlink" viewBox="0 0 110.81 102.81"><defs><style>.cls-1{clip-path:url(#clippath-2);}.cls-2{stroke:#ebebec;}.cls-2,.cls-3,.cls-4{stroke-width:.31px;}.cls-2,.cls-3,.cls-4,.cls-5,.cls-6{fill:none;}.cls-2,.cls-3,.cls-4,.cls-6{stroke-linecap:round;stroke-linejoin:round;}.cls-3,.cls-4,.cls-6{stroke:#000;}.cls-7{fill:#f1b784;fill-rule:evenodd;}.cls-4{stroke-dasharray:0 0 3.94 1.97;}.cls-8{clip-path:url(#clippath);}.cls-9{clip-path:url(#clippath-5);}.cls-10{fill:#333132;}.cls-6{stroke-width:.47px;}</style><clipPath id="clippath"><rect class="cls-5" x="-484.51" y="-648.78" width="612" height="792"/></clipPath><clipPath id="clippath-2"><rect class="cls-5" x="-11.63" y=".42" width="130.8" height="111.6"/></clipPath><clipPath id="clippath-5"><rect class="cls-5" x="-462.73" y="-574.26" width="444.84" height="657.36"/></clipPath></defs><g class="cls-8"><polygon class="cls-7" points="88.32 63.29 88.71 63.15 88.71 62.05 88.77 62.05 88.77 58.49 85.85 58.49 85.85 57.58 85.72 57.58 85.72 58.16 81.17 59.82 85.52 71.76 90.72 69.87 88.32 63.29"/><polygon class="cls-2" points="88.32 63.29 88.71 63.15 88.71 62.05 88.77 62.05 88.77 58.49 85.85 58.49 85.85 57.58 85.72 57.58 85.72 58.16 81.17 59.82 85.52 71.76 90.72 69.87 88.32 63.29"/><line class="cls-3" x1="31.66" y1="33.71" x2="31.66" y2="30.47"/><polyline class="cls-3" points="35.12 33.71 31.66 30.47 28.2 33.71"/><polyline class="cls-3" points="35.12 30.47 31.66 33.71 28.2 30.47"/><line class="cls-3" x1="89.52" y1="66.58" x2="92.23" y2="65.6"/><polyline class="cls-3" points="90.72 69.87 92.23 65.6 88.32 63.29"/><polyline class="cls-3" points="93.43 68.89 89.52 66.58 91.03 62.31"/><line class="cls-4" x1="96.27" y1="70.68" x2="107.29" y2="75.26"/><line class="cls-4" x1="104.52" y1="67.65" x2="99.21" y2="78.73"/><line class="cls-3" x1="75.46" y1="15.59" x2="71.46" y2="18.97"/><line class="cls-3" x1="75.46" y1="18.97" x2="71.46" y2="15.59"/><line class="cls-3" x1="51.53" y1="43.18" x2="51.53" y2="46.78"/><line class="cls-3" x1="40.62" y1="43.18" x2="40.62" y2="46.78"/><line class="cls-3" x1="12.04" y1="26.44" x2="10.49" y2="26.44"/><line class="cls-3" x1="12.04" y1="23.48" x2="13.58" y2="22.76"/><line class="cls-3" x1="69.68" y1="60.15" x2="70.92" y2="63.55"/><line class="cls-3" x1="79.93" y1="56.42" x2="81.17" y2="59.82"/><line class="cls-3" x1="77.16" y1="34.33" x2="79.29" y2="34.33"/><polyline class="cls-3" points="104.99 62.21 106.48 61.67 108.51 67.24 104.85 68.57"/><line class="cls-3" x1="94.06" y1="45.42" x2="91.4" y2="45.42"/><line class="cls-3" x1="96.6" y1="65.68" x2="95.12" y2="66.22"/><polyline class="cls-3" points="98.02 64.98 96.54 65.52 97.51 68.19 96.04 68.73"/><line class="cls-3" x1="97.45" y1="68.03" x2="98.93" y2="67.49"/><polyline class="cls-3" points="59.86 74.73 58.52 75.22 60 79.29 61.48 78.75"/><line class="cls-3" x1="58.4" y1="79.52" x2="59.88" y2="78.98"/><line class="cls-3" x1="59.08" y1="76.76" x2="57.85" y2="77.99"/><polyline class="cls-3" points="97.22 32.73 95.64 32.73 95.64 29.73 94.06 29.73"/><line class="cls-3" x1="97.22" y1="30.06" x2="95.64" y2="30.06"/><line class="cls-3" x1="94.06" y1="32.4" x2="95.65" y2="32.4"/><polyline class="cls-3" points="46.84 72.31 46.22 72.54 44.98 69.15 53.49 66.04 54.73 69.44"/><polyline class="cls-3" points="57.62 68.39 56.38 64.99 60.04 63.66"/><line class="cls-3" x1="61.23" y1="63.23" x2="64.7" y2="61.97"/><rect class="cls-3" x="59.7" y="61.2" width="1.27" height="2.86" transform="translate(-17.78 24.42) rotate(-20)"/><rect class="cls-3" x="64.36" y="59.5" width="1.27" height="2.86" transform="translate(-16.92 25.91) rotate(-20)"/><rect class="cls-3" x="69.49" y="57.64" width="1.27" height="2.86" transform="translate(-15.98 27.55) rotate(-20)"/><rect class="cls-3" x="74.61" y="55.77" width="1.27" height="2.86" transform="translate(-15.03 29.19) rotate(-20)"/><rect class="cls-3" x="79.74" y="53.9" width="1.27" height="2.86" transform="translate(-14.08 30.83) rotate(-20)"/><line class="cls-3" x1="65.89" y1="61.53" x2="69.82" y2="60.1"/><line class="cls-3" x1="71.02" y1="59.67" x2="74.95" y2="58.24"/><line class="cls-3" x1="76.14" y1="57.8" x2="80.07" y2="56.37"/><polyline class="cls-3" points="81.27 55.94 82.96 55.32 84.2 58.72"/><line class="cls-3" x1="74.81" y1="58.29" x2="76.04" y2="61.68"/><line class="cls-3" x1="64.56" y1="62.02" x2="65.79" y2="65.41"/><rect class="cls-3" x="73.12" y="45.54" width="2.75" height="1.27"/><rect class="cls-3" x="73.12" y="44.03" width="2.75" height="1.27"/><line class="cls-3" x1="75.87" y1="45.31" x2="75.87" y2="45.54"/><line class="cls-3" x1="76.9" y1="45.42" x2="75.87" y2="45.42"/><polyline class="cls-3" points="75.15 46.81 75.15 51.73 78.74 51.73 78.74 51.19"/><rect class="cls-3" x="73.12" y="38.36" width="2.75" height="1.27"/><rect class="cls-3" x="73.12" y="32.91" width="2.75" height="1.27"/><line class="cls-3" x1="75.15" y1="22.9" x2="75.15" y2="32.91"/><line class="cls-3" x1="75.15" y1="34.18" x2="75.15" y2="38.36"/><line class="cls-3" x1="75.15" y1="39.64" x2="75.15" y2="44.03"/><line class="cls-3" x1="78.75" y1="39.78" x2="75.15" y2="39.78"/><line class="cls-3" x1="79.29" y1="34.33" x2="75.15" y2="34.33"/><line class="cls-3" x1="78.75" y1="28.88" x2="75.15" y2="28.88"/><line class="cls-3" x1="109.57" y1="23.05" x2="109.57" y2="45.12"/><line class="cls-3" x1="107.32" y1="39.78" x2="109.57" y2="39.78"/><line class="cls-3" x1="107.32" y1="34.46" x2="109.57" y2="34.46"/><polyline class="cls-3" points="109.57 45.73 109.57 50.93 107.32 50.93"/><rect class="cls-3" x="63.6" y="46.24" width="1.27" height="2.85"/><rect class="cls-3" x="51.68" y="46.24" width="1.27" height="2.85"/><rect class="cls-3" x="46.22" y="46.24" width="1.27" height="2.85"/><rect class="cls-3" x="40.95" y="46.24" width="1.27" height="2.85"/><rect class="cls-3" x="35.35" y="46.24" width="1.27" height="2.85"/><rect class="cls-3" x="27.95" y="46.24" width="1.27" height="2.85"/><rect class="cls-3" x="21.26" y="46.24" width="1.27" height="2.85"/><polyline class="cls-3" points="68.87 43.18 69.41 43.18 69.41 46.78 64.87 46.78"/><line class="cls-3" x1="63.59" y1="46.78" x2="59.19" y2="46.78"/><line class="cls-3" x1="57.37" y1="46.78" x2="52.95" y2="46.78"/><line class="cls-3" x1="51.68" y1="46.78" x2="47.5" y2="46.78"/><line class="cls-3" x1="46.22" y1="46.78" x2="42.23" y2="46.78"/><line class="cls-3" x1="40.95" y1="46.78" x2="36.63" y2="46.78"/><line class="cls-3" x1="35.35" y1="46.78" x2="29.23" y2="46.78"/><line class="cls-3" x1="27.95" y1="46.78" x2="22.54" y2="46.78"/><polyline class="cls-3" points="21.26 46.78 19.13 46.78 16.71 45.32 16.71 43.18 17.09 43.18"/><line class="cls-3" x1="46.08" y1="43.18" x2="46.08" y2="46.78"/><line class="cls-3" x1="35.17" y1="43.18" x2="35.17" y2="46.78"/><line class="cls-3" x1="22.68" y1="43.18" x2="22.68" y2="46.78"/><line class="cls-3" x1="59.19" y1="43.18" x2="59.19" y2="46.78"/><line class="cls-3" x1="57.37" y1="43.18" x2="57.37" y2="46.78"/><polyline class="cls-3" points="2 15.7 1.25 15.7 1.25 12.8 10.3 12.8 10.3 15.7"/><polyline class="cls-3" points="27.08 15.7 27.08 12.8 17.55 12.8 17.55 13.85 13.75 13.85 13.75 15.7"/><line class="cls-3" x1="22.17" y1="15.7" x2="22.17" y2="12.8"/><line class="cls-3" x1="12.04" y1="24.94" x2="10.49" y2="24.94"/><line class="cls-3" x1="12.04" y1="17.31" x2="10.49" y2="17.31"/><line class="cls-3" x1="12.04" y1="19.42" x2="13.58" y2="19.42"/><line class="cls-3" x1="12.04" y1="20.42" x2="13.58" y2="20.42"/><line class="cls-3" x1="12.04" y1="22.45" x2="13.58" y2="22.45"/><line class="cls-3" x1="58.84" y1="36.33" x2="60.39" y2="35.61"/><line class="cls-3" x1="58.84" y1="37.31" x2="60.39" y2="37.31"/><polyline class="cls-3" points="65.14 93.9 65.29 94.31 61.93 95.52 61.79 95.15"/><polyline class="cls-3" points="51.5 98.31 52.55 101.2 56.82 99.66 56.62 99.1 60.54 97.69 59.87 95.85"/><polyline class="cls-3" points="69.69 92.26 72.66 89.92 80.71 86.96 80.46 86.28 83.8 85.05 83.69 84.76"/><polyline class="cls-3" points="95.06 80.24 95.29 80.87 91.86 82.13 91.75 81.83"/><line class="cls-3" x1="72.62" y1="89.95" x2="72.24" y2="88.93"/><polygon class="cls-3" points="1.09 21.29 1.09 20.83 2 20.83 2 15.7 6.51 15.7 14.09 15.7 17.9 15.7 24.63 15.7 30.56 15.7 34.72 15.7 34.72 11.47 37.26 11.47 37.26 12.19 68.42 12.19 68.42 15.59 69.15 15.59 69.15 22.61 68.88 22.61 68.88 32.68 68.88 38.04 68.88 43.18 64.37 43.18 56.47 43.18 48.58 43.18 43.62 43.18 37.68 43.18 31.17 43.18 26.74 43.18 20.19 43.18 17.1 43.18 17.1 41.11 13.61 41.11 8.93 41.11 8.93 38.14 8.38 38.14 8.38 36.51 5.27 36.51 5.27 32 2 32 2 21.29 1.09 21.29"/><polyline class="cls-3" points="35.02 15.7 35.02 28.41 62.37 28.41 62.37 30.47 8.51 30.47 8.51 28.41 27.63 28.41 27.63 15.7"/><line class="cls-3" x1="8.51" y1="29.44" x2="2" y2="29.44"/><line class="cls-3" x1="13.47" y1="30.47" x2="13.47" y2="41.11"/><line class="cls-3" x1="22.68" y1="30.47" x2="22.68" y2="43.18"/><polyline class="cls-3" points="28.2 30.47 28.2 33.71 35.12 33.71 35.12 30.47"/><polyline class="cls-3" points="35.17 43.18 35.17 33.71 35.12 33.71"/><line class="cls-3" x1="40.62" y1="43.18" x2="40.62" y2="30.47"/><line class="cls-3" x1="46.08" y1="43.18" x2="46.08" y2="30.47"/><line class="cls-3" x1="51.53" y1="43.18" x2="51.53" y2="31.55"/><polyline class="cls-3" points="51.48 30.55 51.48 31.55 54.14 31.55 54.14 30.47"/><line class="cls-3" x1="57.3" y1="30.47" x2="57.3" y2="43.18"/><line class="cls-3" x1="60.39" y1="43.18" x2="60.39" y2="30.47"/><line class="cls-3" x1="68.87" y1="29.44" x2="62.37" y2="29.44"/><line class="cls-3" x1="22.17" y1="28.41" x2="22.17" y2="15.7"/><line class="cls-3" x1="10.49" y1="28.41" x2="10.49" y2="15.7"/><line class="cls-3" x1="13.58" y1="15.7" x2="13.58" y2="28.41"/><polyline class="cls-3" points="16.45 28.41 16.45 27.33 13.58 27.33"/><polyline class="cls-3" points="13.58 26.79 12.04 26.79 12.04 22.12"/><polygon class="cls-3" points="85.72 58.16 85.72 51.19 78.74 51.19 78.74 48.49 79.29 48.49 79.29 45.73 76.9 45.73 76.9 45.12 79.29 45.12 79.29 42.35 78.74 42.35 78.74 37.3 79.29 37.3 79.29 31.36 78.74 31.36 78.74 26.02 79.29 26.02 79.29 23.18 78.74 23.18 78.74 22.9 72.6 22.9 72.6 18.97 71.46 18.97 71.46 15.59 72.65 15.59 72.65 12.19 87.29 12.19 87.29 11.47 89.85 11.47 89.85 12.19 96.21 12.19 96.21 11.47 98.77 11.47 98.77 12.19 108.65 12.19 108.65 20.5 109.9 20.5 109.9 23.05 107.32 23.05 107.32 26.87 106.77 26.87 106.77 30.45 107.32 30.45 107.32 34.46 106.77 34.46 106.77 37.3 107.32 37.3 107.32 42.35 106.77 42.35 106.77 45.12 109.57 45.12 109.57 45.73 106.77 45.73 106.77 48.49 107.32 48.49 107.32 51.19 101.27 51.19 101.27 51.99 101.28 52 105.08 62.45 104.53 62.65 106.03 66.77 106.55 66.58 106.69 66.97 104.55 67.74 107.29 75.26 103.22 76.75 103.38 77.21 95.01 80.26 94.51 78.88 91.17 80.09 91.8 81.81 83.69 84.76 83.07 83.05 79.73 84.26 80.35 85.98 72.24 88.93 71.62 87.21 68.28 88.43 69.69 92.26 65.14 93.9 64.53 92.22 61.17 93.44 61.79 95.15 55.93 97.28 55.74 96.77 51.5 98.32 50.11 94.49 49.6 94.68 48.16 90.72 50.43 89.9 49.01 86.01 50.98 85.29 48.09 77.33 48.6 77.15 46.84 72.31 50.95 70.82 58.2 68.18 61.78 66.88 68.13 64.57 73.71 62.53 78.38 60.84 85.72 58.16"/><polyline class="cls-3" points="93.43 68.89 91.03 62.31 88.32 63.29 90.72 69.87"/><polyline class="cls-3" points="88.71 63.15 88.71 62.05 90.63 62.05 90.76 62.41"/><polyline class="cls-3" points="91.03 62.31 90.98 62.17 92 61.79 92 53.08 87.85 53.08 87.85 53.69 85.72 53.69"/><polyline class="cls-3" points="92 59.01 90.86 59.01 90.86 62.05 90.63 62.05"/><polyline class="cls-3" points="92 23 90.92 23 90.92 25.74 92 25.74"/><polyline class="cls-3" points="94.06 27.89 97.22 27.89 97.22 34.34 94.06 34.34"/><polyline class="cls-3" points="94.45 64.41 97.42 63.33 99.64 69.43 96.69 70.5"/><line class="cls-3" x1="57.7" y1="68.36" x2="62.05" y2="80.31"/><polyline class="cls-3" points="64.76 79.32 64.39 78.3 61.68 79.29"/><line class="cls-3" x1="94.06" y1="23.05" x2="107.32" y2="23.05"/><polyline class="cls-3" points="106.77 34.46 106.77 34.33 97.22 34.33"/><line class="cls-3" x1="107.32" y1="39.78" x2="94.06" y2="39.78"/><line class="cls-3" x1="94.06" y1="45.42" x2="109.57" y2="45.42"/><line class="cls-3" x1="76.9" y1="45.42" x2="91.4" y2="45.42"/><polyline class="cls-3" points="94.06 58.74 99.77 58.74 103.27 57.47"/><polyline class="cls-3" points="104.55 67.74 104.52 67.65 99.64 69.42"/><line class="cls-3" x1="99.21" y1="78.73" x2="96.28" y2="70.68"/><polyline class="cls-3" points="83.07 83.05 83.16 83.01 80.53 75.77"/><polyline class="cls-3" points="61.17 93.44 61.05 93.49 57.63 84.1"/><polyline class="cls-3" points="50.98 85.29 51.03 85.41 55.45 83.8"/><line class="cls-3" x1="54.73" y1="69.44" x2="59.08" y2="81.39"/><line class="cls-3" x1="65.79" y1="65.41" x2="70.14" y2="77.36"/><line class="cls-3" x1="70.92" y1="63.55" x2="75.27" y2="75.49"/><line class="cls-3" x1="76.04" y1="61.68" x2="80.39" y2="73.63"/><line class="cls-3" x1="81.17" y1="59.82" x2="85.52" y2="71.76"/><polyline class="cls-3" points="85.72 57.58 85.85 57.58 85.85 58.49 88.77 58.49 88.77 62.05"/><line class="cls-3" x1="78.75" y1="39.78" x2="92" y2="39.78"/><line class="cls-3" x1="79.29" y1="34.33" x2="92" y2="34.33"/><line class="cls-3" x1="78.75" y1="28.88" x2="92" y2="28.88"/><polyline class="cls-3" points="79.29 23.18 79.29 23.05 90.92 23.05"/><polyline class="cls-3" points="56.43 74.11 57.9 73.57 56.21 68.9"/><polyline class="cls-3" points="93.43 68.89 55.1 82.83 55.8 84.77 94.19 70.8 94.4 71.37 96.69 70.53 94.06 63.35 94.06 23 92 23 92 42.6 91.4 42.95 91.4 47.89 91.75 48.09 92 48.24 92 51.06 85.72 51.06 85.72 51.19"/><polyline class="cls-3" points="72.65 15.59 75.46 15.59 75.46 18.97 72.6 18.97"/><polyline class="cls-3" points="10.49 20.68 12.04 20.68 12.04 15.7"/><polyline class="cls-3" points="58.84 39.96 58.84 32.35 60.39 32.35"/><polyline class="cls-3" points="95.83 23.05 95.83 21.11 89.49 21.11 89.49 23.05"/><polyline class="cls-3" points="71.62 87.21 71.72 87.18 69.08 79.94"/><g class="cls-1"><rect class="cls-3" x="-312.67" y="-436.83" width="450.14" height="582.54"/></g><g><path class="cls-10" d="M87.92,94.51v3.91h2.46v.5h-3.07v-4.41h.61Z"/><path class="cls-10" d="M94.12,98.93h-3.15v-4.41h3.08v.5h-2.49v1.39h1.98v.5h-1.98v1.52h2.56v.5Z"/><path class="cls-10" d="M96.19,98.93l-1.77-4.41h.62l1.49,3.71h.03l1.45-3.71h.62l-1.78,4.41h-.66Z"/><path class="cls-10" d="M102.29,98.93h-3.15v-4.41h3.08v.5h-2.49v1.39h1.98v.5h-1.98v1.52h2.56v.5Z"/><path class="cls-10" d="M103.59,94.51v3.91h2.46v.5h-3.07v-4.41h.61Z"/><path class="cls-10" d="M107.55,95.16c.62,0,.88-.21,1.04-.67h.4v4.44h-.61v-3.38h-.83v-.39Z"/></g><g class="cls-9"><rect class="cls-6" x="-486.25" y="-688.86" width="678.3" height="877.8"/></g><g><path class="cls-10" d="M6.25,3.64h.02l.65-2.62h.41l-.81,3.15h-.5l-.66-2.52h-.02l-.67,2.52h-.5l-.81-3.15h.42l.66,2.61h.02l.69-2.61h.41l.7,2.62Z"/><path class="cls-10" d="M9.93,4.17h-2.25V1.02h2.2v.36h-1.78v.99h1.42v.36h-1.42v1.09h1.83v.36Z"/><path class="cls-10" d="M10.57,3.02c.02,.58,.42,.87,.95,.87,.47,0,.77-.2,.77-.55,0-.29-.19-.43-.6-.51l-.62-.12c-.47-.09-.79-.34-.79-.83,0-.55,.44-.93,1.13-.93,.79,0,1.25,.42,1.25,1.13l-.4,.02c-.02-.52-.33-.82-.85-.82-.46,0-.71,.21-.71,.57,0,.31,.21,.41,.57,.48l.57,.11c.58,.11,.87,.36,.87,.87,0,.58-.5,.92-1.18,.92-.78,0-1.34-.42-1.34-1.19l.39-.03Z"/><path class="cls-10" d="M13.96,4.17V1.38h-1.15v-.36h2.74v.36h-1.17v2.79h-.43Z"/><path class="cls-10" d="M18.2,4.17h-1.34V1.02h1.29c.78,0,1.1,.34,1.1,.84,0,.37-.26,.62-.6,.68,.39,.07,.69,.32,.69,.77,0,.55-.4,.87-1.14,.87Zm-.92-1.79h.88c.46,0,.65-.2,.65-.5s-.19-.51-.65-.51h-.88v1.01Zm0,.34v1.1h.91c.47,0,.72-.21,.72-.55s-.25-.55-.72-.55h-.91Z"/><path class="cls-10" d="M19.78,2.97V1.02h.43v1.95c0,.6,.3,.9,.85,.9s.86-.29,.86-.89V1.02h.42v1.95c0,.92-.57,1.27-1.28,1.27s-1.28-.34-1.28-1.27Z"/><path class="cls-10" d="M23.33,1.02v3.15h-.43V1.02h.43Z"/><path class="cls-10" d="M24.38,1.02V3.81h1.76v.36h-2.19V1.02h.43Z"/><path class="cls-10" d="M26.56,1.02h1.14c.99,0,1.62,.59,1.62,1.58s-.63,1.58-1.62,1.58h-1.14V1.02Zm1.12,2.8c.77,0,1.19-.46,1.19-1.22s-.42-1.22-1.19-1.22h-.68V3.82h.68Z"/><path class="cls-10" d="M30.21,1.02v3.15h-.44V1.02h.44Z"/><path class="cls-10" d="M33,3.43V1.02h.41v3.15h-.35l-1.83-2.53v2.53h-.41V1.02h.45l1.73,2.41Z"/><path class="cls-10" d="M33.87,2.6c0-.97,.67-1.64,1.54-1.64s1.41,.5,1.46,1.3l-.42,.03c-.04-.58-.41-.96-1.04-.96s-1.1,.49-1.1,1.27,.46,1.27,1.14,1.27c.59,0,.97-.37,1.03-.91h-.96v-.34h1.36v1.56h-.4v-.56c-.14,.4-.58,.62-1.08,.62-.89,0-1.54-.66-1.54-1.64Z"/></g><g><path class="cls-10" d="M79.08,4.17h-2.25V1.02h2.2v.36h-1.78v.99h1.42v.36h-1.42v1.09h1.83v.36Z"/><path class="cls-10" d="M81.09,1.02l1.31,3.15h-.46l-.38-.93h-1.44l-.37,.93h-.42l1.29-3.15h.48Zm-.83,1.88h1.16l-.58-1.4h-.02l-.57,1.4Z"/><path class="cls-10" d="M82.93,3.02c.02,.58,.42,.87,.95,.87,.47,0,.77-.2,.77-.55,0-.29-.19-.43-.6-.51l-.62-.12c-.47-.09-.79-.34-.79-.83,0-.55,.44-.93,1.13-.93,.79,0,1.25,.42,1.25,1.13l-.4,.02c-.02-.52-.33-.82-.85-.82-.46,0-.71,.21-.71,.57,0,.31,.21,.41,.57,.48l.57,.11c.58,.11,.87,.36,.87,.87,0,.58-.5,.92-1.18,.92-.78,0-1.34-.42-1.34-1.19l.39-.03Z"/><path class="cls-10" d="M86.32,4.17V1.38h-1.15v-.36h2.74v.36h-1.17v2.79h-.43Z"/><path class="cls-10" d="M90.56,4.17h-1.34V1.02h1.29c.78,0,1.1,.34,1.1,.84,0,.37-.26,.62-.6,.68,.39,.07,.69,.32,.69,.77,0,.55-.4,.87-1.14,.87Zm-.92-1.79h.88c.46,0,.65-.2,.65-.5s-.2-.51-.65-.51h-.88v1.01Zm0,.34v1.1h.91c.47,0,.72-.21,.72-.55s-.25-.55-.72-.55h-.91Z"/><path class="cls-10" d="M92.14,2.97V1.02h.43v1.95c0,.6,.3,.9,.85,.9s.86-.29,.86-.89V1.02h.43v1.95c0,.92-.57,1.27-1.28,1.27s-1.28-.34-1.28-1.27Z"/><path class="cls-10" d="M95.69,1.02v3.15h-.44V1.02h.44Z"/><path class="cls-10" d="M96.74,1.02V3.81h1.76v.36h-2.19V1.02h.44Z"/><path class="cls-10" d="M98.92,1.02h1.14c.99,0,1.62,.59,1.62,1.58s-.62,1.58-1.62,1.58h-1.14V1.02Zm1.12,2.8c.77,0,1.19-.46,1.19-1.22s-.42-1.22-1.19-1.22h-.68V3.82h.68Z"/><path class="cls-10" d="M102.57,1.02v3.15h-.43V1.02h.43Z"/><path class="cls-10" d="M105.36,3.43V1.02h.41v3.15h-.34l-1.83-2.53v2.53h-.41V1.02h.45l1.73,2.41Z"/><path class="cls-10" d="M106.23,2.6c0-.97,.67-1.64,1.54-1.64s1.41,.5,1.46,1.3l-.42,.03c-.04-.58-.41-.96-1.04-.96s-1.1,.49-1.1,1.27,.46,1.27,1.14,1.27c.59,0,.97-.37,1.03-.91h-.96v-.34h1.36v1.56h-.4v-.56c-.14,.4-.58,.62-1.08,.62-.89,0-1.54-.66-1.54-1.64Z"/></g></g></svg>