<?xml version="1.0" encoding="UTF-8"?><svg xmlns="http://www.w3.org/2000/svg" xmlns:xlink="http://www.w3.org/1999/xlink" viewBox="0 0 112.19 101.07"><defs><style>.cls-1{clip-path:url(#clippath-2);}.cls-2{isolation:isolate;}.cls-3{stroke:#ebebec;}.cls-3,.cls-4{stroke-width:.31px;}.cls-3,.cls-4,.cls-5,.cls-6{fill:none;}.cls-3,.cls-4,.cls-6{stroke-linecap:round;stroke-linejoin:round;}.cls-4,.cls-6{stroke:#000;}.cls-7{fill:#f1b784;fill-rule:evenodd;}.cls-8{clip-path:url(#clippath);}.cls-9{clip-path:url(#clippath-5);}.cls-10{fill:#333132;}.cls-6{stroke-width:.47px;}</style><clipPath id="clippath"><rect class="cls-5" x="-482.65" y="-648.54" width="612" height="792"/></clipPath><clipPath id="clippath-2"><rect class="cls-5" x="-6.25" y="-3.94" width="126" height="113.4"/></clipPath><clipPath id="clippath-5"><rect class="cls-5" x="-355.48" y="-515.69" width="352.44" height="504.9"/></clipPath><clipPath id="clippath-7"><rect class="cls-5" x="-482.65" y="-648.54" width="612" height="792"/></clipPath></defs><g class="cls-2"><g id="Layer_1"><g class="cls-8"><polygon class="cls-7" points="89.94 57.74 87.03 57.74 87.03 56.83 86.9 56.83 84.95 57.54 85.14 58.05 82.35 59.07 86.7 71.01 91.89 69.12 89.5 62.55 89.89 62.4 89.89 61.3 89.94 57.74"/><polygon class="cls-3" points="89.94 57.74 87.03 57.74 87.03 56.83 86.9 56.83 84.95 57.54 85.14 58.05 82.35 59.07 86.69 71.01 91.89 69.12 89.5 62.55 89.89 62.4 89.89 61.3 89.94 57.74"/><line class="cls-4" x1="32.84" y1="32.96" x2="32.84" y2="29.72"/><polyline class="cls-4" points="36.29 32.96 32.84 29.72 29.38 32.96"/><polyline class="cls-4" points="36.29 29.72 32.84 32.96 29.38 29.72"/><line class="cls-4" x1="90.7" y1="65.83" x2="93.41" y2="64.85"/><polyline class="cls-4" points="91.89 69.12 93.41 64.85 89.5 62.54"/><polyline class="cls-4" points="94.6 68.14 90.7 65.83 92.21 61.56"/><polyline class="cls-4" points="2.27 20.37 1.12 20.37 1.12 12.82 7.97 12.82 7.97 14.4"/><polyline class="cls-4" points="14.99 14.4 14.99 12.82 19.36 12.82 19.36 14.4"/><polyline class="cls-4" points="25.55 14.4 25.55 12.82 32.05 12.82 32.05 14.4"/><line class="cls-4" x1="28.8" y1="12.82" x2="28.8" y2="14.95"/><polyline class="cls-4" points="70.6 37.01 72.11 37.01 72.11 44.56 65.26 44.56 65.26 42.98"/><polyline class="cls-4" points="57.92 42.98 57.92 44.56 49.47 44.56 49.47 42.98"/><line class="cls-4" x1="52.71" y1="42.43" x2="52.71" y2="44.56"/><polyline class="cls-4" points="45.05 42.98 45.05 44.56 38.55 44.56 38.55 42.98"/><line class="cls-4" x1="41.8" y1="42.43" x2="41.8" y2="44.56"/><polyline class="cls-4" points="32.63 42.98 32.63 44.56 27.63 44.56 27.63 42.98"/><polyline class="cls-4" points="21.65 42.98 21.65 44.56 18.32 44.56 18.32 42.99"/><polyline class="cls-4" points="15.06 40.9 15.06 42.49 11.56 42.49 11.56 40.36"/><polyline class="cls-4" points="14.76 26.04 13.22 26.04 13.22 21.18"/><line class="cls-4" x1="13.22" y1="25.69" x2="11.67" y2="25.69"/><line class="cls-4" x1="11.67" y1="24.05" x2="13.22" y2="23.33"/><polyline class="cls-4" points="61.56 31.56 60.02 31.56 60.02 36.18"/><line class="cls-4" x1="58.47" y1="34.31" x2="60.02" y2="33.59"/><line class="cls-4" x1="58.47" y1="31.95" x2="60.02" y2="31.95"/><polyline class="cls-4" points="57.37 96.44 57.68 97.28 51.17 99.65 49.19 94.21 50.68 93.67"/><polyline class="cls-4" points="49.36 76.85 47.82 77.41 45.23 70.31 51.66 67.97 52.21 69.46"/><polyline class="cls-4" points="58.96 67 58.42 65.51 62.52 64.02 63.06 65.51"/><polyline class="cls-4" points="68.86 63.4 68.32 61.91 74.42 59.69 74.96 61.18"/><line class="cls-4" x1="71.37" y1="60.8" x2="72.1" y2="62.8"/><polyline class="cls-4" points="79.11 59.67 78.57 58.18 84.67 55.96 85.21 57.45"/><line class="cls-4" x1="81.62" y1="57.07" x2="82.35" y2="59.07"/><polyline class="cls-4" points="79.92 48.02 78.34 48.02 78.34 44.98"/><polyline class="cls-4" points="79.92 41.32 78.34 41.32 78.34 44.37"/><polyline class="cls-4" points="79.92 36.83 78.34 36.83 78.34 30.33 79.92 30.33"/><line class="cls-4" x1="78.34" y1="33.58" x2="80.47" y2="33.58"/><polyline class="cls-4" points="108.5 25.84 110.08 25.84 110.08 29.98 108.5 29.98"/><polyline class="cls-4" points="108.5 33.43 110.08 33.43 110.08 36.83 108.5 36.83"/><polyline class="cls-4" points="108.5 41.32 110.08 41.32 110.08 44.37"/><polyline class="cls-4" points="110.08 44.98 110.08 48.02 108.5 48.02"/><polyline class="cls-4" points="106.17 61.46 107.66 60.92 109.37 65.64 107.86 66.19"/><polyline class="cls-4" points="107.27 69.78 108.78 69.23 111.16 75.77 104.87 78.06 104.32 76.55"/><polyline class="cls-4" points="66.52 93.09 66.83 93.95 63.01 95.34 62.71 94.5"/><line class="cls-4" x1="95.24" y1="44.67" x2="92.57" y2="44.67"/><line class="cls-4" x1="97.77" y1="64.93" x2="96.29" y2="65.47"/><polyline class="cls-4" points="99.2 64.23 97.71 64.77 98.69 67.44 97.21 67.98"/><line class="cls-4" x1="98.63" y1="67.28" x2="100.11" y2="66.74"/><polyline class="cls-4" points="61.04 73.98 59.69 74.47 61.17 78.54 62.66 78"/><line class="cls-4" x1="59.58" y1="78.77" x2="61.06" y2="78.23"/><line class="cls-4" x1="60.25" y1="76.01" x2="59.02" y2="77.24"/><polyline class="cls-4" points="98.4 31.98 96.82 31.98 96.82 28.98 95.24 28.98"/><line class="cls-4" x1="98.4" y1="29.31" x2="96.82" y2="29.31"/><line class="cls-4" x1="95.24" y1="31.65" x2="96.82" y2="31.65"/><line class="cls-4" x1="39.71" y1="14.95" x2="39.71" y2="12.82"/><polyline class="cls-4" points="92.97 81.04 96.54 79.74 96.43 79.42"/><line class="cls-4" x1="81.52" y1="85.21" x2="84.86" y2="83.99"/><polyline class="cls-4" points="73.66 88.09 73.85 88.62 70.29 89.92"/><polyline class="cls-4" points="102.53 13.23 102.53 11.65 110.08 11.65 110.08 18.57 108.5 18.57"/><polyline class="cls-4" points="79.92 18.57 78.34 18.57 78.34 11.65 85.89 11.65 85.89 13.23"/><polyline class="cls-4" points="79.92 22.15 78.34 22.15 78.34 25.56 79.92 25.56"/><polyline class="cls-4" points="36.46 14.4 36.46 12.82 42.96 12.82 42.96 14.4"/><line class="cls-4" x1="50.62" y1="14.95" x2="50.62" y2="12.82"/><polyline class="cls-4" points="47.37 14.4 47.37 12.82 53.87 12.82 53.87 14.4"/><polyline class="cls-4" points="58.25 14.4 58.25 12.82 61.67 12.82 61.67 14.4"/><polyline class="cls-4" points="65.26 14.4 65.26 12.82 72.11 12.82 72.11 20.37 70.6 20.37"/><polygon class="cls-4" points="2.27 20.54 2.27 20.08 2.81 20.08 2.81 14.95 7.69 14.95 7.69 14.4 15.27 14.4 15.27 14.95 19.08 14.95 19.08 14.4 25.8 14.4 25.8 14.95 31.74 14.95 31.74 14.4 36.71 14.4 36.71 14.95 42.65 14.95 42.65 14.4 47.62 14.4 47.62 14.95 53.56 14.95 53.56 14.4 58.53 14.4 58.53 14.95 61.39 14.95 61.39 14.4 65.54 14.4 65.54 14.95 70.05 14.95 70.05 20.09 70.6 20.09 70.6 25.45 70.05 25.45 70.05 31.93 70.6 31.93 70.6 37.29 70.05 37.29 70.05 42.43 65.54 42.43 65.54 42.98 57.64 42.98 57.64 42.43 49.76 42.43 49.76 42.98 44.8 42.98 44.8 42.43 38.86 42.43 38.86 42.98 32.35 42.98 32.35 42.43 27.92 42.43 27.92 42.98 21.37 42.98 21.37 42.43 18.73 42.43 18.73 42.99 18.27 42.99 18.27 40.9 14.78 40.9 14.78 40.36 10.1 40.36 10.1 37.39 9.56 37.39 9.56 35.76 6.44 35.76 6.44 31.25 3.18 31.25 3.18 20.54 2.27 20.54"/><rect class="cls-4" x="9.68" y="27.66" width="53.87" height="2.06"/><line class="cls-4" x1="9.68" y1="28.69" x2="3.18" y2="28.69"/><polyline class="cls-4" points="18.4 29.72 18.4 40.9 18.27 40.9"/><line class="cls-4" x1="23.85" y1="29.72" x2="23.85" y2="42.98"/><polyline class="cls-4" points="29.38 29.72 29.38 32.96 36.29 32.96 36.29 29.72"/><polyline class="cls-4" points="36.35 42.98 36.35 32.96 36.29 32.96"/><line class="cls-4" x1="41.8" y1="42.43" x2="41.8" y2="29.72"/><line class="cls-4" x1="47.25" y1="42.98" x2="47.25" y2="29.72"/><line class="cls-4" x1="52.71" y1="42.43" x2="52.71" y2="30.8"/><polyline class="cls-4" points="52.66 29.8 52.66 30.8 55.31 30.8 55.31 29.72"/><polyline class="cls-4" points="58.47 29.72 58.47 36.18 61.56 36.18 61.56 29.72"/><line class="cls-4" x1="61.53" y1="42.98" x2="61.53" y2="36.18"/><line class="cls-4" x1="70.05" y1="28.69" x2="63.55" y2="28.69"/><polyline class="cls-4" points="61.53 27.66 61.53 14.95 61.39 14.95"/><line class="cls-4" x1="56.07" y1="27.66" x2="56.07" y2="14.4"/><line class="cls-4" x1="50.62" y1="27.66" x2="50.62" y2="14.95"/><line class="cls-4" x1="45.16" y1="27.66" x2="45.16" y2="14.4"/><line class="cls-4" x1="39.71" y1="27.66" x2="39.71" y2="14.95"/><line class="cls-4" x1="34.26" y1="27.66" x2="34.26" y2="14.4"/><line class="cls-4" x1="28.8" y1="27.66" x2="28.8" y2="14.95"/><line class="cls-4" x1="23.35" y1="27.66" x2="23.35" y2="14.4"/><polyline class="cls-4" points="11.67 27.55 11.67 21.18 14.76 21.18 14.76 27.66"/><polyline class="cls-4" points="17.63 27.66 17.63 26.58 14.76 26.58"/><line class="cls-4" x1="11.71" y1="21.18" x2="11.71" y2="14.4"/><polygon class="cls-4" points="80.47 13.78 85.61 13.78 85.61 13.23 90.96 13.23 90.96 13.78 97.45 13.78 97.45 13.23 102.78 13.23 102.78 13.78 107.95 13.78 107.95 18.29 108.5 18.29 108.5 26.12 107.95 26.12 107.95 29.7 108.5 29.7 108.5 33.71 107.95 33.71 107.95 36.55 108.5 36.55 108.5 41.6 107.95 41.6 107.95 44.37 110.75 44.37 110.75 44.98 107.95 44.98 107.95 47.74 108.5 47.74 108.5 50.44 102.44 50.44 102.44 51.24 102.45 51.25 106.26 61.73 105.75 61.91 107.24 66.01 107.73 65.83 107.87 66.22 106.19 66.82 107.36 70.02 106.83 70.21 108.39 74.48 104.37 75.94 104.56 76.46 96.19 79.51 95.69 78.13 92.35 79.35 92.98 81.06 84.87 84.02 84.24 82.3 80.9 83.51 81.53 85.23 73.42 88.18 72.8 86.46 69.47 87.67 70.86 91.51 66.28 93.18 65.67 91.48 62.35 92.69 62.97 94.4 57.11 96.54 56.92 96.02 52.68 97.57 51.29 93.74 50.78 93.93 49.34 89.97 51.6 89.15 50.19 85.26 52.16 84.54 49.26 76.58 49.78 76.4 48.02 71.56 52.13 70.07 51.94 69.56 59.19 66.92 59.38 67.43 62.96 66.13 62.77 65.61 69.12 63.3 69.31 63.82 74.89 61.79 74.7 61.27 79.37 59.57 79.56 60.09 85.14 58.05 84.95 57.54 86.9 56.83 86.9 50.44 79.92 50.44 79.92 47.74 80.47 47.74 80.47 44.98 78.08 44.98 78.08 44.37 80.47 44.37 80.47 41.6 79.92 41.6 79.92 36.55 80.47 36.55 80.47 30.61 79.92 30.61 79.92 25.27 80.47 25.27 80.47 22.43 79.92 22.43 79.92 18.29 80.47 18.29 80.47 13.78"/><polyline class="cls-4" points="94.6 68.14 92.21 61.56 89.5 62.54 91.89 69.12"/><polyline class="cls-4" points="89.89 62.4 89.89 61.3 91.81 61.3 91.94 61.66"/><polyline class="cls-4" points="92.21 61.56 92.16 61.42 93.18 61.04 93.18 47.49 92.93 47.34 92.57 47.14 92.57 42.2 93.18 41.85 93.18 20.28 95.24 20.28 95.24 62.6 97.87 69.78 96.2 70.39 95.99 69.82 56.98 84.02 56.28 82.08 94.6 68.14"/><polyline class="cls-4" points="93.18 58.26 92.03 58.26 92.03 61.3 91.81 61.3"/><polyline class="cls-4" points="93.18 22.25 92.09 22.25 92.09 24.99 93.18 24.99"/><polyline class="cls-4" points="95.24 27.14 98.4 27.14 98.4 33.59 95.24 33.59"/><polyline class="cls-4" points="95.63 63.66 98.59 62.58 100.82 68.68 97.86 69.75"/><polyline class="cls-4" points="60.26 80.64 58.02 74.49 60.99 73.41 63.22 79.56"/><polyline class="cls-4" points="65.94 78.57 65.57 77.55 62.85 78.54"/><line class="cls-4" x1="94.21" y1="20.28" x2="94.21" y2="13.78"/><line class="cls-4" x1="95.24" y1="22.31" x2="108.5" y2="22.31"/><polyline class="cls-4" points="107.95 33.71 107.95 33.58 98.4 33.58"/><line class="cls-4" x1="108.5" y1="39.04" x2="95.24" y2="39.04"/><line class="cls-4" x1="95.24" y1="44.67" x2="110.75" y2="44.67"/><line class="cls-4" x1="78.08" y1="44.67" x2="92.57" y2="44.67"/><polyline class="cls-4" points="95.24 57.99 100.95 57.99 104.44 56.72"/><polyline class="cls-4" points="106.19 66.82 106.15 66.7 100.81 68.67"/><polyline class="cls-4" points="62.35 92.69 62.23 92.74 58.81 83.36"/><polyline class="cls-4" points="52.16 84.54 52.21 84.66 56.63 83.05"/><line class="cls-4" x1="55.84" y1="68.14" x2="58.14" y2="74.45"/><line class="cls-4" x1="66.79" y1="64.15" x2="71.32" y2="76.61"/><line class="cls-4" x1="72.1" y1="62.8" x2="76.44" y2="74.75"/><line class="cls-4" x1="77.04" y1="60.42" x2="81.57" y2="72.88"/><line class="cls-4" x1="82.35" y1="59.07" x2="86.69" y2="71.01"/><polyline class="cls-4" points="86.9 56.83 87.03 56.83 87.03 57.74 89.94 57.74 89.94 61.3"/><line class="cls-4" x1="79.92" y1="39.04" x2="93.18" y2="39.04"/><line class="cls-4" x1="80.47" y1="33.58" x2="93.18" y2="33.58"/><line class="cls-4" x1="79.92" y1="28.13" x2="93.18" y2="28.13"/><polyline class="cls-4" points="80.47 22.43 80.47 22.31 92.1 22.31"/><polyline class="cls-4" points="72.8 86.46 72.89 86.43 70.26 79.19"/><polyline class="cls-4" points="84.24 82.3 84.34 82.26 81.7 75.02"/><polyline class="cls-4" points="95.69 78.13 95.78 78.1 93.15 70.86"/><g class="cls-1"><rect class="cls-4" x="-167.49" y="-437.58" width="450.14" height="582.54"/></g><g><path class="cls-10" d="M82.43,94.75v3.91h2.46v.5h-3.07v-4.41h.61Z"/><path class="cls-10" d="M88.63,99.16h-3.15v-4.41h3.08v.5h-2.49v1.39h1.98v.5h-1.98v1.52h2.56v.5Z"/><path class="cls-10" d="M90.7,99.16l-1.77-4.41h.62l1.49,3.71h.03l1.45-3.71h.62l-1.78,4.41h-.66Z"/><path class="cls-10" d="M96.8,99.16h-3.15v-4.41h3.08v.5h-2.49v1.39h1.98v.5h-1.98v1.52h2.56v.5Z"/><path class="cls-10" d="M98.09,94.75v3.91h2.46v.5h-3.07v-4.41h.61Z"/><path class="cls-10" d="M105.41,98.64v.53h-3.24v-.35l1.25-1.07c.69-.6,1.21-1.05,1.21-1.69,0-.52-.29-.88-.88-.88s-.94,.38-.94,1.03c0,.13,.01,.27,.05,.4l-.6-.03c-.03-.14-.05-.28-.05-.41,0-.9,.61-1.48,1.55-1.48,1.03,0,1.5,.6,1.5,1.35,0,.8-.68,1.41-1.32,1.93l-.83,.69h2.3Z"/><path class="cls-10" d="M105.68,97.12h1.61v.52h-1.61v-.52Z"/><path class="cls-10" d="M110.88,95.3h-2.12c0,.24-.11,1.14-.16,1.37,.2-.25,.56-.45,1.05-.45,1,0,1.52,.67,1.52,1.48,0,.92-.64,1.55-1.6,1.55-1.06,0-1.67-.67-1.62-1.65l.59,.05c0,.67,.36,1.11,1.05,1.11,.62,0,1-.41,1-1.06,0-.58-.38-1.01-1-1.01-.49,0-.81,.26-.97,.56l-.6-.04c.11-.61,.26-1.74,.28-2.46h2.58v.55Z"/></g><g class="cls-9"><rect class="cls-6" x="-483.29" y="-638.21" width="678.3" height="877.8"/></g><g><path class="cls-10" d="M8.1,3.88h.02l.65-2.62h.41l-.81,3.15h-.5l-.66-2.52h-.02l-.67,2.52h-.5l-.81-3.15h.42l.66,2.61h.02l.69-2.61h.41l.7,2.62Z"/><path class="cls-10" d="M11.78,4.41h-2.25V1.26h2.2v.36h-1.78v.99h1.42v.36h-1.42v1.09h1.83v.36Z"/><path class="cls-10" d="M12.43,3.26c.02,.58,.42,.87,.95,.87,.47,0,.77-.2,.77-.55,0-.29-.19-.43-.6-.51l-.62-.12c-.47-.09-.79-.34-.79-.83,0-.55,.44-.93,1.13-.93,.79,0,1.25,.42,1.25,1.13l-.4,.02c-.02-.52-.33-.82-.85-.82-.46,0-.71,.21-.71,.57,0,.31,.21,.41,.57,.48l.57,.11c.58,.11,.87,.36,.87,.87,0,.58-.5,.92-1.18,.92-.78,0-1.34-.42-1.34-1.19l.39-.03Z"/><path class="cls-10" d="M15.82,4.41V1.62h-1.15v-.36h2.74v.36h-1.17v2.79h-.43Z"/><path class="cls-10" d="M20.06,4.41h-1.34V1.26h1.29c.78,0,1.1,.34,1.1,.84,0,.37-.26,.62-.6,.68,.39,.07,.69,.32,.69,.77,0,.55-.4,.87-1.14,.87Zm-.92-1.79h.88c.46,0,.65-.2,.65-.5s-.19-.51-.65-.51h-.88v1.01Zm0,.34v1.1h.91c.47,0,.72-.21,.72-.55s-.25-.55-.72-.55h-.91Z"/><path class="cls-10" d="M21.64,3.21V1.26h.43v1.95c0,.6,.3,.9,.85,.9s.86-.29,.86-.89V1.26h.42v1.95c0,.92-.57,1.27-1.28,1.27s-1.28-.34-1.28-1.27Z"/><path class="cls-10" d="M25.19,1.26v3.15h-.43V1.26h.43Z"/><path class="cls-10" d="M26.24,1.26v2.79h1.76v.36h-2.19V1.26h.43Z"/><path class="cls-10" d="M28.42,1.26h1.14c.99,0,1.62,.59,1.62,1.58s-.63,1.58-1.62,1.58h-1.14V1.26Zm1.12,2.8c.77,0,1.19-.46,1.19-1.22s-.42-1.22-1.19-1.22h-.68v2.44h.68Z"/><path class="cls-10" d="M32.07,1.26v3.15h-.44V1.26h.44Z"/><path class="cls-10" d="M34.86,3.67V1.26h.41v3.15h-.35l-1.83-2.53v2.53h-.41V1.26h.45l1.73,2.41Z"/><path class="cls-10" d="M35.73,2.84c0-.97,.67-1.64,1.54-1.64s1.41,.5,1.46,1.3l-.42,.03c-.04-.58-.41-.96-1.04-.96s-1.1,.49-1.1,1.27,.46,1.27,1.14,1.27c.59,0,.97-.37,1.03-.91h-.96v-.34h1.36v1.56h-.4v-.56c-.14,.4-.58,.62-1.08,.62-.89,0-1.54-.66-1.54-1.64Z"/></g><g><path class="cls-10" d="M80.94,4.41h-2.25V1.26h2.2v.36h-1.78v.99h1.42v.36h-1.42v1.09h1.83v.36Z"/><path class="cls-10" d="M82.95,1.26l1.31,3.15h-.46l-.38-.93h-1.44l-.37,.93h-.42l1.29-3.15h.48Zm-.83,1.88h1.16l-.58-1.4h-.02l-.57,1.4Z"/><path class="cls-10" d="M84.79,3.26c.02,.58,.42,.87,.95,.87,.47,0,.77-.2,.77-.55,0-.29-.19-.43-.6-.51l-.62-.12c-.47-.09-.79-.34-.79-.83,0-.55,.44-.93,1.13-.93,.79,0,1.25,.42,1.25,1.13l-.4,.02c-.02-.52-.33-.82-.85-.82-.46,0-.71,.21-.71,.57,0,.31,.21,.41,.57,.48l.57,.11c.58,.11,.87,.36,.87,.87,0,.58-.5,.92-1.18,.92-.78,0-1.34-.42-1.34-1.19l.39-.03Z"/><path class="cls-10" d="M88.18,4.41V1.62h-1.15v-.36h2.74v.36h-1.17v2.79h-.43Z"/><path class="cls-10" d="M92.42,4.41h-1.34V1.26h1.29c.78,0,1.1,.34,1.1,.84,0,.37-.26,.62-.6,.68,.39,.07,.69,.32,.69,.77,0,.55-.4,.87-1.14,.87Zm-.92-1.79h.88c.46,0,.65-.2,.65-.5s-.2-.51-.65-.51h-.88v1.01Zm0,.34v1.1h.91c.47,0,.72-.21,.72-.55s-.25-.55-.72-.55h-.91Z"/><path class="cls-10" d="M94,3.21V1.26h.43v1.95c0,.6,.3,.9,.85,.9s.86-.29,.86-.89V1.26h.43v1.95c0,.92-.57,1.27-1.28,1.27s-1.28-.34-1.28-1.27Z"/><path class="cls-10" d="M97.55,1.26v3.15h-.44V1.26h.44Z"/><path class="cls-10" d="M98.6,1.26v2.79h1.76v.36h-2.19V1.26h.44Z"/><path class="cls-10" d="M100.78,1.26h1.14c.99,0,1.62,.59,1.62,1.58s-.62,1.58-1.62,1.58h-1.14V1.26Zm1.12,2.8c.77,0,1.19-.46,1.19-1.22s-.42-1.22-1.19-1.22h-.68v2.44h.68Z"/><path class="cls-10" d="M104.43,1.26v3.15h-.43V1.26h.43Z"/><path class="cls-10" d="M107.22,3.67V1.26h.41v3.15h-.34l-1.83-2.53v2.53h-.41V1.26h.45l1.73,2.41Z"/><path class="cls-10" d="M108.09,2.84c0-.97,.67-1.64,1.54-1.64s1.41,.5,1.46,1.3l-.42,.03c-.04-.58-.41-.96-1.04-.96s-1.1,.49-1.1,1.27,.46,1.27,1.14,1.27c.59,0,.97-.37,1.03-.91h-.96v-.34h1.36v1.56h-.4v-.56c-.14,.4-.58,.62-1.08,.62-.89,0-1.54-.66-1.54-1.64Z"/></g></g></g></g></svg>