<?xml version="1.0" encoding="UTF-8"?><svg xmlns="http://www.w3.org/2000/svg" xmlns:xlink="http://www.w3.org/1999/xlink" viewBox="0 0 111.04 102.09"><defs><style>.cls-1{clip-path:url(#clippath-2);}.cls-2{isolation:isolate;}.cls-3{stroke:#ebebec;}.cls-3,.cls-4,.cls-5{stroke-width:.31px;}.cls-3,.cls-4,.cls-5,.cls-6,.cls-7{fill:none;}.cls-3,.cls-4,.cls-5,.cls-7{stroke-linecap:round;stroke-linejoin:round;}.cls-8{clip-path:url(#clippath-6);}.cls-4,.cls-5,.cls-7{stroke:#000;}.cls-5{stroke-dasharray:0 0 3.94 1.97;}.cls-9{clip-path:url(#clippath);}.cls-10{clip-path:url(#clippath-5);}.cls-11{fill:#333132;}.cls-7{stroke-width:.47px;}.cls-12{fill-rule:evenodd;}</style><clipPath id="clippath"><rect class="cls-6" x="-484.63" y="-647.7" width="612" height="792"/></clipPath><clipPath id="clippath-2"><rect class="cls-6" x="-5.63" y="1.15" width="132" height="114"/></clipPath><clipPath id="clippath-5"><rect class="cls-6" x="-484.63" y="-647.7" width="612" height="792"/></clipPath><clipPath id="clippath-6"><rect class="cls-6" x="-331.59" y="-538.03" width="295.39" height="611.16"/></clipPath><clipPath id="clippath-8"><rect class="cls-6" x="-484.63" y="-647.7" width="612" height="792"/></clipPath></defs><g class="cls-2"><g id="Layer_1"><g class="cls-9"><polygon class="cls-12" points="70.92 63.89 73.71 62.87 76.05 62.03 80.39 73.97 75.27 75.83 70.92 63.89"/><polygon class="cls-3" points="70.92 63.89 73.71 62.87 76.05 62.03 80.39 73.97 75.27 75.84 70.92 63.89"/><polygon class="cls-12" points="81.17 60.16 78.38 61.18 76.05 62.03 80.39 73.97 85.52 72.1 81.17 60.16"/><polygon class="cls-3" points="81.17 60.16 78.38 61.18 76.05 62.02 80.39 73.97 85.52 72.1 81.17 60.16"/><line class="cls-4" x1="31.66" y1="34.05" x2="31.66" y2="30.81"/><polyline class="cls-4" points="35.12 34.05 31.66 30.81 28.2 34.05"/><polyline class="cls-4" points="35.12 30.81 31.66 34.05 28.2 30.81"/><line class="cls-4" x1="89.52" y1="66.92" x2="92.23" y2="65.94"/><polyline class="cls-4" points="90.72 70.21 92.23 65.94 88.32 63.63"/><polyline class="cls-4" points="93.43 69.23 89.52 66.92 91.03 62.65"/><line class="cls-5" x1="96.28" y1="71.02" x2="107.29" y2="75.6"/><line class="cls-5" x1="104.52" y1="67.99" x2="99.21" y2="79.07"/><line class="cls-4" x1="75.46" y1="15.93" x2="71.46" y2="19.31"/><line class="cls-4" x1="75.46" y1="19.31" x2="71.46" y2="15.93"/><line class="cls-4" x1="51.53" y1="43.52" x2="51.53" y2="47.12"/><line class="cls-4" x1="40.62" y1="43.52" x2="40.62" y2="47.12"/><line class="cls-4" x1="12.04" y1="26.78" x2="10.49" y2="26.78"/><line class="cls-4" x1="12.04" y1="23.82" x2="13.58" y2="23.1"/><line class="cls-4" x1="69.68" y1="60.5" x2="70.92" y2="63.89"/><line class="cls-4" x1="79.93" y1="56.76" x2="81.17" y2="60.16"/><line class="cls-4" x1="77.16" y1="34.67" x2="79.29" y2="34.67"/><polyline class="cls-4" points="104.99 62.55 106.48 62.01 108.51 67.58 104.85 68.91"/><line class="cls-4" x1="94.06" y1="45.76" x2="91.4" y2="45.76"/><line class="cls-4" x1="96.6" y1="66.02" x2="95.12" y2="66.56"/><polyline class="cls-4" points="98.02 65.32 96.54 65.86 97.51 68.53 96.04 69.07"/><line class="cls-4" x1="97.45" y1="68.37" x2="98.93" y2="67.83"/><polyline class="cls-4" points="59.87 75.07 58.52 75.56 60 79.63 61.48 79.09"/><line class="cls-4" x1="58.4" y1="79.86" x2="59.88" y2="79.32"/><line class="cls-4" x1="59.08" y1="77.1" x2="57.85" y2="78.33"/><polyline class="cls-4" points="97.22 33.07 95.65 33.07 95.65 30.07 94.06 30.07"/><line class="cls-4" x1="97.22" y1="30.4" x2="95.65" y2="30.4"/><line class="cls-4" x1="94.06" y1="32.74" x2="95.65" y2="32.74"/><polyline class="cls-4" points="46.84 72.65 46.22 72.88 44.98 69.49 53.49 66.39 54.73 69.78"/><polyline class="cls-4" points="57.62 68.73 56.39 65.33 60.04 64"/><line class="cls-4" x1="61.23" y1="63.57" x2="64.7" y2="62.31"/><rect class="cls-4" x="59.7" y="61.54" width="1.27" height="2.86" transform="translate(-17.9 24.44) rotate(-20)"/><rect class="cls-4" x="64.36" y="59.84" width="1.27" height="2.86" transform="translate(-17.04 25.93) rotate(-20)"/><rect class="cls-4" x="69.49" y="57.98" width="1.27" height="2.86" transform="translate(-16.09 27.57) rotate(-20)"/><rect class="cls-4" x="74.61" y="56.11" width="1.27" height="2.86" transform="translate(-15.14 29.21) rotate(-20)"/><rect class="cls-4" x="79.74" y="54.24" width="1.27" height="2.86" transform="translate(-14.2 30.85) rotate(-20)"/><line class="cls-4" x1="65.89" y1="61.87" x2="69.82" y2="60.44"/><line class="cls-4" x1="71.02" y1="60.01" x2="74.95" y2="58.58"/><line class="cls-4" x1="76.14" y1="58.14" x2="80.07" y2="56.71"/><polyline class="cls-4" points="81.27 56.28 82.96 55.66 84.2 59.06"/><line class="cls-4" x1="74.81" y1="58.63" x2="76.05" y2="62.02"/><line class="cls-4" x1="64.56" y1="62.36" x2="65.8" y2="65.76"/><rect class="cls-4" x="73.12" y="45.88" width="2.75" height="1.27"/><rect class="cls-4" x="73.12" y="44.38" width="2.75" height="1.27"/><line class="cls-4" x1="75.87" y1="45.65" x2="75.87" y2="45.88"/><line class="cls-4" x1="76.9" y1="45.76" x2="75.87" y2="45.76"/><polyline class="cls-4" points="75.15 47.15 75.15 52.07 78.75 52.07 78.75 51.53"/><rect class="cls-4" x="73.12" y="38.7" width="2.75" height="1.27"/><rect class="cls-4" x="73.12" y="33.25" width="2.75" height="1.27"/><line class="cls-4" x1="75.15" y1="23.24" x2="75.15" y2="33.25"/><line class="cls-4" x1="75.15" y1="34.52" x2="75.15" y2="38.71"/><line class="cls-4" x1="75.15" y1="39.98" x2="75.15" y2="44.38"/><line class="cls-4" x1="78.75" y1="40.13" x2="75.15" y2="40.12"/><line class="cls-4" x1="79.29" y1="34.67" x2="75.15" y2="34.67"/><line class="cls-4" x1="78.75" y1="29.22" x2="75.15" y2="29.22"/><line class="cls-4" x1="109.57" y1="23.4" x2="109.57" y2="45.46"/><line class="cls-4" x1="107.32" y1="40.13" x2="109.57" y2="40.13"/><line class="cls-4" x1="107.32" y1="34.8" x2="109.57" y2="34.8"/><polyline class="cls-4" points="109.57 46.07 109.57 51.27 107.32 51.27"/><rect class="cls-4" x="63.6" y="46.58" width="1.27" height="2.85"/><rect class="cls-4" x="51.68" y="46.58" width="1.27" height="2.85"/><rect class="cls-4" x="46.23" y="46.58" width="1.27" height="2.85"/><rect class="cls-4" x="40.95" y="46.58" width="1.27" height="2.85"/><rect class="cls-4" x="35.35" y="46.58" width="1.27" height="2.85"/><rect class="cls-4" x="27.95" y="46.58" width="1.27" height="2.85"/><rect class="cls-4" x="21.26" y="46.58" width="1.27" height="2.85"/><polyline class="cls-4" points="68.88 43.52 69.41 43.52 69.41 47.12 64.87 47.12"/><line class="cls-4" x1="63.6" y1="47.12" x2="59.19" y2="47.12"/><line class="cls-4" x1="57.37" y1="47.12" x2="52.95" y2="47.12"/><line class="cls-4" x1="51.68" y1="47.12" x2="47.5" y2="47.12"/><line class="cls-4" x1="46.23" y1="47.12" x2="42.23" y2="47.12"/><line class="cls-4" x1="40.95" y1="47.12" x2="36.63" y2="47.12"/><line class="cls-4" x1="35.35" y1="47.12" x2="29.23" y2="47.12"/><line class="cls-4" x1="27.95" y1="47.12" x2="22.54" y2="47.12"/><polyline class="cls-4" points="21.26 47.12 19.13 47.12 16.71 45.66 16.71 43.52 17.1 43.52"/><line class="cls-4" x1="46.08" y1="43.52" x2="46.08" y2="47.12"/><line class="cls-4" x1="35.17" y1="43.52" x2="35.17" y2="47.12"/><line class="cls-4" x1="22.68" y1="43.52" x2="22.68" y2="47.12"/><line class="cls-4" x1="59.19" y1="43.52" x2="59.19" y2="47.12"/><line class="cls-4" x1="57.37" y1="43.52" x2="57.37" y2="47.12"/><polyline class="cls-4" points="2 16.04 1.25 16.04 1.25 13.14 10.3 13.14 10.3 16.04"/><polyline class="cls-4" points="27.08 16.04 27.08 13.14 17.55 13.14 17.55 14.19 13.75 14.19 13.75 16.04"/><line class="cls-4" x1="22.17" y1="16.04" x2="22.17" y2="13.14"/><line class="cls-4" x1="12.04" y1="25.28" x2="10.49" y2="25.28"/><line class="cls-4" x1="12.04" y1="17.65" x2="10.49" y2="17.65"/><line class="cls-4" x1="12.04" y1="19.76" x2="13.58" y2="19.76"/><line class="cls-4" x1="12.04" y1="20.76" x2="13.58" y2="20.76"/><line class="cls-4" x1="12.04" y1="22.79" x2="13.58" y2="22.79"/><line class="cls-4" x1="58.84" y1="36.67" x2="60.39" y2="35.95"/><line class="cls-4" x1="58.84" y1="37.65" x2="60.39" y2="37.65"/><polyline class="cls-4" points="65.14 94.24 65.29 94.65 61.93 95.86 61.79 95.49"/><polyline class="cls-4" points="51.51 98.66 52.55 101.54 56.82 100 56.62 99.44 60.54 98.03 59.87 96.19"/><polyline class="cls-4" points="69.69 92.6 72.66 90.26 80.71 87.3 80.46 86.62 83.8 85.4 83.69 85.11"/><polyline class="cls-4" points="95.06 80.58 95.29 81.21 91.86 82.47 91.75 82.17"/><line class="cls-4" x1="72.62" y1="90.29" x2="72.25" y2="89.27"/><polygon class="cls-4" points="1.09 21.63 1.09 21.17 2 21.17 2 16.04 6.51 16.04 14.09 16.04 17.9 16.04 24.63 16.04 30.56 16.04 34.72 16.04 34.72 11.81 37.26 11.81 37.26 12.53 68.42 12.53 68.42 15.93 69.15 15.93 69.15 22.96 68.88 22.96 68.88 33.02 68.88 38.38 68.88 43.52 64.37 43.52 56.47 43.52 48.58 43.52 43.62 43.52 37.68 43.52 31.17 43.52 26.74 43.52 20.19 43.52 17.1 43.52 17.1 41.45 13.61 41.45 8.93 41.45 8.93 38.48 8.38 38.48 8.38 36.85 5.27 36.85 5.27 32.34 2 32.34 2 21.63 1.09 21.63"/><polyline class="cls-4" points="35.02 16.04 35.02 28.75 62.37 28.75 62.37 30.81 8.51 30.81 8.51 28.75 27.63 28.75 27.63 16.04"/><line class="cls-4" x1="8.51" y1="29.78" x2="2" y2="29.78"/><line class="cls-4" x1="13.47" y1="30.81" x2="13.47" y2="41.45"/><line class="cls-4" x1="22.68" y1="30.81" x2="22.68" y2="43.52"/><polyline class="cls-4" points="28.2 30.81 28.2 34.05 35.12 34.05 35.12 30.81"/><polyline class="cls-4" points="35.17 43.52 35.17 34.05 35.12 34.05"/><line class="cls-4" x1="40.62" y1="43.52" x2="40.62" y2="30.81"/><line class="cls-4" x1="46.08" y1="43.52" x2="46.08" y2="30.81"/><line class="cls-4" x1="51.53" y1="43.52" x2="51.53" y2="31.89"/><polyline class="cls-4" points="51.48 30.89 51.48 31.89 54.14 31.89 54.14 30.81"/><line class="cls-4" x1="57.3" y1="30.81" x2="57.3" y2="43.52"/><line class="cls-4" x1="60.39" y1="43.52" x2="60.39" y2="30.81"/><line class="cls-4" x1="68.88" y1="29.78" x2="62.38" y2="29.78"/><line class="cls-4" x1="22.17" y1="28.75" x2="22.17" y2="16.04"/><line class="cls-4" x1="10.49" y1="28.75" x2="10.49" y2="16.04"/><line class="cls-4" x1="13.58" y1="16.04" x2="13.58" y2="28.75"/><polyline class="cls-4" points="16.46 28.75 16.46 27.67 13.58 27.67"/><polyline class="cls-4" points="13.58 27.13 12.04 27.13 12.04 22.46"/><polygon class="cls-4" points="85.72 58.5 85.72 51.53 78.75 51.53 78.75 48.83 79.29 48.83 79.29 46.07 76.9 46.07 76.9 45.46 79.29 45.46 79.29 42.69 78.75 42.69 78.75 37.64 79.29 37.64 79.29 31.7 78.75 31.7 78.75 26.37 79.29 26.37 79.29 23.52 78.75 23.52 78.75 23.24 72.6 23.24 72.6 19.31 71.46 19.32 71.46 15.93 72.65 15.93 72.65 12.54 87.29 12.54 87.29 11.81 89.85 11.81 89.85 12.54 96.21 12.54 96.21 11.81 98.77 11.81 98.77 12.54 108.65 12.54 108.65 20.84 109.91 20.84 109.91 23.39 107.32 23.39 107.32 27.21 106.77 27.21 106.77 30.79 107.32 30.79 107.32 34.8 106.77 34.8 106.77 37.64 107.32 37.64 107.32 42.69 106.77 42.69 106.77 45.46 109.57 45.46 109.57 46.07 106.77 46.07 106.77 48.83 107.32 48.83 107.32 51.53 101.27 51.53 101.27 52.33 101.28 52.34 105.08 62.79 104.53 62.99 106.03 67.11 106.55 66.92 106.69 67.31 104.56 68.08 107.29 75.61 103.22 77.09 103.39 77.55 95.01 80.6 94.51 79.22 91.17 80.44 91.8 82.16 83.69 85.11 83.07 83.39 79.73 84.6 80.35 86.32 72.25 89.27 71.62 87.55 68.28 88.77 69.69 92.6 65.14 94.24 64.53 92.56 61.17 93.78 61.79 95.49 55.93 97.63 55.74 97.11 51.51 98.66 50.11 94.83 49.6 95.02 48.16 91.06 50.43 90.24 49.01 86.35 50.98 85.63 48.09 77.67 48.6 77.49 46.84 72.65 50.95 71.16 58.2 68.52 61.78 67.22 68.13 64.91 73.71 62.88 78.38 61.18 85.72 58.5"/><polyline class="cls-4" points="93.43 69.23 91.03 62.65 88.32 63.63 90.72 70.21"/><polyline class="cls-4" points="88.71 63.49 88.71 62.39 90.64 62.39 90.76 62.75"/><polyline class="cls-4" points="91.03 62.65 90.98 62.51 92 62.13 92 53.42 87.85 53.42 87.85 54.03 85.72 54.03"/><polyline class="cls-4" points="92 59.35 90.86 59.35 90.86 62.39 90.64 62.39"/><polyline class="cls-4" points="92 23.34 90.92 23.34 90.92 26.08 92 26.08"/><polyline class="cls-4" points="94.06 28.23 97.22 28.23 97.22 34.68 94.06 34.68"/><polyline class="cls-4" points="94.45 64.75 97.42 63.67 99.64 69.77 96.69 70.84"/><line class="cls-4" x1="57.7" y1="68.7" x2="62.05" y2="80.65"/><polyline class="cls-4" points="64.76 79.66 64.39 78.64 61.68 79.63"/><line class="cls-4" x1="94.06" y1="23.4" x2="107.32" y2="23.4"/><polyline class="cls-4" points="106.77 34.8 106.77 34.67 97.22 34.67"/><line class="cls-4" x1="107.32" y1="40.13" x2="94.06" y2="40.13"/><line class="cls-4" x1="94.06" y1="45.76" x2="109.57" y2="45.76"/><line class="cls-4" x1="76.9" y1="45.76" x2="91.4" y2="45.76"/><polyline class="cls-4" points="94.06 59.08 99.77 59.08 103.27 57.81"/><polyline class="cls-4" points="104.56 68.08 104.52 67.99 99.64 69.76"/><line class="cls-4" x1="99.21" y1="79.07" x2="96.28" y2="71.02"/><polyline class="cls-4" points="83.07 83.39 83.16 83.35 80.53 76.11"/><polyline class="cls-4" points="61.17 93.78 61.05 93.83 57.63 84.45"/><polyline class="cls-4" points="50.98 85.63 51.03 85.75 55.45 84.14"/><line class="cls-4" x1="54.73" y1="69.78" x2="59.08" y2="81.73"/><line class="cls-4" x1="65.79" y1="65.76" x2="70.14" y2="77.7"/><line class="cls-4" x1="70.92" y1="63.89" x2="75.27" y2="75.84"/><line class="cls-4" x1="76.05" y1="62.03" x2="80.39" y2="73.97"/><line class="cls-4" x1="81.17" y1="60.16" x2="85.52" y2="72.1"/><polyline class="cls-4" points="85.72 57.92 85.85 57.92 85.85 58.83 88.77 58.83 88.77 62.39"/><line class="cls-4" x1="78.75" y1="40.13" x2="92" y2="40.13"/><line class="cls-4" x1="79.29" y1="34.67" x2="92" y2="34.67"/><line class="cls-4" x1="78.75" y1="29.22" x2="92" y2="29.22"/><polyline class="cls-4" points="79.29 23.52 79.29 23.4 90.92 23.4"/><polyline class="cls-4" points="56.43 74.45 57.9 73.91 56.21 69.25"/><polyline class="cls-4" points="93.43 69.23 55.1 83.17 55.81 85.11 94.19 71.14 94.4 71.71 96.7 70.87 94.06 63.69 94.06 23.34 92 23.34 92 42.94 91.4 43.29 91.4 48.23 91.75 48.43 92 48.58 92 51.4 85.72 51.4 85.72 51.53"/><polyline class="cls-4" points="72.65 15.93 75.46 15.93 75.46 19.32 72.6 19.31"/><polyline class="cls-4" points="10.49 21.02 12.04 21.02 12.04 16.04"/><polyline class="cls-4" points="58.84 40.31 58.84 32.69 60.39 32.69"/><polyline class="cls-4" points="95.83 23.4 95.83 21.45 89.49 21.45 89.49 23.4"/><polyline class="cls-4" points="71.62 87.55 71.72 87.52 69.08 80.28"/><g class="cls-1"><rect class="cls-4" x="-312.67" y="-436.49" width="450.14" height="582.54"/></g><g class="cls-10"><path d="M13.21,89.61h-1v-9.51c-5.03,.26-9.03,4.41-9.03,9.51s4.27,9.53,9.53,9.53,9.53-4.27,9.53-9.53-4-9.25-9.03-9.51v9.51Z"/></g><polygon class="cls-11" points="13.94 76.48 13.94 73.13 14.33 73.13 14.33 77.2 14.01 77.2 11.47 73.69 11.47 77.2 11.08 77.2 11.08 73.13 11.54 73.13 13.94 76.48"/><g><path class="cls-11" d="M87.8,95.59v3.91h2.46v.5h-3.07v-4.41h.61Z"/><path class="cls-11" d="M94,100h-3.15v-4.41h3.08v.5h-2.49v1.39h1.98v.5h-1.98v1.52h2.56v.5Z"/><path class="cls-11" d="M96.08,100l-1.77-4.41h.62l1.49,3.71h.03l1.45-3.71h.62l-1.78,4.41h-.66Z"/><path class="cls-11" d="M102.17,100h-3.15v-4.41h3.08v.5h-2.49v1.39h1.98v.5h-1.98v1.52h2.56v.5Z"/><path class="cls-11" d="M103.47,95.59v3.91h2.46v.5h-3.07v-4.41h.61Z"/><path class="cls-11" d="M107.43,96.23c.62,0,.88-.21,1.04-.67h.4v4.44h-.61v-3.38h-.83v-.39Z"/></g><g class="cls-8"><rect class="cls-7" x="-503.25" y="-631.52" width="678.3" height="877.8"/></g><g><path class="cls-11" d="M6.13,3.77h.02l.65-2.62h.41l-.81,3.15h-.5l-.66-2.52h-.02l-.67,2.52h-.5l-.81-3.15h.42l.66,2.61h.02l.69-2.61h.41l.7,2.62Z"/><path class="cls-11" d="M9.81,4.3h-2.25V1.15h2.2v.36h-1.78v.99h1.42v.36h-1.42v1.09h1.83v.36Z"/><path class="cls-11" d="M10.45,3.15c.02,.58,.42,.87,.95,.87,.47,0,.77-.2,.77-.55,0-.29-.19-.43-.6-.51l-.62-.12c-.47-.09-.79-.34-.79-.83,0-.55,.44-.93,1.13-.93,.79,0,1.25,.42,1.25,1.13l-.4,.02c-.02-.52-.33-.82-.85-.82-.46,0-.71,.22-.71,.57,0,.31,.21,.41,.57,.48l.57,.11c.58,.11,.87,.36,.87,.87,0,.58-.5,.92-1.18,.92-.78,0-1.34-.43-1.34-1.19l.39-.03Z"/><path class="cls-11" d="M13.84,4.3V1.51h-1.15v-.36h2.74v.36h-1.17v2.79h-.43Z"/><path class="cls-11" d="M18.08,4.3h-1.34V1.15h1.29c.78,0,1.1,.34,1.1,.84,0,.37-.26,.62-.6,.68,.39,.07,.69,.32,.69,.77,0,.55-.4,.87-1.14,.87Zm-.92-1.79h.88c.46,0,.65-.2,.65-.5s-.19-.51-.65-.51h-.88v1.01Zm0,.34v1.1h.91c.47,0,.72-.21,.72-.54s-.25-.56-.72-.56h-.91Z"/><path class="cls-11" d="M19.66,3.09V1.15h.43v1.95c0,.6,.3,.9,.85,.9s.86-.29,.86-.89V1.15h.42v1.95c0,.92-.57,1.27-1.28,1.27s-1.28-.35-1.28-1.27Z"/><path class="cls-11" d="M23.21,1.15v3.15h-.43V1.15h.43Z"/><path class="cls-11" d="M24.26,1.15V3.94h1.76v.36h-2.19V1.15h.43Z"/><path class="cls-11" d="M26.44,1.15h1.14c.99,0,1.62,.59,1.62,1.58s-.63,1.58-1.62,1.58h-1.14V1.15Zm1.12,2.8c.77,0,1.19-.46,1.19-1.22s-.42-1.22-1.19-1.22h-.68V3.94h.68Z"/><path class="cls-11" d="M30.09,1.15v3.15h-.44V1.15h.44Z"/><path class="cls-11" d="M32.88,3.56V1.15h.41v3.15h-.35l-1.83-2.53v2.53h-.41V1.15h.45l1.73,2.41Z"/><path class="cls-11" d="M33.75,2.72c0-.97,.67-1.64,1.54-1.64s1.41,.5,1.46,1.3l-.42,.03c-.04-.58-.41-.96-1.04-.96s-1.1,.49-1.1,1.27,.46,1.27,1.14,1.27c.59,0,.97-.37,1.03-.91h-.96v-.34h1.36v1.56h-.4v-.56c-.14,.4-.58,.62-1.08,.62-.89,0-1.54-.66-1.54-1.64Z"/></g><g><path class="cls-11" d="M78.96,4.3h-2.25V1.15h2.2v.36h-1.78v.99h1.42v.36h-1.42v1.09h1.83v.36Z"/><path class="cls-11" d="M80.97,1.15l1.31,3.15h-.46l-.38-.93h-1.44l-.37,.93h-.42l1.29-3.15h.48Zm-.83,1.88h1.16l-.58-1.4h-.02l-.57,1.4Z"/><path class="cls-11" d="M82.81,3.15c.02,.58,.42,.87,.95,.87,.47,0,.77-.2,.77-.55,0-.29-.19-.43-.6-.51l-.62-.12c-.47-.09-.79-.34-.79-.83,0-.55,.44-.93,1.13-.93,.79,0,1.25,.42,1.25,1.13l-.4,.02c-.02-.52-.33-.82-.85-.82-.46,0-.71,.22-.71,.57,0,.31,.21,.41,.57,.48l.57,.11c.58,.11,.87,.36,.87,.87,0,.58-.5,.92-1.18,.92-.78,0-1.34-.43-1.34-1.19l.39-.03Z"/><path class="cls-11" d="M86.2,4.3V1.51h-1.15v-.36h2.74v.36h-1.17v2.79h-.43Z"/><path class="cls-11" d="M90.44,4.3h-1.34V1.15h1.29c.78,0,1.1,.34,1.1,.84,0,.37-.26,.62-.6,.68,.39,.07,.69,.32,.69,.77,0,.55-.4,.87-1.14,.87Zm-.92-1.79h.88c.46,0,.65-.2,.65-.5s-.2-.51-.65-.51h-.88v1.01Zm0,.34v1.1h.91c.47,0,.72-.21,.72-.54s-.25-.56-.72-.56h-.91Z"/><path class="cls-11" d="M92.02,3.09V1.15h.43v1.95c0,.6,.3,.9,.85,.9s.86-.29,.86-.89V1.15h.43v1.95c0,.92-.57,1.27-1.28,1.27s-1.28-.35-1.28-1.27Z"/><path class="cls-11" d="M95.57,1.15v3.15h-.44V1.15h.44Z"/><path class="cls-11" d="M96.62,1.15V3.94h1.76v.36h-2.19V1.15h.44Z"/><path class="cls-11" d="M98.8,1.15h1.14c.99,0,1.62,.59,1.62,1.58s-.62,1.58-1.62,1.58h-1.14V1.15Zm1.12,2.8c.77,0,1.19-.46,1.19-1.22s-.42-1.22-1.19-1.22h-.68V3.94h.68Z"/><path class="cls-11" d="M102.45,1.15v3.15h-.43V1.15h.43Z"/><path class="cls-11" d="M105.24,3.56V1.15h.41v3.15h-.34l-1.83-2.53v2.53h-.41V1.15h.45l1.73,2.41Z"/><path class="cls-11" d="M106.11,2.72c0-.97,.67-1.64,1.54-1.64s1.41,.5,1.46,1.3l-.42,.03c-.04-.58-.41-.96-1.04-.96s-1.1,.49-1.1,1.27,.46,1.27,1.14,1.27c.59,0,.97-.37,1.03-.91h-.96v-.34h1.36v1.56h-.4v-.56c-.14,.4-.58,.62-1.08,.62-.89,0-1.54-.66-1.54-1.64Z"/></g></g></g></g></svg>