<?xml version="1.0" encoding="UTF-8"?><svg xmlns="http://www.w3.org/2000/svg" xmlns:xlink="http://www.w3.org/1999/xlink" viewBox="0 0 116.77 102.33"><defs><style>.cls-1{isolation:isolate;}.cls-2{stroke:#ebebec;}.cls-2,.cls-3,.cls-4{stroke-width:.31px;}.cls-2,.cls-3,.cls-4,.cls-5,.cls-6{fill:none;}.cls-2,.cls-3,.cls-4,.cls-6{stroke-linecap:round;stroke-linejoin:round;}.cls-3,.cls-4,.cls-6{stroke:#000;}.cls-7{fill:#f1b784;fill-rule:evenodd;}.cls-4{stroke-dasharray:0 0 3.94 1.97;}.cls-8{clip-path:url(#clippath);}.cls-9{clip-path:url(#clippath-3);}.cls-10{clip-path:url(#clippath-5);}.cls-11{fill:#333132;}.cls-6{stroke-width:.47px;}</style><clipPath id="clippath"><rect class="cls-5" x="-349.59" y="-648.06" width="612" height="792"/></clipPath><clipPath id="clippath-3"><rect class="cls-5" x="-29.39" y="1.34" width="290.4" height="108"/></clipPath><clipPath id="clippath-5"><rect class="cls-5" x="-349.59" y="-509.65" width="612" height="489.72"/></clipPath><clipPath id="clippath-6"><rect class="cls-5" x="-349.59" y="-648.06" width="612" height="792"/></clipPath></defs><g class="cls-1"><g id="Layer_1"><g class="cls-8"><polygon class="cls-7" points="103.47 57.38 99.97 58.65 94.26 58.65 94.26 63.26 94.65 64.32 97.62 63.24 99.84 69.33 103.52 67.99 103.56 68.12 105.25 67.5 105.07 66.99 106.23 66.56 104.78 62.57 105.29 62.38 103.47 57.38"/><polygon class="cls-2" points="103.47 57.38 99.97 58.65 94.26 58.65 94.26 63.26 94.65 64.32 97.62 63.24 99.84 69.33 103.51 67.99 103.56 68.12 105.25 67.5 105.07 66.99 106.23 66.56 104.78 62.57 105.29 62.38 103.47 57.38"/><line class="cls-3" x1="31.86" y1="33.62" x2="31.86" y2="30.38"/><polyline class="cls-3" points="35.32 33.62 31.86 30.38 28.4 33.62"/><polyline class="cls-3" points="35.32 30.38 31.86 33.62 28.4 30.38"/><line class="cls-3" x1="89.72" y1="66.49" x2="92.43" y2="65.5"/><polyline class="cls-3" points="90.92 69.78 92.43 65.5 88.52 63.2"/><polyline class="cls-3" points="93.63 68.79 89.72 66.49 91.23 62.22"/><line class="cls-4" x1="96.48" y1="70.59" x2="107.49" y2="75.17"/><line class="cls-4" x1="104.72" y1="67.55" x2="99.41" y2="78.64"/><line class="cls-3" x1="75.66" y1="15.5" x2="71.66" y2="18.88"/><line class="cls-3" x1="75.66" y1="18.88" x2="71.66" y2="15.5"/><line class="cls-3" x1="51.73" y1="43.09" x2="51.73" y2="46.69"/><line class="cls-3" x1="40.83" y1="43.09" x2="40.83" y2="46.69"/><line class="cls-3" x1="12.24" y1="26.35" x2="10.7" y2="26.35"/><line class="cls-3" x1="12.24" y1="23.39" x2="13.79" y2="22.67"/><line class="cls-3" x1="69.89" y1="60.06" x2="71.12" y2="63.46"/><line class="cls-3" x1="80.14" y1="56.33" x2="81.37" y2="59.73"/><line class="cls-3" x1="77.36" y1="34.24" x2="79.49" y2="34.24"/><polyline class="cls-3" points="105.19 62.12 106.68 61.58 108.71 67.14 105.06 68.47"/><line class="cls-3" x1="94.26" y1="45.33" x2="91.6" y2="45.33"/><line class="cls-3" x1="96.8" y1="65.59" x2="95.32" y2="66.13"/><polyline class="cls-3" points="98.22 64.89 96.74 65.43 97.71 68.1 96.24 68.64"/><line class="cls-3" x1="97.65" y1="67.94" x2="99.13" y2="67.4"/><polyline class="cls-3" points="60.07 74.64 58.72 75.13 60.2 79.2 61.68 78.66"/><line class="cls-3" x1="58.6" y1="79.43" x2="60.09" y2="78.89"/><line class="cls-3" x1="59.28" y1="76.67" x2="58.05" y2="77.9"/><polyline class="cls-3" points="97.43 32.64 95.85 32.64 95.85 29.64 94.26 29.64"/><line class="cls-3" x1="97.43" y1="29.97" x2="95.85" y2="29.97"/><line class="cls-3" x1="94.26" y1="32.31" x2="95.85" y2="32.31"/><polyline class="cls-3" points="47.04 72.22 46.42 72.45 45.19 69.05 53.7 65.95 54.94 69.35"/><polyline class="cls-3" points="57.82 68.3 56.59 64.9 60.24 63.57"/><line class="cls-3" x1="61.44" y1="63.14" x2="64.9" y2="61.88"/><rect class="cls-3" x="59.9" y="61.11" width="1.27" height="2.86" transform="translate(-17.74 24.48) rotate(-20)"/><rect class="cls-3" x="64.56" y="59.41" width="1.27" height="2.86" transform="translate(-16.88 25.97) rotate(-20)"/><rect class="cls-3" x="69.69" y="57.54" width="1.27" height="2.86" transform="translate(-15.93 27.61) rotate(-20)"/><rect class="cls-3" x="74.81" y="55.68" width="1.27" height="2.86" transform="translate(-14.98 29.25) rotate(-20)"/><rect class="cls-3" x="79.94" y="53.81" width="1.27" height="2.86" transform="translate(-14.04 30.89) rotate(-20)"/><line class="cls-3" x1="66.1" y1="61.44" x2="70.02" y2="60.01"/><line class="cls-3" x1="71.22" y1="59.58" x2="75.15" y2="58.15"/><line class="cls-3" x1="76.35" y1="57.71" x2="80.27" y2="56.28"/><polyline class="cls-3" points="81.47 55.85 83.16 55.23 84.4 58.63"/><line class="cls-3" x1="75.01" y1="58.2" x2="76.25" y2="61.59"/><line class="cls-3" x1="64.76" y1="61.93" x2="66" y2="65.32"/><rect class="cls-3" x="73.32" y="45.45" width="2.75" height="1.27"/><rect class="cls-3" x="73.32" y="43.94" width="2.75" height="1.27"/><line class="cls-3" x1="76.07" y1="45.22" x2="76.07" y2="45.45"/><line class="cls-3" x1="77.1" y1="45.33" x2="76.07" y2="45.33"/><polyline class="cls-3" points="75.35 46.72 75.35 51.64 78.95 51.64 78.95 51.1"/><rect class="cls-3" x="73.32" y="38.27" width="2.75" height="1.27"/><rect class="cls-3" x="73.32" y="32.82" width="2.75" height="1.27"/><line class="cls-3" x1="75.35" y1="22.8" x2="75.35" y2="32.82"/><line class="cls-3" x1="75.35" y1="34.09" x2="75.35" y2="38.27"/><line class="cls-3" x1="75.35" y1="39.55" x2="75.35" y2="43.94"/><line class="cls-3" x1="78.95" y1="39.69" x2="75.35" y2="39.68"/><line class="cls-3" x1="79.49" y1="34.24" x2="75.35" y2="34.24"/><line class="cls-3" x1="78.95" y1="28.78" x2="75.35" y2="28.78"/><line class="cls-3" x1="109.77" y1="22.96" x2="109.77" y2="45.03"/><line class="cls-3" x1="107.52" y1="39.69" x2="109.77" y2="39.69"/><line class="cls-3" x1="107.52" y1="34.37" x2="109.77" y2="34.37"/><polyline class="cls-3" points="109.77 45.64 109.77 50.84 107.52 50.84"/><rect class="cls-3" x="63.8" y="46.15" width="1.27" height="2.85"/><rect class="cls-3" x="51.88" y="46.15" width="1.27" height="2.85"/><rect class="cls-3" x="46.43" y="46.15" width="1.27" height="2.85"/><rect class="cls-3" x="41.16" y="46.15" width="1.27" height="2.85"/><rect class="cls-3" x="35.56" y="46.15" width="1.27" height="2.85"/><rect class="cls-3" x="28.15" y="46.15" width="1.27" height="2.85"/><rect class="cls-3" x="21.46" y="46.15" width="1.27" height="2.85"/><polyline class="cls-3" points="69.08 43.09 69.61 43.09 69.61 46.69 65.07 46.69"/><line class="cls-3" x1="63.8" y1="46.69" x2="59.39" y2="46.69"/><line class="cls-3" x1="57.58" y1="46.69" x2="53.15" y2="46.69"/><line class="cls-3" x1="51.88" y1="46.69" x2="47.7" y2="46.69"/><line class="cls-3" x1="46.43" y1="46.69" x2="42.43" y2="46.69"/><line class="cls-3" x1="41.16" y1="46.69" x2="36.83" y2="46.69"/><line class="cls-3" x1="35.56" y1="46.69" x2="29.43" y2="46.69"/><line class="cls-3" x1="28.15" y1="46.69" x2="22.74" y2="46.69"/><polyline class="cls-3" points="21.46 46.69 19.33 46.69 16.91 45.23 16.91 43.09 17.3 43.09"/><line class="cls-3" x1="46.28" y1="43.09" x2="46.28" y2="46.69"/><line class="cls-3" x1="35.37" y1="43.09" x2="35.37" y2="46.69"/><line class="cls-3" x1="22.88" y1="43.09" x2="22.88" y2="46.69"/><line class="cls-3" x1="59.39" y1="43.09" x2="59.39" y2="46.69"/><line class="cls-3" x1="57.58" y1="43.09" x2="57.58" y2="46.69"/><polyline class="cls-3" points="2.2 15.61 1.45 15.61 1.45 12.71 10.5 12.71 10.5 15.61"/><polyline class="cls-3" points="27.28 15.61 27.28 12.71 17.75 12.71 17.75 13.76 13.95 13.76 13.95 15.61"/><line class="cls-3" x1="22.37" y1="15.61" x2="22.37" y2="12.71"/><line class="cls-3" x1="12.24" y1="24.85" x2="10.7" y2="24.85"/><line class="cls-3" x1="12.24" y1="17.22" x2="10.7" y2="17.22"/><line class="cls-3" x1="12.24" y1="19.33" x2="13.79" y2="19.33"/><line class="cls-3" x1="12.24" y1="20.33" x2="13.79" y2="20.33"/><line class="cls-3" x1="12.24" y1="22.36" x2="13.79" y2="22.36"/><line class="cls-3" x1="59.04" y1="36.24" x2="60.59" y2="35.52"/><line class="cls-3" x1="59.04" y1="37.21" x2="60.59" y2="37.21"/><polyline class="cls-3" points="65.34 93.81 65.49 94.22 62.13 95.43 61.99 95.06"/><polyline class="cls-3" points="51.71 98.22 52.75 101.11 57.02 99.56 56.82 99.01 60.74 97.6 60.07 95.76"/><polyline class="cls-3" points="69.89 92.17 72.86 89.83 80.91 86.87 80.66 86.18 84 84.96 83.89 84.67"/><polyline class="cls-3" points="95.26 80.15 95.49 80.78 92.06 82.03 91.96 81.74"/><line class="cls-3" x1="72.82" y1="89.86" x2="72.45" y2="88.84"/><polygon class="cls-3" points="1.29 21.2 1.29 20.74 2.2 20.74 2.2 15.61 6.71 15.61 14.29 15.61 18.1 15.61 24.83 15.61 30.77 15.61 34.92 15.61 34.92 11.38 37.47 11.38 37.47 12.1 68.62 12.1 68.62 15.5 69.35 15.5 69.35 22.52 69.08 22.52 69.08 32.59 69.08 37.95 69.08 43.09 64.57 43.09 56.67 43.09 48.78 43.09 43.83 43.09 37.89 43.09 31.37 43.09 26.94 43.09 20.39 43.09 17.3 43.09 17.3 41.02 13.81 41.02 9.13 41.02 9.13 38.05 8.58 38.05 8.58 36.42 5.47 36.42 5.47 31.91 2.2 31.91 2.2 21.2 1.29 21.2"/><polyline class="cls-3" points="35.22 15.61 35.22 28.32 62.58 28.32 62.58 30.38 8.71 30.38 8.71 28.32 27.83 28.32 27.83 15.61"/><line class="cls-3" x1="8.71" y1="29.35" x2="2.2" y2="29.35"/><line class="cls-3" x1="13.67" y1="30.38" x2="13.67" y2="41.02"/><line class="cls-3" x1="22.88" y1="30.38" x2="22.88" y2="43.09"/><polyline class="cls-3" points="28.4 30.38 28.4 33.62 35.32 33.62 35.32 30.38"/><polyline class="cls-3" points="35.37 43.09 35.37 33.62 35.32 33.62"/><line class="cls-3" x1="40.83" y1="43.09" x2="40.83" y2="30.38"/><line class="cls-3" x1="46.28" y1="43.09" x2="46.28" y2="30.38"/><line class="cls-3" x1="51.73" y1="43.09" x2="51.73" y2="31.46"/><polyline class="cls-3" points="51.68 30.46 51.68 31.46 54.34 31.46 54.34 30.38"/><line class="cls-3" x1="57.5" y1="30.38" x2="57.5" y2="43.09"/><line class="cls-3" x1="60.59" y1="43.09" x2="60.59" y2="30.38"/><line class="cls-3" x1="69.08" y1="29.35" x2="62.58" y2="29.35"/><line class="cls-3" x1="22.37" y1="28.32" x2="22.37" y2="15.61"/><line class="cls-3" x1="10.7" y1="28.32" x2="10.7" y2="15.61"/><line class="cls-3" x1="13.79" y1="15.61" x2="13.79" y2="28.32"/><polyline class="cls-3" points="16.66 28.32 16.66 27.23 13.79 27.23"/><polyline class="cls-3" points="13.79 26.69 12.24 26.69 12.24 22.03"/><polygon class="cls-3" points="85.92 58.07 85.92 51.1 78.95 51.1 78.95 48.4 79.49 48.4 79.49 45.63 77.11 45.64 77.11 45.03 79.49 45.03 79.49 42.26 78.95 42.26 78.95 37.21 79.49 37.21 79.49 31.27 78.95 31.27 78.95 25.93 79.49 25.93 79.49 23.09 78.95 23.09 78.95 22.8 72.8 22.8 72.8 18.88 71.66 18.88 71.66 15.5 72.85 15.5 72.85 12.1 87.5 12.1 87.5 11.38 90.06 11.38 90.06 12.1 96.41 12.1 96.41 11.38 98.97 11.38 98.97 12.1 108.85 12.1 108.85 20.41 110.11 20.41 110.11 22.96 107.52 22.96 107.52 26.77 106.98 26.77 106.98 30.36 107.52 30.36 107.52 34.37 106.98 34.37 106.98 37.21 107.52 37.21 107.52 42.26 106.98 42.26 106.98 45.03 109.77 45.03 109.77 45.64 106.98 45.64 106.98 48.4 107.52 48.4 107.52 51.1 101.47 51.1 101.47 51.9 101.48 51.91 105.28 62.36 104.73 62.56 106.23 66.68 106.75 66.49 106.89 66.87 104.76 67.65 107.49 75.17 103.42 76.66 103.59 77.12 95.22 80.17 94.71 78.79 91.38 80 92 81.72 83.89 84.67 83.27 82.95 79.93 84.17 80.56 85.89 72.45 88.84 71.82 87.12 68.48 88.34 69.89 92.17 65.35 93.81 64.73 92.13 61.37 93.35 61.99 95.06 56.13 97.19 55.95 96.68 51.71 98.22 50.32 94.4 49.8 94.59 48.36 90.63 50.63 89.8 49.22 85.92 51.19 85.2 48.29 77.24 48.8 77.06 47.04 72.22 51.15 70.73 58.4 68.09 61.99 66.78 68.33 64.47 73.91 62.44 78.58 60.74 85.92 58.07"/><polyline class="cls-3" points="93.63 68.79 91.23 62.22 88.53 63.2 90.92 69.78"/><polyline class="cls-3" points="88.92 63.06 88.92 61.96 90.84 61.96 90.97 62.31"/><polyline class="cls-3" points="91.23 62.22 91.18 62.07 92.2 61.7 92.2 52.99 88.05 52.99 88.05 53.59 85.92 53.59"/><polyline class="cls-3" points="92.2 58.91 91.06 58.91 91.06 61.96 90.84 61.96"/><polyline class="cls-3" points="92.2 22.91 91.12 22.91 91.12 25.64 92.2 25.64"/><polyline class="cls-3" points="94.26 27.8 97.43 27.8 97.43 34.24 94.26 34.24"/><polyline class="cls-3" points="94.65 64.32 97.62 63.24 99.84 69.34 96.89 70.41"/><line class="cls-3" x1="57.9" y1="68.27" x2="62.25" y2="80.21"/><polyline class="cls-3" points="64.97 79.23 64.59 78.21 61.88 79.2"/><line class="cls-3" x1="94.26" y1="22.96" x2="107.52" y2="22.96"/><polyline class="cls-3" points="106.98 34.37 106.98 34.24 97.43 34.24"/><line class="cls-3" x1="107.52" y1="39.69" x2="94.26" y2="39.69"/><line class="cls-3" x1="94.26" y1="45.33" x2="109.77" y2="45.33"/><line class="cls-3" x1="77.1" y1="45.33" x2="91.6" y2="45.33"/><polyline class="cls-3" points="94.26 58.65 99.97 58.65 103.47 57.38"/><polyline class="cls-3" points="104.76 67.65 104.72 67.56 99.84 69.33"/><line class="cls-3" x1="99.41" y1="78.64" x2="96.48" y2="70.59"/><polyline class="cls-3" points="83.27 82.95 83.36 82.92 80.73 75.68"/><polyline class="cls-3" points="61.37 93.35 61.25 93.4 57.84 84.01"/><polyline class="cls-3" points="51.19 85.2 51.23 85.32 55.65 83.71"/><line class="cls-3" x1="54.94" y1="69.35" x2="59.28" y2="81.29"/><line class="cls-3" x1="66" y1="65.32" x2="70.34" y2="77.27"/><line class="cls-3" x1="71.12" y1="63.46" x2="75.47" y2="75.4"/><line class="cls-3" x1="76.25" y1="61.59" x2="80.6" y2="73.54"/><line class="cls-3" x1="81.37" y1="59.73" x2="85.72" y2="71.67"/><polyline class="cls-3" points="85.92 57.49 86.05 57.49 86.05 58.4 88.97 58.4 88.97 61.96"/><line class="cls-3" x1="78.95" y1="39.69" x2="92.2" y2="39.69"/><line class="cls-3" x1="79.49" y1="34.24" x2="92.2" y2="34.24"/><line class="cls-3" x1="78.95" y1="28.78" x2="92.2" y2="28.78"/><polyline class="cls-3" points="79.49 23.09 79.49 22.96 91.12 22.96"/><polyline class="cls-3" points="56.63 74.02 58.11 73.48 56.41 68.81"/><polyline class="cls-3" points="93.63 68.79 55.3 82.74 56.01 84.68 94.4 70.71 94.6 71.28 96.9 70.44 94.26 63.26 94.26 22.91 92.2 22.91 92.2 42.5 91.6 42.85 91.6 47.8 91.96 48 92.2 48.14 92.2 50.97 85.92 50.97 85.92 51.1"/><polyline class="cls-3" points="72.85 15.5 75.66 15.5 75.66 18.88 72.8 18.88"/><polyline class="cls-3" points="10.7 20.59 12.24 20.59 12.24 15.61"/><polyline class="cls-3" points="59.04 39.87 59.04 32.26 60.59 32.26"/><polyline class="cls-3" points="96.03 22.96 96.03 21.02 89.69 21.02 89.69 22.96"/><polyline class="cls-3" points="71.82 87.12 71.92 87.09 69.28 79.85"/><g class="cls-9"><rect class="cls-3" x="-101.27" y="-436.92" width="450.14" height="582.54"/></g><g><path class="cls-11" d="M93.84,95.23v3.91h2.46v.5h-3.07v-4.41h.61Z"/><path class="cls-11" d="M100.04,99.64h-3.15v-4.41h3.08v.5h-2.49v1.39h1.98v.5h-1.98v1.52h2.56v.5Z"/><path class="cls-11" d="M102.12,99.64l-1.77-4.41h.62l1.49,3.71h.03l1.45-3.71h.62l-1.78,4.41h-.66Z"/><path class="cls-11" d="M108.21,99.64h-3.15v-4.41h3.08v.5h-2.49v1.39h1.98v.5h-1.98v1.52h2.56v.5Z"/><path class="cls-11" d="M109.51,95.23v3.91h2.46v.5h-3.07v-4.41h.61Z"/><path class="cls-11" d="M113.47,95.87c.62,0,.88-.21,1.04-.67h.4v4.44h-.61v-3.38h-.83v-.39Z"/></g><g class="cls-10"><rect class="cls-6" x="-380.21" y="-634.81" width="678.3" height="877.8"/></g><g><path class="cls-11" d="M5.77,4.36h.02l.65-2.62h.41l-.81,3.15h-.5l-.66-2.52h-.02l-.67,2.52h-.5l-.81-3.15h.42l.66,2.61h.02l.69-2.61h.41l.7,2.62Z"/><path class="cls-11" d="M9.45,4.89h-2.25V1.74h2.2v.36h-1.78v.99h1.42v.36h-1.42v1.09h1.83v.36Z"/><path class="cls-11" d="M10.09,3.74c.03,.58,.42,.87,.95,.87,.47,0,.77-.2,.77-.55,0-.29-.19-.43-.6-.51l-.62-.12c-.47-.09-.79-.34-.79-.83,0-.55,.44-.93,1.13-.93,.79,0,1.25,.42,1.25,1.13l-.39,.02c-.02-.52-.33-.82-.85-.82-.46,0-.71,.21-.71,.57,0,.31,.21,.41,.57,.48l.57,.11c.58,.11,.87,.36,.87,.87,0,.58-.5,.92-1.18,.92-.78,0-1.34-.42-1.34-1.19l.39-.03Z"/><path class="cls-11" d="M13.48,4.89V2.1h-1.15v-.36h2.74v.36h-1.17v2.79h-.43Z"/><path class="cls-11" d="M17.72,4.89h-1.34V1.74h1.29c.78,0,1.1,.34,1.1,.84,0,.37-.26,.62-.6,.68,.39,.07,.69,.32,.69,.77,0,.55-.4,.87-1.14,.87Zm-.92-1.79h.88c.46,0,.65-.2,.65-.5s-.2-.51-.65-.51h-.88v1.01Zm0,.34v1.1h.91c.47,0,.72-.21,.72-.55s-.25-.55-.72-.55h-.91Z"/><path class="cls-11" d="M19.3,3.68V1.74h.43v1.95c0,.6,.3,.9,.85,.9s.86-.29,.86-.89V1.74h.43v1.95c0,.92-.57,1.27-1.28,1.27s-1.28-.34-1.28-1.27Z"/><path class="cls-11" d="M22.85,1.74v3.15h-.44V1.74h.44Z"/><path class="cls-11" d="M23.9,1.74v2.79h1.76v.36h-2.19V1.74h.44Z"/><path class="cls-11" d="M26.08,1.74h1.14c.99,0,1.62,.59,1.62,1.58s-.62,1.58-1.62,1.58h-1.14V1.74Zm1.12,2.8c.77,0,1.19-.46,1.19-1.22s-.42-1.22-1.19-1.22h-.68v2.44h.68Z"/><path class="cls-11" d="M29.73,1.74v3.15h-.43V1.74h.43Z"/><path class="cls-11" d="M32.52,4.15V1.74h.41v3.15h-.34l-1.83-2.53v2.53h-.41V1.74h.45l1.73,2.41Z"/><path class="cls-11" d="M33.39,3.31c0-.97,.67-1.64,1.54-1.64s1.41,.5,1.46,1.3l-.42,.03c-.04-.58-.41-.96-1.04-.96s-1.1,.49-1.1,1.27,.46,1.27,1.14,1.27c.59,0,.97-.37,1.03-.91h-.96v-.34h1.36v1.56h-.4v-.56c-.14,.4-.58,.62-1.08,.62-.89,0-1.54-.66-1.54-1.64Z"/></g><g><path class="cls-11" d="M78.6,4.89h-2.25V1.74h2.2v.36h-1.78v.99h1.42v.36h-1.42v1.09h1.83v.36Z"/><path class="cls-11" d="M80.61,1.74l1.31,3.15h-.46l-.38-.93h-1.44l-.37,.93h-.43l1.29-3.15h.47Zm-.83,1.88h1.16l-.58-1.4h-.02l-.57,1.4Z"/><path class="cls-11" d="M82.45,3.74c.03,.58,.42,.87,.95,.87,.47,0,.77-.2,.77-.55,0-.29-.19-.43-.6-.51l-.62-.12c-.47-.09-.79-.34-.79-.83,0-.55,.44-.93,1.13-.93,.79,0,1.25,.42,1.25,1.13l-.39,.02c-.02-.52-.33-.82-.85-.82-.46,0-.71,.21-.71,.57,0,.31,.21,.41,.57,.48l.57,.11c.58,.11,.87,.36,.87,.87,0,.58-.5,.92-1.18,.92-.78,0-1.34-.42-1.34-1.19l.39-.03Z"/><path class="cls-11" d="M85.84,4.89V2.1h-1.15v-.36h2.74v.36h-1.17v2.79h-.43Z"/><path class="cls-11" d="M90.08,4.89h-1.34V1.74h1.29c.78,0,1.1,.34,1.1,.84,0,.37-.26,.62-.6,.68,.39,.07,.69,.32,.69,.77,0,.55-.4,.87-1.14,.87Zm-.92-1.79h.88c.46,0,.65-.2,.65-.5s-.19-.51-.65-.51h-.88v1.01Zm0,.34v1.1h.91c.47,0,.72-.21,.72-.55s-.25-.55-.72-.55h-.91Z"/><path class="cls-11" d="M91.66,3.68V1.74h.43v1.95c0,.6,.3,.9,.85,.9s.86-.29,.86-.89V1.74h.42v1.95c0,.92-.57,1.27-1.28,1.27s-1.28-.34-1.28-1.27Z"/><path class="cls-11" d="M95.21,1.74v3.15h-.43V1.74h.43Z"/><path class="cls-11" d="M96.26,1.74v2.79h1.76v.36h-2.19V1.74h.43Z"/><path class="cls-11" d="M98.44,1.74h1.14c.99,0,1.62,.59,1.62,1.58s-.63,1.58-1.62,1.58h-1.14V1.74Zm1.12,2.8c.77,0,1.19-.46,1.19-1.22s-.42-1.22-1.19-1.22h-.68v2.44h.68Z"/><path class="cls-11" d="M102.09,1.74v3.15h-.44V1.74h.44Z"/><path class="cls-11" d="M104.88,4.15V1.74h.41v3.15h-.35l-1.83-2.53v2.53h-.41V1.74h.45l1.73,2.41Z"/><path class="cls-11" d="M105.75,3.31c0-.97,.67-1.64,1.54-1.64s1.41,.5,1.46,1.3l-.42,.03c-.04-.58-.41-.96-1.04-.96s-1.1,.49-1.1,1.27,.46,1.27,1.14,1.27c.59,0,.97-.37,1.03-.91h-.96v-.34h1.36v1.56h-.4v-.56c-.14,.4-.58,.62-1.08,.62-.89,0-1.54-.66-1.54-1.64Z"/></g></g></g></g></svg>