<?xml version="1.0" encoding="UTF-8"?><svg xmlns="http://www.w3.org/2000/svg" xmlns:xlink="http://www.w3.org/1999/xlink" viewBox="0 0 112.12 102.33"><defs><style>.cls-1{isolation:isolate;}.cls-2{stroke:#ebebec;}.cls-2,.cls-3{stroke-width:.31px;}.cls-2,.cls-3,.cls-4,.cls-5{fill:none;}.cls-2,.cls-3,.cls-5{stroke-linecap:round;stroke-linejoin:round;}.cls-3,.cls-5{stroke:#000;}.cls-6{fill:#f1b784;fill-rule:evenodd;}.cls-7{clip-path:url(#clippath);}.cls-8{clip-path:url(#clippath-3);}.cls-9{clip-path:url(#clippath-5);}.cls-10{fill:#333132;}.cls-5{stroke-width:.47px;}</style><clipPath id="clippath"><rect class="cls-4" x="-482.84" y="-648.06" width="612" height="792"/></clipPath><clipPath id="clippath-3"><rect class="cls-4" x="-162.64" y="1.34" width="290.4" height="108"/></clipPath><clipPath id="clippath-5"><rect class="cls-4" x="-482.84" y="-509.65" width="612" height="489.72"/></clipPath><clipPath id="clippath-6"><rect class="cls-4" x="-482.84" y="-648.06" width="612" height="792"/></clipPath></defs><g class="cls-1"><g id="Layer_1"><g class="cls-7"><polygon class="cls-6" points="104.62 57.38 101.12 58.65 95.41 58.65 95.41 63.26 95.8 64.32 98.77 63.24 100.99 69.33 104.67 67.99 104.71 68.12 106.4 67.5 106.22 66.99 107.38 66.56 105.93 62.57 106.44 62.38 104.62 57.38"/><polygon class="cls-2" points="104.62 57.38 101.12 58.65 95.42 58.65 95.42 63.26 95.8 64.32 98.77 63.24 100.99 69.33 104.67 67.99 104.71 68.12 106.4 67.5 106.22 66.99 107.38 66.56 105.93 62.57 106.44 62.38 104.62 57.38"/><line class="cls-3" x1="33.01" y1="33.62" x2="33.01" y2="30.38"/><polyline class="cls-3" points="36.47 33.62 33.01 30.38 29.55 33.62"/><polyline class="cls-3" points="36.47 30.38 33.01 33.62 29.55 30.38"/><line class="cls-3" x1="90.87" y1="66.49" x2="93.58" y2="65.5"/><polyline class="cls-3" points="92.07 69.78 93.58 65.5 89.68 63.2"/><polyline class="cls-3" points="94.78 68.79 90.87 66.49 92.38 62.22"/><polyline class="cls-3" points="2.45 21.03 1.29 21.03 1.29 13.48 8.14 13.48 8.14 15.06"/><polyline class="cls-3" points="15.16 15.06 15.16 13.48 19.54 13.48 19.54 15.06"/><polyline class="cls-3" points="25.73 15.06 25.73 13.48 32.23 13.48 32.23 15.06"/><line class="cls-3" x1="28.98" y1="13.48" x2="28.98" y2="15.61"/><polyline class="cls-3" points="70.77 37.67 72.29 37.67 72.29 45.22 65.44 45.22 65.44 43.64"/><polyline class="cls-3" points="58.1 43.64 58.1 45.22 49.65 45.22 49.65 43.64"/><line class="cls-3" x1="52.89" y1="43.09" x2="52.89" y2="45.22"/><polyline class="cls-3" points="45.23 43.64 45.23 45.22 38.73 45.22 38.73 43.64"/><line class="cls-3" x1="41.98" y1="43.09" x2="41.98" y2="45.22"/><polyline class="cls-3" points="32.8 43.64 32.8 45.22 27.81 45.22 27.81 43.64"/><polyline class="cls-3" points="21.83 43.64 21.83 45.22 18.5 45.22 18.5 43.64"/><polyline class="cls-3" points="15.24 41.56 15.24 43.14 11.74 43.14 11.74 41.02"/><polyline class="cls-3" points="14.94 26.69 13.39 26.69 13.39 21.84"/><line class="cls-3" x1="13.39" y1="26.35" x2="11.85" y2="26.35"/><line class="cls-3" x1="11.85" y1="24.71" x2="13.39" y2="23.99"/><polyline class="cls-3" points="61.74 32.21 60.2 32.21 60.2 36.84"/><line class="cls-3" x1="58.65" y1="34.97" x2="60.19" y2="34.25"/><line class="cls-3" x1="58.65" y1="32.61" x2="60.19" y2="32.61"/><polyline class="cls-3" points="57.55 97.1 57.85 97.94 51.35 100.31 49.37 94.87 50.86 94.32"/><polyline class="cls-3" points="49.54 77.51 47.99 78.07 45.41 70.97 51.84 68.63 52.38 70.12"/><polyline class="cls-3" points="59.13 67.66 58.59 66.17 62.7 64.68 63.24 66.17"/><polyline class="cls-3" points="69.03 64.06 68.49 62.57 74.6 60.35 75.14 61.83"/><line class="cls-3" x1="71.55" y1="61.46" x2="72.27" y2="63.46"/><polyline class="cls-3" points="79.28 60.33 78.74 58.84 84.85 56.62 85.39 58.1"/><line class="cls-3" x1="81.8" y1="57.73" x2="82.52" y2="59.73"/><polyline class="cls-3" points="80.1 48.68 78.52 48.68 78.52 45.64"/><polyline class="cls-3" points="80.1 41.98 78.52 41.98 78.52 45.03"/><polyline class="cls-3" points="80.1 37.49 78.52 37.49 78.52 30.99 80.1 30.99"/><line class="cls-3" x1="78.52" y1="34.24" x2="80.64" y2="34.24"/><polyline class="cls-3" points="108.67 26.49 110.26 26.49 110.26 30.64 108.67 30.64"/><polyline class="cls-3" points="108.67 34.09 110.26 34.09 110.26 37.49 108.67 37.49"/><polyline class="cls-3" points="108.67 41.98 110.26 41.98 110.26 45.03"/><polyline class="cls-3" points="110.26 45.64 110.26 48.68 108.67 48.68"/><polyline class="cls-3" points="106.35 62.12 107.83 61.58 109.55 66.3 108.03 66.85"/><polyline class="cls-3" points="107.45 70.44 108.96 69.89 111.34 76.43 105.05 78.72 104.5 77.21"/><polyline class="cls-3" points="66.7 93.75 67.01 94.61 63.19 96 62.88 95.16"/><line class="cls-3" x1="95.42" y1="45.33" x2="92.75" y2="45.33"/><line class="cls-3" x1="97.95" y1="65.59" x2="96.47" y2="66.13"/><polyline class="cls-3" points="99.37 64.89 97.89 65.43 98.86 68.1 97.39 68.64"/><line class="cls-3" x1="98.8" y1="67.94" x2="100.29" y2="67.4"/><polyline class="cls-3" points="61.22 74.64 59.87 75.13 61.35 79.2 62.83 78.66"/><line class="cls-3" x1="59.75" y1="79.43" x2="61.24" y2="78.89"/><line class="cls-3" x1="60.43" y1="76.67" x2="59.2" y2="77.9"/><polyline class="cls-3" points="98.58 32.64 97 32.64 97 29.64 95.42 29.64"/><line class="cls-3" x1="98.58" y1="29.97" x2="97" y2="29.97"/><line class="cls-3" x1="95.42" y1="32.31" x2="97" y2="32.31"/><line class="cls-3" x1="39.89" y1="15.61" x2="39.89" y2="13.48"/><polyline class="cls-3" points="93.14 81.7 96.72 80.4 96.6 80.08"/><line class="cls-3" x1="81.7" y1="85.86" x2="85.03" y2="84.65"/><polyline class="cls-3" points="73.84 88.75 74.03 89.28 70.46 90.58"/><polyline class="cls-3" points="102.7 13.89 102.7 12.31 110.25 12.31 110.25 19.22 108.67 19.22"/><polyline class="cls-3" points="80.1 19.22 78.52 19.22 78.52 12.31 86.07 12.31 86.07 13.89"/><polyline class="cls-3" points="80.1 22.81 78.52 22.81 78.52 26.21 80.1 26.21"/><polyline class="cls-3" points="36.64 15.06 36.64 13.48 43.14 13.48 43.14 15.06"/><line class="cls-3" x1="50.8" y1="15.61" x2="50.8" y2="13.48"/><polyline class="cls-3" points="47.55 15.06 47.55 13.48 54.04 13.48 54.04 15.06"/><polyline class="cls-3" points="58.42 15.06 58.42 13.48 61.85 13.48 61.85 15.06"/><polyline class="cls-3" points="65.44 15.06 65.44 13.48 72.29 13.48 72.29 21.03 70.77 21.03"/><polygon class="cls-3" points="2.45 21.2 2.45 20.74 2.99 20.74 2.99 15.61 7.86 15.61 7.86 15.06 15.44 15.06 15.44 15.61 19.26 15.61 19.26 15.06 25.98 15.06 25.98 15.61 31.92 15.61 31.92 15.06 36.89 15.06 36.89 15.61 42.82 15.61 42.82 15.06 47.8 15.06 47.8 15.61 53.73 15.61 53.73 15.06 58.7 15.06 58.7 15.61 61.57 15.61 61.57 15.06 65.72 15.06 65.72 15.61 70.23 15.61 70.23 20.75 70.77 20.75 70.77 26.11 70.23 26.11 70.23 32.59 70.77 32.59 70.77 37.95 70.23 37.95 70.23 43.09 65.72 43.09 65.72 43.64 57.82 43.64 57.82 43.09 49.93 43.09 49.93 43.64 44.98 43.64 44.98 43.09 39.04 43.09 39.04 43.64 32.52 43.64 32.52 43.09 28.09 43.09 28.09 43.64 21.55 43.64 21.55 43.09 18.91 43.09 18.91 43.64 18.45 43.64 18.45 41.56 14.96 41.56 14.96 41.02 10.28 41.02 10.28 38.05 9.73 38.05 9.73 36.42 6.62 36.42 6.62 31.91 3.35 31.91 3.35 21.2 2.45 21.2"/><rect class="cls-3" x="9.86" y="28.32" width="53.87" height="2.06"/><line class="cls-3" x1="9.86" y1="29.35" x2="3.35" y2="29.35"/><polyline class="cls-3" points="18.58 30.38 18.58 41.56 18.45 41.56"/><line class="cls-3" x1="24.03" y1="30.38" x2="24.03" y2="43.64"/><polyline class="cls-3" points="29.55 30.38 29.55 33.62 36.47 33.62 36.47 30.38"/><polyline class="cls-3" points="36.52 43.64 36.52 33.62 36.47 33.62"/><line class="cls-3" x1="41.98" y1="43.09" x2="41.98" y2="30.38"/><line class="cls-3" x1="47.43" y1="43.64" x2="47.43" y2="30.38"/><line class="cls-3" x1="52.89" y1="43.09" x2="52.89" y2="31.46"/><polyline class="cls-3" points="52.83 30.46 52.83 31.46 55.49 31.46 55.49 30.38"/><polyline class="cls-3" points="58.65 30.38 58.65 36.84 61.74 36.84 61.74 30.38"/><line class="cls-3" x1="61.7" y1="43.64" x2="61.7" y2="36.84"/><line class="cls-3" x1="70.23" y1="29.35" x2="63.73" y2="29.35"/><polyline class="cls-3" points="61.7 28.32 61.7 15.61 61.57 15.61"/><line class="cls-3" x1="56.25" y1="28.32" x2="56.25" y2="15.06"/><line class="cls-3" x1="50.8" y1="28.32" x2="50.8" y2="15.61"/><line class="cls-3" x1="45.34" y1="28.32" x2="45.34" y2="15.06"/><line class="cls-3" x1="39.89" y1="28.32" x2="39.89" y2="15.61"/><line class="cls-3" x1="34.43" y1="28.32" x2="34.43" y2="15.06"/><line class="cls-3" x1="28.98" y1="28.32" x2="28.98" y2="15.61"/><line class="cls-3" x1="23.52" y1="28.32" x2="23.52" y2="15.06"/><polyline class="cls-3" points="11.85 28.21 11.85 21.84 14.94 21.84 14.94 28.32"/><polyline class="cls-3" points="17.81 28.32 17.81 27.23 14.94 27.23"/><line class="cls-3" x1="11.88" y1="21.84" x2="11.88" y2="15.06"/><polygon class="cls-3" points="80.64 14.44 85.79 14.44 85.79 13.89 91.14 13.89 91.14 14.44 97.63 14.44 97.63 13.89 102.96 13.89 102.96 14.44 108.13 14.44 108.13 18.94 108.67 18.94 108.67 26.78 108.13 26.78 108.13 30.36 108.67 30.36 108.67 34.37 108.13 34.37 108.13 37.21 108.67 37.21 108.67 42.26 108.13 42.26 108.13 45.03 110.93 45.03 110.93 45.64 108.13 45.64 108.13 48.4 108.67 48.4 108.67 51.1 102.62 51.1 102.62 51.9 102.63 51.91 106.44 62.38 105.93 62.57 107.42 66.67 107.9 66.49 108.04 66.87 106.37 67.48 107.53 70.68 107.01 70.87 108.56 75.13 104.55 76.6 104.74 77.12 96.37 80.17 95.87 78.79 92.53 80 93.15 81.72 85.05 84.67 84.42 82.95 81.08 84.17 81.71 85.89 73.6 88.84 72.97 87.12 69.65 88.33 71.04 92.17 66.46 93.84 65.84 92.14 62.52 93.35 63.15 95.06 57.28 97.19 57.1 96.68 52.86 98.22 51.47 94.4 50.95 94.59 49.51 90.63 51.78 89.8 50.37 85.92 52.34 85.2 49.44 77.24 49.95 77.06 48.2 72.22 52.31 70.73 52.12 70.21 59.37 67.57 59.56 68.09 63.14 66.78 62.95 66.27 69.3 63.96 69.48 64.47 75.06 62.44 74.88 61.93 79.55 60.23 79.73 60.74 85.31 58.71 85.13 58.2 87.08 57.49 87.08 51.1 80.1 51.1 80.1 48.4 80.64 48.4 80.64 45.64 78.26 45.64 78.26 45.03 80.64 45.03 80.64 42.26 80.1 42.26 80.1 37.21 80.64 37.21 80.64 31.27 80.1 31.27 80.1 25.93 80.64 25.93 80.64 23.09 80.1 23.09 80.1 18.94 80.64 18.94 80.64 14.44"/><polyline class="cls-3" points="94.78 68.79 92.38 62.22 89.68 63.2 92.07 69.78"/><polyline class="cls-3" points="90.07 63.06 90.07 61.96 91.99 61.96 92.12 62.31"/><polyline class="cls-3" points="92.38 62.22 92.33 62.07 93.36 61.7 93.36 48.15 93.11 48 92.75 47.8 92.75 42.85 93.36 42.5 93.36 20.94 95.42 20.94 95.42 63.26 98.05 70.44 96.38 71.05 96.17 70.48 57.16 84.68 56.45 82.74 94.78 68.79"/><polyline class="cls-3" points="93.36 58.91 92.21 58.91 92.21 61.96 91.99 61.96"/><polyline class="cls-3" points="93.36 22.91 92.27 22.91 92.27 25.64 93.36 25.64"/><polyline class="cls-3" points="95.42 27.8 98.58 27.8 98.58 34.24 95.42 34.24"/><polyline class="cls-3" points="95.8 64.32 98.77 63.24 100.99 69.34 98.04 70.41"/><polyline class="cls-3" points="60.43 81.29 58.2 75.15 61.16 74.07 63.4 80.21"/><polyline class="cls-3" points="66.12 79.23 65.75 78.21 63.03 79.2"/><line class="cls-3" x1="94.39" y1="20.94" x2="94.39" y2="14.44"/><line class="cls-3" x1="95.42" y1="22.96" x2="108.67" y2="22.96"/><polyline class="cls-3" points="108.13 34.37 108.13 34.24 98.58 34.24"/><line class="cls-3" x1="108.67" y1="39.69" x2="95.42" y2="39.69"/><line class="cls-3" x1="95.42" y1="45.33" x2="110.93" y2="45.33"/><line class="cls-3" x1="78.26" y1="45.33" x2="92.75" y2="45.33"/><polyline class="cls-3" points="95.42 58.65 101.12 58.65 104.62 57.38"/><polyline class="cls-3" points="106.37 67.48 106.33 67.36 100.99 69.33"/><polyline class="cls-3" points="62.52 93.35 62.4 93.4 58.99 84.01"/><polyline class="cls-3" points="52.34 85.2 52.38 85.32 56.81 83.71"/><line class="cls-3" x1="56.02" y1="68.79" x2="58.32" y2="75.11"/><line class="cls-3" x1="66.96" y1="64.81" x2="71.5" y2="77.27"/><line class="cls-3" x1="72.27" y1="63.46" x2="76.62" y2="75.4"/><line class="cls-3" x1="77.21" y1="61.08" x2="81.75" y2="73.54"/><line class="cls-3" x1="82.52" y1="59.73" x2="86.87" y2="71.67"/><polyline class="cls-3" points="87.08 57.49 87.2 57.49 87.2 58.4 90.12 58.4 90.12 61.96"/><line class="cls-3" x1="80.1" y1="39.69" x2="93.36" y2="39.69"/><line class="cls-3" x1="80.64" y1="34.24" x2="93.36" y2="34.24"/><line class="cls-3" x1="80.1" y1="28.78" x2="93.36" y2="28.78"/><polyline class="cls-3" points="80.64 23.09 80.64 22.96 92.27 22.96"/><polyline class="cls-3" points="72.97 87.12 73.07 87.09 70.43 79.85"/><polyline class="cls-3" points="84.42 82.95 84.52 82.92 81.88 75.68"/><polyline class="cls-3" points="95.87 78.79 95.96 78.75 93.33 71.52"/><g class="cls-8"><rect class="cls-3" x="-234.52" y="-436.92" width="450.14" height="582.54"/></g><g><path class="cls-10" d="M82.24,95.23v3.91h2.46v.5h-3.07v-4.41h.61Z"/><path class="cls-10" d="M88.45,99.64h-3.15v-4.41h3.08v.5h-2.49v1.39h1.98v.5h-1.98v1.52h2.56v.5Z"/><path class="cls-10" d="M90.52,99.64l-1.77-4.41h.62l1.49,3.71h.03l1.45-3.71h.62l-1.78,4.41h-.66Z"/><path class="cls-10" d="M96.61,99.64h-3.15v-4.41h3.08v.5h-2.49v1.39h1.98v.5h-1.98v1.52h2.56v.5Z"/><path class="cls-10" d="M97.91,95.23v3.91h2.46v.5h-3.07v-4.41h.61Z"/><path class="cls-10" d="M105.22,99.12v.53h-3.24v-.35l1.25-1.07c.69-.6,1.21-1.05,1.21-1.69,0-.52-.29-.88-.88-.88s-.94,.38-.94,1.03c0,.13,.01,.27,.05,.4l-.6-.03c-.03-.14-.05-.28-.05-.41,0-.9,.61-1.48,1.55-1.48,1.03,0,1.5,.6,1.5,1.35,0,.8-.68,1.41-1.32,1.93l-.83,.69h2.3Z"/><path class="cls-10" d="M105.49,97.6h1.61v.52h-1.61v-.52Z"/><path class="cls-10" d="M110.69,95.78h-2.12c0,.24-.11,1.14-.16,1.37,.2-.25,.56-.45,1.05-.45,1,0,1.52,.67,1.52,1.48,0,.92-.64,1.55-1.6,1.55-1.06,0-1.67-.67-1.62-1.65l.59,.05c0,.67,.36,1.11,1.05,1.11,.62,0,1-.41,1-1.06,0-.58-.38-1.01-1-1.01-.49,0-.81,.26-.97,.56l-.6-.04c.11-.61,.26-1.74,.28-2.46h2.58v.55Z"/></g><g class="cls-9"><rect class="cls-5" x="-513.46" y="-634.81" width="678.3" height="877.8"/></g><g><path class="cls-10" d="M7.92,4.36h.02l.65-2.62h.41l-.81,3.15h-.5l-.66-2.52h-.02l-.67,2.52h-.5l-.81-3.15h.42l.66,2.61h.02l.69-2.61h.41l.7,2.62Z"/><path class="cls-10" d="M11.6,4.89h-2.25V1.74h2.2v.36h-1.78v.99h1.42v.36h-1.42v1.09h1.83v.36Z"/><path class="cls-10" d="M12.24,3.74c.02,.58,.42,.87,.95,.87,.47,0,.77-.2,.77-.55,0-.29-.19-.43-.6-.51l-.62-.12c-.47-.09-.79-.34-.79-.83,0-.55,.44-.93,1.13-.93,.79,0,1.25,.42,1.25,1.13l-.4,.02c-.02-.52-.33-.82-.85-.82-.46,0-.71,.21-.71,.57,0,.31,.21,.41,.57,.48l.57,.11c.58,.11,.87,.36,.87,.87,0,.58-.5,.92-1.18,.92-.78,0-1.34-.42-1.34-1.19l.39-.03Z"/><path class="cls-10" d="M15.63,4.89V2.1h-1.15v-.36h2.74v.36h-1.17v2.79h-.43Z"/><path class="cls-10" d="M19.88,4.89h-1.34V1.74h1.29c.78,0,1.1,.34,1.1,.84,0,.37-.26,.62-.6,.68,.39,.07,.69,.32,.69,.77,0,.55-.4,.87-1.14,.87Zm-.92-1.79h.88c.46,0,.65-.2,.65-.5s-.19-.51-.65-.51h-.88v1.01Zm0,.34v1.1h.91c.47,0,.72-.21,.72-.55s-.25-.55-.72-.55h-.91Z"/><path class="cls-10" d="M21.45,3.68V1.74h.43v1.95c0,.6,.3,.9,.85,.9s.86-.29,.86-.89V1.74h.42v1.95c0,.92-.57,1.27-1.28,1.27s-1.28-.34-1.28-1.27Z"/><path class="cls-10" d="M25,1.74v3.15h-.43V1.74h.43Z"/><path class="cls-10" d="M26.05,1.74v2.79h1.76v.36h-2.19V1.74h.43Z"/><path class="cls-10" d="M28.23,1.74h1.14c.99,0,1.62,.59,1.62,1.58s-.63,1.58-1.62,1.58h-1.14V1.74Zm1.12,2.8c.77,0,1.19-.46,1.19-1.22s-.42-1.22-1.19-1.22h-.68v2.44h.68Z"/><path class="cls-10" d="M31.88,1.74v3.15h-.44V1.74h.44Z"/><path class="cls-10" d="M34.67,4.15V1.74h.41v3.15h-.35l-1.83-2.53v2.53h-.41V1.74h.45l1.73,2.41Z"/><path class="cls-10" d="M35.54,3.31c0-.97,.67-1.64,1.54-1.64s1.41,.5,1.46,1.3l-.42,.03c-.04-.58-.41-.96-1.04-.96s-1.1,.49-1.1,1.27,.46,1.27,1.14,1.27c.59,0,.97-.37,1.03-.91h-.96v-.34h1.36v1.56h-.4v-.56c-.14,.4-.58,.62-1.08,.62-.89,0-1.54-.66-1.54-1.64Z"/></g><g><path class="cls-10" d="M80.75,4.89h-2.25V1.74h2.2v.36h-1.78v.99h1.42v.36h-1.42v1.09h1.83v.36Z"/><path class="cls-10" d="M82.76,1.74l1.31,3.15h-.46l-.38-.93h-1.44l-.37,.93h-.42l1.29-3.15h.48Zm-.83,1.88h1.16l-.58-1.4h-.02l-.57,1.4Z"/><path class="cls-10" d="M84.6,3.74c.02,.58,.42,.87,.95,.87,.47,0,.77-.2,.77-.55,0-.29-.19-.43-.6-.51l-.62-.12c-.47-.09-.79-.34-.79-.83,0-.55,.44-.93,1.13-.93,.79,0,1.25,.42,1.25,1.13l-.4,.02c-.02-.52-.33-.82-.85-.82-.46,0-.71,.21-.71,.57,0,.31,.21,.41,.57,.48l.57,.11c.58,.11,.87,.36,.87,.87,0,.58-.5,.92-1.18,.92-.78,0-1.34-.42-1.34-1.19l.39-.03Z"/><path class="cls-10" d="M87.99,4.89V2.1h-1.15v-.36h2.74v.36h-1.17v2.79h-.43Z"/><path class="cls-10" d="M92.24,4.89h-1.34V1.74h1.29c.78,0,1.1,.34,1.1,.84,0,.37-.26,.62-.6,.68,.39,.07,.69,.32,.69,.77,0,.55-.4,.87-1.14,.87Zm-.92-1.79h.88c.46,0,.65-.2,.65-.5s-.2-.51-.65-.51h-.88v1.01Zm0,.34v1.1h.91c.47,0,.72-.21,.72-.55s-.25-.55-.72-.55h-.91Z"/><path class="cls-10" d="M93.81,3.68V1.74h.43v1.95c0,.6,.3,.9,.85,.9s.86-.29,.86-.89V1.74h.43v1.95c0,.92-.57,1.27-1.28,1.27s-1.28-.34-1.28-1.27Z"/><path class="cls-10" d="M97.37,1.74v3.15h-.44V1.74h.44Z"/><path class="cls-10" d="M98.41,1.74v2.79h1.76v.36h-2.19V1.74h.44Z"/><path class="cls-10" d="M100.59,1.74h1.14c.99,0,1.62,.59,1.62,1.58s-.62,1.58-1.62,1.58h-1.14V1.74Zm1.12,2.8c.77,0,1.19-.46,1.19-1.22s-.42-1.22-1.19-1.22h-.68v2.44h.68Z"/><path class="cls-10" d="M104.24,1.74v3.15h-.43V1.74h.43Z"/><path class="cls-10" d="M107.03,4.15V1.74h.41v3.15h-.34l-1.83-2.53v2.53h-.41V1.74h.45l1.73,2.41Z"/><path class="cls-10" d="M107.9,3.31c0-.97,.67-1.64,1.54-1.64s1.41,.5,1.46,1.3l-.42,.03c-.04-.58-.41-.96-1.04-.96s-1.1,.49-1.1,1.27,.46,1.27,1.14,1.27c.59,0,.97-.37,1.03-.91h-.96v-.34h1.36v1.56h-.4v-.56c-.14,.4-.58,.62-1.08,.62-.89,0-1.54-.66-1.54-1.64Z"/></g></g></g></g></svg>