<?xml version="1.0" encoding="UTF-8"?><svg xmlns="http://www.w3.org/2000/svg" xmlns:xlink="http://www.w3.org/1999/xlink" viewBox="0 0 111.22 102.27"><defs><style>.cls-1{isolation:isolate;}.cls-2{stroke:#ebebec;}.cls-2,.cls-3,.cls-4{stroke-width:.31px;}.cls-2,.cls-3,.cls-4,.cls-5,.cls-6{fill:none;}.cls-2,.cls-3,.cls-4,.cls-6{stroke-linecap:round;stroke-linejoin:round;}.cls-3,.cls-4,.cls-6{stroke:#000;}.cls-7{fill:#f1b784;fill-rule:evenodd;}.cls-4{stroke-dasharray:0 0 3.94 1.97;}.cls-8{clip-path:url(#clippath);}.cls-9{clip-path:url(#clippath-3);}.cls-10{clip-path:url(#clippath-5);}.cls-11{fill:#333132;}.cls-6{stroke-width:.47px;}</style><clipPath id="clippath"><rect class="cls-5" x="-484.09" y="-648.36" width="612" height="792"/></clipPath><clipPath id="clippath-3"><rect class="cls-5" x="-5.89" y=".44" width="121.2" height="104.4"/></clipPath><clipPath id="clippath-5"><rect class="cls-5" x="-452.52" y="-541.86" width="553.93" height="534.6"/></clipPath><clipPath id="clippath-6"><rect class="cls-5" x="-484.09" y="-648.36" width="612" height="792"/></clipPath></defs><g class="cls-1"><g id="Layer_1"><g class="cls-8"><polygon class="cls-7" points="66.11 65.37 62.1 66.83 58.51 68.14 58.01 68.32 61.99 79.25 64.71 78.26 65.08 79.28 70.45 77.32 66.11 65.37"/><polygon class="cls-2" points="66.11 65.37 62.1 66.83 58.51 68.14 58.01 68.32 61.99 79.25 64.7 78.26 65.08 79.27 70.45 77.32 66.11 65.37"/><polygon class="cls-7" points="22.48 15.66 18.21 15.66 14.4 15.66 13.9 15.66 13.9 27.29 16.77 27.29 16.77 28.37 22.48 28.37 22.48 15.66"/><polygon class="cls-2" points="22.48 15.66 18.21 15.66 14.4 15.66 13.9 15.66 13.9 27.29 16.77 27.29 16.77 28.37 22.48 28.37 22.48 15.66"/><line class="cls-3" x1="31.97" y1="33.67" x2="31.97" y2="30.43"/><polyline class="cls-3" points="35.43 33.67 31.97 30.43 28.51 33.67"/><polyline class="cls-3" points="35.43 30.43 31.97 33.67 28.51 30.43"/><line class="cls-3" x1="89.83" y1="66.54" x2="92.54" y2="65.55"/><polyline class="cls-3" points="91.03 69.83 92.54 65.55 88.64 63.25"/><polyline class="cls-3" points="93.74 68.84 89.83 66.54 91.34 62.27"/><line class="cls-4" x1="96.59" y1="70.64" x2="107.6" y2="75.22"/><line class="cls-4" x1="104.83" y1="67.6" x2="99.52" y2="78.69"/><line class="cls-3" x1="75.77" y1="15.55" x2="71.77" y2="18.93"/><line class="cls-3" x1="75.77" y1="18.93" x2="71.77" y2="15.55"/><line class="cls-3" x1="51.84" y1="43.14" x2="51.84" y2="46.74"/><line class="cls-3" x1="40.94" y1="43.14" x2="40.94" y2="46.74"/><line class="cls-3" x1="12.35" y1="26.39" x2="10.81" y2="26.39"/><line class="cls-3" x1="12.35" y1="23.44" x2="13.9" y2="22.71"/><line class="cls-3" x1="70" y1="60.11" x2="71.23" y2="63.51"/><line class="cls-3" x1="80.25" y1="56.38" x2="81.48" y2="59.78"/><line class="cls-3" x1="77.47" y1="34.29" x2="79.6" y2="34.29"/><polyline class="cls-3" points="105.3 62.17 106.79 61.63 108.82 67.19 105.17 68.52"/><line class="cls-3" x1="94.37" y1="45.38" x2="91.71" y2="45.38"/><line class="cls-3" x1="96.91" y1="65.64" x2="95.43" y2="66.18"/><polyline class="cls-3" points="98.33 64.94 96.85 65.48 97.82 68.14 96.35 68.69"/><line class="cls-3" x1="97.76" y1="67.98" x2="99.25" y2="67.44"/><polyline class="cls-3" points="60.18 74.69 58.83 75.18 60.31 79.25 61.79 78.71"/><line class="cls-3" x1="58.71" y1="79.47" x2="60.2" y2="78.93"/><line class="cls-3" x1="59.39" y1="76.72" x2="58.16" y2="77.95"/><polyline class="cls-3" points="97.54 32.69 95.96 32.69 95.96 29.69 94.37 29.69"/><line class="cls-3" x1="97.54" y1="30.02" x2="95.96" y2="30.02"/><line class="cls-3" x1="94.37" y1="32.35" x2="95.96" y2="32.35"/><polyline class="cls-3" points="47.15 72.27 46.53 72.5 45.29 69.1 53.81 66 55.05 69.4"/><polyline class="cls-3" points="57.93 68.35 56.7 64.95 60.35 63.62"/><line class="cls-3" x1="61.55" y1="63.19" x2="65.01" y2="61.93"/><rect class="cls-3" x="60.01" y="61.16" width="1.27" height="2.86" transform="translate(-17.75 24.52) rotate(-20)"/><rect class="cls-3" x="64.67" y="59.46" width="1.27" height="2.86" transform="translate(-16.89 26.01) rotate(-20)"/><rect class="cls-3" x="69.8" y="57.59" width="1.27" height="2.86" transform="translate(-15.94 27.65) rotate(-20)"/><rect class="cls-3" x="74.92" y="55.73" width="1.27" height="2.86" transform="translate(-14.99 29.3) rotate(-20)"/><rect class="cls-3" x="80.05" y="53.86" width="1.27" height="2.86" transform="translate(-14.05 30.93) rotate(-20)"/><line class="cls-3" x1="66.21" y1="61.49" x2="70.13" y2="60.06"/><line class="cls-3" x1="71.33" y1="59.63" x2="75.26" y2="58.2"/><line class="cls-3" x1="76.46" y1="57.76" x2="80.39" y2="56.33"/><polyline class="cls-3" points="81.58 55.89 83.27 55.28 84.51 58.67"/><line class="cls-3" x1="75.12" y1="58.25" x2="76.36" y2="61.64"/><line class="cls-3" x1="64.87" y1="61.98" x2="66.11" y2="65.37"/><rect class="cls-3" x="73.43" y="45.5" width="2.75" height="1.27"/><rect class="cls-3" x="73.43" y="43.99" width="2.75" height="1.27"/><line class="cls-3" x1="76.18" y1="45.26" x2="76.18" y2="45.5"/><line class="cls-3" x1="77.22" y1="45.38" x2="76.18" y2="45.38"/><polyline class="cls-3" points="75.46 46.77 75.46 51.68 79.06 51.68 79.06 51.15"/><rect class="cls-3" x="73.43" y="38.32" width="2.75" height="1.27"/><rect class="cls-3" x="73.43" y="32.87" width="2.75" height="1.27"/><line class="cls-3" x1="75.46" y1="22.85" x2="75.46" y2="32.87"/><line class="cls-3" x1="75.46" y1="34.14" x2="75.46" y2="38.32"/><line class="cls-3" x1="75.46" y1="39.59" x2="75.46" y2="43.99"/><line class="cls-3" x1="79.06" y1="39.74" x2="75.46" y2="39.73"/><line class="cls-3" x1="79.6" y1="34.29" x2="75.46" y2="34.29"/><line class="cls-3" x1="79.06" y1="28.83" x2="75.46" y2="28.83"/><line class="cls-3" x1="109.88" y1="23.01" x2="109.88" y2="45.08"/><line class="cls-3" x1="107.63" y1="39.74" x2="109.88" y2="39.74"/><line class="cls-3" x1="107.63" y1="34.42" x2="109.88" y2="34.42"/><polyline class="cls-3" points="109.88 45.69 109.88 50.89 107.63 50.89"/><rect class="cls-3" x="63.91" y="46.2" width="1.27" height="2.85"/><rect class="cls-3" x="51.99" y="46.2" width="1.27" height="2.85"/><rect class="cls-3" x="46.54" y="46.2" width="1.27" height="2.85"/><rect class="cls-3" x="41.27" y="46.2" width="1.27" height="2.85"/><rect class="cls-3" x="35.67" y="46.2" width="1.27" height="2.85"/><rect class="cls-3" x="28.26" y="46.2" width="1.27" height="2.85"/><rect class="cls-3" x="21.57" y="46.2" width="1.27" height="2.85"/><polyline class="cls-3" points="69.19 43.14 69.72 43.14 69.72 46.74 65.18 46.74"/><line class="cls-3" x1="63.91" y1="46.74" x2="59.5" y2="46.74"/><line class="cls-3" x1="57.69" y1="46.74" x2="53.26" y2="46.74"/><line class="cls-3" x1="51.99" y1="46.74" x2="47.81" y2="46.74"/><line class="cls-3" x1="46.54" y1="46.74" x2="42.54" y2="46.74"/><line class="cls-3" x1="41.27" y1="46.74" x2="36.94" y2="46.74"/><line class="cls-3" x1="35.67" y1="46.74" x2="29.54" y2="46.74"/><line class="cls-3" x1="28.26" y1="46.74" x2="22.85" y2="46.74"/><polyline class="cls-3" points="21.57 46.74 19.44 46.74 17.03 45.28 17.03 43.14 17.41 43.14"/><line class="cls-3" x1="46.39" y1="43.14" x2="46.39" y2="46.74"/><line class="cls-3" x1="35.48" y1="43.14" x2="35.48" y2="46.74"/><line class="cls-3" x1="22.99" y1="43.14" x2="22.99" y2="46.74"/><line class="cls-3" x1="59.5" y1="43.14" x2="59.5" y2="46.74"/><line class="cls-3" x1="57.69" y1="43.14" x2="57.69" y2="46.74"/><polyline class="cls-3" points="2.31 15.66 1.56 15.66 1.56 12.76 10.61 12.76 10.61 15.66"/><polyline class="cls-3" points="27.39 15.66 27.39 12.76 17.86 12.76 17.86 13.81 14.06 13.81 14.06 15.66"/><line class="cls-3" x1="22.48" y1="15.66" x2="22.48" y2="12.76"/><line class="cls-3" x1="12.35" y1="24.89" x2="10.81" y2="24.89"/><line class="cls-3" x1="12.35" y1="17.27" x2="10.81" y2="17.27"/><line class="cls-3" x1="12.35" y1="19.38" x2="13.9" y2="19.38"/><line class="cls-3" x1="12.35" y1="20.38" x2="13.9" y2="20.38"/><line class="cls-3" x1="12.35" y1="22.41" x2="13.9" y2="22.41"/><line class="cls-3" x1="59.15" y1="36.29" x2="60.7" y2="35.57"/><line class="cls-3" x1="59.15" y1="37.26" x2="60.7" y2="37.26"/><polyline class="cls-3" points="65.45 93.86 65.6 94.27 62.24 95.48 62.1 95.11"/><polyline class="cls-3" points="51.82 98.27 52.86 101.16 57.13 99.61 56.93 99.05 60.85 97.65 60.18 95.81"/><polyline class="cls-3" points="70 92.22 72.97 89.88 81.02 86.92 80.77 86.23 84.11 85.01 84 84.72"/><polyline class="cls-3" points="95.37 80.2 95.6 80.83 92.17 82.08 92.06 81.79"/><line class="cls-3" x1="72.93" y1="89.91" x2="72.56" y2="88.89"/><polygon class="cls-3" points="1.4 21.25 1.4 20.78 2.31 20.78 2.31 15.66 6.82 15.66 14.4 15.66 18.21 15.66 24.94 15.66 30.88 15.66 35.03 15.66 35.03 11.42 37.58 11.42 37.58 12.15 68.73 12.15 68.73 15.55 69.46 15.55 69.46 22.57 69.19 22.57 69.19 32.64 69.19 38 69.19 43.14 64.68 43.14 56.78 43.14 48.89 43.14 43.94 43.14 38 43.14 31.48 43.14 27.05 43.14 20.5 43.14 17.41 43.14 17.41 41.07 13.92 41.07 9.24 41.07 9.24 38.1 8.69 38.1 8.69 36.47 5.58 36.47 5.58 31.96 2.31 31.96 2.31 21.25 1.4 21.25"/><polyline class="cls-3" points="35.33 15.66 35.33 28.37 62.69 28.37 62.69 30.43 8.82 30.43 8.82 28.37 27.94 28.37 27.94 15.66"/><line class="cls-3" x1="8.82" y1="29.4" x2="2.31" y2="29.4"/><line class="cls-3" x1="13.78" y1="30.43" x2="13.78" y2="41.07"/><line class="cls-3" x1="22.99" y1="30.43" x2="22.99" y2="43.14"/><polyline class="cls-3" points="28.51 30.43 28.51 33.67 35.43 33.67 35.43 30.43"/><polyline class="cls-3" points="35.48 43.14 35.48 33.67 35.43 33.67"/><line class="cls-3" x1="40.94" y1="43.14" x2="40.94" y2="30.43"/><line class="cls-3" x1="46.39" y1="43.14" x2="46.39" y2="30.43"/><line class="cls-3" x1="51.84" y1="43.14" x2="51.84" y2="31.51"/><polyline class="cls-3" points="51.79 30.51 51.79 31.51 54.45 31.51 54.45 30.43"/><line class="cls-3" x1="57.61" y1="30.43" x2="57.61" y2="43.14"/><line class="cls-3" x1="60.7" y1="43.14" x2="60.7" y2="30.43"/><line class="cls-3" x1="69.19" y1="29.4" x2="62.69" y2="29.4"/><line class="cls-3" x1="22.48" y1="28.37" x2="22.48" y2="15.66"/><line class="cls-3" x1="10.81" y1="28.37" x2="10.81" y2="15.66"/><line class="cls-3" x1="13.9" y1="15.66" x2="13.9" y2="28.37"/><polyline class="cls-3" points="16.77 28.37 16.77 27.28 13.9 27.28"/><polyline class="cls-3" points="13.9 26.74 12.35 26.74 12.35 22.08"/><polygon class="cls-3" points="86.03 58.12 86.03 51.15 79.06 51.15 79.06 48.45 79.6 48.45 79.6 45.68 77.22 45.69 77.22 45.08 79.6 45.08 79.6 42.31 79.06 42.31 79.06 37.26 79.6 37.26 79.6 31.32 79.06 31.32 79.06 25.98 79.6 25.98 79.6 23.14 79.06 23.14 79.06 22.85 72.91 22.85 72.91 18.93 71.77 18.93 71.77 15.55 72.96 15.55 72.96 12.15 87.61 12.15 87.61 11.43 90.17 11.43 90.17 12.15 96.52 12.15 96.52 11.43 99.08 11.43 99.08 12.15 108.96 12.15 108.96 20.46 110.22 20.46 110.22 23.01 107.63 23.01 107.63 26.82 107.09 26.82 107.09 30.41 107.63 30.41 107.63 34.42 107.09 34.42 107.09 37.26 107.63 37.26 107.63 42.31 107.09 42.31 107.09 45.08 109.88 45.08 109.88 45.69 107.09 45.69 107.09 48.45 107.63 48.45 107.63 51.15 101.58 51.15 101.58 51.95 101.59 51.96 105.39 62.41 104.84 62.61 106.34 66.73 106.86 66.54 107 66.92 104.87 67.7 107.6 75.22 103.53 76.71 103.7 77.17 95.33 80.22 94.82 78.84 91.49 80.05 92.11 81.77 84 84.72 83.38 83 80.04 84.22 80.67 85.94 72.56 88.89 71.93 87.17 68.59 88.39 70 92.22 65.46 93.86 64.84 92.18 61.48 93.4 62.1 95.11 56.24 97.24 56.06 96.73 51.82 98.27 50.43 94.45 49.91 94.64 48.47 90.68 50.74 89.85 49.33 85.97 51.3 85.25 48.4 77.29 48.91 77.11 47.15 72.27 51.26 70.78 58.51 68.14 62.1 66.83 68.44 64.52 74.02 62.49 78.69 60.79 86.03 58.12"/><polyline class="cls-3" points="93.74 68.84 91.34 62.27 88.64 63.25 91.03 69.83"/><polyline class="cls-3" points="89.03 63.11 89.03 62.01 90.95 62.01 91.08 62.36"/><polyline class="cls-3" points="91.34 62.27 91.29 62.12 92.31 61.75 92.31 53.04 88.16 53.04 88.16 53.64 86.03 53.64"/><polyline class="cls-3" points="92.31 58.96 91.17 58.96 91.17 62.01 90.95 62.01"/><polyline class="cls-3" points="92.31 22.96 91.23 22.96 91.23 25.69 92.31 25.69"/><polyline class="cls-3" points="94.37 27.85 97.54 27.85 97.54 34.29 94.37 34.29"/><polyline class="cls-3" points="94.76 64.37 97.73 63.29 99.95 69.39 97 70.46"/><line class="cls-3" x1="58.01" y1="68.32" x2="62.36" y2="80.26"/><polyline class="cls-3" points="65.08 79.27 64.7 78.26 61.99 79.25"/><line class="cls-3" x1="94.37" y1="23.01" x2="107.63" y2="23.01"/><polyline class="cls-3" points="107.09 34.42 107.09 34.29 97.54 34.29"/><line class="cls-3" x1="107.63" y1="39.74" x2="94.37" y2="39.74"/><line class="cls-3" x1="94.37" y1="45.38" x2="109.88" y2="45.38"/><line class="cls-3" x1="77.22" y1="45.38" x2="91.71" y2="45.38"/><polyline class="cls-3" points="94.37 58.7 100.08 58.7 103.58 57.43"/><polyline class="cls-3" points="104.87 67.7 104.83 67.6 99.95 69.38"/><line class="cls-3" x1="99.52" y1="78.69" x2="96.59" y2="70.64"/><polyline class="cls-3" points="83.38 83 83.47 82.97 80.84 75.73"/><polyline class="cls-3" points="61.48 93.4 61.36 93.44 57.95 84.06"/><polyline class="cls-3" points="51.3 85.25 51.34 85.37 55.76 83.76"/><line class="cls-3" x1="55.05" y1="69.4" x2="59.39" y2="81.34"/><line class="cls-3" x1="66.11" y1="65.37" x2="70.45" y2="77.32"/><line class="cls-3" x1="71.23" y1="63.51" x2="75.58" y2="75.45"/><line class="cls-3" x1="76.36" y1="61.64" x2="80.71" y2="73.59"/><line class="cls-3" x1="81.48" y1="59.78" x2="85.83" y2="71.72"/><polyline class="cls-3" points="86.03 57.54 86.16 57.54 86.16 58.44 89.08 58.44 89.08 62.01"/><line class="cls-3" x1="79.06" y1="39.74" x2="92.31" y2="39.74"/><line class="cls-3" x1="79.6" y1="34.29" x2="92.31" y2="34.29"/><line class="cls-3" x1="79.06" y1="28.83" x2="92.31" y2="28.83"/><polyline class="cls-3" points="79.6 23.14 79.6 23.01 91.23 23.01"/><polyline class="cls-3" points="56.74 74.06 58.22 73.53 56.52 68.86"/><polyline class="cls-3" points="93.74 68.84 55.41 82.79 56.12 84.73 94.51 70.76 94.71 71.33 97.01 70.49 94.37 63.31 94.37 22.96 92.31 22.96 92.31 42.55 91.71 42.9 91.71 47.84 92.07 48.05 92.31 48.19 92.31 51.02 86.03 51.02 86.03 51.15"/><polyline class="cls-3" points="72.96 15.55 75.77 15.55 75.77 18.93 72.91 18.93"/><polyline class="cls-3" points="10.81 20.64 12.35 20.64 12.35 15.66"/><polyline class="cls-3" points="59.15 39.92 59.15 32.31 60.7 32.31"/><polyline class="cls-3" points="96.14 23.01 96.14 21.07 89.8 21.07 89.8 23.01"/><polyline class="cls-3" points="71.93 87.17 72.03 87.13 69.39 79.9"/><g class="cls-9"><rect class="cls-3" x="-168.36" y="-436.87" width="450.14" height="582.54"/></g><g><path class="cls-11" d="M88.34,94.93v3.91h2.46v.5h-3.07v-4.41h.61Z"/><path class="cls-11" d="M94.54,99.34h-3.15v-4.41h3.08v.5h-2.49v1.39h1.98v.5h-1.98v1.52h2.56v.5Z"/><path class="cls-11" d="M96.61,99.34l-1.77-4.41h.62l1.49,3.71h.03l1.45-3.71h.62l-1.78,4.41h-.66Z"/><path class="cls-11" d="M102.7,99.34h-3.15v-4.41h3.08v.5h-2.49v1.39h1.98v.5h-1.98v1.52h2.56v.5Z"/><path class="cls-11" d="M104,94.93v3.91h2.46v.5h-3.07v-4.41h.61Z"/><path class="cls-11" d="M107.97,95.58c.62,0,.88-.21,1.04-.67h.4v4.44h-.61v-3.38h-.83v-.39Z"/></g><g class="cls-10"><rect class="cls-6" x="-514.71" y="-636.66" width="678.3" height="877.8"/></g><g><path class="cls-11" d="M6.66,4.06h.02l.65-2.62h.41l-.81,3.15h-.5l-.66-2.52h-.02l-.67,2.52h-.5l-.81-3.15h.42l.66,2.61h.02l.69-2.61h.41l.7,2.62Z"/><path class="cls-11" d="M10.34,4.59h-2.25V1.44h2.2v.36h-1.78v.99h1.42v.36h-1.42v1.09h1.83v.36Z"/><path class="cls-11" d="M10.99,3.44c.02,.58,.42,.87,.95,.87,.47,0,.77-.2,.77-.55,0-.29-.19-.43-.6-.51l-.62-.12c-.47-.09-.79-.34-.79-.83,0-.55,.44-.93,1.13-.93,.79,0,1.25,.42,1.25,1.13l-.4,.02c-.02-.52-.33-.82-.85-.82-.46,0-.71,.21-.71,.57,0,.31,.21,.41,.57,.48l.57,.11c.58,.11,.87,.36,.87,.87,0,.58-.5,.92-1.18,.92-.78,0-1.34-.42-1.34-1.19l.39-.03Z"/><path class="cls-11" d="M14.38,4.59V1.8h-1.15v-.36h2.74v.36h-1.17v2.79h-.43Z"/><path class="cls-11" d="M18.62,4.59h-1.34V1.44h1.29c.78,0,1.1,.34,1.1,.84,0,.37-.26,.62-.6,.68,.39,.07,.69,.32,.69,.77,0,.55-.4,.87-1.14,.87Zm-.92-1.79h.88c.46,0,.65-.2,.65-.5s-.19-.51-.65-.51h-.88v1.01Zm0,.34v1.1h.91c.47,0,.72-.21,.72-.55s-.25-.55-.72-.55h-.91Z"/><path class="cls-11" d="M20.2,3.39V1.44h.43v1.95c0,.6,.3,.9,.85,.9s.86-.29,.86-.89V1.44h.42v1.95c0,.92-.57,1.27-1.28,1.27s-1.28-.34-1.28-1.27Z"/><path class="cls-11" d="M23.75,1.44v3.15h-.43V1.44h.43Z"/><path class="cls-11" d="M24.8,1.44v2.79h1.76v.36h-2.19V1.44h.43Z"/><path class="cls-11" d="M26.98,1.44h1.14c.99,0,1.62,.59,1.62,1.58s-.63,1.58-1.62,1.58h-1.14V1.44Zm1.12,2.8c.77,0,1.19-.46,1.19-1.22s-.42-1.22-1.19-1.22h-.68v2.44h.68Z"/><path class="cls-11" d="M30.63,1.44v3.15h-.44V1.44h.44Z"/><path class="cls-11" d="M33.42,3.85V1.44h.41v3.15h-.35l-1.83-2.53v2.53h-.41V1.44h.45l1.73,2.41Z"/><path class="cls-11" d="M34.28,3.02c0-.97,.67-1.64,1.54-1.64s1.41,.5,1.46,1.3l-.42,.03c-.04-.58-.41-.96-1.04-.96s-1.1,.49-1.1,1.27,.46,1.27,1.14,1.27c.59,0,.97-.37,1.03-.91h-.96v-.34h1.36v1.56h-.4v-.56c-.14,.4-.58,.62-1.08,.62-.89,0-1.54-.66-1.54-1.64Z"/></g><g><path class="cls-11" d="M79.5,4.59h-2.25V1.44h2.2v.36h-1.78v.99h1.42v.36h-1.42v1.09h1.83v.36Z"/><path class="cls-11" d="M81.51,1.44l1.31,3.15h-.46l-.38-.93h-1.44l-.37,.93h-.42l1.29-3.15h.48Zm-.83,1.88h1.16l-.58-1.4h-.02l-.57,1.4Z"/><path class="cls-11" d="M83.35,3.44c.02,.58,.42,.87,.95,.87,.47,0,.77-.2,.77-.55,0-.29-.19-.43-.6-.51l-.62-.12c-.47-.09-.79-.34-.79-.83,0-.55,.44-.93,1.13-.93,.79,0,1.25,.42,1.25,1.13l-.4,.02c-.02-.52-.33-.82-.85-.82-.46,0-.71,.21-.71,.57,0,.31,.21,.41,.57,.48l.57,.11c.58,.11,.87,.36,.87,.87,0,.58-.5,.92-1.18,.92-.78,0-1.34-.42-1.34-1.19l.39-.03Z"/><path class="cls-11" d="M86.74,4.59V1.8h-1.15v-.36h2.74v.36h-1.17v2.79h-.43Z"/><path class="cls-11" d="M90.98,4.59h-1.34V1.44h1.29c.78,0,1.1,.34,1.1,.84,0,.37-.26,.62-.6,.68,.39,.07,.69,.32,.69,.77,0,.55-.4,.87-1.14,.87Zm-.92-1.79h.88c.46,0,.65-.2,.65-.5s-.2-.51-.65-.51h-.88v1.01Zm0,.34v1.1h.91c.47,0,.72-.21,.72-.55s-.25-.55-.72-.55h-.91Z"/><path class="cls-11" d="M92.56,3.39V1.44h.43v1.95c0,.6,.3,.9,.85,.9s.86-.29,.86-.89V1.44h.43v1.95c0,.92-.57,1.27-1.28,1.27s-1.28-.34-1.28-1.27Z"/><path class="cls-11" d="M96.11,1.44v3.15h-.44V1.44h.44Z"/><path class="cls-11" d="M97.16,1.44v2.79h1.76v.36h-2.19V1.44h.44Z"/><path class="cls-11" d="M99.34,1.44h1.14c.99,0,1.62,.59,1.62,1.58s-.62,1.58-1.62,1.58h-1.14V1.44Zm1.12,2.8c.77,0,1.19-.46,1.19-1.22s-.42-1.22-1.19-1.22h-.68v2.44h.68Z"/><path class="cls-11" d="M102.99,1.44v3.15h-.43V1.44h.43Z"/><path class="cls-11" d="M105.78,3.85V1.44h.41v3.15h-.34l-1.83-2.53v2.53h-.41V1.44h.45l1.73,2.41Z"/><path class="cls-11" d="M106.64,3.02c0-.97,.67-1.64,1.54-1.64s1.41,.5,1.46,1.3l-.42,.03c-.04-.58-.41-.96-1.04-.96s-1.1,.49-1.1,1.27,.46,1.27,1.14,1.27c.59,0,.97-.37,1.03-.91h-.96v-.34h1.36v1.56h-.4v-.56c-.14,.4-.58,.62-1.08,.62-.89,0-1.54-.66-1.54-1.64Z"/></g></g></g></g></svg>