<?xml version="1.0" encoding="UTF-8"?><svg id="Layer_1" xmlns="http://www.w3.org/2000/svg" xmlns:xlink="http://www.w3.org/1999/xlink" viewBox="0 0 112 100"><defs><style>.cls-1{stroke:#ebebec;}.cls-1,.cls-2{stroke-width:.31px;}.cls-1,.cls-2,.cls-3,.cls-4{fill:none;}.cls-1,.cls-2,.cls-4{stroke-linecap:round;stroke-linejoin:round;}.cls-2,.cls-4{stroke:#000;}.cls-5{fill:#f1b784;fill-rule:evenodd;}.cls-6{clip-path:url(#clippath);}.cls-7{clip-path:url(#clippath-3);}.cls-8{clip-path:url(#clippath-5);}.cls-9{fill:#333132;}.cls-4{stroke-width:.47px;}</style><clipPath id="clippath"><rect class="cls-3" x="-482.96" y="-648.54" width="612" height="792"/></clipPath><clipPath id="clippath-3"><rect class="cls-3" x="-9.46" y="1.86" width="124.83" height="98.99"/></clipPath><clipPath id="clippath-5"><rect class="cls-3" x="-334.16" y="-520.86" width="328.3" height="522.72"/></clipPath></defs><g class="cls-6"><polygon class="cls-5" points="61.35 35.15 58.3 35.15 58.3 28.69 55.14 28.69 55.14 29.78 52.53 29.78 52.53 41.4 57.47 41.4 57.47 41.95 61.35 41.95 61.35 35.15"/><polygon class="cls-1" points="61.35 35.16 58.3 35.16 58.3 28.69 55.14 28.69 55.14 29.78 52.53 29.78 52.53 41.4 57.47 41.4 57.47 41.95 61.35 41.95 61.35 35.16"/><line class="cls-2" x1="32.66" y1="31.93" x2="32.66" y2="28.69"/><polyline class="cls-2" points="36.12 31.93 32.66 28.69 29.2 31.93"/><polyline class="cls-2" points="36.12 28.69 32.66 31.93 29.2 28.69"/><line class="cls-2" x1="90.52" y1="64.8" x2="93.23" y2="63.82"/><polyline class="cls-2" points="91.72 68.09 93.23 63.82 89.32 61.52"/><polyline class="cls-2" points="94.43 67.11 90.52 64.8 92.03 60.53"/><polyline class="cls-2" points="88.58 55.13 87.93 53.35 87.93 18 105.74 18 105.74 43.34"/><polyline class="cls-2" points="105.74 43.95 105.74 44.26 98.81 46.78 100.3 50.86"/><polyline class="cls-2" points="2.09 19.35 .94 19.35 .94 11.79 7.79 11.79 7.79 13.38"/><polyline class="cls-2" points="14.81 13.38 14.81 11.79 19.18 11.79 19.18 13.38"/><polyline class="cls-2" points="25.38 13.38 25.38 11.79 31.87 11.79 31.87 13.38"/><line class="cls-2" x1="28.63" y1="11.79" x2="28.63" y2="13.92"/><polyline class="cls-2" points="36.28 13.38 36.28 11.79 42.78 11.79 42.78 13.38"/><polyline class="cls-2" points="47.19 13.38 47.19 11.79 53.69 11.79 53.69 13.38"/><line class="cls-2" x1="50.44" y1="13.92" x2="50.44" y2="11.79"/><polyline class="cls-2" points="58.07 13.38 58.07 11.79 61.39 11.79 61.39 13.38"/><polyline class="cls-2" points="65.09 13.38 65.09 11.79 71.94 11.79 71.94 19.35 70.42 19.35"/><polyline class="cls-2" points="70.42 35.98 71.94 35.98 71.94 43.53 65.09 43.53 65.09 41.95"/><polyline class="cls-2" points="57.75 41.95 57.75 43.53 49.3 43.53 49.3 41.95"/><line class="cls-2" x1="52.53" y1="41.4" x2="52.53" y2="43.53"/><polyline class="cls-2" points="44.87 41.95 44.87 43.53 38.37 43.53 38.37 41.95"/><line class="cls-2" x1="41.62" y1="41.4" x2="41.62" y2="43.53"/><polyline class="cls-2" points="32.45 41.95 32.45 43.53 27.46 43.53 27.46 41.95"/><polyline class="cls-2" points="21.47 41.95 21.47 43.53 18.15 43.53 18.15 41.96"/><polyline class="cls-2" points="14.89 39.88 14.89 41.46 11.39 41.46 11.39 39.33"/><polyline class="cls-2" points="14.58 25.01 13.04 25.01 13.04 20.16"/><line class="cls-2" x1="13.04" y1="24.66" x2="11.49" y2="24.66"/><line class="cls-2" x1="11.49" y1="23.02" x2="13.04" y2="22.3"/><polyline class="cls-2" points="61.39 30.53 59.84 30.53 59.84 35.16"/><line class="cls-2" x1="58.3" y1="33.29" x2="59.84" y2="32.57"/><line class="cls-2" x1="58.3" y1="30.92" x2="59.84" y2="30.92"/><polyline class="cls-2" points="86.72 55.8 86.72 49.41 79.75 49.41 79.75 43.95 77.9 43.95 77.9 43.34 79.75 43.34 79.75 35.52 79.75 29.58 79.75 24.25 79.75 21.41 79.75 12.21 100.3 12.21 100.3 12.75 107.77 12.75 107.77 17.26 108.32 17.26 108.32 25.09 108.32 28.67 108.32 32.68 108.32 35.52 108.32 43.34 110.57 43.34 110.57 43.95 108.32 43.95 108.32 49.41 102.27 49.41 102.27 50.2"/><polyline class="cls-2" points="57.19 95.41 57.5 96.26 51 98.62 49.02 93.18 50.5 92.64"/><polyline class="cls-2" points="49.18 75.82 47.64 76.38 45.06 69.28 51.49 66.94 52.03 68.43"/><polyline class="cls-2" points="58.78 65.97 58.24 64.49 62.35 62.99 62.89 64.48"/><polyline class="cls-2" points="68.68 62.37 68.14 60.88 74.25 58.66 74.79 60.15"/><line class="cls-2" x1="71.19" y1="59.77" x2="71.92" y2="61.77"/><polyline class="cls-2" points="78.93 58.64 78.39 57.15 84.5 54.93 85.04 56.42"/><line class="cls-2" x1="81.44" y1="56.04" x2="82.17" y2="58.04"/><polyline class="cls-2" points="105.99 60.43 107.48 59.89 109.2 64.61 107.68 65.16"/><polyline class="cls-2" points="66.42 92.06 66.72 92.9 62.84 94.31 62.53 93.47"/><line class="cls-2" x1="97.6" y1="63.9" x2="96.12" y2="64.45"/><polyline class="cls-2" points="99.02 63.2 97.54 63.74 98.51 66.41 97.04 66.95"/><line class="cls-2" x1="98.45" y1="66.25" x2="99.93" y2="65.71"/><polyline class="cls-2" points="60.86 72.95 59.52 73.44 61 77.51 62.48 76.97"/><line class="cls-2" x1="59.4" y1="77.74" x2="60.88" y2="77.2"/><line class="cls-2" x1="60.08" y1="74.98" x2="58.85" y2="76.21"/><polyline class="cls-2" points="98.33 30.95 96.65 30.95 96.65 27.29 94.96 27.29"/><line class="cls-2" x1="98.33" y1="27.88" x2="96.65" y2="27.88"/><line class="cls-2" x1="94.96" y1="30.62" x2="96.65" y2="30.62"/><rect class="cls-2" x="104.61" y="43.34" width="5.97" height=".61"/><rect class="cls-2" x="77.9" y="43.34" width="5.55" height=".61"/><polyline class="cls-2" points="107.09 68.75 108.61 68.2 110.75 74.1 104.46 76.39 104.15 75.52"/><polyline class="cls-2" points="92.79 80.01 96.37 78.71 96.25 78.39"/><line class="cls-2" x1="81.34" y1="84.18" x2="84.68" y2="82.96"/><polyline class="cls-2" points="73.48 87.07 73.68 87.59 70.11 88.89"/><polygon class="cls-2" points="2.09 19.51 2.09 19.05 2.64 19.05 2.64 13.92 7.51 13.92 7.51 13.38 15.09 13.38 15.09 13.92 18.9 13.92 18.9 13.38 25.63 13.38 25.63 13.92 31.56 13.92 31.56 13.38 36.53 13.38 36.53 13.92 42.47 13.92 42.47 13.38 47.44 13.38 47.44 13.92 53.38 13.92 53.38 13.38 58.35 13.38 58.35 13.92 61.22 13.92 61.22 13.38 65.37 13.38 65.37 13.92 69.88 13.92 69.88 19.07 70.42 19.07 70.42 24.42 69.88 24.42 69.88 30.91 70.42 30.91 70.42 36.26 69.88 36.26 69.88 41.4 65.37 41.4 65.37 41.95 57.47 41.95 57.47 41.4 49.58 41.4 49.58 41.95 44.62 41.95 44.62 41.4 38.68 41.4 38.68 41.95 32.17 41.95 32.17 41.4 27.74 41.4 27.74 41.95 21.19 41.95 21.19 41.4 18.56 41.4 18.56 41.96 18.1 41.96 18.1 39.88 14.61 39.88 14.61 39.33 9.93 39.33 9.93 36.37 9.38 36.37 9.38 34.73 6.27 34.73 6.27 30.22 3 30.22 3 19.51 2.09 19.51"/><rect class="cls-2" x="9.51" y="26.63" width="53.87" height="2.06"/><line class="cls-2" x1="9.51" y1="27.66" x2="3" y2="27.66"/><polyline class="cls-2" points="18.22 28.69 18.22 39.88 18.1 39.88"/><line class="cls-2" x1="23.68" y1="28.69" x2="23.68" y2="41.95"/><polyline class="cls-2" points="29.2 28.69 29.2 31.93 36.12 31.93 36.12 28.69"/><polyline class="cls-2" points="36.17 41.95 36.17 31.93 36.12 31.93"/><line class="cls-2" x1="41.62" y1="41.4" x2="41.62" y2="28.69"/><line class="cls-2" x1="47.08" y1="41.95" x2="47.08" y2="28.69"/><line class="cls-2" x1="52.53" y1="41.4" x2="52.53" y2="29.78"/><polyline class="cls-2" points="52.48 28.77 52.48 29.78 55.14 29.78 55.14 28.69"/><polyline class="cls-2" points="58.3 28.69 58.3 35.16 61.39 35.16 61.39 28.69"/><line class="cls-2" x1="61.35" y1="41.95" x2="61.35" y2="35.15"/><line class="cls-2" x1="69.88" y1="27.66" x2="63.38" y2="27.66"/><polyline class="cls-2" points="61.35 26.63 61.35 13.92 61.22 13.92"/><line class="cls-2" x1="55.9" y1="26.63" x2="55.9" y2="13.38"/><line class="cls-2" x1="50.44" y1="26.63" x2="50.44" y2="13.92"/><line class="cls-2" x1="44.99" y1="26.63" x2="44.99" y2="13.38"/><line class="cls-2" x1="39.53" y1="26.63" x2="39.53" y2="13.92"/><line class="cls-2" x1="34.08" y1="26.63" x2="34.08" y2="13.38"/><line class="cls-2" x1="28.63" y1="26.63" x2="28.63" y2="13.92"/><line class="cls-2" x1="23.17" y1="26.63" x2="23.17" y2="13.38"/><polyline class="cls-2" points="11.49 26.52 11.49 20.16 14.58 20.16 14.58 26.63"/><polyline class="cls-2" points="17.46 26.63 17.46 25.55 14.58 25.55"/><line class="cls-2" x1="11.53" y1="20.16" x2="11.53" y2="13.38"/><polygon class="cls-2" points="102.25 50.15 106.09 60.7 105.58 60.88 107.07 64.98 107.55 64.8 107.69 65.19 106.02 65.8 107.18 68.99 106.66 69.18 108.21 73.45 104.19 74.91 104.39 75.43 96.01 78.48 95.51 77.1 92.17 78.32 92.8 80.04 84.69 82.99 84.07 81.27 80.73 82.48 81.35 84.2 73.25 87.15 72.62 85.43 69.28 86.65 70.69 90.48 66.14 92.13 65.53 90.44 62.17 91.67 62.79 93.37 56.93 95.51 56.74 94.99 52.51 96.54 51.11 92.72 50.6 92.9 49.16 88.94 51.43 88.12 50.01 84.23 51.98 83.51 49.09 75.56 49.6 75.37 47.84 70.54 51.95 69.04 51.77 68.53 59.02 65.89 59.2 66.4 62.78 65.1 62.6 64.59 68.94 62.28 69.13 62.79 74.71 60.76 74.52 60.24 79.19 58.55 79.38 59.06 84.96 57.03 84.77 56.51 102.25 50.15"/><polyline class="cls-2" points="94.43 67.11 92.03 60.53 89.32 61.52 91.72 68.09"/><polyline class="cls-2" points="94.61 60.33 97.7 68.75 95.61 69.52 95.4 68.95 56.8 82.99 56.1 81.06 94.43 67.11"/><rect class="cls-2" x="94.96" y="25.61" width="3.36" height="7.12"/><polyline class="cls-2" points="95.45 62.63 98.42 61.55 100.64 67.65 97.69 68.73"/><polyline class="cls-2" points="60.08 79.61 57.85 73.46 60.81 72.38 63.05 78.53"/><polyline class="cls-2" points="65.76 77.54 65.39 76.52 62.68 77.51"/><polyline class="cls-2" points="105.58 60.88 105.53 60.76 99 63.14"/><polyline class="cls-2" points="51.98 83.51 52.03 83.64 56.45 82.03"/><line class="cls-2" x1="55.67" y1="67.11" x2="57.96" y2="73.42"/><line class="cls-2" x1="66.61" y1="63.13" x2="71.14" y2="75.58"/><line class="cls-2" x1="71.92" y1="61.77" x2="76.27" y2="73.72"/><line class="cls-2" x1="76.86" y1="59.39" x2="81.39" y2="71.85"/><line class="cls-2" x1="82.17" y1="58.04" x2="86.52" y2="69.99"/><polyline class="cls-2" points="87.11 55.66 89.25 61.54 89.32 61.52"/><polyline class="cls-2" points="92.27 61.18 95.11 60.15 94.12 57.44 88.5 59.48"/><polyline class="cls-2" points="92.03 60.53 92.16 60.48 91.88 59.73 90.35 60.29 90.62 61.04"/><polyline class="cls-2" points="95.51 77.1 95.61 77.07 92.97 69.83"/><polyline class="cls-2" points="65.53 90.44 65.59 90.42 62.17 81.04"/><polyline class="cls-2" points="80.73 82.48 80.63 82.52 78 75.28"/><g class="cls-7"><rect class="cls-2" x="-234.87" y="-438.61" width="450.14" height="582.54"/></g><g><path class="cls-9" d="M87.66,94.75v3.91h2.46v.5h-3.07v-4.41h.61Z"/><path class="cls-9" d="M93.86,99.16h-3.15v-4.41h3.08v.5h-2.49v1.39h1.98v.5h-1.98v1.52h2.56v.5Z"/><path class="cls-9" d="M95.93,99.16l-1.77-4.41h.62l1.49,3.71h.03l1.45-3.71h.62l-1.78,4.41h-.66Z"/><path class="cls-9" d="M102.02,99.16h-3.15v-4.41h3.08v.5h-2.49v1.39h1.98v.5h-1.98v1.52h2.56v.5Z"/><path class="cls-9" d="M103.32,94.75v3.91h2.46v.5h-3.07v-4.41h.61Z"/><path class="cls-9" d="M107.99,97.13c.15-.51,.6-.9,1.32-.9,.95,0,1.55,.62,1.55,1.49,0,.91-.62,1.53-1.61,1.53-1.18,0-1.79-.85-1.79-2.21s.58-2.37,1.82-2.37c.88,0,1.46,.5,1.54,1.33l-.58,.02c-.08-.52-.37-.87-.97-.87-.9,0-1.28,.82-1.27,1.97Zm1.25,1.63c.65,0,1.04-.41,1.04-1.02s-.39-1.03-1.06-1.03-1.05,.41-1.05,1.03,.41,1.02,1.07,1.02Z"/></g><g class="cls-8"><rect class="cls-4" x="-506.93" y="-635.46" width="678.3" height="877.8"/></g><g><path class="cls-9" d="M6,3.88h.02l.65-2.62h.41l-.81,3.15h-.5l-.66-2.52h-.02l-.67,2.52h-.5l-.81-3.15h.42l.66,2.61h.02l.69-2.61h.41l.7,2.62Z"/><path class="cls-9" d="M9.68,4.41h-2.25V1.26h2.2v.36h-1.78v.99h1.42v.36h-1.42v1.09h1.83v.36Z"/><path class="cls-9" d="M10.32,3.26c.03,.58,.42,.87,.95,.87,.47,0,.77-.2,.77-.55,0-.29-.19-.43-.6-.51l-.62-.12c-.47-.09-.79-.34-.79-.83,0-.55,.44-.93,1.13-.93,.79,0,1.25,.42,1.25,1.13l-.39,.02c-.02-.52-.33-.82-.85-.82-.46,0-.71,.21-.71,.57,0,.31,.21,.41,.57,.48l.57,.11c.58,.11,.87,.36,.87,.87,0,.58-.5,.92-1.18,.92-.78,0-1.34-.42-1.34-1.19l.39-.03Z"/><path class="cls-9" d="M13.71,4.41V1.62h-1.15v-.36h2.74v.36h-1.17v2.79h-.43Z"/><path class="cls-9" d="M17.96,4.41h-1.34V1.26h1.29c.78,0,1.1,.34,1.1,.84,0,.37-.26,.62-.6,.68,.39,.07,.69,.32,.69,.77,0,.55-.4,.87-1.14,.87Zm-.92-1.79h.88c.46,0,.65-.2,.65-.5s-.2-.51-.65-.51h-.88v1.01Zm0,.34v1.1h.91c.47,0,.72-.21,.72-.55s-.25-.55-.72-.55h-.91Z"/><path class="cls-9" d="M19.53,3.21V1.26h.43v1.95c0,.6,.3,.9,.85,.9s.86-.29,.86-.89V1.26h.43v1.95c0,.92-.57,1.27-1.28,1.27s-1.28-.34-1.28-1.27Z"/><path class="cls-9" d="M23.09,1.26v3.15h-.44V1.26h.44Z"/><path class="cls-9" d="M24.13,1.26v2.79h1.76v.36h-2.19V1.26h.44Z"/><path class="cls-9" d="M26.32,1.26h1.14c.99,0,1.62,.59,1.62,1.58s-.62,1.58-1.62,1.58h-1.14V1.26Zm1.12,2.8c.77,0,1.19-.46,1.19-1.22s-.42-1.22-1.19-1.22h-.68v2.44h.68Z"/><path class="cls-9" d="M29.96,1.26v3.15h-.43V1.26h.43Z"/><path class="cls-9" d="M32.75,3.67V1.26h.41v3.15h-.34l-1.83-2.53v2.53h-.41V1.26h.45l1.73,2.41Z"/><path class="cls-9" d="M33.62,2.84c0-.97,.67-1.64,1.54-1.64s1.41,.5,1.46,1.3l-.42,.03c-.04-.58-.41-.96-1.04-.96s-1.1,.49-1.1,1.27,.46,1.27,1.14,1.27c.59,0,.97-.37,1.03-.91h-.96v-.34h1.36v1.56h-.4v-.56c-.14,.4-.58,.62-1.08,.62-.89,0-1.54-.66-1.54-1.64Z"/></g><g><path class="cls-9" d="M78.83,4.41h-2.25V1.26h2.2v.36h-1.78v.99h1.42v.36h-1.42v1.09h1.83v.36Z"/><path class="cls-9" d="M80.84,1.26l1.31,3.15h-.46l-.38-.93h-1.44l-.37,.93h-.43l1.29-3.15h.47Zm-.83,1.88h1.16l-.58-1.4h-.02l-.57,1.4Z"/><path class="cls-9" d="M82.68,3.26c.03,.58,.42,.87,.95,.87,.47,0,.77-.2,.77-.55,0-.29-.19-.43-.6-.51l-.62-.12c-.47-.09-.79-.34-.79-.83,0-.55,.44-.93,1.13-.93,.79,0,1.25,.42,1.25,1.13l-.39,.02c-.02-.52-.33-.82-.85-.82-.46,0-.71,.21-.71,.57,0,.31,.21,.41,.57,.48l.57,.11c.58,.11,.87,.36,.87,.87,0,.58-.5,.92-1.18,.92-.78,0-1.34-.42-1.34-1.19l.39-.03Z"/><path class="cls-9" d="M86.07,4.41V1.62h-1.15v-.36h2.74v.36h-1.17v2.79h-.43Z"/><path class="cls-9" d="M90.32,4.41h-1.34V1.26h1.29c.78,0,1.1,.34,1.1,.84,0,.37-.26,.62-.6,.68,.39,.07,.69,.32,.69,.77,0,.55-.4,.87-1.14,.87Zm-.92-1.79h.88c.46,0,.65-.2,.65-.5s-.19-.51-.65-.51h-.88v1.01Zm0,.34v1.1h.91c.47,0,.72-.21,.72-.55s-.25-.55-.72-.55h-.91Z"/><path class="cls-9" d="M91.89,3.21V1.26h.43v1.95c0,.6,.3,.9,.85,.9s.86-.29,.86-.89V1.26h.42v1.95c0,.92-.57,1.27-1.28,1.27s-1.28-.34-1.28-1.27Z"/><path class="cls-9" d="M95.45,1.26v3.15h-.43V1.26h.43Z"/><path class="cls-9" d="M96.49,1.26v2.79h1.76v.36h-2.19V1.26h.43Z"/><path class="cls-9" d="M98.68,1.26h1.14c.99,0,1.62,.59,1.62,1.58s-.63,1.58-1.62,1.58h-1.14V1.26Zm1.12,2.8c.77,0,1.19-.46,1.19-1.22s-.42-1.22-1.19-1.22h-.68v2.44h.68Z"/><path class="cls-9" d="M102.33,1.26v3.15h-.44V1.26h.44Z"/><path class="cls-9" d="M105.11,3.67V1.26h.41v3.15h-.35l-1.83-2.53v2.53h-.41V1.26h.45l1.73,2.41Z"/><path class="cls-9" d="M105.98,2.84c0-.97,.67-1.64,1.54-1.64s1.41,.5,1.46,1.3l-.42,.03c-.04-.58-.41-.96-1.04-.96s-1.1,.49-1.1,1.27,.46,1.27,1.14,1.27c.59,0,.97-.37,1.03-.91h-.96v-.34h1.36v1.56h-.4v-.56c-.14,.4-.58,.62-1.08,.62-.89,0-1.54-.66-1.54-1.64Z"/></g></g></svg>