<?xml version="1.0" encoding="UTF-8"?><svg id="Layer_1" xmlns="http://www.w3.org/2000/svg" xmlns:xlink="http://www.w3.org/1999/xlink" viewBox="0 0 111.79 102.21"><defs><style>.cls-1{stroke:#ebebec;}.cls-1,.cls-2,.cls-3{stroke-width:.31px;}.cls-1,.cls-2,.cls-3,.cls-4,.cls-5{fill:none;}.cls-1,.cls-2,.cls-3,.cls-5{stroke-linecap:round;stroke-linejoin:round;}.cls-6{clip-path:url(#clippath-44);}.cls-2,.cls-3,.cls-5{stroke:#000;}.cls-7{fill:#f1b784;fill-rule:evenodd;}.cls-3{stroke-dasharray:0 0 3.94 1.97;}.cls-8{clip-path:url(#clippath);}.cls-9{clip-path:url(#clippath-3);}.cls-10{fill:#333132;}.cls-5{stroke-width:.47px;}</style><clipPath id="clippath"><rect class="cls-4" x="-483.64" y="-648.42" width="612" height="792"/></clipPath><clipPath id="clippath-3"><rect class="cls-4" x="-12.48" y="1.1" width="133.2" height="105"/></clipPath><clipPath id="clippath-44"><rect class="cls-4" x="-483.64" y="-538.2" width="612" height="571.56"/></clipPath></defs><g class="cls-8"><polygon class="cls-7" points="2.49 14.94 6.99 14.94 10.98 14.94 10.98 27.65 8.99 27.65 8.99 28.68 2.49 28.68 2.49 20.53 1.58 20.53 1.58 20.07 2.49 20.07 2.49 14.94"/><polygon class="cls-1" points="2.49 14.94 6.99 14.94 10.98 14.94 10.98 27.65 8.99 27.65 8.99 28.68 2.49 28.68 2.49 20.53 1.58 20.53 1.58 20.07 2.49 20.07 2.49 14.94"/><polygon class="cls-7" points="69.36 31.92 69.36 28.68 62.86 28.68 62.86 29.71 60.87 29.71 60.87 42.42 64.85 42.42 69.36 42.42 69.36 37.28 69.36 31.92"/><polygon class="cls-1" points="69.36 31.92 69.36 28.68 62.86 28.68 62.86 29.71 60.87 29.71 60.87 42.42 64.85 42.42 69.36 42.42 69.36 37.28 69.36 31.92"/><line class="cls-2" x1="32.14" y1="32.95" x2="32.14" y2="29.71"/><polyline class="cls-2" points="35.6 32.95 32.14 29.71 28.69 32.95"/><polyline class="cls-2" points="35.6 29.71 32.14 32.95 28.69 29.71"/><line class="cls-2" x1="90" y1="65.82" x2="92.71" y2="64.84"/><polyline class="cls-2" points="91.2 69.11 92.71 64.84 88.81 62.53"/><polyline class="cls-2" points="93.91 68.12 90 65.82 91.52 61.55"/><line class="cls-3" x1="96.76" y1="69.92" x2="107.78" y2="74.5"/><line class="cls-3" x1="105.01" y1="66.89" x2="99.69" y2="77.97"/><line class="cls-2" x1="75.95" y1="14.83" x2="71.95" y2="18.21"/><line class="cls-2" x1="75.95" y1="18.21" x2="71.95" y2="14.83"/><line class="cls-2" x1="52.02" y1="42.42" x2="52.02" y2="46.02"/><line class="cls-2" x1="41.11" y1="42.42" x2="41.11" y2="46.02"/><line class="cls-2" x1="12.52" y1="25.68" x2="10.98" y2="25.68"/><line class="cls-2" x1="12.52" y1="22.72" x2="14.07" y2="22"/><line class="cls-2" x1="70.17" y1="59.39" x2="71.4" y2="62.79"/><line class="cls-2" x1="80.42" y1="55.66" x2="81.66" y2="59.06"/><line class="cls-2" x1="77.65" y1="33.57" x2="79.78" y2="33.57"/><polyline class="cls-2" points="105.48 61.45 106.96 60.91 108.99 66.47 105.34 67.8"/><line class="cls-2" x1="94.55" y1="44.66" x2="91.88" y2="44.66"/><line class="cls-2" x1="97.08" y1="64.92" x2="95.6" y2="65.46"/><polyline class="cls-2" points="98.51 64.22 97.02 64.76 97.99 67.43 96.52 67.97"/><line class="cls-2" x1="97.94" y1="67.27" x2="99.42" y2="66.73"/><polyline class="cls-2" points="60.35 73.97 59 74.46 60.48 78.53 61.96 77.99"/><line class="cls-2" x1="58.89" y1="78.76" x2="60.37" y2="78.22"/><line class="cls-2" x1="59.56" y1="76" x2="58.33" y2="77.23"/><polyline class="cls-2" points="97.71 31.97 96.13 31.97 96.13 28.97 94.55 28.97"/><line class="cls-2" x1="97.71" y1="29.3" x2="96.13" y2="29.3"/><line class="cls-2" x1="94.55" y1="31.64" x2="96.13" y2="31.64"/><polyline class="cls-2" points="47.33 71.55 46.7 71.78 45.47 68.38 53.98 65.28 55.22 68.68"/><polyline class="cls-2" points="58.11 67.63 56.87 64.23 60.52 62.9"/><line class="cls-2" x1="61.72" y1="62.47" x2="65.18" y2="61.21"/><rect class="cls-2" x="60.19" y="60.44" width="1.27" height="2.86" transform="translate(-17.49 24.54) rotate(-20)"/><rect class="cls-2" x="64.85" y="58.74" width="1.27" height="2.86" transform="translate(-16.63 26.03) rotate(-20)"/><rect class="cls-2" x="69.97" y="56.88" width="1.27" height="2.86" transform="translate(-15.69 27.67) rotate(-20)"/><rect class="cls-2" x="75.1" y="55.01" width="1.27" height="2.86" transform="translate(-14.74 29.31) rotate(-20)"/><rect class="cls-2" x="80.22" y="53.14" width="1.27" height="2.86" transform="translate(-13.79 30.95) rotate(-20)"/><line class="cls-2" x1="66.38" y1="60.77" x2="70.31" y2="59.34"/><line class="cls-2" x1="71.5" y1="58.91" x2="75.43" y2="57.48"/><line class="cls-2" x1="76.63" y1="57.04" x2="80.56" y2="55.61"/><polyline class="cls-2" points="81.75 55.18 83.44 54.56 84.68 57.96"/><line class="cls-2" x1="75.29" y1="57.53" x2="76.53" y2="60.92"/><line class="cls-2" x1="65.04" y1="61.26" x2="66.28" y2="64.65"/><rect class="cls-2" x="73.6" y="44.78" width="2.75" height="1.27"/><rect class="cls-2" x="73.6" y="43.27" width="2.75" height="1.27"/><line class="cls-2" x1="76.35" y1="44.55" x2="76.35" y2="44.78"/><line class="cls-2" x1="77.39" y1="44.66" x2="76.35" y2="44.66"/><polyline class="cls-2" points="75.63 46.05 75.63 50.97 79.23 50.97 79.23 50.43"/><rect class="cls-2" x="73.6" y="37.6" width="2.75" height="1.27"/><rect class="cls-2" x="73.6" y="32.15" width="2.75" height="1.27"/><line class="cls-2" x1="75.63" y1="22.13" x2="75.63" y2="32.15"/><line class="cls-2" x1="75.63" y1="33.42" x2="75.63" y2="37.6"/><line class="cls-2" x1="75.63" y1="38.88" x2="75.63" y2="43.27"/><line class="cls-2" x1="79.23" y1="39.02" x2="75.63" y2="39.01"/><line class="cls-2" x1="79.78" y1="33.57" x2="75.63" y2="33.57"/><line class="cls-2" x1="79.23" y1="28.12" x2="75.63" y2="28.12"/><line class="cls-2" x1="110.06" y1="22.29" x2="110.06" y2="44.36"/><line class="cls-2" x1="107.8" y1="39.02" x2="110.06" y2="39.02"/><line class="cls-2" x1="107.8" y1="33.7" x2="110.06" y2="33.7"/><polyline class="cls-2" points="110.06 44.97 110.06 50.17 107.8 50.17"/><rect class="cls-2" x="64.08" y="45.48" width="1.27" height="2.85"/><rect class="cls-2" x="52.16" y="45.48" width="1.27" height="2.85"/><rect class="cls-2" x="46.71" y="45.48" width="1.27" height="2.85"/><rect class="cls-2" x="41.44" y="45.48" width="1.27" height="2.85"/><rect class="cls-2" x="35.84" y="45.48" width="1.27" height="2.85"/><rect class="cls-2" x="28.44" y="45.48" width="1.27" height="2.85"/><rect class="cls-2" x="21.75" y="45.48" width="1.27" height="2.85"/><polyline class="cls-2" points="69.36 42.42 69.9 42.42 69.9 46.02 65.35 46.02"/><line class="cls-2" x1="64.08" y1="46.02" x2="59.68" y2="46.02"/><line class="cls-2" x1="57.86" y1="46.02" x2="53.44" y2="46.02"/><line class="cls-2" x1="52.16" y1="46.02" x2="47.98" y2="46.02"/><line class="cls-2" x1="46.71" y1="46.02" x2="42.71" y2="46.02"/><line class="cls-2" x1="41.44" y1="46.02" x2="37.11" y2="46.02"/><line class="cls-2" x1="35.84" y1="46.02" x2="29.71" y2="46.02"/><line class="cls-2" x1="28.44" y1="46.02" x2="23.02" y2="46.02"/><polyline class="cls-2" points="21.75 46.02 19.61 46.02 17.2 44.56 17.2 42.42 17.58 42.42"/><line class="cls-2" x1="46.56" y1="42.42" x2="46.56" y2="46.02"/><line class="cls-2" x1="35.66" y1="42.42" x2="35.66" y2="46.02"/><line class="cls-2" x1="23.16" y1="42.42" x2="23.16" y2="46.02"/><line class="cls-2" x1="59.68" y1="42.42" x2="59.68" y2="46.02"/><line class="cls-2" x1="57.86" y1="42.42" x2="57.86" y2="46.02"/><polyline class="cls-2" points="2.49 14.94 1.73 14.94 1.73 12.04 10.78 12.04 10.78 14.94"/><polyline class="cls-2" points="27.56 14.94 27.56 12.04 18.03 12.04 18.03 13.09 14.23 13.09 14.23 14.94"/><line class="cls-2" x1="22.66" y1="14.94" x2="22.66" y2="12.04"/><line class="cls-2" x1="12.52" y1="24.18" x2="10.98" y2="24.18"/><line class="cls-2" x1="12.52" y1="16.55" x2="10.98" y2="16.55"/><line class="cls-2" x1="12.52" y1="18.66" x2="14.07" y2="18.66"/><line class="cls-2" x1="12.52" y1="19.66" x2="14.07" y2="19.66"/><line class="cls-2" x1="12.52" y1="21.69" x2="14.07" y2="21.69"/><line class="cls-2" x1="59.33" y1="35.57" x2="60.87" y2="34.85"/><line class="cls-2" x1="59.33" y1="36.55" x2="60.87" y2="36.55"/><polyline class="cls-2" points="65.63 93.14 65.78 93.55 62.41 94.76 62.28 94.39"/><polyline class="cls-2" points="51.99 97.55 53.03 100.44 57.31 98.9 57.11 98.34 61.02 96.93 60.35 95.09"/><polyline class="cls-2" points="70.17 91.5 73.14 89.16 81.19 86.2 80.95 85.52 84.28 84.29 84.18 84"/><polyline class="cls-2" points="95.54 79.48 95.77 80.11 92.35 81.37 92.24 81.07"/><line class="cls-2" x1="73.1" y1="89.19" x2="72.73" y2="88.17"/><polygon class="cls-2" points="1.58 20.53 1.58 20.07 2.49 20.07 2.49 14.94 6.99 14.94 14.58 14.94 18.39 14.94 25.11 14.94 31.05 14.94 35.2 14.94 35.2 10.71 37.75 10.71 37.75 11.43 68.91 11.43 68.91 14.83 69.63 14.83 69.63 21.85 69.36 21.85 69.36 31.92 69.36 37.28 69.36 42.42 64.85 42.42 56.95 42.42 49.06 42.42 44.11 42.42 38.17 42.42 31.65 42.42 27.22 42.42 20.68 42.42 17.58 42.42 17.58 40.35 14.09 40.35 9.41 40.35 9.41 37.38 8.86 37.38 8.86 35.75 5.75 35.75 5.75 31.24 2.49 31.24 2.49 20.53 1.58 20.53"/><polyline class="cls-2" points="35.5 14.94 35.5 27.65 62.86 27.65 62.86 29.71 8.99 29.71 8.99 27.65 28.11 27.65 28.11 14.94"/><line class="cls-2" x1="8.99" y1="28.68" x2="2.49" y2="28.68"/><line class="cls-2" x1="13.96" y1="29.71" x2="13.96" y2="40.35"/><line class="cls-2" x1="23.16" y1="29.71" x2="23.16" y2="42.42"/><polyline class="cls-2" points="28.69 29.71 28.69 32.95 35.6 32.95 35.6 29.71"/><polyline class="cls-2" points="35.65 42.42 35.65 32.95 35.6 32.95"/><line class="cls-2" x1="41.11" y1="42.42" x2="41.11" y2="29.71"/><line class="cls-2" x1="46.56" y1="42.42" x2="46.56" y2="29.71"/><line class="cls-2" x1="52.02" y1="42.42" x2="52.02" y2="30.79"/><polyline class="cls-2" points="51.96 29.79 51.96 30.79 54.62 30.79 54.62 29.71"/><line class="cls-2" x1="57.78" y1="29.71" x2="57.78" y2="42.42"/><line class="cls-2" x1="60.87" y1="42.42" x2="60.87" y2="29.71"/><line class="cls-2" x1="69.36" y1="28.68" x2="62.86" y2="28.68"/><line class="cls-2" x1="22.66" y1="27.65" x2="22.66" y2="14.94"/><line class="cls-2" x1="10.98" y1="27.65" x2="10.98" y2="14.94"/><line class="cls-2" x1="14.07" y1="14.94" x2="14.07" y2="27.65"/><polyline class="cls-2" points="16.94 27.65 16.94 26.57 14.07 26.57"/><polyline class="cls-2" points="14.07 26.02 12.52 26.02 12.52 21.36"/><polygon class="cls-2" points="86.21 57.4 86.21 50.43 79.23 50.43 79.23 47.73 79.78 47.73 79.78 44.97 77.39 44.97 77.39 44.36 79.78 44.36 79.78 41.59 79.23 41.59 79.23 36.54 79.78 36.54 79.78 30.6 79.23 30.6 79.23 25.26 79.78 25.26 79.78 22.42 79.23 22.42 79.23 22.13 73.09 22.13 73.09 18.21 71.95 18.21 71.95 14.83 73.14 14.83 73.14 11.43 87.78 11.43 87.78 10.71 90.34 10.71 90.34 11.43 96.69 11.43 96.69 10.71 99.25 10.71 99.25 11.43 109.14 11.43 109.14 19.74 110.39 19.74 110.39 22.29 107.8 22.29 107.8 26.11 107.26 26.11 107.26 29.69 107.8 29.69 107.8 33.7 107.26 33.7 107.26 36.54 107.8 36.54 107.8 41.59 107.26 41.59 107.26 44.36 110.06 44.36 110.06 44.97 107.26 44.97 107.26 47.73 107.8 47.73 107.8 50.43 101.75 50.43 101.75 51.23 101.76 51.24 105.56 61.69 105.02 61.89 106.52 66.01 107.04 65.82 107.17 66.2 105.04 66.98 107.78 74.5 103.7 75.99 103.87 76.45 95.5 79.5 95 78.12 91.66 79.33 92.28 81.05 84.18 84 83.55 82.29 80.21 83.5 80.84 85.22 72.73 88.17 72.1 86.45 68.77 87.67 70.17 91.5 65.63 93.14 65.01 91.46 61.65 92.68 62.28 94.39 56.41 96.52 56.23 96.01 51.99 97.55 50.6 93.73 50.09 93.92 48.64 89.96 50.91 89.14 49.5 85.25 51.47 84.53 48.57 76.57 49.09 76.39 47.33 71.55 51.44 70.06 58.69 67.42 62.27 66.11 68.61 63.8 74.19 61.77 78.86 60.07 86.21 57.4"/><polyline class="cls-2" points="93.91 68.12 91.52 61.55 88.81 62.53 91.2 69.11"/><polyline class="cls-2" points="89.2 62.39 89.2 61.29 91.12 61.29 91.25 61.64"/><polyline class="cls-2" points="91.52 61.55 91.46 61.41 92.49 61.03 92.49 52.32 88.33 52.32 88.33 52.93 86.21 52.93"/><polyline class="cls-2" points="92.49 58.25 91.34 58.25 91.34 61.29 91.12 61.29"/><polyline class="cls-2" points="92.49 22.24 91.4 22.24 91.4 24.97 92.49 24.97"/><polyline class="cls-2" points="94.55 27.13 97.71 27.13 97.71 33.57 94.55 33.57"/><polyline class="cls-2" points="94.94 63.65 97.9 62.57 100.12 68.67 97.17 69.74"/><line class="cls-2" x1="58.18" y1="67.6" x2="62.53" y2="79.55"/><polyline class="cls-2" points="65.25 78.56 64.88 77.54 62.16 78.53"/><line class="cls-2" x1="94.55" y1="22.29" x2="107.8" y2="22.29"/><polyline class="cls-2" points="107.26 33.7 107.26 33.57 97.71 33.57"/><line class="cls-2" x1="107.8" y1="39.02" x2="94.55" y2="39.02"/><line class="cls-2" x1="94.55" y1="44.66" x2="110.06" y2="44.66"/><line class="cls-2" x1="77.39" y1="44.66" x2="91.88" y2="44.66"/><polyline class="cls-2" points="94.55 57.98 100.26 57.98 103.75 56.71"/><polyline class="cls-2" points="105.04 66.98 105 66.89 100.12 68.66"/><line class="cls-2" x1="99.69" y1="77.97" x2="96.76" y2="69.92"/><polyline class="cls-2" points="83.55 82.28 83.65 82.25 81.01 75.01"/><polyline class="cls-2" points="61.66 92.68 61.53 92.73 58.12 83.34"/><polyline class="cls-2" points="51.47 84.53 51.51 84.65 55.94 83.04"/><line class="cls-2" x1="55.22" y1="68.68" x2="59.57" y2="80.63"/><line class="cls-2" x1="66.28" y1="64.65" x2="70.63" y2="76.6"/><line class="cls-2" x1="71.4" y1="62.79" x2="75.75" y2="74.73"/><line class="cls-2" x1="76.53" y1="60.92" x2="80.88" y2="72.87"/><line class="cls-2" x1="81.66" y1="59.06" x2="86" y2="71"/><polyline class="cls-2" points="86.21 56.82 86.34 56.82 86.34 57.73 89.25 57.73 89.25 61.29"/><line class="cls-2" x1="79.23" y1="39.02" x2="92.49" y2="39.02"/><line class="cls-2" x1="79.78" y1="33.57" x2="92.49" y2="33.57"/><line class="cls-2" x1="79.23" y1="28.12" x2="92.49" y2="28.12"/><polyline class="cls-2" points="79.78 22.42 79.78 22.29 91.4 22.29"/><polyline class="cls-2" points="56.92 73.35 58.39 72.81 56.69 68.14"/><polyline class="cls-2" points="93.91 68.12 55.59 82.07 56.29 84.01 94.68 70.04 94.89 70.61 97.18 69.77 94.55 62.59 94.55 22.24 92.49 22.24 92.49 41.84 91.88 42.19 91.88 47.13 92.24 47.33 92.49 47.48 92.49 50.3 86.21 50.3 86.21 50.43"/><polyline class="cls-2" points="73.14 14.83 75.95 14.83 75.95 18.21 73.09 18.21"/><polyline class="cls-2" points="10.98 19.92 12.52 19.92 12.52 14.94"/><polyline class="cls-2" points="59.33 39.2 59.33 31.59 60.87 31.59"/><polyline class="cls-2" points="96.31 22.29 96.31 20.35 89.98 20.35 89.98 22.29"/><polyline class="cls-2" points="72.1 86.45 72.2 86.42 69.57 79.18"/><g class="cls-9"><rect class="cls-2" x="-168.19" y="-437.59" width="450.14" height="582.54"/></g><g><path class="cls-10" d="M88.78,94.87v3.91h2.46v.5h-3.07v-4.41h.61Z"/><path class="cls-10" d="M94.99,99.28h-3.15v-4.41h3.08v.5h-2.49v1.39h1.98v.5h-1.98v1.52h2.56v.5Z"/><path class="cls-10" d="M97.06,99.28l-1.77-4.41h.62l1.49,3.71h.03l1.45-3.71h.62l-1.78,4.41h-.66Z"/><path class="cls-10" d="M103.15,99.28h-3.15v-4.41h3.08v.5h-2.49v1.39h1.98v.5h-1.98v1.52h2.56v.5Z"/><path class="cls-10" d="M104.45,94.87v3.91h2.46v.5h-3.07v-4.41h.61Z"/><path class="cls-10" d="M108.41,95.52c.62,0,.88-.21,1.04-.67h.4v4.44h-.61v-3.38h-.83v-.39Z"/></g><g class="cls-6"><rect class="cls-5" x="-514.74" y="-617.31" width="678.3" height="877.8"/></g><g><path class="cls-10" d="M5.31,4h.02l.65-2.62h.41l-.81,3.15h-.5l-.66-2.52h-.02l-.67,2.52h-.5l-.81-3.15h.42l.66,2.61h.02l.69-2.61h.41l.7,2.62Z"/><path class="cls-10" d="M8.99,4.53h-2.25V1.38h2.2v.36h-1.78v.99h1.42v.36h-1.42v1.09h1.83v.36Z"/><path class="cls-10" d="M9.63,3.38c.03,.58,.42,.87,.95,.87,.47,0,.77-.2,.77-.55,0-.29-.19-.43-.6-.51l-.62-.12c-.47-.09-.79-.34-.79-.83,0-.55,.44-.93,1.13-.93,.79,0,1.25,.42,1.25,1.13l-.39,.02c-.02-.52-.33-.82-.85-.82-.46,0-.71,.21-.71,.57,0,.31,.21,.41,.57,.48l.57,.11c.58,.11,.87,.36,.87,.87,0,.58-.5,.92-1.18,.92-.78,0-1.34-.42-1.34-1.19l.39-.03Z"/><path class="cls-10" d="M13.02,4.53V1.74h-1.15v-.36h2.74v.36h-1.17v2.79h-.43Z"/><path class="cls-10" d="M17.27,4.53h-1.34V1.38h1.29c.78,0,1.1,.34,1.1,.84,0,.37-.26,.62-.6,.68,.39,.07,.69,.32,.69,.77,0,.55-.4,.87-1.14,.87Zm-.92-1.79h.88c.46,0,.65-.2,.65-.5s-.2-.51-.65-.51h-.88v1.01Zm0,.34v1.1h.91c.47,0,.72-.21,.72-.55s-.25-.55-.72-.55h-.91Z"/><path class="cls-10" d="M18.84,3.33V1.38h.43v1.95c0,.6,.3,.9,.85,.9s.86-.29,.86-.89V1.38h.43v1.95c0,.92-.57,1.27-1.28,1.27s-1.28-.34-1.28-1.27Z"/><path class="cls-10" d="M22.4,1.38v3.15h-.44V1.38h.44Z"/><path class="cls-10" d="M23.44,1.38v2.79h1.76v.36h-2.19V1.38h.44Z"/><path class="cls-10" d="M25.63,1.38h1.14c.99,0,1.62,.59,1.62,1.58s-.62,1.58-1.62,1.58h-1.14V1.38Zm1.12,2.8c.77,0,1.19-.46,1.19-1.22s-.42-1.22-1.19-1.22h-.68v2.44h.68Z"/><path class="cls-10" d="M29.28,1.38v3.15h-.43V1.38h.43Z"/><path class="cls-10" d="M32.06,3.79V1.38h.41v3.15h-.34l-1.83-2.53v2.53h-.41V1.38h.45l1.73,2.41Z"/><path class="cls-10" d="M32.93,2.96c0-.97,.67-1.64,1.54-1.64s1.41,.5,1.46,1.3l-.42,.03c-.04-.58-.41-.96-1.04-.96s-1.1,.49-1.1,1.27,.46,1.27,1.14,1.27c.59,0,.97-.37,1.03-.91h-.96v-.34h1.36v1.56h-.4v-.56c-.14,.4-.58,.62-1.08,.62-.89,0-1.54-.66-1.54-1.64Z"/></g><g><path class="cls-10" d="M78.14,4.53h-2.25V1.38h2.2v.36h-1.78v.99h1.42v.36h-1.42v1.09h1.83v.36Z"/><path class="cls-10" d="M80.15,1.38l1.31,3.15h-.46l-.38-.93h-1.44l-.37,.93h-.43l1.29-3.15h.47Zm-.83,1.88h1.16l-.58-1.4h-.02l-.57,1.4Z"/><path class="cls-10" d="M81.99,3.38c.03,.58,.42,.87,.95,.87,.47,0,.77-.2,.77-.55,0-.29-.19-.43-.6-.51l-.62-.12c-.47-.09-.79-.34-.79-.83,0-.55,.44-.93,1.13-.93,.79,0,1.25,.42,1.25,1.13l-.39,.02c-.02-.52-.33-.82-.85-.82-.46,0-.71,.21-.71,.57,0,.31,.21,.41,.57,.48l.57,.11c.58,.11,.87,.36,.87,.87,0,.58-.5,.92-1.18,.92-.78,0-1.34-.42-1.34-1.19l.39-.03Z"/><path class="cls-10" d="M85.38,4.53V1.74h-1.15v-.36h2.74v.36h-1.17v2.79h-.43Z"/><path class="cls-10" d="M89.63,4.53h-1.34V1.38h1.29c.78,0,1.1,.34,1.1,.84,0,.37-.26,.62-.6,.68,.39,.07,.69,.32,.69,.77,0,.55-.4,.87-1.14,.87Zm-.92-1.79h.88c.46,0,.65-.2,.65-.5s-.19-.51-.65-.51h-.88v1.01Zm0,.34v1.1h.91c.47,0,.72-.21,.72-.55s-.25-.55-.72-.55h-.91Z"/><path class="cls-10" d="M91.2,3.33V1.38h.43v1.95c0,.6,.3,.9,.85,.9s.86-.29,.86-.89V1.38h.42v1.95c0,.92-.57,1.27-1.28,1.27s-1.28-.34-1.28-1.27Z"/><path class="cls-10" d="M94.76,1.38v3.15h-.43V1.38h.43Z"/><path class="cls-10" d="M95.8,1.38v2.79h1.76v.36h-2.19V1.38h.43Z"/><path class="cls-10" d="M97.99,1.38h1.14c.99,0,1.62,.59,1.62,1.58s-.63,1.58-1.62,1.58h-1.14V1.38Zm1.12,2.8c.77,0,1.19-.46,1.19-1.22s-.42-1.22-1.19-1.22h-.68v2.44h.68Z"/><path class="cls-10" d="M101.64,1.38v3.15h-.44V1.38h.44Z"/><path class="cls-10" d="M104.42,3.79V1.38h.41v3.15h-.35l-1.83-2.53v2.53h-.41V1.38h.45l1.73,2.41Z"/><path class="cls-10" d="M105.29,2.96c0-.97,.67-1.64,1.54-1.64s1.41,.5,1.46,1.3l-.42,.03c-.04-.58-.41-.96-1.04-.96s-1.1,.49-1.1,1.27,.46,1.27,1.14,1.27c.59,0,.97-.37,1.03-.91h-.96v-.34h1.36v1.56h-.4v-.56c-.14,.4-.58,.62-1.08,.62-.89,0-1.54-.66-1.54-1.64Z"/></g></g></svg>