<?xml version="1.0" encoding="UTF-8"?><svg xmlns="http://www.w3.org/2000/svg" xmlns:xlink="http://www.w3.org/1999/xlink" viewBox="0 0 110.85 102.99"><defs><style>.cls-1{isolation:isolate;}.cls-2{stroke:#ebebec;}.cls-2,.cls-3,.cls-4{stroke-width:.31px;}.cls-2,.cls-3,.cls-4,.cls-5,.cls-6{fill:none;}.cls-2,.cls-3,.cls-4,.cls-6{stroke-linecap:round;stroke-linejoin:round;}.cls-7{clip-path:url(#clippath-6);}.cls-8{clip-path:url(#clippath-7);}.cls-3,.cls-4,.cls-6{stroke:#000;}.cls-9{fill:#f1b784;fill-rule:evenodd;}.cls-4{stroke-dasharray:0 0 3.94 1.97;}.cls-10{clip-path:url(#clippath);}.cls-11{clip-path:url(#clippath-3);}.cls-12{clip-path:url(#clippath-5);}.cls-13{fill:#333132;}.cls-14{mix-blend-mode:multiply;}.cls-6{stroke-width:.47px;}</style><clipPath id="clippath"><rect class="cls-5" x="-484.11" y="-648.42" width="612" height="792"/></clipPath><clipPath id="clippath-3"><rect class="cls-5" x="-6.51" y="3.58" width="133.2" height="105"/></clipPath><clipPath id="clippath-5"><rect class="cls-5" x="-484.11" y="-648.42" width="612" height="792"/></clipPath><clipPath id="clippath-6"><rect class="cls-5" x="-357.94" y="-572.47" width="358.44" height="669.92"/></clipPath><clipPath id="clippath-7"><rect class="cls-5" x="-356.94" y="-571.47" width="356.44" height="667.92"/></clipPath></defs><g class="cls-1"><g id="Layer_1"><g class="cls-10"><polygon class="cls-9" points="55.06 69.55 51.27 70.93 47.16 72.42 48.92 77.26 48.41 77.44 51.31 85.4 51.35 85.52 55.77 83.91 55.42 82.94 59.4 81.5 55.06 69.55"/><polygon class="cls-2" points="55.05 69.55 51.27 70.93 47.16 72.42 48.92 77.26 48.41 77.44 51.3 85.4 51.35 85.52 55.77 83.91 55.42 82.95 59.4 81.5 55.05 69.55"/><line class="cls-3" x1="31.98" y1="33.82" x2="31.98" y2="30.58"/><polyline class="cls-3" points="35.44 33.82 31.98 30.58 28.52 33.82"/><polyline class="cls-3" points="35.44 30.58 31.98 33.82 28.52 30.58"/><line class="cls-3" x1="89.84" y1="66.69" x2="92.55" y2="65.71"/><polyline class="cls-3" points="91.04 69.98 92.55 65.71 88.64 63.4"/><polyline class="cls-3" points="93.75 69 89.84 66.69 91.35 62.42"/><line class="cls-4" x1="96.6" y1="70.79" x2="107.61" y2="75.37"/><line class="cls-4" x1="104.84" y1="67.76" x2="99.53" y2="78.84"/><line class="cls-3" x1="75.78" y1="15.7" x2="71.78" y2="19.08"/><line class="cls-3" x1="75.78" y1="19.08" x2="71.78" y2="15.7"/><line class="cls-3" x1="51.85" y1="43.29" x2="51.85" y2="46.89"/><line class="cls-3" x1="40.94" y1="43.29" x2="40.94" y2="46.89"/><line class="cls-3" x1="12.36" y1="26.55" x2="10.81" y2="26.55"/><line class="cls-3" x1="12.36" y1="23.59" x2="13.9" y2="22.87"/><line class="cls-3" x1="70" y1="60.26" x2="71.24" y2="63.66"/><line class="cls-3" x1="80.25" y1="56.53" x2="81.49" y2="59.93"/><line class="cls-3" x1="77.48" y1="34.44" x2="79.61" y2="34.44"/><polyline class="cls-3" points="105.31 62.32 106.8 61.78 108.83 67.35 105.17 68.68"/><line class="cls-3" x1="94.38" y1="45.53" x2="91.72" y2="45.53"/><line class="cls-3" x1="96.92" y1="65.79" x2="95.44" y2="66.33"/><polyline class="cls-3" points="98.34 65.09 96.86 65.63 97.83 68.3 96.36 68.84"/><line class="cls-3" x1="97.77" y1="68.14" x2="99.25" y2="67.6"/><polyline class="cls-3" points="60.18 74.84 58.84 75.33 60.32 79.4 61.8 78.86"/><line class="cls-3" x1="58.72" y1="79.63" x2="60.2" y2="79.09"/><line class="cls-3" x1="59.4" y1="76.87" x2="58.17" y2="78.1"/><polyline class="cls-3" points="97.54 32.84 95.97 32.84 95.97 29.84 94.38 29.84"/><line class="cls-3" x1="97.54" y1="30.17" x2="95.97" y2="30.17"/><line class="cls-3" x1="94.38" y1="32.51" x2="95.97" y2="32.51"/><polyline class="cls-3" points="47.16 72.42 46.54 72.65 45.3 69.26 53.81 66.15 55.05 69.55"/><polyline class="cls-3" points="57.94 68.5 56.71 65.1 60.36 63.77"/><line class="cls-3" x1="61.55" y1="63.34" x2="65.02" y2="62.08"/><rect class="cls-3" x="60.02" y="61.31" width="1.27" height="2.86" transform="translate(-17.8 24.53) rotate(-20)"/><rect class="cls-3" x="64.68" y="59.61" width="1.27" height="2.86" transform="translate(-16.94 26.03) rotate(-20)"/><rect class="cls-3" x="69.81" y="57.75" width="1.27" height="2.86" transform="translate(-15.99 27.67) rotate(-20)"/><rect class="cls-3" x="74.93" y="55.88" width="1.27" height="2.86" transform="translate(-15.05 29.31) rotate(-20)"/><rect class="cls-3" x="80.06" y="54.01" width="1.27" height="2.86" transform="translate(-14.1 30.95) rotate(-20)"/><line class="cls-3" x1="66.21" y1="61.64" x2="70.14" y2="60.21"/><line class="cls-3" x1="71.34" y1="59.78" x2="75.27" y2="58.35"/><line class="cls-3" x1="76.46" y1="57.91" x2="80.39" y2="56.48"/><polyline class="cls-3" points="81.59 56.05 83.28 55.43 84.52 58.83"/><line class="cls-3" x1="75.13" y1="58.4" x2="76.37" y2="61.79"/><line class="cls-3" x1="64.88" y1="62.13" x2="66.11" y2="65.52"/><rect class="cls-3" x="73.44" y="45.65" width="2.75" height="1.27"/><rect class="cls-3" x="73.44" y="44.14" width="2.75" height="1.27"/><line class="cls-3" x1="76.19" y1="45.42" x2="76.19" y2="45.65"/><line class="cls-3" x1="77.22" y1="45.53" x2="76.19" y2="45.53"/><polyline class="cls-3" points="75.47 46.92 75.47 51.84 79.07 51.84 79.07 51.3"/><rect class="cls-3" x="73.44" y="38.47" width="2.75" height="1.27"/><rect class="cls-3" x="73.44" y="33.02" width="2.75" height="1.27"/><line class="cls-3" x1="75.47" y1="23.01" x2="75.47" y2="33.02"/><line class="cls-3" x1="75.47" y1="34.29" x2="75.47" y2="38.47"/><line class="cls-3" x1="75.47" y1="39.75" x2="75.47" y2="44.14"/><line class="cls-3" x1="79.07" y1="39.89" x2="75.47" y2="39.89"/><line class="cls-3" x1="79.61" y1="34.44" x2="75.47" y2="34.44"/><line class="cls-3" x1="79.07" y1="28.99" x2="75.47" y2="28.99"/><line class="cls-3" x1="109.89" y1="23.16" x2="109.89" y2="45.23"/><line class="cls-3" x1="107.64" y1="39.89" x2="109.89" y2="39.89"/><line class="cls-3" x1="107.64" y1="34.57" x2="109.89" y2="34.57"/><polyline class="cls-3" points="109.89 45.84 109.89 51.04 107.64 51.04"/><rect class="cls-3" x="63.92" y="46.35" width="1.27" height="2.85"/><rect class="cls-3" x="52" y="46.35" width="1.27" height="2.85"/><rect class="cls-3" x="46.55" y="46.35" width="1.27" height="2.85"/><rect class="cls-3" x="41.27" y="46.35" width="1.27" height="2.85"/><rect class="cls-3" x="35.67" y="46.35" width="1.27" height="2.85"/><rect class="cls-3" x="28.27" y="46.35" width="1.27" height="2.85"/><rect class="cls-3" x="21.58" y="46.35" width="1.27" height="2.85"/><polyline class="cls-3" points="69.2 43.29 69.73 43.29 69.73 46.89 65.19 46.89"/><line class="cls-3" x1="63.92" y1="46.89" x2="59.51" y2="46.89"/><line class="cls-3" x1="57.69" y1="46.89" x2="53.27" y2="46.89"/><line class="cls-3" x1="52" y1="46.89" x2="47.82" y2="46.89"/><line class="cls-3" x1="46.55" y1="46.89" x2="42.55" y2="46.89"/><line class="cls-3" x1="41.27" y1="46.89" x2="36.95" y2="46.89"/><line class="cls-3" x1="35.67" y1="46.89" x2="29.55" y2="46.89"/><line class="cls-3" x1="28.27" y1="46.89" x2="22.86" y2="46.89"/><polyline class="cls-3" points="21.58 46.89 19.45 46.89 17.03 45.43 17.03 43.29 17.41 43.29"/><line class="cls-3" x1="46.4" y1="43.29" x2="46.4" y2="46.89"/><line class="cls-3" x1="35.49" y1="43.29" x2="35.49" y2="46.89"/><line class="cls-3" x1="23" y1="43.29" x2="23" y2="46.89"/><line class="cls-3" x1="59.51" y1="43.29" x2="59.51" y2="46.89"/><line class="cls-3" x1="57.69" y1="43.29" x2="57.69" y2="46.89"/><polyline class="cls-3" points="2.32 15.81 1.57 15.81 1.57 12.91 10.62 12.91 10.62 15.81"/><polyline class="cls-3" points="27.4 15.81 27.4 12.91 17.87 12.91 17.87 13.96 14.07 13.96 14.07 15.81"/><line class="cls-3" x1="22.49" y1="15.81" x2="22.49" y2="12.91"/><line class="cls-3" x1="12.36" y1="25.05" x2="10.81" y2="25.05"/><line class="cls-3" x1="12.36" y1="17.42" x2="10.81" y2="17.42"/><line class="cls-3" x1="12.36" y1="19.53" x2="13.9" y2="19.53"/><line class="cls-3" x1="12.36" y1="20.53" x2="13.9" y2="20.53"/><line class="cls-3" x1="12.36" y1="22.56" x2="13.9" y2="22.56"/><line class="cls-3" x1="59.16" y1="36.44" x2="60.71" y2="35.72"/><line class="cls-3" x1="59.16" y1="37.42" x2="60.71" y2="37.42"/><polyline class="cls-3" points="65.46 94.01 65.61 94.42 62.25 95.63 62.11 95.26"/><polyline class="cls-3" points="51.82 98.43 52.87 101.31 57.14 99.77 56.94 99.21 60.86 97.8 60.19 95.96"/><polyline class="cls-3" points="70.01 92.37 72.98 90.03 81.03 87.07 80.78 86.39 84.12 85.17 84.01 84.88"/><polyline class="cls-3" points="95.38 80.35 95.61 80.98 92.18 82.24 92.07 81.94"/><line class="cls-3" x1="72.94" y1="90.06" x2="72.57" y2="89.04"/><polygon class="cls-3" points="1.41 21.4 1.41 20.94 2.32 20.94 2.32 15.81 6.83 15.81 14.41 15.81 18.22 15.81 24.95 15.81 30.88 15.81 35.04 15.81 35.04 11.58 37.58 11.58 37.58 12.3 68.74 12.3 68.74 15.7 69.47 15.7 69.47 22.73 69.2 22.73 69.2 32.79 69.2 38.15 69.2 43.29 64.69 43.29 56.79 43.29 48.9 43.29 43.94 43.29 38 43.29 31.49 43.29 27.06 43.29 20.51 43.29 17.42 43.29 17.42 41.22 13.93 41.22 9.25 41.22 9.25 38.25 8.7 38.25 8.7 36.62 5.59 36.62 5.59 32.11 2.32 32.11 2.32 21.4 1.41 21.4"/><polyline class="cls-3" points="35.34 15.81 35.34 28.52 62.69 28.52 62.69 30.58 8.83 30.58 8.83 28.52 27.95 28.52 27.95 15.81"/><line class="cls-3" x1="8.83" y1="29.55" x2="2.32" y2="29.55"/><line class="cls-3" x1="13.79" y1="30.58" x2="13.79" y2="41.22"/><line class="cls-3" x1="23" y1="30.58" x2="23" y2="43.29"/><polyline class="cls-3" points="28.52 30.58 28.52 33.82 35.44 33.82 35.44 30.58"/><polyline class="cls-3" points="35.49 43.29 35.49 33.82 35.44 33.82"/><line class="cls-3" x1="40.94" y1="43.29" x2="40.94" y2="30.58"/><line class="cls-3" x1="46.4" y1="43.29" x2="46.4" y2="30.58"/><line class="cls-3" x1="51.85" y1="43.29" x2="51.85" y2="31.66"/><polyline class="cls-3" points="51.8 30.66 51.8 31.66 54.46 31.66 54.46 30.58"/><line class="cls-3" x1="57.62" y1="30.58" x2="57.62" y2="43.29"/><line class="cls-3" x1="60.71" y1="43.29" x2="60.71" y2="30.58"/><line class="cls-3" x1="69.2" y1="29.55" x2="62.7" y2="29.55"/><line class="cls-3" x1="22.49" y1="28.52" x2="22.49" y2="15.81"/><line class="cls-3" x1="10.81" y1="28.52" x2="10.81" y2="15.81"/><line class="cls-3" x1="13.9" y1="15.81" x2="13.9" y2="28.52"/><polyline class="cls-3" points="16.78 28.52 16.78 27.44 13.9 27.44"/><polyline class="cls-3" points="13.9 26.9 12.36 26.9 12.36 22.23"/><polygon class="cls-3" points="86.04 58.27 86.04 51.3 79.07 51.3 79.07 48.6 79.61 48.6 79.61 45.84 77.22 45.84 77.22 45.23 79.61 45.23 79.61 42.46 79.07 42.46 79.07 37.41 79.61 37.41 79.61 31.47 79.07 31.47 79.07 26.13 79.61 26.13 79.61 23.29 79.07 23.29 79.07 23.01 72.92 23.01 72.92 19.08 71.78 19.08 71.78 15.7 72.97 15.7 72.97 12.3 87.61 12.3 87.61 11.58 90.17 11.58 90.17 12.3 96.53 12.3 96.53 11.58 99.09 11.58 99.09 12.3 108.97 12.3 108.97 20.61 110.23 20.61 110.23 23.16 107.64 23.16 107.64 26.98 107.09 26.98 107.09 30.56 107.64 30.56 107.64 34.57 107.09 34.57 107.09 37.41 107.64 37.41 107.64 42.46 107.09 42.46 107.09 45.23 109.89 45.23 109.89 45.84 107.09 45.84 107.09 48.6 107.64 48.6 107.64 51.3 101.59 51.3 101.59 52.1 101.6 52.11 105.4 62.56 104.85 62.76 106.35 66.88 106.87 66.69 107.01 67.08 104.88 67.85 107.61 75.37 103.54 76.86 103.71 77.32 95.33 80.37 94.83 78.99 91.49 80.2 92.12 81.92 84.01 84.87 83.39 83.16 80.05 84.37 80.67 86.09 72.57 89.04 71.94 87.32 68.6 88.54 70.01 92.37 65.46 94.01 64.85 92.33 61.49 93.55 62.11 95.26 56.25 97.39 56.06 96.88 51.83 98.43 50.43 94.6 49.92 94.79 48.48 90.83 50.75 90.01 49.33 86.12 51.3 85.4 48.41 77.44 48.92 77.26 47.16 72.42 51.27 70.93 58.52 68.29 62.1 66.99 68.45 64.68 74.03 62.64 78.7 60.95 86.04 58.27"/><polyline class="cls-3" points="93.75 69 91.35 62.42 88.64 63.4 91.04 69.98"/><polyline class="cls-3" points="89.03 63.26 89.03 62.16 90.96 62.16 91.08 62.52"/><polyline class="cls-3" points="91.35 62.42 91.3 62.28 92.32 61.9 92.32 53.19 88.17 53.19 88.17 53.8 86.04 53.8"/><polyline class="cls-3" points="92.32 59.12 91.18 59.12 91.18 62.16 90.96 62.16"/><polyline class="cls-3" points="92.32 23.11 91.24 23.11 91.24 25.85 92.32 25.85"/><polyline class="cls-3" points="94.38 28 97.54 28 97.54 34.45 94.38 34.45"/><polyline class="cls-3" points="94.77 64.52 97.74 63.44 99.96 69.54 97.01 70.61"/><line class="cls-3" x1="58.02" y1="68.47" x2="62.37" y2="80.42"/><polyline class="cls-3" points="65.08 79.43 64.71 78.41 62 79.4"/><line class="cls-3" x1="94.38" y1="23.16" x2="107.64" y2="23.16"/><polyline class="cls-3" points="107.09 34.57 107.09 34.44 97.54 34.44"/><line class="cls-3" x1="107.64" y1="39.89" x2="94.38" y2="39.89"/><line class="cls-3" x1="94.38" y1="45.53" x2="109.89" y2="45.53"/><line class="cls-3" x1="77.22" y1="45.53" x2="91.72" y2="45.53"/><polyline class="cls-3" points="94.38 58.85 100.09 58.85 103.59 57.58"/><polyline class="cls-3" points="104.88 67.85 104.84 67.76 99.96 69.53"/><line class="cls-3" x1="99.53" y1="78.84" x2="96.6" y2="70.79"/><polyline class="cls-3" points="83.39 83.16 83.48 83.12 80.85 75.88"/><polyline class="cls-3" points="61.49 93.55 61.37 93.6 57.95 84.21"/><polyline class="cls-3" points="51.3 85.4 51.35 85.52 55.77 83.91"/><line class="cls-3" x1="55.05" y1="69.55" x2="59.4" y2="81.5"/><line class="cls-3" x1="66.11" y1="65.53" x2="70.46" y2="77.47"/><line class="cls-3" x1="71.24" y1="63.66" x2="75.59" y2="75.6"/><line class="cls-3" x1="76.37" y1="61.79" x2="80.71" y2="73.74"/><line class="cls-3" x1="81.49" y1="59.93" x2="85.84" y2="71.87"/><polyline class="cls-3" points="86.04 57.69 86.17 57.69 86.17 58.6 89.09 58.6 89.09 62.16"/><line class="cls-3" x1="79.07" y1="39.89" x2="92.32" y2="39.89"/><line class="cls-3" x1="79.61" y1="34.44" x2="92.32" y2="34.44"/><line class="cls-3" x1="79.07" y1="28.99" x2="92.32" y2="28.99"/><polyline class="cls-3" points="79.61 23.29 79.61 23.16 91.24 23.16"/><polyline class="cls-3" points="56.75 74.22 58.22 73.68 56.53 69.02"/><polyline class="cls-3" points="93.75 69 55.42 82.94 56.13 84.88 94.51 70.91 94.72 71.48 97.02 70.64 94.38 63.46 94.38 23.11 92.32 23.11 92.32 42.71 91.72 43.06 91.72 48 92.07 48.2 92.32 48.35 92.32 51.17 86.04 51.17 86.04 51.3"/><polyline class="cls-3" points="72.97 15.7 75.78 15.7 75.78 19.08 72.92 19.08"/><polyline class="cls-3" points="10.81 20.79 12.36 20.79 12.36 15.81"/><polyline class="cls-3" points="59.16 40.07 59.16 32.46 60.71 32.46"/><polyline class="cls-3" points="96.15 23.16 96.15 21.22 89.81 21.22 89.81 23.16"/><polyline class="cls-3" points="71.94 87.32 72.04 87.29 69.4 80.05"/><g class="cls-11"><rect class="cls-3" x="-312.35" y="-436.72" width="450.14" height="582.54"/></g><g><path class="cls-13" d="M88.32,94.87v3.91h2.46v.5h-3.07v-4.41h.61Z"/><path class="cls-13" d="M94.52,99.28h-3.15v-4.41h3.08v.5h-2.49v1.39h1.98v.5h-1.98v1.52h2.56v.5Z"/><path class="cls-13" d="M96.6,99.28l-1.77-4.41h.62l1.49,3.71h.03l1.45-3.71h.62l-1.78,4.41h-.66Z"/><path class="cls-13" d="M102.69,99.28h-3.15v-4.41h3.08v.5h-2.49v1.39h1.98v.5h-1.98v1.52h2.56v.5Z"/><path class="cls-13" d="M103.99,94.87v3.91h2.46v.5h-3.07v-4.41h.61Z"/><path class="cls-13" d="M107.95,95.52c.62,0,.88-.21,1.04-.67h.4v4.44h-.61v-3.38h-.83v-.39Z"/></g><g class="cls-12"><g class="cls-14"><g class="cls-7"><g class="cls-8"><rect class="cls-6" x="-461.28" y="-683.44" width="678.3" height="877.8"/></g></g></g></g><g><path class="cls-13" d="M5.45,4h.02l.65-2.62h.41l-.81,3.15h-.5l-.66-2.52h-.02l-.67,2.52h-.5l-.81-3.15h.42l.66,2.61h.02l.69-2.61h.41l.7,2.62Z"/><path class="cls-13" d="M9.13,4.53h-2.25V1.38h2.2v.36h-1.78v.99h1.42v.36h-1.42v1.09h1.83v.36Z"/><path class="cls-13" d="M9.78,3.38c.02,.58,.42,.87,.95,.87,.47,0,.77-.2,.77-.55,0-.29-.19-.43-.6-.51l-.62-.12c-.47-.09-.79-.34-.79-.83,0-.55,.44-.93,1.13-.93,.79,0,1.25,.42,1.25,1.13l-.4,.02c-.02-.52-.33-.82-.85-.82-.46,0-.71,.21-.71,.57,0,.31,.21,.41,.57,.48l.57,.11c.58,.11,.87,.36,.87,.87,0,.58-.5,.92-1.18,.92-.78,0-1.34-.42-1.34-1.19l.39-.03Z"/><path class="cls-13" d="M13.17,4.53V1.74h-1.15v-.36h2.74v.36h-1.17v2.79h-.43Z"/><path class="cls-13" d="M17.41,4.53h-1.34V1.38h1.29c.78,0,1.1,.34,1.1,.84,0,.37-.26,.62-.6,.68,.39,.07,.69,.32,.69,.77,0,.55-.4,.87-1.14,.87Zm-.92-1.79h.88c.46,0,.65-.2,.65-.5s-.19-.51-.65-.51h-.88v1.01Zm0,.34v1.1h.91c.47,0,.72-.21,.72-.55s-.25-.55-.72-.55h-.91Z"/><path class="cls-13" d="M18.98,3.33V1.38h.43v1.95c0,.6,.3,.9,.85,.9s.86-.29,.86-.89V1.38h.42v1.95c0,.92-.57,1.27-1.28,1.27s-1.28-.34-1.28-1.27Z"/><path class="cls-13" d="M22.54,1.38v3.15h-.43V1.38h.43Z"/><path class="cls-13" d="M23.58,1.38v2.79h1.76v.36h-2.19V1.38h.43Z"/><path class="cls-13" d="M25.77,1.38h1.14c.99,0,1.62,.59,1.62,1.58s-.63,1.58-1.62,1.58h-1.14V1.38Zm1.12,2.8c.77,0,1.19-.46,1.19-1.22s-.42-1.22-1.19-1.22h-.68v2.44h.68Z"/><path class="cls-13" d="M29.42,1.38v3.15h-.44V1.38h.44Z"/><path class="cls-13" d="M32.21,3.79V1.38h.41v3.15h-.35l-1.83-2.53v2.53h-.41V1.38h.45l1.73,2.41Z"/><path class="cls-13" d="M33.07,2.96c0-.97,.67-1.64,1.54-1.64s1.41,.5,1.46,1.3l-.42,.03c-.04-.58-.41-.96-1.04-.96s-1.1,.49-1.1,1.27,.46,1.27,1.14,1.27c.59,0,.97-.37,1.03-.91h-.96v-.34h1.36v1.56h-.4v-.56c-.14,.4-.58,.62-1.08,.62-.89,0-1.54-.66-1.54-1.64Z"/></g><g><path class="cls-13" d="M78.29,4.53h-2.25V1.38h2.2v.36h-1.78v.99h1.42v.36h-1.42v1.09h1.83v.36Z"/><path class="cls-13" d="M80.3,1.38l1.31,3.15h-.46l-.38-.93h-1.44l-.37,.93h-.42l1.29-3.15h.48Zm-.83,1.88h1.16l-.58-1.4h-.02l-.57,1.4Z"/><path class="cls-13" d="M82.14,3.38c.02,.58,.42,.87,.95,.87,.47,0,.77-.2,.77-.55,0-.29-.19-.43-.6-.51l-.62-.12c-.47-.09-.79-.34-.79-.83,0-.55,.44-.93,1.13-.93,.79,0,1.25,.42,1.25,1.13l-.4,.02c-.02-.52-.33-.82-.85-.82-.46,0-.71,.21-.71,.57,0,.31,.21,.41,.57,.48l.57,.11c.58,.11,.87,.36,.87,.87,0,.58-.5,.92-1.18,.92-.78,0-1.34-.42-1.34-1.19l.39-.03Z"/><path class="cls-13" d="M85.53,4.53V1.74h-1.15v-.36h2.74v.36h-1.17v2.79h-.43Z"/><path class="cls-13" d="M89.77,4.53h-1.34V1.38h1.29c.78,0,1.1,.34,1.1,.84,0,.37-.26,.62-.6,.68,.39,.07,.69,.32,.69,.77,0,.55-.4,.87-1.14,.87Zm-.92-1.79h.88c.46,0,.65-.2,.65-.5s-.2-.51-.65-.51h-.88v1.01Zm0,.34v1.1h.91c.47,0,.72-.21,.72-.55s-.25-.55-.72-.55h-.91Z"/><path class="cls-13" d="M91.35,3.33V1.38h.43v1.95c0,.6,.3,.9,.85,.9s.86-.29,.86-.89V1.38h.43v1.95c0,.92-.57,1.27-1.28,1.27s-1.28-.34-1.28-1.27Z"/><path class="cls-13" d="M94.9,1.38v3.15h-.44V1.38h.44Z"/><path class="cls-13" d="M95.95,1.38v2.79h1.76v.36h-2.19V1.38h.44Z"/><path class="cls-13" d="M98.13,1.38h1.14c.99,0,1.62,.59,1.62,1.58s-.62,1.58-1.62,1.58h-1.14V1.38Zm1.12,2.8c.77,0,1.19-.46,1.19-1.22s-.42-1.22-1.19-1.22h-.68v2.44h.68Z"/><path class="cls-13" d="M101.78,1.38v3.15h-.43V1.38h.43Z"/><path class="cls-13" d="M104.57,3.79V1.38h.41v3.15h-.34l-1.83-2.53v2.53h-.41V1.38h.45l1.73,2.41Z"/><path class="cls-13" d="M105.43,2.96c0-.97,.67-1.64,1.54-1.64s1.41,.5,1.46,1.3l-.42,.03c-.04-.58-.41-.96-1.04-.96s-1.1,.49-1.1,1.27,.46,1.27,1.14,1.27c.59,0,.97-.37,1.03-.91h-.96v-.34h1.36v1.56h-.4v-.56c-.14,.4-.58,.62-1.08,.62-.89,0-1.54-.66-1.54-1.64Z"/></g></g></g></g></svg>