<?xml version="1.0" encoding="UTF-8"?><svg xmlns="http://www.w3.org/2000/svg" xmlns:xlink="http://www.w3.org/1999/xlink" viewBox="0 0 112.91 101.46"><defs><style>.cls-1{isolation:isolate;}.cls-2{stroke:#ebebec;}.cls-2,.cls-3{stroke-width:.31px;}.cls-2,.cls-3,.cls-4,.cls-5{fill:none;}.cls-2,.cls-3,.cls-5{stroke-linecap:round;stroke-linejoin:round;}.cls-3,.cls-5{stroke:#000;}.cls-6{fill:#f1b784;fill-rule:evenodd;}.cls-7{clip-path:url(#clippath);}.cls-8{clip-path:url(#clippath-3);}.cls-9{fill:#333132;}.cls-10{clip-path:url(#clippath-42);}.cls-5{stroke-width:.47px;}</style><clipPath id="clippath"><rect class="cls-4" x="-483.39" y="-648.69" width="612" height="792"/></clipPath><clipPath id="clippath-3"><rect class="cls-4" x="-15.79" y="-3.99" width="144.4" height="112.8"/></clipPath><clipPath id="clippath-42"><rect class="cls-4" x="-483.39" y="-531.39" width="612" height="531.96"/></clipPath><clipPath id="clippath-47"><rect class="cls-4" x="-483.39" y="-648.69" width="612" height="792"/></clipPath></defs><g class="cls-1"><g id="Layer_1"><g class="cls-7"><polygon class="cls-6" points="58.68 75.04 58.8 75 56.5 68.69 52.6 70.11 52.79 70.62 48.68 72.12 50.44 76.95 49.93 77.14 52.87 85.21 57.29 83.6 56.94 82.64 60.92 81.19 58.68 75.04"/><polygon class="cls-2" points="58.68 75.04 58.8 75 56.5 68.69 52.6 70.11 52.79 70.62 48.68 72.12 50.44 76.95 49.93 77.14 52.87 85.22 57.29 83.6 56.94 82.64 60.92 81.19 58.68 75.04"/><line class="cls-3" x1="33.5" y1="33.51" x2="33.5" y2="30.27"/><polyline class="cls-3" points="36.95 33.51 33.5 30.27 30.04 33.51"/><polyline class="cls-3" points="36.95 30.27 33.5 33.51 30.04 30.27"/><line class="cls-3" x1="91.36" y1="66.38" x2="94.07" y2="65.4"/><polyline class="cls-3" points="92.55 69.67 94.07 65.4 90.16 63.1"/><polyline class="cls-3" points="95.26 68.69 91.36 66.38 92.87 62.11"/><polyline class="cls-3" points="2.93 20.92 1.78 20.92 1.78 13.37 8.63 13.37 8.63 14.96"/><polyline class="cls-3" points="15.65 14.96 15.65 13.37 20.02 13.37 20.02 14.96"/><polyline class="cls-3" points="26.21 14.96 26.21 13.37 32.71 13.37 32.71 14.96"/><line class="cls-3" x1="29.46" y1="13.37" x2="29.46" y2="15.5"/><polyline class="cls-3" points="71.26 37.56 72.77 37.56 72.77 45.11 65.92 45.11 65.92 43.53"/><polyline class="cls-3" points="58.58 43.53 58.58 45.11 50.13 45.11 50.13 43.53"/><line class="cls-3" x1="53.37" y1="42.98" x2="53.37" y2="45.11"/><polyline class="cls-3" points="45.71 43.53 45.71 45.11 39.21 45.11 39.21 43.53"/><line class="cls-3" x1="42.46" y1="42.98" x2="42.46" y2="45.11"/><polyline class="cls-3" points="33.29 43.53 33.29 45.11 28.29 45.11 28.29 43.53"/><polyline class="cls-3" points="22.31 43.53 22.31 45.11 18.99 45.11 18.99 43.54"/><polyline class="cls-3" points="15.72 41.46 15.72 43.04 12.22 43.04 12.22 40.91"/><polyline class="cls-3" points="15.42 26.59 13.88 26.59 13.88 21.73"/><line class="cls-3" x1="13.88" y1="26.24" x2="12.33" y2="26.24"/><line class="cls-3" x1="12.33" y1="24.6" x2="13.88" y2="23.88"/><polyline class="cls-3" points="62.22 32.11 60.68 32.11 60.68 36.73"/><line class="cls-3" x1="59.13" y1="34.86" x2="60.68" y2="34.14"/><line class="cls-3" x1="59.13" y1="32.5" x2="60.68" y2="32.5"/><polyline class="cls-3" points="58.03 96.99 58.34 97.83 51.83 100.2 49.85 94.76 51.34 94.22"/><polyline class="cls-3" points="50.02 77.4 48.48 77.96 45.89 70.86 52.33 68.52 52.87 70.01"/><polyline class="cls-3" points="59.62 67.55 59.08 66.07 63.18 64.57 63.73 66.06"/><polyline class="cls-3" points="69.52 63.95 68.98 62.46 75.08 60.24 75.62 61.73"/><line class="cls-3" x1="72.03" y1="61.35" x2="72.76" y2="63.35"/><polyline class="cls-3" points="79.77 60.22 79.23 58.73 85.33 56.51 85.87 58"/><line class="cls-3" x1="82.28" y1="57.62" x2="83.01" y2="59.62"/><polyline class="cls-3" points="80.58 48.57 79 48.57 79 45.53"/><polyline class="cls-3" points="80.58 41.87 79 41.87 79 44.92"/><polyline class="cls-3" points="80.58 37.38 79 37.38 79 30.88 80.58 30.88"/><line class="cls-3" x1="79" y1="34.13" x2="81.13" y2="34.13"/><polyline class="cls-3" points="109.16 26.39 110.74 26.39 110.74 30.53 109.16 30.53"/><polyline class="cls-3" points="109.16 33.98 110.74 33.98 110.74 37.38 109.16 37.38"/><polyline class="cls-3" points="109.16 41.87 110.74 41.87 110.74 44.92"/><polyline class="cls-3" points="110.74 45.53 110.74 48.57 109.16 48.57"/><polyline class="cls-3" points="106.83 62.01 108.32 61.47 110.03 66.19 108.52 66.74"/><polyline class="cls-3" points="107.93 70.33 109.44 69.78 111.82 76.32 105.53 78.61 104.98 77.1"/><polyline class="cls-3" points="67.18 93.64 67.49 94.5 63.67 95.89 63.37 95.05"/><line class="cls-3" x1="95.9" y1="45.22" x2="93.23" y2="45.22"/><line class="cls-3" x1="98.43" y1="65.48" x2="96.95" y2="66.03"/><polyline class="cls-3" points="99.86 64.78 98.37 65.32 99.35 67.99 97.87 68.53"/><line class="cls-3" x1="99.29" y1="67.83" x2="100.77" y2="67.29"/><polyline class="cls-3" points="61.7 74.53 60.35 75.02 61.83 79.09 63.32 78.55"/><line class="cls-3" x1="60.24" y1="79.32" x2="61.72" y2="78.78"/><line class="cls-3" x1="60.91" y1="76.56" x2="59.68" y2="77.79"/><polyline class="cls-3" points="99.06 32.53 97.48 32.53 97.48 29.53 95.9 29.53"/><line class="cls-3" x1="99.06" y1="29.86" x2="97.48" y2="29.86"/><line class="cls-3" x1="95.9" y1="32.2" x2="97.48" y2="32.2"/><line class="cls-3" x1="40.37" y1="15.5" x2="40.37" y2="13.37"/><polyline class="cls-3" points="93.63 81.59 97.2 80.29 97.09 79.97"/><line class="cls-3" x1="82.18" y1="85.76" x2="85.52" y2="84.54"/><polyline class="cls-3" points="74.32 88.65 74.51 89.17 70.95 90.47"/><polyline class="cls-3" points="103.19 13.78 103.19 12.2 110.74 12.2 110.74 19.12 109.16 19.12"/><polyline class="cls-3" points="80.58 19.12 79 19.12 79 12.2 86.55 12.2 86.55 13.78"/><polyline class="cls-3" points="80.58 22.7 79 22.7 79 26.11 80.58 26.11"/><polyline class="cls-3" points="37.12 14.96 37.12 13.37 43.62 13.37 43.62 14.96"/><line class="cls-3" x1="51.28" y1="15.5" x2="51.28" y2="13.37"/><polyline class="cls-3" points="48.03 14.96 48.03 13.37 54.53 13.37 54.53 14.96"/><polyline class="cls-3" points="58.91 14.96 58.91 13.37 62.33 13.37 62.33 14.96"/><polyline class="cls-3" points="65.92 14.96 65.92 13.37 72.77 13.37 72.77 20.92 71.26 20.92"/><polygon class="cls-3" points="2.93 21.09 2.93 20.63 3.47 20.63 3.47 15.5 8.35 15.5 8.35 14.96 15.93 14.96 15.93 15.5 19.74 15.5 19.74 14.96 26.46 14.96 26.46 15.5 32.4 15.5 32.4 14.96 37.37 14.96 37.37 15.5 43.31 15.5 43.31 14.96 48.28 14.96 48.28 15.5 54.22 15.5 54.22 14.96 59.19 14.96 59.19 15.5 62.05 15.5 62.05 14.96 66.2 14.96 66.2 15.5 70.71 15.5 70.71 20.64 71.26 20.64 71.26 26 70.71 26 70.71 32.48 71.26 32.48 71.26 37.84 70.71 37.84 70.71 42.98 66.2 42.98 66.2 43.53 58.3 43.53 58.3 42.98 50.42 42.98 50.42 43.53 45.46 43.53 45.46 42.98 39.52 42.98 39.52 43.53 33.01 43.53 33.01 42.98 28.58 42.98 28.58 43.53 22.03 43.53 22.03 42.98 19.39 42.98 19.39 43.54 18.93 43.54 18.93 41.45 15.44 41.45 15.44 40.91 10.76 40.91 10.76 37.94 10.22 37.94 10.22 36.31 7.1 36.31 7.1 31.8 3.84 31.8 3.84 21.09 2.93 21.09"/><rect class="cls-3" x="10.34" y="28.21" width="53.87" height="2.06"/><line class="cls-3" x1="10.34" y1="29.24" x2="3.84" y2="29.24"/><polyline class="cls-3" points="19.06 30.27 19.06 41.46 18.93 41.46"/><line class="cls-3" x1="24.52" y1="30.27" x2="24.52" y2="43.53"/><polyline class="cls-3" points="30.04 30.27 30.04 33.51 36.95 33.51 36.95 30.27"/><polyline class="cls-3" points="37.01 43.53 37.01 33.51 36.95 33.51"/><line class="cls-3" x1="42.46" y1="42.98" x2="42.46" y2="30.27"/><line class="cls-3" x1="47.91" y1="43.53" x2="47.91" y2="30.27"/><line class="cls-3" x1="53.37" y1="42.98" x2="53.37" y2="31.36"/><polyline class="cls-3" points="53.32 30.35 53.32 31.35 55.97 31.35 55.97 30.27"/><polyline class="cls-3" points="59.13 30.27 59.13 36.73 62.22 36.73 62.22 30.27"/><line class="cls-3" x1="62.19" y1="43.53" x2="62.19" y2="36.73"/><line class="cls-3" x1="70.71" y1="29.24" x2="64.21" y2="29.24"/><polyline class="cls-3" points="62.19 28.21 62.19 15.5 62.05 15.5"/><line class="cls-3" x1="56.73" y1="28.21" x2="56.73" y2="14.95"/><line class="cls-3" x1="51.28" y1="28.21" x2="51.28" y2="15.5"/><line class="cls-3" x1="45.82" y1="28.21" x2="45.82" y2="14.95"/><line class="cls-3" x1="40.37" y1="28.21" x2="40.37" y2="15.5"/><line class="cls-3" x1="34.92" y1="28.21" x2="34.92" y2="14.95"/><line class="cls-3" x1="29.46" y1="28.21" x2="29.46" y2="15.5"/><line class="cls-3" x1="24.01" y1="28.21" x2="24.01" y2="14.95"/><polyline class="cls-3" points="12.33 28.1 12.33 21.74 15.42 21.74 15.42 28.21"/><polyline class="cls-3" points="18.29 28.21 18.29 27.13 15.42 27.13"/><line class="cls-3" x1="12.37" y1="21.74" x2="12.37" y2="14.96"/><polygon class="cls-3" points="81.13 14.33 86.27 14.33 86.27 13.79 91.62 13.79 91.62 14.33 98.12 14.33 98.12 13.79 103.44 13.79 103.44 14.33 108.61 14.33 108.61 18.84 109.16 18.84 109.16 26.67 108.61 26.67 108.61 30.25 109.16 30.25 109.16 34.26 108.61 34.26 108.61 37.1 109.16 37.1 109.16 42.15 108.61 42.15 108.61 44.92 111.41 44.92 111.41 45.53 108.61 45.53 108.61 48.29 109.16 48.29 109.16 50.99 103.1 50.99 103.1 51.79 103.11 51.8 106.93 62.28 106.41 62.46 107.9 66.56 108.39 66.38 108.53 66.77 106.85 67.38 108.02 70.57 107.49 70.76 109.05 75.03 105.03 76.49 105.22 77.01 96.85 80.06 96.35 78.68 93.01 79.9 93.64 81.62 85.53 84.57 84.9 82.85 81.56 84.06 82.19 85.78 74.08 88.73 73.46 87.01 70.13 88.23 71.53 92.06 66.95 93.73 66.33 92.04 63.01 93.24 63.63 94.95 57.77 97.09 57.58 96.57 53.34 98.12 51.95 94.29 51.44 94.48 50 90.52 52.27 89.7 50.85 85.81 52.82 85.09 49.93 77.14 50.44 76.95 48.68 72.12 52.79 70.62 52.6 70.11 59.85 67.47 60.04 67.98 63.62 66.68 63.43 66.16 69.78 63.85 69.97 64.37 75.55 62.34 75.36 61.82 80.03 60.12 80.22 60.64 85.8 58.61 85.61 58.09 87.56 57.38 87.56 50.99 80.58 50.99 80.58 48.29 81.13 48.29 81.13 45.53 78.74 45.53 78.74 44.92 81.13 44.92 81.13 42.15 80.58 42.15 80.58 37.1 81.13 37.1 81.13 31.16 80.58 31.16 80.58 25.83 81.13 25.83 81.13 22.99 80.58 22.99 80.58 18.84 81.13 18.84 81.13 14.33"/><polyline class="cls-3" points="95.26 68.69 92.87 62.11 90.16 63.09 92.55 69.67"/><polyline class="cls-3" points="90.55 62.95 90.55 61.85 92.47 61.85 92.6 62.21"/><polyline class="cls-3" points="92.87 62.11 92.82 61.97 93.84 61.59 93.84 48.04 93.59 47.9 93.23 47.69 93.23 42.75 93.84 42.4 93.84 20.83 95.9 20.83 95.9 63.15 98.53 70.33 96.86 70.94 96.65 70.37 57.64 84.57 56.94 82.64 95.26 68.69"/><polyline class="cls-3" points="93.84 58.81 92.7 58.81 92.7 61.85 92.47 61.85"/><polyline class="cls-3" points="93.84 22.8 92.76 22.8 92.76 25.54 93.84 25.54"/><polyline class="cls-3" points="95.9 27.69 99.06 27.69 99.06 34.14 95.9 34.14"/><polyline class="cls-3" points="96.29 64.21 99.26 63.13 101.48 69.23 98.52 70.31"/><polyline class="cls-3" points="60.92 81.19 58.68 75.04 61.65 73.96 63.88 80.11"/><polyline class="cls-3" points="66.6 79.12 66.23 78.1 63.51 79.09"/><line class="cls-3" x1="94.87" y1="20.83" x2="94.87" y2="14.33"/><line class="cls-3" x1="95.9" y1="22.86" x2="109.16" y2="22.86"/><polyline class="cls-3" points="108.61 34.26 108.61 34.13 99.06 34.13"/><line class="cls-3" x1="109.16" y1="39.59" x2="95.9" y2="39.59"/><line class="cls-3" x1="95.9" y1="45.22" x2="111.41" y2="45.22"/><line class="cls-3" x1="78.74" y1="45.22" x2="93.23" y2="45.22"/><polyline class="cls-3" points="95.9 58.54 101.61 58.54 105.1 57.27"/><polyline class="cls-3" points="106.85 67.38 106.81 67.25 101.47 69.23"/><polyline class="cls-3" points="63.01 93.24 62.89 93.29 59.47 83.91"/><polyline class="cls-3" points="52.82 85.09 52.87 85.21 57.29 83.6"/><line class="cls-3" x1="56.5" y1="68.69" x2="58.8" y2="75"/><line class="cls-3" x1="67.45" y1="64.7" x2="71.98" y2="77.16"/><line class="cls-3" x1="72.76" y1="63.35" x2="77.1" y2="75.3"/><line class="cls-3" x1="77.7" y1="60.97" x2="82.23" y2="73.43"/><line class="cls-3" x1="83.01" y1="59.62" x2="87.35" y2="71.57"/><polyline class="cls-3" points="87.56 57.38 87.69 57.38 87.69 58.29 90.6 58.29 90.6 61.85"/><line class="cls-3" x1="80.58" y1="39.59" x2="93.84" y2="39.59"/><line class="cls-3" x1="81.13" y1="34.13" x2="93.84" y2="34.13"/><line class="cls-3" x1="80.58" y1="28.68" x2="93.84" y2="28.68"/><polyline class="cls-3" points="81.13 22.99 81.13 22.86 92.76 22.86"/><polyline class="cls-3" points="73.46 87.01 73.55 86.98 70.92 79.74"/><polyline class="cls-3" points="84.9 82.85 85 82.81 82.36 75.57"/><polyline class="cls-3" points="96.35 78.68 96.45 78.65 93.81 71.41"/><g class="cls-8"><rect class="cls-3" x="-166.83" y="-437.03" width="450.14" height="582.54"/></g><g><path class="cls-9" d="M81.69,94.6v3.91h2.46v.5h-3.07v-4.41h.61Z"/><path class="cls-9" d="M87.89,99.02h-3.15v-4.41h3.08v.5h-2.49v1.39h1.98v.5h-1.98v1.52h2.56v.5Z"/><path class="cls-9" d="M89.96,99.02l-1.77-4.41h.62l1.49,3.71h.03l1.45-3.71h.62l-1.78,4.41h-.66Z"/><path class="cls-9" d="M96.06,99.02h-3.15v-4.41h3.08v.5h-2.49v1.39h1.98v.5h-1.98v1.52h2.56v.5Z"/><path class="cls-9" d="M97.36,94.6v3.91h2.46v.5h-3.07v-4.41h.61Z"/><path class="cls-9" d="M104.67,98.49v.53h-3.24v-.35l1.25-1.07c.69-.6,1.21-1.05,1.21-1.69,0-.52-.29-.88-.88-.88s-.94,.38-.94,1.03c0,.13,.01,.27,.05,.4l-.6-.03c-.03-.14-.05-.28-.05-.41,0-.9,.61-1.48,1.55-1.48,1.03,0,1.5,.6,1.5,1.35,0,.8-.68,1.41-1.32,1.93l-.83,.69h2.3Z"/><path class="cls-9" d="M104.94,96.97h1.61v.52h-1.61v-.52Z"/><path class="cls-9" d="M110.14,95.15h-2.12c0,.24-.11,1.14-.16,1.37,.2-.25,.56-.45,1.05-.45,1,0,1.52,.67,1.52,1.48,0,.92-.64,1.55-1.6,1.55-1.06,0-1.67-.67-1.62-1.65l.59,.05c0,.67,.36,1.11,1.05,1.11,.62,0,1-.41,1-1.06,0-.58-.38-1.01-1-1.01-.49,0-.81,.26-.97,.56l-.6-.04c.11-.61,.26-1.74,.28-2.46h2.58v.55Z"/></g><g class="cls-10"><rect class="cls-5" x="-514.01" y="-642.04" width="678.3" height="877.8"/></g><g><path class="cls-9" d="M4.57,3.73h.02l.65-2.62h.41l-.81,3.15h-.5l-.66-2.52h-.02l-.67,2.52h-.5L1.67,1.11h.42l.66,2.61h.02l.69-2.61h.41l.7,2.62Z"/><path class="cls-9" d="M8.24,4.26h-2.25V1.11h2.2v.36h-1.78v.99h1.42v.36h-1.42v1.09h1.83v.36Z"/><path class="cls-9" d="M8.89,3.11c.03,.58,.42,.87,.95,.87,.47,0,.77-.2,.77-.55,0-.29-.19-.43-.6-.51l-.62-.12c-.47-.09-.79-.34-.79-.83,0-.55,.44-.93,1.13-.93,.79,0,1.25,.42,1.25,1.13l-.39,.02c-.02-.52-.33-.82-.85-.82-.46,0-.71,.21-.71,.57,0,.31,.21,.41,.57,.48l.57,.11c.58,.11,.87,.36,.87,.87,0,.58-.5,.92-1.18,.92-.78,0-1.34-.42-1.34-1.19l.39-.03Z"/><path class="cls-9" d="M12.28,4.26V1.47h-1.15v-.36h2.74v.36h-1.17v2.79h-.43Z"/><path class="cls-9" d="M16.52,4.26h-1.34V1.11h1.29c.78,0,1.1,.34,1.1,.84,0,.37-.26,.62-.6,.68,.39,.07,.69,.32,.69,.77,0,.55-.4,.87-1.14,.87Zm-.92-1.79h.88c.46,0,.65-.2,.65-.5s-.2-.51-.65-.51h-.88v1.01Zm0,.34v1.1h.91c.47,0,.72-.21,.72-.55s-.25-.55-.72-.55h-.91Z"/><path class="cls-9" d="M18.1,3.06V1.11h.43v1.95c0,.6,.3,.9,.85,.9s.86-.29,.86-.89V1.11h.43v1.95c0,.92-.57,1.27-1.28,1.27s-1.28-.34-1.28-1.27Z"/><path class="cls-9" d="M21.65,1.11v3.15h-.44V1.11h.44Z"/><path class="cls-9" d="M22.7,1.11V3.9h1.76v.36h-2.19V1.11h.44Z"/><path class="cls-9" d="M24.88,1.11h1.14c.99,0,1.62,.59,1.62,1.58s-.62,1.58-1.62,1.58h-1.14V1.11Zm1.12,2.8c.77,0,1.19-.46,1.19-1.22s-.42-1.22-1.19-1.22h-.68V3.91h.68Z"/><path class="cls-9" d="M28.53,1.11v3.15h-.43V1.11h.43Z"/><path class="cls-9" d="M31.32,3.52V1.11h.41v3.15h-.34l-1.83-2.53v2.53h-.41V1.11h.45l1.73,2.41Z"/><path class="cls-9" d="M32.19,2.69c0-.97,.67-1.64,1.54-1.64s1.41,.5,1.46,1.3l-.42,.03c-.04-.58-.41-.96-1.04-.96s-1.1,.49-1.1,1.27,.46,1.27,1.14,1.27c.59,0,.97-.37,1.03-.91h-.96v-.34h1.36v1.56h-.4v-.56c-.14,.4-.58,.62-1.08,.62-.89,0-1.54-.66-1.54-1.64Z"/></g><g><path class="cls-9" d="M80.2,4.26h-2.25V1.11h2.2v.36h-1.78v.99h1.42v.36h-1.42v1.09h1.83v.36Z"/><path class="cls-9" d="M82.21,1.11l1.31,3.15h-.46l-.38-.93h-1.44l-.37,.93h-.42l1.29-3.15h.48Zm-.83,1.88h1.16l-.58-1.4h-.02l-.57,1.4Z"/><path class="cls-9" d="M84.05,3.11c.02,.58,.42,.87,.95,.87,.47,0,.77-.2,.77-.55,0-.29-.19-.43-.6-.51l-.62-.12c-.47-.09-.79-.34-.79-.83,0-.55,.44-.93,1.13-.93,.79,0,1.25,.42,1.25,1.13l-.4,.02c-.02-.52-.33-.82-.85-.82-.46,0-.71,.21-.71,.57,0,.31,.21,.41,.57,.48l.57,.11c.58,.11,.87,.36,.87,.87,0,.58-.5,.92-1.18,.92-.78,0-1.34-.42-1.34-1.19l.39-.03Z"/><path class="cls-9" d="M87.44,4.26V1.47h-1.15v-.36h2.74v.36h-1.17v2.79h-.43Z"/><path class="cls-9" d="M91.68,4.26h-1.34V1.11h1.29c.78,0,1.1,.34,1.1,.84,0,.37-.26,.62-.6,.68,.39,.07,.69,.32,.69,.77,0,.55-.4,.87-1.14,.87Zm-.92-1.79h.88c.46,0,.65-.2,.65-.5s-.2-.51-.65-.51h-.88v1.01Zm0,.34v1.1h.91c.47,0,.72-.21,.72-.55s-.25-.55-.72-.55h-.91Z"/><path class="cls-9" d="M93.26,3.06V1.11h.43v1.95c0,.6,.3,.9,.85,.9s.86-.29,.86-.89V1.11h.43v1.95c0,.92-.57,1.27-1.28,1.27s-1.28-.34-1.28-1.27Z"/><path class="cls-9" d="M96.81,1.11v3.15h-.44V1.11h.44Z"/><path class="cls-9" d="M97.86,1.11V3.9h1.76v.36h-2.19V1.11h.44Z"/><path class="cls-9" d="M100.04,1.11h1.14c.99,0,1.62,.59,1.62,1.58s-.62,1.58-1.62,1.58h-1.14V1.11Zm1.12,2.8c.77,0,1.19-.46,1.19-1.22s-.42-1.22-1.19-1.22h-.68V3.91h.68Z"/><path class="cls-9" d="M103.69,1.11v3.15h-.43V1.11h.43Z"/><path class="cls-9" d="M106.48,3.52V1.11h.41v3.15h-.34l-1.83-2.53v2.53h-.41V1.11h.45l1.73,2.41Z"/><path class="cls-9" d="M107.35,2.69c0-.97,.67-1.64,1.54-1.64s1.41,.5,1.46,1.3l-.42,.03c-.04-.58-.41-.96-1.04-.96s-1.1,.49-1.1,1.27,.46,1.27,1.14,1.27c.59,0,.97-.37,1.03-.91h-.96v-.34h1.36v1.56h-.4v-.56c-.14,.4-.58,.62-1.08,.62-.89,0-1.54-.66-1.54-1.64Z"/></g></g></g></g></svg>