<?xml version="1.0" encoding="UTF-8"?><svg xmlns="http://www.w3.org/2000/svg" xmlns:xlink="http://www.w3.org/1999/xlink" viewBox="0 0 112.6 100.54"><defs><style>.cls-1{isolation:isolate;}.cls-2{stroke:#ebebec;}.cls-2,.cls-3{stroke-width:.31px;}.cls-2,.cls-3,.cls-4,.cls-5{fill:none;}.cls-2,.cls-3,.cls-5{stroke-linecap:round;stroke-linejoin:round;}.cls-3,.cls-5{stroke:#000;}.cls-6{fill:#f1b784;fill-rule:evenodd;}.cls-7{clip-path:url(#clippath);}.cls-8{clip-path:url(#clippath-3);}.cls-9{clip-path:url(#clippath-5);}.cls-10{fill:#333132;}.cls-5{stroke-width:.47px;}</style><clipPath id="clippath"><rect class="cls-4" x="-482.78" y="-648.66" width="612" height="792"/></clipPath><clipPath id="clippath-3"><rect class="cls-4" x="-146.08" y="-4.26" width="271.8" height="109.8"/></clipPath><clipPath id="clippath-5"><rect class="cls-4" x="-482.78" y="-552.06" width="612" height="547.8"/></clipPath><clipPath id="clippath-6"><rect class="cls-4" x="-482.78" y="-648.66" width="612" height="792"/></clipPath></defs><g class="cls-1"><g id="Layer_1"><g class="cls-7"><polygon class="cls-6" points="12.28 12.88 8.26 12.88 8.26 13.43 3.39 13.43 3.39 18.56 2.84 18.56 2.84 19.02 3.75 19.02 3.75 27.17 10.26 27.17 10.26 26.14 12.24 26.14 12.24 19.66 12.28 19.66 12.28 12.88"/><polygon class="cls-2" points="12.28 12.88 8.26 12.88 8.26 13.43 3.39 13.43 3.39 18.56 2.84 18.56 2.84 19.02 3.75 19.02 3.75 27.17 10.25 27.17 10.25 26.14 12.24 26.14 12.24 19.66 12.28 19.66 12.28 12.88"/><line class="cls-3" x1="33.41" y1="31.44" x2="33.41" y2="28.2"/><polyline class="cls-3" points="36.87 31.44 33.41 28.2 29.95 31.44"/><polyline class="cls-3" points="36.87 28.2 33.41 31.44 29.95 28.2"/><line class="cls-3" x1="91.27" y1="64.31" x2="93.98" y2="63.33"/><polyline class="cls-3" points="92.47 67.6 93.98 63.33 90.07 61.03"/><polyline class="cls-3" points="95.17 66.62 91.27 64.31 92.78 60.04"/><polyline class="cls-3" points="89.33 54.64 88.68 52.86 88.68 17.51 106.49 17.51 106.49 42.85"/><polyline class="cls-3" points="106.49 43.46 106.49 43.77 99.56 46.29 101.04 50.37"/><polyline class="cls-3" points="2.84 18.85 1.69 18.85 1.69 11.3 8.54 11.3 8.54 12.89"/><polyline class="cls-3" points="15.56 12.88 15.56 11.3 19.93 11.3 19.93 12.88"/><polyline class="cls-3" points="26.13 12.88 26.13 11.3 32.62 11.3 32.62 12.88"/><line class="cls-3" x1="29.37" y1="11.3" x2="29.37" y2="13.43"/><polyline class="cls-3" points="37.03 12.88 37.03 11.3 43.53 11.3 43.53 12.88"/><polyline class="cls-3" points="47.94 12.88 47.94 11.3 54.44 11.3 54.44 12.88"/><line class="cls-3" x1="51.19" y1="13.43" x2="51.19" y2="11.3"/><polyline class="cls-3" points="58.82 12.88 58.82 11.3 62.14 11.3 62.14 12.88"/><polyline class="cls-3" points="65.84 12.88 65.84 11.3 72.68 11.3 72.68 18.85 71.17 18.85"/><polyline class="cls-3" points="71.17 35.49 72.68 35.49 72.68 43.04 65.84 43.04 65.84 41.46"/><polyline class="cls-3" points="58.5 41.46 58.5 43.04 50.05 43.04 50.05 41.46"/><line class="cls-3" x1="53.28" y1="40.91" x2="53.28" y2="43.04"/><polyline class="cls-3" points="45.62 41.46 45.62 43.04 39.12 43.04 39.12 41.46"/><line class="cls-3" x1="42.37" y1="40.91" x2="42.37" y2="43.04"/><polyline class="cls-3" points="33.2 41.46 33.2 43.04 28.21 43.04 28.21 41.46"/><polyline class="cls-3" points="22.22 41.46 22.22 43.04 18.9 43.04 18.9 41.47"/><polyline class="cls-3" points="15.64 39.38 15.64 40.97 12.14 40.97 12.14 38.84"/><polyline class="cls-3" points="15.33 24.52 13.79 24.52 13.79 19.66"/><line class="cls-3" x1="13.79" y1="24.17" x2="12.24" y2="24.17"/><line class="cls-3" x1="12.24" y1="22.53" x2="13.79" y2="21.81"/><polyline class="cls-3" points="62.14 30.04 60.59 30.04 60.59 34.66"/><line class="cls-3" x1="59.05" y1="32.79" x2="60.59" y2="32.07"/><line class="cls-3" x1="59.05" y1="30.43" x2="60.59" y2="30.43"/><polyline class="cls-3" points="87.47 55.31 87.47 48.92 80.49 48.92 80.49 43.46 78.65 43.46 78.65 42.85 80.49 42.85 80.49 35.03 80.49 29.09 80.49 23.76 80.49 20.92 80.49 11.71 101.05 11.71 101.05 12.26 108.52 12.26 108.52 16.77 109.07 16.77 109.07 24.6 109.07 28.18 109.07 32.19 109.07 35.03 109.07 42.85 111.32 42.85 111.32 43.46 109.07 43.46 109.07 48.92 103.02 48.92 103.02 49.71"/><polyline class="cls-3" points="57.94 94.92 58.25 95.76 51.75 98.13 49.77 92.69 51.25 92.15"/><polyline class="cls-3" points="49.93 75.33 48.39 75.89 45.81 68.79 52.24 66.45 52.78 67.94"/><polyline class="cls-3" points="59.53 65.48 58.99 64 63.1 62.5 63.64 63.99"/><polyline class="cls-3" points="69.43 61.88 68.89 60.39 74.99 58.17 75.54 59.66"/><line class="cls-3" x1="71.94" y1="59.28" x2="72.67" y2="61.28"/><polyline class="cls-3" points="79.68 58.15 79.14 56.66 85.24 54.44 85.79 55.93"/><line class="cls-3" x1="82.19" y1="55.55" x2="82.92" y2="57.55"/><polyline class="cls-3" points="106.74 59.94 108.23 59.4 109.95 64.12 108.43 64.67"/><polyline class="cls-3" points="67.16 91.56 67.47 92.41 63.58 93.82 63.28 92.98"/><line class="cls-3" x1="98.35" y1="63.41" x2="96.87" y2="63.95"/><polyline class="cls-3" points="99.77 62.71 98.29 63.25 99.26 65.92 97.78 66.46"/><line class="cls-3" x1="99.2" y1="65.76" x2="100.68" y2="65.22"/><polyline class="cls-3" points="61.61 72.46 60.26 72.95 61.75 77.02 63.23 76.48"/><line class="cls-3" x1="60.15" y1="77.25" x2="61.63" y2="76.71"/><line class="cls-3" x1="60.83" y1="74.49" x2="59.6" y2="75.72"/><polyline class="cls-3" points="99.08 30.46 97.39 30.46 97.39 26.79 95.71 26.79"/><line class="cls-3" x1="99.08" y1="27.39" x2="97.39" y2="27.39"/><line class="cls-3" x1="95.71" y1="30.13" x2="97.39" y2="30.13"/><rect class="cls-3" x="105.36" y="42.85" width="5.97" height=".61"/><rect class="cls-3" x="78.65" y="42.85" width="5.55" height=".61"/><polyline class="cls-3" points="107.84 68.26 109.36 67.71 111.5 73.61 105.21 75.9 104.9 75.03"/><polyline class="cls-3" points="93.54 79.52 97.12 78.22 97 77.9"/><line class="cls-3" x1="82.09" y1="83.69" x2="85.43" y2="82.47"/><polyline class="cls-3" points="74.23 86.58 74.42 87.1 70.86 88.4"/><polygon class="cls-3" points="2.84 19.02 2.84 18.56 3.39 18.56 3.39 13.43 8.26 13.43 8.26 12.89 15.84 12.89 15.84 13.43 19.65 13.43 19.65 12.89 26.38 12.89 26.38 13.43 32.31 13.43 32.31 12.89 37.28 12.89 37.28 13.43 43.22 13.43 43.22 12.89 48.19 12.89 48.19 13.43 54.13 13.43 54.13 12.89 59.1 12.89 59.1 13.43 61.97 13.43 61.97 12.89 66.12 12.89 66.12 13.43 70.62 13.43 70.62 18.57 71.17 18.57 71.17 23.93 70.62 23.93 70.62 30.41 71.17 30.41 71.17 35.77 70.62 35.77 70.62 40.91 66.12 40.91 66.12 41.46 58.22 41.46 58.22 40.91 50.33 40.91 50.33 41.46 45.37 41.46 45.37 40.91 39.43 40.91 39.43 41.46 32.92 41.46 32.92 40.91 28.49 40.91 28.49 41.46 21.94 41.46 21.94 40.91 19.31 40.91 19.31 41.47 18.84 41.47 18.84 39.38 15.36 39.38 15.36 38.84 10.67 38.84 10.67 35.87 10.13 35.87 10.13 34.24 7.02 34.24 7.02 29.73 3.75 29.73 3.75 19.02 2.84 19.02"/><rect class="cls-3" x="10.25" y="26.14" width="53.87" height="2.06"/><line class="cls-3" x1="10.25" y1="27.17" x2="3.75" y2="27.17"/><polyline class="cls-3" points="18.97 28.2 18.97 39.39 18.84 39.39"/><line class="cls-3" x1="24.43" y1="28.2" x2="24.43" y2="41.46"/><polyline class="cls-3" points="29.95 28.2 29.95 31.44 36.87 31.44 36.87 28.2"/><polyline class="cls-3" points="36.92 41.46 36.92 31.44 36.87 31.44"/><line class="cls-3" x1="42.37" y1="40.91" x2="42.37" y2="28.2"/><line class="cls-3" x1="47.83" y1="41.46" x2="47.83" y2="28.2"/><line class="cls-3" x1="53.28" y1="40.91" x2="53.28" y2="29.29"/><polyline class="cls-3" points="53.23 28.28 53.23 29.28 55.89 29.28 55.89 28.2"/><polyline class="cls-3" points="59.05 28.2 59.05 34.66 62.14 34.66 62.14 28.2"/><line class="cls-3" x1="62.1" y1="41.46" x2="62.1" y2="34.66"/><line class="cls-3" x1="70.62" y1="27.17" x2="64.12" y2="27.17"/><polyline class="cls-3" points="62.1 26.14 62.1 13.43 61.97 13.43"/><line class="cls-3" x1="56.64" y1="26.14" x2="56.64" y2="12.88"/><line class="cls-3" x1="51.19" y1="26.14" x2="51.19" y2="13.43"/><line class="cls-3" x1="45.74" y1="26.14" x2="45.74" y2="12.88"/><line class="cls-3" x1="40.28" y1="26.14" x2="40.28" y2="13.43"/><line class="cls-3" x1="34.83" y1="26.14" x2="34.83" y2="12.88"/><line class="cls-3" x1="29.37" y1="26.14" x2="29.37" y2="13.43"/><line class="cls-3" x1="23.92" y1="26.14" x2="23.92" y2="12.88"/><polyline class="cls-3" points="12.24 26.03 12.24 19.66 15.33 19.66 15.33 26.14"/><polyline class="cls-3" points="18.2 26.14 18.2 25.06 15.33 25.06"/><line class="cls-3" x1="12.28" y1="19.67" x2="12.28" y2="12.89"/><polygon class="cls-3" points="103 49.66 106.84 60.21 106.33 60.39 107.82 64.49 108.3 64.31 108.44 64.7 106.77 65.31 107.93 68.5 107.41 68.69 108.96 72.96 104.94 74.42 105.13 74.94 96.76 77.99 96.26 76.61 92.92 77.83 93.55 79.55 85.44 82.5 84.81 80.78 81.48 81.99 82.1 83.71 73.99 86.66 73.37 84.94 70.03 86.16 71.44 89.99 66.89 91.64 66.28 89.95 62.92 91.17 63.54 92.88 57.68 95.02 57.49 94.5 53.25 96.05 51.86 92.22 51.35 92.41 49.91 88.45 52.18 87.63 50.76 83.74 52.73 83.02 49.84 75.07 50.35 74.88 48.59 70.05 52.7 68.55 52.51 68.04 59.76 65.4 59.95 65.91 63.53 64.61 63.35 64.09 69.69 61.78 69.88 62.3 75.46 60.27 75.27 59.75 79.94 58.05 80.13 58.57 85.71 56.54 85.52 56.02 103 49.66"/><polyline class="cls-3" points="95.17 66.62 92.78 60.04 90.07 61.02 92.47 67.6"/><polyline class="cls-3" points="95.36 59.84 98.44 68.26 96.36 69.03 96.15 68.45 57.55 82.5 56.85 80.57 95.17 66.62"/><rect class="cls-3" x="95.71" y="25.12" width="3.36" height="7.12"/><polyline class="cls-3" points="96.2 62.14 99.17 61.06 101.39 67.16 98.44 68.23"/><polyline class="cls-3" points="60.83 79.12 58.59 72.97 61.56 71.89 63.8 78.04"/><polyline class="cls-3" points="66.51 77.05 66.14 76.03 63.42 77.02"/><polyline class="cls-3" points="106.33 60.39 106.28 60.27 99.75 62.65"/><polyline class="cls-3" points="52.73 83.02 52.78 83.14 57.2 81.53"/><line class="cls-3" x1="56.42" y1="66.62" x2="58.71" y2="72.93"/><line class="cls-3" x1="67.36" y1="62.63" x2="71.89" y2="75.09"/><line class="cls-3" x1="72.67" y1="61.28" x2="77.02" y2="73.23"/><line class="cls-3" x1="77.61" y1="58.9" x2="82.14" y2="71.36"/><line class="cls-3" x1="82.92" y1="57.55" x2="87.27" y2="69.5"/><polyline class="cls-3" points="87.86 55.17 90 61.05 90.07 61.03"/><polyline class="cls-3" points="93.02 60.69 95.86 59.65 94.87 56.95 89.25 58.99"/><polyline class="cls-3" points="92.78 60.04 92.91 59.99 92.63 59.24 91.09 59.8 91.37 60.55"/><polyline class="cls-3" points="96.26 76.61 96.36 76.58 93.72 69.34"/><polyline class="cls-3" points="66.28 89.95 66.34 89.93 62.92 80.55"/><polyline class="cls-3" points="81.48 81.99 81.38 82.03 78.75 74.79"/><g class="cls-8"><rect class="cls-3" x="-234.12" y="-439.1" width="450.14" height="582.54"/></g><g><path class="cls-10" d="M87.84,94.63v3.91h2.46v.5h-3.07v-4.41h.61Z"/><path class="cls-10" d="M94.04,99.05h-3.15v-4.41h3.08v.5h-2.49v1.39h1.98v.5h-1.98v1.52h2.56v.5Z"/><path class="cls-10" d="M96.11,99.05l-1.77-4.41h.62l1.49,3.71h.03l1.45-3.71h.62l-1.78,4.41h-.66Z"/><path class="cls-10" d="M102.2,99.05h-3.15v-4.41h3.08v.5h-2.49v1.39h1.98v.5h-1.98v1.52h2.56v.5Z"/><path class="cls-10" d="M103.5,94.63v3.91h2.46v.5h-3.07v-4.41h.61Z"/><path class="cls-10" d="M108.17,97.01c.15-.51,.6-.9,1.32-.9,.95,0,1.55,.62,1.55,1.49,0,.91-.62,1.53-1.61,1.53-1.18,0-1.79-.85-1.79-2.21s.58-2.37,1.82-2.37c.88,0,1.46,.5,1.54,1.33l-.58,.02c-.08-.52-.37-.87-.97-.87-.9,0-1.28,.82-1.27,1.97Zm1.25,1.63c.65,0,1.04-.41,1.04-1.02s-.39-1.03-1.06-1.03-1.05,.41-1.05,1.03,.41,1.02,1.07,1.02Z"/></g><g class="cls-9"><rect class="cls-5" x="-515.93" y="-658.08" width="678.3" height="877.8"/></g><g><path class="cls-10" d="M4.38,3.76h.02l.65-2.62h.41l-.81,3.15h-.5l-.66-2.52h-.02l-.67,2.52h-.5L1.48,1.14h.42l.66,2.61h.02l.69-2.61h.41l.7,2.62Z"/><path class="cls-10" d="M8.06,4.29h-2.25V1.14h2.2v.36h-1.78v.99h1.42v.36h-1.42v1.09h1.83v.36Z"/><path class="cls-10" d="M8.7,3.14c.02,.58,.42,.87,.95,.87,.47,0,.77-.2,.77-.55,0-.29-.19-.43-.6-.51l-.62-.12c-.47-.09-.79-.34-.79-.83,0-.55,.44-.93,1.13-.93,.79,0,1.25,.42,1.25,1.13l-.4,.02c-.02-.52-.33-.82-.85-.82-.46,0-.71,.21-.71,.57,0,.31,.21,.41,.57,.48l.57,.11c.58,.11,.87,.36,.87,.87,0,.58-.5,.92-1.18,.92-.78,0-1.34-.42-1.34-1.19l.39-.03Z"/><path class="cls-10" d="M12.09,4.29V1.5h-1.15v-.36h2.74v.36h-1.17v2.79h-.43Z"/><path class="cls-10" d="M16.34,4.29h-1.34V1.14h1.29c.78,0,1.1,.34,1.1,.84,0,.37-.26,.62-.6,.68,.39,.07,.69,.32,.69,.77,0,.55-.4,.87-1.14,.87Zm-.92-1.79h.88c.46,0,.65-.2,.65-.5s-.19-.51-.65-.51h-.88v1.01Zm0,.34v1.1h.91c.47,0,.72-.21,.72-.55s-.25-.55-.72-.55h-.91Z"/><path class="cls-10" d="M17.91,3.09V1.14h.43v1.95c0,.6,.3,.9,.85,.9s.86-.29,.86-.89V1.14h.42v1.95c0,.92-.57,1.27-1.28,1.27s-1.28-.34-1.28-1.27Z"/><path class="cls-10" d="M21.46,1.14v3.15h-.43V1.14h.43Z"/><path class="cls-10" d="M22.51,1.14V3.93h1.76v.36h-2.19V1.14h.43Z"/><path class="cls-10" d="M24.69,1.14h1.14c.99,0,1.62,.59,1.62,1.58s-.63,1.58-1.62,1.58h-1.14V1.14Zm1.12,2.8c.77,0,1.19-.46,1.19-1.22s-.42-1.22-1.19-1.22h-.68V3.94h.68Z"/><path class="cls-10" d="M28.34,1.14v3.15h-.44V1.14h.44Z"/><path class="cls-10" d="M31.13,3.55V1.14h.41v3.15h-.35l-1.83-2.53v2.53h-.41V1.14h.45l1.73,2.41Z"/><path class="cls-10" d="M32,2.72c0-.97,.67-1.64,1.54-1.64s1.41,.5,1.46,1.3l-.42,.03c-.04-.58-.41-.96-1.04-.96s-1.1,.49-1.1,1.27,.46,1.27,1.14,1.27c.59,0,.97-.37,1.03-.91h-.96v-.34h1.36v1.56h-.4v-.56c-.14,.4-.58,.62-1.08,.62-.89,0-1.54-.66-1.54-1.64Z"/></g><g><path class="cls-10" d="M77.21,4.29h-2.25V1.14h2.2v.36h-1.78v.99h1.42v.36h-1.42v1.09h1.83v.36Z"/><path class="cls-10" d="M79.22,1.14l1.31,3.15h-.46l-.38-.93h-1.44l-.37,.93h-.42l1.29-3.15h.48Zm-.83,1.88h1.16l-.58-1.4h-.02l-.57,1.4Z"/><path class="cls-10" d="M81.06,3.14c.02,.58,.42,.87,.95,.87,.47,0,.77-.2,.77-.55,0-.29-.19-.43-.6-.51l-.62-.12c-.47-.09-.79-.34-.79-.83,0-.55,.44-.93,1.13-.93,.79,0,1.25,.42,1.25,1.13l-.4,.02c-.02-.52-.33-.82-.85-.82-.46,0-.71,.21-.71,.57,0,.31,.21,.41,.57,.48l.57,.11c.58,.11,.87,.36,.87,.87,0,.58-.5,.92-1.18,.92-.78,0-1.34-.42-1.34-1.19l.39-.03Z"/><path class="cls-10" d="M84.45,4.29V1.5h-1.15v-.36h2.74v.36h-1.17v2.79h-.43Z"/><path class="cls-10" d="M88.7,4.29h-1.34V1.14h1.29c.78,0,1.1,.34,1.1,.84,0,.37-.26,.62-.6,.68,.39,.07,.69,.32,.69,.77,0,.55-.4,.87-1.14,.87Zm-.92-1.79h.88c.46,0,.65-.2,.65-.5s-.2-.51-.65-.51h-.88v1.01Zm0,.34v1.1h.91c.47,0,.72-.21,.72-.55s-.25-.55-.72-.55h-.91Z"/><path class="cls-10" d="M90.27,3.09V1.14h.43v1.95c0,.6,.3,.9,.85,.9s.86-.29,.86-.89V1.14h.43v1.95c0,.92-.57,1.27-1.28,1.27s-1.28-.34-1.28-1.27Z"/><path class="cls-10" d="M93.83,1.14v3.15h-.44V1.14h.44Z"/><path class="cls-10" d="M94.87,1.14V3.93h1.76v.36h-2.19V1.14h.44Z"/><path class="cls-10" d="M97.05,1.14h1.14c.99,0,1.62,.59,1.62,1.58s-.62,1.58-1.62,1.58h-1.14V1.14Zm1.12,2.8c.77,0,1.19-.46,1.19-1.22s-.42-1.22-1.19-1.22h-.68V3.94h.68Z"/><path class="cls-10" d="M100.7,1.14v3.15h-.43V1.14h.43Z"/><path class="cls-10" d="M103.49,3.55V1.14h.41v3.15h-.34l-1.83-2.53v2.53h-.41V1.14h.45l1.73,2.41Z"/><path class="cls-10" d="M104.36,2.72c0-.97,.67-1.64,1.54-1.64s1.41,.5,1.46,1.3l-.42,.03c-.04-.58-.41-.96-1.04-.96s-1.1,.49-1.1,1.27,.46,1.27,1.14,1.27c.59,0,.97-.37,1.03-.91h-.96v-.34h1.36v1.56h-.4v-.56c-.14,.4-.58,.62-1.08,.62-.89,0-1.54-.66-1.54-1.64Z"/></g></g></g></g></svg>