<?xml version="1.0" encoding="UTF-8"?><svg xmlns="http://www.w3.org/2000/svg" xmlns:xlink="http://www.w3.org/1999/xlink" viewBox="0 0 117.31 100.54"><defs><style>.cls-1{isolation:isolate;}.cls-2{stroke:#ebebec;}.cls-2,.cls-3{stroke-width:.31px;}.cls-2,.cls-3,.cls-4,.cls-5{fill:none;}.cls-2,.cls-3,.cls-5{stroke-linecap:round;stroke-linejoin:round;}.cls-3,.cls-5{stroke:#000;}.cls-6{fill:#f1b784;fill-rule:evenodd;}.cls-7{clip-path:url(#clippath);}.cls-8{clip-path:url(#clippath-3);}.cls-9{clip-path:url(#clippath-5);}.cls-10{fill:#333132;}.cls-5{stroke-width:.47px;}</style><clipPath id="clippath"><rect class="cls-4" x="-348.51" y="-648.66" width="612" height="792"/></clipPath><clipPath id="clippath-3"><rect class="cls-4" x="-11.81" y="-4.26" width="271.8" height="109.8"/></clipPath><clipPath id="clippath-5"><rect class="cls-4" x="-348.51" y="-552.06" width="612" height="547.8"/></clipPath><clipPath id="clippath-6"><rect class="cls-4" x="-348.51" y="-648.66" width="612" height="792"/></clipPath></defs><g class="cls-1"><g id="Layer_1"><g class="cls-7"><polygon class="cls-6" points="12.15 12.88 8.13 12.88 8.13 13.43 3.26 13.43 3.26 18.56 2.71 18.56 2.71 19.02 3.62 19.02 3.62 27.17 10.12 27.17 10.12 26.14 12.11 26.14 12.11 19.66 12.15 19.66 12.15 12.88"/><polygon class="cls-2" points="12.15 12.88 8.13 12.88 8.13 13.43 3.26 13.43 3.26 18.56 2.71 18.56 2.71 19.02 3.62 19.02 3.62 27.17 10.12 27.17 10.12 26.14 12.11 26.14 12.11 19.66 12.15 19.66 12.15 12.88"/><line class="cls-3" x1="33.28" y1="31.44" x2="33.28" y2="28.2"/><polyline class="cls-3" points="36.73 31.44 33.28 28.2 29.82 31.44"/><polyline class="cls-3" points="36.73 28.2 33.28 31.44 29.82 28.2"/><line class="cls-3" x1="91.14" y1="64.31" x2="93.85" y2="63.33"/><polyline class="cls-3" points="92.33 67.6 93.85 63.33 89.94 61.03"/><polyline class="cls-3" points="95.04 66.62 91.14 64.31 92.65 60.04"/><polyline class="cls-3" points="2.71 18.85 1.56 18.85 1.56 11.3 8.41 11.3 8.41 12.89"/><polyline class="cls-3" points="15.43 12.88 15.43 11.3 19.8 11.3 19.8 12.88"/><polyline class="cls-3" points="25.99 12.88 25.99 11.3 32.49 11.3 32.49 12.88"/><line class="cls-3" x1="29.24" y1="11.3" x2="29.24" y2="13.43"/><polyline class="cls-3" points="71.04 35.49 72.55 35.49 72.55 43.04 65.7 43.04 65.7 41.46"/><polyline class="cls-3" points="58.37 41.46 58.37 43.04 49.92 43.04 49.92 41.46"/><line class="cls-3" x1="53.15" y1="40.91" x2="53.15" y2="43.04"/><polyline class="cls-3" points="45.49 41.46 45.49 43.04 38.99 43.04 38.99 41.46"/><line class="cls-3" x1="42.24" y1="40.91" x2="42.24" y2="43.04"/><polyline class="cls-3" points="33.07 41.46 33.07 43.04 28.08 43.04 28.08 41.46"/><polyline class="cls-3" points="22.09 41.46 22.09 43.04 18.77 43.04 18.77 41.47"/><polyline class="cls-3" points="15.51 39.38 15.51 40.97 12.01 40.97 12.01 38.84"/><polyline class="cls-3" points="15.2 24.52 13.66 24.52 13.66 19.66"/><line class="cls-3" x1="13.66" y1="24.17" x2="12.11" y2="24.17"/><line class="cls-3" x1="12.11" y1="22.53" x2="13.66" y2="21.81"/><polyline class="cls-3" points="62 30.04 60.46 30.04 60.46 34.66"/><line class="cls-3" x1="58.91" y1="32.79" x2="60.46" y2="32.07"/><line class="cls-3" x1="58.91" y1="30.43" x2="60.46" y2="30.43"/><polyline class="cls-3" points="57.81 94.92 58.12 95.76 51.62 98.13 49.63 92.69 51.12 92.15"/><polyline class="cls-3" points="49.8 75.33 48.26 75.89 45.67 68.79 52.1 66.45 52.65 67.94"/><polyline class="cls-3" points="59.4 65.48 58.86 64 62.96 62.5 63.51 63.99"/><polyline class="cls-3" points="69.3 61.88 68.76 60.39 74.86 58.17 75.4 59.66"/><line class="cls-3" x1="71.81" y1="59.28" x2="72.54" y2="61.28"/><polyline class="cls-3" points="79.55 58.15 79.01 56.66 85.11 54.44 85.65 55.93"/><line class="cls-3" x1="82.06" y1="55.55" x2="82.79" y2="57.55"/><polyline class="cls-3" points="80.36 46.5 78.78 46.5 78.78 43.46"/><polyline class="cls-3" points="80.36 39.8 78.78 39.8 78.78 42.85"/><polyline class="cls-3" points="80.36 35.31 78.78 35.31 78.78 28.81 80.36 28.81"/><line class="cls-3" x1="78.78" y1="32.06" x2="80.91" y2="32.06"/><polyline class="cls-3" points="108.94 24.32 110.52 24.32 110.52 28.46 108.94 28.46"/><polyline class="cls-3" points="108.94 31.91 110.52 31.91 110.52 35.31 108.94 35.31"/><polyline class="cls-3" points="108.94 39.8 110.52 39.8 110.52 42.85"/><polyline class="cls-3" points="110.52 43.46 110.52 46.5 108.94 46.5"/><polyline class="cls-3" points="106.61 59.94 108.1 59.4 109.81 64.12 108.3 64.67"/><polyline class="cls-3" points="107.71 68.26 109.22 67.71 111.6 74.25 105.31 76.54 104.76 75.03"/><polyline class="cls-3" points="66.96 91.57 67.28 92.43 63.45 93.82 63.15 92.98"/><line class="cls-3" x1="95.68" y1="43.15" x2="93.01" y2="43.15"/><line class="cls-3" x1="98.21" y1="63.41" x2="96.73" y2="63.95"/><polyline class="cls-3" points="99.64 62.71 98.15 63.25 99.13 65.92 97.65 66.46"/><line class="cls-3" x1="99.07" y1="65.76" x2="100.55" y2="65.22"/><polyline class="cls-3" points="61.48 72.46 60.13 72.95 61.62 77.02 63.1 76.48"/><line class="cls-3" x1="60.02" y1="77.25" x2="61.5" y2="76.71"/><line class="cls-3" x1="60.69" y1="74.49" x2="59.46" y2="75.72"/><polyline class="cls-3" points="98.84 30.46 97.26 30.46 97.26 27.46 95.68 27.46"/><line class="cls-3" x1="98.84" y1="27.79" x2="97.26" y2="27.79"/><line class="cls-3" x1="95.68" y1="30.13" x2="97.26" y2="30.13"/><line class="cls-3" x1="40.15" y1="13.43" x2="40.15" y2="11.3"/><polyline class="cls-3" points="93.41 79.52 96.98 78.22 96.87 77.9"/><line class="cls-3" x1="81.96" y1="83.69" x2="85.3" y2="82.47"/><polyline class="cls-3" points="74.1 86.58 74.29 87.1 70.73 88.4"/><polyline class="cls-3" points="102.97 11.71 102.97 10.13 110.52 10.13 110.52 17.05 108.94 17.05"/><polyline class="cls-3" points="80.36 17.05 78.78 17.05 78.78 10.13 86.33 10.13 86.33 11.71"/><polyline class="cls-3" points="80.36 20.63 78.78 20.63 78.78 24.04 80.36 24.04"/><polyline class="cls-3" points="36.9 12.88 36.9 11.3 43.4 11.3 43.4 12.88"/><line class="cls-3" x1="51.06" y1="13.43" x2="51.06" y2="11.3"/><polyline class="cls-3" points="47.81 12.88 47.81 11.3 54.31 11.3 54.31 12.88"/><polyline class="cls-3" points="58.69 12.88 58.69 11.3 62.11 11.3 62.11 12.88"/><polyline class="cls-3" points="65.7 12.88 65.7 11.3 72.55 11.3 72.55 18.85 71.04 18.85"/><polygon class="cls-3" points="2.71 19.02 2.71 18.56 3.26 18.56 3.26 13.43 8.13 13.43 8.13 12.89 15.71 12.89 15.71 13.43 19.52 13.43 19.52 12.89 26.24 12.89 26.24 13.43 32.18 13.43 32.18 12.89 37.15 12.89 37.15 13.43 43.09 13.43 43.09 12.89 48.06 12.89 48.06 13.43 54 13.43 54 12.89 58.97 12.89 58.97 13.43 61.83 13.43 61.83 12.89 65.99 12.89 65.99 13.43 70.49 13.43 70.49 18.57 71.04 18.57 71.04 23.93 70.49 23.93 70.49 30.41 71.04 30.41 71.04 35.77 70.49 35.77 70.49 40.91 65.99 40.91 65.99 41.46 58.09 41.46 58.09 40.91 50.2 40.91 50.2 41.46 45.24 41.46 45.24 40.91 39.3 40.91 39.3 41.46 32.79 41.46 32.79 40.91 28.36 40.91 28.36 41.46 21.81 41.46 21.81 40.91 19.17 40.91 19.17 41.47 18.71 41.47 18.71 39.38 15.23 39.38 15.23 38.84 10.54 38.84 10.54 35.87 10 35.87 10 34.24 6.88 34.24 6.88 29.73 3.62 29.73 3.62 19.02 2.71 19.02"/><rect class="cls-3" x="10.12" y="26.14" width="53.87" height="2.06"/><line class="cls-3" x1="10.12" y1="27.17" x2="3.62" y2="27.17"/><polyline class="cls-3" points="18.84 28.2 18.84 39.39 18.71 39.39"/><line class="cls-3" x1="24.3" y1="28.2" x2="24.3" y2="41.46"/><polyline class="cls-3" points="29.82 28.2 29.82 31.44 36.73 31.44 36.73 28.2"/><polyline class="cls-3" points="36.79 41.46 36.79 31.44 36.73 31.44"/><line class="cls-3" x1="42.24" y1="40.91" x2="42.24" y2="28.2"/><line class="cls-3" x1="47.7" y1="41.46" x2="47.7" y2="28.2"/><line class="cls-3" x1="53.15" y1="40.91" x2="53.15" y2="29.29"/><polyline class="cls-3" points="53.1 28.28 53.1 29.28 55.76 29.28 55.76 28.2"/><polyline class="cls-3" points="58.91 28.2 58.91 34.66 62 34.66 62 28.2"/><line class="cls-3" x1="61.97" y1="41.46" x2="61.97" y2="34.66"/><line class="cls-3" x1="70.49" y1="27.17" x2="63.99" y2="27.17"/><polyline class="cls-3" points="61.97 26.14 61.97 13.43 61.83 13.43"/><line class="cls-3" x1="56.51" y1="26.14" x2="56.51" y2="12.88"/><line class="cls-3" x1="51.06" y1="26.14" x2="51.06" y2="13.43"/><line class="cls-3" x1="45.61" y1="26.14" x2="45.61" y2="12.88"/><line class="cls-3" x1="40.15" y1="26.14" x2="40.15" y2="13.43"/><line class="cls-3" x1="34.7" y1="26.14" x2="34.7" y2="12.88"/><line class="cls-3" x1="29.24" y1="26.14" x2="29.24" y2="13.43"/><line class="cls-3" x1="23.79" y1="26.14" x2="23.79" y2="12.88"/><polyline class="cls-3" points="12.11 26.03 12.11 19.66 15.2 19.66 15.2 26.14"/><polyline class="cls-3" points="18.07 26.14 18.07 25.06 15.2 25.06"/><line class="cls-3" x1="12.15" y1="19.67" x2="12.15" y2="12.89"/><polygon class="cls-3" points="80.91 12.26 86.05 12.26 86.05 11.72 91.4 11.72 91.4 12.26 97.9 12.26 97.9 11.72 103.22 11.72 103.22 12.26 108.39 12.26 108.39 16.77 108.94 16.77 108.94 24.6 108.39 24.6 108.39 28.18 108.94 28.18 108.94 32.19 108.39 32.19 108.39 35.03 108.94 35.03 108.94 40.08 108.39 40.08 108.39 42.85 111.19 42.85 111.19 43.46 108.39 43.46 108.39 46.22 108.94 46.22 108.94 48.92 102.88 48.92 102.88 49.72 102.89 49.73 106.71 60.21 106.19 60.39 107.68 64.49 108.17 64.31 108.31 64.7 106.63 65.31 107.8 68.5 107.28 68.69 108.83 72.96 104.81 74.42 105 74.94 96.63 77.99 96.13 76.61 92.79 77.83 93.42 79.55 85.31 82.5 84.68 80.78 81.34 81.99 81.97 83.71 73.86 86.66 73.24 84.94 69.91 86.16 71.31 89.99 66.73 91.66 66.11 89.97 62.79 91.17 63.41 92.88 57.55 95.02 57.36 94.5 53.12 96.05 51.73 92.22 51.22 92.41 49.78 88.45 52.05 87.63 50.63 83.74 52.6 83.02 49.71 75.07 50.22 74.88 48.46 70.05 52.57 68.55 52.38 68.04 59.63 65.4 59.82 65.91 63.4 64.61 63.21 64.09 69.56 61.78 69.75 62.3 75.33 60.27 75.14 59.75 79.81 58.05 80 58.57 85.58 56.54 85.39 56.02 87.34 55.31 87.34 48.92 80.36 48.92 80.36 46.22 80.91 46.22 80.91 43.46 78.52 43.46 78.52 42.85 80.91 42.85 80.91 40.08 80.36 40.08 80.36 35.03 80.91 35.03 80.91 29.09 80.36 29.09 80.36 23.76 80.91 23.76 80.91 20.92 80.36 20.92 80.36 16.77 80.91 16.77 80.91 12.26"/><polyline class="cls-3" points="95.04 66.62 92.65 60.04 89.94 61.02 92.33 67.6"/><polyline class="cls-3" points="90.33 60.88 90.33 59.78 92.25 59.78 92.38 60.14"/><polyline class="cls-3" points="92.65 60.04 92.6 59.9 93.62 59.52 93.62 45.97 93.37 45.83 93.01 45.62 93.01 40.68 93.62 40.33 93.62 18.76 95.68 18.76 95.68 61.08 98.31 68.26 96.64 68.87 96.44 68.3 57.42 82.5 56.72 80.57 95.04 66.62"/><polyline class="cls-3" points="93.62 56.74 92.48 56.74 92.48 59.78 92.25 59.78"/><polyline class="cls-3" points="93.62 20.73 92.54 20.73 92.54 23.47 93.62 23.47"/><polyline class="cls-3" points="95.68 25.62 98.84 25.62 98.84 32.07 95.68 32.07"/><polyline class="cls-3" points="96.07 62.14 99.04 61.06 101.26 67.16 98.3 68.23"/><polyline class="cls-3" points="60.7 79.12 58.46 72.97 61.43 71.89 63.66 78.04"/><polyline class="cls-3" points="66.38 77.05 66.01 76.03 63.29 77.02"/><line class="cls-3" x1="94.65" y1="18.76" x2="94.65" y2="12.26"/><line class="cls-3" x1="95.68" y1="20.79" x2="108.94" y2="20.79"/><polyline class="cls-3" points="108.39 32.19 108.39 32.06 98.84 32.06"/><line class="cls-3" x1="108.94" y1="37.52" x2="95.68" y2="37.52"/><line class="cls-3" x1="95.68" y1="43.15" x2="111.19" y2="43.15"/><line class="cls-3" x1="78.52" y1="43.15" x2="93.01" y2="43.15"/><polyline class="cls-3" points="95.68 56.47 101.39 56.47 104.88 55.2"/><polyline class="cls-3" points="106.63 65.31 106.59 65.18 101.25 67.16"/><polyline class="cls-3" points="62.79 91.17 62.67 91.22 59.25 81.84"/><polyline class="cls-3" points="52.6 83.02 52.65 83.14 57.07 81.53"/><line class="cls-3" x1="56.28" y1="66.62" x2="58.58" y2="72.93"/><line class="cls-3" x1="67.23" y1="62.63" x2="71.76" y2="75.09"/><line class="cls-3" x1="72.54" y1="61.28" x2="76.89" y2="73.23"/><line class="cls-3" x1="77.48" y1="58.9" x2="82.01" y2="71.36"/><line class="cls-3" x1="82.79" y1="57.55" x2="87.14" y2="69.5"/><polyline class="cls-3" points="87.34 55.31 87.47 55.31 87.47 56.22 90.38 56.22 90.38 59.78"/><line class="cls-3" x1="80.36" y1="37.52" x2="93.62" y2="37.52"/><line class="cls-3" x1="80.91" y1="32.06" x2="93.62" y2="32.06"/><line class="cls-3" x1="80.36" y1="26.61" x2="93.62" y2="26.61"/><polyline class="cls-3" points="80.91 20.91 80.91 20.79 92.54 20.79"/><polyline class="cls-3" points="73.24 84.94 73.33 84.91 70.7 77.67"/><polyline class="cls-3" points="84.68 80.78 84.78 80.74 82.14 73.5"/><polyline class="cls-3" points="96.13 76.61 96.23 76.58 93.59 69.34"/><g class="cls-8"><rect class="cls-3" x="-99.85" y="-439.1" width="450.14" height="582.54"/></g><g><path class="cls-10" d="M87.57,94.63v3.91h2.46v.5h-3.07v-4.41h.61Z"/><path class="cls-10" d="M93.77,99.05h-3.15v-4.41h3.08v.5h-2.49v1.39h1.98v.5h-1.98v1.52h2.56v.5Z"/><path class="cls-10" d="M95.84,99.05l-1.77-4.41h.62l1.49,3.71h.03l1.45-3.71h.62l-1.78,4.41h-.66Z"/><path class="cls-10" d="M101.93,99.05h-3.15v-4.41h3.08v.5h-2.49v1.39h1.98v.5h-1.98v1.52h2.56v.5Z"/><path class="cls-10" d="M103.23,94.63v3.91h2.46v.5h-3.07v-4.41h.61Z"/><path class="cls-10" d="M110.55,98.52v.53h-3.24v-.35l1.25-1.07c.69-.6,1.21-1.05,1.21-1.69,0-.52-.29-.88-.88-.88s-.94,.38-.94,1.03c0,.13,.01,.27,.05,.4l-.6-.03c-.03-.14-.05-.28-.05-.41,0-.9,.61-1.48,1.55-1.48,1.03,0,1.5,.6,1.5,1.35,0,.8-.68,1.41-1.32,1.93l-.83,.69h2.3Z"/><path class="cls-10" d="M110.82,97h1.61v.52h-1.61v-.52Z"/><path class="cls-10" d="M116.02,95.18h-2.12c0,.24-.11,1.14-.16,1.37,.2-.25,.56-.45,1.05-.45,1,0,1.52,.67,1.52,1.48,0,.92-.64,1.55-1.6,1.55-1.06,0-1.67-.67-1.62-1.65l.59,.05c0,.67,.36,1.11,1.05,1.11,.62,0,1-.41,1-1.06,0-.58-.38-1.01-1-1.01-.49,0-.81,.26-.97,.56l-.6-.04c.11-.61,.26-1.74,.28-2.46h2.58v.55Z"/></g><g class="cls-9"><rect class="cls-5" x="-381.66" y="-658.08" width="678.3" height="877.8"/></g><g><path class="cls-10" d="M4.85,3.76h.02l.65-2.62h.41l-.81,3.15h-.5l-.66-2.52h-.02l-.67,2.52h-.5L1.95,1.14h.42l.66,2.61h.02l.69-2.61h.41l.7,2.62Z"/><path class="cls-10" d="M8.53,4.29h-2.25V1.14h2.2v.36h-1.78v.99h1.42v.36h-1.42v1.09h1.83v.36Z"/><path class="cls-10" d="M9.17,3.14c.03,.58,.42,.87,.95,.87,.47,0,.77-.2,.77-.55,0-.29-.19-.43-.6-.51l-.62-.12c-.47-.09-.79-.34-.79-.83,0-.55,.44-.93,1.13-.93,.79,0,1.25,.42,1.25,1.13l-.39,.02c-.02-.52-.33-.82-.85-.82-.46,0-.71,.21-.71,.57,0,.31,.21,.41,.57,.48l.57,.11c.58,.11,.87,.36,.87,.87,0,.58-.5,.92-1.18,.92-.78,0-1.34-.42-1.34-1.19l.39-.03Z"/><path class="cls-10" d="M12.56,4.29V1.5h-1.15v-.36h2.74v.36h-1.17v2.79h-.43Z"/><path class="cls-10" d="M16.8,4.29h-1.34V1.14h1.29c.78,0,1.1,.34,1.1,.84,0,.37-.26,.62-.6,.68,.39,.07,.69,.32,.69,.77,0,.55-.4,.87-1.14,.87Zm-.92-1.79h.88c.46,0,.65-.2,.65-.5s-.2-.51-.65-.51h-.88v1.01Zm0,.34v1.1h.91c.47,0,.72-.21,.72-.55s-.25-.55-.72-.55h-.91Z"/><path class="cls-10" d="M18.38,3.09V1.14h.43v1.95c0,.6,.3,.9,.85,.9s.86-.29,.86-.89V1.14h.43v1.95c0,.92-.57,1.27-1.28,1.27s-1.28-.34-1.28-1.27Z"/><path class="cls-10" d="M21.93,1.14v3.15h-.44V1.14h.44Z"/><path class="cls-10" d="M22.98,1.14V3.93h1.76v.36h-2.19V1.14h.44Z"/><path class="cls-10" d="M25.16,1.14h1.14c.99,0,1.62,.59,1.62,1.58s-.62,1.58-1.62,1.58h-1.14V1.14Zm1.12,2.8c.77,0,1.19-.46,1.19-1.22s-.42-1.22-1.19-1.22h-.68V3.94h.68Z"/><path class="cls-10" d="M28.81,1.14v3.15h-.43V1.14h.43Z"/><path class="cls-10" d="M31.6,3.55V1.14h.41v3.15h-.34l-1.83-2.53v2.53h-.41V1.14h.45l1.73,2.41Z"/><path class="cls-10" d="M32.47,2.72c0-.97,.67-1.64,1.54-1.64s1.41,.5,1.46,1.3l-.42,.03c-.04-.58-.41-.96-1.04-.96s-1.1,.49-1.1,1.27,.46,1.27,1.14,1.27c.59,0,.97-.37,1.03-.91h-.96v-.34h1.36v1.56h-.4v-.56c-.14,.4-.58,.62-1.08,.62-.89,0-1.54-.66-1.54-1.64Z"/></g><g><path class="cls-10" d="M77.68,4.29h-2.25V1.14h2.2v.36h-1.78v.99h1.42v.36h-1.42v1.09h1.83v.36Z"/><path class="cls-10" d="M79.69,1.14l1.31,3.15h-.46l-.38-.93h-1.44l-.37,.93h-.43l1.29-3.15h.47Zm-.83,1.88h1.16l-.58-1.4h-.02l-.57,1.4Z"/><path class="cls-10" d="M81.53,3.14c.03,.58,.42,.87,.95,.87,.47,0,.77-.2,.77-.55,0-.29-.19-.43-.6-.51l-.62-.12c-.47-.09-.79-.34-.79-.83,0-.55,.44-.93,1.13-.93,.79,0,1.25,.42,1.25,1.13l-.39,.02c-.02-.52-.33-.82-.85-.82-.46,0-.71,.21-.71,.57,0,.31,.21,.41,.57,.48l.57,.11c.58,.11,.87,.36,.87,.87,0,.58-.5,.92-1.18,.92-.78,0-1.34-.42-1.34-1.19l.39-.03Z"/><path class="cls-10" d="M84.92,4.29V1.5h-1.15v-.36h2.74v.36h-1.17v2.79h-.43Z"/><path class="cls-10" d="M89.16,4.29h-1.34V1.14h1.29c.78,0,1.1,.34,1.1,.84,0,.37-.26,.62-.6,.68,.39,.07,.69,.32,.69,.77,0,.55-.4,.87-1.14,.87Zm-.92-1.79h.88c.46,0,.65-.2,.65-.5s-.19-.51-.65-.51h-.88v1.01Zm0,.34v1.1h.91c.47,0,.72-.21,.72-.55s-.25-.55-.72-.55h-.91Z"/><path class="cls-10" d="M90.74,3.09V1.14h.43v1.95c0,.6,.3,.9,.85,.9s.86-.29,.86-.89V1.14h.42v1.95c0,.92-.57,1.27-1.28,1.27s-1.28-.34-1.28-1.27Z"/><path class="cls-10" d="M94.29,1.14v3.15h-.43V1.14h.43Z"/><path class="cls-10" d="M95.34,1.14V3.93h1.76v.36h-2.19V1.14h.43Z"/><path class="cls-10" d="M97.52,1.14h1.14c.99,0,1.62,.59,1.62,1.58s-.63,1.58-1.62,1.58h-1.14V1.14Zm1.12,2.8c.77,0,1.19-.46,1.19-1.22s-.42-1.22-1.19-1.22h-.68V3.94h.68Z"/><path class="cls-10" d="M101.17,1.14v3.15h-.44V1.14h.44Z"/><path class="cls-10" d="M103.96,3.55V1.14h.41v3.15h-.35l-1.83-2.53v2.53h-.41V1.14h.45l1.73,2.41Z"/><path class="cls-10" d="M104.83,2.72c0-.97,.67-1.64,1.54-1.64s1.41,.5,1.46,1.3l-.42,.03c-.04-.58-.41-.96-1.04-.96s-1.1,.49-1.1,1.27,.46,1.27,1.14,1.27c.59,0,.97-.37,1.03-.91h-.96v-.34h1.36v1.56h-.4v-.56c-.14,.4-.58,.62-1.08,.62-.89,0-1.54-.66-1.54-1.64Z"/></g></g></g></g></svg>