<?xml version="1.0" encoding="UTF-8"?><svg xmlns="http://www.w3.org/2000/svg" xmlns:xlink="http://www.w3.org/1999/xlink" viewBox="0 0 113.04 100.55"><defs><style>.cls-1{isolation:isolate;}.cls-2{stroke:#ebebec;}.cls-2,.cls-3{stroke-width:.31px;}.cls-2,.cls-3,.cls-4,.cls-5{fill:none;}.cls-2,.cls-3,.cls-5{stroke-linecap:round;stroke-linejoin:round;}.cls-3,.cls-5{stroke:#000;}.cls-6{fill:#f1b784;fill-rule:evenodd;}.cls-7{clip-path:url(#clippath);}.cls-8{clip-path:url(#clippath-3);}.cls-9{clip-path:url(#clippath-5);}.cls-10{fill:#333132;}.cls-5{stroke-width:.47px;}</style><clipPath id="clippath"><rect class="cls-4" x="-483.35" y="-648.46" width="612" height="792"/></clipPath><clipPath id="clippath-3"><rect class="cls-4" x="-9.59" y="-245.26" width="138.24" height="388.8"/></clipPath><clipPath id="clippath-5"><rect class="cls-4" x="-467.51" y="-560.65" width="456.72" height="655.38"/></clipPath><clipPath id="clippath-7"><rect class="cls-4" x="-483.35" y="-648.46" width="612" height="792"/></clipPath></defs><g class="cls-1"><g id="Layer_1"><g class="cls-7"><polygon class="cls-6" points="70.69 28.42 64.19 28.42 64.19 29.45 62.2 29.45 62.2 35.91 62.16 42.71 66.18 42.71 66.18 42.16 70.69 42.16 70.69 37.02 71.23 37.02 71.23 31.66 70.69 31.66 70.69 28.42"/><polygon class="cls-2" points="70.69 28.42 64.19 28.42 64.19 29.45 62.2 29.45 62.2 35.91 62.16 42.71 66.18 42.71 66.18 42.16 70.69 42.16 70.69 37.02 71.23 37.02 71.23 31.66 70.69 31.66 70.69 28.42"/><polygon class="cls-6" points="70.69 25.18 71.23 25.18 71.23 19.82 70.69 19.82 70.69 14.68 66.18 14.68 66.18 14.14 62.03 14.14 62.03 14.68 62.16 14.68 62.16 27.39 64.19 27.39 64.19 28.42 70.69 28.42 70.69 25.18"/><polygon class="cls-2" points="70.69 25.18 71.23 25.18 71.23 19.82 70.69 19.82 70.69 14.68 66.18 14.68 66.18 14.14 62.03 14.14 62.03 14.68 62.16 14.68 62.16 27.39 64.19 27.39 64.19 28.42 70.69 28.42 70.69 25.18"/><line class="cls-3" x1="33.47" y1="32.69" x2="33.47" y2="29.45"/><polyline class="cls-3" points="36.93 32.69 33.47 29.45 30.01 32.69"/><polyline class="cls-3" points="36.93 29.45 33.47 32.69 30.01 29.45"/><line class="cls-3" x1="91.33" y1="65.56" x2="94.04" y2="64.58"/><polyline class="cls-3" points="92.53 68.85 94.04 64.58 90.13 62.28"/><polyline class="cls-3" points="95.24 67.87 91.33 65.56 92.84 61.29"/><polyline class="cls-3" points="89.39 55.89 88.75 54.11 88.75 18.76 106.55 18.76 106.55 44.1"/><polyline class="cls-3" points="106.55 44.71 106.55 45.02 99.62 47.54 101.11 51.62"/><polyline class="cls-3" points="2.9 20.1 1.75 20.1 1.75 12.55 8.6 12.55 8.6 14.14"/><polyline class="cls-3" points="15.62 14.14 15.62 12.55 19.99 12.55 19.99 14.14"/><polyline class="cls-3" points="26.19 14.14 26.19 12.55 32.69 12.55 32.69 14.14"/><line class="cls-3" x1="29.44" y1="12.55" x2="29.44" y2="14.68"/><polyline class="cls-3" points="37.1 14.14 37.1 12.55 43.59 12.55 43.59 14.14"/><polyline class="cls-3" points="48 14.14 48 12.55 54.5 12.55 54.5 14.14"/><line class="cls-3" x1="51.25" y1="14.68" x2="51.25" y2="12.55"/><polyline class="cls-3" points="58.88 14.14 58.88 12.55 62.21 12.55 62.21 14.14"/><polyline class="cls-3" points="65.9 14.14 65.9 12.55 72.75 12.55 72.75 20.1 71.23 20.1"/><polyline class="cls-3" points="71.23 36.74 72.75 36.74 72.75 44.29 65.9 44.29 65.9 42.71"/><polyline class="cls-3" points="58.56 42.71 58.56 44.29 50.11 44.29 50.11 42.71"/><line class="cls-3" x1="53.34" y1="42.16" x2="53.34" y2="44.29"/><polyline class="cls-3" points="45.68 42.71 45.68 44.29 39.19 44.29 39.19 42.71"/><line class="cls-3" x1="42.44" y1="42.16" x2="42.44" y2="44.29"/><polyline class="cls-3" points="33.26 42.71 33.26 44.29 28.27 44.29 28.27 42.71"/><polyline class="cls-3" points="22.29 42.71 22.29 44.29 18.96 44.29 18.96 42.72"/><polyline class="cls-3" points="15.7 40.64 15.7 42.22 12.2 42.22 12.2 40.09"/><polyline class="cls-3" points="15.4 25.77 13.85 25.77 13.85 20.92"/><line class="cls-3" x1="13.85" y1="25.42" x2="12.31" y2="25.42"/><line class="cls-3" x1="12.31" y1="23.78" x2="13.85" y2="23.06"/><polyline class="cls-3" points="62.2 31.29 60.65 31.29 60.65 35.91"/><line class="cls-3" x1="59.11" y1="34.05" x2="60.65" y2="33.32"/><line class="cls-3" x1="59.11" y1="31.68" x2="60.65" y2="31.68"/><polyline class="cls-3" points="87.53 56.56 87.53 50.17 80.56 50.17 80.56 44.71 78.71 44.71 78.71 44.1 80.56 44.1 80.56 36.28 80.56 30.34 80.56 25.01 80.56 22.17 80.56 12.97 101.11 12.97 101.11 13.51 108.59 13.51 108.59 18.02 109.13 18.02 109.13 25.85 109.13 29.43 109.13 33.44 109.13 36.28 109.13 44.1 111.38 44.1 111.38 44.71 109.13 44.71 109.13 50.17 103.08 50.17 103.08 50.96"/><polyline class="cls-3" points="58.01 96.17 58.31 97.01 51.81 99.38 49.83 93.94 51.32 93.4"/><polyline class="cls-3" points="50 76.58 48.45 77.14 45.87 70.04 52.3 67.7 52.84 69.19"/><polyline class="cls-3" points="59.59 66.73 59.05 65.25 63.16 63.75 63.7 65.24"/><polyline class="cls-3" points="69.49 63.13 68.95 61.64 75.06 59.42 75.6 60.91"/><line class="cls-3" x1="72" y1="60.53" x2="72.73" y2="62.53"/><polyline class="cls-3" points="79.74 59.4 79.2 57.91 85.31 55.69 85.85 57.18"/><line class="cls-3" x1="82.25" y1="56.8" x2="82.98" y2="58.8"/><polyline class="cls-3" points="106.8 61.19 108.29 60.65 110.01 65.37 108.49 65.92"/><polyline class="cls-3" points="67.23 92.81 67.53 93.66 63.65 95.07 63.34 94.23"/><line class="cls-3" x1="98.41" y1="64.66" x2="96.93" y2="65.21"/><polyline class="cls-3" points="99.83 63.96 98.35 64.5 99.32 67.17 97.85 67.71"/><line class="cls-3" x1="99.26" y1="67.01" x2="100.74" y2="66.47"/><polyline class="cls-3" points="61.68 73.71 60.33 74.2 61.81 78.27 63.29 77.73"/><line class="cls-3" x1="60.21" y1="78.5" x2="61.7" y2="77.96"/><line class="cls-3" x1="60.89" y1="75.74" x2="59.66" y2="76.97"/><polyline class="cls-3" points="99.14 31.71 97.46 31.71 97.46 28.04 95.78 28.04"/><line class="cls-3" x1="99.14" y1="28.64" x2="97.46" y2="28.64"/><line class="cls-3" x1="95.78" y1="31.38" x2="97.46" y2="31.38"/><rect class="cls-3" x="105.42" y="44.1" width="5.97" height=".61"/><rect class="cls-3" x="78.71" y="44.1" width="5.55" height=".61"/><polyline class="cls-3" points="107.91 69.51 109.42 68.96 111.57 74.86 105.27 77.15 104.96 76.28"/><polyline class="cls-3" points="93.6 80.77 97.18 79.47 97.06 79.15"/><line class="cls-3" x1="82.16" y1="84.94" x2="85.49" y2="83.72"/><polyline class="cls-3" points="74.3 87.83 74.49 88.35 70.92 89.65"/><polygon class="cls-3" points="2.9 20.27 2.9 19.81 3.45 19.81 3.45 14.68 8.32 14.68 8.32 14.14 15.9 14.14 15.9 14.68 19.71 14.68 19.71 14.14 26.44 14.14 26.44 14.68 32.38 14.68 32.38 14.14 37.35 14.14 37.35 14.68 43.28 14.68 43.28 14.14 48.25 14.14 48.25 14.68 54.19 14.68 54.19 14.14 59.16 14.14 59.16 14.68 62.03 14.68 62.03 14.14 66.18 14.14 66.18 14.68 70.69 14.68 70.69 19.82 71.23 19.82 71.23 25.18 70.69 25.18 70.69 31.66 71.23 31.66 71.23 37.02 70.69 37.02 70.69 42.16 66.18 42.16 66.18 42.71 58.28 42.71 58.28 42.16 50.39 42.16 50.39 42.71 45.44 42.71 45.44 42.16 39.5 42.16 39.5 42.71 32.98 42.71 32.98 42.16 28.55 42.16 28.55 42.71 22 42.71 22 42.16 19.37 42.16 19.37 42.72 18.91 42.72 18.91 40.63 15.42 40.63 15.42 40.09 10.74 40.09 10.74 37.12 10.19 37.12 10.19 35.49 7.08 35.49 7.08 30.98 3.81 30.98 3.81 20.27 2.9 20.27"/><rect class="cls-3" x="10.32" y="27.39" width="53.87" height="2.06"/><line class="cls-3" x1="10.32" y1="28.42" x2="3.81" y2="28.42"/><polyline class="cls-3" points="19.04 29.45 19.04 40.64 18.91 40.64"/><line class="cls-3" x1="24.49" y1="29.45" x2="24.49" y2="42.71"/><polyline class="cls-3" points="30.01 29.45 30.01 32.69 36.93 32.69 36.93 29.45"/><polyline class="cls-3" points="36.98 42.71 36.98 32.69 36.93 32.69"/><line class="cls-3" x1="42.44" y1="42.16" x2="42.44" y2="29.45"/><line class="cls-3" x1="47.89" y1="42.71" x2="47.89" y2="29.45"/><line class="cls-3" x1="53.34" y1="42.16" x2="53.34" y2="30.54"/><polyline class="cls-3" points="53.29 29.53 53.29 30.54 55.95 30.54 55.95 29.45"/><polyline class="cls-3" points="59.11 29.45 59.11 35.91 62.2 35.91 62.2 29.45"/><line class="cls-3" x1="62.16" y1="42.71" x2="62.16" y2="35.91"/><line class="cls-3" x1="70.69" y1="28.42" x2="64.19" y2="28.42"/><polyline class="cls-3" points="62.16 27.39 62.16 14.68 62.03 14.68"/><line class="cls-3" x1="56.71" y1="27.39" x2="56.71" y2="14.13"/><line class="cls-3" x1="51.25" y1="27.39" x2="51.25" y2="14.68"/><line class="cls-3" x1="45.8" y1="27.39" x2="45.8" y2="14.13"/><line class="cls-3" x1="40.35" y1="27.39" x2="40.35" y2="14.68"/><line class="cls-3" x1="34.89" y1="27.39" x2="34.89" y2="14.13"/><line class="cls-3" x1="29.44" y1="27.39" x2="29.44" y2="14.68"/><line class="cls-3" x1="23.98" y1="27.39" x2="23.98" y2="14.13"/><polyline class="cls-3" points="12.31 27.28 12.31 20.92 15.4 20.92 15.4 27.39"/><polyline class="cls-3" points="18.27 27.39 18.27 26.31 15.4 26.31"/><line class="cls-3" x1="12.34" y1="20.92" x2="12.34" y2="14.14"/><polygon class="cls-3" points="103.06 50.91 106.9 61.46 106.39 61.64 107.88 65.74 108.36 65.56 108.5 65.95 106.83 66.56 107.99 69.75 107.47 69.94 109.02 74.21 105.01 75.67 105.2 76.19 96.83 79.24 96.32 77.86 92.99 79.08 93.61 80.8 85.5 83.75 84.88 82.03 81.54 83.24 82.17 84.96 74.06 87.91 73.43 86.19 70.09 87.41 71.5 91.24 66.96 92.88 66.34 91.2 62.98 92.42 63.6 94.13 57.74 96.27 57.56 95.75 53.32 97.3 51.93 93.47 51.41 93.66 49.97 89.7 52.24 88.88 50.82 84.99 52.8 84.27 49.9 76.31 50.41 76.13 48.65 71.29 52.76 69.8 52.58 69.29 59.83 66.65 60.01 67.16 63.6 65.86 63.41 65.34 69.75 63.03 69.94 63.55 75.52 61.52 75.33 61 80 59.3 80.19 59.82 85.77 57.78 85.59 57.27 103.06 50.91"/><polyline class="cls-3" points="95.24 67.87 92.84 61.29 90.14 62.27 92.53 68.85"/><polyline class="cls-3" points="95.42 61.09 98.51 69.51 96.42 70.28 96.21 69.7 57.62 83.75 56.91 81.82 95.24 67.87"/><rect class="cls-3" x="95.78" y="26.37" width="3.36" height="7.12"/><polyline class="cls-3" points="96.26 63.39 99.23 62.31 101.45 68.41 98.5 69.49"/><polyline class="cls-3" points="60.89 80.37 58.66 74.22 61.62 73.14 63.86 79.29"/><polyline class="cls-3" points="66.58 78.3 66.2 77.28 63.49 78.27"/><polyline class="cls-3" points="106.39 61.64 106.34 61.52 99.81 63.9"/><polyline class="cls-3" points="52.8 84.27 52.84 84.39 57.26 82.78"/><line class="cls-3" x1="56.48" y1="67.87" x2="58.78" y2="74.18"/><line class="cls-3" x1="67.42" y1="63.88" x2="71.95" y2="76.34"/><line class="cls-3" x1="72.73" y1="62.53" x2="77.08" y2="74.48"/><line class="cls-3" x1="77.67" y1="60.15" x2="82.2" y2="72.61"/><line class="cls-3" x1="82.98" y1="58.8" x2="87.33" y2="70.75"/><polyline class="cls-3" points="87.92 56.42 90.06 62.3 90.14 62.28"/><polyline class="cls-3" points="93.08 61.94 95.92 60.9 94.93 58.2 89.31 60.24"/><polyline class="cls-3" points="92.84 61.29 92.97 61.24 92.69 60.49 91.16 61.05 91.43 61.8"/><polyline class="cls-3" points="96.32 77.86 96.42 77.83 93.78 70.59"/><polyline class="cls-3" points="66.34 91.2 66.4 91.18 62.98 81.8"/><polyline class="cls-3" points="81.54 83.24 81.44 83.28 78.81 76.04"/><g class="cls-8"><rect class="cls-3" x="-311.09" y="-435.35" width="450.14" height="582.54"/></g><g><path class="cls-10" d="M87.26,93.97v3.91h2.46v.5h-3.07v-4.41h.61Z"/><path class="cls-10" d="M93.46,98.39h-3.15v-4.41h3.08v.5h-2.49v1.39h1.98v.5h-1.98v1.52h2.56v.5Z"/><path class="cls-10" d="M95.54,98.39l-1.77-4.41h.62l1.49,3.71h.03l1.45-3.71h.62l-1.78,4.41h-.66Z"/><path class="cls-10" d="M101.63,98.39h-3.15v-4.41h3.08v.5h-2.49v1.39h1.98v.5h-1.98v1.52h2.56v.5Z"/><path class="cls-10" d="M102.93,93.97v3.91h2.46v.5h-3.07v-4.41h.61Z"/><path class="cls-10" d="M107.59,96.35c.15-.51,.6-.9,1.32-.9,.95,0,1.55,.62,1.55,1.49,0,.91-.62,1.53-1.61,1.53-1.18,0-1.79-.85-1.79-2.21s.58-2.37,1.82-2.37c.88,0,1.46,.5,1.54,1.33l-.58,.02c-.08-.52-.37-.87-.97-.87-.9,0-1.28,.82-1.27,1.97Zm1.25,1.63c.65,0,1.04-.41,1.04-1.02s-.39-1.03-1.06-1.03-1.05,.41-1.05,1.03,.41,1.02,1.07,1.02Z"/></g><g class="cls-9"><rect class="cls-5" x="-475.2" y="-660.74" width="678.3" height="877.8"/></g><g><path class="cls-10" d="M6.6,3.96h.02l.65-2.62h.41l-.81,3.15h-.5l-.66-2.52h-.02l-.67,2.52h-.5l-.81-3.15h.42l.66,2.61h.02l.69-2.61h.41l.7,2.62Z"/><path class="cls-10" d="M10.28,4.49h-2.25V1.33h2.2v.36h-1.78v.99h1.42v.36h-1.42v1.09h1.83v.36Z"/><path class="cls-10" d="M10.92,3.34c.03,.58,.42,.87,.95,.87,.47,0,.77-.2,.77-.55,0-.29-.19-.43-.6-.51l-.62-.12c-.47-.09-.79-.34-.79-.83,0-.55,.44-.93,1.13-.93,.79,0,1.25,.42,1.25,1.13l-.39,.02c-.02-.52-.33-.82-.85-.82-.46,0-.71,.21-.71,.57,0,.31,.21,.41,.57,.48l.57,.11c.58,.11,.87,.36,.87,.87,0,.58-.5,.92-1.18,.92-.78,0-1.34-.42-1.34-1.19l.39-.03Z"/><path class="cls-10" d="M14.31,4.49V1.69h-1.15v-.36h2.74v.36h-1.17v2.79h-.43Z"/><path class="cls-10" d="M18.56,4.49h-1.34V1.33h1.29c.78,0,1.1,.34,1.1,.84,0,.37-.26,.62-.6,.68,.39,.07,.69,.32,.69,.77,0,.55-.4,.87-1.14,.87Zm-.92-1.79h.88c.46,0,.65-.2,.65-.5s-.2-.51-.65-.51h-.88v1.01Zm0,.34v1.1h.91c.47,0,.72-.21,.72-.55s-.25-.55-.72-.55h-.91Z"/><path class="cls-10" d="M20.13,3.28V1.33h.43v1.95c0,.6,.3,.9,.85,.9s.86-.29,.86-.89V1.33h.43v1.95c0,.92-.57,1.27-1.28,1.27s-1.28-.34-1.28-1.27Z"/><path class="cls-10" d="M23.69,1.33v3.15h-.44V1.33h.44Z"/><path class="cls-10" d="M24.73,1.33v2.79h1.76v.36h-2.19V1.33h.44Z"/><path class="cls-10" d="M26.92,1.33h1.14c.99,0,1.62,.59,1.62,1.58s-.62,1.58-1.62,1.58h-1.14V1.33Zm1.12,2.8c.77,0,1.19-.46,1.19-1.22s-.42-1.22-1.19-1.22h-.68v2.44h.68Z"/><path class="cls-10" d="M30.57,1.33v3.15h-.43V1.33h.43Z"/><path class="cls-10" d="M33.35,3.75V1.33h.41v3.15h-.34l-1.83-2.53v2.53h-.41V1.33h.45l1.73,2.41Z"/><path class="cls-10" d="M34.22,2.91c0-.97,.67-1.64,1.54-1.64s1.41,.5,1.46,1.3l-.42,.03c-.04-.58-.41-.96-1.04-.96s-1.1,.49-1.1,1.27,.46,1.27,1.14,1.27c.59,0,.97-.37,1.03-.91h-.96v-.34h1.36v1.56h-.4v-.56c-.14,.4-.58,.62-1.08,.62-.89,0-1.54-.66-1.54-1.64Z"/></g><g><path class="cls-10" d="M79.44,4.49h-2.25V1.33h2.2v.36h-1.78v.99h1.42v.36h-1.42v1.09h1.83v.36Z"/><path class="cls-10" d="M81.44,1.33l1.31,3.15h-.46l-.38-.93h-1.44l-.37,.93h-.43l1.29-3.15h.47Zm-.83,1.88h1.16l-.58-1.4h-.02l-.57,1.4Z"/><path class="cls-10" d="M83.28,3.34c.03,.58,.42,.87,.95,.87,.47,0,.77-.2,.77-.55,0-.29-.19-.43-.6-.51l-.62-.12c-.47-.09-.79-.34-.79-.83,0-.55,.44-.93,1.13-.93,.79,0,1.25,.42,1.25,1.13l-.39,.02c-.02-.52-.33-.82-.85-.82-.46,0-.71,.21-.71,.57,0,.31,.21,.41,.57,.48l.57,.11c.58,.11,.87,.36,.87,.87,0,.58-.5,.92-1.18,.92-.78,0-1.34-.42-1.34-1.19l.39-.03Z"/><path class="cls-10" d="M86.67,4.49V1.69h-1.15v-.36h2.74v.36h-1.17v2.79h-.43Z"/><path class="cls-10" d="M90.92,4.49h-1.34V1.33h1.29c.78,0,1.1,.34,1.1,.84,0,.37-.26,.62-.6,.68,.39,.07,.69,.32,.69,.77,0,.55-.4,.87-1.14,.87Zm-.92-1.79h.88c.46,0,.65-.2,.65-.5s-.19-.51-.65-.51h-.88v1.01Zm0,.34v1.1h.91c.47,0,.72-.21,.72-.55s-.25-.55-.72-.55h-.91Z"/><path class="cls-10" d="M92.49,3.28V1.33h.43v1.95c0,.6,.3,.9,.85,.9s.86-.29,.86-.89V1.33h.42v1.95c0,.92-.57,1.27-1.28,1.27s-1.28-.34-1.28-1.27Z"/><path class="cls-10" d="M96.05,1.33v3.15h-.43V1.33h.43Z"/><path class="cls-10" d="M97.09,1.33v2.79h1.76v.36h-2.19V1.33h.43Z"/><path class="cls-10" d="M99.28,1.33h1.14c.99,0,1.62,.59,1.62,1.58s-.63,1.58-1.62,1.58h-1.14V1.33Zm1.12,2.8c.77,0,1.19-.46,1.19-1.22s-.42-1.22-1.19-1.22h-.68v2.44h.68Z"/><path class="cls-10" d="M102.93,1.33v3.15h-.44V1.33h.44Z"/><path class="cls-10" d="M105.71,3.75V1.33h.41v3.15h-.35l-1.83-2.53v2.53h-.41V1.33h.45l1.73,2.41Z"/><path class="cls-10" d="M106.58,2.91c0-.97,.67-1.64,1.54-1.64s1.41,.5,1.46,1.3l-.42,.03c-.04-.58-.41-.96-1.04-.96s-1.1,.49-1.1,1.27,.46,1.27,1.14,1.27c.59,0,.97-.37,1.03-.91h-.96v-.34h1.36v1.56h-.4v-.56c-.14,.4-.58,.62-1.08,.62-.89,0-1.54-.66-1.54-1.64Z"/></g></g></g></g></svg>