<?xml version="1.0" encoding="UTF-8"?><svg xmlns="http://www.w3.org/2000/svg" xmlns:xlink="http://www.w3.org/1999/xlink" viewBox="0 0 113.04 101.91"><defs><style>.cls-1{isolation:isolate;}.cls-2{stroke:#ebebec;}.cls-2,.cls-3{stroke-width:.31px;}.cls-2,.cls-3,.cls-4,.cls-5{fill:none;}.cls-2,.cls-3,.cls-5{stroke-linecap:round;stroke-linejoin:round;}.cls-3,.cls-5{stroke:#000;}.cls-6{fill:#f1b784;fill-rule:evenodd;}.cls-7{clip-path:url(#clippath);}.cls-8{clip-path:url(#clippath-3);}.cls-9{clip-path:url(#clippath-5);}.cls-10{fill:#333132;}.cls-5{stroke-width:.47px;}</style><clipPath id="clippath"><rect class="cls-4" x="-483.35" y="-538.99" width="612" height="792"/></clipPath><clipPath id="clippath-3"><rect class="cls-4" x="-9.59" y="-135.79" width="138.24" height="388.8"/></clipPath><clipPath id="clippath-5"><rect class="cls-4" x="-467.51" y="-451.18" width="456.72" height="655.38"/></clipPath><clipPath id="clippath-7"><rect class="cls-4" x="-483.35" y="-538.99" width="612" height="792"/></clipPath></defs><g class="cls-1"><g id="Layer_1"><g class="cls-7"><polygon class="cls-6" points="108.35 14.64 103.18 14.64 103.18 14.09 97.86 14.09 97.86 14.64 94.61 14.64 94.61 21.14 95.64 21.14 95.64 23.16 108.9 23.16 108.9 19.14 108.35 19.14 108.35 14.64"/><polygon class="cls-2" points="108.35 14.64 103.18 14.64 103.18 14.09 97.86 14.09 97.86 14.64 94.61 14.64 94.61 21.14 95.64 21.14 95.64 23.16 108.9 23.16 108.9 19.14 108.35 19.14 108.35 14.64"/><polygon class="cls-6" points="94.61 14.64 91.36 14.64 91.36 14.09 86.01 14.09 86.01 14.64 80.87 14.64 80.87 19.14 80.32 19.14 80.32 23.29 80.87 23.29 80.87 23.16 92.5 23.16 92.5 23.11 93.58 23.11 93.58 21.14 94.61 21.14 94.61 14.64"/><polygon class="cls-2" points="94.61 14.64 91.36 14.64 91.36 14.09 86.01 14.09 86.01 14.64 80.87 14.64 80.87 19.14 80.32 19.14 80.32 23.29 80.87 23.29 80.87 23.16 92.5 23.16 92.5 23.11 93.58 23.11 93.58 21.14 94.61 21.14 94.61 14.64"/><polygon class="cls-6" points="70.45 29.55 63.95 29.55 63.95 30.58 61.96 30.58 61.96 37.04 61.93 43.83 65.94 43.83 65.94 43.29 70.45 43.29 70.45 38.15 71 38.15 71 32.79 70.45 32.79 70.45 29.55"/><polygon class="cls-2" points="70.45 29.55 63.95 29.55 63.95 30.58 61.96 30.58 61.96 37.04 61.93 43.83 65.95 43.83 65.95 43.29 70.45 43.29 70.45 38.15 71 38.15 71 32.79 70.45 32.79 70.45 29.55"/><polygon class="cls-6" points="70.45 26.31 71 26.31 71 20.95 70.45 20.95 70.45 15.81 65.94 15.81 65.94 15.26 61.79 15.26 61.79 15.81 61.93 15.81 61.93 28.52 63.95 28.52 63.95 29.55 70.45 29.55 70.45 26.31"/><polygon class="cls-2" points="70.45 26.31 71 26.31 71 20.95 70.45 20.95 70.45 15.81 65.95 15.81 65.95 15.26 61.79 15.26 61.79 15.81 61.93 15.81 61.93 28.52 63.95 28.52 63.95 29.55 70.45 29.55 70.45 26.31"/><line class="cls-3" x1="33.24" y1="33.82" x2="33.24" y2="30.58"/><polyline class="cls-3" points="36.69 33.82 33.24 30.58 29.78 33.82"/><polyline class="cls-3" points="36.69 30.58 33.24 33.82 29.78 30.58"/><line class="cls-3" x1="91.1" y1="66.69" x2="93.81" y2="65.7"/><polyline class="cls-3" points="92.29 69.98 93.81 65.7 89.9 63.4"/><polyline class="cls-3" points="95 68.99 91.1 66.69 92.61 62.42"/><polyline class="cls-3" points="2.67 21.23 1.52 21.23 1.52 13.68 8.37 13.68 8.37 15.26"/><polyline class="cls-3" points="15.39 15.26 15.39 13.68 19.76 13.68 19.76 15.26"/><polyline class="cls-3" points="25.95 15.26 25.95 13.68 32.45 13.68 32.45 15.26"/><line class="cls-3" x1="29.2" y1="13.68" x2="29.2" y2="15.81"/><polyline class="cls-3" points="71 37.87 72.51 37.87 72.51 45.42 65.67 45.42 65.67 43.83"/><polyline class="cls-3" points="58.33 43.83 58.33 45.42 49.88 45.42 49.88 43.83"/><line class="cls-3" x1="53.11" y1="43.29" x2="53.11" y2="45.42"/><polyline class="cls-3" points="45.45 43.83 45.45 45.42 38.95 45.42 38.95 43.83"/><line class="cls-3" x1="42.2" y1="43.29" x2="42.2" y2="45.42"/><polyline class="cls-3" points="33.03 43.83 33.03 45.42 28.04 45.42 28.04 43.83"/><polyline class="cls-3" points="22.05 43.83 22.05 45.42 18.73 45.42 18.73 43.84"/><polyline class="cls-3" points="15.47 41.76 15.47 43.34 11.97 43.34 11.97 41.22"/><polyline class="cls-3" points="15.16 26.89 13.62 26.89 13.62 22.04"/><line class="cls-3" x1="13.62" y1="26.54" x2="12.07" y2="26.54"/><line class="cls-3" x1="12.07" y1="24.91" x2="13.62" y2="24.19"/><polyline class="cls-3" points="61.96 32.41 60.42 32.41 60.42 37.04"/><line class="cls-3" x1="58.87" y1="35.17" x2="60.42" y2="34.45"/><line class="cls-3" x1="58.87" y1="32.81" x2="60.42" y2="32.81"/><polyline class="cls-3" points="57.77 97.3 58.08 98.14 51.58 100.51 49.59 95.06 51.08 94.52"/><polyline class="cls-3" points="49.76 77.7 48.22 78.27 45.63 71.17 52.07 68.83 52.61 70.32"/><polyline class="cls-3" points="59.36 67.86 58.82 66.37 62.92 64.88 63.47 66.36"/><polyline class="cls-3" points="69.26 64.26 68.72 62.77 74.82 60.55 75.36 62.03"/><line class="cls-3" x1="71.77" y1="61.66" x2="72.5" y2="63.66"/><polyline class="cls-3" points="79.51 60.52 78.97 59.04 85.07 56.81 85.61 58.3"/><line class="cls-3" x1="82.02" y1="57.93" x2="82.75" y2="59.93"/><polyline class="cls-3" points="80.32 48.88 78.74 48.88 78.74 45.83"/><polyline class="cls-3" points="80.32 42.18 78.74 42.18 78.74 45.22"/><polyline class="cls-3" points="80.32 37.69 78.74 37.69 78.74 31.19 80.32 31.19"/><line class="cls-3" x1="78.74" y1="34.44" x2="80.87" y2="34.44"/><polyline class="cls-3" points="108.9 26.69 110.48 26.69 110.48 30.84 108.9 30.84"/><polyline class="cls-3" points="108.9 34.29 110.48 34.29 110.48 37.69 108.9 37.69"/><polyline class="cls-3" points="108.9 42.18 110.48 42.18 110.48 45.22"/><polyline class="cls-3" points="110.48 45.83 110.48 48.88 108.9 48.88"/><polyline class="cls-3" points="106.57 62.32 108.06 61.78 109.77 66.5 108.26 67.05"/><polyline class="cls-3" points="107.67 70.64 109.18 70.09 111.56 76.63 105.27 78.92 104.72 77.4"/><polyline class="cls-3" points="66.92 93.95 67.24 94.81 63.41 96.2 63.11 95.35"/><line class="cls-3" x1="95.64" y1="45.53" x2="92.97" y2="45.53"/><line class="cls-3" x1="98.17" y1="65.79" x2="96.69" y2="66.33"/><polyline class="cls-3" points="99.6 65.09 98.12 65.63 99.09 68.29 97.61 68.83"/><line class="cls-3" x1="99.03" y1="68.13" x2="100.51" y2="67.59"/><polyline class="cls-3" points="61.44 74.84 60.09 75.33 61.58 79.4 63.06 78.86"/><line class="cls-3" x1="59.98" y1="79.62" x2="61.46" y2="79.08"/><line class="cls-3" x1="60.65" y1="76.87" x2="59.42" y2="78.1"/><polyline class="cls-3" points="98.8 32.84 97.22 32.84 97.22 29.84 95.64 29.84"/><line class="cls-3" x1="98.8" y1="30.17" x2="97.22" y2="30.17"/><line class="cls-3" x1="95.64" y1="32.5" x2="97.22" y2="32.5"/><line class="cls-3" x1="40.11" y1="15.81" x2="40.11" y2="13.68"/><polyline class="cls-3" points="93.37 81.9 96.94 80.59 96.83 80.28"/><line class="cls-3" x1="81.92" y1="86.06" x2="85.26" y2="84.85"/><polyline class="cls-3" points="74.06 88.95 74.25 89.48 70.69 90.78"/><polyline class="cls-3" points="102.93 14.09 102.93 12.51 110.48 12.51 110.48 19.42 108.9 19.42"/><polyline class="cls-3" points="80.32 19.42 78.74 19.42 78.74 12.51 86.29 12.51 86.29 14.09"/><polyline class="cls-3" points="80.32 23.01 78.74 23.01 78.74 26.41 80.32 26.41"/><polyline class="cls-3" points="36.86 15.26 36.86 13.68 43.36 13.68 43.36 15.26"/><line class="cls-3" x1="51.02" y1="15.81" x2="51.02" y2="13.68"/><polyline class="cls-3" points="47.77 15.26 47.77 13.68 54.27 13.68 54.27 15.26"/><polyline class="cls-3" points="58.65 15.26 58.65 13.68 62.07 13.68 62.07 15.26"/><polyline class="cls-3" points="65.67 15.26 65.67 13.68 72.51 13.68 72.51 21.23 71 21.23"/><polygon class="cls-3" points="2.67 21.4 2.67 20.93 3.22 20.93 3.22 15.81 8.09 15.81 8.09 15.26 15.67 15.26 15.67 15.81 19.48 15.81 19.48 15.26 26.2 15.26 26.2 15.81 32.14 15.81 32.14 15.26 37.11 15.26 37.11 15.81 43.05 15.81 43.05 15.26 48.02 15.26 48.02 15.81 53.96 15.81 53.96 15.26 58.93 15.26 58.93 15.81 61.79 15.81 61.79 15.26 65.95 15.26 65.95 15.81 70.45 15.81 70.45 20.95 71 20.95 71 26.31 70.45 26.31 70.45 32.79 71 32.79 71 38.15 70.45 38.15 70.45 43.29 65.95 43.29 65.95 43.83 58.05 43.83 58.05 43.29 50.16 43.29 50.16 43.83 45.2 43.83 45.2 43.29 39.26 43.29 39.26 43.83 32.75 43.83 32.75 43.29 28.32 43.29 28.32 43.83 21.77 43.83 21.77 43.29 19.14 43.29 19.14 43.84 18.67 43.84 18.67 41.76 15.19 41.76 15.19 41.22 10.5 41.22 10.5 38.25 9.96 38.25 9.96 36.62 6.84 36.62 6.84 32.11 3.58 32.11 3.58 21.4 2.67 21.4"/><rect class="cls-3" x="10.08" y="28.52" width="53.87" height="2.06"/><line class="cls-3" x1="10.08" y1="29.55" x2="3.58" y2="29.55"/><polyline class="cls-3" points="18.8 30.58 18.8 41.76 18.67 41.76"/><line class="cls-3" x1="24.26" y1="30.58" x2="24.26" y2="43.83"/><polyline class="cls-3" points="29.78 30.58 29.78 33.82 36.69 33.82 36.69 30.58"/><polyline class="cls-3" points="36.75 43.83 36.75 33.82 36.69 33.82"/><line class="cls-3" x1="42.2" y1="43.29" x2="42.2" y2="30.58"/><line class="cls-3" x1="47.66" y1="43.83" x2="47.66" y2="30.58"/><line class="cls-3" x1="53.11" y1="43.29" x2="53.11" y2="31.66"/><polyline class="cls-3" points="53.06 30.66 53.06 31.66 55.72 31.66 55.72 30.58"/><polyline class="cls-3" points="58.87 30.58 58.87 37.04 61.97 37.04 61.97 30.58"/><line class="cls-3" x1="61.93" y1="43.83" x2="61.93" y2="37.04"/><line class="cls-3" x1="70.45" y1="29.55" x2="63.95" y2="29.55"/><polyline class="cls-3" points="61.93 28.52 61.93 15.81 61.79 15.81"/><line class="cls-3" x1="56.47" y1="28.52" x2="56.47" y2="15.26"/><line class="cls-3" x1="51.02" y1="28.52" x2="51.02" y2="15.81"/><line class="cls-3" x1="45.57" y1="28.52" x2="45.57" y2="15.26"/><line class="cls-3" x1="40.11" y1="28.52" x2="40.11" y2="15.81"/><line class="cls-3" x1="34.66" y1="28.52" x2="34.66" y2="15.26"/><line class="cls-3" x1="29.2" y1="28.52" x2="29.2" y2="15.81"/><line class="cls-3" x1="23.75" y1="28.52" x2="23.75" y2="15.26"/><polyline class="cls-3" points="12.07 28.41 12.07 22.04 15.16 22.04 15.16 28.52"/><polyline class="cls-3" points="18.03 28.52 18.03 27.43 15.16 27.43"/><line class="cls-3" x1="12.11" y1="22.04" x2="12.11" y2="15.26"/><polygon class="cls-3" points="80.87 14.64 86.01 14.64 86.01 14.09 91.36 14.09 91.36 14.64 97.86 14.64 97.86 14.09 103.18 14.09 103.18 14.64 108.35 14.64 108.35 19.14 108.9 19.14 108.9 26.97 108.35 26.97 108.35 30.56 108.9 30.56 108.9 34.57 108.35 34.57 108.35 37.41 108.9 37.41 108.9 42.46 108.35 42.46 108.35 45.22 111.15 45.22 111.15 45.83 108.35 45.83 108.35 48.6 108.9 48.6 108.9 51.3 102.85 51.3 102.85 52.1 102.85 52.11 106.67 62.58 106.15 62.77 107.64 66.86 108.13 66.69 108.27 67.07 106.59 67.68 107.76 70.88 107.24 71.07 108.79 75.33 104.77 76.79 104.96 77.32 96.59 80.36 96.09 78.99 92.75 80.2 93.38 81.92 85.27 84.87 84.64 83.15 81.3 84.37 81.93 86.09 73.82 89.04 73.2 87.32 69.87 88.53 71.27 92.37 66.69 94.03 66.07 92.34 62.75 93.55 63.37 95.26 57.51 97.39 57.32 96.88 53.08 98.42 51.69 94.6 51.18 94.79 49.74 90.83 52.01 90 50.59 86.12 52.56 85.4 49.67 77.44 50.18 77.25 48.42 72.42 52.53 70.92 52.34 70.41 59.59 67.77 59.78 68.29 63.36 66.98 63.17 66.47 69.52 64.16 69.71 64.67 75.29 62.64 75.1 62.13 79.77 60.43 79.96 60.94 85.54 58.91 85.35 58.4 87.3 57.69 87.3 51.3 80.32 51.3 80.32 48.6 80.87 48.6 80.87 45.83 78.48 45.83 78.48 45.22 80.87 45.22 80.87 42.46 80.32 42.46 80.32 37.41 80.87 37.41 80.87 31.47 80.32 31.47 80.32 26.13 80.87 26.13 80.87 23.29 80.32 23.29 80.32 19.14 80.87 19.14 80.87 14.64"/><polyline class="cls-3" points="95 68.99 92.61 62.42 89.9 63.4 92.29 69.98"/><polyline class="cls-3" points="90.29 63.26 90.29 62.16 92.21 62.16 92.34 62.51"/><polyline class="cls-3" points="92.61 62.42 92.56 62.27 93.58 61.9 93.58 48.34 93.33 48.2 92.97 47.99 92.97 43.05 93.58 42.7 93.58 21.14 95.64 21.14 95.64 63.46 98.27 70.64 96.6 71.25 96.4 70.68 57.38 84.88 56.68 82.94 95 68.99"/><polyline class="cls-3" points="93.58 59.11 92.44 59.11 92.44 62.16 92.21 62.16"/><polyline class="cls-3" points="93.58 23.11 92.5 23.11 92.5 25.84 93.58 25.84"/><polyline class="cls-3" points="95.64 28 98.8 28 98.8 34.44 95.64 34.44"/><polyline class="cls-3" points="96.03 64.52 99 63.44 101.22 69.54 98.26 70.61"/><polyline class="cls-3" points="60.66 81.49 58.42 75.35 61.39 74.27 63.62 80.41"/><polyline class="cls-3" points="66.34 79.42 65.97 78.41 63.25 79.4"/><line class="cls-3" x1="94.61" y1="21.14" x2="94.61" y2="14.64"/><line class="cls-3" x1="95.64" y1="23.16" x2="108.9" y2="23.16"/><polyline class="cls-3" points="108.35 34.57 108.35 34.44 98.8 34.44"/><line class="cls-3" x1="108.9" y1="39.89" x2="95.64" y2="39.89"/><line class="cls-3" x1="95.64" y1="45.53" x2="111.15" y2="45.53"/><line class="cls-3" x1="78.48" y1="45.53" x2="92.97" y2="45.53"/><polyline class="cls-3" points="95.64 58.85 101.35 58.85 104.84 57.58"/><polyline class="cls-3" points="106.6 67.68 106.55 67.56 101.22 69.53"/><polyline class="cls-3" points="62.75 93.55 62.63 93.59 59.21 84.21"/><polyline class="cls-3" points="52.56 85.4 52.61 85.52 57.03 83.91"/><line class="cls-3" x1="56.24" y1="68.99" x2="58.54" y2="75.3"/><line class="cls-3" x1="67.19" y1="65.01" x2="71.72" y2="77.47"/><line class="cls-3" x1="72.5" y1="63.66" x2="76.84" y2="75.6"/><line class="cls-3" x1="77.44" y1="61.28" x2="81.97" y2="73.74"/><line class="cls-3" x1="82.75" y1="59.93" x2="87.1" y2="71.87"/><polyline class="cls-3" points="87.3 57.69 87.43 57.69 87.43 58.59 90.34 58.59 90.34 62.16"/><line class="cls-3" x1="80.32" y1="39.89" x2="93.58" y2="39.89"/><line class="cls-3" x1="80.87" y1="34.44" x2="93.58" y2="34.44"/><line class="cls-3" x1="80.32" y1="28.98" x2="93.58" y2="28.98"/><polyline class="cls-3" points="80.87 23.29 80.87 23.16 92.5 23.16"/><polyline class="cls-3" points="73.2 87.32 73.29 87.28 70.66 80.05"/><polyline class="cls-3" points="84.64 83.15 84.74 83.12 82.1 75.88"/><polyline class="cls-3" points="96.09 78.99 96.19 78.95 93.55 71.71"/><g class="cls-8"><rect class="cls-3" x="-311.09" y="-325.87" width="450.14" height="582.54"/></g><g><path class="cls-10" d="M81.19,94.67v3.91h2.46v.5h-3.07v-4.41h.61Z"/><path class="cls-10" d="M87.39,99.09h-3.15v-4.41h3.08v.5h-2.49v1.39h1.98v.5h-1.98v1.52h2.56v.5Z"/><path class="cls-10" d="M89.46,99.09l-1.77-4.41h.62l1.49,3.71h.03l1.45-3.71h.62l-1.78,4.41h-.66Z"/><path class="cls-10" d="M95.55,99.09h-3.15v-4.41h3.08v.5h-2.49v1.39h1.98v.5h-1.98v1.52h2.56v.5Z"/><path class="cls-10" d="M96.85,94.67v3.91h2.46v.5h-3.07v-4.41h.61Z"/><path class="cls-10" d="M103.77,97.41h.76v.5h-.76v1.18h-.59v-1.18h-2.32v-.57l2.18-2.66h.74v2.74Zm-2.39,0h1.79v-2.19l-1.79,2.19Z"/><path class="cls-10" d="M104.97,97.04h1.61v.52h-1.61v-.52Z"/><path class="cls-10" d="M110.17,95.22h-2.12c0,.24-.11,1.14-.16,1.37,.2-.25,.56-.45,1.05-.45,1,0,1.52,.67,1.52,1.48,0,.92-.64,1.55-1.6,1.55-1.06,0-1.67-.67-1.62-1.65l.59,.05c0,.67,.36,1.11,1.05,1.11,.62,0,1-.41,1-1.06,0-.58-.38-1.01-1-1.01-.49,0-.81,.26-.97,.56l-.6-.04c.11-.61,.26-1.74,.28-2.46h2.58v.55Z"/></g><g class="cls-9"><rect class="cls-5" x="-475.2" y="-551.26" width="678.3" height="877.8"/></g><g><path class="cls-10" d="M6.6,3.64h.02l.65-2.62h.41l-.81,3.15h-.5l-.66-2.52h-.02l-.67,2.52h-.5l-.81-3.15h.42l.66,2.61h.02l.69-2.61h.41l.7,2.62Z"/><path class="cls-10" d="M10.28,4.17h-2.25V1.01h2.2v.36h-1.78v.99h1.42v.36h-1.42v1.09h1.83v.36Z"/><path class="cls-10" d="M10.92,3.01c.03,.58,.42,.87,.95,.87,.47,0,.77-.2,.77-.55,0-.29-.19-.43-.6-.51l-.62-.12c-.47-.09-.79-.34-.79-.83,0-.55,.44-.93,1.13-.93,.79,0,1.25,.42,1.25,1.13l-.39,.02c-.02-.52-.33-.82-.85-.82-.46,0-.71,.22-.71,.57,0,.31,.21,.41,.57,.48l.57,.11c.58,.11,.87,.36,.87,.87,0,.58-.5,.92-1.18,.92-.78,0-1.34-.43-1.34-1.19l.39-.03Z"/><path class="cls-10" d="M14.31,4.17V1.37h-1.15v-.36h2.74v.36h-1.17v2.79h-.43Z"/><path class="cls-10" d="M18.56,4.17h-1.34V1.01h1.29c.78,0,1.1,.34,1.1,.84,0,.37-.26,.62-.6,.68,.39,.07,.69,.32,.69,.77,0,.55-.4,.87-1.14,.87Zm-.92-1.79h.88c.46,0,.65-.2,.65-.5s-.2-.51-.65-.51h-.88v1.01Zm0,.34v1.1h.91c.47,0,.72-.21,.72-.54s-.25-.56-.72-.56h-.91Z"/><path class="cls-10" d="M20.13,2.96V1.01h.43v1.95c0,.6,.3,.9,.85,.9s.86-.29,.86-.89V1.01h.43v1.95c0,.92-.57,1.27-1.28,1.27s-1.28-.35-1.28-1.27Z"/><path class="cls-10" d="M23.69,1.01v3.15h-.44V1.01h.44Z"/><path class="cls-10" d="M24.73,1.01V3.8h1.76v.36h-2.19V1.01h.44Z"/><path class="cls-10" d="M26.92,1.01h1.14c.99,0,1.62,.59,1.62,1.58s-.62,1.58-1.62,1.58h-1.14V1.01Zm1.12,2.8c.77,0,1.19-.46,1.19-1.22s-.42-1.22-1.19-1.22h-.68V3.81h.68Z"/><path class="cls-10" d="M30.57,1.01v3.15h-.43V1.01h.43Z"/><path class="cls-10" d="M33.35,3.43V1.01h.41v3.15h-.34l-1.83-2.53v2.53h-.41V1.01h.45l1.73,2.41Z"/><path class="cls-10" d="M34.22,2.59c0-.97,.67-1.64,1.54-1.64s1.41,.5,1.46,1.3l-.42,.03c-.04-.58-.41-.96-1.04-.96s-1.1,.49-1.1,1.27,.46,1.27,1.14,1.27c.59,0,.97-.37,1.03-.91h-.96v-.34h1.36v1.56h-.4v-.56c-.14,.4-.58,.62-1.08,.62-.89,0-1.54-.66-1.54-1.64Z"/></g><g><path class="cls-10" d="M79.44,4.17h-2.25V1.01h2.2v.36h-1.78v.99h1.42v.36h-1.42v1.09h1.83v.36Z"/><path class="cls-10" d="M81.44,1.01l1.31,3.15h-.46l-.38-.93h-1.44l-.37,.93h-.43l1.29-3.15h.47Zm-.83,1.88h1.16l-.58-1.4h-.02l-.57,1.4Z"/><path class="cls-10" d="M83.28,3.01c.03,.58,.42,.87,.95,.87,.47,0,.77-.2,.77-.55,0-.29-.19-.43-.6-.51l-.62-.12c-.47-.09-.79-.34-.79-.83,0-.55,.44-.93,1.13-.93,.79,0,1.25,.42,1.25,1.13l-.39,.02c-.02-.52-.33-.82-.85-.82-.46,0-.71,.22-.71,.57,0,.31,.21,.41,.57,.48l.57,.11c.58,.11,.87,.36,.87,.87,0,.58-.5,.92-1.18,.92-.78,0-1.34-.43-1.34-1.19l.39-.03Z"/><path class="cls-10" d="M86.67,4.17V1.37h-1.15v-.36h2.74v.36h-1.17v2.79h-.43Z"/><path class="cls-10" d="M90.92,4.17h-1.34V1.01h1.29c.78,0,1.1,.34,1.1,.84,0,.37-.26,.62-.6,.68,.39,.07,.69,.32,.69,.77,0,.55-.4,.87-1.14,.87Zm-.92-1.79h.88c.46,0,.65-.2,.65-.5s-.19-.51-.65-.51h-.88v1.01Zm0,.34v1.1h.91c.47,0,.72-.21,.72-.54s-.25-.56-.72-.56h-.91Z"/><path class="cls-10" d="M92.49,2.96V1.01h.43v1.95c0,.6,.3,.9,.85,.9s.86-.29,.86-.89V1.01h.42v1.95c0,.92-.57,1.27-1.28,1.27s-1.28-.35-1.28-1.27Z"/><path class="cls-10" d="M96.05,1.01v3.15h-.43V1.01h.43Z"/><path class="cls-10" d="M97.09,1.01V3.8h1.76v.36h-2.19V1.01h.43Z"/><path class="cls-10" d="M99.28,1.01h1.14c.99,0,1.62,.59,1.62,1.58s-.63,1.58-1.62,1.58h-1.14V1.01Zm1.12,2.8c.77,0,1.19-.46,1.19-1.22s-.42-1.22-1.19-1.22h-.68V3.81h.68Z"/><path class="cls-10" d="M102.93,1.01v3.15h-.44V1.01h.44Z"/><path class="cls-10" d="M105.71,3.43V1.01h.41v3.15h-.35l-1.83-2.53v2.53h-.41V1.01h.45l1.73,2.41Z"/><path class="cls-10" d="M106.58,2.59c0-.97,.67-1.64,1.54-1.64s1.41,.5,1.46,1.3l-.42,.03c-.04-.58-.41-.96-1.04-.96s-1.1,.49-1.1,1.27,.46,1.27,1.14,1.27c.59,0,.97-.37,1.03-.91h-.96v-.34h1.36v1.56h-.4v-.56c-.14,.4-.58,.62-1.08,.62-.89,0-1.54-.66-1.54-1.64Z"/></g></g></g></g></svg>