<?xml version="1.0" encoding="UTF-8"?><svg xmlns="http://www.w3.org/2000/svg" xmlns:xlink="http://www.w3.org/1999/xlink" viewBox="0 0 113.04 100.48"><defs><style>.cls-1{isolation:isolate;}.cls-2{stroke:#ebebec;}.cls-2,.cls-3{stroke-width:.31px;}.cls-2,.cls-3,.cls-4,.cls-5{fill:none;}.cls-2,.cls-3,.cls-5{stroke-linecap:round;stroke-linejoin:round;}.cls-3,.cls-5{stroke:#000;}.cls-6{fill:#f1b784;fill-rule:evenodd;}.cls-7{clip-path:url(#clippath);}.cls-8{clip-path:url(#clippath-3);}.cls-9{clip-path:url(#clippath-5);}.cls-10{fill:#333132;}.cls-5{stroke-width:.47px;}</style><clipPath id="clippath"><rect class="cls-4" x="-483.35" y="-431.34" width="612" height="792"/></clipPath><clipPath id="clippath-3"><rect class="cls-4" x="-9.59" y="-28.14" width="138.24" height="388.8"/></clipPath><clipPath id="clippath-5"><rect class="cls-4" x="-467.51" y="-343.53" width="456.72" height="655.38"/></clipPath><clipPath id="clippath-7"><rect class="cls-4" x="-483.35" y="-431.34" width="612" height="792"/></clipPath></defs><g class="cls-1"><g id="Layer_1"><g class="cls-7"><polygon class="cls-6" points="108.35 12.76 103.18 12.76 103.18 12.21 97.86 12.21 97.86 12.76 94.61 12.76 94.61 19.26 95.64 19.26 95.64 21.28 108.9 21.28 108.9 17.26 108.35 17.26 108.35 12.76"/><polygon class="cls-2" points="108.35 12.76 103.18 12.76 103.18 12.21 97.86 12.21 97.86 12.76 94.61 12.76 94.61 19.26 95.64 19.26 95.64 21.28 108.9 21.28 108.9 17.26 108.35 17.26 108.35 12.76"/><polygon class="cls-6" points="94.61 12.76 91.36 12.76 91.36 12.21 86.01 12.21 86.01 12.76 80.87 12.76 80.87 17.26 80.32 17.26 80.32 21.41 80.87 21.41 80.87 21.28 92.5 21.28 92.5 21.23 93.58 21.23 93.58 19.26 94.61 19.26 94.61 12.76"/><polygon class="cls-2" points="94.61 12.76 91.36 12.76 91.36 12.21 86.01 12.21 86.01 12.76 80.87 12.76 80.87 17.26 80.32 17.26 80.32 21.41 80.87 21.41 80.87 21.28 92.5 21.28 92.5 21.23 93.58 21.23 93.58 19.26 94.61 19.26 94.61 12.76"/><polygon class="cls-2" points="70.45 27.67 63.95 27.67 63.95 28.7 61.96 28.7 61.96 35.16 61.93 41.95 65.95 41.95 65.95 41.41 70.45 41.41 70.45 36.27 71 36.27 71 30.91 70.45 30.91 70.45 27.67"/><polygon class="cls-6" points="70.45 24.42 71 24.42 71 19.07 70.45 19.07 70.45 13.93 65.94 13.93 65.94 13.38 61.79 13.38 61.79 13.93 61.93 13.93 61.93 26.64 63.95 26.64 63.95 27.67 70.45 27.67 70.45 24.42"/><polygon class="cls-2" points="70.45 24.43 71 24.43 71 19.07 70.45 19.07 70.45 13.93 65.95 13.93 65.95 13.38 61.79 13.38 61.79 13.93 61.93 13.93 61.93 26.64 63.95 26.64 63.95 27.67 70.45 27.67 70.45 24.43"/><line class="cls-3" x1="33.24" y1="31.94" x2="33.24" y2="28.7"/><polyline class="cls-3" points="36.69 31.94 33.24 28.7 29.78 31.94"/><polyline class="cls-3" points="36.69 28.7 33.24 31.94 29.78 28.7"/><line class="cls-3" x1="91.1" y1="64.81" x2="93.81" y2="63.82"/><polyline class="cls-3" points="92.29 68.1 93.81 63.82 89.9 61.52"/><polyline class="cls-3" points="95 67.11 91.1 64.81 92.61 60.53"/><polyline class="cls-3" points="2.67 19.35 1.52 19.35 1.52 11.8 8.37 11.8 8.37 13.38"/><polyline class="cls-3" points="15.39 13.38 15.39 11.8 19.76 11.8 19.76 13.38"/><polyline class="cls-3" points="25.95 13.38 25.95 11.8 32.45 11.8 32.45 13.38"/><line class="cls-3" x1="29.2" y1="11.8" x2="29.2" y2="13.93"/><polyline class="cls-3" points="71 35.98 72.51 35.98 72.51 43.54 65.67 43.54 65.67 41.95"/><polyline class="cls-3" points="58.33 41.95 58.33 43.54 49.88 43.54 49.88 41.95"/><line class="cls-3" x1="53.11" y1="41.41" x2="53.11" y2="43.54"/><polyline class="cls-3" points="45.45 41.95 45.45 43.54 38.95 43.54 38.95 41.95"/><line class="cls-3" x1="42.2" y1="41.41" x2="42.2" y2="43.54"/><polyline class="cls-3" points="33.03 41.95 33.03 43.54 28.04 43.54 28.04 41.95"/><polyline class="cls-3" points="22.05 41.95 22.05 43.54 18.73 43.54 18.73 41.96"/><polyline class="cls-3" points="15.47 39.88 15.47 41.46 11.97 41.46 11.97 39.34"/><polyline class="cls-3" points="15.16 25.01 13.62 25.01 13.62 20.16"/><line class="cls-3" x1="13.62" y1="24.66" x2="12.07" y2="24.66"/><line class="cls-3" x1="12.07" y1="23.03" x2="13.62" y2="22.31"/><polyline class="cls-3" points="61.96 30.53 60.42 30.53 60.42 35.16"/><line class="cls-3" x1="58.87" y1="33.29" x2="60.42" y2="32.57"/><line class="cls-3" x1="58.87" y1="30.93" x2="60.42" y2="30.93"/><polyline class="cls-3" points="57.77 95.42 58.08 96.26 51.58 98.63 49.59 93.18 51.08 92.64"/><polyline class="cls-3" points="49.76 75.82 48.22 76.39 45.63 69.29 52.07 66.95 52.61 68.44"/><polyline class="cls-3" points="59.36 65.98 58.82 64.49 62.92 63 63.47 64.48"/><polyline class="cls-3" points="69.26 62.38 68.72 60.89 74.82 58.67 75.36 60.15"/><line class="cls-3" x1="71.77" y1="59.78" x2="72.5" y2="61.78"/><polyline class="cls-3" points="79.51 58.64 78.97 57.16 85.07 54.93 85.61 56.42"/><line class="cls-3" x1="82.02" y1="56.05" x2="82.75" y2="58.05"/><polyline class="cls-3" points="80.32 47 78.74 47 78.74 43.95"/><polyline class="cls-3" points="80.32 40.3 78.74 40.3 78.74 43.34"/><polyline class="cls-3" points="80.32 35.81 78.74 35.81 78.74 29.31 80.32 29.31"/><line class="cls-3" x1="78.74" y1="32.56" x2="80.87" y2="32.56"/><polyline class="cls-3" points="108.9 24.81 110.48 24.81 110.48 28.96 108.9 28.96"/><polyline class="cls-3" points="108.9 32.41 110.48 32.41 110.48 35.81 108.9 35.81"/><polyline class="cls-3" points="108.9 40.3 110.48 40.3 110.48 43.34"/><polyline class="cls-3" points="110.48 43.95 110.48 47 108.9 47"/><polyline class="cls-3" points="106.57 60.44 108.06 59.9 109.77 64.61 108.26 65.17"/><polyline class="cls-3" points="107.67 68.76 109.18 68.21 111.56 74.75 105.27 77.04 104.72 75.52"/><polyline class="cls-3" points="66.92 92.07 67.24 92.93 63.41 94.32 63.11 93.47"/><line class="cls-3" x1="95.64" y1="43.65" x2="92.97" y2="43.65"/><line class="cls-3" x1="98.17" y1="63.91" x2="96.69" y2="64.45"/><polyline class="cls-3" points="99.6 63.21 98.12 63.75 99.09 66.41 97.61 66.95"/><line class="cls-3" x1="99.03" y1="66.25" x2="100.51" y2="65.71"/><polyline class="cls-3" points="61.44 72.95 60.09 73.45 61.58 77.52 63.06 76.98"/><line class="cls-3" x1="59.98" y1="77.74" x2="61.46" y2="77.2"/><line class="cls-3" x1="60.65" y1="74.99" x2="59.42" y2="76.22"/><polyline class="cls-3" points="98.8 30.96 97.22 30.96 97.22 27.96 95.64 27.96"/><line class="cls-3" x1="98.8" y1="28.29" x2="97.22" y2="28.29"/><line class="cls-3" x1="95.64" y1="30.62" x2="97.22" y2="30.62"/><line class="cls-3" x1="40.11" y1="13.93" x2="40.11" y2="11.8"/><polyline class="cls-3" points="93.37 80.02 96.94 78.71 96.83 78.4"/><line class="cls-3" x1="81.92" y1="84.18" x2="85.26" y2="82.97"/><polyline class="cls-3" points="74.06 87.07 74.25 87.6 70.69 88.9"/><polyline class="cls-3" points="102.93 12.21 102.93 10.63 110.48 10.63 110.48 17.54 108.9 17.54"/><polyline class="cls-3" points="80.32 17.54 78.74 17.54 78.74 10.63 86.29 10.63 86.29 12.21"/><polyline class="cls-3" points="80.32 21.13 78.74 21.13 78.74 24.53 80.32 24.53"/><polyline class="cls-3" points="36.86 13.38 36.86 11.8 43.36 11.8 43.36 13.38"/><line class="cls-3" x1="51.02" y1="13.93" x2="51.02" y2="11.8"/><polyline class="cls-3" points="47.77 13.38 47.77 11.8 54.27 11.8 54.27 13.38"/><polyline class="cls-3" points="58.65 13.38 58.65 11.8 62.07 11.8 62.07 13.38"/><polyline class="cls-3" points="65.67 13.38 65.67 11.8 72.51 11.8 72.51 19.35 71 19.35"/><polygon class="cls-3" points="2.67 19.52 2.67 19.05 3.22 19.05 3.22 13.93 8.09 13.93 8.09 13.38 15.67 13.38 15.67 13.93 19.48 13.93 19.48 13.38 26.2 13.38 26.2 13.93 32.14 13.93 32.14 13.38 37.11 13.38 37.11 13.93 43.05 13.93 43.05 13.38 48.02 13.38 48.02 13.93 53.96 13.93 53.96 13.38 58.93 13.38 58.93 13.93 61.79 13.93 61.79 13.38 65.95 13.38 65.95 13.93 70.45 13.93 70.45 19.07 71 19.07 71 24.43 70.45 24.43 70.45 30.91 71 30.91 71 36.26 70.45 36.26 70.45 41.41 65.95 41.41 65.95 41.95 58.05 41.95 58.05 41.41 50.16 41.41 50.16 41.95 45.2 41.95 45.2 41.41 39.26 41.41 39.26 41.95 32.75 41.95 32.75 41.41 28.32 41.41 28.32 41.95 21.77 41.95 21.77 41.41 19.14 41.41 19.14 41.96 18.67 41.96 18.67 39.88 15.19 39.88 15.19 39.33 10.5 39.33 10.5 36.37 9.96 36.37 9.96 34.73 6.84 34.73 6.84 30.23 3.58 30.23 3.58 19.52 2.67 19.52"/><rect class="cls-3" x="10.08" y="26.64" width="53.87" height="2.06"/><line class="cls-3" x1="10.08" y1="27.67" x2="3.58" y2="27.67"/><polyline class="cls-3" points="18.8 28.7 18.8 39.88 18.67 39.88"/><line class="cls-3" x1="24.26" y1="28.7" x2="24.26" y2="41.95"/><polyline class="cls-3" points="29.78 28.7 29.78 31.94 36.69 31.94 36.69 28.7"/><polyline class="cls-3" points="36.75 41.95 36.75 31.94 36.69 31.94"/><line class="cls-3" x1="42.2" y1="41.41" x2="42.2" y2="28.7"/><line class="cls-3" x1="47.66" y1="41.95" x2="47.66" y2="28.7"/><line class="cls-3" x1="53.11" y1="41.41" x2="53.11" y2="29.78"/><polyline class="cls-3" points="53.06 28.78 53.06 29.78 55.72 29.78 55.72 28.7"/><polyline class="cls-3" points="58.87 28.7 58.87 35.16 61.97 35.16 61.97 28.7"/><line class="cls-3" x1="61.93" y1="41.95" x2="61.93" y2="35.16"/><line class="cls-3" x1="70.45" y1="27.67" x2="63.95" y2="27.67"/><polyline class="cls-3" points="61.93 26.64 61.93 13.93 61.79 13.93"/><line class="cls-3" x1="56.47" y1="26.64" x2="56.47" y2="13.38"/><line class="cls-3" x1="51.02" y1="26.64" x2="51.02" y2="13.93"/><line class="cls-3" x1="45.57" y1="26.64" x2="45.57" y2="13.38"/><line class="cls-3" x1="40.11" y1="26.64" x2="40.11" y2="13.93"/><line class="cls-3" x1="34.66" y1="26.64" x2="34.66" y2="13.38"/><line class="cls-3" x1="29.2" y1="26.64" x2="29.2" y2="13.93"/><line class="cls-3" x1="23.75" y1="26.64" x2="23.75" y2="13.38"/><polyline class="cls-3" points="12.07 26.53 12.07 20.16 15.16 20.16 15.16 26.64"/><polyline class="cls-3" points="18.03 26.64 18.03 25.55 15.16 25.55"/><line class="cls-3" x1="12.11" y1="20.16" x2="12.11" y2="13.38"/><polygon class="cls-3" points="80.87 12.76 86.01 12.76 86.01 12.21 91.36 12.21 91.36 12.76 97.86 12.76 97.86 12.21 103.18 12.21 103.18 12.76 108.35 12.76 108.35 17.26 108.9 17.26 108.9 25.09 108.35 25.09 108.35 28.68 108.9 28.68 108.9 32.69 108.35 32.69 108.35 35.53 108.9 35.53 108.9 40.58 108.35 40.58 108.35 43.34 111.15 43.34 111.15 43.95 108.35 43.95 108.35 46.72 108.9 46.72 108.9 49.42 102.85 49.42 102.85 50.22 102.85 50.23 106.67 60.7 106.15 60.89 107.64 64.98 108.13 64.81 108.27 65.19 106.59 65.8 107.76 69 107.24 69.19 108.79 73.45 104.77 74.91 104.96 75.44 96.59 78.48 96.09 77.11 92.75 78.32 93.38 80.04 85.27 82.99 84.64 81.27 81.3 82.49 81.93 84.21 73.82 87.16 73.2 85.44 69.87 86.65 71.27 90.49 66.69 92.15 66.07 90.46 62.75 91.67 63.37 93.38 57.51 95.51 57.32 95 53.08 96.54 51.69 92.72 51.18 92.91 49.74 88.95 52.01 88.12 50.59 84.24 52.56 83.52 49.67 75.56 50.18 75.37 48.42 70.54 52.53 69.04 52.34 68.53 59.59 65.89 59.78 66.41 63.36 65.1 63.17 64.59 69.52 62.28 69.71 62.79 75.29 60.76 75.1 60.25 79.77 58.55 79.96 59.06 85.54 57.03 85.35 56.52 87.3 55.81 87.3 49.42 80.32 49.42 80.32 46.72 80.87 46.72 80.87 43.95 78.48 43.95 78.48 43.34 80.87 43.34 80.87 40.58 80.32 40.58 80.32 35.53 80.87 35.53 80.87 29.59 80.32 29.59 80.32 24.25 80.87 24.25 80.87 21.41 80.32 21.41 80.32 17.26 80.87 17.26 80.87 12.76"/><polyline class="cls-3" points="95 67.11 92.61 60.53 89.9 61.52 92.29 68.1"/><polyline class="cls-3" points="90.29 61.38 90.29 60.28 92.21 60.28 92.34 60.63"/><polyline class="cls-3" points="92.61 60.53 92.56 60.39 93.58 60.02 93.58 46.46 93.33 46.32 92.97 46.11 92.97 41.17 93.58 40.82 93.58 19.26 95.64 19.26 95.64 61.58 98.27 68.75 96.6 69.37 96.4 68.8 57.38 83 56.68 81.06 95 67.11"/><polyline class="cls-3" points="93.58 57.23 92.44 57.23 92.44 60.28 92.21 60.28"/><polyline class="cls-3" points="93.58 21.23 92.5 21.23 92.5 23.96 93.58 23.96"/><polyline class="cls-3" points="95.64 26.12 98.8 26.12 98.8 32.56 95.64 32.56"/><polyline class="cls-3" points="96.03 62.64 99 61.56 101.22 67.66 98.26 68.73"/><polyline class="cls-3" points="60.66 79.61 58.42 73.47 61.39 72.39 63.62 78.53"/><polyline class="cls-3" points="66.34 77.54 65.97 76.53 63.25 77.52"/><line class="cls-3" x1="94.61" y1="19.26" x2="94.61" y2="12.76"/><line class="cls-3" x1="95.64" y1="21.28" x2="108.9" y2="21.28"/><polyline class="cls-3" points="108.35 32.69 108.35 32.56 98.8 32.56"/><line class="cls-3" x1="108.9" y1="38.01" x2="95.64" y2="38.01"/><line class="cls-3" x1="95.64" y1="43.65" x2="111.15" y2="43.65"/><line class="cls-3" x1="78.48" y1="43.65" x2="92.97" y2="43.65"/><polyline class="cls-3" points="95.64 56.97 101.35 56.97 104.84 55.7"/><polyline class="cls-3" points="106.6 65.8 106.55 65.68 101.22 67.65"/><polyline class="cls-3" points="62.75 91.67 62.63 91.71 59.21 82.33"/><polyline class="cls-3" points="52.56 83.52 52.61 83.64 57.03 82.03"/><line class="cls-3" x1="56.24" y1="67.11" x2="58.54" y2="73.42"/><line class="cls-3" x1="67.19" y1="63.13" x2="71.72" y2="75.59"/><line class="cls-3" x1="72.5" y1="61.78" x2="76.84" y2="73.72"/><line class="cls-3" x1="77.44" y1="59.4" x2="81.97" y2="71.86"/><line class="cls-3" x1="82.75" y1="58.05" x2="87.1" y2="69.99"/><polyline class="cls-3" points="87.3 55.81 87.43 55.81 87.43 56.71 90.34 56.71 90.34 60.28"/><line class="cls-3" x1="80.32" y1="38.01" x2="93.58" y2="38.01"/><line class="cls-3" x1="80.87" y1="32.56" x2="93.58" y2="32.56"/><line class="cls-3" x1="80.32" y1="27.1" x2="93.58" y2="27.1"/><polyline class="cls-3" points="80.87 21.41 80.87 21.28 92.5 21.28"/><polyline class="cls-3" points="73.2 85.44 73.29 85.4 70.66 78.17"/><polyline class="cls-3" points="84.64 81.27 84.74 81.24 82.1 74"/><polyline class="cls-3" points="96.09 77.11 96.19 77.07 93.55 69.83"/><g class="cls-8"><rect class="cls-3" x="-311.09" y="-218.23" width="450.14" height="582.54"/></g><g><path class="cls-10" d="M81.79,91.61v3.91h2.46v.5h-3.07v-4.41h.61Z"/><path class="cls-10" d="M87.99,96.03h-3.15v-4.41h3.08v.5h-2.49v1.39h1.98v.5h-1.98v1.52h2.56v.5Z"/><path class="cls-10" d="M90.06,96.03l-1.77-4.41h.62l1.49,3.71h.03l1.45-3.71h.62l-1.78,4.41h-.66Z"/><path class="cls-10" d="M96.15,96.03h-3.15v-4.41h3.08v.5h-2.49v1.39h1.98v.5h-1.98v1.52h2.56v.5Z"/><path class="cls-10" d="M97.45,91.61v3.91h2.46v.5h-3.07v-4.41h.61Z"/><path class="cls-10" d="M104.77,95.5v.53h-3.24v-.35l1.25-1.07c.69-.6,1.21-1.05,1.21-1.69,0-.52-.29-.88-.88-.88s-.94,.38-.94,1.03c0,.13,.01,.27,.05,.4l-.6-.03c-.03-.14-.05-.28-.05-.41,0-.9,.61-1.48,1.55-1.48,1.03,0,1.5,.6,1.5,1.35,0,.8-.68,1.41-1.32,1.93l-.83,.69h2.3Z"/><path class="cls-10" d="M105.03,93.98h1.61v.52h-1.61v-.52Z"/><path class="cls-10" d="M108.9,94.04c-.18,0-.32,0-.42,.02v-.5c.1,.01,.22,.02,.42,.02,.46,0,.89-.19,.89-.76,0-.48-.31-.8-.92-.8s-1.01,.41-1.01,1.11l-.59-.02c0-.91,.61-1.58,1.6-1.58s1.51,.5,1.51,1.25c0,.57-.42,.95-.85,1.02,.54,.08,.95,.48,.95,1.06,0,.74-.62,1.25-1.59,1.25-1.05,0-1.69-.6-1.69-1.58l.59,.03c.01,.7,.44,1.06,1.11,1.06,.57,0,.97-.28,.97-.81s-.42-.78-.97-.78Z"/></g><g class="cls-9"><rect class="cls-5" x="-475.2" y="-443.62" width="678.3" height="877.8"/></g><g><path class="cls-10" d="M6.6,3.58h.02l.65-2.62h.41l-.81,3.15h-.5l-.66-2.52h-.02l-.67,2.52h-.5L3.71,.95h.42l.66,2.61h.02l.69-2.61h.41l.7,2.62Z"/><path class="cls-10" d="M10.28,4.11h-2.25V.95h2.2v.36h-1.78v.99h1.42v.36h-1.42v1.09h1.83v.36Z"/><path class="cls-10" d="M10.92,2.96c.03,.58,.42,.87,.95,.87,.47,0,.77-.2,.77-.55,0-.29-.19-.43-.6-.51l-.62-.12c-.47-.09-.79-.34-.79-.83,0-.55,.44-.93,1.13-.93,.79,0,1.25,.42,1.25,1.13l-.39,.02c-.02-.52-.33-.82-.85-.82-.46,0-.71,.21-.71,.57,0,.31,.21,.41,.57,.48l.57,.11c.58,.11,.87,.36,.87,.87,0,.58-.5,.92-1.18,.92-.78,0-1.34-.42-1.34-1.19l.39-.03Z"/><path class="cls-10" d="M14.31,4.11V1.31h-1.15v-.36h2.74v.36h-1.17v2.79h-.43Z"/><path class="cls-10" d="M18.56,4.11h-1.34V.95h1.29c.78,0,1.1,.34,1.1,.84,0,.37-.26,.62-.6,.68,.39,.07,.69,.32,.69,.77,0,.55-.4,.87-1.14,.87Zm-.92-1.79h.88c.46,0,.65-.2,.65-.5s-.2-.51-.65-.51h-.88v1.01Zm0,.34v1.1h.91c.47,0,.72-.21,.72-.55s-.25-.55-.72-.55h-.91Z"/><path class="cls-10" d="M20.13,2.9V.95h.43v1.95c0,.6,.3,.9,.85,.9s.86-.29,.86-.89V.95h.43v1.95c0,.92-.57,1.27-1.28,1.27s-1.28-.34-1.28-1.27Z"/><path class="cls-10" d="M23.69,.95v3.15h-.44V.95h.44Z"/><path class="cls-10" d="M24.73,.95V3.75h1.76v.36h-2.19V.95h.44Z"/><path class="cls-10" d="M26.92,.95h1.14c.99,0,1.62,.59,1.62,1.58s-.62,1.58-1.62,1.58h-1.14V.95Zm1.12,2.8c.77,0,1.19-.46,1.19-1.22s-.42-1.22-1.19-1.22h-.68V3.75h.68Z"/><path class="cls-10" d="M30.57,.95v3.15h-.43V.95h.43Z"/><path class="cls-10" d="M33.35,3.37V.95h.41v3.15h-.34l-1.83-2.53v2.53h-.41V.95h.45l1.73,2.41Z"/><path class="cls-10" d="M34.22,2.53c0-.97,.67-1.64,1.54-1.64s1.41,.5,1.46,1.3l-.42,.03c-.04-.58-.41-.96-1.04-.96s-1.1,.49-1.1,1.27,.46,1.27,1.14,1.27c.59,0,.97-.37,1.03-.91h-.96v-.34h1.36v1.56h-.4v-.56c-.14,.4-.58,.62-1.08,.62-.89,0-1.54-.66-1.54-1.64Z"/></g><g><path class="cls-10" d="M79.44,4.11h-2.25V.95h2.2v.36h-1.78v.99h1.42v.36h-1.42v1.09h1.83v.36Z"/><path class="cls-10" d="M81.44,.95l1.31,3.15h-.46l-.38-.93h-1.44l-.37,.93h-.43l1.29-3.15h.47Zm-.83,1.88h1.16l-.58-1.4h-.02l-.57,1.4Z"/><path class="cls-10" d="M83.28,2.96c.03,.58,.42,.87,.95,.87,.47,0,.77-.2,.77-.55,0-.29-.19-.43-.6-.51l-.62-.12c-.47-.09-.79-.34-.79-.83,0-.55,.44-.93,1.13-.93,.79,0,1.25,.42,1.25,1.13l-.39,.02c-.02-.52-.33-.82-.85-.82-.46,0-.71,.21-.71,.57,0,.31,.21,.41,.57,.48l.57,.11c.58,.11,.87,.36,.87,.87,0,.58-.5,.92-1.18,.92-.78,0-1.34-.42-1.34-1.19l.39-.03Z"/><path class="cls-10" d="M86.67,4.11V1.31h-1.15v-.36h2.74v.36h-1.17v2.79h-.43Z"/><path class="cls-10" d="M90.92,4.11h-1.34V.95h1.29c.78,0,1.1,.34,1.1,.84,0,.37-.26,.62-.6,.68,.39,.07,.69,.32,.69,.77,0,.55-.4,.87-1.14,.87Zm-.92-1.79h.88c.46,0,.65-.2,.65-.5s-.19-.51-.65-.51h-.88v1.01Zm0,.34v1.1h.91c.47,0,.72-.21,.72-.55s-.25-.55-.72-.55h-.91Z"/><path class="cls-10" d="M92.49,2.9V.95h.43v1.95c0,.6,.3,.9,.85,.9s.86-.29,.86-.89V.95h.42v1.95c0,.92-.57,1.27-1.28,1.27s-1.28-.34-1.28-1.27Z"/><path class="cls-10" d="M96.05,.95v3.15h-.43V.95h.43Z"/><path class="cls-10" d="M97.09,.95V3.75h1.76v.36h-2.19V.95h.43Z"/><path class="cls-10" d="M99.28,.95h1.14c.99,0,1.62,.59,1.62,1.58s-.63,1.58-1.62,1.58h-1.14V.95Zm1.12,2.8c.77,0,1.19-.46,1.19-1.22s-.42-1.22-1.19-1.22h-.68V3.75h.68Z"/><path class="cls-10" d="M102.93,.95v3.15h-.44V.95h.44Z"/><path class="cls-10" d="M105.71,3.37V.95h.41v3.15h-.35l-1.83-2.53v2.53h-.41V.95h.45l1.73,2.41Z"/><path class="cls-10" d="M106.58,2.53c0-.97,.67-1.64,1.54-1.64s1.41,.5,1.46,1.3l-.42,.03c-.04-.58-.41-.96-1.04-.96s-1.1,.49-1.1,1.27,.46,1.27,1.14,1.27c.59,0,.97-.37,1.03-.91h-.96v-.34h1.36v1.56h-.4v-.56c-.14,.4-.58,.62-1.08,.62-.89,0-1.54-.66-1.54-1.64Z"/></g></g></g></g></svg>