<?xml version="1.0" encoding="UTF-8"?><svg id="Layer_1" xmlns="http://www.w3.org/2000/svg" xmlns:xlink="http://www.w3.org/1999/xlink" viewBox="0 0 118.95 102.09"><defs><style>.cls-1{stroke:#ebebec;}.cls-1,.cls-2,.cls-3{stroke-width:.31px;}.cls-1,.cls-2,.cls-3,.cls-4,.cls-5{fill:none;}.cls-1,.cls-2,.cls-3,.cls-5{stroke-linecap:round;stroke-linejoin:round;}.cls-2,.cls-3,.cls-5{stroke:#000;}.cls-6{fill:#f1b784;fill-rule:evenodd;}.cls-3{stroke-dasharray:0 0 3.94 1.97;}.cls-7{clip-path:url(#clippath);}.cls-8{clip-path:url(#clippath-3);}.cls-9{clip-path:url(#clippath-5);}.cls-10{fill:#333132;}.cls-5{stroke-width:.47px;}</style><clipPath id="clippath"><rect class="cls-4" x="-348.48" y="-648.42" width="612" height="792"/></clipPath><clipPath id="clippath-3"><rect class="cls-4" x="-13.88" y="2.62" width="272.4" height="103.2"/></clipPath><clipPath id="clippath-5"><rect class="cls-4" x="-348.48" y="-475.05" width="612" height="452.76"/></clipPath></defs><g class="cls-7"><polygon class="cls-6" points="69.63 87.64 72.97 86.42 73.06 86.39 70.43 79.15 58.98 83.31 62.4 92.7 62.52 92.65 65.88 91.43 66.49 93.11 71.04 91.47 69.63 87.64"/><polygon class="cls-1" points="69.63 87.64 72.96 86.42 73.06 86.39 70.43 79.15 58.98 83.32 62.4 92.7 62.52 92.65 65.88 91.43 66.49 93.11 71.03 91.47 69.63 87.64"/><line class="cls-2" x1="33" y1="32.92" x2="33" y2="29.68"/><polyline class="cls-2" points="36.46 32.92 33 29.68 29.55 32.92"/><polyline class="cls-2" points="36.46 29.68 33 32.92 29.55 29.68"/><line class="cls-2" x1="90.87" y1="65.79" x2="93.57" y2="64.81"/><polyline class="cls-2" points="92.06 69.08 93.57 64.81 89.67 62.5"/><polyline class="cls-2" points="94.77 68.1 90.86 65.79 92.38 61.52"/><line class="cls-3" x1="97.62" y1="69.89" x2="108.64" y2="74.47"/><line class="cls-3" x1="105.87" y1="66.86" x2="100.55" y2="77.94"/><line class="cls-2" x1="76.81" y1="14.8" x2="72.81" y2="18.18"/><line class="cls-2" x1="76.81" y1="18.18" x2="72.81" y2="14.8"/><line class="cls-2" x1="52.88" y1="42.39" x2="52.88" y2="45.99"/><line class="cls-2" x1="41.97" y1="42.39" x2="41.97" y2="45.99"/><line class="cls-2" x1="13.38" y1="25.65" x2="11.84" y2="25.65"/><line class="cls-2" x1="13.38" y1="22.69" x2="14.93" y2="21.97"/><line class="cls-2" x1="71.03" y1="59.36" x2="72.27" y2="62.76"/><line class="cls-2" x1="81.28" y1="55.63" x2="82.52" y2="59.03"/><line class="cls-2" x1="78.51" y1="33.54" x2="80.64" y2="33.54"/><polyline class="cls-2" points="106.34 61.42 107.82 60.88 109.85 66.45 106.2 67.78"/><line class="cls-2" x1="95.41" y1="44.63" x2="92.74" y2="44.63"/><line class="cls-2" x1="97.94" y1="64.89" x2="96.46" y2="65.43"/><polyline class="cls-2" points="99.37 64.19 97.88 64.73 98.85 67.4 97.38 67.94"/><line class="cls-2" x1="98.8" y1="67.24" x2="100.28" y2="66.7"/><polyline class="cls-2" points="61.21 73.94 59.86 74.43 61.34 78.5 62.83 77.96"/><line class="cls-2" x1="59.75" y1="78.73" x2="61.23" y2="78.19"/><line class="cls-2" x1="60.42" y1="75.97" x2="59.19" y2="77.2"/><polyline class="cls-2" points="98.57 31.94 96.99 31.94 96.99 28.94 95.41 28.94"/><line class="cls-2" x1="98.57" y1="29.27" x2="96.99" y2="29.27"/><line class="cls-2" x1="95.41" y1="31.61" x2="96.99" y2="31.61"/><polyline class="cls-2" points="48.19 71.52 47.56 71.75 46.33 68.36 54.84 65.25 56.08 68.65"/><polyline class="cls-2" points="58.97 67.6 57.73 64.2 61.38 62.87"/><line class="cls-2" x1="62.58" y1="62.44" x2="66.04" y2="61.18"/><rect class="cls-2" x="61.05" y="60.41" width="1.27" height="2.86" transform="translate(-17.43 24.83) rotate(-20)"/><rect class="cls-2" x="65.71" y="58.71" width="1.27" height="2.86" transform="translate(-16.57 26.32) rotate(-20)"/><rect class="cls-2" x="70.83" y="56.85" width="1.27" height="2.86" transform="translate(-15.62 27.96) rotate(-20)"/><rect class="cls-2" x="75.96" y="54.98" width="1.27" height="2.86" transform="translate(-14.68 29.6) rotate(-20)"/><rect class="cls-2" x="81.08" y="53.11" width="1.27" height="2.86" transform="translate(-13.73 31.24) rotate(-20)"/><line class="cls-2" x1="67.24" y1="60.74" x2="71.17" y2="59.31"/><line class="cls-2" x1="72.36" y1="58.88" x2="76.29" y2="57.45"/><line class="cls-2" x1="77.49" y1="57.01" x2="81.42" y2="55.58"/><polyline class="cls-2" points="82.61 55.15 84.3 54.53 85.54 57.93"/><line class="cls-2" x1="76.15" y1="57.5" x2="77.39" y2="60.89"/><line class="cls-2" x1="65.9" y1="61.23" x2="67.14" y2="64.62"/><rect class="cls-2" x="74.46" y="44.75" width="2.75" height="1.27"/><rect class="cls-2" x="74.46" y="43.24" width="2.75" height="1.27"/><line class="cls-2" x1="77.21" y1="44.52" x2="77.21" y2="44.75"/><line class="cls-2" x1="78.25" y1="44.63" x2="77.21" y2="44.63"/><polyline class="cls-2" points="76.49 46.02 76.49 50.94 80.09 50.94 80.09 50.4"/><rect class="cls-2" x="74.46" y="37.57" width="2.75" height="1.27"/><rect class="cls-2" x="74.46" y="32.12" width="2.75" height="1.27"/><line class="cls-2" x1="76.49" y1="22.11" x2="76.49" y2="32.12"/><line class="cls-2" x1="76.49" y1="33.39" x2="76.49" y2="37.57"/><line class="cls-2" x1="76.49" y1="38.85" x2="76.49" y2="43.24"/><line class="cls-2" x1="80.09" y1="38.99" x2="76.49" y2="38.99"/><line class="cls-2" x1="80.64" y1="33.54" x2="76.49" y2="33.54"/><line class="cls-2" x1="80.09" y1="28.09" x2="76.49" y2="28.09"/><line class="cls-2" x1="110.92" y1="22.26" x2="110.92" y2="44.33"/><line class="cls-2" x1="108.66" y1="38.99" x2="110.92" y2="38.99"/><line class="cls-2" x1="108.66" y1="33.67" x2="110.92" y2="33.67"/><polyline class="cls-2" points="110.92 44.94 110.92 50.14 108.66 50.14"/><rect class="cls-2" x="64.94" y="45.45" width="1.27" height="2.85"/><rect class="cls-2" x="53.02" y="45.45" width="1.27" height="2.85"/><rect class="cls-2" x="47.57" y="45.45" width="1.27" height="2.85"/><rect class="cls-2" x="42.3" y="45.45" width="1.27" height="2.85"/><rect class="cls-2" x="36.7" y="45.45" width="1.27" height="2.85"/><rect class="cls-2" x="29.3" y="45.45" width="1.27" height="2.85"/><rect class="cls-2" x="22.61" y="45.45" width="1.27" height="2.85"/><polyline class="cls-2" points="70.22 42.39 70.76 42.39 70.76 45.99 66.21 45.99"/><line class="cls-2" x1="64.94" y1="45.99" x2="60.54" y2="45.99"/><line class="cls-2" x1="58.72" y1="45.99" x2="54.3" y2="45.99"/><line class="cls-2" x1="53.02" y1="45.99" x2="48.84" y2="45.99"/><line class="cls-2" x1="47.57" y1="45.99" x2="43.57" y2="45.99"/><line class="cls-2" x1="42.3" y1="45.99" x2="37.97" y2="45.99"/><line class="cls-2" x1="36.7" y1="45.99" x2="30.57" y2="45.99"/><line class="cls-2" x1="29.3" y1="45.99" x2="23.88" y2="45.99"/><polyline class="cls-2" points="22.61 45.99 20.47 45.99 18.06 44.53 18.06 42.39 18.44 42.39"/><line class="cls-2" x1="47.42" y1="42.39" x2="47.42" y2="45.99"/><line class="cls-2" x1="36.52" y1="42.39" x2="36.52" y2="45.99"/><line class="cls-2" x1="24.02" y1="42.39" x2="24.02" y2="45.99"/><line class="cls-2" x1="60.54" y1="42.39" x2="60.54" y2="45.99"/><line class="cls-2" x1="58.72" y1="42.39" x2="58.72" y2="45.99"/><polyline class="cls-2" points="3.35 14.91 2.59 14.91 2.59 12.01 11.64 12.01 11.64 14.91"/><polyline class="cls-2" points="28.42 14.91 28.42 12.01 18.89 12.01 18.89 13.06 15.09 13.06 15.09 14.91"/><line class="cls-2" x1="23.52" y1="14.91" x2="23.52" y2="12.01"/><line class="cls-2" x1="13.38" y1="24.15" x2="11.84" y2="24.15"/><line class="cls-2" x1="13.38" y1="16.52" x2="11.84" y2="16.52"/><line class="cls-2" x1="13.38" y1="18.63" x2="14.93" y2="18.63"/><line class="cls-2" x1="13.38" y1="19.63" x2="14.93" y2="19.63"/><line class="cls-2" x1="13.38" y1="21.66" x2="14.93" y2="21.66"/><line class="cls-2" x1="60.19" y1="35.54" x2="61.73" y2="34.82"/><line class="cls-2" x1="60.19" y1="36.52" x2="61.73" y2="36.52"/><polyline class="cls-2" points="66.49 93.11 66.64 93.52 63.27 94.73 63.14 94.36"/><polyline class="cls-2" points="52.85 97.53 53.9 100.41 58.17 98.87 57.97 98.31 61.88 96.9 61.21 95.06"/><polyline class="cls-2" points="71.03 91.47 74 89.13 82.05 86.17 81.81 85.49 85.14 84.27 85.04 83.98"/><polyline class="cls-2" points="96.4 79.45 96.63 80.08 93.21 81.34 93.1 81.04"/><line class="cls-2" x1="73.96" y1="89.16" x2="73.59" y2="88.14"/><polygon class="cls-2" points="2.44 20.5 2.44 20.04 3.35 20.04 3.35 14.91 7.85 14.91 15.44 14.91 19.25 14.91 25.97 14.91 31.91 14.91 36.06 14.91 36.06 10.68 38.61 10.68 38.61 11.4 69.77 11.4 69.77 14.8 70.49 14.8 70.49 21.83 70.22 21.83 70.22 31.89 70.22 37.25 70.22 42.39 65.71 42.39 57.81 42.39 49.92 42.39 44.97 42.39 39.03 42.39 32.52 42.39 28.08 42.39 21.54 42.39 18.44 42.39 18.44 40.32 14.95 40.32 10.27 40.32 10.27 37.35 9.73 37.35 9.73 35.72 6.61 35.72 6.61 31.21 3.35 31.21 3.35 20.5 2.44 20.5"/><polyline class="cls-2" points="36.36 14.91 36.36 27.62 63.72 27.62 63.72 29.68 9.85 29.68 9.85 27.62 28.97 27.62 28.97 14.91"/><line class="cls-2" x1="9.85" y1="28.65" x2="3.35" y2="28.65"/><line class="cls-2" x1="14.82" y1="29.68" x2="14.82" y2="40.32"/><line class="cls-2" x1="24.02" y1="29.68" x2="24.02" y2="42.39"/><polyline class="cls-2" points="29.55 29.68 29.55 32.92 36.46 32.92 36.46 29.68"/><polyline class="cls-2" points="36.51 42.39 36.51 32.92 36.46 32.92"/><line class="cls-2" x1="41.97" y1="42.39" x2="41.97" y2="29.68"/><line class="cls-2" x1="47.42" y1="42.39" x2="47.42" y2="29.68"/><line class="cls-2" x1="52.88" y1="42.39" x2="52.88" y2="30.76"/><polyline class="cls-2" points="52.82 29.76 52.82 30.76 55.48 30.76 55.48 29.68"/><line class="cls-2" x1="58.64" y1="29.68" x2="58.64" y2="42.39"/><line class="cls-2" x1="61.73" y1="42.39" x2="61.73" y2="29.68"/><line class="cls-2" x1="70.22" y1="28.65" x2="63.72" y2="28.65"/><line class="cls-2" x1="23.52" y1="27.62" x2="23.52" y2="14.91"/><line class="cls-2" x1="11.84" y1="27.62" x2="11.84" y2="14.91"/><line class="cls-2" x1="14.93" y1="14.91" x2="14.93" y2="27.62"/><polyline class="cls-2" points="17.8 27.62 17.8 26.54 14.93 26.54"/><polyline class="cls-2" points="14.93 26 13.38 26 13.38 21.33"/><polygon class="cls-2" points="87.07 57.37 87.07 50.4 80.09 50.4 80.09 47.7 80.64 47.7 80.64 44.94 78.25 44.94 78.25 44.33 80.64 44.33 80.64 41.56 80.09 41.56 80.09 36.51 80.64 36.51 80.64 30.57 80.09 30.57 80.09 25.23 80.64 25.23 80.64 22.39 80.09 22.39 80.09 22.11 73.95 22.11 73.95 18.18 72.81 18.18 72.81 14.8 74 14.8 74 11.4 88.64 11.4 88.64 10.68 91.2 10.68 91.2 11.4 97.55 11.4 97.55 10.68 100.12 10.68 100.12 11.4 110 11.4 110 19.71 111.25 19.71 111.25 22.26 108.66 22.26 108.66 26.08 108.12 26.08 108.12 29.66 108.66 29.66 108.66 33.67 108.12 33.67 108.12 36.51 108.66 36.51 108.66 41.56 108.12 41.56 108.12 44.33 110.92 44.33 110.92 44.94 108.12 44.94 108.12 47.7 108.66 47.7 108.66 50.4 102.61 50.4 102.61 51.2 102.62 51.21 106.42 61.66 105.88 61.86 107.38 65.98 107.9 65.79 108.04 66.18 105.9 66.95 108.64 74.47 104.56 75.96 104.73 76.42 96.36 79.47 95.86 78.09 92.52 79.3 93.14 81.02 85.04 83.97 84.41 82.26 81.07 83.47 81.7 85.19 73.59 88.14 72.96 86.42 69.63 87.64 71.03 91.47 66.49 93.11 65.88 91.43 62.52 92.65 63.14 94.36 57.28 96.49 57.09 95.98 52.85 97.53 51.46 93.7 50.95 93.89 49.51 89.93 51.77 89.11 50.36 85.22 52.33 84.5 49.43 76.54 49.95 76.36 48.19 71.52 52.3 70.03 59.55 67.39 63.13 66.09 69.47 63.78 75.05 61.74 79.72 60.05 87.07 57.37"/><polyline class="cls-2" points="94.77 68.1 92.38 61.52 89.67 62.5 92.06 69.08"/><polyline class="cls-2" points="90.06 62.36 90.06 61.26 91.98 61.26 92.11 61.62"/><polyline class="cls-2" points="92.38 61.52 92.33 61.38 93.35 61 93.35 52.29 89.19 52.29 89.19 52.9 87.07 52.9"/><polyline class="cls-2" points="93.35 58.22 92.2 58.22 92.2 61.26 91.98 61.26"/><polyline class="cls-2" points="93.35 22.21 92.26 22.21 92.26 24.95 93.35 24.95"/><polyline class="cls-2" points="95.41 27.1 98.57 27.1 98.57 33.55 95.41 33.55"/><polyline class="cls-2" points="95.8 63.62 98.76 62.54 100.98 68.64 98.03 69.71"/><line class="cls-2" x1="59.04" y1="67.57" x2="63.39" y2="79.52"/><polyline class="cls-2" points="66.11 78.53 65.74 77.51 63.02 78.5"/><line class="cls-2" x1="95.41" y1="22.26" x2="108.66" y2="22.26"/><polyline class="cls-2" points="108.12 33.67 108.12 33.54 98.57 33.54"/><line class="cls-2" x1="108.66" y1="38.99" x2="95.41" y2="38.99"/><line class="cls-2" x1="95.41" y1="44.63" x2="110.92" y2="44.63"/><line class="cls-2" x1="78.25" y1="44.63" x2="92.74" y2="44.63"/><polyline class="cls-2" points="95.41 57.95 101.12 57.95 104.61 56.68"/><polyline class="cls-2" points="105.9 66.95 105.87 66.86 100.98 68.63"/><line class="cls-2" x1="100.55" y1="77.94" x2="97.62" y2="69.89"/><polyline class="cls-2" points="84.41 82.26 84.51 82.22 81.87 74.98"/><polyline class="cls-2" points="62.52 92.65 62.39 92.7 58.98 83.31"/><polyline class="cls-2" points="52.33 84.5 52.37 84.62 56.8 83.01"/><line class="cls-2" x1="56.08" y1="68.65" x2="60.43" y2="80.6"/><line class="cls-2" x1="67.14" y1="64.63" x2="71.49" y2="76.57"/><line class="cls-2" x1="72.27" y1="62.76" x2="76.61" y2="74.7"/><line class="cls-2" x1="77.39" y1="60.89" x2="81.74" y2="72.84"/><line class="cls-2" x1="82.52" y1="59.03" x2="86.86" y2="70.97"/><polyline class="cls-2" points="87.07 56.79 87.2 56.79 87.2 57.7 90.11 57.7 90.11 61.26"/><line class="cls-2" x1="80.09" y1="38.99" x2="93.35" y2="38.99"/><line class="cls-2" x1="80.64" y1="33.54" x2="93.35" y2="33.54"/><line class="cls-2" x1="80.09" y1="28.09" x2="93.35" y2="28.09"/><polyline class="cls-2" points="80.64 22.39 80.64 22.26 92.26 22.26"/><polyline class="cls-2" points="57.78 73.32 59.25 72.78 57.55 68.12"/><polyline class="cls-2" points="94.77 68.1 56.45 82.04 57.15 83.98 95.54 70.01 95.75 70.58 98.04 69.74 95.41 62.56 95.41 22.21 93.35 22.21 93.35 41.81 92.74 42.16 92.74 47.1 93.1 47.3 93.35 47.45 93.35 50.27 87.07 50.27 87.07 50.4"/><polyline class="cls-2" points="74 14.8 76.81 14.8 76.81 18.18 73.95 18.18"/><polyline class="cls-2" points="11.84 19.89 13.38 19.89 13.38 14.91"/><polyline class="cls-2" points="60.19 39.17 60.19 31.56 61.73 31.56"/><polyline class="cls-2" points="97.17 22.26 97.17 20.32 90.84 20.32 90.84 22.26"/><polyline class="cls-2" points="72.96 86.42 73.06 86.39 70.43 79.15"/><g class="cls-8"><rect class="cls-2" x="-100.12" y="-437.62" width="450.14" height="582.54"/></g><g><path class="cls-10" d="M94.95,94.87v3.91h2.46v.5h-3.07v-4.41h.61Z"/><path class="cls-10" d="M101.15,99.28h-3.15v-4.41h3.08v.5h-2.49v1.39h1.98v.5h-1.98v1.52h2.56v.5Z"/><path class="cls-10" d="M103.22,99.28l-1.77-4.41h.62l1.49,3.71h.03l1.45-3.71h.62l-1.78,4.41h-.66Z"/><path class="cls-10" d="M109.31,99.28h-3.15v-4.41h3.08v.5h-2.49v1.39h1.98v.5h-1.98v1.52h2.56v.5Z"/><path class="cls-10" d="M110.61,94.87v3.91h2.46v.5h-3.07v-4.41h.61Z"/><path class="cls-10" d="M114.58,95.52c.62,0,.88-.21,1.04-.67h.4v4.44h-.61v-3.38h-.83v-.39Z"/></g><g class="cls-9"><rect class="cls-5" x="-379.1" y="-637.17" width="678.3" height="877.8"/></g><g><path class="cls-10" d="M6.27,4h.02l.65-2.62h.41l-.81,3.15h-.5l-.66-2.52h-.02l-.67,2.52h-.5l-.81-3.15h.42l.66,2.61h.02l.69-2.61h.41l.7,2.62Z"/><path class="cls-10" d="M9.95,4.53h-2.25V1.38h2.2v.36h-1.78v.99h1.42v.36h-1.42v1.09h1.83v.36Z"/><path class="cls-10" d="M10.6,3.38c.02,.58,.42,.87,.95,.87,.47,0,.77-.2,.77-.55,0-.29-.19-.43-.6-.51l-.62-.12c-.47-.09-.79-.34-.79-.83,0-.55,.44-.93,1.13-.93,.79,0,1.25,.42,1.25,1.13l-.4,.02c-.02-.52-.33-.82-.85-.82-.46,0-.71,.21-.71,.57,0,.31,.21,.41,.57,.48l.57,.11c.58,.11,.87,.36,.87,.87,0,.58-.5,.92-1.18,.92-.78,0-1.34-.42-1.34-1.19l.39-.03Z"/><path class="cls-10" d="M13.99,4.53V1.74h-1.15v-.36h2.74v.36h-1.17v2.79h-.43Z"/><path class="cls-10" d="M18.23,4.53h-1.34V1.38h1.29c.78,0,1.1,.34,1.1,.84,0,.37-.26,.62-.6,.68,.39,.07,.69,.32,.69,.77,0,.55-.4,.87-1.14,.87Zm-.92-1.79h.88c.46,0,.65-.2,.65-.5s-.19-.51-.65-.51h-.88v1.01Zm0,.34v1.1h.91c.47,0,.72-.21,.72-.55s-.25-.55-.72-.55h-.91Z"/><path class="cls-10" d="M19.81,3.33V1.38h.43v1.95c0,.6,.3,.9,.85,.9s.86-.29,.86-.89V1.38h.42v1.95c0,.92-.57,1.27-1.28,1.27s-1.28-.34-1.28-1.27Z"/><path class="cls-10" d="M23.36,1.38v3.15h-.43V1.38h.43Z"/><path class="cls-10" d="M24.41,1.38v2.79h1.76v.36h-2.19V1.38h.43Z"/><path class="cls-10" d="M26.59,1.38h1.14c.99,0,1.62,.59,1.62,1.58s-.63,1.58-1.62,1.58h-1.14V1.38Zm1.12,2.8c.77,0,1.19-.46,1.19-1.22s-.42-1.22-1.19-1.22h-.68v2.44h.68Z"/><path class="cls-10" d="M30.24,1.38v3.15h-.44V1.38h.44Z"/><path class="cls-10" d="M33.03,3.79V1.38h.41v3.15h-.35l-1.83-2.53v2.53h-.41V1.38h.45l1.73,2.41Z"/><path class="cls-10" d="M33.89,2.96c0-.97,.67-1.64,1.54-1.64s1.41,.5,1.46,1.3l-.42,.03c-.04-.58-.41-.96-1.04-.96s-1.1,.49-1.1,1.27,.46,1.27,1.14,1.27c.59,0,.97-.37,1.03-.91h-.96v-.34h1.36v1.56h-.4v-.56c-.14,.4-.58,.62-1.08,.62-.89,0-1.54-.66-1.54-1.64Z"/></g><g><path class="cls-10" d="M79.11,4.53h-2.25V1.38h2.2v.36h-1.78v.99h1.42v.36h-1.42v1.09h1.83v.36Z"/><path class="cls-10" d="M81.12,1.38l1.31,3.15h-.46l-.38-.93h-1.44l-.37,.93h-.42l1.29-3.15h.48Zm-.83,1.88h1.16l-.58-1.4h-.02l-.57,1.4Z"/><path class="cls-10" d="M82.96,3.38c.02,.58,.42,.87,.95,.87,.47,0,.77-.2,.77-.55,0-.29-.19-.43-.6-.51l-.62-.12c-.47-.09-.79-.34-.79-.83,0-.55,.44-.93,1.13-.93,.79,0,1.25,.42,1.25,1.13l-.4,.02c-.02-.52-.33-.82-.85-.82-.46,0-.71,.21-.71,.57,0,.31,.21,.41,.57,.48l.57,.11c.58,.11,.87,.36,.87,.87,0,.58-.5,.92-1.18,.92-.78,0-1.34-.42-1.34-1.19l.39-.03Z"/><path class="cls-10" d="M86.35,4.53V1.74h-1.15v-.36h2.74v.36h-1.17v2.79h-.43Z"/><path class="cls-10" d="M90.59,4.53h-1.34V1.38h1.29c.78,0,1.1,.34,1.1,.84,0,.37-.26,.62-.6,.68,.39,.07,.69,.32,.69,.77,0,.55-.4,.87-1.14,.87Zm-.92-1.79h.88c.46,0,.65-.2,.65-.5s-.2-.51-.65-.51h-.88v1.01Zm0,.34v1.1h.91c.47,0,.72-.21,.72-.55s-.25-.55-.72-.55h-.91Z"/><path class="cls-10" d="M92.17,3.33V1.38h.43v1.95c0,.6,.3,.9,.85,.9s.86-.29,.86-.89V1.38h.43v1.95c0,.92-.57,1.27-1.28,1.27s-1.28-.34-1.28-1.27Z"/><path class="cls-10" d="M95.72,1.38v3.15h-.44V1.38h.44Z"/><path class="cls-10" d="M96.77,1.38v2.79h1.76v.36h-2.19V1.38h.44Z"/><path class="cls-10" d="M98.95,1.38h1.14c.99,0,1.62,.59,1.62,1.58s-.62,1.58-1.62,1.58h-1.14V1.38Zm1.12,2.8c.77,0,1.19-.46,1.19-1.22s-.42-1.22-1.19-1.22h-.68v2.44h.68Z"/><path class="cls-10" d="M102.6,1.38v3.15h-.43V1.38h.43Z"/><path class="cls-10" d="M105.39,3.79V1.38h.41v3.15h-.34l-1.83-2.53v2.53h-.41V1.38h.45l1.73,2.41Z"/><path class="cls-10" d="M106.25,2.96c0-.97,.67-1.64,1.54-1.64s1.41,.5,1.46,1.3l-.42,.03c-.04-.58-.41-.96-1.04-.96s-1.1,.49-1.1,1.27,.46,1.27,1.14,1.27c.59,0,.97-.37,1.03-.91h-.96v-.34h1.36v1.56h-.4v-.56c-.14,.4-.58,.62-1.08,.62-.89,0-1.54-.66-1.54-1.64Z"/></g></g></svg>