<?xml version="1.0" encoding="UTF-8"?><svg id="Layer_1" xmlns="http://www.w3.org/2000/svg" xmlns:xlink="http://www.w3.org/1999/xlink" viewBox="0 0 113.19 102.09"><defs><style>.cls-1{stroke:#ebebec;}.cls-1,.cls-2{stroke-width:.31px;}.cls-1,.cls-2,.cls-3,.cls-4{fill:none;}.cls-1,.cls-2,.cls-4{stroke-linecap:round;stroke-linejoin:round;}.cls-2,.cls-4{stroke:#000;}.cls-5{fill:#f1b784;fill-rule:evenodd;}.cls-6{clip-path:url(#clippath);}.cls-7{clip-path:url(#clippath-3);}.cls-8{clip-path:url(#clippath-5);}.cls-9{fill:#333132;}.cls-4{stroke-width:.47px;}</style><clipPath id="clippath"><rect class="cls-3" x="-482.3" y="-648.42" width="612" height="792"/></clipPath><clipPath id="clippath-3"><rect class="cls-3" x="-147.7" y="2.62" width="272.4" height="103.2"/></clipPath><clipPath id="clippath-5"><rect class="cls-3" x="-482.3" y="-475.05" width="612" height="452.76"/></clipPath></defs><g class="cls-6"><polygon class="cls-5" points="71.01 79.15 59.56 83.31 62.98 92.7 63.1 92.65 66.42 91.44 67.04 93.14 71.62 91.47 70.22 87.63 73.55 86.42 73.64 86.39 71.01 79.15"/><polygon class="cls-1" points="71.01 79.15 59.56 83.31 62.98 92.7 63.1 92.65 66.42 91.44 67.03 93.14 71.61 91.47 70.22 87.63 73.55 86.42 73.64 86.39 71.01 79.15"/><line class="cls-2" x1="33.59" y1="32.92" x2="33.59" y2="29.68"/><polyline class="cls-2" points="37.04 32.92 33.59 29.68 30.13 32.92"/><polyline class="cls-2" points="37.04 29.68 33.59 32.92 30.13 29.68"/><line class="cls-2" x1="91.45" y1="65.79" x2="94.16" y2="64.81"/><polyline class="cls-2" points="92.64 69.08 94.16 64.81 90.25 62.5"/><polyline class="cls-2" points="95.35 68.1 91.45 65.79 92.96 61.52"/><polyline class="cls-2" points="3.02 20.33 1.87 20.33 1.87 12.78 8.72 12.78 8.72 14.36"/><polyline class="cls-2" points="15.74 14.36 15.74 12.78 20.11 12.78 20.11 14.36"/><polyline class="cls-2" points="26.3 14.36 26.3 12.78 32.8 12.78 32.8 14.36"/><line class="cls-2" x1="29.55" y1="12.78" x2="29.55" y2="14.91"/><polyline class="cls-2" points="71.35 36.97 72.86 36.97 72.86 44.52 66.01 44.52 66.01 42.94"/><polyline class="cls-2" points="58.67 42.94 58.67 44.52 50.22 44.52 50.22 42.94"/><line class="cls-2" x1="53.46" y1="42.39" x2="53.46" y2="44.52"/><polyline class="cls-2" points="45.8 42.94 45.8 44.52 39.3 44.52 39.3 42.94"/><line class="cls-2" x1="42.55" y1="42.39" x2="42.55" y2="44.52"/><polyline class="cls-2" points="33.38 42.94 33.38 44.52 28.38 44.52 28.38 42.94"/><polyline class="cls-2" points="22.4 42.94 22.4 44.52 19.07 44.52 19.07 42.95"/><polyline class="cls-2" points="15.81 40.86 15.81 42.45 12.32 42.45 12.32 40.32"/><polyline class="cls-2" points="15.51 26 13.97 26 13.97 21.14"/><line class="cls-2" x1="13.97" y1="25.65" x2="12.42" y2="25.65"/><line class="cls-2" x1="12.42" y1="24.01" x2="13.96" y2="23.29"/><polyline class="cls-2" points="62.31 31.52 60.77 31.52 60.77 36.14"/><line class="cls-2" x1="59.22" y1="34.27" x2="60.77" y2="33.55"/><line class="cls-2" x1="59.22" y1="31.91" x2="60.77" y2="31.91"/><polyline class="cls-2" points="58.12 96.4 58.43 97.24 51.92 99.61 49.94 94.17 51.43 93.63"/><polyline class="cls-2" points="50.11 76.81 48.57 77.37 45.98 70.27 52.41 67.93 52.96 69.42"/><polyline class="cls-2" points="59.71 66.96 59.17 65.47 63.27 63.98 63.81 65.47"/><polyline class="cls-2" points="69.61 63.36 69.07 61.87 75.17 59.65 75.71 61.14"/><line class="cls-2" x1="72.12" y1="60.76" x2="72.85" y2="62.76"/><polyline class="cls-2" points="79.86 59.63 79.32 58.14 85.42 55.92 85.96 57.41"/><line class="cls-2" x1="82.37" y1="57.03" x2="83.1" y2="59.03"/><polyline class="cls-2" points="80.67 47.98 79.09 47.98 79.09 44.94"/><polyline class="cls-2" points="80.67 41.28 79.09 41.28 79.09 44.33"/><polyline class="cls-2" points="80.67 36.79 79.09 36.79 79.09 30.29 80.67 30.29"/><line class="cls-2" x1="79.09" y1="33.54" x2="81.22" y2="33.54"/><polyline class="cls-2" points="109.25 25.8 110.83 25.8 110.83 29.94 109.25 29.94"/><polyline class="cls-2" points="109.25 33.39 110.83 33.39 110.83 36.79 109.25 36.79"/><polyline class="cls-2" points="109.25 41.28 110.83 41.28 110.83 44.33"/><polyline class="cls-2" points="110.83 44.94 110.83 47.98 109.25 47.98"/><polyline class="cls-2" points="106.92 61.42 108.41 60.88 110.12 65.6 108.61 66.15"/><polyline class="cls-2" points="108.02 69.74 109.53 69.19 111.91 75.73 105.62 78.02 105.07 76.51"/><polyline class="cls-2" points="67.27 93.05 67.59 93.91 63.76 95.3 63.46 94.46"/><line class="cls-2" x1="95.99" y1="44.63" x2="93.32" y2="44.63"/><line class="cls-2" x1="98.52" y1="64.89" x2="97.04" y2="65.43"/><polyline class="cls-2" points="99.95 64.19 98.46 64.73 99.43 67.4 97.96 67.94"/><line class="cls-2" x1="99.38" y1="67.24" x2="100.86" y2="66.7"/><polyline class="cls-2" points="61.79 73.94 60.44 74.43 61.92 78.5 63.41 77.96"/><line class="cls-2" x1="60.33" y1="78.73" x2="61.81" y2="78.19"/><line class="cls-2" x1="61" y1="75.97" x2="59.77" y2="77.2"/><polyline class="cls-2" points="99.15 31.94 97.57 31.94 97.57 28.94 95.99 28.94"/><line class="cls-2" x1="99.15" y1="29.27" x2="97.57" y2="29.27"/><line class="cls-2" x1="95.99" y1="31.61" x2="97.57" y2="31.61"/><line class="cls-2" x1="40.46" y1="14.91" x2="40.46" y2="12.78"/><polyline class="cls-2" points="93.72 81 97.29 79.7 97.18 79.38"/><line class="cls-2" x1="82.27" y1="85.17" x2="85.61" y2="83.95"/><polyline class="cls-2" points="74.41 88.05 74.6 88.58 71.04 89.88"/><polyline class="cls-2" points="103.28 13.19 103.28 11.61 110.83 11.61 110.83 18.53 109.25 18.53"/><polyline class="cls-2" points="80.67 18.53 79.09 18.53 79.09 11.61 86.64 11.61 86.64 13.19"/><polyline class="cls-2" points="80.67 22.11 79.09 22.11 79.09 25.52 80.67 25.52"/><polyline class="cls-2" points="37.21 14.36 37.21 12.78 43.71 12.78 43.71 14.36"/><line class="cls-2" x1="51.37" y1="14.91" x2="51.37" y2="12.78"/><polyline class="cls-2" points="48.12 14.36 48.12 12.78 54.62 12.78 54.62 14.36"/><polyline class="cls-2" points="59 14.36 59 12.78 62.42 12.78 62.42 14.36"/><polyline class="cls-2" points="66.01 14.36 66.01 12.78 72.86 12.78 72.86 20.33 71.35 20.33"/><polygon class="cls-2" points="3.02 20.5 3.02 20.04 3.56 20.04 3.56 14.91 8.44 14.91 8.44 14.36 16.02 14.36 16.02 14.91 19.83 14.91 19.83 14.36 26.55 14.36 26.55 14.91 32.49 14.91 32.49 14.36 37.46 14.36 37.46 14.91 43.4 14.91 43.4 14.36 48.37 14.36 48.37 14.91 54.31 14.91 54.31 14.36 59.28 14.36 59.28 14.91 62.14 14.91 62.14 14.36 66.29 14.36 66.29 14.91 70.8 14.91 70.8 20.05 71.35 20.05 71.35 25.41 70.8 25.41 70.8 31.89 71.35 31.89 71.35 37.25 70.8 37.25 70.8 42.39 66.29 42.39 66.29 42.94 58.39 42.94 58.39 42.39 50.51 42.39 50.51 42.94 45.55 42.94 45.55 42.39 39.61 42.39 39.61 42.94 33.1 42.94 33.1 42.39 28.67 42.39 28.67 42.94 22.12 42.94 22.12 42.39 19.48 42.39 19.48 42.95 19.02 42.95 19.02 40.86 15.53 40.86 15.53 40.32 10.85 40.32 10.85 37.35 10.31 37.35 10.31 35.72 7.19 35.72 7.19 31.21 3.93 31.21 3.93 20.5 3.02 20.5"/><rect class="cls-2" x="10.43" y="27.62" width="53.87" height="2.06"/><line class="cls-2" x1="10.43" y1="28.65" x2="3.93" y2="28.65"/><polyline class="cls-2" points="19.15 29.68 19.15 40.86 19.02 40.86"/><line class="cls-2" x1="24.6" y1="29.68" x2="24.6" y2="42.94"/><polyline class="cls-2" points="30.13 29.68 30.13 32.92 37.04 32.92 37.04 29.68"/><polyline class="cls-2" points="37.1 42.94 37.1 32.92 37.04 32.92"/><line class="cls-2" x1="42.55" y1="42.39" x2="42.55" y2="29.68"/><line class="cls-2" x1="48" y1="42.94" x2="48" y2="29.68"/><line class="cls-2" x1="53.46" y1="42.39" x2="53.46" y2="30.76"/><polyline class="cls-2" points="53.41 29.76 53.41 30.76 56.06 30.76 56.06 29.68"/><polyline class="cls-2" points="59.22 29.68 59.22 36.14 62.31 36.14 62.31 29.68"/><line class="cls-2" x1="62.28" y1="42.94" x2="62.28" y2="36.14"/><line class="cls-2" x1="70.8" y1="28.65" x2="64.3" y2="28.65"/><polyline class="cls-2" points="62.28 27.62 62.28 14.91 62.14 14.91"/><line class="cls-2" x1="56.82" y1="27.62" x2="56.82" y2="14.36"/><line class="cls-2" x1="51.37" y1="27.62" x2="51.37" y2="14.91"/><line class="cls-2" x1="45.91" y1="27.62" x2="45.91" y2="14.36"/><line class="cls-2" x1="40.46" y1="27.62" x2="40.46" y2="14.91"/><line class="cls-2" x1="35.01" y1="27.62" x2="35.01" y2="14.36"/><line class="cls-2" x1="29.55" y1="27.62" x2="29.55" y2="14.91"/><line class="cls-2" x1="24.1" y1="27.62" x2="24.1" y2="14.36"/><polyline class="cls-2" points="12.42 27.51 12.42 21.14 15.51 21.14 15.51 27.62"/><polyline class="cls-2" points="18.38 27.62 18.38 26.54 15.51 26.54"/><line class="cls-2" x1="12.46" y1="21.14" x2="12.46" y2="14.36"/><polygon class="cls-2" points="81.22 13.74 86.36 13.74 86.36 13.19 91.71 13.19 91.71 13.74 98.2 13.74 98.2 13.19 103.53 13.19 103.53 13.74 108.7 13.74 108.7 18.25 109.25 18.25 109.25 26.08 108.7 26.08 108.7 29.66 109.25 29.66 109.25 33.67 108.7 33.67 108.7 36.51 109.25 36.51 109.25 41.56 108.7 41.56 108.7 44.33 111.5 44.33 111.5 44.94 108.7 44.94 108.7 47.7 109.25 47.7 109.25 50.4 103.19 50.4 103.19 51.2 103.2 51.21 107.01 61.69 106.5 61.87 107.99 65.97 108.48 65.79 108.62 66.18 106.94 66.78 108.11 69.98 107.58 70.17 109.14 74.44 105.12 75.9 105.31 76.42 96.94 79.47 96.44 78.09 93.1 79.3 93.73 81.02 85.62 83.97 84.99 82.26 81.65 83.47 82.28 85.19 74.17 88.14 73.55 86.42 70.22 87.63 71.61 91.47 67.03 93.14 66.42 91.44 63.1 92.65 63.72 94.36 57.86 96.49 57.67 95.98 53.43 97.52 52.04 93.7 51.53 93.89 50.09 89.93 52.35 89.11 50.94 85.22 52.91 84.5 50.01 76.54 50.53 76.36 48.77 71.52 52.88 70.03 52.69 69.51 59.94 66.88 60.13 67.39 63.71 66.09 63.52 65.57 69.87 63.26 70.06 63.78 75.64 61.74 75.45 61.23 80.12 59.53 80.31 60.04 85.89 58.01 85.7 57.5 87.65 56.79 87.65 50.4 80.67 50.4 80.67 47.7 81.22 47.7 81.22 44.94 78.83 44.94 78.83 44.33 81.22 44.33 81.22 41.56 80.67 41.56 80.67 36.51 81.22 36.51 81.22 30.57 80.67 30.57 80.67 25.23 81.22 25.23 81.22 22.39 80.67 22.39 80.67 18.25 81.22 18.25 81.22 13.74"/><polyline class="cls-2" points="95.35 68.1 92.96 61.52 90.25 62.5 92.64 69.08"/><polyline class="cls-2" points="90.64 62.36 90.64 61.26 92.56 61.26 92.69 61.62"/><polyline class="cls-2" points="92.96 61.52 92.91 61.38 93.93 61 93.93 47.45 93.68 47.3 93.32 47.1 93.32 42.16 93.93 41.81 93.93 20.24 95.99 20.24 95.99 62.56 98.62 69.74 96.95 70.35 96.74 69.78 57.73 83.98 57.03 82.04 95.35 68.1"/><polyline class="cls-2" points="93.93 58.22 92.78 58.22 92.78 61.26 92.56 61.26"/><polyline class="cls-2" points="93.93 22.21 92.85 22.21 92.85 24.95 93.93 24.95"/><polyline class="cls-2" points="95.99 27.1 99.15 27.1 99.15 33.55 95.99 33.55"/><polyline class="cls-2" points="96.38 63.62 99.34 62.54 101.57 68.64 98.61 69.71"/><polyline class="cls-2" points="61.01 80.6 58.77 74.45 61.74 73.37 63.97 79.52"/><polyline class="cls-2" points="66.69 78.53 66.32 77.51 63.6 78.5"/><line class="cls-2" x1="94.96" y1="20.24" x2="94.96" y2="13.74"/><line class="cls-2" x1="95.99" y1="22.26" x2="109.25" y2="22.26"/><polyline class="cls-2" points="108.7 33.67 108.7 33.54 99.15 33.54"/><line class="cls-2" x1="109.25" y1="38.99" x2="95.99" y2="38.99"/><line class="cls-2" x1="95.99" y1="44.63" x2="111.5" y2="44.63"/><line class="cls-2" x1="78.83" y1="44.63" x2="93.32" y2="44.63"/><polyline class="cls-2" points="95.99 57.95 101.7 57.95 105.19 56.68"/><polyline class="cls-2" points="106.94 66.78 106.9 66.66 101.56 68.63"/><polyline class="cls-2" points="63.1 92.65 62.98 92.7 59.56 83.31"/><polyline class="cls-2" points="52.91 84.5 52.96 84.62 57.38 83.01"/><line class="cls-2" x1="56.59" y1="68.1" x2="58.89" y2="74.41"/><line class="cls-2" x1="67.53" y1="64.11" x2="72.07" y2="76.57"/><line class="cls-2" x1="72.85" y1="62.76" x2="77.19" y2="74.7"/><line class="cls-2" x1="77.79" y1="60.38" x2="82.32" y2="72.84"/><line class="cls-2" x1="83.1" y1="59.03" x2="87.45" y2="70.97"/><polyline class="cls-2" points="87.65 56.79 87.78 56.79 87.78 57.7 90.69 57.7 90.69 61.26"/><line class="cls-2" x1="80.67" y1="38.99" x2="93.93" y2="38.99"/><line class="cls-2" x1="81.22" y1="33.54" x2="93.93" y2="33.54"/><line class="cls-2" x1="80.67" y1="28.09" x2="93.93" y2="28.09"/><polyline class="cls-2" points="81.22 22.39 81.22 22.26 92.85 22.26"/><polyline class="cls-2" points="73.55 86.42 73.64 86.39 71.01 79.15"/><polyline class="cls-2" points="84.99 82.26 85.09 82.22 82.45 74.98"/><polyline class="cls-2" points="96.44 78.09 96.53 78.06 93.9 70.82"/><g class="cls-7"><rect class="cls-2" x="-233.94" y="-437.62" width="450.14" height="582.54"/></g><g><path class="cls-9" d="M82.78,94.87v3.91h2.46v.5h-3.07v-4.41h.61Z"/><path class="cls-9" d="M88.98,99.28h-3.15v-4.41h3.08v.5h-2.49v1.39h1.98v.5h-1.98v1.52h2.56v.5Z"/><path class="cls-9" d="M91.05,99.28l-1.77-4.41h.62l1.49,3.71h.03l1.45-3.71h.62l-1.78,4.41h-.66Z"/><path class="cls-9" d="M97.14,99.28h-3.15v-4.41h3.08v.5h-2.49v1.39h1.98v.5h-1.98v1.52h2.56v.5Z"/><path class="cls-9" d="M98.44,94.87v3.91h2.46v.5h-3.07v-4.41h.61Z"/><path class="cls-9" d="M105.76,98.76v.53h-3.24v-.35l1.25-1.07c.69-.6,1.21-1.05,1.21-1.69,0-.52-.29-.88-.88-.88s-.94,.38-.94,1.03c0,.13,.01,.27,.05,.4l-.6-.03c-.03-.14-.05-.28-.05-.41,0-.9,.61-1.48,1.55-1.48,1.03,0,1.5,.6,1.5,1.35,0,.8-.68,1.41-1.32,1.93l-.83,.69h2.3Z"/><path class="cls-9" d="M106.03,97.24h1.61v.52h-1.61v-.52Z"/><path class="cls-9" d="M111.23,95.42h-2.12c0,.24-.11,1.14-.16,1.37,.2-.25,.56-.45,1.05-.45,1,0,1.52,.67,1.52,1.48,0,.92-.64,1.55-1.6,1.55-1.06,0-1.67-.67-1.62-1.65l.59,.05c0,.67,.36,1.11,1.05,1.11,.62,0,1-.41,1-1.06,0-.58-.38-1.01-1-1.01-.49,0-.81,.26-.97,.56l-.6-.04c.11-.61,.26-1.74,.28-2.46h2.58v.55Z"/></g><g class="cls-8"><rect class="cls-4" x="-512.92" y="-637.17" width="678.3" height="877.8"/></g><g><path class="cls-9" d="M8.45,4h.02l.65-2.62h.41l-.81,3.15h-.5l-.66-2.52h-.02l-.67,2.52h-.5l-.81-3.15h.42l.66,2.61h.02l.69-2.61h.41l.7,2.62Z"/><path class="cls-9" d="M12.13,4.53h-2.25V1.38h2.2v.36h-1.78v.99h1.42v.36h-1.42v1.09h1.83v.36Z"/><path class="cls-9" d="M12.78,3.38c.02,.58,.42,.87,.95,.87,.47,0,.77-.2,.77-.55,0-.29-.19-.43-.6-.51l-.62-.12c-.47-.09-.79-.34-.79-.83,0-.55,.44-.93,1.13-.93,.79,0,1.25,.42,1.25,1.13l-.4,.02c-.02-.52-.33-.82-.85-.82-.46,0-.71,.21-.71,.57,0,.31,.21,.41,.57,.48l.57,.11c.58,.11,.87,.36,.87,.87,0,.58-.5,.92-1.18,.92-.78,0-1.34-.42-1.34-1.19l.39-.03Z"/><path class="cls-9" d="M16.17,4.53V1.74h-1.15v-.36h2.74v.36h-1.17v2.79h-.43Z"/><path class="cls-9" d="M20.41,4.53h-1.34V1.38h1.29c.78,0,1.1,.34,1.1,.84,0,.37-.26,.62-.6,.68,.39,.07,.69,.32,.69,.77,0,.55-.4,.87-1.14,.87Zm-.92-1.79h.88c.46,0,.65-.2,.65-.5s-.19-.51-.65-.51h-.88v1.01Zm0,.34v1.1h.91c.47,0,.72-.21,.72-.55s-.25-.55-.72-.55h-.91Z"/><path class="cls-9" d="M21.99,3.33V1.38h.43v1.95c0,.6,.3,.9,.85,.9s.86-.29,.86-.89V1.38h.42v1.95c0,.92-.57,1.27-1.28,1.27s-1.28-.34-1.28-1.27Z"/><path class="cls-9" d="M25.54,1.38v3.15h-.43V1.38h.43Z"/><path class="cls-9" d="M26.59,1.38v2.79h1.76v.36h-2.19V1.38h.43Z"/><path class="cls-9" d="M28.77,1.38h1.14c.99,0,1.62,.59,1.62,1.58s-.63,1.58-1.62,1.58h-1.14V1.38Zm1.12,2.8c.77,0,1.19-.46,1.19-1.22s-.42-1.22-1.19-1.22h-.68v2.44h.68Z"/><path class="cls-9" d="M32.42,1.38v3.15h-.44V1.38h.44Z"/><path class="cls-9" d="M35.21,3.79V1.38h.41v3.15h-.35l-1.83-2.53v2.53h-.41V1.38h.45l1.73,2.41Z"/><path class="cls-9" d="M36.08,2.96c0-.97,.67-1.64,1.54-1.64s1.41,.5,1.46,1.3l-.42,.03c-.04-.58-.41-.96-1.04-.96s-1.1,.49-1.1,1.27,.46,1.27,1.14,1.27c.59,0,.97-.37,1.03-.91h-.96v-.34h1.36v1.56h-.4v-.56c-.14,.4-.58,.62-1.08,.62-.89,0-1.54-.66-1.54-1.64Z"/></g><g><path class="cls-9" d="M81.29,4.53h-2.25V1.38h2.2v.36h-1.78v.99h1.42v.36h-1.42v1.09h1.83v.36Z"/><path class="cls-9" d="M83.3,1.38l1.31,3.15h-.46l-.38-.93h-1.44l-.37,.93h-.42l1.29-3.15h.48Zm-.83,1.88h1.16l-.58-1.4h-.02l-.57,1.4Z"/><path class="cls-9" d="M85.14,3.38c.02,.58,.42,.87,.95,.87,.47,0,.77-.2,.77-.55,0-.29-.19-.43-.6-.51l-.62-.12c-.47-.09-.79-.34-.79-.83,0-.55,.44-.93,1.13-.93,.79,0,1.25,.42,1.25,1.13l-.4,.02c-.02-.52-.33-.82-.85-.82-.46,0-.71,.21-.71,.57,0,.31,.21,.41,.57,.48l.57,.11c.58,.11,.87,.36,.87,.87,0,.58-.5,.92-1.18,.92-.78,0-1.34-.42-1.34-1.19l.39-.03Z"/><path class="cls-9" d="M88.53,4.53V1.74h-1.15v-.36h2.74v.36h-1.17v2.79h-.43Z"/><path class="cls-9" d="M92.77,4.53h-1.34V1.38h1.29c.78,0,1.1,.34,1.1,.84,0,.37-.26,.62-.6,.68,.39,.07,.69,.32,.69,.77,0,.55-.4,.87-1.14,.87Zm-.92-1.79h.88c.46,0,.65-.2,.65-.5s-.2-.51-.65-.51h-.88v1.01Zm0,.34v1.1h.91c.47,0,.72-.21,.72-.55s-.25-.55-.72-.55h-.91Z"/><path class="cls-9" d="M94.35,3.33V1.38h.43v1.95c0,.6,.3,.9,.85,.9s.86-.29,.86-.89V1.38h.43v1.95c0,.92-.57,1.27-1.28,1.27s-1.28-.34-1.28-1.27Z"/><path class="cls-9" d="M97.9,1.38v3.15h-.44V1.38h.44Z"/><path class="cls-9" d="M98.95,1.38v2.79h1.76v.36h-2.19V1.38h.44Z"/><path class="cls-9" d="M101.13,1.38h1.14c.99,0,1.62,.59,1.62,1.58s-.62,1.58-1.62,1.58h-1.14V1.38Zm1.12,2.8c.77,0,1.19-.46,1.19-1.22s-.42-1.22-1.19-1.22h-.68v2.44h.68Z"/><path class="cls-9" d="M104.78,1.38v3.15h-.43V1.38h.43Z"/><path class="cls-9" d="M107.57,3.79V1.38h.41v3.15h-.34l-1.83-2.53v2.53h-.41V1.38h.45l1.73,2.41Z"/><path class="cls-9" d="M108.44,2.96c0-.97,.67-1.64,1.54-1.64s1.41,.5,1.46,1.3l-.42,.03c-.04-.58-.41-.96-1.04-.96s-1.1,.49-1.1,1.27,.46,1.27,1.14,1.27c.59,0,.97-.37,1.03-.91h-.96v-.34h1.36v1.56h-.4v-.56c-.14,.4-.58,.62-1.08,.62-.89,0-1.54-.66-1.54-1.64Z"/></g></g></svg>