<?xml version="1.0" encoding="UTF-8"?><svg xmlns="http://www.w3.org/2000/svg" xmlns:xlink="http://www.w3.org/1999/xlink" viewBox="0 0 118.15 103.16"><defs><style>.cls-1{isolation:isolate;}.cls-2{stroke:#ebebec;}.cls-2,.cls-3,.cls-4{stroke-width:.31px;}.cls-2,.cls-3,.cls-4,.cls-5,.cls-6{fill:none;}.cls-2,.cls-3,.cls-4,.cls-6{stroke-linecap:round;stroke-linejoin:round;}.cls-3,.cls-4,.cls-6{stroke:#000;}.cls-7{fill:#f1b784;fill-rule:evenodd;}.cls-4{stroke-dasharray:0 0 3.94 1.97;}.cls-8{clip-path:url(#clippath);}.cls-9{clip-path:url(#clippath-3);}.cls-10{clip-path:url(#clippath-5);}.cls-11{fill:#333132;}.cls-6{stroke-width:.47px;}</style><clipPath id="clippath"><rect class="cls-5" x="-349.04" y="-648.42" width="612" height="792"/></clipPath><clipPath id="clippath-3"><rect class="cls-5" x="-9.14" y="-4.72" width="272.1" height="110.4"/></clipPath><clipPath id="clippath-5"><rect class="cls-5" x="-349.04" y="-530.65" width="612" height="511.03"/></clipPath><clipPath id="clippath-6"><rect class="cls-5" x="-349.04" y="-648.42" width="612" height="792"/></clipPath></defs><g class="cls-1"><g id="Layer_1"><g class="cls-8"><polygon class="cls-7" points="61.85 93.31 61.73 93.36 58.32 83.97 56.49 84.64 56.13 83.67 51.71 85.28 51.66 85.16 49.69 85.88 51.11 89.77 48.84 90.59 50.28 94.55 50.8 94.36 52.18 98.18 56.42 96.64 56.61 97.15 62.47 95.02 61.85 93.31"/><polygon class="cls-2" points="61.85 93.31 61.73 93.36 58.31 83.97 56.49 84.64 56.13 83.67 51.71 85.28 51.66 85.16 49.69 85.88 51.11 89.76 48.84 90.59 50.28 94.55 50.79 94.36 52.18 98.18 56.42 96.64 56.61 97.15 62.47 95.02 61.85 93.31"/><line class="cls-3" x1="32.34" y1="33.58" x2="32.34" y2="30.34"/><polyline class="cls-3" points="35.8 33.58 32.34 30.34 28.88 33.58"/><polyline class="cls-3" points="35.8 30.34 32.34 33.58 28.88 30.34"/><line class="cls-3" x1="90.2" y1="66.45" x2="92.91" y2="65.47"/><polyline class="cls-3" points="91.4 69.74 92.91 65.47 89 63.16"/><polyline class="cls-3" points="94.11 68.75 90.2 66.45 91.71 62.18"/><line class="cls-4" x1="96.96" y1="70.55" x2="107.97" y2="75.13"/><line class="cls-4" x1="105.2" y1="67.52" x2="99.89" y2="78.6"/><line class="cls-3" x1="76.14" y1="15.46" x2="72.14" y2="18.84"/><line class="cls-3" x1="76.14" y1="18.84" x2="72.14" y2="15.46"/><line class="cls-3" x1="52.21" y1="43.05" x2="52.21" y2="46.65"/><line class="cls-3" x1="41.3" y1="43.05" x2="41.3" y2="46.65"/><line class="cls-3" x1="12.72" y1="26.31" x2="11.17" y2="26.31"/><line class="cls-3" x1="12.72" y1="23.35" x2="14.26" y2="22.63"/><line class="cls-3" x1="70.36" y1="60.02" x2="71.6" y2="63.42"/><line class="cls-3" x1="80.61" y1="56.29" x2="81.85" y2="59.69"/><line class="cls-3" x1="77.84" y1="34.2" x2="79.97" y2="34.2"/><polyline class="cls-3" points="105.67 62.08 107.16 61.54 109.19 67.1 105.53 68.43"/><line class="cls-3" x1="94.74" y1="45.29" x2="92.08" y2="45.29"/><line class="cls-3" x1="97.28" y1="65.55" x2="95.8" y2="66.09"/><polyline class="cls-3" points="98.7 64.85 97.22 65.39 98.19 68.06 96.72 68.6"/><line class="cls-3" x1="98.13" y1="67.9" x2="99.61" y2="67.36"/><polyline class="cls-3" points="60.54 74.6 59.2 75.09 60.68 79.16 62.16 78.62"/><line class="cls-3" x1="59.08" y1="79.39" x2="60.56" y2="78.85"/><line class="cls-3" x1="59.76" y1="76.63" x2="58.53" y2="77.86"/><polyline class="cls-3" points="97.9 32.6 96.33 32.6 96.33 29.6 94.74 29.6"/><line class="cls-3" x1="97.9" y1="29.93" x2="96.33" y2="29.93"/><line class="cls-3" x1="94.74" y1="32.27" x2="96.33" y2="32.27"/><polyline class="cls-3" points="47.52 72.18 46.9 72.41 45.66 69.01 54.17 65.91 55.41 69.31"/><polyline class="cls-3" points="58.3 68.26 57.06 64.86 60.72 63.53"/><line class="cls-3" x1="61.91" y1="63.1" x2="65.38" y2="61.84"/><rect class="cls-3" x="60.38" y="61.07" width="1.27" height="2.86" transform="translate(-17.7 24.64) rotate(-20)"/><rect class="cls-3" x="65.04" y="59.37" width="1.27" height="2.86" transform="translate(-16.84 26.13) rotate(-20)"/><rect class="cls-3" x="70.17" y="57.51" width="1.27" height="2.86" transform="translate(-15.89 27.77) rotate(-20)"/><rect class="cls-3" x="75.29" y="55.64" width="1.27" height="2.86" transform="translate(-14.94 29.41) rotate(-20)"/><rect class="cls-3" x="80.42" y="53.77" width="1.27" height="2.86" transform="translate(-13.99 31.05) rotate(-20)"/><line class="cls-3" x1="66.57" y1="61.4" x2="70.5" y2="59.97"/><line class="cls-3" x1="71.7" y1="59.54" x2="75.63" y2="58.11"/><line class="cls-3" x1="76.82" y1="57.67" x2="80.75" y2="56.24"/><polyline class="cls-3" points="81.95 55.81 83.64 55.19 84.88 58.59"/><line class="cls-3" x1="75.49" y1="58.16" x2="76.73" y2="61.55"/><line class="cls-3" x1="65.24" y1="61.89" x2="66.48" y2="65.28"/><rect class="cls-3" x="73.8" y="45.41" width="2.75" height="1.27"/><rect class="cls-3" x="73.8" y="43.9" width="2.75" height="1.27"/><line class="cls-3" x1="76.55" y1="45.18" x2="76.55" y2="45.41"/><line class="cls-3" x1="77.58" y1="45.29" x2="76.55" y2="45.29"/><polyline class="cls-3" points="75.83 46.68 75.83 51.6 79.43 51.6 79.43 51.06"/><rect class="cls-3" x="73.8" y="38.23" width="2.75" height="1.27"/><rect class="cls-3" x="73.8" y="32.78" width="2.75" height="1.27"/><line class="cls-3" x1="75.83" y1="22.76" x2="75.83" y2="32.78"/><line class="cls-3" x1="75.83" y1="34.05" x2="75.83" y2="38.23"/><line class="cls-3" x1="75.83" y1="39.51" x2="75.83" y2="43.9"/><line class="cls-3" x1="79.43" y1="39.65" x2="75.83" y2="39.64"/><line class="cls-3" x1="79.97" y1="34.2" x2="75.83" y2="34.2"/><line class="cls-3" x1="79.43" y1="28.75" x2="75.83" y2="28.75"/><line class="cls-3" x1="110.25" y1="22.92" x2="110.25" y2="44.99"/><line class="cls-3" x1="108" y1="39.65" x2="110.25" y2="39.65"/><line class="cls-3" x1="108" y1="34.33" x2="110.25" y2="34.33"/><polyline class="cls-3" points="110.25 45.6 110.25 50.8 108 50.8"/><rect class="cls-3" x="64.28" y="46.11" width="1.27" height="2.85"/><rect class="cls-3" x="52.36" y="46.11" width="1.27" height="2.85"/><rect class="cls-3" x="46.91" y="46.11" width="1.27" height="2.85"/><rect class="cls-3" x="41.63" y="46.11" width="1.27" height="2.85"/><rect class="cls-3" x="36.03" y="46.11" width="1.27" height="2.85"/><rect class="cls-3" x="28.63" y="46.11" width="1.27" height="2.85"/><rect class="cls-3" x="21.94" y="46.11" width="1.27" height="2.85"/><polyline class="cls-3" points="69.56 43.05 70.09 43.05 70.09 46.65 65.55 46.65"/><line class="cls-3" x1="64.28" y1="46.65" x2="59.87" y2="46.65"/><line class="cls-3" x1="58.05" y1="46.65" x2="53.63" y2="46.65"/><line class="cls-3" x1="52.36" y1="46.65" x2="48.18" y2="46.65"/><line class="cls-3" x1="46.91" y1="46.65" x2="42.91" y2="46.65"/><line class="cls-3" x1="41.63" y1="46.65" x2="37.31" y2="46.65"/><line class="cls-3" x1="36.03" y1="46.65" x2="29.91" y2="46.65"/><line class="cls-3" x1="28.63" y1="46.65" x2="23.22" y2="46.65"/><polyline class="cls-3" points="21.94 46.65 19.81 46.65 17.39 45.19 17.39 43.05 17.77 43.05"/><line class="cls-3" x1="46.76" y1="43.05" x2="46.76" y2="46.65"/><line class="cls-3" x1="35.85" y1="43.05" x2="35.85" y2="46.65"/><line class="cls-3" x1="23.36" y1="43.05" x2="23.36" y2="46.65"/><line class="cls-3" x1="59.87" y1="43.05" x2="59.87" y2="46.65"/><line class="cls-3" x1="58.05" y1="43.05" x2="58.05" y2="46.65"/><polyline class="cls-3" points="2.68 15.57 1.93 15.57 1.93 12.67 10.98 12.67 10.98 15.57"/><polyline class="cls-3" points="27.76 15.57 27.76 12.67 18.23 12.67 18.23 13.72 14.43 13.72 14.43 15.57"/><line class="cls-3" x1="22.85" y1="15.57" x2="22.85" y2="12.67"/><line class="cls-3" x1="12.72" y1="24.81" x2="11.17" y2="24.81"/><line class="cls-3" x1="12.72" y1="17.18" x2="11.17" y2="17.18"/><line class="cls-3" x1="12.72" y1="19.29" x2="14.26" y2="19.29"/><line class="cls-3" x1="12.72" y1="20.29" x2="14.26" y2="20.29"/><line class="cls-3" x1="12.72" y1="22.32" x2="14.26" y2="22.32"/><line class="cls-3" x1="59.52" y1="36.2" x2="61.07" y2="35.48"/><line class="cls-3" x1="59.52" y1="37.18" x2="61.07" y2="37.18"/><polyline class="cls-3" points="65.82 93.77 65.97 94.18 62.61 95.39 62.47 95.02"/><polyline class="cls-3" points="52.18 98.18 53.23 101.07 57.5 99.53 57.3 98.97 61.22 97.56 60.55 95.72"/><polyline class="cls-3" points="70.37 92.13 73.34 89.79 81.39 86.83 81.14 86.15 84.48 84.92 84.37 84.63"/><polyline class="cls-3" points="95.74 80.11 95.97 80.74 92.54 82 92.43 81.7"/><line class="cls-3" x1="73.3" y1="89.82" x2="72.93" y2="88.8"/><polygon class="cls-3" points="1.77 21.16 1.77 20.7 2.68 20.7 2.68 15.57 7.19 15.57 14.77 15.57 18.58 15.57 25.31 15.57 31.24 15.57 35.4 15.57 35.4 11.34 37.94 11.34 37.94 12.06 69.1 12.06 69.1 15.46 69.83 15.46 69.83 22.48 69.55 22.48 69.55 32.55 69.55 37.91 69.55 43.05 65.05 43.05 57.15 43.05 49.26 43.05 44.3 43.05 38.36 43.05 31.85 43.05 27.42 43.05 20.87 43.05 17.77 43.05 17.77 40.98 14.29 40.98 9.61 40.98 9.61 38.01 9.06 38.01 9.06 36.38 5.95 36.38 5.95 31.87 2.68 31.87 2.68 21.16 1.77 21.16"/><polyline class="cls-3" points="35.7 15.57 35.7 28.28 63.06 28.28 63.06 30.34 9.19 30.34 9.19 28.28 28.31 28.28 28.31 15.57"/><line class="cls-3" x1="9.19" y1="29.31" x2="2.68" y2="29.31"/><line class="cls-3" x1="14.15" y1="30.34" x2="14.15" y2="40.98"/><line class="cls-3" x1="23.36" y1="30.34" x2="23.36" y2="43.05"/><polyline class="cls-3" points="28.88 30.34 28.88 33.58 35.8 33.58 35.8 30.34"/><polyline class="cls-3" points="35.85 43.05 35.85 33.58 35.8 33.58"/><line class="cls-3" x1="41.3" y1="43.05" x2="41.3" y2="30.34"/><line class="cls-3" x1="46.76" y1="43.05" x2="46.76" y2="30.34"/><line class="cls-3" x1="52.21" y1="43.05" x2="52.21" y2="31.42"/><polyline class="cls-3" points="52.16 30.42 52.16 31.42 54.82 31.42 54.82 30.34"/><line class="cls-3" x1="57.98" y1="30.34" x2="57.98" y2="43.05"/><line class="cls-3" x1="61.07" y1="43.05" x2="61.07" y2="30.34"/><line class="cls-3" x1="69.56" y1="29.31" x2="63.06" y2="29.31"/><line class="cls-3" x1="22.85" y1="28.28" x2="22.85" y2="15.57"/><line class="cls-3" x1="11.17" y1="28.28" x2="11.17" y2="15.57"/><line class="cls-3" x1="14.26" y1="15.57" x2="14.26" y2="28.28"/><polyline class="cls-3" points="17.14 28.28 17.14 27.2 14.26 27.2"/><polyline class="cls-3" points="14.26 26.65 12.72 26.65 12.72 21.99"/><polygon class="cls-3" points="86.4 58.03 86.4 51.06 79.43 51.06 79.43 48.36 79.97 48.36 79.97 45.6 77.58 45.6 77.58 44.99 79.97 44.99 79.97 42.22 79.43 42.22 79.43 37.17 79.97 37.17 79.97 31.23 79.43 31.23 79.43 25.89 79.97 25.89 79.97 23.05 79.43 23.05 79.43 22.76 73.28 22.76 73.28 18.84 72.14 18.84 72.14 15.46 73.33 15.46 73.33 12.06 87.97 12.06 87.97 11.34 90.53 11.34 90.53 12.06 96.89 12.06 96.89 11.34 99.45 11.34 99.45 12.06 109.33 12.06 109.33 20.37 110.59 20.37 110.59 22.92 108 22.92 108 26.74 107.45 26.74 107.45 30.32 108 30.32 108 34.33 107.45 34.33 107.45 37.17 108 37.17 108 42.22 107.45 42.22 107.45 44.99 110.25 44.99 110.25 45.6 107.45 45.6 107.45 48.36 108 48.36 108 51.06 101.95 51.06 101.95 51.86 101.96 51.87 105.76 62.32 105.21 62.52 106.71 66.64 107.23 66.45 107.37 66.83 105.24 67.61 107.97 75.13 103.9 76.62 104.07 77.08 95.69 80.13 95.19 78.75 91.85 79.96 92.48 81.68 84.37 84.63 83.75 82.92 80.41 84.13 81.03 85.85 72.93 88.8 72.3 87.08 68.96 88.3 70.37 92.13 65.82 93.77 65.21 92.09 61.85 93.31 62.47 95.02 56.61 97.15 56.42 96.64 52.19 98.18 50.79 94.36 50.28 94.55 48.84 90.59 51.11 89.77 49.69 85.88 51.67 85.16 48.77 77.2 49.28 77.02 47.52 72.18 51.63 70.69 58.88 68.05 62.46 66.74 68.81 64.43 74.39 62.4 79.06 60.7 86.4 58.03"/><polyline class="cls-3" points="94.11 68.75 91.71 62.18 89 63.16 91.4 69.74"/><polyline class="cls-3" points="89.39 63.02 89.39 61.92 91.32 61.92 91.44 62.27"/><polyline class="cls-3" points="91.71 62.18 91.66 62.04 92.68 61.66 92.68 52.95 88.53 52.95 88.53 53.56 86.4 53.56"/><polyline class="cls-3" points="92.68 58.88 91.54 58.88 91.54 61.92 91.32 61.92"/><polyline class="cls-3" points="92.68 22.87 91.6 22.87 91.6 25.6 92.68 25.6"/><polyline class="cls-3" points="94.74 27.76 97.9 27.76 97.9 34.2 94.74 34.2"/><polyline class="cls-3" points="95.13 64.28 98.1 63.2 100.32 69.3 97.37 70.37"/><line class="cls-3" x1="58.38" y1="68.23" x2="62.73" y2="80.18"/><polyline class="cls-3" points="65.44 79.19 65.07 78.17 62.36 79.16"/><line class="cls-3" x1="94.74" y1="22.92" x2="108" y2="22.92"/><polyline class="cls-3" points="107.45 34.33 107.45 34.2 97.9 34.2"/><line class="cls-3" x1="108" y1="39.65" x2="94.74" y2="39.65"/><line class="cls-3" x1="94.74" y1="45.29" x2="110.25" y2="45.29"/><line class="cls-3" x1="77.58" y1="45.29" x2="92.08" y2="45.29"/><polyline class="cls-3" points="94.74 58.61 100.45 58.61 103.95 57.34"/><polyline class="cls-3" points="105.24 67.61 105.2 67.52 100.32 69.29"/><line class="cls-3" x1="99.89" y1="78.6" x2="96.96" y2="70.55"/><polyline class="cls-3" points="83.75 82.91 83.84 82.88 81.21 75.64"/><polyline class="cls-3" points="61.85 93.31 61.73 93.36 58.31 83.97"/><polyline class="cls-3" points="51.66 85.16 51.71 85.28 56.13 83.67"/><line class="cls-3" x1="55.41" y1="69.31" x2="59.76" y2="81.26"/><line class="cls-3" x1="66.47" y1="65.28" x2="70.82" y2="77.23"/><line class="cls-3" x1="71.6" y1="63.42" x2="75.95" y2="75.36"/><line class="cls-3" x1="76.73" y1="61.55" x2="81.07" y2="73.5"/><line class="cls-3" x1="81.85" y1="59.69" x2="86.2" y2="71.63"/><polyline class="cls-3" points="86.4 57.45 86.53 57.45 86.53 58.36 89.45 58.36 89.45 61.92"/><line class="cls-3" x1="79.43" y1="39.65" x2="92.68" y2="39.65"/><line class="cls-3" x1="79.97" y1="34.2" x2="92.68" y2="34.2"/><line class="cls-3" x1="79.43" y1="28.75" x2="92.68" y2="28.75"/><polyline class="cls-3" points="79.97 23.05 79.97 22.92 91.6 22.92"/><polyline class="cls-3" points="57.11 73.98 58.58 73.44 56.89 68.77"/><polyline class="cls-3" points="94.11 68.75 55.78 82.7 56.49 84.64 94.87 70.67 95.08 71.24 97.38 70.4 94.74 63.22 94.74 22.87 92.68 22.87 92.68 42.47 92.08 42.82 92.08 47.76 92.43 47.96 92.68 48.11 92.68 50.93 86.4 50.93 86.4 51.06"/><polyline class="cls-3" points="73.33 15.46 76.14 15.46 76.14 18.84 73.28 18.84"/><polyline class="cls-3" points="11.17 20.55 12.72 20.55 12.72 15.57"/><polyline class="cls-3" points="59.52 39.83 59.52 32.22 61.07 32.22"/><polyline class="cls-3" points="96.51 22.92 96.51 20.98 90.17 20.98 90.17 22.92"/><polyline class="cls-3" points="72.3 87.08 72.4 87.05 69.76 79.81"/><g class="cls-9"><rect class="cls-3" x="-100.79" y="-436.96" width="450.14" height="582.54"/></g><g><path class="cls-11" d="M94.38,94.87v3.91h2.46v.5h-3.07v-4.41h.61Z"/><path class="cls-11" d="M100.59,99.28h-3.15v-4.41h3.08v.5h-2.49v1.39h1.98v.5h-1.98v1.52h2.56v.5Z"/><path class="cls-11" d="M102.66,99.28l-1.77-4.41h.62l1.49,3.71h.03l1.45-3.71h.62l-1.78,4.41h-.66Z"/><path class="cls-11" d="M108.75,99.28h-3.15v-4.41h3.08v.5h-2.49v1.39h1.98v.5h-1.98v1.52h2.56v.5Z"/><path class="cls-11" d="M110.05,94.87v3.91h2.46v.5h-3.07v-4.41h.61Z"/><path class="cls-11" d="M114.01,95.52c.62,0,.88-.21,1.04-.67h.4v4.44h-.61v-3.38h-.83v-.39Z"/></g><g class="cls-10"><rect class="cls-6" x="-379.66" y="-649.68" width="678.3" height="877.8"/></g><g><path class="cls-11" d="M8.28,4h.02l.65-2.62h.41l-.81,3.15h-.5l-.66-2.52h-.02l-.67,2.52h-.5l-.81-3.15h.42l.66,2.61h.02l.69-2.61h.41l.7,2.62Z"/><path class="cls-11" d="M11.96,4.53h-2.25V1.38h2.2v.36h-1.78v.99h1.42v.36h-1.42v1.09h1.83v.36Z"/><path class="cls-11" d="M12.6,3.38c.03,.58,.42,.87,.95,.87,.47,0,.77-.2,.77-.55,0-.29-.19-.43-.6-.51l-.62-.12c-.47-.09-.79-.34-.79-.83,0-.55,.44-.93,1.13-.93,.79,0,1.25,.42,1.25,1.13l-.39,.02c-.02-.52-.33-.82-.85-.82-.46,0-.71,.21-.71,.57,0,.31,.21,.41,.57,.48l.57,.11c.58,.11,.87,.36,.87,.87,0,.58-.5,.92-1.18,.92-.78,0-1.34-.42-1.34-1.19l.39-.03Z"/><path class="cls-11" d="M15.99,4.53V1.74h-1.15v-.36h2.74v.36h-1.17v2.79h-.43Z"/><path class="cls-11" d="M20.23,4.53h-1.34V1.38h1.29c.78,0,1.1,.34,1.1,.84,0,.37-.26,.62-.6,.68,.39,.07,.69,.32,.69,.77,0,.55-.4,.87-1.14,.87Zm-.92-1.79h.88c.46,0,.65-.2,.65-.5s-.2-.51-.65-.51h-.88v1.01Zm0,.34v1.1h.91c.47,0,.72-.21,.72-.55s-.25-.55-.72-.55h-.91Z"/><path class="cls-11" d="M21.81,3.33V1.38h.43v1.95c0,.6,.3,.9,.85,.9s.86-.29,.86-.89V1.38h.43v1.95c0,.92-.57,1.27-1.28,1.27s-1.28-.34-1.28-1.27Z"/><path class="cls-11" d="M25.36,1.38v3.15h-.44V1.38h.44Z"/><path class="cls-11" d="M26.41,1.38v2.79h1.76v.36h-2.19V1.38h.44Z"/><path class="cls-11" d="M28.59,1.38h1.14c.99,0,1.62,.59,1.62,1.58s-.62,1.58-1.62,1.58h-1.14V1.38Zm1.12,2.8c.77,0,1.19-.46,1.19-1.22s-.42-1.22-1.19-1.22h-.68v2.44h.68Z"/><path class="cls-11" d="M32.24,1.38v3.15h-.43V1.38h.43Z"/><path class="cls-11" d="M35.03,3.79V1.38h.41v3.15h-.34l-1.83-2.53v2.53h-.41V1.38h.45l1.73,2.41Z"/><path class="cls-11" d="M35.9,2.96c0-.97,.67-1.64,1.54-1.64s1.41,.5,1.46,1.3l-.42,.03c-.04-.58-.41-.96-1.04-.96s-1.1,.49-1.1,1.27,.46,1.27,1.14,1.27c.59,0,.97-.37,1.03-.91h-.96v-.34h1.36v1.56h-.4v-.56c-.14,.4-.58,.62-1.08,.62-.89,0-1.54-.66-1.54-1.64Z"/></g><g><path class="cls-11" d="M81.11,4.53h-2.25V1.38h2.2v.36h-1.78v.99h1.42v.36h-1.42v1.09h1.83v.36Z"/><path class="cls-11" d="M83.12,1.38l1.31,3.15h-.46l-.38-.93h-1.44l-.37,.93h-.43l1.29-3.15h.47Zm-.83,1.88h1.16l-.58-1.4h-.02l-.57,1.4Z"/><path class="cls-11" d="M84.96,3.38c.03,.58,.42,.87,.95,.87,.47,0,.77-.2,.77-.55,0-.29-.19-.43-.6-.51l-.62-.12c-.47-.09-.79-.34-.79-.83,0-.55,.44-.93,1.13-.93,.79,0,1.25,.42,1.25,1.13l-.39,.02c-.02-.52-.33-.82-.85-.82-.46,0-.71,.21-.71,.57,0,.31,.21,.41,.57,.48l.57,.11c.58,.11,.87,.36,.87,.87,0,.58-.5,.92-1.18,.92-.78,0-1.34-.42-1.34-1.19l.39-.03Z"/><path class="cls-11" d="M88.35,4.53V1.74h-1.15v-.36h2.74v.36h-1.17v2.79h-.43Z"/><path class="cls-11" d="M92.59,4.53h-1.34V1.38h1.29c.78,0,1.1,.34,1.1,.84,0,.37-.26,.62-.6,.68,.39,.07,.69,.32,.69,.77,0,.55-.4,.87-1.14,.87Zm-.92-1.79h.88c.46,0,.65-.2,.65-.5s-.19-.51-.65-.51h-.88v1.01Zm0,.34v1.1h.91c.47,0,.72-.21,.72-.55s-.25-.55-.72-.55h-.91Z"/><path class="cls-11" d="M94.17,3.33V1.38h.43v1.95c0,.6,.3,.9,.85,.9s.86-.29,.86-.89V1.38h.42v1.95c0,.92-.57,1.27-1.28,1.27s-1.28-.34-1.28-1.27Z"/><path class="cls-11" d="M97.72,1.38v3.15h-.43V1.38h.43Z"/><path class="cls-11" d="M98.77,1.38v2.79h1.76v.36h-2.19V1.38h.43Z"/><path class="cls-11" d="M100.95,1.38h1.14c.99,0,1.62,.59,1.62,1.58s-.63,1.58-1.62,1.58h-1.14V1.38Zm1.12,2.8c.77,0,1.19-.46,1.19-1.22s-.42-1.22-1.19-1.22h-.68v2.44h.68Z"/><path class="cls-11" d="M104.6,1.38v3.15h-.44V1.38h.44Z"/><path class="cls-11" d="M107.39,3.79V1.38h.41v3.15h-.35l-1.83-2.53v2.53h-.41V1.38h.45l1.73,2.41Z"/><path class="cls-11" d="M108.26,2.96c0-.97,.67-1.64,1.54-1.64s1.41,.5,1.46,1.3l-.42,.03c-.04-.58-.41-.96-1.04-.96s-1.1,.49-1.1,1.27,.46,1.27,1.14,1.27c.59,0,.97-.37,1.03-.91h-.96v-.34h1.36v1.56h-.4v-.56c-.14,.4-.58,.62-1.08,.62-.89,0-1.54-.66-1.54-1.64Z"/></g></g></g></g></svg>