<?xml version="1.0" encoding="UTF-8"?><svg xmlns="http://www.w3.org/2000/svg" xmlns:xlink="http://www.w3.org/1999/xlink" viewBox="0 0 113.91 103.16"><defs><style>.cls-1{isolation:isolate;}.cls-2{stroke:#ebebec;}.cls-2,.cls-3{stroke-width:.31px;}.cls-2,.cls-3,.cls-4,.cls-5{fill:none;}.cls-2,.cls-3,.cls-5{stroke-linecap:round;stroke-linejoin:round;}.cls-3,.cls-5{stroke:#000;}.cls-6{fill:#f1b784;fill-rule:evenodd;}.cls-7{clip-path:url(#clippath);}.cls-8{clip-path:url(#clippath-3);}.cls-9{clip-path:url(#clippath-5);}.cls-10{fill:#333132;}.cls-5{stroke-width:.47px;}</style><clipPath id="clippath"><rect class="cls-4" x="-482.24" y="-648.42" width="612" height="792"/></clipPath><clipPath id="clippath-3"><rect class="cls-4" x="-142.34" y="-4.72" width="272.1" height="110.4"/></clipPath><clipPath id="clippath-5"><rect class="cls-4" x="-482.24" y="-530.65" width="612" height="511.03"/></clipPath><clipPath id="clippath-6"><rect class="cls-4" x="-482.24" y="-648.42" width="612" height="792"/></clipPath></defs><g class="cls-1"><g id="Layer_1"><g class="cls-7"><polygon class="cls-6" points="63.68 95.02 63.06 93.31 62.94 93.36 59.52 83.97 57.69 84.64 57.34 83.67 52.92 85.28 52.87 85.16 50.9 85.88 52.31 89.76 50.05 90.59 51.49 94.55 52 94.36 53.39 98.18 57.63 96.64 57.82 97.15 63.68 95.02"/><polygon class="cls-2" points="63.68 95.02 63.06 93.31 62.94 93.36 59.52 83.97 57.69 84.64 57.34 83.67 52.92 85.28 52.87 85.16 50.9 85.88 52.31 89.77 50.05 90.59 51.49 94.55 52 94.36 53.39 98.18 57.63 96.64 57.82 97.15 63.68 95.02"/><line class="cls-3" x1="33.54" y1="33.58" x2="33.54" y2="30.34"/><polyline class="cls-3" points="37 33.58 33.55 30.34 30.09 33.58"/><polyline class="cls-3" points="37 30.34 33.55 33.58 30.09 30.34"/><line class="cls-3" x1="91.41" y1="66.45" x2="94.12" y2="65.47"/><polyline class="cls-3" points="92.6 69.74 94.12 65.47 90.21 63.16"/><polyline class="cls-3" points="95.31 68.75 91.41 66.45 92.92 62.18"/><polyline class="cls-3" points="2.98 20.99 1.83 20.99 1.83 13.44 8.68 13.44 8.68 15.02"/><polyline class="cls-3" points="15.7 15.02 15.7 13.44 20.07 13.44 20.07 15.02"/><polyline class="cls-3" points="26.26 15.02 26.26 13.44 32.76 13.44 32.76 15.02"/><line class="cls-3" x1="29.51" y1="13.44" x2="29.51" y2="15.57"/><polyline class="cls-3" points="71.31 37.63 72.82 37.63 72.82 45.18 65.97 45.18 65.97 43.6"/><polyline class="cls-3" points="58.63 43.6 58.63 45.18 50.18 45.18 50.18 43.6"/><line class="cls-3" x1="53.42" y1="43.05" x2="53.42" y2="45.18"/><polyline class="cls-3" points="45.76 43.6 45.76 45.18 39.26 45.18 39.26 43.6"/><line class="cls-3" x1="42.51" y1="43.05" x2="42.51" y2="45.18"/><polyline class="cls-3" points="33.34 43.6 33.34 45.18 28.34 45.18 28.34 43.6"/><polyline class="cls-3" points="22.36 43.6 22.36 45.18 19.03 45.18 19.03 43.6"/><polyline class="cls-3" points="15.77 41.52 15.77 43.11 12.28 43.11 12.28 40.98"/><polyline class="cls-3" points="15.47 26.65 13.93 26.65 13.93 21.8"/><line class="cls-3" x1="13.93" y1="26.31" x2="12.38" y2="26.31"/><line class="cls-3" x1="12.38" y1="24.67" x2="13.92" y2="23.95"/><polyline class="cls-3" points="62.27 32.18 60.73 32.18 60.73 36.8"/><line class="cls-3" x1="59.18" y1="34.93" x2="60.73" y2="34.21"/><line class="cls-3" x1="59.18" y1="32.57" x2="60.73" y2="32.57"/><polyline class="cls-3" points="58.08 97.06 58.39 97.9 51.88 100.27 49.9 94.83 51.39 94.29"/><polyline class="cls-3" points="50.07 77.47 48.53 78.03 45.94 70.93 52.37 68.59 52.92 70.08"/><polyline class="cls-3" points="59.67 67.62 59.13 66.13 63.23 64.64 63.77 66.13"/><polyline class="cls-3" points="69.57 64.02 69.03 62.53 75.13 60.31 75.67 61.8"/><line class="cls-3" x1="72.08" y1="61.42" x2="72.81" y2="63.42"/><polyline class="cls-3" points="79.82 60.29 79.28 58.8 85.38 56.58 85.92 58.06"/><line class="cls-3" x1="82.33" y1="57.69" x2="83.06" y2="59.69"/><polyline class="cls-3" points="80.63 48.64 79.05 48.64 79.05 45.6"/><polyline class="cls-3" points="80.63 41.94 79.05 41.94 79.05 44.99"/><polyline class="cls-3" points="80.63 37.45 79.05 37.45 79.05 30.95 80.63 30.95"/><line class="cls-3" x1="79.05" y1="34.2" x2="81.18" y2="34.2"/><polyline class="cls-3" points="109.21 26.46 110.79 26.46 110.79 30.6 109.21 30.6"/><polyline class="cls-3" points="109.21 34.05 110.79 34.05 110.79 37.45 109.21 37.45"/><polyline class="cls-3" points="109.21 41.94 110.79 41.94 110.79 44.99"/><polyline class="cls-3" points="110.79 45.6 110.79 48.64 109.21 48.64"/><polyline class="cls-3" points="106.88 62.08 108.37 61.54 110.08 66.26 108.57 66.81"/><polyline class="cls-3" points="107.98 70.4 109.49 69.85 111.87 76.39 105.58 78.68 105.03 77.17"/><polyline class="cls-3" points="67.23 93.71 67.54 94.57 63.72 95.96 63.41 95.12"/><line class="cls-3" x1="95.95" y1="45.29" x2="93.28" y2="45.29"/><line class="cls-3" x1="98.48" y1="65.55" x2="97" y2="66.09"/><polyline class="cls-3" points="99.91 64.85 98.42 65.39 99.39 68.06 97.92 68.6"/><line class="cls-3" x1="99.34" y1="67.9" x2="100.82" y2="67.36"/><polyline class="cls-3" points="61.75 74.6 60.4 75.09 61.88 79.16 63.37 78.62"/><line class="cls-3" x1="60.29" y1="79.39" x2="61.77" y2="78.85"/><line class="cls-3" x1="60.96" y1="76.63" x2="59.73" y2="77.86"/><polyline class="cls-3" points="99.11 32.6 97.53 32.6 97.53 29.6 95.95 29.6"/><line class="cls-3" x1="99.11" y1="29.93" x2="97.53" y2="29.93"/><line class="cls-3" x1="95.95" y1="32.27" x2="97.53" y2="32.27"/><line class="cls-3" x1="40.42" y1="15.57" x2="40.42" y2="13.44"/><polyline class="cls-3" points="93.68 81.66 97.25 80.36 97.14 80.04"/><line class="cls-3" x1="82.23" y1="85.82" x2="85.57" y2="84.61"/><polyline class="cls-3" points="74.37 88.71 74.56 89.24 71 90.54"/><polyline class="cls-3" points="103.24 13.85 103.24 12.27 110.79 12.27 110.79 19.19 109.21 19.19"/><polyline class="cls-3" points="80.63 19.19 79.05 19.19 79.05 12.27 86.6 12.27 86.6 13.85"/><polyline class="cls-3" points="80.63 22.77 79.05 22.77 79.05 26.17 80.63 26.17"/><polyline class="cls-3" points="37.17 15.02 37.17 13.44 43.67 13.44 43.67 15.02"/><line class="cls-3" x1="51.33" y1="15.57" x2="51.33" y2="13.44"/><polyline class="cls-3" points="48.08 15.02 48.08 13.44 54.58 13.44 54.58 15.02"/><polyline class="cls-3" points="58.96 15.02 58.96 13.44 62.38 13.44 62.38 15.02"/><polyline class="cls-3" points="65.97 15.02 65.97 13.44 72.82 13.44 72.82 20.99 71.31 20.99"/><polygon class="cls-3" points="2.98 21.16 2.98 20.7 3.52 20.7 3.52 15.57 8.39 15.57 8.39 15.02 15.98 15.02 15.98 15.57 19.79 15.57 19.79 15.02 26.51 15.02 26.51 15.57 32.45 15.57 32.45 15.02 37.42 15.02 37.42 15.57 43.36 15.57 43.36 15.02 48.33 15.02 48.33 15.57 54.27 15.57 54.27 15.02 59.24 15.02 59.24 15.57 62.1 15.57 62.1 15.02 66.25 15.02 66.25 15.57 70.76 15.57 70.76 20.71 71.31 20.71 71.31 26.07 70.76 26.07 70.76 32.55 71.31 32.55 71.31 37.91 70.76 37.91 70.76 43.05 66.25 43.05 66.25 43.6 58.35 43.6 58.35 43.05 50.46 43.05 50.46 43.6 45.51 43.6 45.51 43.05 39.57 43.05 39.57 43.6 33.06 43.6 33.06 43.05 28.62 43.05 28.62 43.6 22.08 43.6 22.08 43.05 19.44 43.05 19.44 43.6 18.98 43.6 18.98 41.52 15.49 41.52 15.49 40.98 10.81 40.98 10.81 38.01 10.27 38.01 10.27 36.38 7.15 36.38 7.15 31.87 3.89 31.87 3.89 21.16 2.98 21.16"/><rect class="cls-3" x="10.39" y="28.28" width="53.87" height="2.06"/><line class="cls-3" x1="10.39" y1="29.31" x2="3.89" y2="29.31"/><polyline class="cls-3" points="19.11 30.34 19.11 41.52 18.98 41.52"/><line class="cls-3" x1="24.56" y1="30.34" x2="24.56" y2="43.6"/><polyline class="cls-3" points="30.09 30.34 30.09 33.58 37 33.58 37 30.34"/><polyline class="cls-3" points="37.06 43.6 37.06 33.58 37 33.58"/><line class="cls-3" x1="42.51" y1="43.05" x2="42.51" y2="30.34"/><line class="cls-3" x1="47.96" y1="43.6" x2="47.96" y2="30.34"/><line class="cls-3" x1="53.42" y1="43.05" x2="53.42" y2="31.42"/><polyline class="cls-3" points="53.37 30.42 53.37 31.42 56.02 31.42 56.02 30.34"/><polyline class="cls-3" points="59.18 30.34 59.18 36.8 62.27 36.8 62.27 30.34"/><line class="cls-3" x1="62.24" y1="43.6" x2="62.24" y2="36.8"/><line class="cls-3" x1="70.76" y1="29.31" x2="64.26" y2="29.31"/><polyline class="cls-3" points="62.24 28.28 62.24 15.57 62.1 15.57"/><line class="cls-3" x1="56.78" y1="28.28" x2="56.78" y2="15.02"/><line class="cls-3" x1="51.33" y1="28.28" x2="51.33" y2="15.57"/><line class="cls-3" x1="45.87" y1="28.28" x2="45.87" y2="15.02"/><line class="cls-3" x1="40.42" y1="28.28" x2="40.42" y2="15.57"/><line class="cls-3" x1="34.97" y1="28.28" x2="34.97" y2="15.02"/><line class="cls-3" x1="29.51" y1="28.28" x2="29.51" y2="15.57"/><line class="cls-3" x1="24.06" y1="28.28" x2="24.06" y2="15.02"/><polyline class="cls-3" points="12.38 28.17 12.38 21.8 15.47 21.8 15.47 28.28"/><polyline class="cls-3" points="18.34 28.28 18.34 27.2 15.47 27.2"/><line class="cls-3" x1="12.42" y1="21.8" x2="12.42" y2="15.02"/><polygon class="cls-3" points="81.18 14.4 86.32 14.4 86.32 13.85 91.67 13.85 91.67 14.4 98.16 14.4 98.16 13.85 103.49 13.85 103.49 14.4 108.66 14.4 108.66 18.9 109.21 18.9 109.21 26.74 108.66 26.74 108.66 30.32 109.21 30.32 109.21 34.33 108.66 34.33 108.66 37.17 109.21 37.17 109.21 42.22 108.66 42.22 108.66 44.99 111.46 44.99 111.46 45.6 108.66 45.6 108.66 48.36 109.21 48.36 109.21 51.06 103.15 51.06 103.15 51.86 103.16 51.87 106.97 62.34 106.46 62.53 107.95 66.63 108.44 66.45 108.58 66.83 106.9 67.44 108.07 70.64 107.54 70.83 109.1 75.09 105.08 76.56 105.27 77.08 96.9 80.13 96.4 78.75 93.06 79.96 93.69 81.68 85.58 84.63 84.95 82.91 81.61 84.13 82.24 85.85 74.13 88.8 73.51 87.08 70.18 88.29 71.57 92.13 66.99 93.8 66.38 92.1 63.06 93.31 63.68 95.02 57.82 97.15 57.63 96.64 53.39 98.18 52 94.36 51.49 94.55 50.05 90.59 52.31 89.76 50.9 85.88 52.87 85.16 49.97 77.2 50.49 77.02 48.73 72.18 52.84 70.69 52.65 70.17 59.9 67.53 60.09 68.05 63.67 66.74 63.48 66.23 69.83 63.92 70.02 64.43 75.6 62.4 75.41 61.89 80.08 60.19 80.27 60.7 85.85 58.67 85.66 58.16 87.61 57.45 87.61 51.06 80.63 51.06 80.63 48.36 81.18 48.36 81.18 45.6 78.79 45.6 78.79 44.99 81.18 44.99 81.18 42.22 80.63 42.22 80.63 37.17 81.18 37.17 81.18 31.23 80.63 31.23 80.63 25.89 81.18 25.89 81.18 23.05 80.63 23.05 80.63 18.9 81.18 18.9 81.18 14.4"/><polyline class="cls-3" points="95.31 68.75 92.92 62.18 90.21 63.16 92.6 69.74"/><polyline class="cls-3" points="90.6 63.02 90.6 61.92 92.52 61.92 92.65 62.27"/><polyline class="cls-3" points="92.92 62.18 92.87 62.04 93.89 61.66 93.89 48.11 93.64 47.96 93.28 47.76 93.28 42.82 93.89 42.47 93.89 20.9 95.95 20.9 95.95 63.22 98.58 70.4 96.91 71.01 96.7 70.44 57.69 84.64 56.99 82.7 95.31 68.75"/><polyline class="cls-3" points="93.89 58.88 92.74 58.88 92.74 61.92 92.52 61.92"/><polyline class="cls-3" points="93.89 22.87 92.81 22.87 92.81 25.6 93.89 25.6"/><polyline class="cls-3" points="95.95 27.76 99.11 27.76 99.11 34.2 95.95 34.2"/><polyline class="cls-3" points="96.34 64.28 99.3 63.2 101.53 69.3 98.57 70.37"/><polyline class="cls-3" points="60.97 81.25 58.73 75.11 61.7 74.03 63.93 80.18"/><polyline class="cls-3" points="66.65 79.19 66.28 78.17 63.56 79.16"/><line class="cls-3" x1="94.92" y1="20.9" x2="94.92" y2="14.4"/><line class="cls-3" x1="95.95" y1="22.92" x2="109.21" y2="22.92"/><polyline class="cls-3" points="108.66 34.33 108.66 34.2 99.11 34.2"/><line class="cls-3" x1="109.21" y1="39.65" x2="95.95" y2="39.65"/><line class="cls-3" x1="95.95" y1="45.29" x2="111.46" y2="45.29"/><line class="cls-3" x1="78.79" y1="45.29" x2="93.28" y2="45.29"/><polyline class="cls-3" points="95.95 58.61 101.66 58.61 105.15 57.34"/><polyline class="cls-3" points="106.9 67.44 106.86 67.32 101.52 69.29"/><polyline class="cls-3" points="63.06 93.31 62.94 93.36 59.52 83.97"/><polyline class="cls-3" points="52.87 85.16 52.92 85.28 57.34 83.67"/><line class="cls-3" x1="56.55" y1="68.75" x2="58.85" y2="75.07"/><line class="cls-3" x1="67.49" y1="64.77" x2="72.03" y2="77.23"/><line class="cls-3" x1="72.81" y1="63.42" x2="77.15" y2="75.36"/><line class="cls-3" x1="77.74" y1="61.04" x2="82.28" y2="73.5"/><line class="cls-3" x1="83.06" y1="59.69" x2="87.4" y2="71.63"/><polyline class="cls-3" points="87.61 57.45 87.74 57.45 87.74 58.36 90.65 58.36 90.65 61.92"/><line class="cls-3" x1="80.63" y1="39.65" x2="93.89" y2="39.65"/><line class="cls-3" x1="81.18" y1="34.2" x2="93.89" y2="34.2"/><line class="cls-3" x1="80.63" y1="28.75" x2="93.89" y2="28.75"/><polyline class="cls-3" points="81.18 23.05 81.18 22.92 92.81 22.92"/><polyline class="cls-3" points="73.51 87.08 73.6 87.05 70.97 79.81"/><polyline class="cls-3" points="84.95 82.91 85.05 82.88 82.41 75.64"/><polyline class="cls-3" points="96.4 78.75 96.49 78.71 93.86 71.48"/><g class="cls-8"><rect class="cls-3" x="-233.98" y="-436.96" width="450.14" height="582.54"/></g><g><path class="cls-10" d="M82.84,94.87v3.91h2.46v.5h-3.07v-4.41h.61Z"/><path class="cls-10" d="M89.04,99.28h-3.15v-4.41h3.08v.5h-2.49v1.39h1.98v.5h-1.98v1.52h2.56v.5Z"/><path class="cls-10" d="M91.11,99.28l-1.77-4.41h.62l1.49,3.71h.03l1.45-3.71h.62l-1.78,4.41h-.66Z"/><path class="cls-10" d="M97.2,99.28h-3.15v-4.41h3.08v.5h-2.49v1.39h1.98v.5h-1.98v1.52h2.56v.5Z"/><path class="cls-10" d="M98.5,94.87v3.91h2.46v.5h-3.07v-4.41h.61Z"/><path class="cls-10" d="M105.82,98.76v.53h-3.24v-.35l1.25-1.07c.69-.6,1.21-1.05,1.21-1.69,0-.52-.29-.88-.88-.88s-.94,.38-.94,1.03c0,.13,.01,.27,.05,.4l-.6-.03c-.03-.14-.05-.28-.05-.41,0-.9,.61-1.48,1.55-1.48,1.03,0,1.5,.6,1.5,1.35,0,.8-.68,1.41-1.32,1.93l-.83,.69h2.3Z"/><path class="cls-10" d="M106.09,97.24h1.61v.52h-1.61v-.52Z"/><path class="cls-10" d="M111.29,95.42h-2.12c0,.24-.11,1.14-.16,1.37,.2-.25,.56-.45,1.05-.45,1,0,1.52,.67,1.52,1.48,0,.92-.64,1.55-1.6,1.55-1.06,0-1.67-.67-1.62-1.65l.59,.05c0,.67,.36,1.11,1.05,1.11,.62,0,1-.41,1-1.06,0-.58-.38-1.01-1-1.01-.49,0-.81,.26-.97,.56l-.6-.04c.11-.61,.26-1.74,.28-2.46h2.58v.55Z"/></g><g class="cls-9"><rect class="cls-5" x="-512.86" y="-649.68" width="678.3" height="877.8"/></g><g><path class="cls-10" d="M8.51,4h.02l.65-2.62h.41l-.81,3.15h-.5l-.66-2.52h-.02l-.67,2.52h-.5l-.81-3.15h.42l.66,2.61h.02l.69-2.61h.41l.7,2.62Z"/><path class="cls-10" d="M12.19,4.53h-2.25V1.38h2.2v.36h-1.78v.99h1.42v.36h-1.42v1.09h1.83v.36Z"/><path class="cls-10" d="M12.84,3.38c.02,.58,.42,.87,.95,.87,.47,0,.77-.2,.77-.55,0-.29-.19-.43-.6-.51l-.62-.12c-.47-.09-.79-.34-.79-.83,0-.55,.44-.93,1.13-.93,.79,0,1.25,.42,1.25,1.13l-.4,.02c-.02-.52-.33-.82-.85-.82-.46,0-.71,.21-.71,.57,0,.31,.21,.41,.57,.48l.57,.11c.58,.11,.87,.36,.87,.87,0,.58-.5,.92-1.18,.92-.78,0-1.34-.42-1.34-1.19l.39-.03Z"/><path class="cls-10" d="M16.23,4.53V1.74h-1.15v-.36h2.74v.36h-1.17v2.79h-.43Z"/><path class="cls-10" d="M20.47,4.53h-1.34V1.38h1.29c.78,0,1.1,.34,1.1,.84,0,.37-.26,.62-.6,.68,.39,.07,.69,.32,.69,.77,0,.55-.4,.87-1.14,.87Zm-.92-1.79h.88c.46,0,.65-.2,.65-.5s-.19-.51-.65-.51h-.88v1.01Zm0,.34v1.1h.91c.47,0,.72-.21,.72-.55s-.25-.55-.72-.55h-.91Z"/><path class="cls-10" d="M22.05,3.33V1.38h.43v1.95c0,.6,.3,.9,.85,.9s.86-.29,.86-.89V1.38h.42v1.95c0,.92-.57,1.27-1.28,1.27s-1.28-.34-1.28-1.27Z"/><path class="cls-10" d="M25.6,1.38v3.15h-.43V1.38h.43Z"/><path class="cls-10" d="M26.65,1.38v2.79h1.76v.36h-2.19V1.38h.43Z"/><path class="cls-10" d="M28.83,1.38h1.14c.99,0,1.62,.59,1.62,1.58s-.63,1.58-1.62,1.58h-1.14V1.38Zm1.12,2.8c.77,0,1.19-.46,1.19-1.22s-.42-1.22-1.19-1.22h-.68v2.44h.68Z"/><path class="cls-10" d="M32.48,1.38v3.15h-.44V1.38h.44Z"/><path class="cls-10" d="M35.27,3.79V1.38h.41v3.15h-.35l-1.83-2.53v2.53h-.41V1.38h.45l1.73,2.41Z"/><path class="cls-10" d="M36.14,2.96c0-.97,.67-1.64,1.54-1.64s1.41,.5,1.46,1.3l-.42,.03c-.04-.58-.41-.96-1.04-.96s-1.1,.49-1.1,1.27,.46,1.27,1.14,1.27c.59,0,.97-.37,1.03-.91h-.96v-.34h1.36v1.56h-.4v-.56c-.14,.4-.58,.62-1.08,.62-.89,0-1.54-.66-1.54-1.64Z"/></g><g><path class="cls-10" d="M81.35,4.53h-2.25V1.38h2.2v.36h-1.78v.99h1.42v.36h-1.42v1.09h1.83v.36Z"/><path class="cls-10" d="M83.36,1.38l1.31,3.15h-.46l-.38-.93h-1.44l-.37,.93h-.42l1.29-3.15h.48Zm-.83,1.88h1.16l-.58-1.4h-.02l-.57,1.4Z"/><path class="cls-10" d="M85.2,3.38c.02,.58,.42,.87,.95,.87,.47,0,.77-.2,.77-.55,0-.29-.19-.43-.6-.51l-.62-.12c-.47-.09-.79-.34-.79-.83,0-.55,.44-.93,1.13-.93,.79,0,1.25,.42,1.25,1.13l-.4,.02c-.02-.52-.33-.82-.85-.82-.46,0-.71,.21-.71,.57,0,.31,.21,.41,.57,.48l.57,.11c.58,.11,.87,.36,.87,.87,0,.58-.5,.92-1.18,.92-.78,0-1.34-.42-1.34-1.19l.39-.03Z"/><path class="cls-10" d="M88.59,4.53V1.74h-1.15v-.36h2.74v.36h-1.17v2.79h-.43Z"/><path class="cls-10" d="M92.83,4.53h-1.34V1.38h1.29c.78,0,1.1,.34,1.1,.84,0,.37-.26,.62-.6,.68,.39,.07,.69,.32,.69,.77,0,.55-.4,.87-1.14,.87Zm-.92-1.79h.88c.46,0,.65-.2,.65-.5s-.2-.51-.65-.51h-.88v1.01Zm0,.34v1.1h.91c.47,0,.72-.21,.72-.55s-.25-.55-.72-.55h-.91Z"/><path class="cls-10" d="M94.41,3.33V1.38h.43v1.95c0,.6,.3,.9,.85,.9s.86-.29,.86-.89V1.38h.43v1.95c0,.92-.57,1.27-1.28,1.27s-1.28-.34-1.28-1.27Z"/><path class="cls-10" d="M97.96,1.38v3.15h-.44V1.38h.44Z"/><path class="cls-10" d="M99.01,1.38v2.79h1.76v.36h-2.19V1.38h.44Z"/><path class="cls-10" d="M101.19,1.38h1.14c.99,0,1.62,.59,1.62,1.58s-.62,1.58-1.62,1.58h-1.14V1.38Zm1.12,2.8c.77,0,1.19-.46,1.19-1.22s-.42-1.22-1.19-1.22h-.68v2.44h.68Z"/><path class="cls-10" d="M104.84,1.38v3.15h-.43V1.38h.43Z"/><path class="cls-10" d="M107.63,3.79V1.38h.41v3.15h-.34l-1.83-2.53v2.53h-.41V1.38h.45l1.73,2.41Z"/><path class="cls-10" d="M108.5,2.96c0-.97,.67-1.64,1.54-1.64s1.41,.5,1.46,1.3l-.42,.03c-.04-.58-.41-.96-1.04-.96s-1.1,.49-1.1,1.27,.46,1.27,1.14,1.27c.59,0,.97-.37,1.03-.91h-.96v-.34h1.36v1.56h-.4v-.56c-.14,.4-.58,.62-1.08,.62-.89,0-1.54-.66-1.54-1.64Z"/></g></g></g></g></svg>