<?xml version="1.0" encoding="UTF-8"?><svg id="Layer_1" xmlns="http://www.w3.org/2000/svg" xmlns:xlink="http://www.w3.org/1999/xlink" viewBox="0 0 113.19 102.18"><defs><style>.cls-1{clip-path:url(#clippath-11);}.cls-2{stroke-width:.51px;}.cls-2,.cls-3,.cls-4{stroke-linecap:round;stroke-linejoin:round;}.cls-2,.cls-3,.cls-4,.cls-5{fill:none;}.cls-2,.cls-4{stroke:#000;}.cls-3{stroke:#ebebec;}.cls-3,.cls-4{stroke-width:.31px;}.cls-6{clip-path:url(#clippath-6);}.cls-7{clip-path:url(#clippath-1);}.cls-8{fill:#f1b784;fill-rule:evenodd;}.cls-9{clip-path:url(#clippath-9);}.cls-10{clip-path:url(#clippath);}.cls-11{fill:#333132;}</style><clipPath id="clippath"><rect class="cls-5" x="-1094.03" y="-673.16" width="1224" height="792"/></clipPath><clipPath id="clippath-1"><rect class="cls-5" x="-1094.03" y="-673.16" width="1224" height="792"/></clipPath><clipPath id="clippath-6"><rect class="cls-5" x="-908.03" y="-581.96" width="399.96" height="590.96"/></clipPath><clipPath id="clippath-9"><rect class="cls-5" x="-381.75" y="-458.74" width="288.82" height="428.78"/></clipPath><clipPath id="clippath-11"><rect class="cls-5" x="-7.23" y="-3.83" width="133.2" height="111.6"/></clipPath></defs><g class="cls-10"><g class="cls-7"><g><path class="cls-11" d="M88.58,96.42v3.91h2.46v.5h-3.07v-4.41h.61Z"/><path class="cls-11" d="M94.79,100.84h-3.15v-4.41h3.08v.5h-2.49v1.39h1.98v.5h-1.98v1.52h2.56v.5Z"/><path class="cls-11" d="M96.86,100.84l-1.77-4.41h.62l1.49,3.71h.03l1.45-3.71h.62l-1.78,4.41h-.66Z"/><path class="cls-11" d="M102.95,100.84h-3.15v-4.41h3.08v.5h-2.49v1.39h1.98v.5h-1.98v1.52h2.56v.5Z"/><path class="cls-11" d="M104.25,96.42v3.91h2.46v.5h-3.07v-4.41h.61Z"/><path class="cls-11" d="M108.91,98.8c.15-.51,.6-.9,1.32-.9,.95,0,1.55,.62,1.55,1.49,0,.91-.62,1.53-1.61,1.53-1.18,0-1.79-.85-1.79-2.21s.58-2.37,1.82-2.37c.88,0,1.46,.5,1.54,1.33l-.58,.02c-.08-.52-.37-.87-.97-.87-.9,0-1.28,.82-1.27,1.97Zm1.25,1.63c.65,0,1.04-.41,1.04-1.02s-.39-1.03-1.06-1.03-1.05,.41-1.05,1.03,.41,1.02,1.07,1.02Z"/></g></g><g class="cls-6"><rect class="cls-2" x="-1097.19" y="-739.97" width="1492.26" height="965.58"/></g><g class="cls-9"><rect class="cls-2" x="-1335.08" y="-739.97" width="1492.26" height="965.58"/></g><polygon class="cls-8" points="60.78 79.83 58.54 73.69 58.66 73.64 56.36 67.33 52.46 68.75 52.65 69.26 48.53 70.76 50.3 75.59 49.78 75.78 52.68 83.74 52.73 83.86 57.15 82.25 56.79 81.28 60.78 79.83"/><polygon class="cls-3" points="60.78 79.83 58.54 73.68 58.66 73.64 56.36 67.33 52.46 68.75 52.65 69.26 48.54 70.76 50.29 75.59 49.78 75.78 52.68 83.74 52.72 83.86 57.15 82.25 56.79 81.28 60.78 79.83"/><line class="cls-4" x1="33.35" y1="32.15" x2="33.35" y2="28.91"/><polyline class="cls-4" points="36.81 32.15 33.35 28.91 29.89 32.15"/><polyline class="cls-4" points="36.81 28.92 33.35 32.15 29.89 28.92"/><line class="cls-4" x1="91.21" y1="65.03" x2="93.92" y2="64.04"/><polyline class="cls-4" points="92.41 68.31 93.92 64.04 90.02 61.74"/><polyline class="cls-4" points="95.12 67.33 91.21 65.03 92.73 60.75"/><polyline class="cls-4" points="89.28 55.35 88.63 53.57 88.63 18.23 106.43 18.23 106.43 43.56"/><polyline class="cls-4" points="106.43 44.17 106.43 44.48 99.5 47.01 100.99 51.09"/><polyline class="cls-4" points="2.79 19.57 1.63 19.57 1.63 12.01 8.48 12.01 8.48 13.6"/><polyline class="cls-4" points="15.51 13.6 15.51 12.01 19.88 12.01 19.88 13.6"/><polyline class="cls-4" points="26.07 13.6 26.07 12.01 32.57 12.01 32.57 13.6"/><line class="cls-4" x1="29.32" y1="12.01" x2="29.32" y2="14.14"/><polyline class="cls-4" points="36.98 13.6 36.98 12.01 43.48 12.01 43.48 13.6"/><polyline class="cls-4" points="47.89 13.6 47.89 12.01 54.38 12.01 54.38 13.6"/><line class="cls-4" x1="51.14" y1="14.14" x2="51.14" y2="12.02"/><polyline class="cls-4" points="58.76 13.6 58.76 12.01 62.09 12.01 62.09 13.6"/><polyline class="cls-4" points="65.78 13.6 65.78 12.01 72.63 12.01 72.63 19.57 71.11 19.57"/><polyline class="cls-4" points="71.11 36.2 72.63 36.2 72.63 43.75 65.78 43.75 65.78 42.17"/><polyline class="cls-4" points="58.44 42.17 58.44 43.75 49.99 43.75 49.99 42.17"/><line class="cls-4" x1="53.23" y1="41.63" x2="53.23" y2="43.75"/><polyline class="cls-4" points="45.57 42.17 45.57 43.75 39.07 43.75 39.07 42.17"/><line class="cls-4" x1="42.32" y1="41.63" x2="42.32" y2="43.75"/><polyline class="cls-4" points="33.14 42.17 33.14 43.75 28.15 43.75 28.15 42.17"/><polyline class="cls-4" points="22.17 42.17 22.17 43.75 18.84 43.75 18.84 42.18"/><polyline class="cls-4" points="15.58 40.1 15.58 41.68 12.08 41.68 12.08 39.55"/><polyline class="cls-4" points="15.28 25.23 13.73 25.23 13.73 20.38"/><line class="cls-4" x1="13.73" y1="24.88" x2="12.19" y2="24.88"/><line class="cls-4" x1="12.19" y1="23.24" x2="13.73" y2="22.52"/><polyline class="cls-4" points="62.08 30.75 60.54 30.75 60.54 35.38"/><line class="cls-4" x1="58.99" y1="33.51" x2="60.54" y2="32.79"/><line class="cls-4" x1="58.99" y1="31.15" x2="60.54" y2="31.15"/><polyline class="cls-4" points="87.42 56.03 87.42 49.63 80.44 49.63 80.44 44.17 78.6 44.17 78.6 43.56 80.44 43.56 80.44 35.74 80.44 29.8 80.44 24.47 80.44 21.63 80.44 12.43 100.99 12.43 100.99 12.97 108.47 12.97 108.47 17.48 109.01 17.48 109.01 25.31 109.01 28.9 109.01 32.9 109.01 35.74 109.01 43.56 111.27 43.56 111.27 44.17 109.01 44.17 109.01 49.63 102.96 49.63 102.96 50.42"/><polyline class="cls-4" points="57.89 95.63 58.19 96.48 51.69 98.84 49.71 93.4 51.2 92.86"/><polyline class="cls-4" points="49.88 76.04 48.33 76.6 45.75 69.51 52.18 67.16 52.72 68.65"/><polyline class="cls-4" points="59.48 66.2 58.93 64.71 63.04 63.21 63.58 64.7"/><polyline class="cls-4" points="69.37 62.59 68.83 61.11 74.94 58.88 75.48 60.37"/><line class="cls-4" x1="71.89" y1="59.99" x2="72.61" y2="61.99"/><polyline class="cls-4" points="79.62 58.86 79.08 57.37 85.19 55.15 85.73 56.64"/><line class="cls-4" x1="82.14" y1="56.26" x2="82.86" y2="58.26"/><polyline class="cls-4" points="106.69 60.66 108.17 60.11 109.89 64.83 108.38 65.39"/><polyline class="cls-4" points="67.11 92.28 67.42 93.12 63.53 94.53 63.22 93.69"/><line class="cls-4" x1="98.29" y1="64.13" x2="96.81" y2="64.67"/><polyline class="cls-4" points="99.71 63.43 98.23 63.96 99.2 66.63 97.73 67.17"/><line class="cls-4" x1="99.14" y1="66.47" x2="100.63" y2="65.93"/><polyline class="cls-4" points="61.56 73.17 60.21 73.66 61.69 77.73 63.17 77.19"/><line class="cls-4" x1="60.1" y1="77.96" x2="61.58" y2="77.42"/><line class="cls-4" x1="60.77" y1="75.21" x2="59.54" y2="76.44"/><polyline class="cls-4" points="99.02 31.17 97.34 31.17 97.34 27.51 95.66 27.51"/><line class="cls-4" x1="99.02" y1="28.1" x2="97.34" y2="28.1"/><line class="cls-4" x1="95.66" y1="30.84" x2="97.34" y2="30.84"/><rect class="cls-4" x="105.3" y="43.56" width="5.97" height=".61"/><rect class="cls-4" x="78.6" y="43.56" width="5.55" height=".61"/><polyline class="cls-4" points="107.79 68.98 109.3 68.42 111.45 74.32 105.16 76.61 104.84 75.74"/><polyline class="cls-4" points="93.48 80.23 97.06 78.93 96.95 78.61"/><line class="cls-4" x1="82.04" y1="84.4" x2="85.38" y2="83.18"/><polyline class="cls-4" points="74.18 87.29 74.37 87.81 70.8 89.11"/><polygon class="cls-4" points="2.79 19.73 2.79 19.27 3.33 19.27 3.33 14.14 8.2 14.14 8.2 13.6 15.79 13.6 15.79 14.14 19.6 14.14 19.6 13.6 26.32 13.6 26.32 14.14 32.26 14.14 32.26 13.6 37.23 13.6 37.23 14.14 43.17 14.14 43.17 13.6 48.14 13.6 48.14 14.14 54.07 14.14 54.07 13.6 59.04 13.6 59.04 14.14 61.91 14.14 61.91 13.6 66.06 13.6 66.06 14.14 70.57 14.14 70.57 19.29 71.11 19.29 71.11 24.64 70.57 24.64 70.57 31.13 71.11 31.13 71.11 36.48 70.57 36.48 70.57 41.63 66.06 41.63 66.06 42.17 58.16 42.17 58.16 41.63 50.27 41.63 50.27 42.17 45.32 42.17 45.32 41.63 39.38 41.63 39.38 42.17 32.86 42.17 32.86 41.63 28.43 41.63 28.43 42.17 21.89 42.17 21.89 41.63 19.25 41.63 19.25 42.18 18.79 42.18 18.79 40.1 15.3 40.1 15.3 39.55 10.62 39.55 10.62 36.59 10.07 36.59 10.07 34.95 6.96 34.95 6.96 30.44 3.7 30.44 3.7 19.73 2.79 19.73"/><rect class="cls-4" x="10.2" y="26.85" width="53.87" height="2.06"/><line class="cls-4" x1="10.2" y1="27.88" x2="3.7" y2="27.88"/><polyline class="cls-4" points="18.92 28.92 18.92 40.1 18.79 40.1"/><line class="cls-4" x1="24.37" y1="28.92" x2="24.37" y2="42.17"/><polyline class="cls-4" points="29.89 28.92 29.89 32.15 36.81 32.15 36.81 28.92"/><polyline class="cls-4" points="36.86 42.17 36.86 32.15 36.81 32.15"/><line class="cls-4" x1="42.32" y1="41.63" x2="42.32" y2="28.92"/><line class="cls-4" x1="47.77" y1="42.17" x2="47.77" y2="28.91"/><line class="cls-4" x1="53.23" y1="41.63" x2="53.23" y2="30"/><polyline class="cls-4" points="53.17 28.99 53.17 30 55.83 30 55.83 28.92"/><polyline class="cls-4" points="58.99 28.92 58.99 35.38 62.08 35.38 62.08 28.92"/><line class="cls-4" x1="62.04" y1="42.17" x2="62.04" y2="35.38"/><line class="cls-4" x1="70.57" y1="27.88" x2="64.07" y2="27.88"/><polyline class="cls-4" points="62.04 26.85 62.04 14.14 61.91 14.14"/><line class="cls-4" x1="56.59" y1="26.85" x2="56.59" y2="13.6"/><line class="cls-4" x1="51.14" y1="26.85" x2="51.14" y2="14.14"/><line class="cls-4" x1="45.68" y1="26.85" x2="45.68" y2="13.6"/><line class="cls-4" x1="40.23" y1="26.85" x2="40.23" y2="14.14"/><line class="cls-4" x1="34.77" y1="26.85" x2="34.77" y2="13.6"/><line class="cls-4" x1="29.32" y1="26.85" x2="29.32" y2="14.14"/><line class="cls-4" x1="23.87" y1="26.85" x2="23.87" y2="13.6"/><polyline class="cls-4" points="12.19 26.74 12.19 20.38 15.28 20.38 15.28 26.85"/><polyline class="cls-4" points="18.15 26.85 18.15 25.77 15.28 25.77"/><line class="cls-4" x1="12.23" y1="20.38" x2="12.23" y2="13.6"/><polygon class="cls-4" points="102.94 50.37 106.78 60.92 106.27 61.11 107.76 65.2 108.25 65.03 108.38 65.41 106.71 66.02 107.88 69.22 107.35 69.41 108.9 73.67 104.89 75.13 105.08 75.65 96.71 78.7 96.21 77.32 92.87 78.54 93.49 80.26 85.39 83.21 84.76 81.49 81.42 82.71 82.05 84.42 73.94 87.38 73.31 85.66 69.98 86.87 71.38 90.71 66.84 92.35 66.22 90.66 62.86 91.89 63.49 93.6 57.62 95.73 57.44 95.22 53.2 96.76 51.81 92.94 51.3 93.12 49.86 89.17 52.12 88.34 50.71 84.45 52.68 83.74 49.78 75.78 50.3 75.59 48.54 70.76 52.65 69.26 52.46 68.75 59.71 66.11 59.9 66.62 63.48 65.32 63.29 64.81 69.64 62.5 69.82 63.01 75.4 60.98 75.22 60.47 79.89 58.77 80.07 59.28 85.65 57.25 85.47 56.74 102.94 50.37"/><polyline class="cls-4" points="95.12 67.33 92.73 60.75 90.02 61.74 92.41 68.31"/><polyline class="cls-4" points="95.3 60.55 98.39 68.97 96.3 69.74 96.09 69.17 57.5 83.21 56.79 81.28 95.12 67.33"/><rect class="cls-4" x="95.66" y="25.83" width="3.36" height="7.12"/><polyline class="cls-4" points="96.15 62.85 99.11 61.77 101.33 67.87 98.38 68.95"/><polyline class="cls-4" points="60.78 79.83 58.54 73.68 61.5 72.61 63.74 78.75"/><polyline class="cls-4" points="66.46 77.76 66.09 76.74 63.37 77.73"/><polyline class="cls-4" points="106.27 61.11 106.23 60.98 99.69 63.36"/><polyline class="cls-4" points="52.68 83.74 52.72 83.86 57.15 82.25"/><line class="cls-4" x1="56.36" y1="67.33" x2="58.66" y2="73.64"/><line class="cls-4" x1="67.3" y1="63.35" x2="71.84" y2="75.8"/><line class="cls-4" x1="72.61" y1="61.99" x2="76.96" y2="73.94"/><line class="cls-4" x1="77.55" y1="59.62" x2="82.09" y2="72.07"/><line class="cls-4" x1="82.86" y1="58.26" x2="87.21" y2="70.21"/><polyline class="cls-4" points="87.81 55.88 89.95 61.76 90.02 61.74"/><polyline class="cls-4" points="92.96 61.4 95.8 60.37 94.82 57.66 89.2 59.7"/><polyline class="cls-4" points="92.73 60.75 92.85 60.71 92.58 59.96 91.04 60.51 91.31 61.27"/><polyline class="cls-4" points="96.21 77.32 96.3 77.29 93.67 70.05"/><polyline class="cls-4" points="66.22 90.66 66.28 90.64 62.87 81.26"/><polyline class="cls-4" points="81.42 82.71 81.33 82.74 78.69 75.5"/><g class="cls-1"><rect class="cls-4" x="-391.67" y="-427.96" width="900.29" height="582.54"/></g><g><path class="cls-11" d="M4.72,3.96h.02l.65-2.62h.41l-.81,3.15h-.5l-.66-2.52h-.02l-.67,2.52h-.5L1.83,1.33h.42l.66,2.61h.02l.69-2.61h.41l.7,2.62Z"/><path class="cls-11" d="M8.4,4.49h-2.25V1.33h2.2v.36h-1.78v.99h1.42v.36h-1.42v1.09h1.83v.36Z"/><path class="cls-11" d="M9.05,3.33c.02,.58,.42,.87,.95,.87,.47,0,.77-.2,.77-.55,0-.29-.19-.43-.6-.51l-.62-.12c-.47-.09-.79-.34-.79-.83,0-.55,.44-.93,1.13-.93,.79,0,1.25,.42,1.25,1.13l-.4,.02c-.02-.52-.33-.82-.85-.82-.46,0-.71,.22-.71,.57,0,.31,.21,.41,.57,.48l.57,.11c.58,.11,.87,.36,.87,.87,0,.58-.5,.92-1.18,.92-.78,0-1.34-.43-1.34-1.19l.39-.03Z"/><path class="cls-11" d="M12.44,4.49V1.69h-1.15v-.36h2.74v.36h-1.17v2.79h-.43Z"/><path class="cls-11" d="M16.68,4.49h-1.34V1.33h1.29c.78,0,1.1,.34,1.1,.84,0,.37-.26,.62-.6,.68,.39,.07,.69,.32,.69,.77,0,.55-.4,.87-1.14,.87Zm-.92-1.79h.88c.46,0,.65-.2,.65-.5s-.19-.51-.65-.51h-.88v1.01Zm0,.34v1.1h.91c.47,0,.72-.21,.72-.54s-.25-.56-.72-.56h-.91Z"/><path class="cls-11" d="M18.26,3.28V1.33h.43v1.95c0,.6,.3,.9,.85,.9s.86-.29,.86-.89V1.33h.42v1.95c0,.92-.57,1.27-1.28,1.27s-1.28-.35-1.28-1.27Z"/><path class="cls-11" d="M21.81,1.33v3.15h-.43V1.33h.43Z"/><path class="cls-11" d="M22.85,1.33v2.79h1.76v.36h-2.19V1.33h.43Z"/><path class="cls-11" d="M25.04,1.33h1.14c.99,0,1.62,.59,1.62,1.58s-.63,1.58-1.62,1.58h-1.14V1.33Zm1.12,2.8c.77,0,1.19-.46,1.19-1.22s-.42-1.22-1.19-1.22h-.68v2.44h.68Z"/><path class="cls-11" d="M28.69,1.33v3.15h-.44V1.33h.44Z"/><path class="cls-11" d="M31.48,3.75V1.33h.41v3.15h-.35l-1.83-2.53v2.53h-.41V1.33h.45l1.73,2.41Z"/><path class="cls-11" d="M32.34,2.91c0-.97,.67-1.64,1.54-1.64s1.41,.5,1.46,1.3l-.42,.03c-.04-.58-.41-.96-1.04-.96s-1.1,.49-1.1,1.27,.46,1.27,1.14,1.27c.59,0,.97-.37,1.03-.91h-.96v-.34h1.36v1.56h-.4v-.56c-.14,.4-.58,.62-1.08,.62-.89,0-1.54-.66-1.54-1.64Z"/></g><g><path class="cls-11" d="M77.56,4.49h-2.25V1.33h2.2v.36h-1.78v.99h1.42v.36h-1.42v1.09h1.83v.36Z"/><path class="cls-11" d="M79.57,1.33l1.31,3.15h-.46l-.38-.93h-1.44l-.37,.93h-.42l1.29-3.15h.48Zm-.83,1.88h1.16l-.58-1.4h-.02l-.57,1.4Z"/><path class="cls-11" d="M81.41,3.33c.02,.58,.42,.87,.95,.87,.47,0,.77-.2,.77-.55,0-.29-.19-.43-.6-.51l-.62-.12c-.47-.09-.79-.34-.79-.83,0-.55,.44-.93,1.13-.93,.79,0,1.25,.42,1.25,1.13l-.4,.02c-.02-.52-.33-.82-.85-.82-.46,0-.71,.22-.71,.57,0,.31,.21,.41,.57,.48l.57,.11c.58,.11,.87,.36,.87,.87,0,.58-.5,.92-1.18,.92-.78,0-1.34-.43-1.34-1.19l.39-.03Z"/><path class="cls-11" d="M84.8,4.49V1.69h-1.15v-.36h2.74v.36h-1.17v2.79h-.43Z"/><path class="cls-11" d="M89.04,4.49h-1.34V1.33h1.29c.78,0,1.1,.34,1.1,.84,0,.37-.26,.62-.6,.68,.39,.07,.69,.32,.69,.77,0,.55-.4,.87-1.14,.87Zm-.92-1.79h.88c.46,0,.65-.2,.65-.5s-.2-.51-.65-.51h-.88v1.01Zm0,.34v1.1h.91c.47,0,.72-.21,.72-.54s-.25-.56-.72-.56h-.91Z"/><path class="cls-11" d="M90.62,3.28V1.33h.43v1.95c0,.6,.3,.9,.85,.9s.86-.29,.86-.89V1.33h.43v1.95c0,.92-.57,1.27-1.28,1.27s-1.28-.35-1.28-1.27Z"/><path class="cls-11" d="M94.17,1.33v3.15h-.44V1.33h.44Z"/><path class="cls-11" d="M95.22,1.33v2.79h1.76v.36h-2.19V1.33h.44Z"/><path class="cls-11" d="M97.4,1.33h1.14c.99,0,1.62,.59,1.62,1.58s-.62,1.58-1.62,1.58h-1.14V1.33Zm1.12,2.8c.77,0,1.19-.46,1.19-1.22s-.42-1.22-1.19-1.22h-.68v2.44h.68Z"/><path class="cls-11" d="M101.05,1.33v3.15h-.43V1.33h.43Z"/><path class="cls-11" d="M103.84,3.75V1.33h.41v3.15h-.34l-1.83-2.53v2.53h-.41V1.33h.45l1.73,2.41Z"/><path class="cls-11" d="M104.7,2.91c0-.97,.67-1.64,1.54-1.64s1.41,.5,1.46,1.3l-.42,.03c-.04-.58-.41-.96-1.04-.96s-1.1,.49-1.1,1.27,.46,1.27,1.14,1.27c.59,0,.97-.37,1.03-.91h-.96v-.34h1.36v1.56h-.4v-.56c-.14,.4-.58,.62-1.08,.62-.89,0-1.54-.66-1.54-1.64Z"/></g></g></svg>