<?xml version="1.0" encoding="UTF-8"?><svg xmlns="http://www.w3.org/2000/svg" xmlns:xlink="http://www.w3.org/1999/xlink" viewBox="0 0 118.23 101.65"><defs><style>.cls-1{stroke:#ededee;}.cls-1,.cls-2,.cls-3{stroke-width:.31px;}.cls-1,.cls-2,.cls-3,.cls-4,.cls-5{fill:none;}.cls-1,.cls-2,.cls-3,.cls-5{stroke-linecap:round;stroke-linejoin:round;}.cls-6{isolation:isolate;}.cls-2,.cls-3,.cls-5{stroke:#000;}.cls-7{fill:#f1b784;fill-rule:evenodd;}.cls-3{stroke-dasharray:0 0 3.94 1.97;}.cls-8{clip-path:url(#clippath);}.cls-9{clip-path:url(#clippath-3);}.cls-10{clip-path:url(#clippath-5);}.cls-11{fill:#333132;}.cls-5{stroke-width:.47px;}</style><clipPath id="clippath"><rect class="cls-4" x="-348.48" y="-648.98" width="612" height="792"/></clipPath><clipPath id="clippath-3"><rect class="cls-4" x="-21.28" y="1.02" width="283.8" height="105"/></clipPath><clipPath id="clippath-5"><rect class="cls-4" x="-348.48" y="-511.01" width="612" height="396.66"/></clipPath><clipPath id="clippath-7"><rect class="cls-4" x="-348.48" y="-648.98" width="612" height="792"/></clipPath></defs><g class="cls-6"><g id="Layer_1"><g class="cls-8"><polygon class="cls-7" points="80.87 83.34 84.31 82.09 81.67 74.85 70.22 79.02 72.86 86.26 72.76 86.29 73.39 88.01 81.5 85.06 80.87 83.34"/><polygon class="cls-1" points="80.87 83.34 84.3 82.09 81.67 74.85 70.22 79.02 72.86 86.26 72.76 86.29 73.39 88.01 81.49 85.06 80.87 83.34"/><line class="cls-2" x1="32.8" y1="32.79" x2="32.8" y2="29.55"/><polyline class="cls-2" points="36.26 32.79 32.8 29.55 29.34 32.79"/><polyline class="cls-2" points="36.26 29.55 32.8 32.79 29.34 29.55"/><line class="cls-2" x1="90.66" y1="65.66" x2="93.37" y2="64.68"/><polyline class="cls-2" points="91.86 68.95 93.37 64.68 89.47 62.37"/><polyline class="cls-2" points="94.57 67.97 90.66 65.66 92.17 61.39"/><line class="cls-3" x1="97.42" y1="69.76" x2="108.43" y2="74.34"/><line class="cls-3" x1="105.66" y1="66.73" x2="100.35" y2="77.81"/><line class="cls-2" x1="76.6" y1="14.67" x2="72.6" y2="18.05"/><line class="cls-2" x1="76.6" y1="18.05" x2="72.6" y2="14.67"/><line class="cls-2" x1="52.67" y1="42.26" x2="52.67" y2="45.86"/><line class="cls-2" x1="41.77" y1="42.26" x2="41.77" y2="45.86"/><line class="cls-2" x1="13.18" y1="25.52" x2="11.64" y2="25.52"/><line class="cls-2" x1="13.18" y1="22.56" x2="14.73" y2="21.84"/><line class="cls-2" x1="70.83" y1="59.23" x2="72.06" y2="62.63"/><line class="cls-2" x1="81.08" y1="55.5" x2="82.31" y2="58.9"/><line class="cls-2" x1="78.3" y1="33.41" x2="80.43" y2="33.41"/><polyline class="cls-2" points="106.13 61.29 107.62 60.75 109.65 66.32 106 67.65"/><line class="cls-2" x1="95.2" y1="44.5" x2="92.54" y2="44.5"/><line class="cls-2" x1="97.74" y1="64.76" x2="96.26" y2="65.3"/><polyline class="cls-2" points="99.16 64.06 97.68 64.6 98.65 67.27 97.18 67.81"/><line class="cls-2" x1="98.59" y1="67.11" x2="100.07" y2="66.57"/><polyline class="cls-2" points="61.01 73.81 59.66 74.3 61.14 78.37 62.62 77.83"/><line class="cls-2" x1="59.54" y1="78.6" x2="61.03" y2="78.06"/><line class="cls-2" x1="60.22" y1="75.84" x2="58.99" y2="77.07"/><polyline class="cls-2" points="98.37 31.81 96.79 31.81 96.79 28.81 95.2 28.81"/><line class="cls-2" x1="98.37" y1="29.14" x2="96.79" y2="29.14"/><line class="cls-2" x1="95.2" y1="31.48" x2="96.79" y2="31.48"/><polyline class="cls-2" points="47.98 71.39 47.36 71.62 46.13 68.23 54.64 65.12 55.88 68.52"/><polyline class="cls-2" points="58.76 67.47 57.53 64.07 61.18 62.74"/><line class="cls-2" x1="62.38" y1="62.31" x2="65.84" y2="61.05"/><rect class="cls-2" x="60.84" y="60.28" width="1.27" height="2.86" transform="translate(-17.39 24.73) rotate(-19.99)"/><rect class="cls-2" x="65.5" y="58.58" width="1.27" height="2.86" transform="translate(-16.54 26.24) rotate(-20)"/><rect class="cls-2" x="70.63" y="56.72" width="1.27" height="2.86" transform="translate(-15.59 27.88) rotate(-20)"/><rect class="cls-2" x="75.75" y="54.85" width="1.27" height="2.86" transform="translate(-14.64 29.53) rotate(-20)"/><rect class="cls-2" x="80.88" y="52.98" width="1.27" height="2.86" transform="translate(-13.7 31.17) rotate(-20)"/><line class="cls-2" x1="67.04" y1="60.61" x2="70.96" y2="59.18"/><line class="cls-2" x1="72.16" y1="58.75" x2="76.09" y2="57.32"/><line class="cls-2" x1="77.29" y1="56.88" x2="81.22" y2="55.45"/><polyline class="cls-2" points="82.41 55.02 84.1 54.4 85.34 57.8"/><line class="cls-2" x1="75.95" y1="57.37" x2="77.19" y2="60.76"/><line class="cls-2" x1="65.7" y1="61.1" x2="66.94" y2="64.5"/><rect class="cls-2" x="74.26" y="44.62" width="2.75" height="1.27"/><rect class="cls-2" x="74.26" y="43.12" width="2.75" height="1.27"/><line class="cls-2" x1="77.01" y1="44.39" x2="77.01" y2="44.62"/><line class="cls-2" x1="78.05" y1="44.5" x2="77.01" y2="44.5"/><polyline class="cls-2" points="76.29 45.89 76.29 50.81 79.89 50.81 79.89 50.27"/><rect class="cls-2" x="74.26" y="37.44" width="2.75" height="1.27"/><rect class="cls-2" x="74.26" y="31.99" width="2.75" height="1.27"/><line class="cls-2" x1="76.29" y1="21.98" x2="76.29" y2="31.99"/><line class="cls-2" x1="76.29" y1="33.26" x2="76.29" y2="37.45"/><line class="cls-2" x1="76.29" y1="38.72" x2="76.29" y2="43.12"/><line class="cls-2" x1="79.89" y1="38.86" x2="76.29" y2="38.86"/><line class="cls-2" x1="80.43" y1="33.41" x2="76.29" y2="33.41"/><line class="cls-2" x1="79.89" y1="27.96" x2="76.29" y2="27.96"/><line class="cls-2" x1="110.71" y1="22.14" x2="110.71" y2="44.2"/><line class="cls-2" x1="108.46" y1="38.86" x2="110.72" y2="38.86"/><line class="cls-2" x1="108.46" y1="33.54" x2="110.72" y2="33.54"/><polyline class="cls-2" points="110.71 44.81 110.71 50.01 108.46 50.01"/><rect class="cls-2" x="64.74" y="45.32" width="1.27" height="2.85"/><rect class="cls-2" x="52.82" y="45.32" width="1.27" height="2.85"/><rect class="cls-2" x="47.37" y="45.32" width="1.27" height="2.85"/><rect class="cls-2" x="42.1" y="45.32" width="1.27" height="2.85"/><rect class="cls-2" x="36.5" y="45.32" width="1.27" height="2.85"/><rect class="cls-2" x="29.09" y="45.32" width="1.27" height="2.85"/><rect class="cls-2" x="22.4" y="45.32" width="1.27" height="2.85"/><polyline class="cls-2" points="70.02 42.26 70.55 42.26 70.55 45.86 66.01 45.86"/><line class="cls-2" x1="64.74" y1="45.86" x2="60.33" y2="45.86"/><line class="cls-2" x1="58.52" y1="45.86" x2="54.09" y2="45.86"/><line class="cls-2" x1="52.82" y1="45.86" x2="48.64" y2="45.86"/><line class="cls-2" x1="47.37" y1="45.86" x2="43.37" y2="45.86"/><line class="cls-2" x1="42.1" y1="45.86" x2="37.77" y2="45.86"/><line class="cls-2" x1="36.5" y1="45.86" x2="30.37" y2="45.86"/><line class="cls-2" x1="29.09" y1="45.86" x2="23.68" y2="45.86"/><polyline class="cls-2" points="22.4 45.86 20.27 45.86 17.86 44.4 17.86 42.26 18.24 42.26"/><line class="cls-2" x1="47.22" y1="42.26" x2="47.22" y2="45.86"/><line class="cls-2" x1="36.31" y1="42.26" x2="36.31" y2="45.86"/><line class="cls-2" x1="23.82" y1="42.26" x2="23.82" y2="45.86"/><line class="cls-2" x1="60.33" y1="42.26" x2="60.33" y2="45.86"/><line class="cls-2" x1="58.52" y1="42.26" x2="58.52" y2="45.86"/><polyline class="cls-2" points="3.14 14.78 2.39 14.78 2.39 11.88 11.44 11.88 11.44 14.78"/><polyline class="cls-2" points="28.22 14.78 28.22 11.88 18.69 11.88 18.69 12.93 14.89 12.93 14.89 14.78"/><line class="cls-2" x1="23.31" y1="14.78" x2="23.31" y2="11.88"/><line class="cls-2" x1="13.18" y1="24.02" x2="11.64" y2="24.02"/><line class="cls-2" x1="13.18" y1="16.39" x2="11.64" y2="16.39"/><line class="cls-2" x1="13.18" y1="18.5" x2="14.73" y2="18.5"/><line class="cls-2" x1="13.18" y1="19.5" x2="14.73" y2="19.5"/><line class="cls-2" x1="13.18" y1="21.53" x2="14.73" y2="21.53"/><line class="cls-2" x1="59.98" y1="35.41" x2="61.53" y2="34.69"/><line class="cls-2" x1="59.98" y1="36.39" x2="61.53" y2="36.39"/><polyline class="cls-2" points="66.29 92.98 66.43 93.39 63.07 94.6 62.93 94.23"/><polyline class="cls-2" points="52.65 97.4 53.69 100.28 57.97 98.74 57.77 98.18 61.68 96.77 61.01 94.93"/><polyline class="cls-2" points="70.83 91.34 73.8 89 81.85 86.04 81.6 85.36 84.94 84.14 84.83 83.85"/><polyline class="cls-2" points="96.2 79.32 96.43 79.95 93 81.21 92.9 80.91"/><line class="cls-2" x1="73.76" y1="89.03" x2="73.39" y2="88.01"/><polygon class="cls-2" points="2.24 20.37 2.24 19.91 3.14 19.91 3.14 14.78 7.65 14.78 15.23 14.78 19.04 14.78 25.77 14.78 31.71 14.78 35.86 14.78 35.86 10.55 38.41 10.55 38.41 11.27 69.56 11.27 69.56 14.67 70.29 14.67 70.29 21.7 70.02 21.7 70.02 31.76 70.02 37.12 70.02 42.26 65.51 42.26 57.61 42.26 49.72 42.26 44.77 42.26 38.83 42.26 32.31 42.26 27.88 42.26 21.34 42.26 18.24 42.26 18.24 40.19 14.75 40.19 10.07 40.19 10.07 37.22 9.52 37.22 9.52 35.59 6.41 35.59 6.41 31.08 3.14 31.08 3.14 20.37 2.24 20.37"/><polyline class="cls-2" points="36.16 14.78 36.16 27.49 63.52 27.49 63.52 29.55 9.65 29.55 9.65 27.49 28.77 27.49 28.77 14.78"/><line class="cls-2" x1="9.65" y1="28.52" x2="3.14" y2="28.52"/><line class="cls-2" x1="14.61" y1="29.55" x2="14.61" y2="40.19"/><line class="cls-2" x1="23.82" y1="29.55" x2="23.82" y2="42.26"/><polyline class="cls-2" points="29.34 29.55 29.34 32.79 36.26 32.79 36.26 29.55"/><polyline class="cls-2" points="36.31 42.26 36.31 32.79 36.26 32.79"/><line class="cls-2" x1="41.77" y1="42.26" x2="41.77" y2="29.55"/><line class="cls-2" x1="47.22" y1="42.26" x2="47.22" y2="29.55"/><line class="cls-2" x1="52.67" y1="42.26" x2="52.67" y2="30.63"/><polyline class="cls-2" points="52.62 29.63 52.62 30.63 55.28 30.63 55.28 29.55"/><line class="cls-2" x1="58.44" y1="29.55" x2="58.44" y2="42.26"/><line class="cls-2" x1="61.53" y1="42.26" x2="61.53" y2="29.55"/><line class="cls-2" x1="70.02" y1="28.52" x2="63.52" y2="28.52"/><line class="cls-2" x1="23.31" y1="27.49" x2="23.31" y2="14.78"/><line class="cls-2" x1="11.64" y1="27.49" x2="11.64" y2="14.78"/><line class="cls-2" x1="14.73" y1="14.78" x2="14.73" y2="27.49"/><polyline class="cls-2" points="17.6 27.49 17.6 26.41 14.73 26.41"/><polyline class="cls-2" points="14.73 25.87 13.18 25.87 13.18 21.2"/><polygon class="cls-2" points="86.86 57.24 86.86 50.27 79.89 50.27 79.89 47.57 80.43 47.57 80.43 44.81 78.05 44.81 78.05 44.2 80.43 44.2 80.43 41.43 79.89 41.43 79.89 36.38 80.43 36.38 80.43 30.44 79.89 30.44 79.89 25.1 80.43 25.1 80.43 22.26 79.89 22.26 79.89 21.98 73.74 21.98 73.74 18.05 72.6 18.05 72.6 14.67 73.79 14.67 73.79 11.27 88.44 11.27 88.44 10.55 91 10.55 91 11.27 97.35 11.27 97.35 10.55 99.91 10.55 99.91 11.27 109.79 11.27 109.79 19.58 111.05 19.58 111.05 22.13 108.46 22.13 108.46 25.95 107.92 25.95 107.92 29.53 108.46 29.53 108.46 33.54 107.92 33.54 107.92 36.38 108.46 36.38 108.46 41.43 107.92 41.43 107.92 44.2 110.71 44.2 110.71 44.81 107.92 44.81 107.92 47.57 108.46 47.57 108.46 50.27 102.41 50.27 102.41 51.07 102.42 51.08 106.22 61.53 105.67 61.73 107.17 65.85 107.69 65.66 107.83 66.05 105.7 66.82 108.43 74.34 104.36 75.83 104.53 76.29 96.16 79.34 95.65 77.96 92.32 79.17 92.94 80.89 84.83 83.84 84.21 82.13 80.87 83.34 81.5 85.06 73.39 88.01 72.76 86.29 69.42 87.51 70.83 91.34 66.29 92.98 65.67 91.3 62.31 92.52 62.93 94.23 57.07 96.36 56.89 95.85 52.65 97.4 51.26 93.57 50.74 93.76 49.3 89.8 51.57 88.98 50.16 85.09 52.13 84.37 49.23 76.41 49.74 76.23 47.98 71.39 52.09 69.9 59.34 67.26 62.93 65.96 69.27 63.65 74.85 61.61 79.52 59.92 86.86 57.24"/><polyline class="cls-2" points="94.57 67.97 92.17 61.39 89.46 62.37 91.86 68.95"/><polyline class="cls-2" points="89.86 62.23 89.86 61.13 91.78 61.13 91.91 61.49"/><polyline class="cls-2" points="92.17 61.39 92.12 61.25 93.14 60.87 93.14 52.16 88.99 52.16 88.99 52.77 86.87 52.77"/><polyline class="cls-2" points="93.14 58.09 92 58.09 92 61.13 91.78 61.13"/><polyline class="cls-2" points="93.14 22.08 92.06 22.08 92.06 24.82 93.14 24.82"/><polyline class="cls-2" points="95.2 26.97 98.37 26.97 98.37 33.42 95.2 33.42"/><polyline class="cls-2" points="95.59 63.49 98.56 62.41 100.78 68.51 97.83 69.58"/><line class="cls-2" x1="58.84" y1="67.44" x2="63.19" y2="79.39"/><polyline class="cls-2" points="65.91 78.4 65.54 77.38 62.82 78.37"/><line class="cls-2" x1="95.2" y1="22.14" x2="108.46" y2="22.14"/><polyline class="cls-2" points="107.92 33.54 107.92 33.41 98.37 33.41"/><line class="cls-2" x1="108.46" y1="38.86" x2="95.2" y2="38.86"/><line class="cls-2" x1="95.2" y1="44.5" x2="110.71" y2="44.5"/><line class="cls-2" x1="78.05" y1="44.5" x2="92.54" y2="44.5"/><polyline class="cls-2" points="95.2 57.82 100.91 57.82 104.41 56.55"/><polyline class="cls-2" points="105.7 66.82 105.66 66.73 100.78 68.5"/><line class="cls-2" x1="100.35" y1="77.81" x2="97.42" y2="69.76"/><polyline class="cls-2" points="84.21 82.13 84.3 82.09 81.67 74.85"/><polyline class="cls-2" points="62.31 92.52 62.19 92.57 58.78 83.19"/><polyline class="cls-2" points="52.13 84.37 52.17 84.49 56.6 82.88"/><line class="cls-2" x1="55.88" y1="68.52" x2="60.22" y2="80.47"/><line class="cls-2" x1="66.94" y1="64.5" x2="71.29" y2="76.44"/><line class="cls-2" x1="72.06" y1="62.63" x2="76.41" y2="74.58"/><line class="cls-2" x1="77.19" y1="60.76" x2="81.54" y2="72.71"/><line class="cls-2" x1="82.31" y1="58.9" x2="86.66" y2="70.84"/><polyline class="cls-2" points="86.86 56.66 86.99 56.66 86.99 57.57 89.91 57.57 89.91 61.13"/><line class="cls-2" x1="79.89" y1="38.86" x2="93.14" y2="38.86"/><line class="cls-2" x1="80.43" y1="33.41" x2="93.14" y2="33.41"/><line class="cls-2" x1="79.89" y1="27.96" x2="93.14" y2="27.96"/><polyline class="cls-2" points="80.43 22.26 80.43 22.13 92.06 22.13"/><polyline class="cls-2" points="57.57 73.19 59.05 72.65 57.35 67.99"/><polyline class="cls-2" points="94.57 67.97 56.24 81.91 56.95 83.85 95.34 69.88 95.54 70.45 97.84 69.61 95.2 62.43 95.2 22.08 93.14 22.08 93.14 41.68 92.54 42.03 92.54 46.97 92.9 47.17 93.14 47.32 93.14 50.14 86.86 50.14 86.86 50.27"/><polyline class="cls-2" points="73.79 14.67 76.6 14.67 76.6 18.05 73.74 18.05"/><polyline class="cls-2" points="11.64 19.76 13.18 19.76 13.18 14.78"/><polyline class="cls-2" points="59.98 39.04 59.98 31.43 61.53 31.43"/><polyline class="cls-2" points="96.97 22.14 96.97 20.19 90.64 20.19 90.64 22.14"/><polyline class="cls-2" points="72.76 86.29 72.86 86.26 70.22 79.02"/><g class="cls-9"><rect class="cls-2" x="-100.33" y="-437.75" width="450.14" height="582.54"/></g><g><path class="cls-11" d="M94.94,94.31v3.91h2.46v.5h-3.07v-4.41h.61Z"/><path class="cls-11" d="M101.15,98.72h-3.15v-4.41h3.08v.5h-2.49v1.39h1.98v.5h-1.98v1.52h2.56v.5Z"/><path class="cls-11" d="M103.22,98.72l-1.77-4.41h.62l1.49,3.71h.03l1.45-3.71h.62l-1.78,4.41h-.66Z"/><path class="cls-11" d="M109.31,98.72h-3.15v-4.41h3.08v.5h-2.49v1.39h1.98v.5h-1.98v1.52h2.56v.5Z"/><path class="cls-11" d="M110.61,94.31v3.91h2.46v.5h-3.07v-4.41h.61Z"/><path class="cls-11" d="M114.57,94.96c.62,0,.88-.21,1.04-.67h.4v4.44h-.61v-3.38h-.83v-.39Z"/></g><g class="cls-10"><rect class="cls-5" x="-379.1" y="-665.87" width="678.3" height="877.8"/></g><g><path class="cls-11" d="M7.27,3.64h.02l.65-2.62h.41l-.81,3.15h-.5l-.66-2.52h-.02l-.67,2.52h-.5l-.81-3.15h.42l.66,2.61h.02l.69-2.61h.41l.7,2.62Z"/><path class="cls-11" d="M10.95,4.17h-2.25V1.02h2.2v.36h-1.78v.99h1.42v.36h-1.42v1.09h1.83v.36Z"/><path class="cls-11" d="M11.59,3.02c.02,.58,.42,.87,.95,.87,.47,0,.77-.2,.77-.55,0-.29-.19-.43-.6-.51l-.62-.12c-.47-.09-.79-.34-.79-.83,0-.55,.44-.93,1.13-.93,.79,0,1.25,.42,1.25,1.13l-.4,.02c-.02-.52-.33-.82-.85-.82-.46,0-.71,.22-.71,.57,0,.31,.21,.41,.57,.48l.57,.11c.58,.11,.87,.36,.87,.87,0,.58-.5,.92-1.18,.92-.78,0-1.34-.43-1.34-1.19l.39-.03Z"/><path class="cls-11" d="M14.98,4.17V1.38h-1.15v-.36h2.74v.36h-1.17v2.79h-.43Z"/><path class="cls-11" d="M19.23,4.17h-1.34V1.02h1.29c.78,0,1.1,.34,1.1,.84,0,.37-.26,.62-.6,.68,.39,.07,.69,.32,.69,.77,0,.55-.4,.87-1.14,.87Zm-.92-1.79h.88c.46,0,.65-.2,.65-.5s-.19-.51-.65-.51h-.88v1.01Zm0,.34v1.1h.91c.47,0,.72-.21,.72-.54s-.25-.56-.72-.56h-.91Z"/><path class="cls-11" d="M20.8,2.97V1.02h.43v1.95c0,.6,.3,.9,.85,.9s.86-.29,.86-.89V1.02h.42v1.95c0,.92-.57,1.27-1.28,1.27s-1.28-.35-1.28-1.27Z"/><path class="cls-11" d="M24.36,1.02v3.15h-.43V1.02h.43Z"/><path class="cls-11" d="M25.4,1.02V3.81h1.76v.36h-2.19V1.02h.43Z"/><path class="cls-11" d="M27.59,1.02h1.14c.99,0,1.62,.59,1.62,1.58s-.63,1.58-1.62,1.58h-1.14V1.02Zm1.12,2.8c.77,0,1.19-.46,1.19-1.22s-.42-1.22-1.19-1.22h-.68V3.82h.68Z"/><path class="cls-11" d="M31.24,1.02v3.15h-.44V1.02h.44Z"/><path class="cls-11" d="M34.02,3.43V1.02h.41v3.15h-.35l-1.83-2.53v2.53h-.41V1.02h.45l1.73,2.41Z"/><path class="cls-11" d="M34.89,2.6c0-.97,.67-1.64,1.54-1.64s1.41,.5,1.46,1.3l-.42,.03c-.04-.58-.41-.96-1.04-.96s-1.1,.49-1.1,1.27,.46,1.27,1.14,1.27c.59,0,.97-.37,1.03-.91h-.96v-.34h1.36v1.56h-.4v-.56c-.14,.4-.58,.62-1.08,.62-.89,0-1.54-.66-1.54-1.64Z"/></g><g><path class="cls-11" d="M80.11,4.17h-2.25V1.02h2.2v.36h-1.78v.99h1.42v.36h-1.42v1.09h1.83v.36Z"/><path class="cls-11" d="M82.12,1.02l1.31,3.15h-.46l-.38-.93h-1.44l-.37,.93h-.42l1.29-3.15h.48Zm-.83,1.88h1.16l-.58-1.4h-.02l-.57,1.4Z"/><path class="cls-11" d="M83.95,3.02c.02,.58,.42,.87,.95,.87,.47,0,.77-.2,.77-.55,0-.29-.19-.43-.6-.51l-.62-.12c-.47-.09-.79-.34-.79-.83,0-.55,.44-.93,1.13-.93,.79,0,1.25,.42,1.25,1.13l-.4,.02c-.02-.52-.33-.82-.85-.82-.46,0-.71,.22-.71,.57,0,.31,.21,.41,.57,.48l.57,.11c.58,.11,.87,.36,.87,.87,0,.58-.5,.92-1.18,.92-.78,0-1.34-.43-1.34-1.19l.39-.03Z"/><path class="cls-11" d="M87.34,4.17V1.38h-1.15v-.36h2.74v.36h-1.17v2.79h-.43Z"/><path class="cls-11" d="M91.59,4.17h-1.34V1.02h1.29c.78,0,1.1,.34,1.1,.84,0,.37-.26,.62-.6,.68,.39,.07,.69,.32,.69,.77,0,.55-.4,.87-1.14,.87Zm-.92-1.79h.88c.46,0,.65-.2,.65-.5s-.2-.51-.65-.51h-.88v1.01Zm0,.34v1.1h.91c.47,0,.72-.21,.72-.54s-.25-.56-.72-.56h-.91Z"/><path class="cls-11" d="M93.16,2.97V1.02h.43v1.95c0,.6,.3,.9,.85,.9s.86-.29,.86-.89V1.02h.43v1.95c0,.92-.57,1.27-1.28,1.27s-1.28-.35-1.28-1.27Z"/><path class="cls-11" d="M96.72,1.02v3.15h-.44V1.02h.44Z"/><path class="cls-11" d="M97.76,1.02V3.81h1.76v.36h-2.19V1.02h.44Z"/><path class="cls-11" d="M99.95,1.02h1.14c.99,0,1.62,.59,1.62,1.58s-.62,1.58-1.62,1.58h-1.14V1.02Zm1.12,2.8c.77,0,1.19-.46,1.19-1.22s-.42-1.22-1.19-1.22h-.68V3.82h.68Z"/><path class="cls-11" d="M103.6,1.02v3.15h-.43V1.02h.43Z"/><path class="cls-11" d="M106.38,3.43V1.02h.41v3.15h-.34l-1.83-2.53v2.53h-.41V1.02h.45l1.73,2.41Z"/><path class="cls-11" d="M107.25,2.6c0-.97,.67-1.64,1.54-1.64s1.41,.5,1.46,1.3l-.42,.03c-.04-.58-.41-.96-1.04-.96s-1.1,.49-1.1,1.27,.46,1.27,1.14,1.27c.59,0,.97-.37,1.03-.91h-.96v-.34h1.36v1.56h-.4v-.56c-.14,.4-.58,.62-1.08,.62-.89,0-1.54-.66-1.54-1.64Z"/></g></g></g></g></svg>