<?xml version="1.0" encoding="UTF-8"?><svg xmlns="http://www.w3.org/2000/svg" xmlns:xlink="http://www.w3.org/1999/xlink" viewBox="0 0 112.84 101.65"><defs><style>.cls-1{stroke:#ededee;}.cls-1,.cls-2{stroke-width:.31px;}.cls-1,.cls-2,.cls-3,.cls-4{fill:none;}.cls-1,.cls-2,.cls-4{stroke-linecap:round;stroke-linejoin:round;}.cls-5{isolation:isolate;}.cls-2,.cls-4{stroke:#000;}.cls-6{fill:#f1b784;fill-rule:evenodd;}.cls-7{clip-path:url(#clippath);}.cls-8{clip-path:url(#clippath-3);}.cls-9{clip-path:url(#clippath-5);}.cls-10{fill:#333132;}.cls-4{stroke-width:.47px;}</style><clipPath id="clippath"><rect class="cls-3" x="-482.48" y="-648.98" width="612" height="792"/></clipPath><clipPath id="clippath-3"><rect class="cls-3" x="-155.28" y="1.02" width="283.8" height="105"/></clipPath><clipPath id="clippath-5"><rect class="cls-3" x="-482.48" y="-511.01" width="612" height="396.66"/></clipPath><clipPath id="clippath-7"><rect class="cls-3" x="-482.48" y="-648.98" width="612" height="792"/></clipPath></defs><g class="cls-5"><g id="Layer_1"><g class="cls-7"><polygon class="cls-6" points="82.08 74.85 70.63 79.02 73.26 86.26 73.17 86.29 73.79 88.01 81.9 85.06 81.28 83.34 84.71 82.09 82.08 74.85"/><polygon class="cls-1" points="82.07 74.85 70.63 79.02 73.26 86.26 73.17 86.29 73.79 88.01 81.9 85.06 81.27 83.34 84.71 82.09 82.07 74.85"/><polygon class="cls-6" points="93.52 70.69 82.08 74.85 84.71 82.09 84.61 82.13 85.24 83.84 93.35 80.89 92.72 79.17 96.06 77.96 96.16 77.92 93.52 70.69"/><polygon class="cls-1" points="93.52 70.69 82.07 74.85 84.71 82.09 84.61 82.13 85.24 83.84 93.35 80.89 92.72 79.17 96.06 77.96 96.16 77.92 93.52 70.69"/><line class="cls-2" x1="33.21" y1="32.79" x2="33.21" y2="29.55"/><polyline class="cls-2" points="36.66 32.79 33.21 29.55 29.75 32.79"/><polyline class="cls-2" points="36.66 29.55 33.21 32.79 29.75 29.55"/><line class="cls-2" x1="91.07" y1="65.66" x2="93.78" y2="64.68"/><polyline class="cls-2" points="92.26 68.95 93.78 64.68 89.87 62.37"/><polyline class="cls-2" points="94.97 67.97 91.07 65.66 92.58 61.39"/><polyline class="cls-2" points="2.64 20.2 1.49 20.2 1.49 12.65 8.34 12.65 8.34 14.23"/><polyline class="cls-2" points="15.36 14.23 15.36 12.65 19.73 12.65 19.73 14.23"/><polyline class="cls-2" points="25.92 14.23 25.92 12.65 32.42 12.65 32.42 14.23"/><line class="cls-2" x1="29.17" y1="12.65" x2="29.17" y2="14.78"/><polyline class="cls-2" points="70.97 36.84 72.48 36.84 72.48 44.39 65.64 44.39 65.64 42.81"/><polyline class="cls-2" points="58.3 42.81 58.3 44.39 49.85 44.39 49.85 42.81"/><line class="cls-2" x1="53.08" y1="42.26" x2="53.08" y2="44.39"/><polyline class="cls-2" points="45.42 42.81 45.42 44.39 38.92 44.39 38.92 42.81"/><line class="cls-2" x1="42.17" y1="42.26" x2="42.17" y2="44.39"/><polyline class="cls-2" points="33 42.81 33 44.39 28.01 44.39 28.01 42.81"/><polyline class="cls-2" points="22.02 42.81 22.02 44.39 18.7 44.39 18.7 42.81"/><polyline class="cls-2" points="15.44 40.73 15.44 42.32 11.94 42.32 11.94 40.19"/><polyline class="cls-2" points="15.13 25.87 13.59 25.87 13.59 21.01"/><line class="cls-2" x1="13.59" y1="25.52" x2="12.04" y2="25.52"/><line class="cls-2" x1="12.04" y1="23.88" x2="13.59" y2="23.16"/><polyline class="cls-2" points="61.93 31.39 60.39 31.39 60.39 36.01"/><line class="cls-2" x1="58.84" y1="34.14" x2="60.39" y2="33.42"/><line class="cls-2" x1="58.84" y1="31.78" x2="60.39" y2="31.78"/><polyline class="cls-2" points="57.74 96.27 58.05 97.11 51.55 99.48 49.56 94.04 51.05 93.5"/><polyline class="cls-2" points="49.73 76.68 48.19 77.24 45.6 70.14 52.04 67.8 52.58 69.29"/><polyline class="cls-2" points="59.33 66.83 58.79 65.34 62.89 63.85 63.44 65.34"/><polyline class="cls-2" points="69.23 63.23 68.69 61.74 74.79 59.52 75.33 61.01"/><line class="cls-2" x1="71.74" y1="60.63" x2="72.47" y2="62.63"/><polyline class="cls-2" points="79.48 59.5 78.94 58.01 85.04 55.79 85.58 57.28"/><line class="cls-2" x1="81.99" y1="56.9" x2="82.72" y2="58.9"/><polyline class="cls-2" points="80.29 47.85 78.71 47.85 78.71 44.81"/><polyline class="cls-2" points="80.29 41.15 78.71 41.15 78.71 44.2"/><polyline class="cls-2" points="80.29 36.66 78.71 36.66 78.71 30.16 80.29 30.16"/><line class="cls-2" x1="78.71" y1="33.41" x2="80.84" y2="33.41"/><polyline class="cls-2" points="108.87 25.67 110.45 25.67 110.45 29.81 108.87 29.81"/><polyline class="cls-2" points="108.87 33.26 110.45 33.26 110.45 36.66 108.87 36.66"/><polyline class="cls-2" points="108.87 41.15 110.45 41.15 110.45 44.2"/><polyline class="cls-2" points="110.45 44.81 110.45 47.85 108.87 47.85"/><polyline class="cls-2" points="106.54 61.29 108.03 60.75 109.74 65.47 108.23 66.02"/><polyline class="cls-2" points="107.64 69.61 109.15 69.06 111.53 75.6 105.24 77.89 104.69 76.38"/><polyline class="cls-2" points="66.89 92.92 67.21 93.78 63.38 95.17 63.08 94.33"/><line class="cls-2" x1="95.61" y1="44.5" x2="92.94" y2="44.5"/><line class="cls-2" x1="98.14" y1="64.76" x2="96.66" y2="65.3"/><polyline class="cls-2" points="99.57 64.06 98.09 64.6 99.06 67.27 97.58 67.81"/><line class="cls-2" x1="99" y1="67.11" x2="100.48" y2="66.57"/><polyline class="cls-2" points="61.41 73.81 60.06 74.3 61.55 78.37 63.03 77.83"/><line class="cls-2" x1="59.95" y1="78.6" x2="61.43" y2="78.06"/><line class="cls-2" x1="60.62" y1="75.84" x2="59.39" y2="77.07"/><polyline class="cls-2" points="98.77 31.81 97.19 31.81 97.19 28.81 95.61 28.81"/><line class="cls-2" x1="98.77" y1="29.14" x2="97.19" y2="29.14"/><line class="cls-2" x1="95.61" y1="31.48" x2="97.19" y2="31.48"/><line class="cls-2" x1="40.08" y1="14.78" x2="40.08" y2="12.65"/><polyline class="cls-2" points="93.34 80.87 96.91 79.57 96.8 79.25"/><line class="cls-2" x1="81.89" y1="85.04" x2="85.23" y2="83.82"/><polyline class="cls-2" points="74.03 87.92 74.22 88.45 70.66 89.75"/><polyline class="cls-2" points="102.9 13.06 102.9 11.48 110.45 11.48 110.45 18.4 108.87 18.4"/><polyline class="cls-2" points="80.29 18.4 78.71 18.4 78.71 11.48 86.26 11.48 86.26 13.06"/><polyline class="cls-2" points="80.29 21.98 78.71 21.98 78.71 25.39 80.29 25.39"/><polyline class="cls-2" points="36.83 14.23 36.83 12.65 43.33 12.65 43.33 14.23"/><line class="cls-2" x1="50.99" y1="14.78" x2="50.99" y2="12.65"/><polyline class="cls-2" points="47.74 14.23 47.74 12.65 54.24 12.65 54.24 14.23"/><polyline class="cls-2" points="58.62 14.23 58.62 12.65 62.04 12.65 62.04 14.23"/><polyline class="cls-2" points="65.64 14.23 65.64 12.65 72.48 12.65 72.48 20.2 70.97 20.2"/><polygon class="cls-2" points="2.64 20.37 2.64 19.91 3.19 19.91 3.19 14.78 8.06 14.78 8.06 14.23 15.64 14.23 15.64 14.78 19.45 14.78 19.45 14.23 26.17 14.23 26.17 14.78 32.11 14.78 32.11 14.23 37.08 14.23 37.08 14.78 43.02 14.78 43.02 14.23 47.99 14.23 47.99 14.78 53.93 14.78 53.93 14.23 58.9 14.23 58.9 14.78 61.76 14.78 61.76 14.23 65.92 14.23 65.92 14.78 70.42 14.78 70.42 19.92 70.97 19.92 70.97 25.28 70.42 25.28 70.42 31.76 70.97 31.76 70.97 37.12 70.42 37.12 70.42 42.26 65.92 42.26 65.92 42.81 58.02 42.81 58.02 42.26 50.13 42.26 50.13 42.81 45.17 42.81 45.17 42.26 39.23 42.26 39.23 42.81 32.72 42.81 32.72 42.26 28.29 42.26 28.29 42.81 21.74 42.81 21.74 42.26 19.11 42.26 19.11 42.82 18.64 42.82 18.64 40.73 15.16 40.73 15.16 40.19 10.47 40.19 10.47 37.22 9.93 37.22 9.93 35.59 6.81 35.59 6.81 31.08 3.55 31.08 3.55 20.37 2.64 20.37"/><rect class="cls-2" x="10.05" y="27.49" width="53.87" height="2.06"/><line class="cls-2" x1="10.05" y1="28.52" x2="3.55" y2="28.52"/><polyline class="cls-2" points="18.77 29.55 18.77 40.73 18.64 40.73"/><line class="cls-2" x1="24.23" y1="29.55" x2="24.23" y2="42.81"/><polyline class="cls-2" points="29.75 29.55 29.75 32.79 36.66 32.79 36.66 29.55"/><polyline class="cls-2" points="36.72 42.81 36.72 32.79 36.66 32.79"/><line class="cls-2" x1="42.17" y1="42.26" x2="42.17" y2="29.55"/><line class="cls-2" x1="47.63" y1="42.81" x2="47.63" y2="29.55"/><line class="cls-2" x1="53.08" y1="42.26" x2="53.08" y2="30.63"/><polyline class="cls-2" points="53.03 29.63 53.03 30.63 55.69 30.63 55.69 29.55"/><polyline class="cls-2" points="58.84 29.55 58.84 36.01 61.93 36.01 61.93 29.55"/><line class="cls-2" x1="61.9" y1="42.81" x2="61.9" y2="36.01"/><line class="cls-2" x1="70.42" y1="28.52" x2="63.92" y2="28.52"/><polyline class="cls-2" points="61.9 27.49 61.9 14.78 61.76 14.78"/><line class="cls-2" x1="56.44" y1="27.49" x2="56.44" y2="14.23"/><line class="cls-2" x1="50.99" y1="27.49" x2="50.99" y2="14.78"/><line class="cls-2" x1="45.54" y1="27.49" x2="45.54" y2="14.23"/><line class="cls-2" x1="40.08" y1="27.49" x2="40.08" y2="14.78"/><line class="cls-2" x1="34.63" y1="27.49" x2="34.63" y2="14.23"/><line class="cls-2" x1="29.17" y1="27.49" x2="29.17" y2="14.78"/><line class="cls-2" x1="23.72" y1="27.49" x2="23.72" y2="14.23"/><polyline class="cls-2" points="12.04 27.38 12.04 21.01 15.13 21.01 15.13 27.49"/><polyline class="cls-2" points="18 27.49 18 26.41 15.13 26.41"/><line class="cls-2" x1="12.08" y1="21.01" x2="12.08" y2="14.23"/><polygon class="cls-2" points="80.84 13.61 85.98 13.61 85.98 13.06 91.33 13.06 91.33 13.61 97.83 13.61 97.83 13.06 103.15 13.06 103.15 13.61 108.32 13.61 108.32 18.12 108.87 18.12 108.87 25.95 108.32 25.95 108.32 29.53 108.87 29.53 108.87 33.54 108.32 33.54 108.32 36.38 108.87 36.38 108.87 41.43 108.32 41.43 108.32 44.2 111.12 44.2 111.12 44.81 108.32 44.81 108.32 47.57 108.87 47.57 108.87 50.27 102.82 50.27 102.82 51.07 102.82 51.08 106.64 61.56 106.12 61.74 107.61 65.84 108.1 65.66 108.24 66.05 106.56 66.65 107.73 69.85 107.21 70.04 108.76 74.31 104.74 75.77 104.93 76.29 96.56 79.34 96.06 77.96 92.72 79.18 93.35 80.89 85.24 83.85 84.61 82.13 81.27 83.34 81.9 85.06 73.79 88.01 73.17 86.29 69.84 87.5 71.24 91.34 66.66 93.01 66.04 91.31 62.72 92.52 63.34 94.23 57.48 96.37 57.29 95.85 53.05 97.4 51.66 93.57 51.15 93.76 49.71 89.8 51.98 88.98 50.56 85.09 52.53 84.37 49.64 76.41 50.15 76.23 48.39 71.39 52.5 69.9 52.31 69.39 59.56 66.75 59.75 67.26 63.33 65.96 63.14 65.44 69.49 63.13 69.68 63.65 75.26 61.62 75.07 61.1 79.74 59.4 79.93 59.92 85.51 57.88 85.32 57.37 87.27 56.66 87.27 50.27 80.29 50.27 80.29 47.57 80.84 47.57 80.84 44.81 78.45 44.81 78.45 44.2 80.84 44.2 80.84 41.43 80.29 41.43 80.29 36.38 80.84 36.38 80.84 30.44 80.29 30.44 80.29 25.1 80.84 25.1 80.84 22.26 80.29 22.26 80.29 18.12 80.84 18.12 80.84 13.61"/><polyline class="cls-2" points="94.97 67.97 92.58 61.39 89.87 62.37 92.26 68.95"/><polyline class="cls-2" points="90.26 62.23 90.26 61.13 92.18 61.13 92.31 61.49"/><polyline class="cls-2" points="92.58 61.39 92.53 61.25 93.55 60.87 93.55 47.32 93.3 47.17 92.94 46.97 92.94 42.03 93.55 41.68 93.55 20.11 95.61 20.11 95.61 62.43 98.24 69.61 96.57 70.22 96.36 69.65 57.35 83.85 56.65 81.91 94.97 67.97"/><polyline class="cls-2" points="93.55 58.09 92.41 58.09 92.41 61.13 92.18 61.13"/><polyline class="cls-2" points="93.55 22.08 92.47 22.08 92.47 24.82 93.55 24.82"/><polyline class="cls-2" points="95.61 26.97 98.77 26.97 98.77 33.42 95.61 33.42"/><polyline class="cls-2" points="96 63.49 98.97 62.41 101.19 68.51 98.23 69.58"/><polyline class="cls-2" points="60.63 80.47 58.39 74.32 61.36 73.24 63.59 79.39"/><polyline class="cls-2" points="66.31 78.4 65.94 77.38 63.22 78.37"/><line class="cls-2" x1="94.58" y1="20.11" x2="94.58" y2="13.61"/><line class="cls-2" x1="95.61" y1="22.14" x2="108.87" y2="22.14"/><polyline class="cls-2" points="108.32 33.54 108.32 33.41 98.77 33.41"/><line class="cls-2" x1="108.87" y1="38.86" x2="95.61" y2="38.86"/><line class="cls-2" x1="95.61" y1="44.5" x2="111.12" y2="44.5"/><line class="cls-2" x1="78.45" y1="44.5" x2="92.94" y2="44.5"/><polyline class="cls-2" points="95.61 57.82 101.32 57.82 104.81 56.55"/><polyline class="cls-2" points="106.57 66.65 106.52 66.53 101.19 68.5"/><polyline class="cls-2" points="62.72 92.52 62.6 92.57 59.18 83.19"/><polyline class="cls-2" points="52.53 84.37 52.58 84.49 57 82.88"/><line class="cls-2" x1="56.21" y1="67.97" x2="58.51" y2="74.28"/><line class="cls-2" x1="67.16" y1="63.98" x2="71.69" y2="76.44"/><line class="cls-2" x1="72.47" y1="62.63" x2="76.82" y2="74.58"/><line class="cls-2" x1="77.41" y1="60.25" x2="81.94" y2="72.71"/><line class="cls-2" x1="82.72" y1="58.9" x2="87.07" y2="70.84"/><polyline class="cls-2" points="87.27 56.66 87.4 56.66 87.4 57.57 90.31 57.57 90.31 61.13"/><line class="cls-2" x1="80.29" y1="38.86" x2="93.55" y2="38.86"/><line class="cls-2" x1="80.84" y1="33.41" x2="93.55" y2="33.41"/><line class="cls-2" x1="80.29" y1="27.96" x2="93.55" y2="27.96"/><polyline class="cls-2" points="80.84 22.26 80.84 22.13 92.47 22.13"/><polyline class="cls-2" points="73.17 86.29 73.26 86.26 70.63 79.02"/><polyline class="cls-2" points="84.61 82.13 84.71 82.09 82.07 74.85"/><polyline class="cls-2" points="96.06 77.96 96.16 77.93 93.52 70.69"/><g class="cls-8"><rect class="cls-2" x="-234.32" y="-437.75" width="450.14" height="582.54"/></g><g><path class="cls-10" d="M82.6,94.31v3.91h2.46v.5h-3.07v-4.41h.61Z"/><path class="cls-10" d="M88.8,98.72h-3.15v-4.41h3.08v.5h-2.49v1.39h1.98v.5h-1.98v1.52h2.56v.5Z"/><path class="cls-10" d="M90.87,98.72l-1.77-4.41h.62l1.49,3.71h.03l1.45-3.71h.62l-1.78,4.41h-.66Z"/><path class="cls-10" d="M96.97,98.72h-3.15v-4.41h3.08v.5h-2.49v1.39h1.98v.5h-1.98v1.52h2.56v.5Z"/><path class="cls-10" d="M98.27,94.31v3.91h2.46v.5h-3.07v-4.41h.61Z"/><path class="cls-10" d="M105.58,98.2v.53h-3.24v-.35l1.25-1.07c.69-.6,1.21-1.05,1.21-1.69,0-.52-.29-.88-.88-.88s-.94,.38-.94,1.03c0,.13,.01,.27,.05,.4l-.6-.03c-.03-.14-.05-.28-.05-.41,0-.9,.61-1.48,1.55-1.48,1.03,0,1.5,.6,1.5,1.35,0,.8-.68,1.41-1.32,1.93l-.83,.69h2.3Z"/><path class="cls-10" d="M105.85,96.68h1.61v.52h-1.61v-.52Z"/><path class="cls-10" d="M111.05,94.86h-2.12c0,.24-.11,1.14-.16,1.37,.2-.25,.56-.45,1.05-.45,1,0,1.52,.67,1.52,1.48,0,.92-.64,1.55-1.6,1.55-1.06,0-1.67-.67-1.62-1.65l.59,.05c0,.67,.36,1.11,1.05,1.11,.62,0,1-.41,1-1.06,0-.58-.38-1.01-1-1.01-.49,0-.81,.26-.97,.56l-.6-.04c.11-.61,.26-1.74,.28-2.46h2.58v.55Z"/></g><g class="cls-9"><rect class="cls-4" x="-513.1" y="-665.87" width="678.3" height="877.8"/></g><g><path class="cls-10" d="M5.68,3.64h.02l.65-2.62h.41l-.81,3.15h-.5l-.66-2.52h-.02l-.67,2.52h-.5l-.81-3.15h.42l.66,2.61h.02l.69-2.61h.41l.7,2.62Z"/><path class="cls-10" d="M9.36,4.17h-2.25V1.02h2.2v.36h-1.78v.99h1.42v.36h-1.42v1.09h1.83v.36Z"/><path class="cls-10" d="M10,3.02c.02,.58,.42,.87,.95,.87,.47,0,.77-.2,.77-.55,0-.29-.19-.43-.6-.51l-.62-.12c-.47-.09-.79-.34-.79-.83,0-.55,.44-.93,1.13-.93,.79,0,1.25,.42,1.25,1.13l-.4,.02c-.02-.52-.33-.82-.85-.82-.46,0-.71,.22-.71,.57,0,.31,.21,.41,.57,.48l.57,.11c.58,.11,.87,.36,.87,.87,0,.58-.5,.92-1.18,.92-.78,0-1.34-.43-1.34-1.19l.39-.03Z"/><path class="cls-10" d="M13.39,4.17V1.38h-1.15v-.36h2.74v.36h-1.17v2.79h-.43Z"/><path class="cls-10" d="M17.63,4.17h-1.34V1.02h1.29c.78,0,1.1,.34,1.1,.84,0,.37-.26,.62-.6,.68,.39,.07,.69,.32,.69,.77,0,.55-.4,.87-1.14,.87Zm-.92-1.79h.88c.46,0,.65-.2,.65-.5s-.19-.51-.65-.51h-.88v1.01Zm0,.34v1.1h.91c.47,0,.72-.21,.72-.54s-.25-.56-.72-.56h-.91Z"/><path class="cls-10" d="M19.21,2.97V1.02h.43v1.95c0,.6,.3,.9,.85,.9s.86-.29,.86-.89V1.02h.42v1.95c0,.92-.57,1.27-1.28,1.27s-1.28-.35-1.28-1.27Z"/><path class="cls-10" d="M22.76,1.02v3.15h-.43V1.02h.43Z"/><path class="cls-10" d="M23.81,1.02V3.81h1.76v.36h-2.19V1.02h.43Z"/><path class="cls-10" d="M25.99,1.02h1.14c.99,0,1.62,.59,1.62,1.58s-.63,1.58-1.62,1.58h-1.14V1.02Zm1.12,2.8c.77,0,1.19-.46,1.19-1.22s-.42-1.22-1.19-1.22h-.68V3.82h.68Z"/><path class="cls-10" d="M29.64,1.02v3.15h-.44V1.02h.44Z"/><path class="cls-10" d="M32.43,3.43V1.02h.41v3.15h-.35l-1.83-2.53v2.53h-.41V1.02h.45l1.73,2.41Z"/><path class="cls-10" d="M33.3,2.6c0-.97,.67-1.64,1.54-1.64s1.41,.5,1.46,1.3l-.42,.03c-.04-.58-.41-.96-1.04-.96s-1.1,.49-1.1,1.27,.46,1.27,1.14,1.27c.59,0,.97-.37,1.03-.91h-.96v-.34h1.36v1.56h-.4v-.56c-.14,.4-.58,.62-1.08,.62-.89,0-1.54-.66-1.54-1.64Z"/></g><g><path class="cls-10" d="M78.51,4.17h-2.25V1.02h2.2v.36h-1.78v.99h1.42v.36h-1.42v1.09h1.83v.36Z"/><path class="cls-10" d="M80.52,1.02l1.31,3.15h-.46l-.38-.93h-1.44l-.37,.93h-.42l1.29-3.15h.48Zm-.83,1.88h1.16l-.58-1.4h-.02l-.57,1.4Z"/><path class="cls-10" d="M82.36,3.02c.02,.58,.42,.87,.95,.87,.47,0,.77-.2,.77-.55,0-.29-.19-.43-.6-.51l-.62-.12c-.47-.09-.79-.34-.79-.83,0-.55,.44-.93,1.13-.93,.79,0,1.25,.42,1.25,1.13l-.4,.02c-.02-.52-.33-.82-.85-.82-.46,0-.71,.22-.71,.57,0,.31,.21,.41,.57,.48l.57,.11c.58,.11,.87,.36,.87,.87,0,.58-.5,.92-1.18,.92-.78,0-1.34-.43-1.34-1.19l.39-.03Z"/><path class="cls-10" d="M85.75,4.17V1.38h-1.15v-.36h2.74v.36h-1.17v2.79h-.43Z"/><path class="cls-10" d="M89.99,4.17h-1.34V1.02h1.29c.78,0,1.1,.34,1.1,.84,0,.37-.26,.62-.6,.68,.39,.07,.69,.32,.69,.77,0,.55-.4,.87-1.14,.87Zm-.92-1.79h.88c.46,0,.65-.2,.65-.5s-.2-.51-.65-.51h-.88v1.01Zm0,.34v1.1h.91c.47,0,.72-.21,.72-.54s-.25-.56-.72-.56h-.91Z"/><path class="cls-10" d="M91.57,2.97V1.02h.43v1.95c0,.6,.3,.9,.85,.9s.86-.29,.86-.89V1.02h.43v1.95c0,.92-.57,1.27-1.28,1.27s-1.28-.35-1.28-1.27Z"/><path class="cls-10" d="M95.12,1.02v3.15h-.44V1.02h.44Z"/><path class="cls-10" d="M96.17,1.02V3.81h1.76v.36h-2.19V1.02h.44Z"/><path class="cls-10" d="M98.35,1.02h1.14c.99,0,1.62,.59,1.62,1.58s-.62,1.58-1.62,1.58h-1.14V1.02Zm1.12,2.8c.77,0,1.19-.46,1.19-1.22s-.42-1.22-1.19-1.22h-.68V3.82h.68Z"/><path class="cls-10" d="M102,1.02v3.15h-.43V1.02h.43Z"/><path class="cls-10" d="M104.79,3.43V1.02h.41v3.15h-.34l-1.83-2.53v2.53h-.41V1.02h.45l1.73,2.41Z"/><path class="cls-10" d="M105.66,2.6c0-.97,.67-1.64,1.54-1.64s1.41,.5,1.46,1.3l-.42,.03c-.04-.58-.41-.96-1.04-.96s-1.1,.49-1.1,1.27,.46,1.27,1.14,1.27c.59,0,.97-.37,1.03-.91h-.96v-.34h1.36v1.56h-.4v-.56c-.14,.4-.58,.62-1.08,.62-.89,0-1.54-.66-1.54-1.64Z"/></g></g></g></g></svg>