<?xml version="1.0" encoding="UTF-8"?><svg id="Layer_1" xmlns="http://www.w3.org/2000/svg" xmlns:xlink="http://www.w3.org/1999/xlink" viewBox="0 0 113.43 102.37"><defs><style>.cls-1{stroke:#ebebec;}.cls-1,.cls-2{stroke-width:.31px;}.cls-1,.cls-2,.cls-3,.cls-4{fill:none;}.cls-1,.cls-2,.cls-4{stroke-linecap:round;stroke-linejoin:round;}.cls-2,.cls-4{stroke:#000;}.cls-5{fill:#f1b784;fill-rule:evenodd;}.cls-6{clip-path:url(#clippath);}.cls-7{clip-path:url(#clippath-3);}.cls-8{clip-path:url(#clippath-5);}.cls-9{fill:#333132;}.cls-4{stroke-width:.47px;}</style><clipPath id="clippath"><rect class="cls-3" x="-481.76" y="-647.66" width="612" height="792"/></clipPath><clipPath id="clippath-3"><rect class="cls-3" x="-9.36" y="3.22" width="139.6" height="105.6"/></clipPath><clipPath id="clippath-5"><rect class="cls-3" x="-481.76" y="-490.1" width="612" height="388.08"/></clipPath></defs><g class="cls-6"><polygon class="cls-5" points="107.92 71.28 108.45 71.08 107.28 67.89 107.24 67.77 101.9 69.74 101.9 69.74 98.95 70.82 98.96 70.84 97.29 71.46 97.08 70.89 94.24 71.92 96.87 79.16 96.78 79.19 97.28 80.57 105.65 77.53 105.46 77 109.47 75.54 107.92 71.28"/><polygon class="cls-1" points="107.92 71.28 108.44 71.08 107.28 67.89 107.24 67.77 101.9 69.74 101.9 69.74 98.95 70.82 98.96 70.84 97.29 71.46 97.08 70.89 94.24 71.92 96.87 79.16 96.78 79.19 97.28 80.57 105.65 77.53 105.46 77 109.47 75.54 107.92 71.28"/><line class="cls-2" x1="33.92" y1="34.02" x2="33.92" y2="30.79"/><polyline class="cls-2" points="37.38 34.02 33.92 30.79 30.46 34.02"/><polyline class="cls-2" points="37.38 30.79 33.92 34.03 30.46 30.79"/><line class="cls-2" x1="91.78" y1="66.9" x2="94.49" y2="65.91"/><polyline class="cls-2" points="92.98 70.19 94.49 65.91 90.59 63.61"/><polyline class="cls-2" points="95.69 69.2 91.78 66.9 93.3 62.62"/><polyline class="cls-2" points="3.36 21.44 2.21 21.44 2.21 13.89 9.05 13.89 9.05 15.47"/><polyline class="cls-2" points="16.08 15.47 16.08 13.89 20.45 13.89 20.45 15.47"/><polyline class="cls-2" points="26.64 15.47 26.64 13.89 33.14 13.89 33.14 15.47"/><line class="cls-2" x1="29.89" y1="13.89" x2="29.89" y2="16.01"/><polyline class="cls-2" points="71.68 38.07 73.2 38.07 73.2 45.63 66.35 45.63 66.35 44.04"/><polyline class="cls-2" points="59.01 44.04 59.01 45.63 50.56 45.63 50.56 44.04"/><line class="cls-2" x1="53.8" y1="43.5" x2="53.8" y2="45.63"/><polyline class="cls-2" points="46.14 44.04 46.14 45.63 39.64 45.63 39.64 44.04"/><line class="cls-2" x1="42.89" y1="43.5" x2="42.89" y2="45.63"/><polyline class="cls-2" points="33.71 44.04 33.71 45.63 28.72 45.63 28.72 44.04"/><polyline class="cls-2" points="22.74 44.04 22.74 45.63 19.41 45.63 19.41 44.05"/><polyline class="cls-2" points="16.15 41.97 16.15 43.55 12.65 43.55 12.65 41.42"/><polyline class="cls-2" points="15.85 27.1 14.3 27.1 14.3 22.25"/><line class="cls-2" x1="14.3" y1="26.75" x2="12.76" y2="26.75"/><line class="cls-2" x1="12.76" y1="25.11" x2="14.3" y2="24.39"/><polyline class="cls-2" points="62.65 32.62 61.11 32.62 61.11 37.25"/><line class="cls-2" x1="59.56" y1="35.38" x2="61.11" y2="34.66"/><line class="cls-2" x1="59.56" y1="33.02" x2="61.11" y2="33.02"/><polyline class="cls-2" points="58.46 97.5 58.76 98.35 52.26 100.72 50.28 95.27 51.77 94.73"/><polyline class="cls-2" points="50.45 77.91 48.9 78.47 46.32 71.38 52.75 69.04 53.29 70.52"/><polyline class="cls-2" points="60.05 68.07 59.5 66.58 63.61 65.08 64.15 66.57"/><polyline class="cls-2" points="69.94 64.46 69.4 62.98 75.51 60.75 76.05 62.24"/><line class="cls-2" x1="72.46" y1="61.86" x2="73.18" y2="63.86"/><polyline class="cls-2" points="80.19 60.73 79.65 59.25 85.76 57.02 86.3 58.51"/><line class="cls-2" x1="82.71" y1="58.13" x2="83.43" y2="60.13"/><polyline class="cls-2" points="81.01 49.09 79.43 49.09 79.43 46.04"/><polyline class="cls-2" points="81.01 42.39 79.43 42.39 79.43 45.43"/><polyline class="cls-2" points="81.01 37.89 79.43 37.89 79.43 31.4 81.01 31.4"/><line class="cls-2" x1="79.43" y1="34.65" x2="81.56" y2="34.65"/><polyline class="cls-2" points="109.58 26.9 111.17 26.9 111.17 31.05 109.58 31.05"/><polyline class="cls-2" points="109.58 34.49 111.17 34.49 111.17 37.9 109.58 37.9"/><polyline class="cls-2" points="109.58 42.39 111.17 42.39 111.17 45.43"/><polyline class="cls-2" points="111.17 46.04 111.17 49.09 109.58 49.09"/><polyline class="cls-2" points="107.26 62.53 108.74 61.99 110.46 66.7 108.95 67.26"/><polyline class="cls-2" points="108.36 70.85 109.87 70.3 112.25 76.84 105.96 79.12 105.41 77.61"/><polyline class="cls-2" points="67.61 94.16 67.92 95.01 64.1 96.41 63.79 95.56"/><line class="cls-2" x1="96.33" y1="45.74" x2="93.66" y2="45.74"/><line class="cls-2" x1="98.86" y1="66" x2="97.38" y2="66.54"/><polyline class="cls-2" points="100.28 65.3 98.8 65.84 99.77 68.5 98.3 69.04"/><line class="cls-2" x1="99.71" y1="68.34" x2="101.2" y2="67.8"/><polyline class="cls-2" points="62.13 75.04 60.78 75.53 62.26 79.61 63.74 79.07"/><line class="cls-2" x1="60.67" y1="79.83" x2="62.15" y2="79.29"/><line class="cls-2" x1="61.34" y1="77.08" x2="60.11" y2="78.31"/><polyline class="cls-2" points="99.49 33.04 97.91 33.04 97.91 30.04 96.33 30.04"/><line class="cls-2" x1="99.49" y1="30.38" x2="97.91" y2="30.38"/><line class="cls-2" x1="96.33" y1="32.71" x2="97.91" y2="32.71"/><line class="cls-2" x1="40.8" y1="16.01" x2="40.8" y2="13.89"/><polyline class="cls-2" points="94.05 82.1 97.63 80.8 97.51 80.49"/><line class="cls-2" x1="82.61" y1="86.27" x2="85.95" y2="85.06"/><polyline class="cls-2" points="74.75 89.16 74.94 89.69 71.37 90.98"/><polyline class="cls-2" points="103.61 14.3 103.61 12.72 111.17 12.72 111.17 19.63 109.58 19.63"/><polyline class="cls-2" points="81.01 19.63 79.43 19.63 79.43 12.72 86.98 12.72 86.98 14.3"/><polyline class="cls-2" points="81.01 23.22 79.43 23.22 79.43 26.62 81.01 26.62"/><polyline class="cls-2" points="37.55 15.47 37.55 13.89 44.05 13.89 44.05 15.47"/><line class="cls-2" x1="51.71" y1="16.01" x2="51.71" y2="13.89"/><polyline class="cls-2" points="48.46 15.47 48.46 13.89 54.95 13.89 54.95 15.47"/><polyline class="cls-2" points="59.33 15.47 59.33 13.89 62.76 13.89 62.76 15.47"/><polyline class="cls-2" points="66.35 15.47 66.35 13.89 73.2 13.89 73.2 21.44 71.68 21.44"/><polygon class="cls-2" points="3.36 21.61 3.36 21.14 3.9 21.14 3.9 16.01 8.77 16.01 8.77 15.47 16.36 15.47 16.36 16.01 20.17 16.01 20.17 15.47 26.89 15.47 26.89 16.01 32.83 16.01 32.83 15.47 37.8 15.47 37.8 16.01 43.74 16.01 43.74 15.47 48.71 15.47 48.71 16.01 54.64 16.01 54.64 15.47 59.61 15.47 59.61 16.01 62.48 16.01 62.48 15.47 66.63 15.47 66.63 16.01 71.14 16.01 71.14 21.16 71.68 21.16 71.68 26.51 71.14 26.51 71.14 33 71.68 33 71.68 38.35 71.14 38.35 71.14 43.5 66.63 43.5 66.63 44.04 58.73 44.04 58.73 43.5 50.84 43.5 50.84 44.04 45.89 44.04 45.89 43.5 39.95 43.5 39.95 44.04 33.43 44.04 33.43 43.5 29 43.5 29 44.04 22.46 44.04 22.46 43.5 19.82 43.5 19.82 44.05 19.36 44.05 19.36 41.97 15.87 41.97 15.87 41.42 11.19 41.42 11.19 38.46 10.64 38.46 10.64 36.82 7.53 36.82 7.53 32.32 4.27 32.32 4.27 21.61 3.36 21.61"/><rect class="cls-2" x="10.77" y="28.73" width="53.87" height="2.06"/><line class="cls-2" x1="10.77" y1="29.76" x2="4.27" y2="29.76"/><polyline class="cls-2" points="19.49 30.79 19.49 41.97 19.36 41.97"/><line class="cls-2" x1="24.94" y1="30.79" x2="24.94" y2="44.04"/><polyline class="cls-2" points="30.46 30.79 30.46 34.03 37.38 34.03 37.38 30.79"/><polyline class="cls-2" points="37.43 44.04 37.43 34.02 37.38 34.02"/><line class="cls-2" x1="42.89" y1="43.5" x2="42.89" y2="30.79"/><line class="cls-2" x1="48.34" y1="44.04" x2="48.34" y2="30.79"/><line class="cls-2" x1="53.8" y1="43.5" x2="53.8" y2="31.87"/><polyline class="cls-2" points="53.74 30.87 53.74 31.87 56.4 31.87 56.4 30.79"/><polyline class="cls-2" points="59.56 30.79 59.56 37.25 62.65 37.25 62.65 30.79"/><line class="cls-2" x1="62.61" y1="44.04" x2="62.61" y2="37.25"/><line class="cls-2" x1="71.14" y1="29.76" x2="64.64" y2="29.76"/><polyline class="cls-2" points="62.61 28.73 62.61 16.01 62.48 16.01"/><line class="cls-2" x1="57.16" y1="28.73" x2="57.16" y2="15.47"/><line class="cls-2" x1="51.71" y1="28.73" x2="51.71" y2="16.01"/><line class="cls-2" x1="46.25" y1="28.73" x2="46.25" y2="15.47"/><line class="cls-2" x1="40.8" y1="28.73" x2="40.8" y2="16.01"/><line class="cls-2" x1="35.34" y1="28.73" x2="35.34" y2="15.47"/><line class="cls-2" x1="29.89" y1="28.73" x2="29.89" y2="16.01"/><line class="cls-2" x1="24.44" y1="28.73" x2="24.44" y2="15.47"/><polyline class="cls-2" points="12.76 28.62 12.76 22.25 15.85 22.25 15.85 28.73"/><polyline class="cls-2" points="18.72 28.73 18.72 27.64 15.85 27.64"/><line class="cls-2" x1="12.8" y1="22.25" x2="12.8" y2="15.47"/><polygon class="cls-2" points="81.55 14.84 86.7 14.84 86.7 14.3 92.05 14.3 92.05 14.84 98.54 14.84 98.54 14.3 103.87 14.3 103.87 14.84 109.04 14.84 109.04 19.35 109.58 19.35 109.58 27.18 109.04 27.18 109.04 30.77 109.58 30.77 109.58 34.77 109.04 34.77 109.04 37.62 109.58 37.62 109.58 42.67 109.04 42.67 109.04 45.43 111.84 45.43 111.84 46.04 109.04 46.04 109.04 48.81 109.58 48.81 109.58 51.5 103.53 51.5 103.53 52.31 103.54 52.32 107.35 62.79 106.84 62.98 108.33 67.07 108.81 66.9 108.95 67.28 107.28 67.89 108.44 71.09 107.92 71.28 109.47 75.54 105.46 77 105.65 77.53 97.28 80.57 96.78 79.2 93.44 80.41 94.06 82.13 85.95 85.08 85.33 83.36 81.99 84.58 82.62 86.3 74.51 89.25 73.88 87.53 70.55 88.74 71.95 92.58 67.37 94.24 66.75 92.55 63.43 93.76 64.06 95.47 58.19 97.6 58.01 97.09 53.77 98.63 52.38 94.81 51.86 94.99 50.42 91.04 52.69 90.21 51.28 86.33 53.25 85.61 50.35 77.65 50.86 77.46 49.11 72.63 53.22 71.13 53.03 70.62 60.28 67.98 60.47 68.49 64.05 67.19 63.86 66.68 70.21 64.37 70.39 64.88 75.97 62.85 75.79 62.34 80.46 60.64 80.64 61.15 86.22 59.12 86.04 58.61 87.99 57.9 87.99 51.5 81.01 51.5 81.01 48.81 81.55 48.81 81.55 46.04 79.17 46.04 79.17 45.43 81.55 45.43 81.55 42.67 81.01 42.67 81.01 37.62 81.55 37.62 81.55 31.68 81.01 31.68 81.01 26.34 81.55 26.34 81.55 23.5 81.01 23.5 81.01 19.35 81.55 19.35 81.55 14.84"/><polyline class="cls-2" points="95.69 69.2 93.3 62.62 90.59 63.61 92.98 70.19"/><polyline class="cls-2" points="90.98 63.47 90.98 62.37 92.9 62.37 93.03 62.72"/><polyline class="cls-2" points="93.3 62.62 93.24 62.48 94.27 62.11 94.27 48.55 94.02 48.41 93.66 48.2 93.66 43.26 94.27 42.91 94.27 21.34 96.33 21.34 96.33 63.66 98.96 70.84 97.29 71.46 97.08 70.89 58.07 85.09 57.36 83.15 95.69 69.2"/><polyline class="cls-2" points="94.27 59.32 93.12 59.32 93.12 62.37 92.9 62.37"/><polyline class="cls-2" points="94.27 23.32 93.18 23.32 93.18 26.05 94.27 26.05"/><polyline class="cls-2" points="96.33 28.2 99.49 28.2 99.49 34.65 96.33 34.65"/><polyline class="cls-2" points="96.72 64.72 99.68 63.64 101.9 69.74 98.95 70.82"/><polyline class="cls-2" points="61.35 81.7 59.11 75.56 62.07 74.48 64.31 80.62"/><polyline class="cls-2" points="67.03 79.63 66.66 78.61 63.94 79.6"/><line class="cls-2" x1="95.3" y1="21.34" x2="95.3" y2="14.84"/><line class="cls-2" x1="96.33" y1="23.37" x2="109.58" y2="23.37"/><polyline class="cls-2" points="109.04 34.77 109.04 34.65 99.49 34.65"/><line class="cls-2" x1="109.58" y1="40.1" x2="96.33" y2="40.1"/><line class="cls-2" x1="96.33" y1="45.74" x2="111.84" y2="45.74"/><line class="cls-2" x1="79.17" y1="45.74" x2="93.66" y2="45.74"/><polyline class="cls-2" points="96.33 59.06 102.03 59.06 105.53 57.78"/><polyline class="cls-2" points="107.28 67.89 107.24 67.77 101.9 69.74"/><polyline class="cls-2" points="63.43 93.76 63.31 93.8 59.9 84.42"/><polyline class="cls-2" points="53.25 85.61 53.29 85.73 57.72 84.12"/><line class="cls-2" x1="56.93" y1="69.2" x2="59.23" y2="75.51"/><line class="cls-2" x1="67.87" y1="65.22" x2="72.41" y2="77.67"/><line class="cls-2" x1="73.18" y1="63.86" x2="77.53" y2="75.81"/><line class="cls-2" x1="78.12" y1="61.49" x2="82.66" y2="73.94"/><line class="cls-2" x1="83.43" y1="60.13" x2="87.78" y2="72.08"/><polyline class="cls-2" points="87.99 57.9 88.11 57.9 88.11 58.8 91.03 58.8 91.03 62.37"/><line class="cls-2" x1="81.01" y1="40.1" x2="94.27" y2="40.1"/><line class="cls-2" x1="81.55" y1="34.65" x2="94.27" y2="34.65"/><line class="cls-2" x1="81.01" y1="29.19" x2="94.27" y2="29.19"/><polyline class="cls-2" points="81.55 23.5 81.55 23.37 93.18 23.37"/><polyline class="cls-2" points="73.88 87.53 73.98 87.49 71.35 80.25"/><polyline class="cls-2" points="85.33 83.36 85.43 83.33 82.79 76.09"/><polyline class="cls-2" points="96.78 79.2 96.87 79.16 94.24 71.92"/><g class="cls-7"><rect class="cls-2" x="-166.41" y="-436.52" width="450.14" height="582.54"/></g><g><path class="cls-9" d="M83.32,95.63v3.91h2.46v.5h-3.07v-4.41h.61Z"/><path class="cls-9" d="M89.52,100.05h-3.15v-4.41h3.08v.5h-2.49v1.39h1.98v.5h-1.98v1.52h2.56v.5Z"/><path class="cls-9" d="M91.59,100.05l-1.77-4.41h.62l1.49,3.71h.03l1.45-3.71h.62l-1.78,4.41h-.66Z"/><path class="cls-9" d="M97.68,100.05h-3.15v-4.41h3.08v.5h-2.49v1.39h1.98v.5h-1.98v1.52h2.56v.5Z"/><path class="cls-9" d="M98.98,95.63v3.91h2.46v.5h-3.07v-4.41h.61Z"/><path class="cls-9" d="M106.3,99.52v.53h-3.24v-.35l1.25-1.07c.69-.6,1.21-1.05,1.21-1.69,0-.52-.29-.88-.88-.88s-.94,.38-.94,1.03c0,.13,.01,.27,.05,.4l-.6-.03c-.03-.14-.05-.28-.05-.41,0-.9,.61-1.48,1.55-1.48,1.03,0,1.5,.6,1.5,1.35,0,.8-.68,1.41-1.32,1.93l-.83,.69h2.3Z"/><path class="cls-9" d="M106.56,98h1.61v.52h-1.61v-.52Z"/><path class="cls-9" d="M111.76,96.18h-2.12c0,.24-.11,1.14-.16,1.37,.2-.25,.56-.45,1.05-.45,1,0,1.52,.67,1.52,1.48,0,.92-.64,1.55-1.6,1.55-1.06,0-1.67-.67-1.62-1.65l.59,.05c0,.67,.36,1.11,1.05,1.11,.62,0,1-.41,1-1.06,0-.58-.38-1.01-1-1.01-.49,0-.81,.26-.97,.56l-.6-.04c.11-.61,.26-1.74,.28-2.46h2.58v.55Z"/></g><g class="cls-8"><rect class="cls-4" x="-517.44" y="-682.58" width="678.3" height="877.8"/></g><g><path class="cls-9" d="M7.19,4.76h.02l.65-2.62h.41l-.81,3.15h-.5l-.66-2.52h-.02l-.67,2.52h-.5l-.81-3.15h.42l.66,2.61h.02l.69-2.61h.41l.7,2.62Z"/><path class="cls-9" d="M10.87,5.29h-2.25V2.14h2.2v.36h-1.78v.99h1.42v.36h-1.42v1.09h1.83v.36Z"/><path class="cls-9" d="M11.51,4.14c.03,.58,.42,.87,.95,.87,.47,0,.77-.2,.77-.55,0-.29-.19-.43-.6-.51l-.62-.12c-.47-.09-.79-.34-.79-.83,0-.55,.44-.93,1.13-.93,.79,0,1.25,.42,1.25,1.13l-.39,.02c-.02-.52-.33-.82-.85-.82-.46,0-.71,.21-.71,.57,0,.31,.21,.41,.57,.48l.57,.11c.58,.11,.87,.36,.87,.87,0,.58-.5,.92-1.18,.92-.78,0-1.34-.42-1.34-1.19l.39-.03Z"/><path class="cls-9" d="M14.9,5.29V2.5h-1.15v-.36h2.74v.36h-1.17v2.79h-.43Z"/><path class="cls-9" d="M19.15,5.29h-1.34V2.14h1.29c.78,0,1.1,.34,1.1,.84,0,.37-.26,.62-.6,.68,.39,.07,.69,.32,.69,.77,0,.55-.4,.87-1.14,.87Zm-.92-1.79h.88c.46,0,.65-.2,.65-.5s-.2-.51-.65-.51h-.88v1.01Zm0,.34v1.1h.91c.47,0,.72-.21,.72-.55s-.25-.55-.72-.55h-.91Z"/><path class="cls-9" d="M20.72,4.09v-1.95h.43v1.95c0,.6,.3,.9,.85,.9s.86-.29,.86-.89v-1.96h.43v1.95c0,.92-.57,1.27-1.28,1.27s-1.28-.34-1.28-1.27Z"/><path class="cls-9" d="M24.28,2.14v3.15h-.44V2.14h.44Z"/><path class="cls-9" d="M25.32,2.14v2.79h1.76v.36h-2.19V2.14h.44Z"/><path class="cls-9" d="M27.51,2.14h1.14c.99,0,1.62,.59,1.62,1.58s-.62,1.58-1.62,1.58h-1.14V2.14Zm1.12,2.8c.77,0,1.19-.46,1.19-1.22s-.42-1.22-1.19-1.22h-.68v2.44h.68Z"/><path class="cls-9" d="M31.16,2.14v3.15h-.43V2.14h.43Z"/><path class="cls-9" d="M33.95,4.55V2.14h.41v3.15h-.34l-1.83-2.53v2.53h-.41V2.14h.45l1.73,2.41Z"/><path class="cls-9" d="M34.81,3.72c0-.97,.67-1.64,1.54-1.64s1.41,.5,1.46,1.3l-.42,.03c-.04-.58-.41-.96-1.04-.96s-1.1,.49-1.1,1.27,.46,1.27,1.14,1.27c.59,0,.97-.37,1.03-.91h-.96v-.34h1.36v1.56h-.4v-.56c-.14,.4-.58,.62-1.08,.62-.89,0-1.54-.66-1.54-1.64Z"/></g><g><path class="cls-9" d="M80.03,5.29h-2.25V2.14h2.2v.36h-1.78v.99h1.42v.36h-1.42v1.09h1.83v.36Z"/><path class="cls-9" d="M82.04,2.14l1.31,3.15h-.46l-.38-.93h-1.44l-.37,.93h-.43l1.29-3.15h.47Zm-.83,1.88h1.16l-.58-1.4h-.02l-.57,1.4Z"/><path class="cls-9" d="M83.87,4.14c.03,.58,.42,.87,.95,.87,.47,0,.77-.2,.77-.55,0-.29-.19-.43-.6-.51l-.62-.12c-.47-.09-.79-.34-.79-.83,0-.55,.44-.93,1.13-.93,.79,0,1.25,.42,1.25,1.13l-.39,.02c-.02-.52-.33-.82-.85-.82-.46,0-.71,.21-.71,.57,0,.31,.21,.41,.57,.48l.57,.11c.58,.11,.87,.36,.87,.87,0,.58-.5,.92-1.18,.92-.78,0-1.34-.42-1.34-1.19l.39-.03Z"/><path class="cls-9" d="M87.27,5.29V2.5h-1.15v-.36h2.74v.36h-1.17v2.79h-.43Z"/><path class="cls-9" d="M91.51,5.29h-1.34V2.14h1.29c.78,0,1.1,.34,1.1,.84,0,.37-.26,.62-.6,.68,.39,.07,.69,.32,.69,.77,0,.55-.4,.87-1.14,.87Zm-.92-1.79h.88c.46,0,.65-.2,.65-.5s-.19-.51-.65-.51h-.88v1.01Zm0,.34v1.1h.91c.47,0,.72-.21,.72-.55s-.25-.55-.72-.55h-.91Z"/><path class="cls-9" d="M93.08,4.09v-1.95h.43v1.95c0,.6,.3,.9,.85,.9s.86-.29,.86-.89v-1.96h.42v1.95c0,.92-.57,1.27-1.28,1.27s-1.28-.34-1.28-1.27Z"/><path class="cls-9" d="M96.64,2.14v3.15h-.43V2.14h.43Z"/><path class="cls-9" d="M97.68,2.14v2.79h1.76v.36h-2.19V2.14h.43Z"/><path class="cls-9" d="M99.87,2.14h1.14c.99,0,1.62,.59,1.62,1.58s-.63,1.58-1.62,1.58h-1.14V2.14Zm1.12,2.8c.77,0,1.19-.46,1.19-1.22s-.42-1.22-1.19-1.22h-.68v2.44h.68Z"/><path class="cls-9" d="M103.52,2.14v3.15h-.44V2.14h.44Z"/><path class="cls-9" d="M106.31,4.55V2.14h.41v3.15h-.35l-1.83-2.53v2.53h-.41V2.14h.45l1.73,2.41Z"/><path class="cls-9" d="M107.17,3.72c0-.97,.67-1.64,1.54-1.64s1.41,.5,1.46,1.3l-.42,.03c-.04-.58-.41-.96-1.04-.96s-1.1,.49-1.1,1.27,.46,1.27,1.14,1.27c.59,0,.97-.37,1.03-.91h-.96v-.34h1.36v1.56h-.4v-.56c-.14,.4-.58,.62-1.08,.62-.89,0-1.54-.66-1.54-1.64Z"/></g></g></svg>