<?xml version="1.0" encoding="UTF-8"?><svg id="Layer_1" xmlns="http://www.w3.org/2000/svg" xmlns:xlink="http://www.w3.org/1999/xlink" viewBox="0 0 113.37 101.61"><defs><style>.cls-1{stroke:#ebebec;}.cls-1,.cls-2{stroke-width:.31px;}.cls-1,.cls-2,.cls-3,.cls-4{fill:none;}.cls-1,.cls-2,.cls-4{stroke-linecap:round;stroke-linejoin:round;}.cls-2,.cls-4{stroke:#000;}.cls-5{fill:#f1b784;fill-rule:evenodd;}.cls-6{clip-path:url(#clippath);}.cls-7{clip-path:url(#clippath-3);}.cls-8{clip-path:url(#clippath-5);}.cls-9{fill:#333132;}.cls-4{stroke-width:.47px;}</style><clipPath id="clippath"><rect class="cls-3" x="-482.66" y="-647.34" width="612" height="792"/></clipPath><clipPath id="clippath-3"><rect class="cls-3" x="-141.86" y="-9.54" width="268.8" height="115.2"/></clipPath><clipPath id="clippath-5"><rect class="cls-3" x="-482.66" y="-519.18" width="612" height="480.48"/></clipPath></defs><g class="cls-6"><polygon class="cls-5" points="19.11 29.26 10.39 29.26 10.39 28.23 3.89 28.23 3.89 30.79 7.15 30.79 7.15 35.3 10.27 35.3 10.27 36.94 10.81 36.94 10.81 39.9 15.5 39.9 15.5 40.45 19.11 40.45 19.11 29.26"/><polygon class="cls-1" points="19.11 29.26 10.39 29.26 10.39 28.23 3.89 28.23 3.89 30.79 7.16 30.79 7.16 35.3 10.27 35.3 10.27 36.94 10.81 36.94 10.81 39.9 15.5 39.9 15.5 40.45 19.11 40.45 19.11 29.26"/><line class="cls-2" x1="33.55" y1="32.5" x2="33.55" y2="29.26"/><polyline class="cls-2" points="37 32.5 33.55 29.26 30.09 32.5"/><polyline class="cls-2" points="37 29.26 33.55 32.5 30.09 29.26"/><line class="cls-2" x1="91.41" y1="65.38" x2="94.12" y2="64.39"/><polyline class="cls-2" points="92.61 68.67 94.12 64.39 90.21 62.09"/><polyline class="cls-2" points="95.31 67.68 91.41 65.38 92.92 61.1"/><polyline class="cls-2" points="89.47 55.7 88.82 53.92 88.82 18.57 106.63 18.57 106.63 43.91"/><polyline class="cls-2" points="106.63 44.52 106.63 44.83 99.7 47.36 101.18 51.44"/><polyline class="cls-2" points="2.98 19.92 1.83 19.92 1.83 12.37 8.68 12.37 8.68 13.95"/><polyline class="cls-2" points="15.7 13.95 15.7 12.36 20.07 12.36 20.07 13.95"/><polyline class="cls-2" points="26.26 13.95 26.26 12.36 32.76 12.36 32.76 13.95"/><line class="cls-2" x1="29.51" y1="12.36" x2="29.51" y2="14.49"/><polyline class="cls-2" points="37.17 13.95 37.17 12.36 43.67 12.36 43.67 13.95"/><polyline class="cls-2" points="48.08 13.95 48.08 12.36 54.58 12.36 54.58 13.95"/><line class="cls-2" x1="51.33" y1="14.49" x2="51.33" y2="12.36"/><polyline class="cls-2" points="58.96 13.95 58.96 12.36 62.28 12.36 62.28 13.95"/><polyline class="cls-2" points="65.98 13.95 65.98 12.36 72.82 12.36 72.82 19.92 71.31 19.92"/><polyline class="cls-2" points="71.31 36.55 72.82 36.55 72.82 44.1 65.98 44.1 65.98 42.52"/><polyline class="cls-2" points="58.64 42.52 58.64 44.1 50.19 44.1 50.19 42.52"/><line class="cls-2" x1="53.42" y1="41.98" x2="53.42" y2="44.1"/><polyline class="cls-2" points="45.76 42.52 45.76 44.1 39.26 44.1 39.26 42.52"/><line class="cls-2" x1="42.51" y1="41.98" x2="42.51" y2="44.1"/><polyline class="cls-2" points="33.34 42.52 33.34 44.1 28.35 44.1 28.35 42.52"/><polyline class="cls-2" points="22.36 42.52 22.36 44.1 19.04 44.1 19.04 42.53"/><polyline class="cls-2" points="15.78 40.45 15.78 42.03 12.28 42.03 12.28 39.9"/><polyline class="cls-2" points="15.47 25.58 13.93 25.58 13.93 20.73"/><line class="cls-2" x1="13.93" y1="25.23" x2="12.38" y2="25.23"/><line class="cls-2" x1="12.38" y1="23.59" x2="13.93" y2="22.87"/><polyline class="cls-2" points="62.28 31.1 60.73 31.1 60.73 35.73"/><line class="cls-2" x1="59.18" y1="33.86" x2="60.73" y2="33.14"/><line class="cls-2" x1="59.18" y1="31.5" x2="60.73" y2="31.5"/><polyline class="cls-2" points="87.61 56.38 87.61 49.98 80.63 49.98 80.63 44.52 78.79 44.52 78.79 43.91 80.63 43.91 80.63 36.09 80.63 30.15 80.63 24.82 80.63 21.98 80.63 12.78 101.18 12.78 101.18 13.32 108.66 13.32 108.66 17.83 109.21 17.83 109.21 25.66 109.21 29.25 109.21 33.25 109.21 36.09 109.21 43.91 111.46 43.91 111.46 44.52 109.21 44.52 109.21 49.98 103.16 49.98 103.16 50.77"/><polyline class="cls-2" points="58.08 95.98 58.39 96.83 51.89 99.19 49.91 93.75 51.39 93.21"/><polyline class="cls-2" points="50.07 76.39 48.53 76.95 45.94 69.86 52.38 67.51 52.92 69"/><polyline class="cls-2" points="59.67 66.55 59.13 65.06 63.24 63.56 63.78 65.05"/><polyline class="cls-2" points="69.57 62.94 69.03 61.46 75.13 59.23 75.67 60.72"/><line class="cls-2" x1="72.08" y1="60.34" x2="72.81" y2="62.34"/><polyline class="cls-2" points="79.82 59.21 79.28 57.72 85.38 55.5 85.93 56.99"/><line class="cls-2" x1="82.33" y1="56.61" x2="83.06" y2="58.61"/><polyline class="cls-2" points="106.88 61.01 108.37 60.46 110.09 65.18 108.57 65.73"/><polyline class="cls-2" points="67.3 92.63 67.61 93.47 63.72 94.88 63.42 94.04"/><line class="cls-2" x1="98.48" y1="64.48" x2="97.01" y2="65.02"/><polyline class="cls-2" points="99.91 63.78 98.43 64.32 99.4 66.98 97.92 67.52"/><line class="cls-2" x1="99.34" y1="66.82" x2="100.82" y2="66.28"/><polyline class="cls-2" points="61.75 73.52 60.4 74.01 61.89 78.08 63.37 77.54"/><line class="cls-2" x1="60.29" y1="78.31" x2="61.77" y2="77.77"/><line class="cls-2" x1="60.97" y1="75.55" x2="59.73" y2="76.79"/><polyline class="cls-2" points="99.22 31.52 97.53 31.52 97.53 27.86 95.85 27.86"/><line class="cls-2" x1="99.22" y1="28.45" x2="97.53" y2="28.45"/><line class="cls-2" x1="95.85" y1="31.19" x2="97.53" y2="31.19"/><rect class="cls-2" x="105.5" y="43.91" width="5.97" height=".61"/><rect class="cls-2" x="78.79" y="43.91" width="5.55" height=".61"/><polyline class="cls-2" points="107.98 69.33 109.5 68.77 111.64 74.67 105.35 76.96 105.04 76.09"/><polyline class="cls-2" points="93.68 80.58 97.26 79.28 97.14 78.97"/><line class="cls-2" x1="82.23" y1="84.75" x2="85.57" y2="83.53"/><polyline class="cls-2" points="74.37 87.64 74.56 88.17 71 89.46"/><polygon class="cls-2" points="2.98 20.08 2.98 19.62 3.53 19.62 3.53 14.49 8.4 14.49 8.4 13.95 15.98 13.95 15.98 14.49 19.79 14.49 19.79 13.95 26.51 13.95 26.51 14.49 32.45 14.49 32.45 13.95 37.42 13.95 37.42 14.49 43.36 14.49 43.36 13.95 48.33 13.95 48.33 14.49 54.27 14.49 54.27 13.95 59.24 13.95 59.24 14.49 62.1 14.49 62.1 13.95 66.26 13.95 66.26 14.49 70.76 14.49 70.76 19.64 71.31 19.64 71.31 24.99 70.76 24.99 70.76 31.48 71.31 31.48 71.31 36.83 70.76 36.83 70.76 41.98 66.26 41.98 66.26 42.52 58.36 42.52 58.36 41.98 50.47 41.98 50.47 42.52 45.51 42.52 45.51 41.98 39.57 41.98 39.57 42.52 33.06 42.52 33.06 41.98 28.63 41.98 28.63 42.52 22.08 42.52 22.08 41.98 19.45 41.98 19.45 42.53 18.98 42.53 18.98 40.45 15.5 40.45 15.5 39.9 10.81 39.9 10.81 36.94 10.27 36.94 10.27 35.3 7.15 35.3 7.15 30.79 3.89 30.79 3.89 20.08 2.98 20.08"/><rect class="cls-2" x="10.39" y="27.2" width="53.87" height="2.06"/><line class="cls-2" x1="10.39" y1="28.23" x2="3.89" y2="28.23"/><polyline class="cls-2" points="19.11 29.26 19.11 40.45 18.98 40.45"/><line class="cls-2" x1="24.57" y1="29.26" x2="24.57" y2="42.52"/><polyline class="cls-2" points="30.09 29.26 30.09 32.5 37 32.5 37 29.26"/><polyline class="cls-2" points="37.06 42.52 37.06 32.5 37 32.5"/><line class="cls-2" x1="42.51" y1="41.98" x2="42.51" y2="29.26"/><line class="cls-2" x1="47.97" y1="42.52" x2="47.97" y2="29.26"/><line class="cls-2" x1="53.42" y1="41.98" x2="53.42" y2="30.35"/><polyline class="cls-2" points="53.37 29.34 53.37 30.35 56.03 30.35 56.03 29.26"/><polyline class="cls-2" points="59.18 29.26 59.18 35.73 62.28 35.73 62.28 29.26"/><line class="cls-2" x1="62.24" y1="42.52" x2="62.24" y2="35.73"/><line class="cls-2" x1="70.76" y1="28.23" x2="64.26" y2="28.23"/><polyline class="cls-2" points="62.24 27.2 62.24 14.49 62.1 14.49"/><line class="cls-2" x1="56.78" y1="27.2" x2="56.78" y2="13.95"/><line class="cls-2" x1="51.33" y1="27.2" x2="51.33" y2="14.49"/><line class="cls-2" x1="45.88" y1="27.2" x2="45.88" y2="13.95"/><line class="cls-2" x1="40.42" y1="27.2" x2="40.42" y2="14.49"/><line class="cls-2" x1="34.97" y1="27.2" x2="34.97" y2="13.95"/><line class="cls-2" x1="29.51" y1="27.2" x2="29.51" y2="14.49"/><line class="cls-2" x1="24.06" y1="27.2" x2="24.06" y2="13.95"/><polyline class="cls-2" points="12.38 27.09 12.38 20.73 15.47 20.73 15.47 27.2"/><polyline class="cls-2" points="18.34 27.2 18.34 26.12 15.47 26.12"/><line class="cls-2" x1="12.42" y1="20.73" x2="12.42" y2="13.95"/><polygon class="cls-2" points="103.14 50.72 106.98 61.27 106.46 61.46 107.95 65.55 108.44 65.37 108.58 65.76 106.91 66.37 108.07 69.56 107.55 69.75 109.1 74.02 105.08 75.48 105.27 76 96.9 79.05 96.4 77.67 93.06 78.89 93.69 80.61 85.58 83.56 84.95 81.84 81.62 83.05 82.24 84.77 74.13 87.72 73.51 86.01 70.17 87.22 71.58 91.05 67.03 92.7 66.42 91.01 63.06 92.24 63.68 93.94 57.82 96.08 57.63 95.57 53.39 97.11 52 93.29 51.49 93.47 50.05 89.51 52.32 88.69 50.9 84.8 52.87 84.09 49.98 76.13 50.49 75.94 48.73 71.11 52.84 69.61 52.65 69.1 59.9 66.46 60.09 66.97 63.67 65.67 63.48 65.16 69.83 62.85 70.02 63.36 75.6 61.33 75.41 60.82 80.08 59.12 80.27 59.63 85.85 57.6 85.66 57.08 103.14 50.72"/><polyline class="cls-2" points="95.31 67.68 92.92 61.1 90.21 62.09 92.6 68.67"/><polyline class="cls-2" points="95.5 60.9 98.58 69.32 96.5 70.09 96.29 69.52 57.69 83.56 56.99 81.63 95.31 67.68"/><rect class="cls-2" x="95.85" y="26.18" width="3.36" height="7.12"/><polyline class="cls-2" points="96.34 63.2 99.31 62.12 101.53 68.22 98.58 69.3"/><polyline class="cls-2" points="60.97 80.18 58.73 74.03 61.7 72.96 63.93 79.1"/><polyline class="cls-2" points="66.65 78.11 66.28 77.09 63.56 78.08"/><polyline class="cls-2" points="106.46 61.46 106.42 61.34 99.89 63.71"/><polyline class="cls-2" points="52.87 84.09 52.92 84.21 57.34 82.6"/><line class="cls-2" x1="56.56" y1="67.68" x2="58.85" y2="73.99"/><line class="cls-2" x1="67.5" y1="63.7" x2="72.03" y2="76.15"/><line class="cls-2" x1="72.81" y1="62.34" x2="77.16" y2="74.29"/><line class="cls-2" x1="77.75" y1="59.97" x2="82.28" y2="72.42"/><line class="cls-2" x1="83.06" y1="58.61" x2="87.41" y2="70.56"/><polyline class="cls-2" points="88 56.23 90.14 62.11 90.21 62.09"/><polyline class="cls-2" points="93.16 61.75 96 60.72 95.01 58.01 89.39 60.05"/><polyline class="cls-2" points="92.92 61.1 93.04 61.06 92.77 60.31 91.23 60.86 91.51 61.62"/><polyline class="cls-2" points="96.4 77.67 96.5 77.64 93.86 70.4"/><polyline class="cls-2" points="66.42 91.01 66.48 90.99 63.06 81.61"/><polyline class="cls-2" points="81.62 83.05 81.52 83.09 78.88 75.85"/><g class="cls-7"><rect class="cls-2" x="-233.98" y="-438.04" width="450.14" height="582.54"/></g><g><path class="cls-9" d="M87.96,95.95v3.91h2.46v.5h-3.07v-4.41h.61Z"/><path class="cls-9" d="M94.16,100.36h-3.15v-4.41h3.08v.5h-2.49v1.39h1.98v.5h-1.98v1.52h2.56v.5Z"/><path class="cls-9" d="M96.23,100.36l-1.77-4.41h.62l1.49,3.71h.03l1.45-3.71h.62l-1.78,4.41h-.66Z"/><path class="cls-9" d="M102.32,100.36h-3.15v-4.41h3.08v.5h-2.49v1.39h1.98v.5h-1.98v1.52h2.56v.5Z"/><path class="cls-9" d="M103.62,95.95v3.91h2.46v.5h-3.07v-4.41h.61Z"/><path class="cls-9" d="M108.28,98.32c.15-.51,.6-.9,1.32-.9,.95,0,1.55,.62,1.55,1.49,0,.91-.62,1.53-1.61,1.53-1.18,0-1.79-.85-1.79-2.21s.58-2.37,1.82-2.37c.88,0,1.46,.5,1.54,1.33l-.58,.02c-.08-.52-.37-.87-.97-.87-.9,0-1.28,.82-1.27,1.97Zm1.25,1.63c.65,0,1.04-.41,1.04-1.02s-.39-1.03-1.06-1.03-1.05,.41-1.05,1.03,.41,1.02,1.07,1.02Z"/></g><g class="cls-8"><rect class="cls-4" x="-513.28" y="-649.63" width="678.3" height="877.8"/></g><g><path class="cls-9" d="M8.1,5.08h.02l.65-2.62h.41l-.81,3.15h-.5l-.66-2.52h-.02l-.67,2.52h-.5l-.81-3.15h.42l.66,2.61h.02l.69-2.61h.41l.7,2.62Z"/><path class="cls-9" d="M11.78,5.61h-2.25V2.45h2.2v.36h-1.78v.99h1.42v.36h-1.42v1.09h1.83v.36Z"/><path class="cls-9" d="M12.42,4.46c.02,.58,.42,.87,.95,.87,.47,0,.77-.2,.77-.55,0-.29-.19-.43-.6-.51l-.62-.12c-.47-.09-.79-.34-.79-.83,0-.55,.44-.93,1.13-.93,.79,0,1.25,.42,1.25,1.13l-.4,.02c-.02-.52-.33-.82-.85-.82-.46,0-.71,.21-.71,.57,0,.31,.21,.41,.57,.48l.57,.11c.58,.11,.87,.36,.87,.87,0,.58-.5,.92-1.18,.92-.78,0-1.34-.42-1.34-1.19l.39-.03Z"/><path class="cls-9" d="M15.81,5.61V2.81h-1.15v-.36h2.74v.36h-1.17v2.79h-.43Z"/><path class="cls-9" d="M20.05,5.61h-1.34V2.45h1.29c.78,0,1.1,.34,1.1,.84,0,.37-.26,.62-.6,.68,.39,.07,.69,.32,.69,.77,0,.55-.4,.87-1.14,.87Zm-.92-1.79h.88c.46,0,.65-.2,.65-.5s-.19-.51-.65-.51h-.88v1.01Zm0,.34v1.1h.91c.47,0,.72-.21,.72-.55s-.25-.55-.72-.55h-.91Z"/><path class="cls-9" d="M21.63,4.4v-1.95h.43v1.95c0,.6,.3,.9,.85,.9s.86-.29,.86-.89v-1.96h.42v1.95c0,.92-.57,1.27-1.28,1.27s-1.28-.34-1.28-1.27Z"/><path class="cls-9" d="M25.18,2.45v3.15h-.43V2.45h.43Z"/><path class="cls-9" d="M26.23,2.45v2.79h1.76v.36h-2.19V2.45h.43Z"/><path class="cls-9" d="M28.41,2.45h1.14c.99,0,1.62,.59,1.62,1.58s-.63,1.58-1.62,1.58h-1.14V2.45Zm1.12,2.8c.77,0,1.19-.46,1.19-1.22s-.42-1.22-1.19-1.22h-.68v2.44h.68Z"/><path class="cls-9" d="M32.06,2.45v3.15h-.44V2.45h.44Z"/><path class="cls-9" d="M34.85,4.87V2.45h.41v3.15h-.35l-1.83-2.53v2.53h-.41V2.45h.45l1.73,2.41Z"/><path class="cls-9" d="M35.72,4.03c0-.97,.67-1.64,1.54-1.64s1.41,.5,1.46,1.3l-.42,.03c-.04-.58-.41-.96-1.04-.96s-1.1,.49-1.1,1.27,.46,1.27,1.14,1.27c.59,0,.97-.37,1.03-.91h-.96v-.34h1.36v1.56h-.4v-.56c-.14,.4-.58,.62-1.08,.62-.89,0-1.54-.66-1.54-1.64Z"/></g><g><path class="cls-9" d="M80.93,5.61h-2.25V2.45h2.2v.36h-1.78v.99h1.42v.36h-1.42v1.09h1.83v.36Z"/><path class="cls-9" d="M82.94,2.45l1.31,3.15h-.46l-.38-.93h-1.44l-.37,.93h-.42l1.29-3.15h.48Zm-.83,1.88h1.16l-.58-1.4h-.02l-.57,1.4Z"/><path class="cls-9" d="M84.78,4.46c.02,.58,.42,.87,.95,.87,.47,0,.77-.2,.77-.55,0-.29-.19-.43-.6-.51l-.62-.12c-.47-.09-.79-.34-.79-.83,0-.55,.44-.93,1.13-.93,.79,0,1.25,.42,1.25,1.13l-.4,.02c-.02-.52-.33-.82-.85-.82-.46,0-.71,.21-.71,.57,0,.31,.21,.41,.57,.48l.57,.11c.58,.11,.87,.36,.87,.87,0,.58-.5,.92-1.18,.92-.78,0-1.34-.42-1.34-1.19l.39-.03Z"/><path class="cls-9" d="M88.17,5.61V2.81h-1.15v-.36h2.74v.36h-1.17v2.79h-.43Z"/><path class="cls-9" d="M92.41,5.61h-1.34V2.45h1.29c.78,0,1.1,.34,1.1,.84,0,.37-.26,.62-.6,.68,.39,.07,.69,.32,.69,.77,0,.55-.4,.87-1.14,.87Zm-.92-1.79h.88c.46,0,.65-.2,.65-.5s-.2-.51-.65-.51h-.88v1.01Zm0,.34v1.1h.91c.47,0,.72-.21,.72-.55s-.25-.55-.72-.55h-.91Z"/><path class="cls-9" d="M93.99,4.4v-1.95h.43v1.95c0,.6,.3,.9,.85,.9s.86-.29,.86-.89v-1.96h.43v1.95c0,.92-.57,1.27-1.28,1.27s-1.28-.34-1.28-1.27Z"/><path class="cls-9" d="M97.54,2.45v3.15h-.44V2.45h.44Z"/><path class="cls-9" d="M98.59,2.45v2.79h1.76v.36h-2.19V2.45h.44Z"/><path class="cls-9" d="M100.77,2.45h1.14c.99,0,1.62,.59,1.62,1.58s-.62,1.58-1.62,1.58h-1.14V2.45Zm1.12,2.8c.77,0,1.19-.46,1.19-1.22s-.42-1.22-1.19-1.22h-.68v2.44h.68Z"/><path class="cls-9" d="M104.42,2.45v3.15h-.43V2.45h.43Z"/><path class="cls-9" d="M107.21,4.87V2.45h.41v3.15h-.34l-1.83-2.53v2.53h-.41V2.45h.45l1.73,2.41Z"/><path class="cls-9" d="M108.08,4.03c0-.97,.67-1.64,1.54-1.64s1.41,.5,1.46,1.3l-.42,.03c-.04-.58-.41-.96-1.04-.96s-1.1,.49-1.1,1.27,.46,1.27,1.14,1.27c.59,0,.97-.37,1.03-.91h-.96v-.34h1.36v1.56h-.4v-.56c-.14,.4-.58,.62-1.08,.62-.89,0-1.54-.66-1.54-1.64Z"/></g></g></svg>