<?xml version="1.0" encoding="UTF-8"?><svg id="Layer_1" xmlns="http://www.w3.org/2000/svg" xmlns:xlink="http://www.w3.org/1999/xlink" viewBox="0 0 117.67 101.61"><defs><style>.cls-1{stroke:#ebebec;}.cls-1,.cls-2{stroke-width:.31px;}.cls-1,.cls-2,.cls-3,.cls-4{fill:none;}.cls-1,.cls-2,.cls-4{stroke-linecap:round;stroke-linejoin:round;}.cls-2,.cls-4{stroke:#000;}.cls-5{fill:#f1b784;fill-rule:evenodd;}.cls-6{clip-path:url(#clippath);}.cls-7{clip-path:url(#clippath-3);}.cls-8{clip-path:url(#clippath-5);}.cls-9{fill:#333132;}.cls-4{stroke-width:.47px;}</style><clipPath id="clippath"><rect class="cls-3" x="-348.33" y="-647.34" width="612" height="792"/></clipPath><clipPath id="clippath-3"><rect class="cls-3" x="-7.53" y="-9.54" width="268.8" height="115.2"/></clipPath><clipPath id="clippath-5"><rect class="cls-3" x="-348.33" y="-519.18" width="612" height="480.48"/></clipPath></defs><g class="cls-6"><polygon class="cls-5" points="19.04 29.26 10.32 29.26 10.32 28.23 3.82 28.23 3.82 30.79 7.08 30.79 7.08 35.3 10.2 35.3 10.2 36.94 10.74 36.94 10.74 39.9 15.43 39.9 15.43 40.45 19.04 40.45 19.04 29.26"/><polygon class="cls-1" points="19.04 29.26 10.32 29.26 10.32 28.23 3.82 28.23 3.82 30.79 7.08 30.79 7.08 35.3 10.2 35.3 10.2 36.94 10.74 36.94 10.74 39.9 15.42 39.9 15.42 40.45 19.04 40.45 19.04 29.26"/><line class="cls-2" x1="33.47" y1="32.5" x2="33.47" y2="29.26"/><polyline class="cls-2" points="36.93 32.5 33.47 29.26 30.02 32.5"/><polyline class="cls-2" points="36.93 29.26 33.47 32.5 30.02 29.26"/><line class="cls-2" x1="91.34" y1="65.38" x2="94.05" y2="64.39"/><polyline class="cls-2" points="92.53 68.67 94.05 64.39 90.14 62.09"/><polyline class="cls-2" points="95.24 67.68 91.34 65.38 92.85 61.1"/><polyline class="cls-2" points="2.91 19.92 1.76 19.92 1.76 12.37 8.61 12.37 8.61 13.95"/><polyline class="cls-2" points="15.63 13.95 15.63 12.36 20 12.36 20 13.95"/><polyline class="cls-2" points="26.19 13.95 26.19 12.36 32.69 12.36 32.69 13.95"/><line class="cls-2" x1="29.44" y1="12.36" x2="29.44" y2="14.49"/><polyline class="cls-2" points="71.24 36.55 72.75 36.55 72.75 44.1 65.9 44.1 65.9 42.52"/><polyline class="cls-2" points="58.56 42.52 58.56 44.1 50.11 44.1 50.11 42.52"/><line class="cls-2" x1="53.35" y1="41.98" x2="53.35" y2="44.1"/><polyline class="cls-2" points="45.69 42.52 45.69 44.1 39.19 44.1 39.19 42.52"/><line class="cls-2" x1="42.44" y1="41.98" x2="42.44" y2="44.1"/><polyline class="cls-2" points="33.27 42.52 33.27 44.1 28.27 44.1 28.27 42.52"/><polyline class="cls-2" points="22.29 42.52 22.29 44.1 18.96 44.1 18.96 42.53"/><polyline class="cls-2" points="15.7 40.45 15.7 42.03 12.2 42.03 12.2 39.9"/><polyline class="cls-2" points="15.4 25.58 13.86 25.58 13.86 20.73"/><line class="cls-2" x1="13.86" y1="25.23" x2="12.31" y2="25.23"/><line class="cls-2" x1="12.31" y1="23.59" x2="13.85" y2="22.87"/><polyline class="cls-2" points="62.2 31.1 60.66 31.1 60.66 35.73"/><line class="cls-2" x1="59.11" y1="33.86" x2="60.66" y2="33.14"/><line class="cls-2" x1="59.11" y1="31.5" x2="60.66" y2="31.5"/><polyline class="cls-2" points="58.01 95.98 58.32 96.83 51.81 99.19 49.83 93.75 51.32 93.21"/><polyline class="cls-2" points="50 76.39 48.46 76.95 45.87 69.86 52.3 67.51 52.85 69"/><polyline class="cls-2" points="59.6 66.55 59.06 65.06 63.16 63.56 63.7 65.05"/><polyline class="cls-2" points="69.5 62.94 68.96 61.46 75.06 59.23 75.6 60.72"/><line class="cls-2" x1="72.01" y1="60.34" x2="72.74" y2="62.34"/><polyline class="cls-2" points="79.75 59.21 79.21 57.72 85.31 55.5 85.85 56.99"/><line class="cls-2" x1="82.26" y1="56.61" x2="82.99" y2="58.61"/><polyline class="cls-2" points="80.56 47.57 78.98 47.57 78.98 44.52"/><polyline class="cls-2" points="80.56 40.87 78.98 40.87 78.98 43.91"/><polyline class="cls-2" points="80.56 36.37 78.98 36.37 78.98 29.88 80.56 29.88"/><line class="cls-2" x1="78.98" y1="33.12" x2="81.11" y2="33.12"/><polyline class="cls-2" points="109.14 25.38 110.72 25.38 110.72 29.53 109.14 29.53"/><polyline class="cls-2" points="109.14 32.97 110.72 32.97 110.72 36.37 109.14 36.37"/><polyline class="cls-2" points="109.14 40.87 110.72 40.87 110.72 43.91"/><polyline class="cls-2" points="110.72 44.52 110.72 47.57 109.14 47.57"/><polyline class="cls-2" points="106.81 61.01 108.3 60.46 110.01 65.18 108.5 65.73"/><polyline class="cls-2" points="107.91 69.33 109.42 68.77 111.8 75.31 105.51 77.6 104.96 76.09"/><polyline class="cls-2" points="67.16 92.64 67.47 93.49 63.65 94.88 63.35 94.04"/><line class="cls-2" x1="95.88" y1="44.22" x2="93.21" y2="44.22"/><line class="cls-2" x1="98.41" y1="64.48" x2="96.93" y2="65.02"/><polyline class="cls-2" points="99.84 63.78 98.35 64.32 99.32 66.98 97.85 67.52"/><line class="cls-2" x1="99.27" y1="66.82" x2="100.75" y2="66.28"/><polyline class="cls-2" points="61.68 73.52 60.33 74.01 61.81 78.08 63.3 77.54"/><line class="cls-2" x1="60.22" y1="78.31" x2="61.7" y2="77.77"/><line class="cls-2" x1="60.89" y1="75.55" x2="59.66" y2="76.79"/><polyline class="cls-2" points="99.04 31.52 97.46 31.52 97.46 28.52 95.88 28.52"/><line class="cls-2" x1="99.04" y1="28.86" x2="97.46" y2="28.86"/><line class="cls-2" x1="95.88" y1="31.19" x2="97.46" y2="31.19"/><line class="cls-2" x1="40.35" y1="14.49" x2="40.35" y2="12.36"/><polyline class="cls-2" points="93.61 80.58 97.18 79.28 97.07 78.97"/><line class="cls-2" x1="82.16" y1="84.75" x2="85.5" y2="83.53"/><polyline class="cls-2" points="74.3 87.64 74.49 88.17 70.92 89.46"/><polyline class="cls-2" points="103.17 12.78 103.17 11.19 110.72 11.19 110.72 18.11 109.14 18.11"/><polyline class="cls-2" points="80.56 18.11 78.98 18.11 78.98 11.19 86.53 11.19 86.53 12.78"/><polyline class="cls-2" points="80.56 21.7 78.98 21.7 78.98 25.1 80.56 25.1"/><polyline class="cls-2" points="37.1 13.95 37.1 12.36 43.6 12.36 43.6 13.95"/><line class="cls-2" x1="51.26" y1="14.49" x2="51.26" y2="12.36"/><polyline class="cls-2" points="48.01 13.95 48.01 12.36 54.51 12.36 54.51 13.95"/><polyline class="cls-2" points="58.89 13.95 58.89 12.36 62.31 12.36 62.31 13.95"/><polyline class="cls-2" points="65.9 13.95 65.9 12.36 72.75 12.36 72.75 19.92 71.24 19.92"/><polygon class="cls-2" points="2.91 20.08 2.91 19.62 3.45 19.62 3.45 14.49 8.33 14.49 8.33 13.95 15.91 13.95 15.91 14.49 19.72 14.49 19.72 13.95 26.44 13.95 26.44 14.49 32.38 14.49 32.38 13.95 37.35 13.95 37.35 14.49 43.29 14.49 43.29 13.95 48.26 13.95 48.26 14.49 54.2 14.49 54.2 13.95 59.17 13.95 59.17 14.49 62.03 14.49 62.03 13.95 66.18 13.95 66.18 14.49 70.69 14.49 70.69 19.64 71.24 19.64 71.24 24.99 70.69 24.99 70.69 31.48 71.24 31.48 71.24 36.83 70.69 36.83 70.69 41.98 66.18 41.98 66.18 42.52 58.28 42.52 58.28 41.98 50.39 41.98 50.39 42.52 45.44 42.52 45.44 41.98 39.5 41.98 39.5 42.52 32.99 42.52 32.99 41.98 28.56 41.98 28.56 42.52 22.01 42.52 22.01 41.98 19.37 41.98 19.37 42.53 18.91 42.53 18.91 40.45 15.42 40.45 15.42 39.9 10.74 39.9 10.74 36.94 10.2 36.94 10.2 35.3 7.08 35.3 7.08 30.79 3.82 30.79 3.82 20.08 2.91 20.08"/><rect class="cls-2" x="10.32" y="27.2" width="53.87" height="2.06"/><line class="cls-2" x1="10.32" y1="28.23" x2="3.82" y2="28.23"/><polyline class="cls-2" points="19.04 29.26 19.04 40.45 18.91 40.45"/><line class="cls-2" x1="24.49" y1="29.26" x2="24.49" y2="42.52"/><polyline class="cls-2" points="30.02 29.26 30.02 32.5 36.93 32.5 36.93 29.26"/><polyline class="cls-2" points="36.99 42.52 36.99 32.5 36.93 32.5"/><line class="cls-2" x1="42.44" y1="41.98" x2="42.44" y2="29.26"/><line class="cls-2" x1="47.89" y1="42.52" x2="47.89" y2="29.26"/><line class="cls-2" x1="53.35" y1="41.98" x2="53.35" y2="30.35"/><polyline class="cls-2" points="53.3 29.34 53.3 30.35 55.95 30.35 55.95 29.26"/><polyline class="cls-2" points="59.11 29.26 59.11 35.73 62.2 35.73 62.2 29.26"/><line class="cls-2" x1="62.17" y1="42.52" x2="62.17" y2="35.73"/><line class="cls-2" x1="70.69" y1="28.23" x2="64.19" y2="28.23"/><polyline class="cls-2" points="62.17 27.2 62.17 14.49 62.03 14.49"/><line class="cls-2" x1="56.71" y1="27.2" x2="56.71" y2="13.95"/><line class="cls-2" x1="51.26" y1="27.2" x2="51.26" y2="14.49"/><line class="cls-2" x1="45.8" y1="27.2" x2="45.8" y2="13.95"/><line class="cls-2" x1="40.35" y1="27.2" x2="40.35" y2="14.49"/><line class="cls-2" x1="34.9" y1="27.2" x2="34.9" y2="13.95"/><line class="cls-2" x1="29.44" y1="27.2" x2="29.44" y2="14.49"/><line class="cls-2" x1="23.99" y1="27.2" x2="23.99" y2="13.95"/><polyline class="cls-2" points="12.31 27.09 12.31 20.73 15.4 20.73 15.4 27.2"/><polyline class="cls-2" points="18.27 27.2 18.27 26.12 15.4 26.12"/><line class="cls-2" x1="12.35" y1="20.73" x2="12.35" y2="13.95"/><polygon class="cls-2" points="81.11 13.32 86.25 13.32 86.25 12.78 91.6 12.78 91.6 13.32 98.09 13.32 98.09 12.78 103.42 12.78 103.42 13.32 108.59 13.32 108.59 17.83 109.14 17.83 109.14 25.66 108.59 25.66 108.59 29.25 109.14 29.25 109.14 33.25 108.59 33.25 108.59 36.09 109.14 36.09 109.14 41.15 108.59 41.15 108.59 43.91 111.39 43.91 111.39 44.52 108.59 44.52 108.59 47.29 109.14 47.29 109.14 49.98 103.08 49.98 103.08 50.78 103.09 50.8 106.9 61.27 106.39 61.46 107.88 65.55 108.37 65.37 108.51 65.76 106.83 66.37 108 69.56 107.47 69.75 109.03 74.02 105.01 75.48 105.2 76 96.83 79.05 96.33 77.67 92.99 78.89 93.62 80.61 85.51 83.56 84.88 81.84 81.54 83.05 82.17 84.77 74.06 87.72 73.44 86.01 70.11 87.22 71.5 91.05 66.92 92.72 66.31 91.03 62.99 92.24 63.61 93.94 57.75 96.08 57.56 95.57 53.32 97.11 51.93 93.29 51.42 93.47 49.98 89.51 52.24 88.69 50.83 84.8 52.8 84.09 49.9 76.13 50.42 75.94 48.66 71.11 52.77 69.61 52.58 69.1 59.83 66.46 60.02 66.97 63.6 65.67 63.41 65.16 69.76 62.85 69.95 63.36 75.53 61.33 75.34 60.82 80.01 59.12 80.2 59.63 85.78 57.6 85.59 57.08 87.54 56.38 87.54 49.98 80.56 49.98 80.56 47.29 81.11 47.29 81.11 44.52 78.72 44.52 78.72 43.91 81.11 43.91 81.11 41.15 80.56 41.15 80.56 36.09 81.11 36.09 81.11 30.15 80.56 30.15 80.56 24.82 81.11 24.82 81.11 21.98 80.56 21.98 80.56 17.83 81.11 17.83 81.11 13.32"/><polyline class="cls-2" points="95.24 67.68 92.85 61.1 90.14 62.09 92.53 68.67"/><polyline class="cls-2" points="90.53 61.95 90.53 60.85 92.45 60.85 92.58 61.2"/><polyline class="cls-2" points="92.85 61.1 92.8 60.96 93.82 60.59 93.82 47.03 93.57 46.89 93.21 46.68 93.21 41.74 93.82 41.39 93.82 19.82 95.88 19.82 95.88 62.14 98.51 69.32 96.84 69.94 96.63 69.36 57.62 83.56 56.92 81.63 95.24 67.68"/><polyline class="cls-2" points="93.82 57.8 92.67 57.8 92.67 60.85 92.45 60.85"/><polyline class="cls-2" points="93.82 21.8 92.74 21.8 92.74 24.53 93.82 24.53"/><polyline class="cls-2" points="95.88 26.68 99.04 26.68 99.04 33.13 95.88 33.13"/><polyline class="cls-2" points="96.27 63.2 99.23 62.12 101.46 68.22 98.5 69.3"/><polyline class="cls-2" points="60.9 80.18 58.66 74.03 61.63 72.96 63.86 79.1"/><polyline class="cls-2" points="66.58 78.11 66.21 77.09 63.49 78.08"/><line class="cls-2" x1="94.85" y1="19.82" x2="94.85" y2="13.32"/><line class="cls-2" x1="95.88" y1="21.85" x2="109.14" y2="21.85"/><polyline class="cls-2" points="108.59 33.25 108.59 33.12 99.04 33.12"/><line class="cls-2" x1="109.14" y1="38.58" x2="95.88" y2="38.58"/><line class="cls-2" x1="95.88" y1="44.22" x2="111.39" y2="44.22"/><line class="cls-2" x1="78.72" y1="44.22" x2="93.21" y2="44.22"/><polyline class="cls-2" points="95.88 57.53 101.59 57.53 105.08 56.26"/><polyline class="cls-2" points="106.83 66.37 106.79 66.25 101.45 68.22"/><polyline class="cls-2" points="62.99 92.24 62.87 92.28 59.45 82.9"/><polyline class="cls-2" points="52.8 84.09 52.85 84.21 57.27 82.6"/><line class="cls-2" x1="56.48" y1="67.68" x2="58.78" y2="73.99"/><line class="cls-2" x1="67.42" y1="63.7" x2="71.96" y2="76.15"/><line class="cls-2" x1="72.74" y1="62.34" x2="77.08" y2="74.29"/><line class="cls-2" x1="77.68" y1="59.97" x2="82.21" y2="72.42"/><line class="cls-2" x1="82.99" y1="58.61" x2="87.33" y2="70.56"/><polyline class="cls-2" points="87.54 56.38 87.67 56.38 87.67 57.28 90.58 57.28 90.58 60.84"/><line class="cls-2" x1="80.56" y1="38.58" x2="93.82" y2="38.58"/><line class="cls-2" x1="81.11" y1="33.12" x2="93.82" y2="33.12"/><line class="cls-2" x1="80.56" y1="27.67" x2="93.82" y2="27.67"/><polyline class="cls-2" points="81.11 21.98 81.11 21.85 92.74 21.85"/><polyline class="cls-2" points="73.44 86.01 73.53 85.97 70.9 78.73"/><polyline class="cls-2" points="84.88 81.84 84.98 81.8 82.34 74.57"/><polyline class="cls-2" points="96.33 77.67 96.42 77.64 93.79 70.4"/><g class="cls-7"><rect class="cls-2" x="-99.65" y="-438.04" width="450.14" height="582.54"/></g><g><path class="cls-9" d="M87.75,95.95v3.91h2.46v.5h-3.07v-4.41h.61Z"/><path class="cls-9" d="M93.95,100.36h-3.15v-4.41h3.08v.5h-2.49v1.39h1.98v.5h-1.98v1.52h2.56v.5Z"/><path class="cls-9" d="M96.02,100.36l-1.77-4.41h.62l1.49,3.71h.03l1.45-3.71h.62l-1.78,4.41h-.66Z"/><path class="cls-9" d="M102.11,100.36h-3.15v-4.41h3.08v.5h-2.49v1.39h1.98v.5h-1.98v1.52h2.56v.5Z"/><path class="cls-9" d="M103.41,95.95v3.91h2.46v.5h-3.07v-4.41h.61Z"/><path class="cls-9" d="M110.73,99.83v.53h-3.24v-.35l1.25-1.07c.69-.6,1.21-1.05,1.21-1.69,0-.52-.29-.88-.88-.88s-.94,.38-.94,1.03c0,.13,.01,.27,.05,.4l-.6-.03c-.03-.14-.05-.28-.05-.41,0-.9,.61-1.48,1.55-1.48,1.03,0,1.5,.6,1.5,1.35,0,.8-.68,1.41-1.32,1.93l-.83,.69h2.3Z"/><path class="cls-9" d="M110.99,98.31h1.61v.52h-1.61v-.52Z"/><path class="cls-9" d="M116.2,96.49h-2.12c0,.24-.11,1.14-.16,1.37,.2-.25,.56-.45,1.05-.45,1,0,1.52,.67,1.52,1.48,0,.92-.64,1.55-1.6,1.55-1.06,0-1.67-.67-1.62-1.65l.59,.05c0,.67,.36,1.11,1.05,1.11,.62,0,1-.41,1-1.06,0-.58-.38-1.01-1-1.01-.49,0-.81,.26-.97,.56l-.6-.04c.11-.61,.26-1.74,.28-2.46h2.58v.55Z"/></g><g class="cls-8"><rect class="cls-4" x="-378.95" y="-649.63" width="678.3" height="877.8"/></g><g><path class="cls-9" d="M5.99,5.08h.02l.65-2.62h.41l-.81,3.15h-.5l-.66-2.52h-.02l-.67,2.52h-.5l-.81-3.15h.42l.66,2.61h.02l.69-2.61h.41l.7,2.62Z"/><path class="cls-9" d="M9.66,5.61h-2.25V2.45h2.2v.36h-1.78v.99h1.42v.36h-1.42v1.09h1.83v.36Z"/><path class="cls-9" d="M10.31,4.46c.02,.58,.42,.87,.95,.87,.47,0,.77-.2,.77-.55,0-.29-.19-.43-.6-.51l-.62-.12c-.47-.09-.79-.34-.79-.83,0-.55,.44-.93,1.13-.93,.79,0,1.25,.42,1.25,1.13l-.4,.02c-.02-.52-.33-.82-.85-.82-.46,0-.71,.21-.71,.57,0,.31,.21,.41,.57,.48l.57,.11c.58,.11,.87,.36,.87,.87,0,.58-.5,.92-1.18,.92-.78,0-1.34-.42-1.34-1.19l.39-.03Z"/><path class="cls-9" d="M13.7,5.61V2.81h-1.15v-.36h2.74v.36h-1.17v2.79h-.43Z"/><path class="cls-9" d="M17.94,5.61h-1.34V2.45h1.29c.78,0,1.1,.34,1.1,.84,0,.37-.26,.62-.6,.68,.39,.07,.69,.32,.69,.77,0,.55-.4,.87-1.14,.87Zm-.92-1.79h.88c.46,0,.65-.2,.65-.5s-.19-.51-.65-.51h-.88v1.01Zm0,.34v1.1h.91c.47,0,.72-.21,.72-.55s-.25-.55-.72-.55h-.91Z"/><path class="cls-9" d="M19.52,4.4v-1.95h.43v1.95c0,.6,.3,.9,.85,.9s.86-.29,.86-.89v-1.96h.42v1.95c0,.92-.57,1.27-1.28,1.27s-1.28-.34-1.28-1.27Z"/><path class="cls-9" d="M23.07,2.45v3.15h-.43V2.45h.43Z"/><path class="cls-9" d="M24.12,2.45v2.79h1.76v.36h-2.19V2.45h.43Z"/><path class="cls-9" d="M26.3,2.45h1.14c.99,0,1.62,.59,1.62,1.58s-.63,1.58-1.62,1.58h-1.14V2.45Zm1.12,2.8c.77,0,1.19-.46,1.19-1.22s-.42-1.22-1.19-1.22h-.68v2.44h.68Z"/><path class="cls-9" d="M29.95,2.45v3.15h-.44V2.45h.44Z"/><path class="cls-9" d="M32.74,4.87V2.45h.41v3.15h-.35l-1.83-2.53v2.53h-.41V2.45h.45l1.73,2.41Z"/><path class="cls-9" d="M33.61,4.03c0-.97,.67-1.64,1.54-1.64s1.41,.5,1.46,1.3l-.42,.03c-.04-.58-.41-.96-1.04-.96s-1.1,.49-1.1,1.27,.46,1.27,1.14,1.27c.59,0,.97-.37,1.03-.91h-.96v-.34h1.36v1.56h-.4v-.56c-.14,.4-.58,.62-1.08,.62-.89,0-1.54-.66-1.54-1.64Z"/></g><g><path class="cls-9" d="M78.82,5.61h-2.25V2.45h2.2v.36h-1.78v.99h1.42v.36h-1.42v1.09h1.83v.36Z"/><path class="cls-9" d="M80.83,2.45l1.31,3.15h-.46l-.38-.93h-1.44l-.37,.93h-.42l1.29-3.15h.48Zm-.83,1.88h1.16l-.58-1.4h-.02l-.57,1.4Z"/><path class="cls-9" d="M82.67,4.46c.02,.58,.42,.87,.95,.87,.47,0,.77-.2,.77-.55,0-.29-.19-.43-.6-.51l-.62-.12c-.47-.09-.79-.34-.79-.83,0-.55,.44-.93,1.13-.93,.79,0,1.25,.42,1.25,1.13l-.4,.02c-.02-.52-.33-.82-.85-.82-.46,0-.71,.21-.71,.57,0,.31,.21,.41,.57,.48l.57,.11c.58,.11,.87,.36,.87,.87,0,.58-.5,.92-1.18,.92-.78,0-1.34-.42-1.34-1.19l.39-.03Z"/><path class="cls-9" d="M86.06,5.61V2.81h-1.15v-.36h2.74v.36h-1.17v2.79h-.43Z"/><path class="cls-9" d="M90.3,5.61h-1.34V2.45h1.29c.78,0,1.1,.34,1.1,.84,0,.37-.26,.62-.6,.68,.39,.07,.69,.32,.69,.77,0,.55-.4,.87-1.14,.87Zm-.92-1.79h.88c.46,0,.65-.2,.65-.5s-.2-.51-.65-.51h-.88v1.01Zm0,.34v1.1h.91c.47,0,.72-.21,.72-.55s-.25-.55-.72-.55h-.91Z"/><path class="cls-9" d="M91.88,4.4v-1.95h.43v1.95c0,.6,.3,.9,.85,.9s.86-.29,.86-.89v-1.96h.43v1.95c0,.92-.57,1.27-1.28,1.27s-1.28-.34-1.28-1.27Z"/><path class="cls-9" d="M95.43,2.45v3.15h-.44V2.45h.44Z"/><path class="cls-9" d="M96.48,2.45v2.79h1.76v.36h-2.19V2.45h.44Z"/><path class="cls-9" d="M98.66,2.45h1.14c.99,0,1.62,.59,1.62,1.58s-.62,1.58-1.62,1.58h-1.14V2.45Zm1.12,2.8c.77,0,1.19-.46,1.19-1.22s-.42-1.22-1.19-1.22h-.68v2.44h.68Z"/><path class="cls-9" d="M102.31,2.45v3.15h-.43V2.45h.43Z"/><path class="cls-9" d="M105.1,4.87V2.45h.41v3.15h-.34l-1.83-2.53v2.53h-.41V2.45h.45l1.73,2.41Z"/><path class="cls-9" d="M105.97,4.03c0-.97,.67-1.64,1.54-1.64s1.41,.5,1.46,1.3l-.42,.03c-.04-.58-.41-.96-1.04-.96s-1.1,.49-1.1,1.27,.46,1.27,1.14,1.27c.59,0,.97-.37,1.03-.91h-.96v-.34h1.36v1.56h-.4v-.56c-.14,.4-.58,.62-1.08,.62-.89,0-1.54-.66-1.54-1.64Z"/></g></g></svg>