<?xml version="1.0" encoding="UTF-8"?><svg id="Layer_1" xmlns="http://www.w3.org/2000/svg" xmlns:xlink="http://www.w3.org/1999/xlink" viewBox="0 0 118.06 101.97"><defs><style>.cls-1{stroke:#ebebec;}.cls-1,.cls-2,.cls-3{stroke-width:.31px;}.cls-1,.cls-2,.cls-3,.cls-4,.cls-5{fill:none;}.cls-1,.cls-2,.cls-3,.cls-5{stroke-linecap:round;stroke-linejoin:round;}.cls-2,.cls-3,.cls-5{stroke:#000;}.cls-6{fill:#f1b784;fill-rule:evenodd;}.cls-3{stroke-dasharray:0 0 3.94 1.97;}.cls-7{clip-path:url(#clippath);}.cls-8{clip-path:url(#clippath-3);}.cls-9{clip-path:url(#clippath-5);}.cls-10{fill:#333132;}.cls-5{stroke-width:.47px;}</style><clipPath id="clippath"><rect class="cls-4" x="-348.47" y="-648.18" width="612" height="792"/></clipPath><clipPath id="clippath-3"><rect class="cls-4" x="-10.07" y="-8.18" width="273.6" height="120"/></clipPath><clipPath id="clippath-5"><rect class="cls-4" x="-348.47" y="-543" width="605.16" height="524.04"/></clipPath></defs><g class="cls-7"><polygon class="cls-6" points="108.87 29.66 108.33 29.66 108.33 26.08 108.87 26.08 108.87 22.26 95.62 22.26 95.62 27.1 98.78 27.1 98.78 33.54 108.33 33.54 108.33 33.67 108.87 33.67 108.87 29.66"/><polygon class="cls-1" points="108.87 29.66 108.33 29.66 108.33 26.08 108.87 26.08 108.87 22.26 95.61 22.26 95.61 27.1 98.78 27.1 98.78 33.54 108.33 33.54 108.33 33.67 108.87 33.67 108.87 29.66"/><line class="cls-2" x1="33.21" y1="32.92" x2="33.21" y2="29.68"/><polyline class="cls-2" points="36.67 32.92 33.21 29.68 29.75 32.92"/><polyline class="cls-2" points="36.67 29.68 33.21 32.92 29.75 29.68"/><line class="cls-2" x1="91.07" y1="65.79" x2="93.78" y2="64.81"/><polyline class="cls-2" points="92.27 69.08 93.78 64.81 89.88 62.5"/><polyline class="cls-2" points="94.98 68.09 91.07 65.79 92.58 61.52"/><line class="cls-3" x1="97.83" y1="69.89" x2="108.84" y2="74.47"/><line class="cls-3" x1="106.07" y1="66.86" x2="100.76" y2="77.94"/><line class="cls-2" x1="77.01" y1="14.8" x2="73.01" y2="18.18"/><line class="cls-2" x1="77.01" y1="18.18" x2="73.01" y2="14.8"/><line class="cls-2" x1="53.08" y1="42.39" x2="53.08" y2="45.99"/><line class="cls-2" x1="42.18" y1="42.39" x2="42.18" y2="45.99"/><line class="cls-2" x1="13.59" y1="25.65" x2="12.05" y2="25.65"/><line class="cls-2" x1="13.59" y1="22.69" x2="15.14" y2="21.97"/><line class="cls-2" x1="71.24" y1="59.36" x2="72.47" y2="62.76"/><line class="cls-2" x1="81.49" y1="55.63" x2="82.72" y2="59.03"/><line class="cls-2" x1="78.71" y1="33.54" x2="80.84" y2="33.54"/><polyline class="cls-2" points="106.54 61.42 108.03 60.88 110.06 66.44 106.41 67.77"/><line class="cls-2" x1="95.61" y1="44.63" x2="92.95" y2="44.63"/><line class="cls-2" x1="98.15" y1="64.89" x2="96.67" y2="65.43"/><polyline class="cls-2" points="99.57 64.19 98.09 64.73 99.06 67.4 97.59 67.94"/><line class="cls-2" x1="99" y1="67.24" x2="100.48" y2="66.7"/><polyline class="cls-2" points="61.42 73.94 60.07 74.43 61.55 78.5 63.03 77.96"/><line class="cls-2" x1="59.95" y1="78.73" x2="61.44" y2="78.19"/><line class="cls-2" x1="60.63" y1="75.97" x2="59.4" y2="77.2"/><polyline class="cls-2" points="98.78 31.94 97.2 31.94 97.2 28.94 95.61 28.94"/><line class="cls-2" x1="98.78" y1="29.27" x2="97.2" y2="29.27"/><line class="cls-2" x1="95.61" y1="31.61" x2="97.2" y2="31.61"/><polyline class="cls-2" points="48.39 71.52 47.77 71.75 46.54 68.35 55.05 65.25 56.29 68.65"/><polyline class="cls-2" points="59.17 67.6 57.94 64.2 61.59 62.87"/><line class="cls-2" x1="62.79" y1="62.44" x2="66.25" y2="61.18"/><rect class="cls-2" x="61.25" y="60.41" width="1.27" height="2.86" transform="translate(-17.42 24.9) rotate(-20)"/><rect class="cls-2" x="65.91" y="58.71" width="1.27" height="2.86" transform="translate(-16.56 26.39) rotate(-20)"/><rect class="cls-2" x="71.04" y="56.84" width="1.27" height="2.86" transform="translate(-15.61 28.03) rotate(-20)"/><rect class="cls-2" x="76.16" y="54.98" width="1.27" height="2.86" transform="translate(-14.66 29.67) rotate(-20)"/><rect class="cls-2" x="81.29" y="53.11" width="1.27" height="2.86" transform="translate(-13.71 31.31) rotate(-20)"/><line class="cls-2" x1="67.45" y1="60.74" x2="71.37" y2="59.31"/><line class="cls-2" x1="72.57" y1="58.88" x2="76.5" y2="57.45"/><line class="cls-2" x1="77.7" y1="57.01" x2="81.63" y2="55.58"/><polyline class="cls-2" points="82.82 55.15 84.51 54.53 85.75 57.93"/><line class="cls-2" x1="76.36" y1="57.5" x2="77.6" y2="60.89"/><line class="cls-2" x1="66.11" y1="61.23" x2="67.35" y2="64.62"/><rect class="cls-2" x="74.67" y="44.75" width="2.75" height="1.27"/><rect class="cls-2" x="74.67" y="43.24" width="2.75" height="1.27"/><line class="cls-2" x1="77.42" y1="44.52" x2="77.42" y2="44.75"/><line class="cls-2" x1="78.46" y1="44.63" x2="77.42" y2="44.63"/><polyline class="cls-2" points="76.7 46.02 76.7 50.94 80.3 50.94 80.3 50.4"/><rect class="cls-2" x="74.67" y="37.57" width="2.75" height="1.27"/><rect class="cls-2" x="74.67" y="32.12" width="2.75" height="1.27"/><line class="cls-2" x1="76.7" y1="22.1" x2="76.7" y2="32.12"/><line class="cls-2" x1="76.7" y1="33.39" x2="76.7" y2="37.57"/><line class="cls-2" x1="76.7" y1="38.85" x2="76.7" y2="43.24"/><line class="cls-2" x1="80.3" y1="38.99" x2="76.7" y2="38.98"/><line class="cls-2" x1="80.84" y1="33.54" x2="76.7" y2="33.54"/><line class="cls-2" x1="80.3" y1="28.09" x2="76.7" y2="28.09"/><line class="cls-2" x1="111.12" y1="22.26" x2="111.12" y2="44.33"/><line class="cls-2" x1="108.87" y1="38.99" x2="111.12" y2="38.99"/><line class="cls-2" x1="108.87" y1="33.67" x2="111.12" y2="33.67"/><polyline class="cls-2" points="111.12 44.94 111.12 50.14 108.87 50.14"/><rect class="cls-2" x="65.15" y="45.45" width="1.27" height="2.85"/><rect class="cls-2" x="53.23" y="45.45" width="1.27" height="2.85"/><rect class="cls-2" x="47.78" y="45.45" width="1.27" height="2.85"/><rect class="cls-2" x="42.51" y="45.45" width="1.27" height="2.85"/><rect class="cls-2" x="36.91" y="45.45" width="1.27" height="2.85"/><rect class="cls-2" x="29.5" y="45.45" width="1.27" height="2.85"/><rect class="cls-2" x="22.81" y="45.45" width="1.27" height="2.85"/><polyline class="cls-2" points="70.43 42.39 70.96 42.39 70.96 45.99 66.42 45.99"/><line class="cls-2" x1="65.15" y1="45.99" x2="60.74" y2="45.99"/><line class="cls-2" x1="58.93" y1="45.99" x2="54.5" y2="45.99"/><line class="cls-2" x1="53.23" y1="45.99" x2="49.05" y2="45.99"/><line class="cls-2" x1="47.78" y1="45.99" x2="43.78" y2="45.99"/><line class="cls-2" x1="42.51" y1="45.99" x2="38.18" y2="45.99"/><line class="cls-2" x1="36.91" y1="45.99" x2="30.78" y2="45.99"/><line class="cls-2" x1="29.5" y1="45.99" x2="24.09" y2="45.99"/><polyline class="cls-2" points="22.81 45.99 20.68 45.99 18.26 44.53 18.26 42.39 18.65 42.39"/><line class="cls-2" x1="47.63" y1="42.39" x2="47.63" y2="45.99"/><line class="cls-2" x1="36.72" y1="42.39" x2="36.72" y2="45.99"/><line class="cls-2" x1="24.23" y1="42.39" x2="24.23" y2="45.99"/><line class="cls-2" x1="60.74" y1="42.39" x2="60.74" y2="45.99"/><line class="cls-2" x1="58.93" y1="42.39" x2="58.93" y2="45.99"/><polyline class="cls-2" points="3.55 14.91 2.8 14.91 2.8 12.01 11.85 12.01 11.85 14.91"/><polyline class="cls-2" points="28.63 14.91 28.63 12.01 19.1 12.01 19.1 13.06 15.3 13.06 15.3 14.91"/><line class="cls-2" x1="23.72" y1="14.91" x2="23.72" y2="12.01"/><line class="cls-2" x1="13.59" y1="24.15" x2="12.05" y2="24.15"/><line class="cls-2" x1="13.59" y1="16.52" x2="12.05" y2="16.52"/><line class="cls-2" x1="13.59" y1="18.63" x2="15.14" y2="18.63"/><line class="cls-2" x1="13.59" y1="19.63" x2="15.14" y2="19.63"/><line class="cls-2" x1="13.59" y1="21.66" x2="15.14" y2="21.66"/><line class="cls-2" x1="60.39" y1="35.54" x2="61.94" y2="34.82"/><line class="cls-2" x1="60.39" y1="36.52" x2="61.94" y2="36.52"/><polyline class="cls-2" points="66.7 93.11 66.84 93.52 63.48 94.73 63.34 94.36"/><polyline class="cls-2" points="53.06 97.52 54.1 100.41 58.37 98.87 58.17 98.31 62.09 96.9 61.42 95.06"/><polyline class="cls-2" points="71.24 91.47 74.21 89.13 82.26 86.17 82.01 85.48 85.35 84.26 85.24 83.97"/><polyline class="cls-2" points="96.61 79.45 96.84 80.08 93.41 81.34 93.31 81.04"/><line class="cls-2" x1="74.17" y1="89.16" x2="73.8" y2="88.14"/><polygon class="cls-2" points="2.64 20.5 2.64 20.04 3.55 20.04 3.55 14.91 8.06 14.91 15.64 14.91 19.45 14.91 26.18 14.91 32.12 14.91 36.27 14.91 36.27 10.68 38.82 10.68 38.82 11.4 69.97 11.4 69.97 14.8 70.7 14.8 70.7 21.82 70.43 21.82 70.43 31.89 70.43 37.25 70.43 42.39 65.92 42.39 58.02 42.39 50.13 42.39 45.18 42.39 39.24 42.39 32.72 42.39 28.29 42.39 21.74 42.39 18.65 42.39 18.65 40.32 15.16 40.32 10.48 40.32 10.48 37.35 9.93 37.35 9.93 35.72 6.82 35.72 6.82 31.21 3.55 31.21 3.55 20.5 2.64 20.5"/><polyline class="cls-2" points="36.57 14.91 36.57 27.62 63.93 27.62 63.93 29.68 10.06 29.68 10.06 27.62 29.18 27.62 29.18 14.91"/><line class="cls-2" x1="10.06" y1="28.65" x2="3.55" y2="28.65"/><line class="cls-2" x1="15.02" y1="29.68" x2="15.02" y2="40.32"/><line class="cls-2" x1="24.23" y1="29.68" x2="24.23" y2="42.39"/><polyline class="cls-2" points="29.75 29.68 29.75 32.92 36.67 32.92 36.67 29.68"/><polyline class="cls-2" points="36.72 42.39 36.72 32.92 36.67 32.92"/><line class="cls-2" x1="42.18" y1="42.39" x2="42.18" y2="29.68"/><line class="cls-2" x1="47.63" y1="42.39" x2="47.63" y2="29.68"/><line class="cls-2" x1="53.08" y1="42.39" x2="53.08" y2="30.76"/><polyline class="cls-2" points="53.03 29.76 53.03 30.76 55.69 30.76 55.69 29.68"/><line class="cls-2" x1="58.85" y1="29.68" x2="58.85" y2="42.39"/><line class="cls-2" x1="61.94" y1="42.39" x2="61.94" y2="29.68"/><line class="cls-2" x1="70.43" y1="28.65" x2="63.93" y2="28.65"/><line class="cls-2" x1="23.72" y1="27.62" x2="23.72" y2="14.91"/><line class="cls-2" x1="12.05" y1="27.62" x2="12.05" y2="14.91"/><line class="cls-2" x1="15.14" y1="14.91" x2="15.14" y2="27.62"/><polyline class="cls-2" points="18.01 27.62 18.01 26.54 15.14 26.54"/><polyline class="cls-2" points="15.14 25.99 13.59 25.99 13.59 21.33"/><polygon class="cls-2" points="87.27 57.37 87.27 50.4 80.3 50.4 80.3 47.7 80.84 47.7 80.84 44.94 78.46 44.94 78.46 44.33 80.84 44.33 80.84 41.56 80.3 41.56 80.3 36.51 80.84 36.51 80.84 30.57 80.3 30.57 80.3 25.23 80.84 25.23 80.84 22.39 80.3 22.39 80.3 22.1 74.15 22.1 74.15 18.18 73.01 18.18 73.01 14.8 74.2 14.8 74.2 11.4 88.85 11.4 88.85 10.68 91.41 10.68 91.41 11.4 97.76 11.4 97.76 10.68 100.32 10.68 100.32 11.4 110.2 11.4 110.2 19.71 111.46 19.71 111.46 22.26 108.87 22.26 108.87 26.08 108.33 26.08 108.33 29.66 108.87 29.66 108.87 33.67 108.33 33.67 108.33 36.51 108.87 36.51 108.87 41.56 108.33 41.56 108.33 44.33 111.12 44.33 111.12 44.94 108.33 44.94 108.33 47.7 108.87 47.7 108.87 50.4 102.82 50.4 102.82 51.2 102.83 51.21 106.63 61.66 106.08 61.86 107.58 65.98 108.1 65.79 108.24 66.17 106.11 66.95 108.84 74.47 104.77 75.96 104.94 76.42 96.57 79.47 96.06 78.09 92.73 79.3 93.35 81.02 85.24 83.97 84.62 82.26 81.28 83.47 81.91 85.19 73.8 88.14 73.17 86.42 69.83 87.64 71.24 91.47 66.7 93.11 66.08 91.43 62.72 92.65 63.34 94.36 57.48 96.49 57.3 95.98 53.06 97.52 51.67 93.7 51.15 93.89 49.71 89.93 51.98 89.11 50.57 85.22 52.54 84.5 49.64 76.54 50.15 76.36 48.39 71.52 52.5 70.03 59.75 67.39 63.34 66.08 69.68 63.77 75.26 61.74 79.93 60.04 87.27 57.37"/><polyline class="cls-2" points="94.98 68.09 92.58 61.52 89.88 62.5 92.27 69.08"/><polyline class="cls-2" points="90.27 62.36 90.27 61.26 92.19 61.26 92.32 61.61"/><polyline class="cls-2" points="92.58 61.52 92.53 61.37 93.55 61 93.55 52.29 89.4 52.29 89.4 52.89 87.27 52.89"/><polyline class="cls-2" points="93.55 58.22 92.41 58.22 92.41 61.26 92.19 61.26"/><polyline class="cls-2" points="93.55 22.21 92.47 22.21 92.47 24.94 93.55 24.94"/><polyline class="cls-2" points="95.61 27.1 98.78 27.1 98.78 33.54 95.61 33.54"/><polyline class="cls-2" points="96 63.62 98.97 62.54 101.19 68.64 98.24 69.71"/><line class="cls-2" x1="59.25" y1="67.57" x2="63.6" y2="79.52"/><polyline class="cls-2" points="66.32 78.53 65.94 77.51 63.23 78.5"/><line class="cls-2" x1="95.61" y1="22.26" x2="108.87" y2="22.26"/><polyline class="cls-2" points="108.33 33.67 108.33 33.54 98.78 33.54"/><line class="cls-2" x1="108.87" y1="38.99" x2="95.61" y2="38.99"/><line class="cls-2" x1="95.61" y1="44.63" x2="111.12" y2="44.63"/><line class="cls-2" x1="78.46" y1="44.63" x2="92.95" y2="44.63"/><polyline class="cls-2" points="95.61 57.95 101.32 57.95 104.82 56.68"/><polyline class="cls-2" points="106.11 66.95 106.07 66.86 101.19 68.63"/><line class="cls-2" x1="100.76" y1="77.94" x2="97.83" y2="69.89"/><polyline class="cls-2" points="84.62 82.25 84.71 82.22 82.08 74.98"/><polyline class="cls-2" points="62.72 92.65 62.6 92.7 59.19 83.31"/><polyline class="cls-2" points="52.54 84.5 52.58 84.62 57 83.01"/><line class="cls-2" x1="56.29" y1="68.65" x2="60.63" y2="80.59"/><line class="cls-2" x1="67.35" y1="64.62" x2="71.69" y2="76.57"/><line class="cls-2" x1="72.47" y1="62.76" x2="76.82" y2="74.7"/><line class="cls-2" x1="77.6" y1="60.89" x2="81.95" y2="72.84"/><line class="cls-2" x1="82.72" y1="59.03" x2="87.07" y2="70.97"/><polyline class="cls-2" points="87.27 56.79 87.4 56.79 87.4 57.7 90.32 57.7 90.32 61.26"/><line class="cls-2" x1="80.3" y1="38.99" x2="93.55" y2="38.99"/><line class="cls-2" x1="80.84" y1="33.54" x2="93.55" y2="33.54"/><line class="cls-2" x1="80.3" y1="28.09" x2="93.55" y2="28.09"/><polyline class="cls-2" points="80.84 22.39 80.84 22.26 92.47 22.26"/><polyline class="cls-2" points="57.98 73.32 59.46 72.78 57.76 68.11"/><polyline class="cls-2" points="94.98 68.09 56.65 82.04 57.36 83.98 95.75 70.01 95.95 70.58 98.25 69.74 95.61 62.56 95.61 22.21 93.55 22.21 93.55 41.81 92.95 42.16 92.95 47.1 93.31 47.3 93.55 47.45 93.55 50.27 87.27 50.27 87.27 50.4"/><polyline class="cls-2" points="74.2 14.8 77.01 14.8 77.01 18.18 74.15 18.18"/><polyline class="cls-2" points="12.05 19.89 13.59 19.89 13.59 14.91"/><polyline class="cls-2" points="60.39 39.17 60.39 31.56 61.94 31.56"/><polyline class="cls-2" points="97.38 22.26 97.38 20.32 91.04 20.32 91.04 22.26"/><polyline class="cls-2" points="73.17 86.42 73.27 86.39 70.63 79.15"/><g class="cls-8"><rect class="cls-2" x="-99.92" y="-437.62" width="450.14" height="582.54"/></g><g><path class="cls-10" d="M94.95,95.11v3.91h2.46v.5h-3.07v-4.41h.61Z"/><path class="cls-10" d="M101.16,99.52h-3.15v-4.41h3.08v.5h-2.49v1.39h1.98v.5h-1.98v1.52h2.56v.5Z"/><path class="cls-10" d="M103.23,99.52l-1.77-4.41h.62l1.49,3.71h.03l1.45-3.71h.62l-1.78,4.41h-.66Z"/><path class="cls-10" d="M109.32,99.52h-3.15v-4.41h3.08v.5h-2.49v1.39h1.98v.5h-1.98v1.52h2.56v.5Z"/><path class="cls-10" d="M110.62,95.11v3.91h2.46v.5h-3.07v-4.41h.61Z"/><path class="cls-10" d="M114.58,95.76c.62,0,.88-.21,1.04-.67h.4v4.44h-.61v-3.38h-.83v-.39Z"/></g><g class="cls-9"><rect class="cls-5" x="-378" y="-665.52" width="678.3" height="877.8"/></g><g><path class="cls-10" d="M6.8,4.24h.02l.65-2.62h.41l-.81,3.15h-.5l-.66-2.52h-.02l-.67,2.52h-.5l-.81-3.15h.42l.66,2.61h.02l.69-2.61h.41l.7,2.62Z"/><path class="cls-10" d="M10.48,4.77h-2.25V1.62h2.2v.36h-1.78v.99h1.42v.36h-1.42v1.09h1.83v.36Z"/><path class="cls-10" d="M11.12,3.62c.03,.58,.42,.87,.95,.87,.47,0,.77-.2,.77-.55,0-.29-.19-.43-.6-.51l-.62-.12c-.47-.09-.79-.34-.79-.83,0-.55,.44-.93,1.13-.93,.79,0,1.25,.42,1.25,1.13l-.39,.02c-.02-.52-.33-.82-.85-.82-.46,0-.71,.21-.71,.57,0,.31,.21,.41,.57,.48l.57,.11c.58,.11,.87,.36,.87,.87,0,.58-.5,.92-1.18,.92-.78,0-1.34-.42-1.34-1.19l.39-.03Z"/><path class="cls-10" d="M14.51,4.77V1.98h-1.15v-.36h2.74v.36h-1.17v2.79h-.43Z"/><path class="cls-10" d="M18.76,4.77h-1.34V1.62h1.29c.78,0,1.1,.34,1.1,.84,0,.37-.26,.62-.6,.68,.39,.07,.69,.32,.69,.77,0,.55-.4,.87-1.14,.87Zm-.92-1.79h.88c.46,0,.65-.2,.65-.5s-.2-.51-.65-.51h-.88v1.01Zm0,.34v1.1h.91c.47,0,.72-.21,.72-.55s-.25-.55-.72-.55h-.91Z"/><path class="cls-10" d="M20.33,3.57V1.62h.43v1.95c0,.6,.3,.9,.85,.9s.86-.29,.86-.89V1.62h.43v1.95c0,.92-.57,1.27-1.28,1.27s-1.28-.34-1.28-1.27Z"/><path class="cls-10" d="M23.89,1.62v3.15h-.44V1.62h.44Z"/><path class="cls-10" d="M24.93,1.62v2.79h1.76v.36h-2.19V1.62h.44Z"/><path class="cls-10" d="M27.12,1.62h1.14c.99,0,1.62,.59,1.62,1.58s-.62,1.58-1.62,1.58h-1.14V1.62Zm1.12,2.8c.77,0,1.19-.46,1.19-1.22s-.42-1.22-1.19-1.22h-.68v2.44h.68Z"/><path class="cls-10" d="M30.77,1.62v3.15h-.43V1.62h.43Z"/><path class="cls-10" d="M33.55,4.03V1.62h.41v3.15h-.34l-1.83-2.53v2.53h-.41V1.62h.45l1.73,2.41Z"/><path class="cls-10" d="M34.42,3.19c0-.97,.67-1.64,1.54-1.64s1.41,.5,1.46,1.3l-.42,.03c-.04-.58-.41-.96-1.04-.96s-1.1,.49-1.1,1.27,.46,1.27,1.14,1.27c.59,0,.97-.37,1.03-.91h-.96v-.34h1.36v1.56h-.4v-.56c-.14,.4-.58,.62-1.08,.62-.89,0-1.54-.66-1.54-1.64Z"/></g><g><path class="cls-10" d="M79.64,4.77h-2.25V1.62h2.2v.36h-1.78v.99h1.42v.36h-1.42v1.09h1.83v.36Z"/><path class="cls-10" d="M81.64,1.62l1.31,3.15h-.46l-.38-.93h-1.44l-.37,.93h-.43l1.29-3.15h.47Zm-.83,1.88h1.16l-.58-1.4h-.02l-.57,1.4Z"/><path class="cls-10" d="M83.48,3.62c.03,.58,.42,.87,.95,.87,.47,0,.77-.2,.77-.55,0-.29-.19-.43-.6-.51l-.62-.12c-.47-.09-.79-.34-.79-.83,0-.55,.44-.93,1.13-.93,.79,0,1.25,.42,1.25,1.13l-.39,.02c-.02-.52-.33-.82-.85-.82-.46,0-.71,.21-.71,.57,0,.31,.21,.41,.57,.48l.57,.11c.58,.11,.87,.36,.87,.87,0,.58-.5,.92-1.18,.92-.78,0-1.34-.42-1.34-1.19l.39-.03Z"/><path class="cls-10" d="M86.87,4.77V1.98h-1.15v-.36h2.74v.36h-1.17v2.79h-.43Z"/><path class="cls-10" d="M91.12,4.77h-1.34V1.62h1.29c.78,0,1.1,.34,1.1,.84,0,.37-.26,.62-.6,.68,.39,.07,.69,.32,.69,.77,0,.55-.4,.87-1.14,.87Zm-.92-1.79h.88c.46,0,.65-.2,.65-.5s-.19-.51-.65-.51h-.88v1.01Zm0,.34v1.1h.91c.47,0,.72-.21,.72-.55s-.25-.55-.72-.55h-.91Z"/><path class="cls-10" d="M92.69,3.57V1.62h.43v1.95c0,.6,.3,.9,.85,.9s.86-.29,.86-.89V1.62h.42v1.95c0,.92-.57,1.27-1.28,1.27s-1.28-.34-1.28-1.27Z"/><path class="cls-10" d="M96.25,1.62v3.15h-.43V1.62h.43Z"/><path class="cls-10" d="M97.29,1.62v2.79h1.76v.36h-2.19V1.62h.43Z"/><path class="cls-10" d="M99.48,1.62h1.14c.99,0,1.62,.59,1.62,1.58s-.63,1.58-1.62,1.58h-1.14V1.62Zm1.12,2.8c.77,0,1.19-.46,1.19-1.22s-.42-1.22-1.19-1.22h-.68v2.44h.68Z"/><path class="cls-10" d="M103.13,1.62v3.15h-.44V1.62h.44Z"/><path class="cls-10" d="M105.92,4.03V1.62h.41v3.15h-.35l-1.83-2.53v2.53h-.41V1.62h.45l1.73,2.41Z"/><path class="cls-10" d="M106.78,3.19c0-.97,.67-1.64,1.54-1.64s1.41,.5,1.46,1.3l-.42,.03c-.04-.58-.41-.96-1.04-.96s-1.1,.49-1.1,1.27,.46,1.27,1.14,1.27c.59,0,.97-.37,1.03-.91h-.96v-.34h1.36v1.56h-.4v-.56c-.14,.4-.58,.62-1.08,.62-.89,0-1.54-.66-1.54-1.64Z"/></g></g></svg>