<?xml version="1.0" encoding="UTF-8"?><svg id="Layer_1" xmlns="http://www.w3.org/2000/svg" xmlns:xlink="http://www.w3.org/1999/xlink" viewBox="0 0 113.19 101.97"><defs><style>.cls-1{stroke:#ebebec;}.cls-1,.cls-2{stroke-width:.31px;}.cls-1,.cls-2,.cls-3,.cls-4{fill:none;}.cls-1,.cls-2,.cls-4{stroke-linecap:round;stroke-linejoin:round;}.cls-2,.cls-4{stroke:#000;}.cls-5{fill:#f1b784;fill-rule:evenodd;}.cls-6{clip-path:url(#clippath);}.cls-7{clip-path:url(#clippath-3);}.cls-8{clip-path:url(#clippath-5);}.cls-9{fill:#333132;}.cls-4{stroke-width:.47px;}</style><clipPath id="clippath"><rect class="cls-3" x="-482.48" y="-648.18" width="612" height="792"/></clipPath><clipPath id="clippath-3"><rect class="cls-3" x="-144.08" y="-8.18" width="273.6" height="120"/></clipPath><clipPath id="clippath-5"><rect class="cls-3" x="-482.48" y="-543" width="605.16" height="524.04"/></clipPath></defs><g class="cls-6"><polygon class="cls-5" points="109.27 29.66 108.72 29.66 108.72 26.08 109.27 26.08 109.27 22.26 96.01 22.26 96.01 27.1 99.17 27.1 99.17 33.54 108.72 33.54 108.72 33.67 109.27 33.67 109.27 29.66"/><polygon class="cls-1" points="109.27 29.66 108.72 29.66 108.72 26.08 109.27 26.08 109.27 22.26 96.01 22.26 96.01 27.1 99.17 27.1 99.17 33.54 108.72 33.54 108.72 33.67 109.27 33.67 109.27 29.66"/><line class="cls-2" x1="33.61" y1="32.92" x2="33.61" y2="29.68"/><polyline class="cls-2" points="37.06 32.92 33.61 29.68 30.15 32.92"/><polyline class="cls-2" points="37.06 29.68 33.61 32.92 30.15 29.68"/><line class="cls-2" x1="91.47" y1="65.79" x2="94.18" y2="64.81"/><polyline class="cls-2" points="92.66 69.08 94.18 64.81 90.27 62.5"/><polyline class="cls-2" points="95.37 68.09 91.47 65.79 92.98 61.52"/><polyline class="cls-2" points="3.04 20.33 1.89 20.33 1.89 12.78 8.74 12.78 8.74 14.36"/><polyline class="cls-2" points="15.76 14.36 15.76 12.78 20.13 12.78 20.13 14.36"/><polyline class="cls-2" points="26.32 14.36 26.32 12.78 32.82 12.78 32.82 14.36"/><line class="cls-2" x1="29.57" y1="12.78" x2="29.57" y2="14.91"/><polyline class="cls-2" points="71.37 36.97 72.88 36.97 72.88 44.52 66.04 44.52 66.04 42.94"/><polyline class="cls-2" points="58.7 42.94 58.7 44.52 50.25 44.52 50.25 42.94"/><line class="cls-2" x1="53.48" y1="42.39" x2="53.48" y2="44.52"/><polyline class="cls-2" points="45.82 42.94 45.82 44.52 39.32 44.52 39.32 42.94"/><line class="cls-2" x1="42.57" y1="42.39" x2="42.57" y2="44.52"/><polyline class="cls-2" points="33.4 42.94 33.4 44.52 28.41 44.52 28.41 42.94"/><polyline class="cls-2" points="22.42 42.94 22.42 44.52 19.1 44.52 19.1 42.94"/><polyline class="cls-2" points="15.84 40.86 15.84 42.45 12.34 42.45 12.34 40.32"/><polyline class="cls-2" points="15.53 25.99 13.99 25.99 13.99 21.14"/><line class="cls-2" x1="13.99" y1="25.65" x2="12.44" y2="25.65"/><line class="cls-2" x1="12.44" y1="24.01" x2="13.99" y2="23.29"/><polyline class="cls-2" points="62.33 31.52 60.79 31.52 60.79 36.14"/><line class="cls-2" x1="59.24" y1="34.27" x2="60.79" y2="33.55"/><line class="cls-2" x1="59.24" y1="31.91" x2="60.79" y2="31.91"/><polyline class="cls-2" points="58.14 96.4 58.45 97.24 51.95 99.61 49.96 94.17 51.45 93.62"/><polyline class="cls-2" points="50.13 76.81 48.59 77.37 46 70.27 52.44 67.93 52.98 69.42"/><polyline class="cls-2" points="59.73 66.96 59.19 65.47 63.29 63.98 63.84 65.47"/><polyline class="cls-2" points="69.63 63.36 69.09 61.87 75.19 59.65 75.73 61.14"/><line class="cls-2" x1="72.14" y1="60.76" x2="72.87" y2="62.76"/><polyline class="cls-2" points="79.88 59.63 79.34 58.14 85.44 55.92 85.98 57.4"/><line class="cls-2" x1="82.39" y1="57.03" x2="83.12" y2="59.03"/><polyline class="cls-2" points="80.69 47.98 79.11 47.98 79.11 44.94"/><polyline class="cls-2" points="80.69 41.28 79.11 41.28 79.11 44.33"/><polyline class="cls-2" points="80.69 36.79 79.11 36.79 79.11 30.29 80.69 30.29"/><line class="cls-2" x1="79.11" y1="33.54" x2="81.24" y2="33.54"/><polyline class="cls-2" points="109.27 25.8 110.85 25.8 110.85 29.94 109.27 29.94"/><polyline class="cls-2" points="109.27 33.39 110.85 33.39 110.85 36.79 109.27 36.79"/><polyline class="cls-2" points="109.27 41.28 110.85 41.28 110.85 44.33"/><polyline class="cls-2" points="110.85 44.94 110.85 47.98 109.27 47.98"/><polyline class="cls-2" points="106.94 61.42 108.43 60.88 110.14 65.6 108.63 66.15"/><polyline class="cls-2" points="108.04 69.74 109.55 69.19 111.93 75.73 105.64 78.02 105.09 76.51"/><polyline class="cls-2" points="67.29 93.05 67.61 93.91 63.78 95.3 63.48 94.46"/><line class="cls-2" x1="96.01" y1="44.63" x2="93.34" y2="44.63"/><line class="cls-2" x1="98.54" y1="64.89" x2="97.06" y2="65.43"/><polyline class="cls-2" points="99.97 64.19 98.49 64.73 99.46 67.4 97.98 67.94"/><line class="cls-2" x1="99.4" y1="67.24" x2="100.88" y2="66.7"/><polyline class="cls-2" points="61.81 73.94 60.46 74.43 61.95 78.5 63.43 77.96"/><line class="cls-2" x1="60.35" y1="78.73" x2="61.83" y2="78.19"/><line class="cls-2" x1="61.02" y1="75.97" x2="59.79" y2="77.2"/><polyline class="cls-2" points="99.17 31.94 97.59 31.94 97.59 28.94 96.01 28.94"/><line class="cls-2" x1="99.17" y1="29.27" x2="97.59" y2="29.27"/><line class="cls-2" x1="96.01" y1="31.61" x2="97.59" y2="31.61"/><line class="cls-2" x1="40.48" y1="14.91" x2="40.48" y2="12.78"/><polyline class="cls-2" points="93.74 81 97.31 79.7 97.2 79.38"/><line class="cls-2" x1="82.29" y1="85.16" x2="85.63" y2="83.95"/><polyline class="cls-2" points="74.43 88.05 74.62 88.58 71.06 89.88"/><polyline class="cls-2" points="103.3 13.19 103.3 11.61 110.85 11.61 110.85 18.53 109.27 18.53"/><polyline class="cls-2" points="80.69 18.53 79.11 18.53 79.11 11.61 86.66 11.61 86.66 13.19"/><polyline class="cls-2" points="80.69 22.11 79.11 22.11 79.11 25.51 80.69 25.51"/><polyline class="cls-2" points="37.23 14.36 37.23 12.78 43.73 12.78 43.73 14.36"/><line class="cls-2" x1="51.39" y1="14.91" x2="51.39" y2="12.78"/><polyline class="cls-2" points="48.14 14.36 48.14 12.78 54.64 12.78 54.64 14.36"/><polyline class="cls-2" points="59.02 14.36 59.02 12.78 62.44 12.78 62.44 14.36"/><polyline class="cls-2" points="66.04 14.36 66.04 12.78 72.88 12.78 72.88 20.33 71.37 20.33"/><polygon class="cls-2" points="3.04 20.5 3.04 20.04 3.59 20.04 3.59 14.91 8.46 14.91 8.46 14.36 16.04 14.36 16.04 14.91 19.85 14.91 19.85 14.36 26.57 14.36 26.57 14.91 32.51 14.91 32.51 14.36 37.48 14.36 37.48 14.91 43.42 14.91 43.42 14.36 48.39 14.36 48.39 14.91 54.33 14.91 54.33 14.36 59.3 14.36 59.3 14.91 62.16 14.91 62.16 14.36 66.32 14.36 66.32 14.91 70.82 14.91 70.82 20.05 71.37 20.05 71.37 25.41 70.82 25.41 70.82 31.89 71.37 31.89 71.37 37.25 70.82 37.25 70.82 42.39 66.32 42.39 66.32 42.94 58.42 42.94 58.42 42.39 50.53 42.39 50.53 42.94 45.57 42.94 45.57 42.39 39.63 42.39 39.63 42.94 33.12 42.94 33.12 42.39 28.69 42.39 28.69 42.94 22.14 42.94 22.14 42.39 19.51 42.39 19.51 42.94 19.04 42.94 19.04 40.86 15.56 40.86 15.56 40.32 10.87 40.32 10.87 37.35 10.33 37.35 10.33 35.72 7.21 35.72 7.21 31.21 3.95 31.21 3.95 20.5 3.04 20.5"/><rect class="cls-2" x="10.45" y="27.62" width="53.87" height="2.06"/><line class="cls-2" x1="10.45" y1="28.65" x2="3.95" y2="28.65"/><polyline class="cls-2" points="19.17 29.68 19.17 40.86 19.04 40.86"/><line class="cls-2" x1="24.63" y1="29.68" x2="24.63" y2="42.94"/><polyline class="cls-2" points="30.15 29.68 30.15 32.92 37.06 32.92 37.06 29.68"/><polyline class="cls-2" points="37.12 42.94 37.12 32.92 37.06 32.92"/><line class="cls-2" x1="42.57" y1="42.39" x2="42.57" y2="29.68"/><line class="cls-2" x1="48.03" y1="42.94" x2="48.03" y2="29.68"/><line class="cls-2" x1="53.48" y1="42.39" x2="53.48" y2="30.76"/><polyline class="cls-2" points="53.43 29.76 53.43 30.76 56.09 30.76 56.09 29.68"/><polyline class="cls-2" points="59.24 29.68 59.24 36.14 62.33 36.14 62.33 29.68"/><line class="cls-2" x1="62.3" y1="42.94" x2="62.3" y2="36.14"/><line class="cls-2" x1="70.82" y1="28.65" x2="64.32" y2="28.65"/><polyline class="cls-2" points="62.3 27.62 62.3 14.91 62.16 14.91"/><line class="cls-2" x1="56.84" y1="27.62" x2="56.84" y2="14.36"/><line class="cls-2" x1="51.39" y1="27.62" x2="51.39" y2="14.91"/><line class="cls-2" x1="45.94" y1="27.62" x2="45.94" y2="14.36"/><line class="cls-2" x1="40.48" y1="27.62" x2="40.48" y2="14.91"/><line class="cls-2" x1="35.03" y1="27.62" x2="35.03" y2="14.36"/><line class="cls-2" x1="29.57" y1="27.62" x2="29.57" y2="14.91"/><line class="cls-2" x1="24.12" y1="27.62" x2="24.12" y2="14.36"/><polyline class="cls-2" points="12.44 27.51 12.44 21.14 15.53 21.14 15.53 27.62"/><polyline class="cls-2" points="18.4 27.62 18.4 26.54 15.53 26.54"/><line class="cls-2" x1="12.48" y1="21.14" x2="12.48" y2="14.36"/><polygon class="cls-2" points="81.24 13.74 86.38 13.74 86.38 13.19 91.73 13.19 91.73 13.74 98.23 13.74 98.23 13.19 103.55 13.19 103.55 13.74 108.72 13.74 108.72 18.24 109.27 18.24 109.27 26.08 108.72 26.08 108.72 29.66 109.27 29.66 109.27 33.67 108.72 33.67 108.72 36.51 109.27 36.51 109.27 41.56 108.72 41.56 108.72 44.33 111.52 44.33 111.52 44.94 108.72 44.94 108.72 47.7 109.27 47.7 109.27 50.4 103.22 50.4 103.22 51.2 103.22 51.21 107.04 61.68 106.52 61.87 108.01 65.97 108.5 65.79 108.64 66.17 106.96 66.78 108.13 69.98 107.61 70.17 109.16 74.43 105.14 75.9 105.33 76.42 96.96 79.47 96.46 78.09 93.12 79.3 93.75 81.02 85.64 83.97 85.01 82.25 81.67 83.47 82.3 85.19 74.19 88.14 73.57 86.42 70.24 87.63 71.64 91.47 67.06 93.14 66.44 91.44 63.12 92.65 63.74 94.36 57.88 96.49 57.69 95.98 53.45 97.52 52.06 93.7 51.55 93.89 50.11 89.93 52.38 89.1 50.96 85.22 52.93 84.5 50.04 76.54 50.55 76.36 48.79 71.52 52.9 70.03 52.71 69.51 59.96 66.87 60.15 67.39 63.73 66.08 63.54 65.57 69.89 63.26 70.08 63.77 75.66 61.74 75.47 61.23 80.14 59.53 80.33 60.04 85.91 58.01 85.72 57.5 87.67 56.79 87.67 50.4 80.69 50.4 80.69 47.7 81.24 47.7 81.24 44.94 78.85 44.94 78.85 44.33 81.24 44.33 81.24 41.56 80.69 41.56 80.69 36.51 81.24 36.51 81.24 30.57 80.69 30.57 80.69 25.23 81.24 25.23 81.24 22.39 80.69 22.39 80.69 18.24 81.24 18.24 81.24 13.74"/><polyline class="cls-2" points="95.37 68.09 92.98 61.52 90.27 62.5 92.66 69.08"/><polyline class="cls-2" points="90.66 62.36 90.66 61.26 92.58 61.26 92.71 61.61"/><polyline class="cls-2" points="92.98 61.52 92.93 61.37 93.95 61 93.95 47.45 93.7 47.3 93.34 47.1 93.34 42.15 93.95 41.8 93.95 20.24 96.01 20.24 96.01 62.56 98.64 69.74 96.97 70.35 96.76 69.78 57.75 83.98 57.05 82.04 95.37 68.09"/><polyline class="cls-2" points="93.95 58.22 92.81 58.22 92.81 61.26 92.58 61.26"/><polyline class="cls-2" points="93.95 22.21 92.87 22.21 92.87 24.94 93.95 24.94"/><polyline class="cls-2" points="96.01 27.1 99.17 27.1 99.17 33.54 96.01 33.54"/><polyline class="cls-2" points="96.4 63.62 99.37 62.54 101.59 68.64 98.63 69.71"/><polyline class="cls-2" points="61.03 80.59 58.79 74.45 61.76 73.37 63.99 79.52"/><polyline class="cls-2" points="66.71 78.53 66.34 77.51 63.62 78.5"/><line class="cls-2" x1="94.98" y1="20.24" x2="94.98" y2="13.74"/><line class="cls-2" x1="96.01" y1="22.26" x2="109.27" y2="22.26"/><polyline class="cls-2" points="108.72 33.67 108.72 33.54 99.17 33.54"/><line class="cls-2" x1="109.27" y1="38.99" x2="96.01" y2="38.99"/><line class="cls-2" x1="96.01" y1="44.63" x2="111.52" y2="44.63"/><line class="cls-2" x1="78.85" y1="44.63" x2="93.34" y2="44.63"/><polyline class="cls-2" points="96.01 57.95 101.72 57.95 105.21 56.68"/><polyline class="cls-2" points="106.97 66.78 106.92 66.66 101.59 68.63"/><polyline class="cls-2" points="63.12 92.65 63 92.7 59.58 83.31"/><polyline class="cls-2" points="52.93 84.5 52.98 84.62 57.4 83.01"/><line class="cls-2" x1="56.61" y1="68.09" x2="58.91" y2="74.41"/><line class="cls-2" x1="67.56" y1="64.11" x2="72.09" y2="76.57"/><line class="cls-2" x1="72.87" y1="62.76" x2="77.22" y2="74.7"/><line class="cls-2" x1="77.81" y1="60.38" x2="82.34" y2="72.84"/><line class="cls-2" x1="83.12" y1="59.03" x2="87.47" y2="70.97"/><polyline class="cls-2" points="87.67 56.79 87.8 56.79 87.8 57.7 90.71 57.7 90.71 61.26"/><line class="cls-2" x1="80.69" y1="38.99" x2="93.95" y2="38.99"/><line class="cls-2" x1="81.24" y1="33.54" x2="93.95" y2="33.54"/><line class="cls-2" x1="80.69" y1="28.09" x2="93.95" y2="28.09"/><polyline class="cls-2" points="81.24 22.39 81.24 22.26 92.87 22.26"/><polyline class="cls-2" points="73.57 86.42 73.66 86.39 71.03 79.15"/><polyline class="cls-2" points="85.01 82.25 85.11 82.22 82.47 74.98"/><polyline class="cls-2" points="96.46 78.09 96.56 78.05 93.92 70.82"/><g class="cls-7"><rect class="cls-2" x="-233.92" y="-437.62" width="450.14" height="582.54"/></g><g><path class="cls-9" d="M82.6,95.11v3.91h2.46v.5h-3.07v-4.41h.61Z"/><path class="cls-9" d="M88.8,99.52h-3.15v-4.41h3.08v.5h-2.49v1.39h1.98v.5h-1.98v1.52h2.56v.5Z"/><path class="cls-9" d="M90.87,99.52l-1.77-4.41h.62l1.49,3.71h.03l1.45-3.71h.62l-1.78,4.41h-.66Z"/><path class="cls-9" d="M96.97,99.52h-3.15v-4.41h3.08v.5h-2.49v1.39h1.98v.5h-1.98v1.52h2.56v.5Z"/><path class="cls-9" d="M98.27,95.11v3.91h2.46v.5h-3.07v-4.41h.61Z"/><path class="cls-9" d="M105.58,99v.53h-3.24v-.35l1.25-1.07c.69-.6,1.21-1.05,1.21-1.69,0-.52-.29-.88-.88-.88s-.94,.38-.94,1.03c0,.13,.01,.27,.05,.4l-.6-.03c-.03-.14-.05-.28-.05-.41,0-.9,.61-1.48,1.55-1.48,1.03,0,1.5,.6,1.5,1.35,0,.8-.68,1.41-1.32,1.93l-.83,.69h2.3Z"/><path class="cls-9" d="M105.85,97.48h1.61v.52h-1.61v-.52Z"/><path class="cls-9" d="M111.05,95.66h-2.12c0,.24-.11,1.14-.16,1.37,.2-.25,.56-.45,1.05-.45,1,0,1.52,.67,1.52,1.48,0,.92-.64,1.55-1.6,1.55-1.06,0-1.67-.67-1.62-1.65l.59,.05c0,.67,.36,1.11,1.05,1.11,.62,0,1-.41,1-1.06,0-.58-.38-1.01-1-1.01-.49,0-.81,.26-.97,.56l-.6-.04c.11-.61,.26-1.74,.28-2.46h2.58v.55Z"/></g><g class="cls-8"><rect class="cls-4" x="-512" y="-665.52" width="678.3" height="877.8"/></g><g><path class="cls-9" d="M8.28,4.24h.02l.65-2.62h.41l-.81,3.15h-.5l-.66-2.52h-.02l-.67,2.52h-.5l-.81-3.15h.42l.66,2.61h.02l.69-2.61h.41l.7,2.62Z"/><path class="cls-9" d="M11.96,4.77h-2.25V1.62h2.2v.36h-1.78v.99h1.42v.36h-1.42v1.09h1.83v.36Z"/><path class="cls-9" d="M12.6,3.62c.02,.58,.42,.87,.95,.87,.47,0,.77-.2,.77-.55,0-.29-.19-.43-.6-.51l-.62-.12c-.47-.09-.79-.34-.79-.83,0-.55,.44-.93,1.13-.93,.79,0,1.25,.42,1.25,1.13l-.4,.02c-.02-.52-.33-.82-.85-.82-.46,0-.71,.21-.71,.57,0,.31,.21,.41,.57,.48l.57,.11c.58,.11,.87,.36,.87,.87,0,.58-.5,.92-1.18,.92-.78,0-1.34-.42-1.34-1.19l.39-.03Z"/><path class="cls-9" d="M15.99,4.77V1.98h-1.15v-.36h2.74v.36h-1.17v2.79h-.43Z"/><path class="cls-9" d="M20.23,4.77h-1.34V1.62h1.29c.78,0,1.1,.34,1.1,.84,0,.37-.26,.62-.6,.68,.39,.07,.69,.32,.69,.77,0,.55-.4,.87-1.14,.87Zm-.92-1.79h.88c.46,0,.65-.2,.65-.5s-.19-.51-.65-.51h-.88v1.01Zm0,.34v1.1h.91c.47,0,.72-.21,.72-.55s-.25-.55-.72-.55h-.91Z"/><path class="cls-9" d="M21.81,3.57V1.62h.43v1.95c0,.6,.3,.9,.85,.9s.86-.29,.86-.89V1.62h.42v1.95c0,.92-.57,1.27-1.28,1.27s-1.28-.34-1.28-1.27Z"/><path class="cls-9" d="M25.36,1.62v3.15h-.43V1.62h.43Z"/><path class="cls-9" d="M26.41,1.62v2.79h1.76v.36h-2.19V1.62h.43Z"/><path class="cls-9" d="M28.59,1.62h1.14c.99,0,1.62,.59,1.62,1.58s-.63,1.58-1.62,1.58h-1.14V1.62Zm1.12,2.8c.77,0,1.19-.46,1.19-1.22s-.42-1.22-1.19-1.22h-.68v2.44h.68Z"/><path class="cls-9" d="M32.24,1.62v3.15h-.44V1.62h.44Z"/><path class="cls-9" d="M35.03,4.03V1.62h.41v3.15h-.35l-1.83-2.53v2.53h-.41V1.62h.45l1.73,2.41Z"/><path class="cls-9" d="M35.9,3.19c0-.97,.67-1.64,1.54-1.64s1.41,.5,1.46,1.3l-.42,.03c-.04-.58-.41-.96-1.04-.96s-1.1,.49-1.1,1.27,.46,1.27,1.14,1.27c.59,0,.97-.37,1.03-.91h-.96v-.34h1.36v1.56h-.4v-.56c-.14,.4-.58,.62-1.08,.62-.89,0-1.54-.66-1.54-1.64Z"/></g><g><path class="cls-9" d="M81.11,4.77h-2.25V1.62h2.2v.36h-1.78v.99h1.42v.36h-1.42v1.09h1.83v.36Z"/><path class="cls-9" d="M83.12,1.62l1.31,3.15h-.46l-.38-.93h-1.44l-.37,.93h-.42l1.29-3.15h.48Zm-.83,1.88h1.16l-.58-1.4h-.02l-.57,1.4Z"/><path class="cls-9" d="M84.96,3.62c.02,.58,.42,.87,.95,.87,.47,0,.77-.2,.77-.55,0-.29-.19-.43-.6-.51l-.62-.12c-.47-.09-.79-.34-.79-.83,0-.55,.44-.93,1.13-.93,.79,0,1.25,.42,1.25,1.13l-.4,.02c-.02-.52-.33-.82-.85-.82-.46,0-.71,.21-.71,.57,0,.31,.21,.41,.57,.48l.57,.11c.58,.11,.87,.36,.87,.87,0,.58-.5,.92-1.18,.92-.78,0-1.34-.42-1.34-1.19l.39-.03Z"/><path class="cls-9" d="M88.35,4.77V1.98h-1.15v-.36h2.74v.36h-1.17v2.79h-.43Z"/><path class="cls-9" d="M92.59,4.77h-1.34V1.62h1.29c.78,0,1.1,.34,1.1,.84,0,.37-.26,.62-.6,.68,.39,.07,.69,.32,.69,.77,0,.55-.4,.87-1.14,.87Zm-.92-1.79h.88c.46,0,.65-.2,.65-.5s-.2-.51-.65-.51h-.88v1.01Zm0,.34v1.1h.91c.47,0,.72-.21,.72-.55s-.25-.55-.72-.55h-.91Z"/><path class="cls-9" d="M94.17,3.57V1.62h.43v1.95c0,.6,.3,.9,.85,.9s.86-.29,.86-.89V1.62h.43v1.95c0,.92-.57,1.27-1.28,1.27s-1.28-.34-1.28-1.27Z"/><path class="cls-9" d="M97.72,1.62v3.15h-.44V1.62h.44Z"/><path class="cls-9" d="M98.77,1.62v2.79h1.76v.36h-2.19V1.62h.44Z"/><path class="cls-9" d="M100.95,1.62h1.14c.99,0,1.62,.59,1.62,1.58s-.62,1.58-1.62,1.58h-1.14V1.62Zm1.12,2.8c.77,0,1.19-.46,1.19-1.22s-.42-1.22-1.19-1.22h-.68v2.44h.68Z"/><path class="cls-9" d="M104.6,1.62v3.15h-.43V1.62h.43Z"/><path class="cls-9" d="M107.39,4.03V1.62h.41v3.15h-.34l-1.83-2.53v2.53h-.41V1.62h.45l1.73,2.41Z"/><path class="cls-9" d="M108.26,3.19c0-.97,.67-1.64,1.54-1.64s1.41,.5,1.46,1.3l-.42,.03c-.04-.58-.41-.96-1.04-.96s-1.1,.49-1.1,1.27,.46,1.27,1.14,1.27c.59,0,.97-.37,1.03-.91h-.96v-.34h1.36v1.56h-.4v-.56c-.14,.4-.58,.62-1.08,.62-.89,0-1.54-.66-1.54-1.64Z"/></g></g></svg>