<?xml version="1.0" encoding="UTF-8"?><svg id="Layer_1" xmlns="http://www.w3.org/2000/svg" xmlns:xlink="http://www.w3.org/1999/xlink" viewBox="0 0 119.6 101.25"><defs><style>.cls-1{stroke:#ebebec;}.cls-1,.cls-2{stroke-width:.31px;}.cls-1,.cls-2,.cls-3,.cls-4{fill:none;}.cls-1,.cls-2,.cls-4{stroke-linecap:round;stroke-linejoin:round;}.cls-2,.cls-4{stroke:#000;}.cls-5{fill:#f1b784;fill-rule:evenodd;}.cls-6{clip-path:url(#clippath);}.cls-7{clip-path:url(#clippath-3);}.cls-8{clip-path:url(#clippath-5);}.cls-9{fill:#333132;}.cls-4{stroke-width:.47px;}</style><clipPath id="clippath"><rect class="cls-3" x="-347.12" y="-648.42" width="612" height="792"/></clipPath><clipPath id="clippath-3"><rect class="cls-3" x="-77.72" y="3.98" width="329.4" height="98.4"/></clipPath><clipPath id="clippath-5"><rect class="cls-3" x="-344.97" y="-529.35" width="609.85" height="495.66"/></clipPath></defs><g class="cls-6"><polygon class="cls-5" points="67.62 63.64 63.6 65.1 63.79 65.62 60.21 66.92 60.02 66.41 56.67 67.62 58.97 73.94 61.82 72.9 63.68 78.03 66.4 77.04 66.77 78.06 72.15 76.1 67.62 63.64"/><polygon class="cls-1" points="67.62 63.64 63.6 65.1 63.79 65.62 60.21 66.92 60.02 66.41 56.67 67.63 58.97 73.94 61.82 72.9 63.68 78.03 66.4 77.04 66.77 78.06 72.15 76.1 67.62 63.64"/><polygon class="cls-5" points="24.18 13.89 19.91 13.89 19.91 14.44 16.1 14.44 16.1 13.89 12.54 13.89 12.54 20.67 15.59 20.67 15.59 26.07 18.46 26.07 18.46 27.15 24.18 27.15 24.18 13.89"/><polygon class="cls-1" points="24.18 13.89 19.91 13.89 19.91 14.44 16.1 14.44 16.1 13.89 12.54 13.89 12.54 20.67 15.59 20.67 15.59 26.07 18.46 26.07 18.46 27.15 24.18 27.15 24.18 13.89"/><line class="cls-2" x1="33.67" y1="32.45" x2="33.67" y2="29.21"/><polyline class="cls-2" points="37.12 32.45 33.67 29.21 30.21 32.45"/><polyline class="cls-2" points="37.12 29.21 33.67 32.45 30.21 29.21"/><line class="cls-2" x1="91.53" y1="65.32" x2="94.24" y2="64.34"/><polyline class="cls-2" points="92.72 68.61 94.24 64.34 90.33 62.03"/><polyline class="cls-2" points="95.43 67.63 91.53 65.32 93.04 61.05"/><polyline class="cls-2" points="3.1 19.86 1.95 19.86 1.95 12.31 8.8 12.31 8.8 13.89"/><polyline class="cls-2" points="15.82 13.89 15.82 12.31 20.19 12.31 20.19 13.89"/><polyline class="cls-2" points="26.38 13.89 26.38 12.31 32.88 12.31 32.88 13.89"/><line class="cls-2" x1="29.63" y1="12.31" x2="29.63" y2="14.44"/><polyline class="cls-2" points="71.43 36.5 72.94 36.5 72.94 44.05 66.1 44.05 66.1 42.47"/><polyline class="cls-2" points="58.76 42.47 58.76 44.05 50.31 44.05 50.31 42.47"/><line class="cls-2" x1="53.54" y1="41.92" x2="53.54" y2="44.05"/><polyline class="cls-2" points="45.88 42.47 45.88 44.05 39.38 44.05 39.38 42.47"/><line class="cls-2" x1="42.63" y1="41.92" x2="42.63" y2="44.05"/><polyline class="cls-2" points="33.46 42.47 33.46 44.05 28.47 44.05 28.47 42.47"/><polyline class="cls-2" points="22.48 42.47 22.48 44.05 19.16 44.05 19.16 42.48"/><polyline class="cls-2" points="15.9 40.39 15.9 41.98 12.4 41.98 12.4 39.85"/><polyline class="cls-2" points="15.59 25.53 14.05 25.53 14.05 20.67"/><line class="cls-2" x1="14.05" y1="25.18" x2="12.5" y2="25.18"/><line class="cls-2" x1="12.5" y1="23.54" x2="14.05" y2="22.82"/><polyline class="cls-2" points="62.39 31.05 60.85 31.05 60.85 35.67"/><line class="cls-2" x1="59.3" y1="33.8" x2="60.85" y2="33.08"/><line class="cls-2" x1="59.3" y1="31.44" x2="60.85" y2="31.44"/><polyline class="cls-2" points="58.2 95.93 58.51 96.77 52.01 99.14 50.02 93.7 51.51 93.16"/><polyline class="cls-2" points="50.19 76.34 48.65 76.9 46.06 69.8 52.49 67.46 53.04 68.95"/><polyline class="cls-2" points="59.79 66.49 59.25 65 63.35 63.51 63.9 65"/><polyline class="cls-2" points="69.69 62.89 69.15 61.4 75.25 59.18 75.79 60.67"/><line class="cls-2" x1="72.2" y1="60.29" x2="72.93" y2="62.29"/><polyline class="cls-2" points="79.94 59.16 79.4 57.67 85.5 55.45 86.04 56.94"/><line class="cls-2" x1="82.45" y1="56.56" x2="83.18" y2="58.56"/><polyline class="cls-2" points="80.75 47.51 79.17 47.51 79.17 44.47"/><polyline class="cls-2" points="80.75 40.81 79.17 40.81 79.17 43.86"/><polyline class="cls-2" points="80.75 36.32 79.17 36.32 79.17 29.82 80.75 29.82"/><line class="cls-2" x1="79.17" y1="33.07" x2="81.3" y2="33.07"/><polyline class="cls-2" points="109.33 25.33 110.91 25.33 110.91 29.47 109.33 29.47"/><polyline class="cls-2" points="109.33 32.92 110.91 32.92 110.91 36.32 109.33 36.32"/><polyline class="cls-2" points="109.33 40.81 110.91 40.81 110.91 43.86"/><polyline class="cls-2" points="110.91 44.47 110.91 47.51 109.33 47.51"/><polyline class="cls-2" points="107 60.95 108.49 60.41 110.2 65.13 108.69 65.68"/><polyline class="cls-2" points="108.1 69.27 109.61 68.72 111.99 75.26 105.7 77.55 105.15 76.04"/><polyline class="cls-2" points="67.35 92.58 67.67 93.44 63.84 94.83 63.54 93.99"/><line class="cls-2" x1="96.07" y1="44.16" x2="93.4" y2="44.16"/><line class="cls-2" x1="98.6" y1="64.42" x2="97.12" y2="64.96"/><polyline class="cls-2" points="100.03 63.72 98.55 64.26 99.52 66.93 98.04 67.47"/><line class="cls-2" x1="99.46" y1="66.77" x2="100.94" y2="66.23"/><polyline class="cls-2" points="61.87 73.47 60.52 73.96 62.01 78.03 63.49 77.49"/><line class="cls-2" x1="60.41" y1="78.26" x2="61.89" y2="77.72"/><line class="cls-2" x1="61.08" y1="75.5" x2="59.85" y2="76.73"/><polyline class="cls-2" points="99.23 31.47 97.65 31.47 97.65 28.47 96.07 28.47"/><line class="cls-2" x1="99.23" y1="28.8" x2="97.65" y2="28.8"/><line class="cls-2" x1="96.07" y1="31.14" x2="97.65" y2="31.14"/><line class="cls-2" x1="40.54" y1="14.44" x2="40.54" y2="12.31"/><polyline class="cls-2" points="93.8 80.53 97.37 79.23 97.26 78.91"/><line class="cls-2" x1="82.35" y1="84.7" x2="85.69" y2="83.48"/><polyline class="cls-2" points="74.49 87.58 74.68 88.11 71.12 89.41"/><polyline class="cls-2" points="103.36 12.72 103.36 11.14 110.91 11.14 110.91 18.06 109.33 18.06"/><polyline class="cls-2" points="80.75 18.06 79.17 18.06 79.17 11.14 86.72 11.14 86.72 12.72"/><polyline class="cls-2" points="80.75 21.64 79.17 21.64 79.17 25.05 80.75 25.05"/><polyline class="cls-2" points="37.29 13.89 37.29 12.31 43.79 12.31 43.79 13.89"/><line class="cls-2" x1="51.45" y1="14.44" x2="51.45" y2="12.31"/><polyline class="cls-2" points="48.2 13.89 48.2 12.31 54.7 12.31 54.7 13.89"/><polyline class="cls-2" points="59.08 13.89 59.08 12.31 62.5 12.31 62.5 13.89"/><polyline class="cls-2" points="66.1 13.89 66.1 12.31 72.94 12.31 72.94 19.86 71.43 19.86"/><polygon class="cls-2" points="3.1 20.03 3.1 19.57 3.65 19.57 3.65 14.44 8.52 14.44 8.52 13.89 16.1 13.89 16.1 14.44 19.91 14.44 19.91 13.89 26.63 13.89 26.63 14.44 32.57 14.44 32.57 13.89 37.54 13.89 37.54 14.44 43.48 14.44 43.48 13.89 48.45 13.89 48.45 14.44 54.39 14.44 54.39 13.89 59.36 13.89 59.36 14.44 62.22 14.44 62.22 13.89 66.38 13.89 66.38 14.44 70.88 14.44 70.88 19.58 71.43 19.58 71.43 24.94 70.88 24.94 70.88 31.42 71.43 31.42 71.43 36.78 70.88 36.78 70.88 41.92 66.38 41.92 66.38 42.47 58.48 42.47 58.48 41.92 50.59 41.92 50.59 42.47 45.63 42.47 45.63 41.92 39.69 41.92 39.69 42.47 33.18 42.47 33.18 41.92 28.75 41.92 28.75 42.47 22.2 42.47 22.2 41.92 19.56 41.92 19.56 42.48 19.1 42.48 19.1 40.39 15.62 40.39 15.62 39.85 10.93 39.85 10.93 36.88 10.39 36.88 10.39 35.25 7.27 35.25 7.27 30.74 4.01 30.74 4.01 20.03 3.1 20.03"/><rect class="cls-2" x="10.51" y="27.15" width="53.87" height="2.06"/><line class="cls-2" x1="10.51" y1="28.18" x2="4.01" y2="28.18"/><polyline class="cls-2" points="19.23 29.21 19.23 40.39 19.1 40.39"/><line class="cls-2" x1="24.69" y1="29.21" x2="24.69" y2="42.47"/><polyline class="cls-2" points="30.21 29.21 30.21 32.45 37.12 32.45 37.12 29.21"/><polyline class="cls-2" points="37.18 42.47 37.18 32.45 37.12 32.45"/><line class="cls-2" x1="42.63" y1="41.92" x2="42.63" y2="29.21"/><line class="cls-2" x1="48.09" y1="42.47" x2="48.09" y2="29.21"/><line class="cls-2" x1="53.54" y1="41.92" x2="53.54" y2="30.29"/><polyline class="cls-2" points="53.49 29.29 53.49 30.29 56.15 30.29 56.15 29.21"/><polyline class="cls-2" points="59.3 29.21 59.3 35.67 62.4 35.67 62.4 29.21"/><line class="cls-2" x1="62.36" y1="42.47" x2="62.36" y2="35.67"/><line class="cls-2" x1="70.88" y1="28.18" x2="64.38" y2="28.18"/><polyline class="cls-2" points="62.36 27.15 62.36 14.44 62.22 14.44"/><line class="cls-2" x1="56.9" y1="27.15" x2="56.9" y2="13.89"/><line class="cls-2" x1="51.45" y1="27.15" x2="51.45" y2="14.44"/><line class="cls-2" x1="46" y1="27.15" x2="46" y2="13.89"/><line class="cls-2" x1="40.54" y1="27.15" x2="40.54" y2="14.44"/><line class="cls-2" x1="35.09" y1="27.15" x2="35.09" y2="13.89"/><line class="cls-2" x1="29.63" y1="27.15" x2="29.63" y2="14.44"/><line class="cls-2" x1="24.18" y1="27.15" x2="24.18" y2="13.89"/><polyline class="cls-2" points="12.5 27.04 12.5 20.67 15.59 20.67 15.59 27.15"/><polyline class="cls-2" points="18.46 27.15 18.46 26.07 15.59 26.07"/><line class="cls-2" x1="12.54" y1="20.67" x2="12.54" y2="13.89"/><polygon class="cls-2" points="81.3 13.27 86.44 13.27 86.44 12.72 91.79 12.72 91.79 13.27 98.29 13.27 98.29 12.72 103.61 12.72 103.61 13.27 108.78 13.27 108.78 17.78 109.33 17.78 109.33 25.61 108.78 25.61 108.78 29.19 109.33 29.19 109.33 33.2 108.78 33.2 108.78 36.04 109.33 36.04 109.33 41.09 108.78 41.09 108.78 43.86 111.58 43.86 111.58 44.47 108.78 44.47 108.78 47.23 109.33 47.23 109.33 49.93 103.27 49.93 103.27 50.73 103.28 50.74 107.1 61.22 106.58 61.4 108.07 65.5 108.56 65.32 108.7 65.71 107.02 66.31 108.19 69.51 107.67 69.7 109.22 73.97 105.2 75.43 105.39 75.95 97.02 79 96.52 77.62 93.18 78.83 93.81 80.55 85.7 83.5 85.07 81.79 81.73 83 82.36 84.72 74.25 87.67 73.63 85.95 70.3 87.16 71.7 91 67.12 92.67 66.5 90.97 63.18 92.18 63.8 93.89 57.94 96.02 57.75 95.51 53.51 97.05 52.12 93.23 51.61 93.42 50.17 89.46 52.44 88.64 51.02 84.75 52.99 84.03 50.1 76.07 50.61 75.89 48.85 71.05 52.96 69.56 52.77 69.04 60.02 66.41 60.21 66.92 63.79 65.62 63.6 65.1 69.95 62.79 70.14 63.31 75.72 61.27 75.53 60.76 80.2 59.06 80.39 59.57 85.97 57.54 85.78 57.03 87.73 56.32 87.73 49.93 80.75 49.93 80.75 47.23 81.3 47.23 81.3 44.47 78.91 44.47 78.91 43.86 81.3 43.86 81.3 41.09 80.75 41.09 80.75 36.04 81.3 36.04 81.3 30.1 80.75 30.1 80.75 24.76 81.3 24.76 81.3 21.92 80.75 21.92 80.75 17.78 81.3 17.78 81.3 13.27"/><polyline class="cls-2" points="95.43 67.63 93.04 61.05 90.33 62.03 92.72 68.61"/><polyline class="cls-2" points="90.72 61.89 90.72 60.79 92.64 60.79 92.77 61.15"/><polyline class="cls-2" points="93.04 61.05 92.99 60.91 94.01 60.53 94.01 46.98 93.76 46.83 93.4 46.63 93.4 41.69 94.01 41.34 94.01 19.77 96.07 19.77 96.07 62.09 98.7 69.27 97.03 69.88 96.83 69.31 57.81 83.51 57.11 81.57 95.43 67.63"/><polyline class="cls-2" points="94.01 57.75 92.87 57.75 92.87 60.79 92.64 60.79"/><polyline class="cls-2" points="94.01 21.74 92.93 21.74 92.93 24.48 94.01 24.48"/><polyline class="cls-2" points="96.07 26.63 99.23 26.63 99.23 33.08 96.07 33.08"/><polyline class="cls-2" points="96.46 63.15 99.43 62.07 101.65 68.17 98.69 69.24"/><polyline class="cls-2" points="61.09 80.13 58.85 73.98 61.82 72.9 64.05 79.05"/><polyline class="cls-2" points="66.77 78.06 66.4 77.04 63.68 78.03"/><line class="cls-2" x1="95.04" y1="19.77" x2="95.04" y2="13.27"/><line class="cls-2" x1="96.07" y1="21.79" x2="109.33" y2="21.79"/><polyline class="cls-2" points="108.78 33.2 108.78 33.07 99.23 33.07"/><line class="cls-2" x1="109.33" y1="38.52" x2="96.07" y2="38.52"/><line class="cls-2" x1="96.07" y1="44.16" x2="111.58" y2="44.16"/><line class="cls-2" x1="78.91" y1="44.16" x2="93.4" y2="44.16"/><polyline class="cls-2" points="96.07 57.48 101.78 57.48 105.27 56.21"/><polyline class="cls-2" points="107.03 66.31 106.98 66.19 101.65 68.16"/><polyline class="cls-2" points="63.18 92.18 63.06 92.23 59.64 82.84"/><polyline class="cls-2" points="52.99 84.03 53.04 84.15 57.46 82.54"/><line class="cls-2" x1="56.67" y1="67.63" x2="58.97" y2="73.94"/><line class="cls-2" x1="67.62" y1="63.64" x2="72.15" y2="76.1"/><line class="cls-2" x1="72.93" y1="62.29" x2="77.28" y2="74.23"/><line class="cls-2" x1="77.87" y1="59.91" x2="82.4" y2="72.37"/><line class="cls-2" x1="83.18" y1="58.56" x2="87.53" y2="70.5"/><polyline class="cls-2" points="87.73 56.32 87.86 56.32 87.86 57.23 90.77 57.23 90.77 60.79"/><line class="cls-2" x1="80.75" y1="38.52" x2="94.01" y2="38.52"/><line class="cls-2" x1="81.3" y1="33.07" x2="94.01" y2="33.07"/><line class="cls-2" x1="80.75" y1="27.62" x2="94.01" y2="27.62"/><polyline class="cls-2" points="81.3 21.92 81.3 21.79 92.93 21.79"/><polyline class="cls-2" points="73.63 85.95 73.72 85.92 71.09 78.68"/><polyline class="cls-2" points="85.07 81.79 85.17 81.75 82.53 74.51"/><polyline class="cls-2" points="96.52 77.62 96.62 77.59 93.98 70.35"/><g class="cls-7"><rect class="cls-2" x="-99.46" y="-438.09" width="450.14" height="582.54"/></g><g><path class="cls-9" d="M88.96,94.87v3.91h2.46v.5h-3.07v-4.41h.61Z"/><path class="cls-9" d="M95.16,99.28h-3.15v-4.41h3.08v.5h-2.49v1.39h1.98v.5h-1.98v1.52h2.56v.5Z"/><path class="cls-9" d="M97.23,99.28l-1.77-4.41h.62l1.49,3.71h.03l1.45-3.71h.62l-1.78,4.41h-.66Z"/><path class="cls-9" d="M103.33,99.28h-3.15v-4.41h3.08v.5h-2.49v1.39h1.98v.5h-1.98v1.52h2.56v.5Z"/><path class="cls-9" d="M104.62,94.87v3.91h2.46v.5h-3.07v-4.41h.61Z"/><path class="cls-9" d="M111.94,98.76v.53h-3.24v-.35l1.25-1.07c.69-.6,1.21-1.05,1.21-1.69,0-.52-.29-.88-.88-.88s-.94,.38-.94,1.03c0,.13,.01,.27,.05,.4l-.6-.03c-.03-.14-.05-.28-.05-.41,0-.9,.61-1.48,1.55-1.48,1.03,0,1.5,.6,1.5,1.35,0,.8-.68,1.41-1.32,1.93l-.83,.69h2.3Z"/><path class="cls-9" d="M112.21,97.24h1.61v.52h-1.61v-.52Z"/><path class="cls-9" d="M117.41,95.42h-2.12c0,.24-.11,1.14-.16,1.37,.2-.25,.56-.45,1.05-.45,1,0,1.52,.67,1.52,1.48,0,.92-.64,1.55-1.6,1.55-1.06,0-1.67-.67-1.62-1.65l.59,.05c0,.67,.36,1.11,1.05,1.11,.62,0,1-.41,1-1.06,0-.58-.38-1.01-1-1.01-.49,0-.81,.26-.97,.56l-.6-.04c.11-.61,.26-1.74,.28-2.46h2.58v.55Z"/></g><g class="cls-8"><rect class="cls-4" x="-377.74" y="-651.21" width="678.3" height="877.8"/></g><g><path class="cls-9" d="M7.84,4h.02l.65-2.62h.41l-.81,3.15h-.5l-.66-2.52h-.02l-.67,2.52h-.5l-.81-3.15h.42l.66,2.61h.02l.69-2.61h.41l.7,2.62Z"/><path class="cls-9" d="M11.52,4.53h-2.25V1.38h2.2v.36h-1.78v.99h1.42v.36h-1.42v1.09h1.83v.36Z"/><path class="cls-9" d="M12.16,3.38c.03,.58,.42,.87,.95,.87,.47,0,.77-.2,.77-.55,0-.29-.19-.43-.6-.51l-.62-.12c-.47-.09-.79-.34-.79-.83,0-.55,.44-.93,1.13-.93,.79,0,1.25,.42,1.25,1.13l-.39,.02c-.02-.52-.33-.82-.85-.82-.46,0-.71,.21-.71,.57,0,.31,.21,.41,.57,.48l.57,.11c.58,.11,.87,.36,.87,.87,0,.58-.5,.92-1.18,.92-.78,0-1.34-.42-1.34-1.19l.39-.03Z"/><path class="cls-9" d="M15.55,4.53V1.74h-1.15v-.36h2.74v.36h-1.17v2.79h-.43Z"/><path class="cls-9" d="M19.79,4.53h-1.34V1.38h1.29c.78,0,1.1,.34,1.1,.84,0,.37-.26,.62-.6,.68,.39,.07,.69,.32,.69,.77,0,.55-.4,.87-1.14,.87Zm-.92-1.79h.88c.46,0,.65-.2,.65-.5s-.2-.51-.65-.51h-.88v1.01Zm0,.34v1.1h.91c.47,0,.72-.21,.72-.55s-.25-.55-.72-.55h-.91Z"/><path class="cls-9" d="M21.37,3.33V1.38h.43v1.95c0,.6,.3,.9,.85,.9s.86-.29,.86-.89V1.38h.43v1.95c0,.92-.57,1.27-1.28,1.27s-1.28-.34-1.28-1.27Z"/><path class="cls-9" d="M24.92,1.38v3.15h-.44V1.38h.44Z"/><path class="cls-9" d="M25.97,1.38v2.79h1.76v.36h-2.19V1.38h.44Z"/><path class="cls-9" d="M28.15,1.38h1.14c.99,0,1.62,.59,1.62,1.58s-.62,1.58-1.62,1.58h-1.14V1.38Zm1.12,2.8c.77,0,1.19-.46,1.19-1.22s-.42-1.22-1.19-1.22h-.68v2.44h.68Z"/><path class="cls-9" d="M31.8,1.38v3.15h-.43V1.38h.43Z"/><path class="cls-9" d="M34.59,3.79V1.38h.41v3.15h-.34l-1.83-2.53v2.53h-.41V1.38h.45l1.73,2.41Z"/><path class="cls-9" d="M35.46,2.96c0-.97,.67-1.64,1.54-1.64s1.41,.5,1.46,1.3l-.42,.03c-.04-.58-.41-.96-1.04-.96s-1.1,.49-1.1,1.27,.46,1.27,1.14,1.27c.59,0,.97-.37,1.03-.91h-.96v-.34h1.36v1.56h-.4v-.56c-.14,.4-.58,.62-1.08,.62-.89,0-1.54-.66-1.54-1.64Z"/></g><g><path class="cls-9" d="M80.67,4.53h-2.25V1.38h2.2v.36h-1.78v.99h1.42v.36h-1.42v1.09h1.83v.36Z"/><path class="cls-9" d="M82.68,1.38l1.31,3.15h-.46l-.38-.93h-1.44l-.37,.93h-.43l1.29-3.15h.47Zm-.83,1.88h1.16l-.58-1.4h-.02l-.57,1.4Z"/><path class="cls-9" d="M84.52,3.38c.03,.58,.42,.87,.95,.87,.47,0,.77-.2,.77-.55,0-.29-.19-.43-.6-.51l-.62-.12c-.47-.09-.79-.34-.79-.83,0-.55,.44-.93,1.13-.93,.79,0,1.25,.42,1.25,1.13l-.39,.02c-.02-.52-.33-.82-.85-.82-.46,0-.71,.21-.71,.57,0,.31,.21,.41,.57,.48l.57,.11c.58,.11,.87,.36,.87,.87,0,.58-.5,.92-1.18,.92-.78,0-1.34-.42-1.34-1.19l.39-.03Z"/><path class="cls-9" d="M87.91,4.53V1.74h-1.15v-.36h2.74v.36h-1.17v2.79h-.43Z"/><path class="cls-9" d="M92.15,4.53h-1.34V1.38h1.29c.78,0,1.1,.34,1.1,.84,0,.37-.26,.62-.6,.68,.39,.07,.69,.32,.69,.77,0,.55-.4,.87-1.14,.87Zm-.92-1.79h.88c.46,0,.65-.2,.65-.5s-.19-.51-.65-.51h-.88v1.01Zm0,.34v1.1h.91c.47,0,.72-.21,.72-.55s-.25-.55-.72-.55h-.91Z"/><path class="cls-9" d="M93.73,3.33V1.38h.43v1.95c0,.6,.3,.9,.85,.9s.86-.29,.86-.89V1.38h.42v1.95c0,.92-.57,1.27-1.28,1.27s-1.28-.34-1.28-1.27Z"/><path class="cls-9" d="M97.28,1.38v3.15h-.43V1.38h.43Z"/><path class="cls-9" d="M98.33,1.38v2.79h1.76v.36h-2.19V1.38h.43Z"/><path class="cls-9" d="M100.51,1.38h1.14c.99,0,1.62,.59,1.62,1.58s-.63,1.58-1.62,1.58h-1.14V1.38Zm1.12,2.8c.77,0,1.19-.46,1.19-1.22s-.42-1.22-1.19-1.22h-.68v2.44h.68Z"/><path class="cls-9" d="M104.16,1.38v3.15h-.44V1.38h.44Z"/><path class="cls-9" d="M106.95,3.79V1.38h.41v3.15h-.35l-1.83-2.53v2.53h-.41V1.38h.45l1.73,2.41Z"/><path class="cls-9" d="M107.82,2.96c0-.97,.67-1.64,1.54-1.64s1.41,.5,1.46,1.3l-.42,.03c-.04-.58-.41-.96-1.04-.96s-1.1,.49-1.1,1.27,.46,1.27,1.14,1.27c.59,0,.97-.37,1.03-.91h-.96v-.34h1.36v1.56h-.4v-.56c-.14,.4-.58,.62-1.08,.62-.89,0-1.54-.66-1.54-1.64Z"/></g></g></svg>