<?xml version="1.0" encoding="UTF-8"?><svg id="Layer_1" xmlns="http://www.w3.org/2000/svg" xmlns:xlink="http://www.w3.org/1999/xlink" viewBox="0 0 113.91 101.25"><defs><style>.cls-1{stroke:#ebebec;}.cls-1,.cls-2{stroke-width:.31px;}.cls-1,.cls-2,.cls-3,.cls-4{fill:none;}.cls-1,.cls-2,.cls-4{stroke-linecap:round;stroke-linejoin:round;}.cls-2,.cls-4{stroke:#000;}.cls-5{fill:#f1b784;fill-rule:evenodd;}.cls-6{clip-path:url(#clippath);}.cls-7{clip-path:url(#clippath-3);}.cls-8{clip-path:url(#clippath-5);}.cls-9{fill:#333132;}.cls-4{stroke-width:.47px;}</style><clipPath id="clippath"><rect class="cls-3" x="-481.76" y="-648.42" width="612" height="792"/></clipPath><clipPath id="clippath-3"><rect class="cls-3" x="-212.36" y="3.98" width="329.4" height="98.4"/></clipPath><clipPath id="clippath-5"><rect class="cls-3" x="-479.62" y="-529.35" width="609.85" height="495.66"/></clipPath></defs><g class="cls-6"><polygon class="cls-5" points="67.37 63.64 63.36 65.1 63.55 65.62 59.97 66.92 59.78 66.41 56.43 67.62 58.73 73.94 61.57 72.9 63.44 78.03 66.16 77.04 66.53 78.06 71.91 76.1 67.37 63.64"/><polygon class="cls-1" points="67.37 63.64 63.36 65.1 63.55 65.62 59.97 66.92 59.78 66.41 56.43 67.63 58.73 73.94 61.57 72.9 63.44 78.03 66.16 77.04 66.53 78.06 71.91 76.1 67.37 63.64"/><polygon class="cls-5" points="23.93 13.89 19.67 13.89 19.67 14.44 15.86 14.44 15.86 13.89 12.29 13.89 12.29 20.67 15.35 20.67 15.35 26.07 18.22 26.07 18.22 27.15 23.93 27.15 23.93 13.89"/><polygon class="cls-1" points="23.94 13.89 19.67 13.89 19.67 14.44 15.86 14.44 15.86 13.89 12.3 13.89 12.3 20.67 15.35 20.67 15.35 26.07 18.22 26.07 18.22 27.15 23.94 27.15 23.94 13.89"/><line class="cls-2" x1="33.42" y1="32.45" x2="33.42" y2="29.21"/><polyline class="cls-2" points="36.88 32.45 33.42 29.21 29.96 32.45"/><polyline class="cls-2" points="36.88 29.21 33.42 32.45 29.96 29.21"/><line class="cls-2" x1="91.28" y1="65.32" x2="93.99" y2="64.34"/><polyline class="cls-2" points="92.48 68.61 93.99 64.34 90.09 62.03"/><polyline class="cls-2" points="95.19 67.63 91.28 65.32 92.8 61.05"/><polyline class="cls-2" points="89.35 55.64 88.7 53.86 88.7 18.52 106.5 18.52 106.5 43.86"/><polyline class="cls-2" points="106.5 44.47 106.5 44.78 99.57 47.3 101.06 51.38"/><polyline class="cls-2" points="2.86 19.86 1.7 19.86 1.7 12.31 8.55 12.31 8.55 13.89"/><polyline class="cls-2" points="15.58 13.89 15.58 12.31 19.95 12.31 19.95 13.89"/><polyline class="cls-2" points="26.14 13.89 26.14 12.31 32.64 12.31 32.64 13.89"/><line class="cls-2" x1="29.39" y1="12.31" x2="29.39" y2="14.44"/><polyline class="cls-2" points="37.05 13.89 37.05 12.31 43.55 12.31 43.55 13.89"/><polyline class="cls-2" points="47.96 13.89 47.96 12.31 54.45 12.31 54.45 13.89"/><line class="cls-2" x1="51.21" y1="14.44" x2="51.21" y2="12.31"/><polyline class="cls-2" points="58.83 13.89 58.83 12.31 62.16 12.31 62.16 13.89"/><polyline class="cls-2" points="65.85 13.89 65.85 12.31 72.7 12.31 72.7 19.86 71.18 19.86"/><polyline class="cls-2" points="71.18 36.5 72.7 36.5 72.7 44.05 65.85 44.05 65.85 42.47"/><polyline class="cls-2" points="58.51 42.47 58.51 44.05 50.06 44.05 50.06 42.47"/><line class="cls-2" x1="53.3" y1="41.92" x2="53.3" y2="44.05"/><polyline class="cls-2" points="45.64 42.47 45.64 44.05 39.14 44.05 39.14 42.47"/><line class="cls-2" x1="42.39" y1="41.92" x2="42.39" y2="44.05"/><polyline class="cls-2" points="33.21 42.47 33.21 44.05 28.22 44.05 28.22 42.47"/><polyline class="cls-2" points="22.24 42.47 22.24 44.05 18.91 44.05 18.91 42.48"/><polyline class="cls-2" points="15.65 40.39 15.65 41.98 12.15 41.98 12.15 39.85"/><polyline class="cls-2" points="15.35 25.53 13.8 25.53 13.8 20.67"/><line class="cls-2" x1="13.8" y1="25.18" x2="12.26" y2="25.18"/><line class="cls-2" x1="12.26" y1="23.54" x2="13.8" y2="22.82"/><polyline class="cls-2" points="62.15 31.05 60.61 31.05 60.61 35.67"/><line class="cls-2" x1="59.06" y1="33.8" x2="60.61" y2="33.08"/><line class="cls-2" x1="59.06" y1="31.44" x2="60.61" y2="31.44"/><polyline class="cls-2" points="87.49 56.32 87.49 49.93 80.51 49.93 80.51 44.47 78.67 44.47 78.67 43.86 80.51 43.86 80.51 36.04 80.51 30.1 80.51 24.76 80.51 21.92 80.51 12.72 101.06 12.72 101.06 13.27 108.54 13.27 108.54 17.78 109.08 17.78 109.08 25.61 109.08 29.19 109.08 33.2 109.08 36.04 109.08 43.86 111.34 43.86 111.34 44.47 109.08 44.47 109.08 49.93 103.03 49.93 103.03 50.72"/><polyline class="cls-2" points="57.96 95.93 58.26 96.77 51.76 99.14 49.78 93.7 51.27 93.16"/><polyline class="cls-2" points="49.95 76.34 48.4 76.9 45.82 69.8 52.25 67.46 52.79 68.95"/><polyline class="cls-2" points="59.55 66.49 59 65 63.11 63.51 63.65 65"/><polyline class="cls-2" points="69.44 62.89 68.9 61.4 75.01 59.18 75.55 60.67"/><line class="cls-2" x1="71.96" y1="60.29" x2="72.68" y2="62.29"/><polyline class="cls-2" points="79.69 59.16 79.15 57.67 85.26 55.45 85.8 56.94"/><line class="cls-2" x1="82.21" y1="56.56" x2="82.93" y2="58.56"/><polyline class="cls-2" points="106.76 60.95 108.24 60.41 109.96 65.13 108.45 65.68"/><polyline class="cls-2" points="67.18 92.57 67.49 93.42 63.6 94.83 63.29 93.99"/><line class="cls-2" x1="98.36" y1="64.42" x2="96.88" y2="64.96"/><polyline class="cls-2" points="99.78 63.72 98.3 64.26 99.27 66.93 97.8 67.47"/><line class="cls-2" x1="99.21" y1="66.77" x2="100.7" y2="66.23"/><polyline class="cls-2" points="61.63 73.47 60.28 73.96 61.76 78.03 63.24 77.49"/><line class="cls-2" x1="60.17" y1="78.26" x2="61.65" y2="77.72"/><line class="cls-2" x1="60.84" y1="75.5" x2="59.61" y2="76.73"/><polyline class="cls-2" points="99.09 31.47 97.41 31.47 97.41 27.8 95.73 27.8"/><line class="cls-2" x1="99.09" y1="28.4" x2="97.41" y2="28.4"/><line class="cls-2" x1="95.73" y1="31.14" x2="97.41" y2="31.14"/><rect class="cls-2" x="105.37" y="43.86" width="5.97" height=".61"/><rect class="cls-2" x="78.67" y="43.86" width="5.55" height=".61"/><polyline class="cls-2" points="107.86 69.27 109.37 68.72 111.52 74.62 105.23 76.91 104.91 76.04"/><polyline class="cls-2" points="93.55 80.53 97.13 79.23 97.02 78.91"/><line class="cls-2" x1="82.11" y1="84.7" x2="85.45" y2="83.48"/><polyline class="cls-2" points="74.25 87.58 74.44 88.11 70.87 89.41"/><polygon class="cls-2" points="2.86 20.03 2.86 19.57 3.4 19.57 3.4 14.44 8.27 14.44 8.27 13.89 15.86 13.89 15.86 14.44 19.67 14.44 19.67 13.89 26.39 13.89 26.39 14.44 32.33 14.44 32.33 13.89 37.3 13.89 37.3 14.44 43.24 14.44 43.24 13.89 48.21 13.89 48.21 14.44 54.14 14.44 54.14 13.89 59.11 13.89 59.11 14.44 61.98 14.44 61.98 13.89 66.13 13.89 66.13 14.44 70.64 14.44 70.64 19.58 71.18 19.58 71.18 24.94 70.64 24.94 70.64 31.42 71.18 31.42 71.18 36.78 70.64 36.78 70.64 41.92 66.13 41.92 66.13 42.47 58.23 42.47 58.23 41.92 50.34 41.92 50.34 42.47 45.39 42.47 45.39 41.92 39.45 41.92 39.45 42.47 32.93 42.47 32.93 41.92 28.5 41.92 28.5 42.47 21.96 42.47 21.96 41.92 19.32 41.92 19.32 42.48 18.86 42.48 18.86 40.39 15.37 40.39 15.37 39.85 10.69 39.85 10.69 36.88 10.14 36.88 10.14 35.25 7.03 35.25 7.03 30.74 3.77 30.74 3.77 20.03 2.86 20.03"/><rect class="cls-2" x="10.27" y="27.15" width="53.87" height="2.06"/><line class="cls-2" x1="10.27" y1="28.18" x2="3.77" y2="28.18"/><polyline class="cls-2" points="18.99 29.21 18.99 40.39 18.86 40.39"/><line class="cls-2" x1="24.44" y1="29.21" x2="24.44" y2="42.47"/><polyline class="cls-2" points="29.96 29.21 29.96 32.45 36.88 32.45 36.88 29.21"/><polyline class="cls-2" points="36.93 42.47 36.93 32.45 36.88 32.45"/><line class="cls-2" x1="42.39" y1="41.92" x2="42.39" y2="29.21"/><line class="cls-2" x1="47.84" y1="42.47" x2="47.84" y2="29.21"/><line class="cls-2" x1="53.3" y1="41.92" x2="53.3" y2="30.29"/><polyline class="cls-2" points="53.24 29.29 53.24 30.29 55.9 30.29 55.9 29.21"/><polyline class="cls-2" points="59.06 29.21 59.06 35.67 62.15 35.67 62.15 29.21"/><line class="cls-2" x1="62.11" y1="42.47" x2="62.11" y2="35.67"/><line class="cls-2" x1="70.64" y1="28.18" x2="64.14" y2="28.18"/><polyline class="cls-2" points="62.11 27.15 62.11 14.44 61.98 14.44"/><line class="cls-2" x1="56.66" y1="27.15" x2="56.66" y2="13.89"/><line class="cls-2" x1="51.21" y1="27.15" x2="51.21" y2="14.44"/><line class="cls-2" x1="45.75" y1="27.15" x2="45.75" y2="13.89"/><line class="cls-2" x1="40.3" y1="27.15" x2="40.3" y2="14.44"/><line class="cls-2" x1="34.84" y1="27.15" x2="34.84" y2="13.89"/><line class="cls-2" x1="29.39" y1="27.15" x2="29.39" y2="14.44"/><line class="cls-2" x1="23.94" y1="27.15" x2="23.94" y2="13.89"/><polyline class="cls-2" points="12.26 27.04 12.26 20.67 15.35 20.67 15.35 27.15"/><polyline class="cls-2" points="18.22 27.15 18.22 26.07 15.35 26.07"/><line class="cls-2" x1="12.3" y1="20.67" x2="12.3" y2="13.89"/><polygon class="cls-2" points="103.01 50.67 106.85 61.22 106.34 61.4 107.83 65.5 108.31 65.32 108.45 65.71 106.78 66.31 107.95 69.51 107.42 69.7 108.97 73.97 104.96 75.43 105.15 75.95 96.78 79 96.28 77.62 92.94 78.84 93.56 80.55 85.46 83.51 84.83 81.79 81.49 83 82.12 84.72 74.01 87.67 73.38 85.95 70.05 87.17 71.45 91 66.91 92.64 66.29 90.96 62.93 92.18 63.56 93.89 57.69 96.03 57.51 95.51 53.27 97.06 51.88 93.23 51.37 93.42 49.92 89.46 52.19 88.64 50.78 84.75 52.75 84.03 49.85 76.07 50.37 75.89 48.61 71.05 52.72 69.56 52.53 69.05 59.78 66.41 59.97 66.92 63.55 65.62 63.36 65.1 69.71 62.79 69.89 63.31 75.47 61.27 75.29 60.76 79.96 59.06 80.14 59.58 85.72 57.54 85.54 57.03 103.01 50.67"/><polyline class="cls-2" points="95.19 67.63 92.8 61.05 90.09 62.03 92.48 68.61"/><polyline class="cls-2" points="95.37 60.85 98.46 69.27 96.37 70.03 96.16 69.46 57.57 83.51 56.86 81.57 95.19 67.63"/><rect class="cls-2" x="95.73" y="26.12" width="3.36" height="7.12"/><polyline class="cls-2" points="96.22 63.15 99.18 62.07 101.4 68.17 98.45 69.24"/><polyline class="cls-2" points="60.85 80.13 58.61 73.98 61.57 72.9 63.81 79.05"/><polyline class="cls-2" points="66.53 78.06 66.16 77.04 63.44 78.03"/><polyline class="cls-2" points="106.34 61.4 106.3 61.28 99.76 63.66"/><polyline class="cls-2" points="52.75 84.03 52.79 84.15 57.22 82.54"/><line class="cls-2" x1="56.43" y1="67.63" x2="58.73" y2="73.94"/><line class="cls-2" x1="67.37" y1="63.64" x2="71.91" y2="76.1"/><line class="cls-2" x1="72.68" y1="62.29" x2="77.03" y2="74.23"/><line class="cls-2" x1="77.62" y1="59.91" x2="82.16" y2="72.37"/><line class="cls-2" x1="82.93" y1="58.56" x2="87.28" y2="70.5"/><polyline class="cls-2" points="87.88 56.18 90.02 62.06 90.09 62.03"/><polyline class="cls-2" points="93.03 61.7 95.87 60.66 94.89 57.95 89.27 60"/><polyline class="cls-2" points="92.8 61.05 92.92 61 92.65 60.25 91.11 60.81 91.38 61.56"/><polyline class="cls-2" points="96.28 77.62 96.37 77.59 93.74 70.35"/><polyline class="cls-2" points="66.29 90.96 66.35 90.94 62.94 81.56"/><polyline class="cls-2" points="81.49 83 81.4 83.04 78.76 75.8"/><g class="cls-7"><rect class="cls-2" x="-234.11" y="-438.09" width="450.14" height="582.54"/></g><g><path class="cls-9" d="M88.85,94.87v3.91h2.46v.5h-3.07v-4.41h.61Z"/><path class="cls-9" d="M95.06,99.28h-3.15v-4.41h3.08v.5h-2.49v1.39h1.98v.5h-1.98v1.52h2.56v.5Z"/><path class="cls-9" d="M97.13,99.28l-1.77-4.41h.62l1.49,3.71h.03l1.45-3.71h.62l-1.78,4.41h-.66Z"/><path class="cls-9" d="M103.22,99.28h-3.15v-4.41h3.08v.5h-2.49v1.39h1.98v.5h-1.98v1.52h2.56v.5Z"/><path class="cls-9" d="M104.52,94.87v3.91h2.46v.5h-3.07v-4.41h.61Z"/><path class="cls-9" d="M109.18,97.25c.15-.51,.6-.9,1.32-.9,.95,0,1.55,.62,1.55,1.49,0,.91-.62,1.53-1.61,1.53-1.18,0-1.79-.85-1.79-2.21s.58-2.37,1.82-2.37c.88,0,1.46,.5,1.54,1.33l-.58,.02c-.08-.52-.37-.87-.97-.87-.9,0-1.28,.82-1.27,1.97Zm1.25,1.63c.65,0,1.04-.41,1.04-1.02s-.39-1.03-1.06-1.03-1.05,.41-1.05,1.03,.41,1.02,1.07,1.02Z"/></g><g class="cls-8"><rect class="cls-4" x="-512.38" y="-651.21" width="678.3" height="877.8"/></g><g><path class="cls-9" d="M8.99,4h.02l.65-2.62h.41l-.81,3.15h-.5l-.66-2.52h-.02l-.67,2.52h-.5l-.81-3.15h.42l.66,2.61h.02l.69-2.61h.41l.7,2.62Z"/><path class="cls-9" d="M12.67,4.53h-2.25V1.38h2.2v.36h-1.78v.99h1.42v.36h-1.42v1.09h1.83v.36Z"/><path class="cls-9" d="M13.31,3.38c.02,.58,.42,.87,.95,.87,.47,0,.77-.2,.77-.55,0-.29-.19-.43-.6-.51l-.62-.12c-.47-.09-.79-.34-.79-.83,0-.55,.44-.93,1.13-.93,.79,0,1.25,.42,1.25,1.13l-.4,.02c-.02-.52-.33-.82-.85-.82-.46,0-.71,.21-.71,.57,0,.31,.21,.41,.57,.48l.57,.11c.58,.11,.87,.36,.87,.87,0,.58-.5,.92-1.18,.92-.78,0-1.34-.42-1.34-1.19l.39-.03Z"/><path class="cls-9" d="M16.7,4.53V1.74h-1.15v-.36h2.74v.36h-1.17v2.79h-.43Z"/><path class="cls-9" d="M20.95,4.53h-1.34V1.38h1.29c.78,0,1.1,.34,1.1,.84,0,.37-.26,.62-.6,.68,.39,.07,.69,.32,.69,.77,0,.55-.4,.87-1.14,.87Zm-.92-1.79h.88c.46,0,.65-.2,.65-.5s-.19-.51-.65-.51h-.88v1.01Zm0,.34v1.1h.91c.47,0,.72-.21,.72-.55s-.25-.55-.72-.55h-.91Z"/><path class="cls-9" d="M22.52,3.33V1.38h.43v1.95c0,.6,.3,.9,.85,.9s.86-.29,.86-.89V1.38h.42v1.95c0,.92-.57,1.27-1.28,1.27s-1.28-.34-1.28-1.27Z"/><path class="cls-9" d="M26.08,1.38v3.15h-.43V1.38h.43Z"/><path class="cls-9" d="M27.12,1.38v2.79h1.76v.36h-2.19V1.38h.43Z"/><path class="cls-9" d="M29.31,1.38h1.14c.99,0,1.62,.59,1.62,1.58s-.63,1.58-1.62,1.58h-1.14V1.38Zm1.12,2.8c.77,0,1.19-.46,1.19-1.22s-.42-1.22-1.19-1.22h-.68v2.44h.68Z"/><path class="cls-9" d="M32.96,1.38v3.15h-.44V1.38h.44Z"/><path class="cls-9" d="M35.75,3.79V1.38h.41v3.15h-.35l-1.83-2.53v2.53h-.41V1.38h.45l1.73,2.41Z"/><path class="cls-9" d="M36.61,2.96c0-.97,.67-1.64,1.54-1.64s1.41,.5,1.46,1.3l-.42,.03c-.04-.58-.41-.96-1.04-.96s-1.1,.49-1.1,1.27,.46,1.27,1.14,1.27c.59,0,.97-.37,1.03-.91h-.96v-.34h1.36v1.56h-.4v-.56c-.14,.4-.58,.62-1.08,.62-.89,0-1.54-.66-1.54-1.64Z"/></g><g><path class="cls-9" d="M81.83,4.53h-2.25V1.38h2.2v.36h-1.78v.99h1.42v.36h-1.42v1.09h1.83v.36Z"/><path class="cls-9" d="M83.84,1.38l1.31,3.15h-.46l-.38-.93h-1.44l-.37,.93h-.42l1.29-3.15h.48Zm-.83,1.88h1.16l-.58-1.4h-.02l-.57,1.4Z"/><path class="cls-9" d="M85.67,3.38c.02,.58,.42,.87,.95,.87,.47,0,.77-.2,.77-.55,0-.29-.19-.43-.6-.51l-.62-.12c-.47-.09-.79-.34-.79-.83,0-.55,.44-.93,1.13-.93,.79,0,1.25,.42,1.25,1.13l-.4,.02c-.02-.52-.33-.82-.85-.82-.46,0-.71,.21-.71,.57,0,.31,.21,.41,.57,.48l.57,.11c.58,.11,.87,.36,.87,.87,0,.58-.5,.92-1.18,.92-.78,0-1.34-.42-1.34-1.19l.39-.03Z"/><path class="cls-9" d="M89.06,4.53V1.74h-1.15v-.36h2.74v.36h-1.17v2.79h-.43Z"/><path class="cls-9" d="M93.31,4.53h-1.34V1.38h1.29c.78,0,1.1,.34,1.1,.84,0,.37-.26,.62-.6,.68,.39,.07,.69,.32,.69,.77,0,.55-.4,.87-1.14,.87Zm-.92-1.79h.88c.46,0,.65-.2,.65-.5s-.2-.51-.65-.51h-.88v1.01Zm0,.34v1.1h.91c.47,0,.72-.21,.72-.55s-.25-.55-.72-.55h-.91Z"/><path class="cls-9" d="M94.88,3.33V1.38h.43v1.95c0,.6,.3,.9,.85,.9s.86-.29,.86-.89V1.38h.43v1.95c0,.92-.57,1.27-1.28,1.27s-1.28-.34-1.28-1.27Z"/><path class="cls-9" d="M98.44,1.38v3.15h-.44V1.38h.44Z"/><path class="cls-9" d="M99.48,1.38v2.79h1.76v.36h-2.19V1.38h.44Z"/><path class="cls-9" d="M101.67,1.38h1.14c.99,0,1.62,.59,1.62,1.58s-.62,1.58-1.62,1.58h-1.14V1.38Zm1.12,2.8c.77,0,1.19-.46,1.19-1.22s-.42-1.22-1.19-1.22h-.68v2.44h.68Z"/><path class="cls-9" d="M105.32,1.38v3.15h-.43V1.38h.43Z"/><path class="cls-9" d="M108.11,3.79V1.38h.41v3.15h-.34l-1.83-2.53v2.53h-.41V1.38h.45l1.73,2.41Z"/><path class="cls-9" d="M108.97,2.96c0-.97,.67-1.64,1.54-1.64s1.41,.5,1.46,1.3l-.42,.03c-.04-.58-.41-.96-1.04-.96s-1.1,.49-1.1,1.27,.46,1.27,1.14,1.27c.59,0,.97-.37,1.03-.91h-.96v-.34h1.36v1.56h-.4v-.56c-.14,.4-.58,.62-1.08,.62-.89,0-1.54-.66-1.54-1.64Z"/></g></g></svg>