<?xml version="1.0" encoding="UTF-8"?><svg id="Layer_1" xmlns="http://www.w3.org/2000/svg" xmlns:xlink="http://www.w3.org/1999/xlink" viewBox="0 0 112.75 102.54"><defs><style>.cls-1{clip-path:url(#clippath-73);}.cls-2{clip-path:url(#clippath-2);}.cls-3{stroke:#ebebec;}.cls-3,.cls-4,.cls-5{stroke-width:.31px;}.cls-3,.cls-4,.cls-5,.cls-6,.cls-7{fill:none;}.cls-3,.cls-4,.cls-5,.cls-7{stroke-linecap:round;stroke-linejoin:round;}.cls-4,.cls-5,.cls-7{stroke:#000;}.cls-8{fill:#f1b784;}.cls-8,.cls-9{fill-rule:evenodd;}.cls-5{stroke-dasharray:0 0 3.94 1.97;}.cls-10{clip-path:url(#clippath);}.cls-11{clip-path:url(#clippath-3);}.cls-12{fill:#333132;}.cls-7{stroke-width:.43px;}</style><clipPath id="clippath"><rect class="cls-6" x="-483.1" y="-648.15" width="612" height="792"/></clipPath><clipPath id="clippath-2"><rect class="cls-6" x="-11.15" y="-10.65" width="140.05" height="113.88"/></clipPath><clipPath id="clippath-3"><rect class="cls-6" x="-11.15" y="-10.65" width="140.05" height="113.88"/></clipPath><clipPath id="clippath-73"><polygon class="cls-6" points="-479.5 -575.85 -479.5 12.15 128.9 12.15 128.9 -466.47 -165.25 -466.47 -165.25 -575.85 -479.5 -575.85"/></clipPath></defs><g class="cls-10"><polygon class="cls-8" points="36.34 33.62 36.28 33.62 29.37 33.62 29.37 30.38 23.85 30.38 23.85 43.09 27.91 43.09 32.34 43.09 36.34 43.09 36.34 33.62"/><polygon class="cls-3" points="36.34 33.62 36.28 33.62 29.37 33.62 29.37 30.38 23.84 30.38 23.84 43.09 27.9 43.09 32.34 43.09 36.34 43.09 36.34 33.62"/><line class="cls-4" x1="32.82" y1="33.62" x2="32.82" y2="30.38"/><polyline class="cls-4" points="36.28 33.62 32.83 30.38 29.37 33.62"/><polyline class="cls-4" points="36.28 30.38 32.83 33.62 29.37 30.38"/><line class="cls-4" x1="90.69" y1="66.49" x2="93.4" y2="65.51"/><polyline class="cls-4" points="91.88 69.78 93.4 65.51 89.49 63.2"/><polyline class="cls-4" points="94.59 68.79 90.69 66.49 92.2 62.22"/><line class="cls-5" x1="97.44" y1="70.59" x2="108.46" y2="75.17"/><line class="cls-5" x1="105.69" y1="67.56" x2="100.37" y2="78.64"/><line class="cls-4" x1="76.63" y1="15.5" x2="72.63" y2="18.88"/><line class="cls-4" x1="76.63" y1="18.88" x2="72.63" y2="15.5"/><line class="cls-4" x1="52.7" y1="43.09" x2="52.7" y2="46.69"/><line class="cls-4" x1="41.79" y1="43.09" x2="41.79" y2="46.69"/><line class="cls-4" x1="13.21" y1="26.35" x2="11.66" y2="26.35"/><line class="cls-4" x1="13.21" y1="23.39" x2="14.75" y2="22.67"/><line class="cls-4" x1="70.85" y1="60.06" x2="72.09" y2="63.46"/><line class="cls-4" x1="81.1" y1="56.33" x2="82.34" y2="59.73"/><line class="cls-4" x1="78.33" y1="34.24" x2="80.46" y2="34.24"/><polyline class="cls-4" points="106.16 62.12 107.65 61.58 109.67 67.14 106.02 68.47"/><line class="cls-4" x1="95.23" y1="45.33" x2="92.56" y2="45.33"/><line class="cls-4" x1="97.76" y1="65.59" x2="96.28" y2="66.13"/><polyline class="cls-4" points="99.19 64.89 97.7 65.43 98.67 68.1 97.2 68.64"/><line class="cls-4" x1="98.62" y1="67.94" x2="100.1" y2="67.4"/><polyline class="cls-4" points="61.03 74.64 59.68 75.13 61.16 79.2 62.65 78.66"/><line class="cls-4" x1="59.57" y1="79.43" x2="61.05" y2="78.89"/><line class="cls-4" x1="60.24" y1="76.67" x2="59.01" y2="77.9"/><polyline class="cls-4" points="98.39 32.64 96.81 32.64 96.81 29.64 95.23 29.64"/><line class="cls-4" x1="98.39" y1="29.97" x2="96.81" y2="29.97"/><line class="cls-4" x1="95.23" y1="32.31" x2="96.81" y2="32.31"/><polyline class="cls-4" points="48.01 72.22 47.39 72.45 46.15 69.05 54.66 65.95 55.9 69.35"/><polyline class="cls-4" points="58.79 68.3 57.55 64.9 61.2 63.57"/><line class="cls-4" x1="62.4" y1="63.14" x2="65.86" y2="61.88"/><rect class="cls-4" x="60.87" y="61.11" width="1.27" height="2.86" transform="translate(-17.68 24.81) rotate(-20)"/><rect class="cls-4" x="65.53" y="59.41" width="1.27" height="2.86" transform="translate(-16.82 26.3) rotate(-20)"/><rect class="cls-4" x="70.65" y="57.55" width="1.27" height="2.86" transform="translate(-15.87 27.94) rotate(-20)"/><rect class="cls-4" x="75.78" y="55.68" width="1.27" height="2.86" transform="translate(-14.93 29.58) rotate(-20)"/><rect class="cls-4" x="80.9" y="53.81" width="1.27" height="2.86" transform="translate(-13.98 31.22) rotate(-20)"/><line class="cls-4" x1="67.06" y1="61.44" x2="70.99" y2="60.01"/><line class="cls-4" x1="72.19" y1="59.58" x2="76.11" y2="58.15"/><line class="cls-4" x1="77.31" y1="57.71" x2="81.24" y2="56.28"/><polyline class="cls-4" points="82.44 55.85 84.12 55.23 85.37 58.63"/><line class="cls-4" x1="75.98" y1="58.2" x2="77.21" y2="61.59"/><line class="cls-4" x1="65.73" y1="61.93" x2="66.96" y2="65.32"/><rect class="cls-4" x="74.28" y="45.45" width="2.75" height="1.27"/><rect class="cls-4" x="74.28" y="43.94" width="2.75" height="1.27"/><line class="cls-4" x1="77.04" y1="45.22" x2="77.04" y2="45.45"/><line class="cls-4" x1="78.07" y1="45.33" x2="77.04" y2="45.33"/><polyline class="cls-4" points="76.31 46.72 76.31 51.64 79.91 51.64 79.91 51.1"/><rect class="cls-4" x="74.28" y="38.27" width="2.75" height="1.27"/><rect class="cls-4" x="74.28" y="32.82" width="2.75" height="1.27"/><line class="cls-4" x1="76.31" y1="22.8" x2="76.31" y2="32.82"/><line class="cls-4" x1="76.31" y1="34.09" x2="76.31" y2="38.27"/><line class="cls-4" x1="76.31" y1="39.55" x2="76.31" y2="43.94"/><line class="cls-4" x1="79.91" y1="39.69" x2="76.31" y2="39.68"/><line class="cls-4" x1="80.46" y1="34.24" x2="76.31" y2="34.24"/><line class="cls-4" x1="79.91" y1="28.79" x2="76.31" y2="28.79"/><line class="cls-4" x1="110.74" y1="22.96" x2="110.74" y2="45.03"/><line class="cls-4" x1="108.49" y1="39.69" x2="110.74" y2="39.69"/><line class="cls-4" x1="108.49" y1="34.37" x2="110.74" y2="34.37"/><polyline class="cls-4" points="110.74 45.64 110.74 50.84 108.49 50.84"/><rect class="cls-4" x="64.76" y="46.15" width="1.27" height="2.85"/><rect class="cls-4" x="52.84" y="46.15" width="1.27" height="2.85"/><rect class="cls-4" x="47.39" y="46.15" width="1.27" height="2.85"/><rect class="cls-4" x="42.12" y="46.15" width="1.27" height="2.85"/><rect class="cls-4" x="36.52" y="46.15" width="1.27" height="2.85"/><rect class="cls-4" x="29.12" y="46.15" width="1.27" height="2.85"/><rect class="cls-4" x="22.43" y="46.15" width="1.27" height="2.85"/><polyline class="cls-4" points="70.04 43.09 70.58 43.09 70.58 46.69 66.04 46.69"/><line class="cls-4" x1="64.76" y1="46.69" x2="60.36" y2="46.69"/><line class="cls-4" x1="58.54" y1="46.69" x2="54.12" y2="46.69"/><line class="cls-4" x1="52.84" y1="46.69" x2="48.67" y2="46.69"/><line class="cls-4" x1="47.39" y1="46.69" x2="43.39" y2="46.69"/><line class="cls-4" x1="42.12" y1="46.69" x2="37.79" y2="46.69"/><line class="cls-4" x1="36.52" y1="46.69" x2="30.39" y2="46.69"/><line class="cls-4" x1="29.12" y1="46.69" x2="23.7" y2="46.69"/><polyline class="cls-4" points="22.43 46.69 20.29 46.69 17.88 45.23 17.88 43.09 18.26 43.09"/><line class="cls-4" x1="47.24" y1="43.09" x2="47.24" y2="46.69"/><line class="cls-4" x1="36.34" y1="43.09" x2="36.34" y2="46.69"/><line class="cls-4" x1="23.84" y1="43.09" x2="23.84" y2="46.69"/><line class="cls-4" x1="60.36" y1="43.09" x2="60.36" y2="46.69"/><line class="cls-4" x1="58.54" y1="43.09" x2="58.54" y2="46.69"/><polyline class="cls-4" points="3.17 15.61 2.41 15.61 2.41 12.71 11.47 12.71 11.47 15.61"/><polyline class="cls-4" points="28.24 15.61 28.24 12.71 18.71 12.71 18.71 13.76 14.91 13.76 14.91 15.61"/><line class="cls-4" x1="23.34" y1="15.61" x2="23.34" y2="12.71"/><line class="cls-4" x1="13.21" y1="24.85" x2="11.66" y2="24.85"/><line class="cls-4" x1="13.21" y1="17.22" x2="11.66" y2="17.22"/><line class="cls-4" x1="13.21" y1="19.33" x2="14.75" y2="19.33"/><line class="cls-4" x1="13.21" y1="20.33" x2="14.75" y2="20.33"/><line class="cls-4" x1="13.21" y1="22.36" x2="14.75" y2="22.36"/><line class="cls-4" x1="60.01" y1="36.24" x2="61.55" y2="35.52"/><line class="cls-4" x1="60.01" y1="37.22" x2="61.55" y2="37.22"/><polyline class="cls-4" points="66.31 93.81 66.46 94.22 63.09 95.43 62.96 95.06"/><polyline class="cls-4" points="52.67 98.22 53.72 101.11 57.99 99.56 57.79 99.01 61.71 97.6 61.04 95.76"/><polyline class="cls-4" points="70.85 92.17 73.82 89.83 81.87 86.87 81.63 86.18 84.96 84.96 84.86 84.67"/><polyline class="cls-4" points="96.23 80.15 96.46 80.78 93.03 82.04 92.92 81.74"/><line class="cls-4" x1="73.78" y1="89.86" x2="73.41" y2="88.84"/><polygon class="cls-4" points="2.26 21.2 2.26 20.74 3.17 20.74 3.17 15.61 7.67 15.61 15.26 15.61 19.07 15.61 25.79 15.61 31.73 15.61 35.88 15.61 35.88 11.38 38.43 11.38 38.43 12.1 69.59 12.1 69.59 15.5 70.31 15.5 70.31 22.52 70.04 22.52 70.04 32.59 70.04 37.95 70.04 43.09 65.53 43.09 57.63 43.09 49.74 43.09 44.79 43.09 38.85 43.09 32.34 43.09 27.9 43.09 21.36 43.09 18.26 43.09 18.26 41.02 14.77 41.02 10.09 41.02 10.09 38.05 9.55 38.05 9.55 36.42 6.43 36.42 6.43 31.91 3.17 31.91 3.17 21.2 2.26 21.2"/><polyline class="cls-4" points="36.19 15.61 36.19 28.32 63.54 28.32 63.54 30.38 9.67 30.38 9.67 28.32 28.79 28.32 28.79 15.61"/><line class="cls-4" x1="9.67" y1="29.35" x2="3.17" y2="29.35"/><line class="cls-4" x1="14.64" y1="30.38" x2="14.64" y2="41.02"/><line class="cls-4" x1="23.84" y1="30.38" x2="23.84" y2="43.09"/><polyline class="cls-4" points="29.37 30.38 29.37 33.62 36.28 33.62 36.28 30.38"/><polyline class="cls-4" points="36.34 43.09 36.34 33.62 36.28 33.62"/><line class="cls-4" x1="41.79" y1="43.09" x2="41.79" y2="30.38"/><line class="cls-4" x1="47.24" y1="43.09" x2="47.24" y2="30.38"/><line class="cls-4" x1="52.7" y1="43.09" x2="52.7" y2="31.46"/><polyline class="cls-4" points="52.65 30.46 52.65 31.46 55.3 31.46 55.3 30.38"/><line class="cls-4" x1="58.46" y1="30.38" x2="58.46" y2="43.09"/><line class="cls-4" x1="61.55" y1="43.09" x2="61.55" y2="30.38"/><line class="cls-4" x1="70.04" y1="29.35" x2="63.54" y2="29.35"/><line class="cls-4" x1="23.34" y1="28.32" x2="23.34" y2="15.61"/><line class="cls-4" x1="11.66" y1="28.32" x2="11.66" y2="15.61"/><line class="cls-4" x1="14.75" y1="15.61" x2="14.75" y2="28.32"/><polyline class="cls-4" points="17.62 28.32 17.62 27.24 14.75 27.24"/><polyline class="cls-4" points="14.75 26.69 13.21 26.69 13.21 22.03"/><polygon class="cls-4" points="86.89 58.07 86.89 51.1 79.91 51.1 79.91 48.4 80.46 48.4 80.46 45.64 78.07 45.64 78.07 45.03 80.46 45.03 80.46 42.26 79.91 42.26 79.91 37.21 80.46 37.21 80.46 31.27 79.91 31.27 79.91 25.93 80.46 25.93 80.46 23.09 79.91 23.09 79.91 22.8 73.77 22.8 73.77 18.88 72.63 18.88 72.63 15.5 73.82 15.5 73.82 12.1 88.46 12.1 88.46 11.38 91.02 11.38 91.02 12.1 97.38 12.1 97.38 11.38 99.94 11.38 99.94 12.1 109.82 12.1 109.82 20.41 111.07 20.41 111.07 22.96 108.49 22.96 108.49 26.77 107.94 26.77 107.94 30.36 108.49 30.36 108.49 34.37 107.94 34.37 107.94 37.21 108.49 37.21 108.49 42.26 107.94 42.26 107.94 45.03 110.74 45.03 110.74 45.64 107.94 45.64 107.94 48.4 108.49 48.4 108.49 51.1 102.43 51.1 102.43 51.9 102.44 51.91 106.25 62.36 105.7 62.56 107.2 66.68 107.72 66.49 107.86 66.87 105.72 67.65 108.46 75.17 104.38 76.66 104.55 77.12 96.18 80.17 95.68 78.79 92.34 80 92.97 81.72 84.86 84.67 84.23 82.95 80.89 84.17 81.52 85.89 73.41 88.84 72.79 87.12 69.45 88.34 70.85 92.17 66.31 93.81 65.7 92.13 62.34 93.35 62.96 95.06 57.1 97.19 56.91 96.68 52.67 98.22 51.28 94.4 50.77 94.59 49.33 90.63 51.59 89.8 50.18 85.92 52.15 85.2 49.25 77.24 49.77 77.06 48.01 72.22 52.12 70.73 59.37 68.09 62.95 66.78 69.29 64.47 74.88 62.44 79.55 60.74 86.89 58.07"/><polyline class="cls-4" points="94.59 68.79 92.2 62.22 89.49 63.2 91.88 69.78"/><polyline class="cls-4" points="89.88 63.06 89.88 61.96 91.8 61.96 91.93 62.31"/><polyline class="cls-4" points="92.2 62.22 92.15 62.07 93.17 61.7 93.17 52.99 89.01 52.99 89.01 53.59 86.89 53.59"/><polyline class="cls-4" points="93.17 58.92 92.02 58.92 92.02 61.96 91.8 61.96"/><polyline class="cls-4" points="93.17 22.91 92.09 22.91 92.09 25.65 93.17 25.65"/><polyline class="cls-4" points="95.23 27.8 98.39 27.8 98.39 34.25 95.23 34.25"/><polyline class="cls-4" points="95.62 64.32 98.58 63.24 100.81 69.34 97.85 70.41"/><line class="cls-4" x1="58.87" y1="68.27" x2="63.21" y2="80.22"/><polyline class="cls-4" points="65.93 79.23 65.56 78.21 62.84 79.2"/><line class="cls-4" x1="95.23" y1="22.96" x2="108.49" y2="22.96"/><polyline class="cls-4" points="107.94 34.37 107.94 34.24 98.39 34.24"/><line class="cls-4" x1="108.49" y1="39.69" x2="95.23" y2="39.69"/><line class="cls-4" x1="95.23" y1="45.33" x2="110.74" y2="45.33"/><line class="cls-4" x1="78.07" y1="45.33" x2="92.56" y2="45.33"/><polyline class="cls-4" points="95.23 58.65 100.94 58.65 104.43 57.38"/><polyline class="cls-4" points="105.72 67.65 105.69 67.56 100.8 69.33"/><line class="cls-4" x1="100.37" y1="78.64" x2="97.44" y2="70.59"/><polyline class="cls-4" points="84.23 82.95 84.33 82.92 81.69 75.68"/><polyline class="cls-4" points="62.34 93.35 62.22 93.4 58.8 84.01"/><polyline class="cls-4" points="52.15 85.2 52.2 85.32 56.62 83.71"/><line class="cls-4" x1="55.9" y1="69.35" x2="60.25" y2="81.29"/><line class="cls-4" x1="66.96" y1="65.32" x2="71.31" y2="77.27"/><line class="cls-4" x1="72.09" y1="63.46" x2="76.43" y2="75.4"/><line class="cls-4" x1="77.21" y1="61.59" x2="81.56" y2="73.54"/><line class="cls-4" x1="82.34" y1="59.73" x2="86.68" y2="71.67"/><polyline class="cls-4" points="86.89 57.49 87.02 57.49 87.02 58.4 89.93 58.4 89.93 61.96"/><line class="cls-4" x1="79.91" y1="39.69" x2="93.17" y2="39.69"/><line class="cls-4" x1="80.46" y1="34.24" x2="93.17" y2="34.24"/><line class="cls-4" x1="79.91" y1="28.79" x2="93.17" y2="28.79"/><polyline class="cls-4" points="80.46 23.09 80.46 22.96 92.09 22.96"/><polyline class="cls-4" points="57.6 74.02 59.07 73.48 57.37 68.81"/><polyline class="cls-4" points="94.59 68.79 56.27 82.74 56.97 84.68 95.36 70.71 95.57 71.28 97.86 70.44 95.23 63.26 95.23 22.91 93.17 22.91 93.17 42.51 92.56 42.86 92.56 47.8 92.92 48 93.17 48.15 93.17 50.97 86.89 50.97 86.89 51.1"/><polyline class="cls-4" points="73.82 15.5 76.63 15.5 76.63 18.88 73.77 18.88"/><polyline class="cls-4" points="11.66 20.59 13.21 20.59 13.21 15.61"/><polyline class="cls-4" points="60.01 39.87 60.01 32.26 61.55 32.26"/><polyline class="cls-4" points="96.99 22.96 96.99 21.02 90.66 21.02 90.66 22.96"/><polyline class="cls-4" points="72.79 87.12 72.88 87.09 70.25 79.85"/><g class="cls-2"><polygon class="cls-3" points="-105.78 58 -105.78 127.27 -103.73 127.27 -103.73 143.03 -86.86 143.03 -86.86 143.98 -86.23 143.98 -86.23 143.03 -52.82 143.03 -52.82 169.83 -53.77 169.83 -53.77 155.96 -52.82 155.96 -52.82 154.69 -54.08 154.69 -54.08 171.09 -52.82 171.09 -52.82 218.21 -37.06 218.21 -37.06 220.34 -12.63 220.34 -12.63 221.44 -34.07 221.44 -34.07 218.21 -10.43 218.21 -10.43 213.96 -25.24 213.96 -25.24 176.13 -10.43 176.13 -10.43 174 .29 174 .29 174.4 11.01 174.4 11.01 176.13 31.5 176.13 31.5 213.96 11.01 213.96 11.01 215.69 .29 215.69 .29 216.48 11.01 216.48 11.01 218.21 40.33 218.21 40.33 242.37 -12.63 242.37 -12.63 290.28 40.33 290.28 40.33 314.44 -34.07 314.44 -34.07 241.78 -37.06 241.78 -37.06 314.44 -78.91 314.44 -78.91 315.18 -124.3 315.18 -124.3 314.44 -134.78 314.44 -134.78 259.19 -137.78 259.19 -137.78 314.44 -213.43 314.44 -213.43 299.62 -160.47 299.62 -160.47 251.71 -213.43 251.71 -213.43 235.63 -212.17 235.63 -212.17 234.53 -185.06 234.53 -185.06 233.42 -212.17 233.42 -212.17 232.63 -213.43 232.63 -213.43 226.49 -156.69 226.49 -156.69 232.63 -157.95 232.63 -157.95 234.53 -185.06 234.53 -185.06 235.63 -137.78 235.63 -137.78 238.86 -159.21 238.86 -159.21 237.76 -134.78 237.76 -134.78 232.63 -137.94 232.63 -137.94 232.16 -133.1 223.78 -133.51 223.54 -137.94 231.22 -137.94 213.75 -133.51 221.42 -133.1 221.19 -137.94 212.8 -137.94 211.86 -133.1 203.48 -133.51 203.24 -137.94 210.91 -137.94 193.45 -133.51 201.12 -133.1 200.88 -137.94 192.5 -137.94 192.03 -153.7 192.03 -153.7 190.08 -165.83 190.08 -165.83 187.79 -167.33 187.79 -167.33 166.36 -165.83 166.36 -165.83 164.23 -162.6 164.23 -153.32 169.59 -152.77 168.63 -162.05 163.27 -162.6 164.23 -162.6 161.24 -165.83 161.24 -165.83 138.54 -139.04 138.54 -139.04 161.24 -141.17 161.24 -141.17 164.23 -141.72 163.27 -151 168.63 -150.45 169.59 -141.17 164.23 -134.78 164.23 -134.78 135.54 -145.49 135.54 -145.49 133.42 -169.92 133.42 -169.92 132.31 -148.48 132.31 -148.48 135.54 -213.43 135.54 -213.43 67.93 -167.87 67.93 -167.87 87.95 -148.48 87.95 -148.48 111.98 -145.49 111.98 -145.49 83.69 -139.38 73.11 -140.34 72.56 -146.44 83.14 -145.49 83.69 -148.48 83.69 -148.48 84.95 -154.79 84.95 -154.79 58 -148.48 58 -148.48 59.26 -145.49 59.26 -139.38 69.84 -140.34 70.39 -146.44 59.81 -145.49 59.26 -145.49 58 -109.01 58 -109.01 80.69 -107.91 80.69 -107.91 58 -105.78 58"/><polygon class="cls-4" points="-99.48 53.43 -99.48 120.96 -30.76 120.96 26.14 120.96 26.14 127.11 46.63 127.11 46.63 178.17 46.63 220.26 46.63 320.19 22.91 320.19 22.91 314.44 40.32 314.44 40.32 218.21 11.01 218.21 11.01 216.79 32.76 216.79 32.76 215.38 11.01 215.38 11.01 213.96 40.32 213.96 40.32 176.13 11.01 176.13 11.01 174.71 32.76 174.71 32.76 173.29 11.01 173.29 11.01 171.87 40.32 171.87 40.32 133.42 19.83 133.42 19.83 127.27 -34.07 127.27 -34.07 171.87 -10.43 171.87 -10.43 176.13 -34.07 176.13 -34.07 213.96 -10.43 213.96 -10.43 218.21 -34.07 218.21 -34.07 220.34 -37.06 220.34 -37.06 127.27 -105.78 127.27 -105.78 58 -107.91 58 -107.91 53.43 -99.48 53.43"/></g><g class="cls-11"><rect class="cls-4" x="-311.51" y="-50.79" width="450.14" height="582.54"/><polygon class="cls-9" points="-99.48 53.43 -99.48 120.96 -30.76 120.96 26.14 120.96 26.14 127.11 46.63 127.11 46.63 178.17 46.63 220.26 46.63 320.19 22.91 320.19 22.91 314.44 40.33 314.44 40.33 218.21 11.01 218.21 11.01 216.79 32.76 216.79 32.76 215.38 11.01 215.38 11.01 213.96 40.33 213.96 40.33 176.13 11.01 176.13 11.01 174.71 32.76 174.71 32.76 173.29 11.01 173.29 11.01 171.87 40.33 171.87 40.33 133.42 19.84 133.42 19.84 127.27 -34.07 127.27 -34.07 171.87 -10.43 171.87 -10.43 176.13 -34.07 176.13 -34.07 213.96 -10.43 213.96 -10.43 218.21 -34.07 218.21 -34.07 220.34 -37.06 220.34 -37.06 127.27 -105.78 127.27 -105.78 58 -107.91 58 -107.91 53.43 -99.48 53.43"/></g><g><path class="cls-12" d="M89.32,95.14v3.91h2.46v.5h-3.07v-4.41h.61Z"/><path class="cls-12" d="M95.53,99.55h-3.15v-4.41h3.08v.5h-2.49v1.39h1.98v.5h-1.98v1.52h2.56v.5Z"/><path class="cls-12" d="M97.6,99.55l-1.77-4.41h.62l1.49,3.71h.03l1.45-3.71h.62l-1.78,4.41h-.66Z"/><path class="cls-12" d="M103.69,99.55h-3.15v-4.41h3.08v.5h-2.49v1.39h1.98v.5h-1.98v1.52h2.56v.5Z"/><path class="cls-12" d="M104.99,95.14v3.91h2.46v.5h-3.07v-4.41h.61Z"/><path class="cls-12" d="M108.95,95.79c.62,0,.88-.21,1.04-.67h.4v4.44h-.61v-3.38h-.83v-.39Z"/></g><g class="cls-1"><rect class="cls-7" x="-482.89" y="-693.24" width="616.64" height="798"/></g><g><path class="cls-12" d="M7.65,4.27h.02l.65-2.62h.41l-.81,3.15h-.5l-.66-2.52h-.02l-.67,2.52h-.5l-.81-3.15h.42l.66,2.61h.02l.69-2.61h.41l.7,2.62Z"/><path class="cls-12" d="M11.33,4.8h-2.25V1.65h2.2v.36h-1.78v.99h1.42v.36h-1.42v1.09h1.83v.36Z"/><path class="cls-12" d="M11.97,3.65c.02,.58,.42,.87,.95,.87,.47,0,.77-.2,.77-.55,0-.29-.19-.43-.6-.51l-.62-.12c-.47-.09-.79-.34-.79-.83,0-.55,.44-.93,1.13-.93,.79,0,1.25,.42,1.25,1.13l-.4,.02c-.02-.52-.33-.82-.85-.82-.46,0-.71,.21-.71,.57,0,.31,.21,.41,.57,.48l.57,.11c.58,.11,.87,.36,.87,.87,0,.58-.5,.92-1.18,.92-.78,0-1.34-.42-1.34-1.19l.39-.03Z"/><path class="cls-12" d="M15.36,4.8V2.01h-1.15v-.36h2.74v.36h-1.17v2.79h-.43Z"/><path class="cls-12" d="M19.61,4.8h-1.34V1.65h1.29c.78,0,1.1,.34,1.1,.84,0,.37-.26,.62-.6,.68,.39,.07,.69,.32,.69,.77,0,.55-.4,.87-1.14,.87Zm-.92-1.79h.88c.46,0,.65-.2,.65-.5s-.19-.51-.65-.51h-.88v1.01Zm0,.34v1.1h.91c.47,0,.72-.21,.72-.55s-.25-.55-.72-.55h-.91Z"/><path class="cls-12" d="M21.18,3.59V1.65h.43v1.95c0,.6,.3,.9,.85,.9s.86-.29,.86-.89V1.65h.42v1.95c0,.92-.57,1.27-1.28,1.27s-1.28-.34-1.28-1.27Z"/><path class="cls-12" d="M24.74,1.65v3.15h-.43V1.65h.43Z"/><path class="cls-12" d="M25.78,1.65v2.79h1.76v.36h-2.19V1.65h.43Z"/><path class="cls-12" d="M27.97,1.65h1.14c.99,0,1.62,.59,1.62,1.58s-.63,1.58-1.62,1.58h-1.14V1.65Zm1.12,2.8c.77,0,1.19-.46,1.19-1.22s-.42-1.22-1.19-1.22h-.68v2.44h.68Z"/><path class="cls-12" d="M31.62,1.65v3.15h-.44V1.65h.44Z"/><path class="cls-12" d="M34.4,4.06V1.65h.41v3.15h-.35l-1.83-2.53v2.53h-.41V1.65h.45l1.73,2.41Z"/><path class="cls-12" d="M35.27,3.22c0-.97,.67-1.64,1.54-1.64s1.41,.5,1.46,1.3l-.42,.03c-.04-.58-.41-.96-1.04-.96s-1.1,.49-1.1,1.27,.46,1.27,1.14,1.27c.59,0,.97-.37,1.03-.91h-.96v-.34h1.36v1.56h-.4v-.56c-.14,.4-.58,.62-1.08,.62-.89,0-1.54-.66-1.54-1.64Z"/></g><g><path class="cls-12" d="M80.49,4.8h-2.25V1.65h2.2v.36h-1.78v.99h1.42v.36h-1.42v1.09h1.83v.36Z"/><path class="cls-12" d="M82.5,1.65l1.31,3.15h-.46l-.38-.93h-1.44l-.37,.93h-.42l1.29-3.15h.48Zm-.83,1.88h1.16l-.58-1.4h-.02l-.57,1.4Z"/><path class="cls-12" d="M84.33,3.65c.02,.58,.42,.87,.95,.87,.47,0,.77-.2,.77-.55,0-.29-.19-.43-.6-.51l-.62-.12c-.47-.09-.79-.34-.79-.83,0-.55,.44-.93,1.13-.93,.79,0,1.25,.42,1.25,1.13l-.4,.02c-.02-.52-.33-.82-.85-.82-.46,0-.71,.21-.71,.57,0,.31,.21,.41,.57,.48l.57,.11c.58,.11,.87,.36,.87,.87,0,.58-.5,.92-1.18,.92-.78,0-1.34-.42-1.34-1.19l.39-.03Z"/><path class="cls-12" d="M87.72,4.8V2.01h-1.15v-.36h2.74v.36h-1.17v2.79h-.43Z"/><path class="cls-12" d="M91.97,4.8h-1.34V1.65h1.29c.78,0,1.1,.34,1.1,.84,0,.37-.26,.62-.6,.68,.39,.07,.69,.32,.69,.77,0,.55-.4,.87-1.14,.87Zm-.92-1.79h.88c.46,0,.65-.2,.65-.5s-.2-.51-.65-.51h-.88v1.01Zm0,.34v1.1h.91c.47,0,.72-.21,.72-.55s-.25-.55-.72-.55h-.91Z"/><path class="cls-12" d="M93.54,3.59V1.65h.43v1.95c0,.6,.3,.9,.85,.9s.86-.29,.86-.89V1.65h.43v1.95c0,.92-.57,1.27-1.28,1.27s-1.28-.34-1.28-1.27Z"/><path class="cls-12" d="M97.1,1.65v3.15h-.44V1.65h.44Z"/><path class="cls-12" d="M98.14,1.65v2.79h1.76v.36h-2.19V1.65h.44Z"/><path class="cls-12" d="M100.33,1.65h1.14c.99,0,1.62,.59,1.62,1.58s-.62,1.58-1.62,1.58h-1.14V1.65Zm1.12,2.8c.77,0,1.19-.46,1.19-1.22s-.42-1.22-1.19-1.22h-.68v2.44h.68Z"/><path class="cls-12" d="M103.98,1.65v3.15h-.43V1.65h.43Z"/><path class="cls-12" d="M106.76,4.06V1.65h.41v3.15h-.34l-1.83-2.53v2.53h-.41V1.65h.45l1.73,2.41Z"/><path class="cls-12" d="M107.63,3.22c0-.97,.67-1.64,1.54-1.64s1.41,.5,1.46,1.3l-.42,.03c-.04-.58-.41-.96-1.04-.96s-1.1,.49-1.1,1.27,.46,1.27,1.14,1.27c.59,0,.97-.37,1.03-.91h-.96v-.34h1.36v1.56h-.4v-.56c-.14,.4-.58,.62-1.08,.62-.89,0-1.54-.66-1.54-1.64Z"/></g></g></svg>