<?xml version="1.0" encoding="UTF-8"?><svg id="Layer_1" xmlns="http://www.w3.org/2000/svg" xmlns:xlink="http://www.w3.org/1999/xlink" viewBox="0 0 117.97 102.7"><defs><style>.cls-1{stroke:#ebebec;}.cls-1,.cls-2,.cls-3{stroke-width:.31px;}.cls-1,.cls-2,.cls-3,.cls-4,.cls-5{fill:none;}.cls-1,.cls-2,.cls-3,.cls-5{stroke-linecap:round;stroke-linejoin:round;}.cls-2,.cls-3,.cls-5{stroke:#000;}.cls-6{fill:#f1b784;fill-rule:evenodd;}.cls-3{stroke-dasharray:0 0 3.94 1.97;}.cls-7{clip-path:url(#clippath);}.cls-8{clip-path:url(#clippath-3);}.cls-9{clip-path:url(#clippath-5);}.cls-10{fill:#333132;}.cls-5{stroke-width:.47px;}</style><clipPath id="clippath"><rect class="cls-4" x="-348.75" y="-648.4" width="612" height="792"/></clipPath><clipPath id="clippath-3"><rect class="cls-4" x="-348.75" y="-541.6" width="612" height="525.36"/></clipPath><clipPath id="clippath-5"><rect class="cls-4" x="-4.75" y="-.96" width="268" height="112.8"/></clipPath></defs><g class="cls-7"><g><path class="cls-10" d="M94.68,94.89v3.91h2.46v.5h-3.07v-4.41h.61Z"/><path class="cls-10" d="M100.88,99.3h-3.15v-4.41h3.08v.5h-2.49v1.39h1.98v.5h-1.98v1.52h2.56v.5Z"/><path class="cls-10" d="M102.96,99.3l-1.77-4.41h.62l1.49,3.71h.03l1.45-3.71h.62l-1.78,4.41h-.66Z"/><path class="cls-10" d="M109.05,99.3h-3.15v-4.41h3.08v.5h-2.49v1.39h1.98v.5h-1.98v1.52h2.56v.5Z"/><path class="cls-10" d="M110.35,94.89v3.91h2.46v.5h-3.07v-4.41h.61Z"/><path class="cls-10" d="M114.31,95.53c.62,0,.88-.21,1.04-.67h.4v4.44h-.61v-3.38h-.83v-.39Z"/></g><g class="cls-8"><rect class="cls-5" x="-381.43" y="-646.97" width="678.3" height="877.8"/></g><polygon class="cls-6" points="107.89 45.67 110.69 45.67 110.69 45.37 95.18 45.37 95.18 58.69 100.89 58.69 104.38 57.41 102.39 51.95 102.38 51.94 102.38 51.13 108.44 51.13 108.44 48.44 107.89 48.44 107.89 45.67"/><polygon class="cls-1" points="107.89 45.67 110.69 45.67 110.69 45.37 95.18 45.37 95.18 58.69 100.89 58.69 104.38 57.41 102.4 51.95 102.39 51.94 102.39 51.13 108.44 51.13 108.44 48.44 107.89 48.44 107.89 45.67"/><line class="cls-2" x1="32.78" y1="33.65" x2="32.78" y2="30.42"/><polyline class="cls-2" points="36.24 33.65 32.78 30.42 29.32 33.65"/><polyline class="cls-2" points="36.24 30.42 32.78 33.65 29.32 30.42"/><line class="cls-2" x1="90.64" y1="66.53" x2="93.35" y2="65.54"/><polyline class="cls-2" points="91.84 69.82 93.35 65.54 89.44 63.24"/><polyline class="cls-2" points="94.54 68.83 90.64 66.53 92.15 62.25"/><line class="cls-3" x1="97.39" y1="70.63" x2="108.41" y2="75.21"/><line class="cls-3" x1="105.64" y1="67.59" x2="100.33" y2="78.68"/><line class="cls-2" x1="76.58" y1="15.54" x2="72.58" y2="18.92"/><line class="cls-2" x1="76.58" y1="18.92" x2="72.58" y2="15.54"/><line class="cls-2" x1="52.65" y1="43.13" x2="52.65" y2="46.72"/><line class="cls-2" x1="41.74" y1="43.13" x2="41.74" y2="46.72"/><line class="cls-2" x1="13.16" y1="26.38" x2="11.61" y2="26.38"/><line class="cls-2" x1="13.16" y1="23.42" x2="14.7" y2="22.7"/><line class="cls-2" x1="70.8" y1="60.1" x2="72.04" y2="63.49"/><line class="cls-2" x1="81.05" y1="56.37" x2="82.29" y2="59.76"/><line class="cls-2" x1="78.28" y1="34.28" x2="80.41" y2="34.28"/><polyline class="cls-2" points="106.11 62.16 107.6 61.62 109.62 67.18 105.97 68.51"/><line class="cls-2" x1="95.18" y1="45.37" x2="92.51" y2="45.37"/><line class="cls-2" x1="97.72" y1="65.63" x2="96.24" y2="66.17"/><polyline class="cls-2" points="99.14 64.93 97.66 65.47 98.63 68.13 97.15 68.67"/><line class="cls-2" x1="98.57" y1="67.97" x2="100.05" y2="67.43"/><polyline class="cls-2" points="60.98 74.67 59.63 75.16 61.12 79.24 62.6 78.7"/><line class="cls-2" x1="59.52" y1="79.46" x2="61" y2="78.92"/><line class="cls-2" x1="60.2" y1="76.71" x2="58.96" y2="77.94"/><polyline class="cls-2" points="98.34 32.67 96.76 32.67 96.76 29.67 95.18 29.67"/><line class="cls-2" x1="98.34" y1="30.01" x2="96.76" y2="30.01"/><line class="cls-2" x1="95.18" y1="32.34" x2="96.76" y2="32.34"/><polyline class="cls-2" points="47.96 72.26 47.34 72.49 46.1 69.09 54.61 65.99 55.85 69.39"/><polyline class="cls-2" points="58.74 68.34 57.5 64.94 61.16 63.61"/><line class="cls-2" x1="62.35" y1="63.17" x2="65.82" y2="61.91"/><rect class="cls-2" x="60.82" y="61.14" width="1.27" height="2.86" transform="translate(-17.7 24.8) rotate(-20)"/><rect class="cls-2" x="65.48" y="59.45" width="1.27" height="2.86" transform="translate(-16.84 26.29) rotate(-20)"/><rect class="cls-2" x="70.61" y="57.58" width="1.27" height="2.86" transform="translate(-15.89 27.93) rotate(-20)"/><rect class="cls-2" x="75.73" y="55.72" width="1.27" height="2.86" transform="translate(-14.94 29.57) rotate(-20)"/><rect class="cls-2" x="80.85" y="53.85" width="1.27" height="2.86" transform="translate(-13.99 31.21) rotate(-20)"/><line class="cls-2" x1="67.01" y1="61.48" x2="70.94" y2="60.05"/><line class="cls-2" x1="72.14" y1="59.61" x2="76.07" y2="58.18"/><line class="cls-2" x1="77.26" y1="57.75" x2="81.19" y2="56.32"/><polyline class="cls-2" points="82.39 55.88 84.08 55.27 85.32 58.66"/><line class="cls-2" x1="75.93" y1="58.23" x2="77.16" y2="61.63"/><line class="cls-2" x1="65.68" y1="61.96" x2="66.91" y2="65.36"/><rect class="cls-2" x="74.24" y="45.48" width="2.75" height="1.27"/><rect class="cls-2" x="74.24" y="43.98" width="2.75" height="1.27"/><line class="cls-2" x1="76.99" y1="45.25" x2="76.99" y2="45.48"/><line class="cls-2" x1="78.02" y1="45.37" x2="76.99" y2="45.37"/><polyline class="cls-2" points="76.27 46.76 76.27 51.67 79.86 51.67 79.86 51.13"/><rect class="cls-2" x="74.24" y="38.31" width="2.75" height="1.27"/><rect class="cls-2" x="74.24" y="32.86" width="2.75" height="1.27"/><line class="cls-2" x1="76.27" y1="22.84" x2="76.27" y2="32.85"/><line class="cls-2" x1="76.27" y1="34.13" x2="76.27" y2="38.31"/><line class="cls-2" x1="76.27" y1="39.58" x2="76.27" y2="43.98"/><line class="cls-2" x1="79.86" y1="39.73" x2="76.27" y2="39.72"/><line class="cls-2" x1="80.41" y1="34.28" x2="76.27" y2="34.28"/><line class="cls-2" x1="79.86" y1="28.82" x2="76.27" y2="28.82"/><line class="cls-2" x1="110.69" y1="23" x2="110.69" y2="45.06"/><line class="cls-2" x1="108.44" y1="39.73" x2="110.69" y2="39.73"/><line class="cls-2" x1="108.44" y1="34.4" x2="110.69" y2="34.4"/><polyline class="cls-2" points="110.69 45.67 110.69 50.88 108.44 50.88"/><rect class="cls-2" x="64.71" y="46.18" width="1.27" height="2.85"/><rect class="cls-2" x="52.8" y="46.18" width="1.27" height="2.85"/><rect class="cls-2" x="47.34" y="46.18" width="1.27" height="2.85"/><rect class="cls-2" x="42.07" y="46.18" width="1.27" height="2.85"/><rect class="cls-2" x="36.47" y="46.18" width="1.27" height="2.85"/><rect class="cls-2" x="29.07" y="46.18" width="1.27" height="2.85"/><rect class="cls-2" x="22.38" y="46.18" width="1.27" height="2.85"/><polyline class="cls-2" points="69.99 43.13 70.53 43.13 70.53 46.72 65.99 46.72"/><line class="cls-2" x1="64.71" y1="46.73" x2="60.31" y2="46.73"/><line class="cls-2" x1="58.49" y1="46.73" x2="54.07" y2="46.73"/><line class="cls-2" x1="52.8" y1="46.73" x2="48.62" y2="46.73"/><line class="cls-2" x1="47.34" y1="46.73" x2="43.35" y2="46.73"/><line class="cls-2" x1="42.07" y1="46.73" x2="37.75" y2="46.73"/><line class="cls-2" x1="36.47" y1="46.73" x2="30.35" y2="46.73"/><line class="cls-2" x1="29.07" y1="46.73" x2="23.66" y2="46.73"/><polyline class="cls-2" points="22.38 46.73 20.25 46.73 17.83 45.27 17.83 43.13 18.21 43.13"/><line class="cls-2" x1="47.2" y1="43.13" x2="47.2" y2="46.72"/><line class="cls-2" x1="36.29" y1="43.13" x2="36.29" y2="46.72"/><line class="cls-2" x1="23.8" y1="43.13" x2="23.8" y2="46.72"/><line class="cls-2" x1="60.31" y1="43.13" x2="60.31" y2="46.72"/><line class="cls-2" x1="58.49" y1="43.13" x2="58.49" y2="46.72"/><polyline class="cls-2" points="3.12 15.64 2.37 15.64 2.37 12.74 11.42 12.74 11.42 15.64"/><polyline class="cls-2" points="28.19 15.64 28.19 12.75 18.66 12.75 18.66 13.8 14.87 13.8 14.87 15.64"/><line class="cls-2" x1="23.29" y1="15.64" x2="23.29" y2="12.75"/><line class="cls-2" x1="13.16" y1="24.88" x2="11.61" y2="24.88"/><line class="cls-2" x1="13.16" y1="17.25" x2="11.61" y2="17.25"/><line class="cls-2" x1="13.16" y1="19.37" x2="14.7" y2="19.37"/><line class="cls-2" x1="13.16" y1="20.37" x2="14.7" y2="20.37"/><line class="cls-2" x1="13.16" y1="22.4" x2="14.7" y2="22.4"/><line class="cls-2" x1="59.96" y1="36.28" x2="61.51" y2="35.56"/><line class="cls-2" x1="59.96" y1="37.25" x2="61.51" y2="37.25"/><polyline class="cls-2" points="66.26 93.85 66.41 94.25 63.05 95.47 62.91 95.1"/><polyline class="cls-2" points="52.62 98.26 53.67 101.15 57.94 99.6 57.74 99.04 61.66 97.63 60.99 95.8"/><polyline class="cls-2" points="70.81 92.21 73.77 89.86 81.83 86.9 81.58 86.22 84.91 85 84.81 84.71"/><polyline class="cls-2" points="96.18 80.19 96.41 80.82 92.98 82.07 92.87 81.78"/><line class="cls-2" x1="73.73" y1="89.9" x2="73.36" y2="88.88"/><polygon class="cls-2" points="2.21 21.24 2.21 20.77 3.12 20.77 3.12 15.64 7.63 15.64 15.21 15.64 19.02 15.64 25.74 15.64 31.68 15.64 35.84 15.64 35.84 11.41 38.38 11.41 38.38 12.14 69.54 12.14 69.54 15.54 70.27 15.54 70.27 22.56 69.99 22.56 69.99 32.63 69.99 37.98 69.99 43.13 65.49 43.13 57.59 43.13 49.7 43.13 44.74 43.13 38.8 43.13 32.29 43.13 27.86 43.13 21.31 43.13 18.21 43.13 18.21 41.05 14.73 41.05 10.04 41.05 10.04 38.09 9.5 38.09 9.5 36.45 6.39 36.45 6.39 31.95 3.12 31.95 3.12 21.24 2.21 21.24"/><polyline class="cls-2" points="36.14 15.64 36.14 28.36 63.49 28.36 63.49 30.42 9.62 30.42 9.62 28.36 28.74 28.36 28.74 15.64"/><line class="cls-2" x1="9.62" y1="29.39" x2="3.12" y2="29.39"/><line class="cls-2" x1="14.59" y1="30.42" x2="14.59" y2="41.05"/><line class="cls-2" x1="23.8" y1="30.42" x2="23.8" y2="43.13"/><polyline class="cls-2" points="29.32 30.42 29.32 33.65 36.24 33.65 36.24 30.42"/><polyline class="cls-2" points="36.29 43.13 36.29 33.65 36.24 33.65"/><line class="cls-2" x1="41.74" y1="43.13" x2="41.74" y2="30.42"/><line class="cls-2" x1="47.2" y1="43.13" x2="47.2" y2="30.42"/><line class="cls-2" x1="52.65" y1="43.13" x2="52.65" y2="31.5"/><polyline class="cls-2" points="52.6 30.5 52.6 31.5 55.26 31.5 55.26 30.42"/><line class="cls-2" x1="58.42" y1="30.42" x2="58.42" y2="43.13"/><line class="cls-2" x1="61.51" y1="43.13" x2="61.51" y2="30.42"/><line class="cls-2" x1="69.99" y1="29.39" x2="63.49" y2="29.39"/><line class="cls-2" x1="23.29" y1="28.36" x2="23.29" y2="15.64"/><line class="cls-2" x1="11.61" y1="28.36" x2="11.61" y2="15.64"/><line class="cls-2" x1="14.7" y1="15.64" x2="14.7" y2="28.36"/><polyline class="cls-2" points="17.57 28.36 17.57 27.27 14.7 27.27"/><polyline class="cls-2" points="14.7 26.73 13.16 26.73 13.16 22.06"/><polygon class="cls-2" points="86.84 58.11 86.84 51.13 79.86 51.13 79.86 48.44 80.41 48.44 80.41 45.67 78.02 45.67 78.02 45.06 80.41 45.06 80.41 42.3 79.86 42.3 79.86 37.24 80.41 37.24 80.41 31.31 79.86 31.31 79.86 25.97 80.41 25.97 80.41 23.13 79.86 23.13 79.86 22.84 73.72 22.84 73.72 18.92 72.58 18.92 72.58 15.54 73.77 15.54 73.77 12.14 88.41 12.14 88.41 11.41 90.97 11.41 90.97 12.14 97.33 12.14 97.33 11.41 99.89 11.41 99.89 12.14 109.77 12.14 109.77 20.45 111.02 20.45 111.02 22.99 108.44 22.99 108.44 26.81 107.89 26.81 107.89 30.4 108.44 30.4 108.44 34.4 107.89 34.4 107.89 37.24 108.44 37.24 108.44 42.3 107.89 42.3 107.89 45.06 110.69 45.06 110.69 45.67 107.89 45.67 107.89 48.44 108.44 48.44 108.44 51.13 102.39 51.13 102.39 51.94 102.39 51.95 106.2 62.4 105.65 62.6 107.15 66.72 107.67 66.53 107.81 66.91 105.67 67.69 108.41 75.21 104.34 76.69 104.5 77.16 96.13 80.2 95.63 78.83 92.29 80.04 92.92 81.76 84.81 84.71 84.18 82.99 80.85 84.21 81.47 85.93 73.36 88.88 72.74 87.16 69.4 88.37 70.81 92.21 66.26 93.85 65.65 92.17 62.29 93.39 62.91 95.1 57.05 97.23 56.86 96.72 52.62 98.26 51.23 94.44 50.72 94.62 49.28 90.67 51.55 89.84 50.13 85.95 52.1 85.24 49.21 77.28 49.72 77.09 47.96 72.26 52.07 70.76 59.32 68.12 62.9 66.82 69.25 64.51 74.83 62.48 79.5 60.78 86.84 58.11"/><polyline class="cls-2" points="94.54 68.83 92.15 62.25 89.44 63.24 91.84 69.82"/><polyline class="cls-2" points="89.83 63.1 89.83 62 91.75 62 91.88 62.35"/><polyline class="cls-2" points="92.15 62.25 92.1 62.11 93.12 61.74 93.12 53.03 88.96 53.03 88.96 53.63 86.84 53.63"/><polyline class="cls-2" points="93.12 58.95 91.98 58.95 91.98 62 91.75 62"/><polyline class="cls-2" points="93.12 22.95 92.04 22.95 92.04 25.68 93.12 25.68"/><polyline class="cls-2" points="95.18 27.83 98.34 27.83 98.34 34.28 95.18 34.28"/><polyline class="cls-2" points="95.57 64.35 98.54 63.27 100.76 69.37 97.8 70.45"/><line class="cls-2" x1="58.82" y1="68.31" x2="63.17" y2="80.25"/><polyline class="cls-2" points="65.88 79.26 65.51 78.24 62.79 79.23"/><line class="cls-2" x1="95.18" y1="23" x2="108.44" y2="23"/><polyline class="cls-2" points="107.89 34.4 107.89 34.28 98.34 34.28"/><line class="cls-2" x1="108.44" y1="39.73" x2="95.18" y2="39.73"/><line class="cls-2" x1="95.18" y1="45.37" x2="110.69" y2="45.37"/><line class="cls-2" x1="78.02" y1="45.37" x2="92.51" y2="45.37"/><polyline class="cls-2" points="95.18 58.69 100.89 58.69 104.39 57.41"/><polyline class="cls-2" points="105.67 67.69 105.64 67.59 100.76 69.37"/><line class="cls-2" x1="100.33" y1="78.68" x2="97.39" y2="70.63"/><polyline class="cls-2" points="84.18 82.99 84.28 82.96 81.65 75.72"/><polyline class="cls-2" points="62.29 93.39 62.17 93.43 58.75 84.05"/><polyline class="cls-2" points="52.1 85.24 52.15 85.36 56.57 83.75"/><line class="cls-2" x1="55.85" y1="69.39" x2="60.2" y2="81.33"/><line class="cls-2" x1="66.91" y1="65.36" x2="71.26" y2="77.31"/><line class="cls-2" x1="72.04" y1="63.49" x2="76.39" y2="75.44"/><line class="cls-2" x1="77.16" y1="61.63" x2="81.51" y2="73.57"/><line class="cls-2" x1="82.29" y1="59.76" x2="86.64" y2="71.71"/><polyline class="cls-2" points="86.84 57.53 86.97 57.53 86.97 58.43 89.89 58.43 89.89 62"/><line class="cls-2" x1="79.86" y1="39.73" x2="93.12" y2="39.73"/><line class="cls-2" x1="80.41" y1="34.28" x2="93.12" y2="34.28"/><line class="cls-2" x1="79.86" y1="28.82" x2="93.12" y2="28.82"/><polyline class="cls-2" points="80.41 23.13 80.41 23 92.04 23"/><polyline class="cls-2" points="57.55 74.05 59.02 73.52 57.32 68.85"/><polyline class="cls-2" points="94.54 68.83 56.22 82.78 56.92 84.72 95.31 70.74 95.52 71.31 97.81 70.47 95.18 63.29 95.18 22.95 93.12 22.95 93.12 42.54 92.52 42.89 92.52 47.83 92.87 48.04 93.12 48.18 93.12 51.01 86.84 51.01 86.84 51.13"/><polyline class="cls-2" points="73.77 15.54 76.58 15.54 76.58 18.92 73.72 18.92"/><polyline class="cls-2" points="11.61 20.63 13.16 20.63 13.16 15.64"/><polyline class="cls-2" points="59.96 39.91 59.96 32.3 61.51 32.3"/><polyline class="cls-2" points="96.95 23 96.95 21.05 90.61 21.05 90.61 23"/><polyline class="cls-2" points="72.74 87.16 72.83 87.12 70.2 79.88"/><g class="cls-9"><rect class="cls-2" x="-100.35" y="-436.89" width="450.14" height="582.54"/></g><g><path class="cls-10" d="M6.21,4.02h.02l.65-2.62h.41l-.81,3.15h-.5l-.66-2.52h-.02l-.67,2.52h-.5l-.81-3.15h.42l.66,2.61h.02l.69-2.61h.41l.7,2.62Z"/><path class="cls-10" d="M9.89,4.55h-2.25V1.39h2.2v.36h-1.78v.99h1.42v.36h-1.42v1.09h1.83v.36Z"/><path class="cls-10" d="M10.53,3.4c.03,.58,.42,.87,.95,.87,.47,0,.77-.2,.77-.55,0-.29-.19-.43-.6-.51l-.62-.12c-.47-.09-.79-.34-.79-.83,0-.55,.44-.93,1.13-.93,.79,0,1.25,.42,1.25,1.13l-.39,.02c-.02-.52-.33-.82-.85-.82-.46,0-.71,.21-.71,.57,0,.31,.21,.41,.57,.48l.57,.11c.58,.11,.87,.36,.87,.87,0,.58-.5,.92-1.18,.92-.78,0-1.34-.42-1.34-1.19l.39-.03Z"/><path class="cls-10" d="M13.92,4.55V1.75h-1.15v-.36h2.74v.36h-1.17v2.79h-.43Z"/><path class="cls-10" d="M18.16,4.55h-1.34V1.39h1.29c.78,0,1.1,.34,1.1,.84,0,.37-.26,.62-.6,.68,.39,.07,.69,.32,.69,.77,0,.55-.4,.87-1.14,.87Zm-.92-1.79h.88c.46,0,.65-.2,.65-.5s-.2-.51-.65-.51h-.88v1.01Zm0,.34v1.1h.91c.47,0,.72-.21,.72-.55s-.25-.55-.72-.55h-.91Z"/><path class="cls-10" d="M19.74,3.34V1.39h.43v1.95c0,.6,.3,.9,.85,.9s.86-.29,.86-.89V1.39h.43v1.95c0,.92-.57,1.27-1.28,1.27s-1.28-.34-1.28-1.27Z"/><path class="cls-10" d="M23.29,1.39v3.15h-.44V1.39h.44Z"/><path class="cls-10" d="M24.34,1.39v2.79h1.76v.36h-2.19V1.39h.44Z"/><path class="cls-10" d="M26.52,1.39h1.14c.99,0,1.62,.59,1.62,1.58s-.62,1.58-1.62,1.58h-1.14V1.39Zm1.12,2.8c.77,0,1.19-.46,1.19-1.22s-.42-1.22-1.19-1.22h-.68v2.44h.68Z"/><path class="cls-10" d="M30.17,1.39v3.15h-.43V1.39h.43Z"/><path class="cls-10" d="M32.96,3.81V1.39h.41v3.15h-.34l-1.83-2.53v2.53h-.41V1.39h.45l1.73,2.41Z"/><path class="cls-10" d="M33.83,2.97c0-.97,.67-1.64,1.54-1.64s1.41,.5,1.46,1.3l-.42,.03c-.04-.58-.41-.96-1.04-.96s-1.1,.49-1.1,1.27,.46,1.27,1.14,1.27c.59,0,.97-.37,1.03-.91h-.96v-.34h1.36v1.56h-.4v-.56c-.14,.4-.58,.62-1.08,.62-.89,0-1.54-.66-1.54-1.64Z"/></g><g><path class="cls-10" d="M79.04,4.55h-2.25V1.39h2.2v.36h-1.78v.99h1.42v.36h-1.42v1.09h1.83v.36Z"/><path class="cls-10" d="M81.05,1.39l1.31,3.15h-.46l-.38-.93h-1.44l-.37,.93h-.43l1.29-3.15h.47Zm-.83,1.88h1.16l-.58-1.4h-.02l-.57,1.4Z"/><path class="cls-10" d="M82.89,3.4c.03,.58,.42,.87,.95,.87,.47,0,.77-.2,.77-.55,0-.29-.19-.43-.6-.51l-.62-.12c-.47-.09-.79-.34-.79-.83,0-.55,.44-.93,1.13-.93,.79,0,1.25,.42,1.25,1.13l-.39,.02c-.02-.52-.33-.82-.85-.82-.46,0-.71,.21-.71,.57,0,.31,.21,.41,.57,.48l.57,.11c.58,.11,.87,.36,.87,.87,0,.58-.5,.92-1.18,.92-.78,0-1.34-.42-1.34-1.19l.39-.03Z"/><path class="cls-10" d="M86.28,4.55V1.75h-1.15v-.36h2.74v.36h-1.17v2.79h-.43Z"/><path class="cls-10" d="M90.53,4.55h-1.34V1.39h1.29c.78,0,1.1,.34,1.1,.84,0,.37-.26,.62-.6,.68,.39,.07,.69,.32,.69,.77,0,.55-.4,.87-1.14,.87Zm-.92-1.79h.88c.46,0,.65-.2,.65-.5s-.19-.51-.65-.51h-.88v1.01Zm0,.34v1.1h.91c.47,0,.72-.21,.72-.55s-.25-.55-.72-.55h-.91Z"/><path class="cls-10" d="M92.1,3.34V1.39h.43v1.95c0,.6,.3,.9,.85,.9s.86-.29,.86-.89V1.39h.42v1.95c0,.92-.57,1.27-1.28,1.27s-1.28-.34-1.28-1.27Z"/><path class="cls-10" d="M95.65,1.39v3.15h-.43V1.39h.43Z"/><path class="cls-10" d="M96.7,1.39v2.79h1.76v.36h-2.19V1.39h.43Z"/><path class="cls-10" d="M98.88,1.39h1.14c.99,0,1.62,.59,1.62,1.58s-.63,1.58-1.62,1.58h-1.14V1.39Zm1.12,2.8c.77,0,1.19-.46,1.19-1.22s-.42-1.22-1.19-1.22h-.68v2.44h.68Z"/><path class="cls-10" d="M102.53,1.39v3.15h-.44V1.39h.44Z"/><path class="cls-10" d="M105.32,3.81V1.39h.41v3.15h-.35l-1.83-2.53v2.53h-.41V1.39h.45l1.73,2.41Z"/><path class="cls-10" d="M106.19,2.97c0-.97,.67-1.64,1.54-1.64s1.41,.5,1.46,1.3l-.42,.03c-.04-.58-.41-.96-1.04-.96s-1.1,.49-1.1,1.27,.46,1.27,1.14,1.27c.59,0,.97-.37,1.03-.91h-.96v-.34h1.36v1.56h-.4v-.56c-.14,.4-.58,.62-1.08,.62-.89,0-1.54-.66-1.54-1.64Z"/></g></g></svg>