<?xml version="1.0" encoding="UTF-8"?><svg id="Layer_1" xmlns="http://www.w3.org/2000/svg" xmlns:xlink="http://www.w3.org/1999/xlink" viewBox="0 0 113.73 102.7"><defs><style>.cls-1{stroke:#ebebec;}.cls-1,.cls-2{stroke-width:.31px;}.cls-1,.cls-2,.cls-3,.cls-4{fill:none;}.cls-1,.cls-2,.cls-4{stroke-linecap:round;stroke-linejoin:round;}.cls-2,.cls-4{stroke:#000;}.cls-5{fill:#f1b784;fill-rule:evenodd;}.cls-6{clip-path:url(#clippath);}.cls-7{clip-path:url(#clippath-3);}.cls-8{clip-path:url(#clippath-5);}.cls-9{fill:#333132;}.cls-4{stroke-width:.47px;}</style><clipPath id="clippath"><rect class="cls-3" x="-482.06" y="-648.4" width="612" height="792"/></clipPath><clipPath id="clippath-3"><rect class="cls-3" x="-482.06" y="-541.6" width="612" height="525.36"/></clipPath><clipPath id="clippath-5"><rect class="cls-3" x="-138.06" y="-.96" width="268" height="112.8"/></clipPath></defs><g class="cls-6"><g><path class="cls-9" d="M83.02,94.89v3.91h2.46v.5h-3.07v-4.41h.61Z"/><path class="cls-9" d="M89.22,99.3h-3.15v-4.41h3.08v.5h-2.49v1.39h1.98v.5h-1.98v1.52h2.56v.5Z"/><path class="cls-9" d="M91.29,99.3l-1.77-4.41h.62l1.49,3.71h.03l1.45-3.71h.62l-1.78,4.41h-.66Z"/><path class="cls-9" d="M97.38,99.3h-3.15v-4.41h3.08v.5h-2.49v1.39h1.98v.5h-1.98v1.52h2.56v.5Z"/><path class="cls-9" d="M98.68,94.89v3.91h2.46v.5h-3.07v-4.41h.61Z"/><path class="cls-9" d="M106,98.77v.53h-3.24v-.35l1.25-1.07c.69-.6,1.21-1.05,1.21-1.69,0-.52-.29-.88-.88-.88s-.94,.38-.94,1.03c0,.13,.01,.27,.05,.4l-.6-.03c-.03-.14-.05-.28-.05-.41,0-.9,.61-1.48,1.55-1.48,1.03,0,1.5,.6,1.5,1.35,0,.8-.68,1.41-1.32,1.93l-.83,.69h2.3Z"/><path class="cls-9" d="M106.26,97.25h1.61v.52h-1.61v-.52Z"/><path class="cls-9" d="M111.47,95.43h-2.12c0,.24-.11,1.14-.16,1.37,.2-.25,.56-.45,1.05-.45,1,0,1.52,.67,1.52,1.48,0,.92-.64,1.55-1.6,1.55-1.06,0-1.67-.67-1.62-1.65l.59,.05c0,.67,.36,1.11,1.05,1.11,.62,0,1-.41,1-1.06,0-.58-.38-1.01-1-1.01-.49,0-.81,.26-.97,.56l-.6-.04c.11-.61,.26-1.74,.28-2.46h2.58v.55Z"/></g><g class="cls-7"><rect class="cls-4" x="-514.74" y="-646.97" width="678.3" height="877.8"/></g><polygon class="cls-5" points="108.98 45.67 111.78 45.67 111.78 45.37 96.27 45.37 96.27 58.69 101.98 58.69 105.47 57.41 103.48 51.95 103.47 51.94 103.47 51.13 109.53 51.13 109.53 48.44 108.98 48.44 108.98 45.67"/><polygon class="cls-1" points="108.98 45.67 111.78 45.67 111.78 45.37 96.27 45.37 96.27 58.69 101.98 58.69 105.47 57.41 103.48 51.95 103.47 51.94 103.47 51.13 109.52 51.13 109.52 48.44 108.98 48.44 108.98 45.67"/><line class="cls-2" x1="33.86" y1="33.65" x2="33.86" y2="30.42"/><polyline class="cls-2" points="37.32 33.65 33.86 30.42 30.41 33.65"/><polyline class="cls-2" points="37.32 30.42 33.86 33.65 30.41 30.42"/><line class="cls-2" x1="91.73" y1="66.53" x2="94.43" y2="65.54"/><polyline class="cls-2" points="92.92 69.82 94.43 65.54 90.53 63.24"/><polyline class="cls-2" points="95.63 68.83 91.73 66.53 93.24 62.25"/><polyline class="cls-2" points="3.3 21.07 2.15 21.07 2.15 13.52 8.99 13.52 8.99 15.1"/><polyline class="cls-2" points="16.02 15.1 16.02 13.52 20.39 13.52 20.39 15.1"/><polyline class="cls-2" points="26.58 15.1 26.58 13.52 33.08 13.52 33.08 15.1"/><line class="cls-2" x1="29.83" y1="13.52" x2="29.83" y2="15.64"/><polyline class="cls-2" points="71.63 37.7 73.14 37.7 73.14 45.26 66.29 45.26 66.29 43.67"/><polyline class="cls-2" points="58.95 43.67 58.95 45.26 50.5 45.26 50.5 43.67"/><line class="cls-2" x1="53.74" y1="43.13" x2="53.74" y2="45.26"/><polyline class="cls-2" points="46.08 43.67 46.08 45.26 39.58 45.26 39.58 43.67"/><line class="cls-2" x1="42.83" y1="43.13" x2="42.83" y2="45.26"/><polyline class="cls-2" points="33.66 43.67 33.66 45.26 28.66 45.26 28.66 43.67"/><polyline class="cls-2" points="22.68 43.67 22.68 45.26 19.35 45.26 19.35 43.68"/><polyline class="cls-2" points="16.09 41.6 16.09 43.18 12.59 43.18 12.59 41.05"/><polyline class="cls-2" points="15.79 26.73 14.24 26.73 14.24 21.88"/><line class="cls-2" x1="14.24" y1="26.38" x2="12.7" y2="26.38"/><line class="cls-2" x1="12.7" y1="24.74" x2="14.24" y2="24.02"/><polyline class="cls-2" points="62.59 32.25 61.05 32.25 61.05 36.88"/><line class="cls-2" x1="59.5" y1="35.01" x2="61.05" y2="34.29"/><line class="cls-2" x1="59.5" y1="32.65" x2="61.05" y2="32.65"/><polyline class="cls-2" points="58.4 97.13 58.71 97.98 52.2 100.34 50.22 94.9 51.71 94.36"/><polyline class="cls-2" points="50.39 77.54 48.85 78.1 46.26 71.01 52.69 68.67 53.23 70.15"/><polyline class="cls-2" points="59.99 67.7 59.45 66.21 63.55 64.71 64.09 66.2"/><polyline class="cls-2" points="69.89 64.09 69.34 62.61 75.45 60.38 75.99 61.87"/><line class="cls-2" x1="72.4" y1="61.49" x2="73.13" y2="63.49"/><polyline class="cls-2" points="80.14 60.36 79.6 58.87 85.7 56.65 86.24 58.14"/><line class="cls-2" x1="82.65" y1="57.76" x2="83.38" y2="59.76"/><polyline class="cls-2" points="80.95 48.72 79.37 48.72 79.37 45.67"/><polyline class="cls-2" points="80.95 42.02 79.37 42.02 79.37 45.06"/><polyline class="cls-2" points="80.95 37.52 79.37 37.52 79.37 31.03 80.95 31.03"/><line class="cls-2" x1="79.37" y1="34.28" x2="81.5" y2="34.28"/><polyline class="cls-2" points="109.52 26.53 111.11 26.53 111.11 30.68 109.52 30.68"/><polyline class="cls-2" points="109.52 34.12 111.11 34.12 111.11 37.53 109.52 37.53"/><polyline class="cls-2" points="109.52 42.02 111.11 42.02 111.11 45.06"/><polyline class="cls-2" points="111.11 45.67 111.11 48.72 109.52 48.72"/><polyline class="cls-2" points="107.2 62.16 108.68 61.62 110.4 66.33 108.89 66.89"/><polyline class="cls-2" points="108.3 70.48 109.81 69.93 112.19 76.47 105.9 78.75 105.35 77.24"/><polyline class="cls-2" points="67.55 93.79 67.86 94.64 64.04 96.04 63.73 95.19"/><line class="cls-2" x1="96.27" y1="45.37" x2="93.6" y2="45.37"/><line class="cls-2" x1="98.8" y1="65.63" x2="97.32" y2="66.17"/><polyline class="cls-2" points="100.23 64.93 98.74 65.47 99.71 68.13 98.24 68.67"/><line class="cls-2" x1="99.66" y1="67.97" x2="101.14" y2="67.43"/><polyline class="cls-2" points="62.07 74.67 60.72 75.16 62.2 79.24 63.69 78.7"/><line class="cls-2" x1="60.61" y1="79.46" x2="62.09" y2="78.92"/><line class="cls-2" x1="61.28" y1="76.71" x2="60.05" y2="77.94"/><polyline class="cls-2" points="99.43 32.67 97.85 32.67 97.85 29.67 96.27 29.67"/><line class="cls-2" x1="99.43" y1="30.01" x2="97.85" y2="30.01"/><line class="cls-2" x1="96.27" y1="32.34" x2="97.85" y2="32.34"/><line class="cls-2" x1="40.74" y1="15.64" x2="40.74" y2="13.52"/><polyline class="cls-2" points="94 81.73 97.57 80.43 97.46 80.12"/><line class="cls-2" x1="82.55" y1="85.9" x2="85.89" y2="84.69"/><polyline class="cls-2" points="74.69 88.79 74.88 89.32 71.32 90.61"/><polyline class="cls-2" points="103.56 13.93 103.56 12.35 111.11 12.35 111.11 19.26 109.52 19.26"/><polyline class="cls-2" points="80.95 19.26 79.37 19.26 79.37 12.35 86.92 12.35 86.92 13.93"/><polyline class="cls-2" points="80.95 22.85 79.37 22.85 79.37 26.25 80.95 26.25"/><polyline class="cls-2" points="37.49 15.1 37.49 13.52 43.99 13.52 43.99 15.1"/><line class="cls-2" x1="51.65" y1="15.64" x2="51.65" y2="13.52"/><polyline class="cls-2" points="48.4 15.1 48.4 13.52 54.9 13.52 54.9 15.1"/><polyline class="cls-2" points="59.27 15.1 59.27 13.52 62.7 13.52 62.7 15.1"/><polyline class="cls-2" points="66.29 15.1 66.29 13.52 73.14 13.52 73.14 21.07 71.63 21.07"/><polygon class="cls-2" points="3.3 21.24 3.3 20.77 3.84 20.77 3.84 15.64 8.71 15.64 8.71 15.1 16.3 15.1 16.3 15.64 20.11 15.64 20.11 15.1 26.83 15.1 26.83 15.64 32.77 15.64 32.77 15.1 37.74 15.1 37.74 15.64 43.68 15.64 43.68 15.1 48.65 15.1 48.65 15.64 54.59 15.64 54.59 15.1 59.55 15.1 59.55 15.64 62.42 15.64 62.42 15.1 66.57 15.1 66.57 15.64 71.08 15.64 71.08 20.79 71.63 20.79 71.63 26.14 71.08 26.14 71.08 32.63 71.63 32.63 71.63 37.98 71.08 37.98 71.08 43.13 66.57 43.13 66.57 43.67 58.67 43.67 58.67 43.13 50.78 43.13 50.78 43.67 45.83 43.67 45.83 43.13 39.89 43.13 39.89 43.67 33.37 43.67 33.37 43.13 28.94 43.13 28.94 43.67 22.4 43.67 22.4 43.13 19.76 43.13 19.76 43.68 19.3 43.68 19.3 41.6 15.81 41.6 15.81 41.05 11.13 41.05 11.13 38.09 10.58 38.09 10.58 36.45 7.47 36.45 7.47 31.95 4.21 31.95 4.21 21.24 3.3 21.24"/><rect class="cls-2" x="10.71" y="28.36" width="53.87" height="2.06"/><line class="cls-2" x1="10.71" y1="29.39" x2="4.21" y2="29.39"/><polyline class="cls-2" points="19.43 30.42 19.43 41.6 19.3 41.6"/><line class="cls-2" x1="24.88" y1="30.42" x2="24.88" y2="43.67"/><polyline class="cls-2" points="30.41 30.42 30.41 33.65 37.32 33.65 37.32 30.42"/><polyline class="cls-2" points="37.37 43.67 37.37 33.65 37.32 33.65"/><line class="cls-2" x1="42.83" y1="43.13" x2="42.83" y2="30.42"/><line class="cls-2" x1="48.28" y1="43.67" x2="48.28" y2="30.42"/><line class="cls-2" x1="53.74" y1="43.13" x2="53.74" y2="31.5"/><polyline class="cls-2" points="53.68 30.5 53.68 31.5 56.34 31.5 56.34 30.42"/><polyline class="cls-2" points="59.5 30.42 59.5 36.88 62.59 36.88 62.59 30.42"/><line class="cls-2" x1="62.55" y1="43.67" x2="62.55" y2="36.88"/><line class="cls-2" x1="71.08" y1="29.39" x2="64.58" y2="29.39"/><polyline class="cls-2" points="62.55 28.36 62.55 15.64 62.42 15.64"/><line class="cls-2" x1="57.1" y1="28.36" x2="57.1" y2="15.1"/><line class="cls-2" x1="51.65" y1="28.36" x2="51.65" y2="15.64"/><line class="cls-2" x1="46.19" y1="28.36" x2="46.19" y2="15.1"/><line class="cls-2" x1="40.74" y1="28.36" x2="40.74" y2="15.64"/><line class="cls-2" x1="35.28" y1="28.36" x2="35.28" y2="15.1"/><line class="cls-2" x1="29.83" y1="28.36" x2="29.83" y2="15.64"/><line class="cls-2" x1="24.38" y1="28.36" x2="24.38" y2="15.1"/><polyline class="cls-2" points="12.7 28.25 12.7 21.88 15.79 21.88 15.79 28.36"/><polyline class="cls-2" points="18.66 28.36 18.66 27.27 15.79 27.27"/><line class="cls-2" x1="12.74" y1="21.88" x2="12.74" y2="15.1"/><polygon class="cls-2" points="81.5 14.47 86.64 14.47 86.64 13.93 91.99 13.93 91.99 14.47 98.48 14.47 98.48 13.93 103.81 13.93 103.81 14.47 108.98 14.47 108.98 18.98 109.52 18.98 109.52 26.81 108.98 26.81 108.98 30.4 109.52 30.4 109.52 34.4 108.98 34.4 108.98 37.24 109.52 37.24 109.52 42.3 108.98 42.3 108.98 45.06 111.78 45.06 111.78 45.67 108.98 45.67 108.98 48.44 109.52 48.44 109.52 51.13 103.47 51.13 103.47 51.94 103.48 51.95 107.29 62.42 106.78 62.61 108.27 66.7 108.76 66.53 108.9 66.91 107.22 67.52 108.39 70.71 107.86 70.91 109.42 75.17 105.4 76.63 105.59 77.15 97.22 80.2 96.72 78.82 93.38 80.04 94 81.76 85.9 84.71 85.27 82.99 81.93 84.21 82.56 85.92 74.45 88.88 73.82 87.16 70.5 88.37 71.89 92.21 67.31 93.87 66.7 92.18 63.38 93.39 64 95.1 58.14 97.23 57.95 96.72 53.71 98.26 52.32 94.44 51.81 94.62 50.37 90.67 52.63 89.84 51.22 85.95 53.19 85.24 50.29 77.28 50.81 77.09 49.05 72.26 53.16 70.76 52.97 70.25 60.22 67.61 60.41 68.12 63.99 66.82 63.8 66.31 70.15 64 70.33 64.51 75.92 62.48 75.73 61.97 80.4 60.27 80.59 60.78 86.17 58.75 85.98 58.24 87.93 57.53 87.93 51.13 80.95 51.13 80.95 48.44 81.5 48.44 81.5 45.67 79.11 45.67 79.11 45.06 81.5 45.06 81.5 42.3 80.95 42.3 80.95 37.24 81.5 37.24 81.5 31.31 80.95 31.31 80.95 25.97 81.5 25.97 81.5 23.13 80.95 23.13 80.95 18.98 81.5 18.98 81.5 14.47"/><polyline class="cls-2" points="95.63 68.83 93.24 62.25 90.53 63.24 92.92 69.82"/><polyline class="cls-2" points="90.92 63.1 90.92 62 92.84 62 92.97 62.35"/><polyline class="cls-2" points="93.24 62.25 93.18 62.11 94.21 61.74 94.21 48.18 93.96 48.04 93.6 47.83 93.6 42.89 94.21 42.54 94.21 20.97 96.27 20.97 96.27 63.29 98.9 70.47 97.23 71.09 97.02 70.52 58.01 84.72 57.31 82.78 95.63 68.83"/><polyline class="cls-2" points="94.21 58.95 93.06 58.95 93.06 62 92.84 62"/><polyline class="cls-2" points="94.21 22.95 93.12 22.95 93.12 25.68 94.21 25.68"/><polyline class="cls-2" points="96.27 27.83 99.43 27.83 99.43 34.28 96.27 34.28"/><polyline class="cls-2" points="96.66 64.35 99.62 63.27 101.84 69.37 98.89 70.45"/><polyline class="cls-2" points="61.29 81.33 59.05 75.19 62.01 74.11 64.25 80.25"/><polyline class="cls-2" points="66.97 79.26 66.6 78.24 63.88 79.23"/><line class="cls-2" x1="95.24" y1="20.97" x2="95.24" y2="14.47"/><line class="cls-2" x1="96.27" y1="23" x2="109.52" y2="23"/><polyline class="cls-2" points="108.98 34.4 108.98 34.28 99.43 34.28"/><line class="cls-2" x1="109.52" y1="39.73" x2="96.27" y2="39.73"/><line class="cls-2" x1="96.27" y1="45.37" x2="111.78" y2="45.37"/><line class="cls-2" x1="79.11" y1="45.37" x2="93.6" y2="45.37"/><polyline class="cls-2" points="96.27 58.69 101.98 58.69 105.47 57.41"/><polyline class="cls-2" points="107.22 67.52 107.18 67.4 101.84 69.37"/><polyline class="cls-2" points="63.38 93.39 63.25 93.43 59.84 84.05"/><polyline class="cls-2" points="53.19 85.24 53.23 85.36 57.66 83.75"/><line class="cls-2" x1="56.87" y1="68.83" x2="59.17" y2="75.14"/><line class="cls-2" x1="67.81" y1="64.85" x2="72.35" y2="77.3"/><line class="cls-2" x1="73.13" y1="63.49" x2="77.47" y2="75.44"/><line class="cls-2" x1="78.06" y1="61.12" x2="82.6" y2="73.57"/><line class="cls-2" x1="83.38" y1="59.76" x2="87.72" y2="71.71"/><polyline class="cls-2" points="87.93 57.53 88.06 57.53 88.06 58.43 90.97 58.43 90.97 62"/><line class="cls-2" x1="80.95" y1="39.73" x2="94.21" y2="39.73"/><line class="cls-2" x1="81.5" y1="34.28" x2="94.21" y2="34.28"/><line class="cls-2" x1="80.95" y1="28.82" x2="94.21" y2="28.82"/><polyline class="cls-2" points="81.5 23.13 81.5 23 93.12 23"/><polyline class="cls-2" points="73.83 87.16 73.92 87.12 71.29 79.88"/><polyline class="cls-2" points="85.27 82.99 85.37 82.96 82.73 75.72"/><polyline class="cls-2" points="96.72 78.83 96.81 78.79 94.18 71.55"/><g class="cls-8"><rect class="cls-2" x="-233.66" y="-436.89" width="450.14" height="582.54"/></g><g><path class="cls-9" d="M8.69,4.02h.02l.65-2.62h.41l-.81,3.15h-.5l-.66-2.52h-.02l-.67,2.52h-.5l-.81-3.15h.42l.66,2.61h.02l.69-2.61h.41l.7,2.62Z"/><path class="cls-9" d="M12.37,4.55h-2.25V1.39h2.2v.36h-1.78v.99h1.42v.36h-1.42v1.09h1.83v.36Z"/><path class="cls-9" d="M13.02,3.4c.02,.58,.42,.87,.95,.87,.47,0,.77-.2,.77-.55,0-.29-.19-.43-.6-.51l-.62-.12c-.47-.09-.79-.34-.79-.83,0-.55,.44-.93,1.13-.93,.79,0,1.25,.42,1.25,1.13l-.4,.02c-.02-.52-.33-.82-.85-.82-.46,0-.71,.21-.71,.57,0,.31,.21,.41,.57,.48l.57,.11c.58,.11,.87,.36,.87,.87,0,.58-.5,.92-1.18,.92-.78,0-1.34-.42-1.34-1.19l.39-.03Z"/><path class="cls-9" d="M16.41,4.55V1.75h-1.15v-.36h2.74v.36h-1.17v2.79h-.43Z"/><path class="cls-9" d="M20.65,4.55h-1.34V1.39h1.29c.78,0,1.1,.34,1.1,.84,0,.37-.26,.62-.6,.68,.39,.07,.69,.32,.69,.77,0,.55-.4,.87-1.14,.87Zm-.92-1.79h.88c.46,0,.65-.2,.65-.5s-.19-.51-.65-.51h-.88v1.01Zm0,.34v1.1h.91c.47,0,.72-.21,.72-.55s-.25-.55-.72-.55h-.91Z"/><path class="cls-9" d="M22.23,3.34V1.39h.43v1.95c0,.6,.3,.9,.85,.9s.86-.29,.86-.89V1.39h.42v1.95c0,.92-.57,1.27-1.28,1.27s-1.28-.34-1.28-1.27Z"/><path class="cls-9" d="M25.78,1.39v3.15h-.43V1.39h.43Z"/><path class="cls-9" d="M26.83,1.39v2.79h1.76v.36h-2.19V1.39h.43Z"/><path class="cls-9" d="M29.01,1.39h1.14c.99,0,1.62,.59,1.62,1.58s-.63,1.58-1.62,1.58h-1.14V1.39Zm1.12,2.8c.77,0,1.19-.46,1.19-1.22s-.42-1.22-1.19-1.22h-.68v2.44h.68Z"/><path class="cls-9" d="M32.66,1.39v3.15h-.44V1.39h.44Z"/><path class="cls-9" d="M35.45,3.81V1.39h.41v3.15h-.35l-1.83-2.53v2.53h-.41V1.39h.45l1.73,2.41Z"/><path class="cls-9" d="M36.31,2.97c0-.97,.67-1.64,1.54-1.64s1.41,.5,1.46,1.3l-.42,.03c-.04-.58-.41-.96-1.04-.96s-1.1,.49-1.1,1.27,.46,1.27,1.14,1.27c.59,0,.97-.37,1.03-.91h-.96v-.34h1.36v1.56h-.4v-.56c-.14,.4-.58,.62-1.08,.62-.89,0-1.54-.66-1.54-1.64Z"/></g><g><path class="cls-9" d="M81.53,4.55h-2.25V1.39h2.2v.36h-1.78v.99h1.42v.36h-1.42v1.09h1.83v.36Z"/><path class="cls-9" d="M83.54,1.39l1.31,3.15h-.46l-.38-.93h-1.44l-.37,.93h-.42l1.29-3.15h.48Zm-.83,1.88h1.16l-.58-1.4h-.02l-.57,1.4Z"/><path class="cls-9" d="M85.38,3.4c.02,.58,.42,.87,.95,.87,.47,0,.77-.2,.77-.55,0-.29-.19-.43-.6-.51l-.62-.12c-.47-.09-.79-.34-.79-.83,0-.55,.44-.93,1.13-.93,.79,0,1.25,.42,1.25,1.13l-.4,.02c-.02-.52-.33-.82-.85-.82-.46,0-.71,.21-.71,.57,0,.31,.21,.41,.57,.48l.57,.11c.58,.11,.87,.36,.87,.87,0,.58-.5,.92-1.18,.92-.78,0-1.34-.42-1.34-1.19l.39-.03Z"/><path class="cls-9" d="M88.77,4.55V1.75h-1.15v-.36h2.74v.36h-1.17v2.79h-.43Z"/><path class="cls-9" d="M93.01,4.55h-1.34V1.39h1.29c.78,0,1.1,.34,1.1,.84,0,.37-.26,.62-.6,.68,.39,.07,.69,.32,.69,.77,0,.55-.4,.87-1.14,.87Zm-.92-1.79h.88c.46,0,.65-.2,.65-.5s-.2-.51-.65-.51h-.88v1.01Zm0,.34v1.1h.91c.47,0,.72-.21,.72-.55s-.25-.55-.72-.55h-.91Z"/><path class="cls-9" d="M94.59,3.34V1.39h.43v1.95c0,.6,.3,.9,.85,.9s.86-.29,.86-.89V1.39h.43v1.95c0,.92-.57,1.27-1.28,1.27s-1.28-.34-1.28-1.27Z"/><path class="cls-9" d="M98.14,1.39v3.15h-.44V1.39h.44Z"/><path class="cls-9" d="M99.19,1.39v2.79h1.76v.36h-2.19V1.39h.44Z"/><path class="cls-9" d="M101.37,1.39h1.14c.99,0,1.62,.59,1.62,1.58s-.62,1.58-1.62,1.58h-1.14V1.39Zm1.12,2.8c.77,0,1.19-.46,1.19-1.22s-.42-1.22-1.19-1.22h-.68v2.44h.68Z"/><path class="cls-9" d="M105.02,1.39v3.15h-.43V1.39h.43Z"/><path class="cls-9" d="M107.81,3.81V1.39h.41v3.15h-.34l-1.83-2.53v2.53h-.41V1.39h.45l1.73,2.41Z"/><path class="cls-9" d="M108.67,2.97c0-.97,.67-1.64,1.54-1.64s1.41,.5,1.46,1.3l-.42,.03c-.04-.58-.41-.96-1.04-.96s-1.1,.49-1.1,1.27,.46,1.27,1.14,1.27c.59,0,.97-.37,1.03-.91h-.96v-.34h1.36v1.56h-.4v-.56c-.14,.4-.58,.62-1.08,.62-.89,0-1.54-.66-1.54-1.64Z"/></g></g></svg>