<?xml version="1.0" encoding="UTF-8"?><svg id="Layer_1" xmlns="http://www.w3.org/2000/svg" xmlns:xlink="http://www.w3.org/1999/xlink" viewBox="0 0 114.04 100.65"><defs><style>.cls-1{stroke:#ebebec;}.cls-1,.cls-2{stroke-width:.31px;}.cls-1,.cls-2,.cls-3,.cls-4{fill:none;}.cls-1,.cls-2,.cls-4{stroke-linecap:round;stroke-linejoin:round;}.cls-2,.cls-4{stroke:#000;}.cls-5{fill:#f1b784;fill-rule:evenodd;}.cls-6{clip-path:url(#clippath);}.cls-7{clip-path:url(#clippath-3);}.cls-8{clip-path:url(#clippath-5);}.cls-9{fill:#333132;}.cls-4{stroke-width:.47px;}</style><clipPath id="clippath"><rect class="cls-3" x="-482.03" y="-648.31" width="612" height="792"/></clipPath><clipPath id="clippath-3"><rect class="cls-3" x="-138.73" y="-.51" width="261.05" height="107.75"/></clipPath><clipPath id="clippath-5"><rect class="cls-3" x="-482.03" y="-540.49" width="612" height="510.84"/></clipPath></defs><g class="cls-6"><polygon class="cls-5" points="37.42 31.93 37.37 31.88 30.45 31.88 30.45 28.64 24.93 28.64 24.93 41.9 28.99 41.9 28.99 41.35 33.42 41.35 33.42 41.9 37.42 41.9 37.42 31.93"/><polygon class="cls-1" points="37.42 31.93 37.37 31.88 30.45 31.88 30.45 28.64 24.93 28.64 24.93 41.89 28.99 41.89 28.99 41.35 33.42 41.35 33.42 41.89 37.42 41.89 37.42 31.93"/><line class="cls-2" x1="33.91" y1="31.88" x2="33.91" y2="28.64"/><polyline class="cls-2" points="37.37 31.88 33.91 28.64 30.45 31.88"/><polyline class="cls-2" points="37.37 28.64 33.91 31.88 30.45 28.64"/><line class="cls-2" x1="91.77" y1="64.75" x2="94.48" y2="63.76"/><polyline class="cls-2" points="92.97 68.04 94.48 63.76 90.57 61.46"/><polyline class="cls-2" points="95.67 67.05 91.77 64.75 93.28 60.48"/><polyline class="cls-2" points="89.83 55.07 89.18 53.29 89.18 17.95 106.99 17.95 106.99 43.29"/><polyline class="cls-2" points="106.99 43.9 106.99 44.21 100.06 46.73 101.54 50.81"/><polyline class="cls-2" points="3.34 19.29 2.19 19.29 2.19 11.74 9.04 11.74 9.04 13.32"/><polyline class="cls-2" points="16.06 13.32 16.06 11.74 20.43 11.74 20.43 13.32"/><polyline class="cls-2" points="26.63 13.32 26.63 11.74 33.12 11.74 33.12 13.32"/><line class="cls-2" x1="29.87" y1="11.74" x2="29.87" y2="13.87"/><polyline class="cls-2" points="37.53 13.32 37.53 11.74 44.03 11.74 44.03 13.32"/><polyline class="cls-2" points="48.44 13.32 48.44 11.74 54.94 11.74 54.94 13.32"/><line class="cls-2" x1="51.69" y1="13.87" x2="51.69" y2="11.74"/><polyline class="cls-2" points="59.32 13.32 59.32 11.74 62.64 11.74 62.64 13.32"/><polyline class="cls-2" points="66.34 13.32 66.34 11.74 73.18 11.74 73.18 19.29 71.67 19.29"/><polyline class="cls-2" points="71.67 35.93 73.18 35.93 73.18 43.48 66.34 43.48 66.34 41.9"/><polyline class="cls-2" points="59 41.9 59 43.48 50.55 43.48 50.55 41.9"/><line class="cls-2" x1="53.78" y1="41.35" x2="53.78" y2="43.48"/><polyline class="cls-2" points="46.12 41.9 46.12 43.48 39.62 43.48 39.62 41.9"/><line class="cls-2" x1="42.87" y1="41.35" x2="42.87" y2="43.48"/><polyline class="cls-2" points="33.7 41.9 33.7 43.48 28.71 43.48 28.71 41.9"/><polyline class="cls-2" points="22.72 41.9 22.72 43.48 19.4 43.48 19.4 41.9"/><polyline class="cls-2" points="16.14 39.82 16.14 41.4 12.64 41.4 12.64 39.28"/><polyline class="cls-2" points="15.83 24.95 14.29 24.95 14.29 20.1"/><line class="cls-2" x1="14.29" y1="24.61" x2="12.74" y2="24.61"/><line class="cls-2" x1="12.74" y1="22.97" x2="14.29" y2="22.25"/><polyline class="cls-2" points="62.64 30.47 61.09 30.47 61.09 35.1"/><line class="cls-2" x1="59.55" y1="33.23" x2="61.09" y2="32.51"/><line class="cls-2" x1="59.55" y1="30.87" x2="61.09" y2="30.87"/><polyline class="cls-2" points="87.97 55.75 87.97 49.36 80.99 49.36 80.99 43.9 79.15 43.9 79.15 43.29 80.99 43.29 80.99 35.47 80.99 29.53 80.99 24.19 80.99 21.35 80.99 12.15 101.55 12.15 101.55 12.7 109.02 12.7 109.02 17.2 109.57 17.2 109.57 25.03 109.57 28.62 109.57 32.63 109.57 35.47 109.57 43.29 111.82 43.29 111.82 43.9 109.57 43.9 109.57 49.36 103.52 49.36 103.52 50.15"/><polyline class="cls-2" points="58.44 95.36 58.75 96.2 52.25 98.57 50.27 93.12 51.75 92.58"/><polyline class="cls-2" points="50.43 75.77 48.89 76.33 46.31 69.23 52.74 66.89 53.28 68.38"/><polyline class="cls-2" points="60.03 65.92 59.49 64.43 63.6 62.94 64.14 64.42"/><polyline class="cls-2" points="69.93 62.32 69.39 60.83 75.49 58.61 76.04 60.09"/><line class="cls-2" x1="72.44" y1="59.72" x2="73.17" y2="61.72"/><polyline class="cls-2" points="80.18 58.59 79.64 57.1 85.75 54.88 86.29 56.36"/><line class="cls-2" x1="82.69" y1="55.99" x2="83.42" y2="57.99"/><polyline class="cls-2" points="107.24 60.38 108.73 59.84 110.45 64.56 108.93 65.11"/><polyline class="cls-2" points="67.67 92 67.97 92.84 64.09 94.26 63.78 93.41"/><line class="cls-2" x1="98.85" y1="63.85" x2="97.37" y2="64.39"/><polyline class="cls-2" points="100.27 63.15 98.79 63.69 99.76 66.35 98.28 66.9"/><line class="cls-2" x1="99.7" y1="66.2" x2="101.18" y2="65.66"/><polyline class="cls-2" points="62.11 72.9 60.76 73.39 62.25 77.46 63.73 76.92"/><line class="cls-2" x1="60.65" y1="77.69" x2="62.13" y2="77.15"/><line class="cls-2" x1="61.33" y1="74.93" x2="60.1" y2="76.16"/><polyline class="cls-2" points="99.58 30.9 97.89 30.9 97.89 27.23 96.21 27.23"/><line class="cls-2" x1="99.58" y1="27.83" x2="97.89" y2="27.83"/><line class="cls-2" x1="96.21" y1="30.57" x2="97.9" y2="30.57"/><rect class="cls-2" x="105.86" y="43.29" width="5.97" height=".61"/><rect class="cls-2" x="79.15" y="43.29" width="5.55" height=".61"/><polyline class="cls-2" points="108.34 68.7 109.86 68.15 112 74.04 105.71 76.33 105.4 75.47"/><polyline class="cls-2" points="94.04 79.96 97.62 78.66 97.5 78.34"/><line class="cls-2" x1="82.59" y1="84.12" x2="85.93" y2="82.91"/><polyline class="cls-2" points="74.73 87.01 74.92 87.54 71.36 88.84"/><polygon class="cls-2" points="3.34 19.46 3.34 19 3.89 19 3.89 13.87 8.76 13.87 8.76 13.32 16.34 13.32 16.34 13.87 20.15 13.87 20.15 13.32 26.88 13.32 26.88 13.87 32.81 13.87 32.81 13.32 37.78 13.32 37.78 13.87 43.72 13.87 43.72 13.32 48.69 13.32 48.69 13.87 54.63 13.87 54.63 13.32 59.6 13.32 59.6 13.87 62.47 13.87 62.47 13.32 66.62 13.32 66.62 13.87 71.12 13.87 71.12 19.01 71.67 19.01 71.67 24.37 71.12 24.37 71.12 30.85 71.67 30.85 71.67 36.21 71.12 36.21 71.12 41.35 66.62 41.35 66.62 41.9 58.72 41.9 58.72 41.35 50.83 41.35 50.83 41.9 45.87 41.9 45.87 41.35 39.93 41.35 39.93 41.9 33.42 41.9 33.42 41.35 28.99 41.35 28.99 41.9 22.44 41.9 22.44 41.35 19.81 41.35 19.81 41.9 19.34 41.9 19.34 39.82 15.86 39.82 15.86 39.28 11.17 39.28 11.17 36.31 10.63 36.31 10.63 34.68 7.52 34.68 7.52 30.17 4.25 30.17 4.25 19.46 3.34 19.46"/><rect class="cls-2" x="10.76" y="26.58" width="53.87" height="2.06"/><line class="cls-2" x1="10.76" y1="27.61" x2="4.25" y2="27.61"/><polyline class="cls-2" points="19.47 28.64 19.47 39.82 19.34 39.82"/><line class="cls-2" x1="24.93" y1="28.64" x2="24.93" y2="41.9"/><polyline class="cls-2" points="30.45 28.64 30.45 31.88 37.37 31.88 37.37 28.64"/><polyline class="cls-2" points="37.42 41.9 37.42 31.88 37.37 31.88"/><line class="cls-2" x1="42.87" y1="41.35" x2="42.87" y2="28.64"/><line class="cls-2" x1="48.33" y1="41.9" x2="48.33" y2="28.64"/><line class="cls-2" x1="53.78" y1="41.35" x2="53.78" y2="29.72"/><polyline class="cls-2" points="53.73 28.72 53.73 29.72 56.39 29.72 56.39 28.64"/><polyline class="cls-2" points="59.55 28.64 59.55 35.1 62.64 35.1 62.64 28.64"/><line class="cls-2" x1="62.6" y1="41.9" x2="62.6" y2="35.1"/><line class="cls-2" x1="71.12" y1="27.61" x2="64.62" y2="27.61"/><polyline class="cls-2" points="62.6 26.58 62.6 13.87 62.47 13.87"/><line class="cls-2" x1="57.15" y1="26.58" x2="57.15" y2="13.32"/><line class="cls-2" x1="51.69" y1="26.58" x2="51.69" y2="13.87"/><line class="cls-2" x1="46.24" y1="26.58" x2="46.24" y2="13.32"/><line class="cls-2" x1="40.78" y1="26.58" x2="40.78" y2="13.87"/><line class="cls-2" x1="35.33" y1="26.58" x2="35.33" y2="13.32"/><line class="cls-2" x1="29.87" y1="26.58" x2="29.87" y2="13.87"/><line class="cls-2" x1="24.42" y1="26.58" x2="24.42" y2="13.32"/><polyline class="cls-2" points="12.74 26.47 12.74 20.1 15.83 20.1 15.83 26.58"/><polyline class="cls-2" points="18.7 26.58 18.7 25.49 15.83 25.49"/><line class="cls-2" x1="12.78" y1="20.1" x2="12.78" y2="13.32"/><polygon class="cls-2" points="103.5 50.1 107.34 60.64 106.83 60.83 108.32 64.93 108.8 64.75 108.94 65.13 107.27 65.74 108.43 68.94 107.91 69.13 109.46 73.39 105.44 74.85 105.63 75.38 97.26 78.43 96.76 77.05 93.42 78.26 94.05 79.98 85.94 82.93 85.31 81.21 81.98 82.43 82.6 84.15 74.49 87.1 73.87 85.38 70.53 86.59 71.94 90.43 67.39 92.07 66.78 90.39 63.42 91.61 64.04 93.32 58.18 95.45 57.99 94.94 53.75 96.48 52.36 92.66 51.85 92.85 50.41 88.89 52.68 88.06 51.26 84.18 53.23 83.46 50.34 75.5 50.85 75.31 49.09 70.48 53.2 68.98 53.01 68.47 60.26 65.83 60.45 66.35 64.03 65.04 63.85 64.53 70.19 62.22 70.38 62.73 75.96 60.7 75.77 60.19 80.44 58.49 80.63 59 86.21 56.97 86.02 56.46 103.5 50.1"/><polyline class="cls-2" points="95.67 67.05 93.28 60.48 90.57 61.46 92.97 68.04"/><polyline class="cls-2" points="95.86 60.27 98.95 68.7 96.86 69.46 96.65 68.89 58.05 82.94 57.35 81 95.68 67.05"/><rect class="cls-2" x="96.21" y="25.55" width="3.36" height="7.12"/><polyline class="cls-2" points="96.7 62.58 99.67 61.5 101.89 67.6 98.94 68.67"/><polyline class="cls-2" points="61.33 79.55 59.09 73.41 62.06 72.33 64.3 78.47"/><polyline class="cls-2" points="67.01 77.49 66.64 76.47 63.93 77.46"/><polyline class="cls-2" points="106.83 60.83 106.78 60.71 100.25 63.09"/><polyline class="cls-2" points="53.23 83.46 53.28 83.58 57.7 81.97"/><line class="cls-2" x1="56.92" y1="67.05" x2="59.21" y2="73.37"/><line class="cls-2" x1="67.86" y1="63.07" x2="72.39" y2="75.53"/><line class="cls-2" x1="73.17" y1="61.72" x2="77.52" y2="73.66"/><line class="cls-2" x1="78.11" y1="59.34" x2="82.64" y2="71.8"/><line class="cls-2" x1="83.42" y1="57.99" x2="87.77" y2="69.93"/><polyline class="cls-2" points="88.36 55.61 90.5 61.49 90.57 61.46"/><polyline class="cls-2" points="93.52 61.12 96.36 60.09 95.37 57.38 89.75 59.43"/><polyline class="cls-2" points="93.28 60.48 93.41 60.43 93.13 59.68 91.59 60.24 91.87 60.99"/><polyline class="cls-2" points="96.76 77.05 96.86 77.01 94.22 69.78"/><polyline class="cls-2" points="66.78 90.39 66.84 90.37 63.42 80.98"/><polyline class="cls-2" points="81.98 82.43 81.88 82.46 79.25 75.23"/><g class="cls-7"><rect class="cls-2" x="-233.62" y="-438.66" width="450.14" height="582.54"/></g><g><path class="cls-9" d="M88.58,94.98v3.91h2.46v.5h-3.07v-4.41h.61Z"/><path class="cls-9" d="M94.79,99.39h-3.15v-4.41h3.08v.5h-2.49v1.39h1.98v.5h-1.98v1.52h2.56v.5Z"/><path class="cls-9" d="M96.86,99.39l-1.77-4.41h.62l1.49,3.71h.03l1.45-3.71h.62l-1.78,4.41h-.66Z"/><path class="cls-9" d="M102.95,99.39h-3.15v-4.41h3.08v.5h-2.49v1.39h1.98v.5h-1.98v1.52h2.56v.5Z"/><path class="cls-9" d="M104.25,94.98v3.91h2.46v.5h-3.07v-4.41h.61Z"/><path class="cls-9" d="M108.91,97.36c.15-.51,.6-.9,1.32-.9,.95,0,1.55,.62,1.55,1.49,0,.91-.62,1.53-1.61,1.53-1.18,0-1.79-.85-1.79-2.21s.58-2.37,1.82-2.37c.88,0,1.46,.5,1.54,1.33l-.58,.02c-.08-.52-.37-.87-.97-.87-.9,0-1.28,.82-1.27,1.97Zm1.25,1.63c.65,0,1.04-.41,1.04-1.02s-.39-1.03-1.06-1.03-1.05,.41-1.05,1.03,.41,1.02,1.07,1.02Z"/></g><g class="cls-8"><rect class="cls-4" x="-512.65" y="-652.46" width="678.3" height="877.8"/></g><g><path class="cls-9" d="M5.72,4.11h.02l.65-2.62h.41l-.81,3.15h-.5l-.66-2.52h-.02l-.67,2.52h-.5l-.81-3.15h.42l.66,2.61h.02l.69-2.61h.41l.7,2.62Z"/><path class="cls-9" d="M9.4,4.64h-2.25V1.49h2.2v.36h-1.78v.99h1.42v.36h-1.42v1.09h1.83v.36Z"/><path class="cls-9" d="M10.05,3.49c.02,.58,.42,.87,.95,.87,.47,0,.77-.2,.77-.55,0-.29-.19-.43-.6-.51l-.62-.12c-.47-.09-.79-.34-.79-.83,0-.55,.44-.93,1.13-.93,.79,0,1.25,.42,1.25,1.13l-.4,.02c-.02-.52-.33-.82-.85-.82-.46,0-.71,.21-.71,.57,0,.31,.21,.41,.57,.48l.57,.11c.58,.11,.87,.36,.87,.87,0,.58-.5,.92-1.18,.92-.78,0-1.34-.42-1.34-1.19l.39-.03Z"/><path class="cls-9" d="M13.44,4.64V1.85h-1.15v-.36h2.74v.36h-1.17v2.79h-.43Z"/><path class="cls-9" d="M17.68,4.64h-1.34V1.49h1.29c.78,0,1.1,.34,1.1,.84,0,.37-.26,.62-.6,.68,.39,.07,.69,.32,.69,.77,0,.55-.4,.87-1.14,.87Zm-.92-1.79h.88c.46,0,.65-.2,.65-.5s-.19-.51-.65-.51h-.88v1.01Zm0,.34v1.1h.91c.47,0,.72-.21,.72-.55s-.25-.55-.72-.55h-.91Z"/><path class="cls-9" d="M19.26,3.44V1.49h.43v1.95c0,.6,.3,.9,.85,.9s.86-.29,.86-.89V1.49h.42v1.95c0,.92-.57,1.27-1.28,1.27s-1.28-.34-1.28-1.27Z"/><path class="cls-9" d="M22.81,1.49v3.15h-.43V1.49h.43Z"/><path class="cls-9" d="M23.85,1.49v2.79h1.76v.36h-2.19V1.49h.43Z"/><path class="cls-9" d="M26.04,1.49h1.14c.99,0,1.62,.59,1.62,1.58s-.63,1.58-1.62,1.58h-1.14V1.49Zm1.12,2.8c.77,0,1.19-.46,1.19-1.22s-.42-1.22-1.19-1.22h-.68v2.44h.68Z"/><path class="cls-9" d="M29.69,1.49v3.15h-.44V1.49h.44Z"/><path class="cls-9" d="M32.48,3.9V1.49h.41v3.15h-.35l-1.83-2.53v2.53h-.41V1.49h.45l1.73,2.41Z"/><path class="cls-9" d="M33.34,3.07c0-.97,.67-1.64,1.54-1.64s1.41,.5,1.46,1.3l-.42,.03c-.04-.58-.41-.96-1.04-.96s-1.1,.49-1.1,1.27,.46,1.27,1.14,1.27c.59,0,.97-.37,1.03-.91h-.96v-.34h1.36v1.56h-.4v-.56c-.14,.4-.58,.62-1.08,.62-.89,0-1.54-.66-1.54-1.64Z"/></g><g><path class="cls-9" d="M78.56,4.64h-2.25V1.49h2.2v.36h-1.78v.99h1.42v.36h-1.42v1.09h1.83v.36Z"/><path class="cls-9" d="M80.57,1.49l1.31,3.15h-.46l-.38-.93h-1.44l-.37,.93h-.42l1.29-3.15h.48Zm-.83,1.88h1.16l-.58-1.4h-.02l-.57,1.4Z"/><path class="cls-9" d="M82.41,3.49c.02,.58,.42,.87,.95,.87,.47,0,.77-.2,.77-.55,0-.29-.19-.43-.6-.51l-.62-.12c-.47-.09-.79-.34-.79-.83,0-.55,.44-.93,1.13-.93,.79,0,1.25,.42,1.25,1.13l-.4,.02c-.02-.52-.33-.82-.85-.82-.46,0-.71,.21-.71,.57,0,.31,.21,.41,.57,.48l.57,.11c.58,.11,.87,.36,.87,.87,0,.58-.5,.92-1.18,.92-.78,0-1.34-.42-1.34-1.19l.39-.03Z"/><path class="cls-9" d="M85.8,4.64V1.85h-1.15v-.36h2.74v.36h-1.17v2.79h-.43Z"/><path class="cls-9" d="M90.04,4.64h-1.34V1.49h1.29c.78,0,1.1,.34,1.1,.84,0,.37-.26,.62-.6,.68,.39,.07,.69,.32,.69,.77,0,.55-.4,.87-1.14,.87Zm-.92-1.79h.88c.46,0,.65-.2,.65-.5s-.2-.51-.65-.51h-.88v1.01Zm0,.34v1.1h.91c.47,0,.72-.21,.72-.55s-.25-.55-.72-.55h-.91Z"/><path class="cls-9" d="M91.62,3.44V1.49h.43v1.95c0,.6,.3,.9,.85,.9s.86-.29,.86-.89V1.49h.43v1.95c0,.92-.57,1.27-1.28,1.27s-1.28-.34-1.28-1.27Z"/><path class="cls-9" d="M95.17,1.49v3.15h-.44V1.49h.44Z"/><path class="cls-9" d="M96.22,1.49v2.79h1.76v.36h-2.19V1.49h.44Z"/><path class="cls-9" d="M98.4,1.49h1.14c.99,0,1.62,.59,1.62,1.58s-.62,1.58-1.62,1.58h-1.14V1.49Zm1.12,2.8c.77,0,1.19-.46,1.19-1.22s-.42-1.22-1.19-1.22h-.68v2.44h.68Z"/><path class="cls-9" d="M102.05,1.49v3.15h-.43V1.49h.43Z"/><path class="cls-9" d="M104.84,3.9V1.49h.41v3.15h-.34l-1.83-2.53v2.53h-.41V1.49h.45l1.73,2.41Z"/><path class="cls-9" d="M105.7,3.07c0-.97,.67-1.64,1.54-1.64s1.41,.5,1.46,1.3l-.42,.03c-.04-.58-.41-.96-1.04-.96s-1.1,.49-1.1,1.27,.46,1.27,1.14,1.27c.59,0,.97-.37,1.03-.91h-.96v-.34h1.36v1.56h-.4v-.56c-.14,.4-.58,.62-1.08,.62-.89,0-1.54-.66-1.54-1.64Z"/></g></g></svg>