<?xml version="1.0" encoding="UTF-8"?><svg id="Layer_1" xmlns="http://www.w3.org/2000/svg" xmlns:xlink="http://www.w3.org/1999/xlink" viewBox="0 0 118.55 100.65"><defs><style>.cls-1{stroke:#ebebec;}.cls-1,.cls-2{stroke-width:.31px;}.cls-1,.cls-2,.cls-3,.cls-4{fill:none;}.cls-1,.cls-2,.cls-4{stroke-linecap:round;stroke-linejoin:round;}.cls-2,.cls-4{stroke:#000;}.cls-5{fill:#f1b784;fill-rule:evenodd;}.cls-6{clip-path:url(#clippath);}.cls-7{clip-path:url(#clippath-3);}.cls-8{clip-path:url(#clippath-5);}.cls-9{fill:#333132;}.cls-4{stroke-width:.47px;}</style><clipPath id="clippath"><rect class="cls-3" x="-347.69" y="-648.31" width="612" height="792"/></clipPath><clipPath id="clippath-3"><rect class="cls-3" x="-4.39" y="-.51" width="261.05" height="107.75"/></clipPath><clipPath id="clippath-5"><rect class="cls-3" x="-347.69" y="-540.49" width="612" height="510.84"/></clipPath></defs><g class="cls-6"><polygon class="cls-5" points="37.36 31.93 37.31 31.88 30.39 31.88 30.39 28.64 24.87 28.64 24.87 41.9 28.93 41.9 28.93 41.35 33.36 41.35 33.36 41.9 37.36 41.9 37.36 31.93"/><polygon class="cls-1" points="37.36 31.93 37.31 31.88 30.39 31.88 30.39 28.64 24.87 28.64 24.87 41.89 28.93 41.89 28.93 41.35 33.36 41.35 33.36 41.89 37.36 41.89 37.36 31.93"/><line class="cls-2" x1="33.85" y1="31.88" x2="33.85" y2="28.64"/><polyline class="cls-2" points="37.31 31.88 33.85 28.64 30.39 31.88"/><polyline class="cls-2" points="37.31 28.64 33.85 31.88 30.39 28.64"/><line class="cls-2" x1="91.71" y1="64.75" x2="94.42" y2="63.76"/><polyline class="cls-2" points="92.91 68.04 94.42 63.76 90.52 61.46"/><polyline class="cls-2" points="95.62 67.05 91.71 64.75 93.22 60.48"/><polyline class="cls-2" points="3.29 19.29 2.13 19.29 2.13 11.74 8.98 11.74 8.98 13.32"/><polyline class="cls-2" points="16 13.32 16 11.74 20.37 11.74 20.37 13.32"/><polyline class="cls-2" points="26.57 13.32 26.57 11.74 33.07 11.74 33.07 13.32"/><line class="cls-2" x1="29.82" y1="11.74" x2="29.82" y2="13.87"/><polyline class="cls-2" points="71.61 35.93 73.13 35.93 73.13 43.48 66.28 43.48 66.28 41.9"/><polyline class="cls-2" points="58.94 41.9 58.94 43.48 50.49 43.48 50.49 41.9"/><line class="cls-2" x1="53.72" y1="41.35" x2="53.72" y2="43.48"/><polyline class="cls-2" points="46.06 41.9 46.06 43.48 39.57 43.48 39.57 41.9"/><line class="cls-2" x1="42.82" y1="41.35" x2="42.82" y2="43.48"/><polyline class="cls-2" points="33.64 41.9 33.64 43.48 28.65 43.48 28.65 41.9"/><polyline class="cls-2" points="22.67 41.9 22.67 43.48 19.34 43.48 19.34 41.9"/><polyline class="cls-2" points="16.08 39.82 16.08 41.4 12.58 41.4 12.58 39.28"/><polyline class="cls-2" points="15.78 24.95 14.23 24.95 14.23 20.1"/><line class="cls-2" x1="14.23" y1="24.61" x2="12.69" y2="24.61"/><line class="cls-2" x1="12.69" y1="22.97" x2="14.23" y2="22.25"/><polyline class="cls-2" points="62.58 30.47 61.03 30.47 61.03 35.1"/><line class="cls-2" x1="59.49" y1="33.23" x2="61.03" y2="32.51"/><line class="cls-2" x1="59.49" y1="30.87" x2="61.03" y2="30.87"/><polyline class="cls-2" points="58.39 95.36 58.69 96.2 52.19 98.57 50.21 93.12 51.7 92.58"/><polyline class="cls-2" points="50.38 75.77 48.83 76.33 46.25 69.23 52.68 66.89 53.22 68.38"/><polyline class="cls-2" points="59.97 65.92 59.43 64.43 63.54 62.94 64.08 64.42"/><polyline class="cls-2" points="69.87 62.32 69.33 60.83 75.44 58.61 75.98 60.09"/><line class="cls-2" x1="72.38" y1="59.72" x2="73.11" y2="61.72"/><polyline class="cls-2" points="80.12 58.59 79.58 57.1 85.69 54.88 86.23 56.36"/><line class="cls-2" x1="82.63" y1="55.99" x2="83.36" y2="57.99"/><polyline class="cls-2" points="80.94 46.94 79.35 46.94 79.35 43.9"/><polyline class="cls-2" points="80.94 40.24 79.35 40.24 79.35 43.29"/><polyline class="cls-2" points="80.94 35.75 79.35 35.75 79.35 29.25 80.94 29.25"/><line class="cls-2" x1="79.35" y1="32.5" x2="81.48" y2="32.5"/><polyline class="cls-2" points="109.51 24.75 111.09 24.75 111.09 28.9 109.51 28.9"/><polyline class="cls-2" points="109.51 32.35 111.09 32.35 111.09 35.75 109.51 35.75"/><polyline class="cls-2" points="109.51 40.24 111.09 40.24 111.09 43.29"/><polyline class="cls-2" points="111.09 43.9 111.09 46.94 109.51 46.94"/><polyline class="cls-2" points="107.18 60.38 108.67 59.84 110.39 64.56 108.87 65.11"/><polyline class="cls-2" points="108.29 68.7 109.8 68.15 112.18 74.69 105.89 76.98 105.34 75.47"/><polyline class="cls-2" points="67.54 92.01 67.85 92.87 64.03 94.26 63.72 93.42"/><line class="cls-2" x1="96.25" y1="43.59" x2="93.59" y2="43.59"/><line class="cls-2" x1="98.79" y1="63.85" x2="97.31" y2="64.39"/><polyline class="cls-2" points="100.21 63.15 98.73 63.69 99.7 66.35 98.23 66.9"/><line class="cls-2" x1="99.64" y1="66.2" x2="101.12" y2="65.66"/><polyline class="cls-2" points="62.06 72.9 60.71 73.39 62.19 77.46 63.67 76.92"/><line class="cls-2" x1="60.59" y1="77.69" x2="62.08" y2="77.15"/><line class="cls-2" x1="61.27" y1="74.93" x2="60.04" y2="76.16"/><polyline class="cls-2" points="99.42 30.9 97.84 30.9 97.84 27.9 96.25 27.9"/><line class="cls-2" x1="99.42" y1="28.23" x2="97.84" y2="28.23"/><line class="cls-2" x1="96.25" y1="30.57" x2="97.84" y2="30.57"/><line class="cls-2" x1="40.73" y1="13.87" x2="40.73" y2="11.74"/><polyline class="cls-2" points="93.98 79.96 97.56 78.66 97.44 78.34"/><line class="cls-2" x1="82.54" y1="84.12" x2="85.87" y2="82.91"/><polyline class="cls-2" points="74.68 87.01 74.87 87.54 71.3 88.84"/><polyline class="cls-2" points="103.54 12.15 103.54 10.57 111.09 10.57 111.09 17.48 109.51 17.48"/><polyline class="cls-2" points="80.94 17.48 79.35 17.48 79.35 10.57 86.91 10.57 86.91 12.15"/><polyline class="cls-2" points="80.94 21.07 79.35 21.07 79.35 24.47 80.94 24.47"/><polyline class="cls-2" points="37.48 13.32 37.48 11.74 43.97 11.74 43.97 13.32"/><line class="cls-2" x1="51.63" y1="13.87" x2="51.63" y2="11.74"/><polyline class="cls-2" points="48.38 13.32 48.38 11.74 54.88 11.74 54.88 13.32"/><polyline class="cls-2" points="59.26 13.32 59.26 11.74 62.69 11.74 62.69 13.32"/><polyline class="cls-2" points="66.28 13.32 66.28 11.74 73.13 11.74 73.13 19.29 71.61 19.29"/><polygon class="cls-2" points="3.29 19.46 3.29 19 3.83 19 3.83 13.87 8.7 13.87 8.7 13.32 16.28 13.32 16.28 13.87 20.09 13.87 20.09 13.32 26.82 13.32 26.82 13.87 32.76 13.87 32.76 13.32 37.73 13.32 37.73 13.87 43.66 13.87 43.66 13.32 48.63 13.32 48.63 13.87 54.57 13.87 54.57 13.32 59.54 13.32 59.54 13.87 62.41 13.87 62.41 13.32 66.56 13.32 66.56 13.87 71.07 13.87 71.07 19.01 71.61 19.01 71.61 24.37 71.07 24.37 71.07 30.85 71.61 30.85 71.61 36.21 71.07 36.21 71.07 41.35 66.56 41.35 66.56 41.9 58.66 41.9 58.66 41.35 50.77 41.35 50.77 41.9 45.82 41.9 45.82 41.35 39.88 41.35 39.88 41.9 33.36 41.9 33.36 41.35 28.93 41.35 28.93 41.9 22.38 41.9 22.38 41.35 19.75 41.35 19.75 41.9 19.29 41.9 19.29 39.82 15.8 39.82 15.8 39.28 11.12 39.28 11.12 36.31 10.57 36.31 10.57 34.68 7.46 34.68 7.46 30.17 4.19 30.17 4.19 19.46 3.29 19.46"/><rect class="cls-2" x="10.7" y="26.58" width="53.87" height="2.06"/><line class="cls-2" x1="10.7" y1="27.61" x2="4.19" y2="27.61"/><polyline class="cls-2" points="19.42 28.64 19.42 39.82 19.29 39.82"/><line class="cls-2" x1="24.87" y1="28.64" x2="24.87" y2="41.9"/><polyline class="cls-2" points="30.39 28.64 30.39 31.88 37.31 31.88 37.31 28.64"/><polyline class="cls-2" points="37.36 41.9 37.36 31.88 37.31 31.88"/><line class="cls-2" x1="42.82" y1="41.35" x2="42.82" y2="28.64"/><line class="cls-2" x1="48.27" y1="41.9" x2="48.27" y2="28.64"/><line class="cls-2" x1="53.72" y1="41.35" x2="53.72" y2="29.72"/><polyline class="cls-2" points="53.67 28.72 53.67 29.72 56.33 29.72 56.33 28.64"/><polyline class="cls-2" points="59.49 28.64 59.49 35.1 62.58 35.1 62.58 28.64"/><line class="cls-2" x1="62.54" y1="41.9" x2="62.54" y2="35.1"/><line class="cls-2" x1="71.07" y1="27.61" x2="64.57" y2="27.61"/><polyline class="cls-2" points="62.54 26.58 62.54 13.87 62.41 13.87"/><line class="cls-2" x1="57.09" y1="26.58" x2="57.09" y2="13.32"/><line class="cls-2" x1="51.63" y1="26.58" x2="51.63" y2="13.87"/><line class="cls-2" x1="46.18" y1="26.58" x2="46.18" y2="13.32"/><line class="cls-2" x1="40.73" y1="26.58" x2="40.73" y2="13.87"/><line class="cls-2" x1="35.27" y1="26.58" x2="35.27" y2="13.32"/><line class="cls-2" x1="29.82" y1="26.58" x2="29.82" y2="13.87"/><line class="cls-2" x1="24.36" y1="26.58" x2="24.36" y2="13.32"/><polyline class="cls-2" points="12.69 26.47 12.69 20.1 15.78 20.1 15.78 26.58"/><polyline class="cls-2" points="18.65 26.58 18.65 25.49 15.78 25.49"/><line class="cls-2" x1="12.72" y1="20.1" x2="12.72" y2="13.32"/><polygon class="cls-2" points="81.48 12.7 86.63 12.7 86.63 12.15 91.98 12.15 91.98 12.7 98.47 12.7 98.47 12.15 103.8 12.15 103.8 12.7 108.97 12.7 108.97 17.2 109.51 17.2 109.51 25.03 108.97 25.03 108.97 28.62 109.51 28.62 109.51 32.63 108.97 32.63 108.97 35.47 109.51 35.47 109.51 40.52 108.97 40.52 108.97 43.29 111.76 43.29 111.76 43.89 108.97 43.89 108.97 46.66 109.51 46.66 109.51 49.36 103.46 49.36 103.46 50.16 103.47 50.17 107.28 60.64 106.77 60.83 108.26 64.92 108.74 64.75 108.88 65.13 107.21 65.74 108.37 68.94 107.85 69.13 109.4 73.39 105.39 74.85 105.58 75.38 97.21 78.42 96.7 77.05 93.37 78.26 93.99 79.98 85.88 82.93 85.26 81.21 81.92 82.43 82.55 84.15 74.44 87.1 73.81 85.38 70.48 86.59 71.88 90.43 67.3 92.1 66.68 90.4 63.36 91.61 63.98 93.32 58.12 95.45 57.94 94.94 53.7 96.48 52.31 92.66 51.79 92.85 50.35 88.89 52.62 88.06 51.21 84.18 53.18 83.46 50.28 75.5 50.79 75.31 49.03 70.48 53.14 68.99 52.96 68.47 60.21 65.83 60.4 66.35 63.98 65.04 63.79 64.53 70.13 62.22 70.32 62.73 75.9 60.7 75.72 60.19 80.39 58.49 80.57 59 86.15 56.97 85.97 56.46 87.91 55.75 87.91 49.36 80.94 49.36 80.94 46.66 81.48 46.66 81.48 43.89 79.1 43.89 79.1 43.29 81.48 43.29 81.48 40.52 80.94 40.52 80.94 35.47 81.48 35.47 81.48 29.53 80.94 29.53 80.94 24.19 81.48 24.19 81.48 21.35 80.94 21.35 80.94 17.2 81.48 17.2 81.48 12.7"/><polyline class="cls-2" points="95.62 67.05 93.22 60.48 90.52 61.46 92.91 68.04"/><polyline class="cls-2" points="90.91 61.32 90.91 60.22 92.83 60.22 92.96 60.57"/><polyline class="cls-2" points="93.22 60.48 93.17 60.33 94.19 59.96 94.19 46.41 93.95 46.26 93.59 46.06 93.59 41.11 94.19 40.76 94.19 19.2 96.25 19.2 96.25 61.52 98.89 68.7 97.22 69.31 97.01 68.74 58 82.94 57.29 81 95.62 67.05"/><polyline class="cls-2" points="94.19 57.17 93.05 57.17 93.05 60.22 92.83 60.22"/><polyline class="cls-2" points="94.19 21.17 93.11 21.17 93.11 23.9 94.19 23.9"/><polyline class="cls-2" points="96.25 26.06 99.42 26.06 99.42 32.5 96.25 32.5"/><polyline class="cls-2" points="96.64 62.58 99.61 61.5 101.83 67.6 98.88 68.67"/><polyline class="cls-2" points="61.27 79.55 59.04 73.41 62 72.33 64.24 78.47"/><polyline class="cls-2" points="66.96 77.49 66.58 76.47 63.87 77.46"/><line class="cls-2" x1="95.22" y1="19.2" x2="95.22" y2="12.7"/><line class="cls-2" x1="96.25" y1="21.22" x2="109.51" y2="21.22"/><polyline class="cls-2" points="108.97 32.63 108.97 32.5 99.42 32.5"/><line class="cls-2" x1="109.51" y1="37.95" x2="96.25" y2="37.95"/><line class="cls-2" x1="96.25" y1="43.59" x2="111.76" y2="43.59"/><line class="cls-2" x1="79.1" y1="43.59" x2="93.59" y2="43.59"/><polyline class="cls-2" points="96.25 56.91 101.96 56.91 105.46 55.64"/><polyline class="cls-2" points="107.21 65.74 107.17 65.62 101.83 67.59"/><polyline class="cls-2" points="63.36 91.61 63.24 91.65 59.83 82.27"/><polyline class="cls-2" points="53.18 83.46 53.22 83.58 57.65 81.97"/><line class="cls-2" x1="56.86" y1="67.05" x2="59.16" y2="73.37"/><line class="cls-2" x1="67.8" y1="63.07" x2="72.33" y2="75.53"/><line class="cls-2" x1="73.11" y1="61.72" x2="77.46" y2="73.66"/><line class="cls-2" x1="78.05" y1="59.34" x2="82.58" y2="71.8"/><line class="cls-2" x1="83.36" y1="57.99" x2="87.71" y2="69.93"/><polyline class="cls-2" points="87.91 55.75 88.04 55.75 88.04 56.66 90.96 56.66 90.96 60.22"/><line class="cls-2" x1="80.94" y1="37.95" x2="94.19" y2="37.95"/><line class="cls-2" x1="81.48" y1="32.5" x2="94.19" y2="32.5"/><line class="cls-2" x1="80.94" y1="27.04" x2="94.19" y2="27.04"/><polyline class="cls-2" points="81.48 21.35 81.48 21.22 93.11 21.22"/><polyline class="cls-2" points="73.81 85.38 73.91 85.35 71.27 78.11"/><polyline class="cls-2" points="85.26 81.21 85.35 81.18 82.72 73.94"/><polyline class="cls-2" points="96.7 77.05 96.8 77.01 94.17 69.78"/><g class="cls-7"><rect class="cls-2" x="-99.28" y="-438.66" width="450.14" height="582.54"/></g><g><path class="cls-9" d="M88.39,94.98v3.91h2.46v.5h-3.07v-4.41h.61Z"/><path class="cls-9" d="M94.59,99.39h-3.15v-4.41h3.08v.5h-2.49v1.39h1.98v.5h-1.98v1.52h2.56v.5Z"/><path class="cls-9" d="M96.66,99.39l-1.77-4.41h.62l1.49,3.71h.03l1.45-3.71h.62l-1.78,4.41h-.66Z"/><path class="cls-9" d="M102.76,99.39h-3.15v-4.41h3.08v.5h-2.49v1.39h1.98v.5h-1.98v1.52h2.56v.5Z"/><path class="cls-9" d="M104.06,94.98v3.91h2.46v.5h-3.07v-4.41h.61Z"/><path class="cls-9" d="M111.37,98.87v.53h-3.24v-.35l1.25-1.07c.69-.6,1.21-1.05,1.21-1.69,0-.52-.29-.88-.88-.88s-.94,.38-.94,1.03c0,.13,.01,.27,.05,.4l-.6-.03c-.03-.14-.05-.28-.05-.41,0-.9,.61-1.48,1.55-1.48,1.03,0,1.5,.6,1.5,1.35,0,.8-.68,1.41-1.32,1.93l-.83,.69h2.3Z"/><path class="cls-9" d="M111.64,97.35h1.61v.52h-1.61v-.52Z"/><path class="cls-9" d="M116.84,95.53h-2.12c0,.24-.11,1.14-.16,1.37,.2-.25,.56-.45,1.05-.45,1,0,1.52,.67,1.52,1.48,0,.92-.64,1.55-1.6,1.55-1.06,0-1.67-.67-1.62-1.65l.59,.05c0,.67,.36,1.11,1.05,1.11,.62,0,1-.41,1-1.06,0-.58-.38-1.01-1-1.01-.49,0-.81,.26-.97,.56l-.6-.04c.11-.61,.26-1.74,.28-2.46h2.58v.55Z"/></g><g class="cls-8"><rect class="cls-4" x="-378.31" y="-652.46" width="678.3" height="877.8"/></g><g><path class="cls-9" d="M5.91,4.11h.02l.65-2.62h.41l-.81,3.15h-.5l-.66-2.52h-.02l-.67,2.52h-.5l-.81-3.15h.42l.66,2.61h.02l.69-2.61h.41l.7,2.62Z"/><path class="cls-9" d="M9.59,4.64h-2.25V1.49h2.2v.36h-1.78v.99h1.42v.36h-1.42v1.09h1.83v.36Z"/><path class="cls-9" d="M10.23,3.49c.02,.58,.42,.87,.95,.87,.47,0,.77-.2,.77-.55,0-.29-.19-.43-.6-.51l-.62-.12c-.47-.09-.79-.34-.79-.83,0-.55,.44-.93,1.13-.93,.79,0,1.25,.42,1.25,1.13l-.4,.02c-.02-.52-.33-.82-.85-.82-.46,0-.71,.21-.71,.57,0,.31,.21,.41,.57,.48l.57,.11c.58,.11,.87,.36,.87,.87,0,.58-.5,.92-1.18,.92-.78,0-1.34-.42-1.34-1.19l.39-.03Z"/><path class="cls-9" d="M13.62,4.64V1.85h-1.15v-.36h2.74v.36h-1.17v2.79h-.43Z"/><path class="cls-9" d="M17.86,4.64h-1.34V1.49h1.29c.78,0,1.1,.34,1.1,.84,0,.37-.26,.62-.6,.68,.39,.07,.69,.32,.69,.77,0,.55-.4,.87-1.14,.87Zm-.92-1.79h.88c.46,0,.65-.2,.65-.5s-.19-.51-.65-.51h-.88v1.01Zm0,.34v1.1h.91c.47,0,.72-.21,.72-.55s-.25-.55-.72-.55h-.91Z"/><path class="cls-9" d="M19.44,3.44V1.49h.43v1.95c0,.6,.3,.9,.85,.9s.86-.29,.86-.89V1.49h.42v1.95c0,.92-.57,1.27-1.28,1.27s-1.28-.34-1.28-1.27Z"/><path class="cls-9" d="M22.99,1.49v3.15h-.43V1.49h.43Z"/><path class="cls-9" d="M24.04,1.49v2.79h1.76v.36h-2.19V1.49h.43Z"/><path class="cls-9" d="M26.22,1.49h1.14c.99,0,1.62,.59,1.62,1.58s-.63,1.58-1.62,1.58h-1.14V1.49Zm1.12,2.8c.77,0,1.19-.46,1.19-1.22s-.42-1.22-1.19-1.22h-.68v2.44h.68Z"/><path class="cls-9" d="M29.87,1.49v3.15h-.44V1.49h.44Z"/><path class="cls-9" d="M32.66,3.9V1.49h.41v3.15h-.35l-1.83-2.53v2.53h-.41V1.49h.45l1.73,2.41Z"/><path class="cls-9" d="M33.53,3.07c0-.97,.67-1.64,1.54-1.64s1.41,.5,1.46,1.3l-.42,.03c-.04-.58-.41-.96-1.04-.96s-1.1,.49-1.1,1.27,.46,1.27,1.14,1.27c.59,0,.97-.37,1.03-.91h-.96v-.34h1.36v1.56h-.4v-.56c-.14,.4-.58,.62-1.08,.62-.89,0-1.54-.66-1.54-1.64Z"/></g><g><path class="cls-9" d="M78.74,4.64h-2.25V1.49h2.2v.36h-1.78v.99h1.42v.36h-1.42v1.09h1.83v.36Z"/><path class="cls-9" d="M80.75,1.49l1.31,3.15h-.46l-.38-.93h-1.44l-.37,.93h-.42l1.29-3.15h.48Zm-.83,1.88h1.16l-.58-1.4h-.02l-.57,1.4Z"/><path class="cls-9" d="M82.59,3.49c.02,.58,.42,.87,.95,.87,.47,0,.77-.2,.77-.55,0-.29-.19-.43-.6-.51l-.62-.12c-.47-.09-.79-.34-.79-.83,0-.55,.44-.93,1.13-.93,.79,0,1.25,.42,1.25,1.13l-.4,.02c-.02-.52-.33-.82-.85-.82-.46,0-.71,.21-.71,.57,0,.31,.21,.41,.57,.48l.57,.11c.58,.11,.87,.36,.87,.87,0,.58-.5,.92-1.18,.92-.78,0-1.34-.42-1.34-1.19l.39-.03Z"/><path class="cls-9" d="M85.98,4.64V1.85h-1.15v-.36h2.74v.36h-1.17v2.79h-.43Z"/><path class="cls-9" d="M90.22,4.64h-1.34V1.49h1.29c.78,0,1.1,.34,1.1,.84,0,.37-.26,.62-.6,.68,.39,.07,.69,.32,.69,.77,0,.55-.4,.87-1.14,.87Zm-.92-1.79h.88c.46,0,.65-.2,.65-.5s-.2-.51-.65-.51h-.88v1.01Zm0,.34v1.1h.91c.47,0,.72-.21,.72-.55s-.25-.55-.72-.55h-.91Z"/><path class="cls-9" d="M91.8,3.44V1.49h.43v1.95c0,.6,.3,.9,.85,.9s.86-.29,.86-.89V1.49h.43v1.95c0,.92-.57,1.27-1.28,1.27s-1.28-.34-1.28-1.27Z"/><path class="cls-9" d="M95.35,1.49v3.15h-.44V1.49h.44Z"/><path class="cls-9" d="M96.4,1.49v2.79h1.76v.36h-2.19V1.49h.44Z"/><path class="cls-9" d="M98.58,1.49h1.14c.99,0,1.62,.59,1.62,1.58s-.62,1.58-1.62,1.58h-1.14V1.49Zm1.12,2.8c.77,0,1.19-.46,1.19-1.22s-.42-1.22-1.19-1.22h-.68v2.44h.68Z"/><path class="cls-9" d="M102.23,1.49v3.15h-.43V1.49h.43Z"/><path class="cls-9" d="M105.02,3.9V1.49h.41v3.15h-.34l-1.83-2.53v2.53h-.41V1.49h.45l1.73,2.41Z"/><path class="cls-9" d="M105.89,3.07c0-.97,.67-1.64,1.54-1.64s1.41,.5,1.46,1.3l-.42,.03c-.04-.58-.41-.96-1.04-.96s-1.1,.49-1.1,1.27,.46,1.27,1.14,1.27c.59,0,.97-.37,1.03-.91h-.96v-.34h1.36v1.56h-.4v-.56c-.14,.4-.58,.62-1.08,.62-.89,0-1.54-.66-1.54-1.64Z"/></g></g></svg>