<?xml version="1.0" encoding="UTF-8"?><svg xmlns="http://www.w3.org/2000/svg" xmlns:xlink="http://www.w3.org/1999/xlink" viewBox="0 0 113.43 101.97"><defs><style>.cls-1{isolation:isolate;}.cls-2{stroke:#ebebec;}.cls-2,.cls-3{stroke-width:.31px;}.cls-2,.cls-3,.cls-4,.cls-5{fill:none;}.cls-2,.cls-3,.cls-5{stroke-linecap:round;stroke-linejoin:round;}.cls-6{clip-path:url(#clippath-6);}.cls-7{clip-path:url(#clippath-7);}.cls-3,.cls-5{stroke:#000;}.cls-8{fill:#f1b784;fill-rule:evenodd;}.cls-9{clip-path:url(#clippath);}.cls-10{clip-path:url(#clippath-3);}.cls-11{clip-path:url(#clippath-5);}.cls-12{fill:#333132;}.cls-13{mix-blend-mode:multiply;}.cls-5{stroke-width:.47px;}</style><clipPath id="clippath"><rect class="cls-4" x="-481.52" y="-648.54" width="612" height="792"/></clipPath><clipPath id="clippath-3"><rect class="cls-4" x="-45.02" y="-.44" width="175.5" height="105.29"/></clipPath><clipPath id="clippath-5"><rect class="cls-4" x="-481.52" y="-648.54" width="612" height="792"/></clipPath><clipPath id="clippath-6"><rect class="cls-4" x="-535.49" y="-537.94" width="660.97" height="532.64"/></clipPath><clipPath id="clippath-7"><rect class="cls-4" x="-534.49" y="-536.94" width="658.97" height="530.64"/></clipPath></defs><g class="cls-1"><g id="Layer_1"><g class="cls-9"><polygon class="cls-8" points="94.08 48.02 93.83 47.88 93.47 47.67 93.47 45.21 78.98 45.21 78.98 45.51 81.36 45.51 81.36 48.28 80.82 48.28 80.82 50.97 87.8 50.97 87.8 57.37 87.93 57.37 87.93 58.27 90.84 58.27 90.84 61.84 92.71 61.84 92.93 61.84 92.93 58.79 94.08 58.79 94.08 48.02"/><polygon class="cls-2" points="94.08 48.02 93.83 47.88 93.47 47.67 93.47 45.21 78.98 45.21 78.98 45.51 81.37 45.51 81.37 48.28 80.82 48.28 80.82 50.98 87.8 50.98 87.8 57.37 87.93 57.37 87.93 58.27 90.84 58.27 90.84 61.84 92.71 61.84 92.93 61.84 92.93 58.79 94.08 58.79 94.08 48.02"/><line class="cls-3" x1="33.73" y1="33.5" x2="33.73" y2="30.26"/><polyline class="cls-3" points="37.19 33.5 33.73 30.26 30.27 33.5"/><polyline class="cls-3" points="37.19 30.26 33.73 33.5 30.27 30.26"/><line class="cls-3" x1="91.59" y1="66.37" x2="94.3" y2="65.38"/><polyline class="cls-3" points="92.79 69.66 94.3 65.38 90.4 63.08"/><polyline class="cls-3" points="95.5 68.67 91.59 66.37 93.11 62.09"/><polyline class="cls-3" points="3.17 20.91 2.02 20.91 2.02 13.36 8.86 13.36 8.86 14.94"/><polyline class="cls-3" points="15.89 14.94 15.89 13.36 20.26 13.36 20.26 14.94"/><polyline class="cls-3" points="26.45 14.94 26.45 13.36 32.95 13.36 32.95 14.94"/><line class="cls-3" x1="29.7" y1="13.36" x2="29.7" y2="15.49"/><polyline class="cls-3" points="71.49 37.54 73.01 37.54 73.01 45.1 66.16 45.1 66.16 43.51"/><polyline class="cls-3" points="58.82 43.51 58.82 45.1 50.37 45.1 50.37 43.51"/><line class="cls-3" x1="53.61" y1="42.97" x2="53.61" y2="45.1"/><polyline class="cls-3" points="45.95 43.51 45.95 45.1 39.45 45.1 39.45 43.51"/><line class="cls-3" x1="42.7" y1="42.97" x2="42.7" y2="45.1"/><polyline class="cls-3" points="33.52 43.51 33.52 45.1 28.53 45.1 28.53 43.51"/><polyline class="cls-3" points="22.55 43.51 22.55 45.1 19.22 45.1 19.22 43.52"/><polyline class="cls-3" points="15.96 41.44 15.96 43.02 12.46 43.02 12.46 40.9"/><polyline class="cls-3" points="15.66 26.57 14.11 26.57 14.11 21.72"/><line class="cls-3" x1="14.11" y1="26.22" x2="12.57" y2="26.22"/><line class="cls-3" x1="12.57" y1="24.59" x2="14.11" y2="23.86"/><polyline class="cls-3" points="62.46 32.09 60.92 32.09 60.92 36.72"/><line class="cls-3" x1="59.37" y1="34.85" x2="60.92" y2="34.13"/><line class="cls-3" x1="59.37" y1="32.49" x2="60.92" y2="32.49"/><polyline class="cls-3" points="58.27 96.98 58.57 97.82 52.07 100.19 50.09 94.74 51.58 94.2"/><polyline class="cls-3" points="50.26 77.38 48.71 77.95 46.13 70.85 52.56 68.51 53.1 70"/><polyline class="cls-3" points="59.86 67.54 59.31 66.05 63.42 64.56 63.96 66.04"/><polyline class="cls-3" points="69.75 63.94 69.21 62.45 75.32 60.23 75.86 61.71"/><line class="cls-3" x1="72.27" y1="61.34" x2="72.99" y2="63.34"/><polyline class="cls-3" points="80 60.2 79.46 58.72 85.57 56.49 86.11 57.98"/><line class="cls-3" x1="82.52" y1="57.61" x2="83.24" y2="59.61"/><polyline class="cls-3" points="80.82 48.56 79.24 48.56 79.24 45.51"/><polyline class="cls-3" points="80.82 41.86 79.24 41.86 79.24 44.9"/><polyline class="cls-3" points="80.82 37.37 79.24 37.37 79.24 30.87 80.82 30.87"/><line class="cls-3" x1="79.24" y1="34.12" x2="81.37" y2="34.12"/><polyline class="cls-3" points="109.39 26.37 110.98 26.37 110.98 30.52 109.39 30.52"/><polyline class="cls-3" points="109.39 33.97 110.98 33.97 110.98 37.37 109.39 37.37"/><polyline class="cls-3" points="109.39 41.86 110.98 41.86 110.98 44.9"/><polyline class="cls-3" points="110.98 45.51 110.98 48.56 109.39 48.56"/><polyline class="cls-3" points="107.07 62 108.55 61.46 110.27 66.17 108.76 66.73"/><polyline class="cls-3" points="108.17 70.32 109.68 69.77 112.06 76.31 105.77 78.6 105.22 77.08"/><polyline class="cls-3" points="67.42 93.63 67.73 94.49 63.91 95.88 63.6 95.03"/><line class="cls-3" x1="96.14" y1="45.21" x2="93.47" y2="45.21"/><line class="cls-3" x1="98.67" y1="65.47" x2="97.19" y2="66.01"/><polyline class="cls-3" points="100.09 64.77 98.61 65.31 99.58 67.97 98.11 68.51"/><line class="cls-3" x1="99.52" y1="67.81" x2="101.01" y2="67.27"/><polyline class="cls-3" points="61.94 74.51 60.59 75.01 62.07 79.08 63.55 78.54"/><line class="cls-3" x1="60.48" y1="79.3" x2="61.96" y2="78.76"/><line class="cls-3" x1="61.15" y1="76.55" x2="59.92" y2="77.78"/><polyline class="cls-3" points="99.3 32.52 97.72 32.52 97.72 29.52 96.14 29.52"/><line class="cls-3" x1="99.3" y1="29.85" x2="97.72" y2="29.85"/><line class="cls-3" x1="96.14" y1="32.18" x2="97.72" y2="32.18"/><line class="cls-3" x1="40.61" y1="15.49" x2="40.61" y2="13.36"/><polyline class="cls-3" points="93.86 81.58 97.44 80.27 97.33 79.96"/><line class="cls-3" x1="82.42" y1="85.74" x2="85.76" y2="84.53"/><polyline class="cls-3" points="74.56 88.63 74.75 89.16 71.18 90.46"/><polyline class="cls-3" points="103.42 13.77 103.42 12.19 110.98 12.19 110.98 19.1 109.39 19.1"/><polyline class="cls-3" points="80.82 19.1 79.24 19.1 79.24 12.19 86.79 12.19 86.79 13.77"/><polyline class="cls-3" points="80.82 22.69 79.24 22.69 79.24 26.09 80.82 26.09"/><polyline class="cls-3" points="37.36 14.94 37.36 13.36 43.86 13.36 43.86 14.94"/><line class="cls-3" x1="51.52" y1="15.49" x2="51.52" y2="13.36"/><polyline class="cls-3" points="48.27 14.94 48.27 13.36 54.77 13.36 54.77 14.94"/><polyline class="cls-3" points="59.14 14.94 59.14 13.36 62.57 13.36 62.57 14.94"/><polyline class="cls-3" points="66.16 14.94 66.16 13.36 73.01 13.36 73.01 20.91 71.49 20.91"/><polygon class="cls-3" points="3.17 21.08 3.17 20.61 3.71 20.61 3.71 15.49 8.58 15.49 8.58 14.94 16.17 14.94 16.17 15.49 19.98 15.49 19.98 14.94 26.7 14.94 26.7 15.49 32.64 15.49 32.64 14.94 37.61 14.94 37.61 15.49 43.55 15.49 43.55 14.94 48.52 14.94 48.52 15.49 54.45 15.49 54.45 14.94 59.42 14.94 59.42 15.49 62.29 15.49 62.29 14.94 66.44 14.94 66.44 15.49 70.95 15.49 70.95 20.63 71.49 20.63 71.49 25.99 70.95 25.99 70.95 32.47 71.49 32.47 71.49 37.82 70.95 37.82 70.95 42.97 66.44 42.97 66.44 43.51 58.54 43.51 58.54 42.97 50.65 42.97 50.65 43.51 45.7 43.51 45.7 42.97 39.76 42.97 39.76 43.51 33.24 43.51 33.24 42.97 28.81 42.97 28.81 43.51 22.27 43.51 22.27 42.97 19.63 42.97 19.63 43.52 19.17 43.52 19.17 41.44 15.68 41.44 15.68 40.89 11 40.89 11 37.93 10.45 37.93 10.45 36.29 7.34 36.29 7.34 31.79 4.08 31.79 4.08 21.08 3.17 21.08"/><rect class="cls-3" x="10.58" y="28.2" width="53.87" height="2.06"/><line class="cls-3" x1="10.58" y1="29.23" x2="4.08" y2="29.23"/><polyline class="cls-3" points="19.3 30.26 19.3 41.44 19.17 41.44"/><line class="cls-3" x1="24.75" y1="30.26" x2="24.75" y2="43.51"/><polyline class="cls-3" points="30.27 30.26 30.27 33.5 37.19 33.5 37.19 30.26"/><polyline class="cls-3" points="37.24 43.51 37.24 33.5 37.19 33.5"/><line class="cls-3" x1="42.7" y1="42.97" x2="42.7" y2="30.26"/><line class="cls-3" x1="48.15" y1="43.51" x2="48.15" y2="30.26"/><line class="cls-3" x1="53.61" y1="42.97" x2="53.61" y2="31.34"/><polyline class="cls-3" points="53.55 30.34 53.55 31.34 56.21 31.34 56.21 30.26"/><polyline class="cls-3" points="59.37 30.26 59.37 36.72 62.46 36.72 62.46 30.26"/><line class="cls-3" x1="62.42" y1="43.51" x2="62.42" y2="36.72"/><line class="cls-3" x1="70.95" y1="29.23" x2="64.45" y2="29.23"/><polyline class="cls-3" points="62.42 28.2 62.42 15.49 62.29 15.49"/><line class="cls-3" x1="56.97" y1="28.2" x2="56.97" y2="14.94"/><line class="cls-3" x1="51.52" y1="28.2" x2="51.52" y2="15.49"/><line class="cls-3" x1="46.06" y1="28.2" x2="46.06" y2="14.94"/><line class="cls-3" x1="40.61" y1="28.2" x2="40.61" y2="15.49"/><line class="cls-3" x1="35.15" y1="28.2" x2="35.15" y2="14.94"/><line class="cls-3" x1="29.7" y1="28.2" x2="29.7" y2="15.49"/><line class="cls-3" x1="24.25" y1="28.2" x2="24.25" y2="14.94"/><polyline class="cls-3" points="12.57 28.09 12.57 21.72 15.66 21.72 15.66 28.2"/><polyline class="cls-3" points="18.53 28.2 18.53 27.11 15.66 27.11"/><line class="cls-3" x1="12.61" y1="21.72" x2="12.61" y2="14.94"/><polygon class="cls-3" points="81.37 14.32 86.51 14.32 86.51 13.77 91.86 13.77 91.86 14.32 98.35 14.32 98.35 13.77 103.68 13.77 103.68 14.32 108.85 14.32 108.85 18.82 109.39 18.82 109.39 26.65 108.85 26.65 108.85 30.24 109.39 30.24 109.39 34.25 108.85 34.25 108.85 37.09 109.39 37.09 109.39 42.14 108.85 42.14 108.85 44.9 111.65 44.9 111.65 45.51 108.85 45.51 108.85 48.28 109.39 48.28 109.39 50.98 103.34 50.98 103.34 51.78 103.35 51.79 107.16 62.26 106.65 62.45 108.14 66.54 108.62 66.37 108.76 66.75 107.09 67.36 108.26 70.56 107.73 70.75 109.28 75.01 105.27 76.47 105.46 77 97.09 80.04 96.59 78.67 93.25 79.88 93.87 81.6 85.77 84.55 85.14 82.83 81.8 84.05 82.43 85.77 74.32 88.72 73.69 87 70.37 88.21 71.76 92.05 67.18 93.71 66.57 92.02 63.24 93.23 63.87 94.94 58 97.07 57.82 96.56 53.58 98.1 52.19 94.28 51.68 94.47 50.24 90.51 52.5 89.68 51.09 85.8 53.06 85.08 50.16 77.12 50.68 76.93 48.92 72.1 53.03 70.6 52.84 70.09 60.09 67.45 60.28 67.97 63.86 66.66 63.67 66.15 70.02 63.84 70.2 64.35 75.78 62.32 75.6 61.81 80.27 60.11 80.45 60.62 86.03 58.59 85.85 58.08 87.8 57.37 87.8 50.98 80.82 50.98 80.82 48.28 81.37 48.28 81.37 45.51 78.98 45.51 78.98 44.9 81.37 44.9 81.37 42.14 80.82 42.14 80.82 37.09 81.37 37.09 81.37 31.15 80.82 31.15 80.82 25.81 81.37 25.81 81.37 22.97 80.82 22.97 80.82 18.82 81.37 18.82 81.37 14.32"/><polyline class="cls-3" points="95.5 68.67 93.11 62.09 90.4 63.08 92.79 69.66"/><polyline class="cls-3" points="90.79 62.94 90.79 61.84 92.71 61.84 92.84 62.19"/><polyline class="cls-3" points="93.11 62.09 93.05 61.95 94.08 61.58 94.08 48.02 93.83 47.88 93.47 47.67 93.47 42.73 94.08 42.38 94.08 20.82 96.14 20.82 96.14 63.14 98.77 70.31 97.1 70.93 96.89 70.36 57.88 84.56 57.17 82.62 95.5 68.67"/><polyline class="cls-3" points="94.08 58.79 92.93 58.79 92.93 61.84 92.71 61.84"/><polyline class="cls-3" points="94.08 22.79 92.99 22.79 92.99 25.52 94.08 25.52"/><polyline class="cls-3" points="96.14 27.68 99.3 27.68 99.3 34.12 96.14 34.12"/><polyline class="cls-3" points="96.53 64.2 99.49 63.12 101.71 69.22 98.76 70.29"/><polyline class="cls-3" points="61.16 81.17 58.92 75.03 61.88 73.95 64.12 80.09"/><polyline class="cls-3" points="66.84 79.1 66.47 78.09 63.75 79.08"/><line class="cls-3" x1="95.11" y1="20.82" x2="95.11" y2="14.32"/><line class="cls-3" x1="96.14" y1="22.84" x2="109.39" y2="22.84"/><polyline class="cls-3" points="108.85 34.25 108.85 34.12 99.3 34.12"/><line class="cls-3" x1="109.39" y1="39.57" x2="96.14" y2="39.57"/><line class="cls-3" x1="96.14" y1="45.21" x2="111.65" y2="45.21"/><line class="cls-3" x1="78.98" y1="45.21" x2="93.47" y2="45.21"/><polyline class="cls-3" points="96.14 58.53 101.84 58.53 105.34 57.26"/><polyline class="cls-3" points="107.09 67.36 107.05 67.24 101.71 69.21"/><polyline class="cls-3" points="63.24 93.23 63.12 93.27 59.71 83.89"/><polyline class="cls-3" points="53.06 85.08 53.1 85.2 57.53 83.59"/><line class="cls-3" x1="56.74" y1="68.67" x2="59.04" y2="74.98"/><line class="cls-3" x1="67.68" y1="64.69" x2="72.22" y2="77.15"/><line class="cls-3" x1="72.99" y1="63.34" x2="77.34" y2="75.28"/><line class="cls-3" x1="77.93" y1="60.96" x2="82.47" y2="73.42"/><line class="cls-3" x1="83.24" y1="59.61" x2="87.59" y2="71.55"/><polyline class="cls-3" points="87.8 57.37 87.93 57.37 87.93 58.27 90.84 58.27 90.84 61.84"/><line class="cls-3" x1="80.82" y1="39.57" x2="94.08" y2="39.57"/><line class="cls-3" x1="81.37" y1="34.12" x2="94.08" y2="34.12"/><line class="cls-3" x1="80.82" y1="28.66" x2="94.08" y2="28.66"/><polyline class="cls-3" points="81.37 22.97 81.37 22.84 92.99 22.84"/><polyline class="cls-3" points="73.69 87 73.79 86.96 71.16 79.73"/><polyline class="cls-3" points="85.14 82.83 85.24 82.8 82.6 75.56"/><polyline class="cls-3" points="96.59 78.67 96.68 78.63 94.05 71.39"/><g class="cls-10"><rect class="cls-3" x="-166.6" y="-437.05" width="450.14" height="582.54"/></g><g><path class="cls-12" d="M89.25,94.75v3.91h2.46v.5h-3.07v-4.41h.61Z"/><path class="cls-12" d="M95.46,99.16h-3.15v-4.41h3.08v.5h-2.49v1.39h1.98v.5h-1.98v1.52h2.56v.5Z"/><path class="cls-12" d="M97.53,99.16l-1.77-4.41h.62l1.49,3.71h.03l1.45-3.71h.62l-1.78,4.41h-.66Z"/><path class="cls-12" d="M103.62,99.16h-3.15v-4.41h3.08v.5h-2.49v1.39h1.98v.5h-1.98v1.52h2.56v.5Z"/><path class="cls-12" d="M104.92,94.75v3.91h2.46v.5h-3.07v-4.41h.61Z"/><path class="cls-12" d="M112,95.3h-2.12c0,.24-.11,1.14-.16,1.37,.2-.25,.56-.45,1.05-.45,1,0,1.52,.67,1.52,1.48,0,.92-.64,1.55-1.6,1.55-1.06,0-1.67-.67-1.62-1.65l.59,.05c0,.67,.36,1.11,1.05,1.11,.62,0,1-.41,1-1.06,0-.58-.38-1.01-1-1.01-.49,0-.81,.26-.97,.56l-.6-.04c.11-.61,.26-1.74,.28-2.46h2.58v.55Z"/></g><g class="cls-11"><g class="cls-13"><g class="cls-6"><g class="cls-7"><rect class="cls-5" x="-544.16" y="-654.18" width="678.3" height="877.8"/></g></g></g></g><g><path class="cls-12" d="M6.47,3.88h.02l.65-2.62h.41l-.81,3.15h-.5l-.66-2.52h-.02l-.67,2.52h-.5l-.81-3.15h.42l.66,2.61h.02l.69-2.61h.41l.7,2.62Z"/><path class="cls-12" d="M10.15,4.41h-2.25V1.26h2.2v.36h-1.78v.99h1.42v.36h-1.42v1.09h1.83v.36Z"/><path class="cls-12" d="M10.79,3.26c.02,.58,.42,.87,.95,.87,.47,0,.77-.2,.77-.55,0-.29-.19-.43-.6-.51l-.62-.12c-.47-.09-.79-.34-.79-.83,0-.55,.44-.93,1.13-.93,.79,0,1.25,.42,1.25,1.13l-.4,.02c-.02-.52-.33-.82-.85-.82-.46,0-.71,.21-.71,.57,0,.31,.21,.41,.57,.48l.57,.11c.58,.11,.87,.36,.87,.87,0,.58-.5,.92-1.18,.92-.78,0-1.34-.42-1.34-1.19l.39-.03Z"/><path class="cls-12" d="M14.18,4.41V1.62h-1.15v-.36h2.74v.36h-1.17v2.79h-.43Z"/><path class="cls-12" d="M18.43,4.41h-1.34V1.26h1.29c.78,0,1.1,.34,1.1,.84,0,.37-.26,.62-.6,.68,.39,.07,.69,.32,.69,.77,0,.55-.4,.87-1.14,.87Zm-.92-1.79h.88c.46,0,.65-.2,.65-.5s-.19-.51-.65-.51h-.88v1.01Zm0,.34v1.1h.91c.47,0,.72-.21,.72-.55s-.25-.55-.72-.55h-.91Z"/><path class="cls-12" d="M20,3.21V1.26h.43v1.95c0,.6,.3,.9,.85,.9s.86-.29,.86-.89V1.26h.42v1.95c0,.92-.57,1.27-1.28,1.27s-1.28-.34-1.28-1.27Z"/><path class="cls-12" d="M23.56,1.26v3.15h-.43V1.26h.43Z"/><path class="cls-12" d="M24.6,1.26v2.79h1.76v.36h-2.19V1.26h.43Z"/><path class="cls-12" d="M26.79,1.26h1.14c.99,0,1.62,.59,1.62,1.58s-.63,1.58-1.62,1.58h-1.14V1.26Zm1.12,2.8c.77,0,1.19-.46,1.19-1.22s-.42-1.22-1.19-1.22h-.68v2.44h.68Z"/><path class="cls-12" d="M30.44,1.26v3.15h-.44V1.26h.44Z"/><path class="cls-12" d="M33.22,3.67V1.26h.41v3.15h-.35l-1.83-2.53v2.53h-.41V1.26h.45l1.73,2.41Z"/><path class="cls-12" d="M34.09,2.84c0-.97,.67-1.64,1.54-1.64s1.41,.5,1.46,1.3l-.42,.03c-.04-.58-.41-.96-1.04-.96s-1.1,.49-1.1,1.27,.46,1.27,1.14,1.27c.59,0,.97-.37,1.03-.91h-.96v-.34h1.36v1.56h-.4v-.56c-.14,.4-.58,.62-1.08,.62-.89,0-1.54-.66-1.54-1.64Z"/></g><g><path class="cls-12" d="M79.31,4.41h-2.25V1.26h2.2v.36h-1.78v.99h1.42v.36h-1.42v1.09h1.83v.36Z"/><path class="cls-12" d="M81.32,1.26l1.31,3.15h-.46l-.38-.93h-1.44l-.37,.93h-.42l1.29-3.15h.48Zm-.83,1.88h1.16l-.58-1.4h-.02l-.57,1.4Z"/><path class="cls-12" d="M83.15,3.26c.02,.58,.42,.87,.95,.87,.47,0,.77-.2,.77-.55,0-.29-.19-.43-.6-.51l-.62-.12c-.47-.09-.79-.34-.79-.83,0-.55,.44-.93,1.13-.93,.79,0,1.25,.42,1.25,1.13l-.4,.02c-.02-.52-.33-.82-.85-.82-.46,0-.71,.21-.71,.57,0,.31,.21,.41,.57,.48l.57,.11c.58,.11,.87,.36,.87,.87,0,.58-.5,.92-1.18,.92-.78,0-1.34-.42-1.34-1.19l.39-.03Z"/><path class="cls-12" d="M86.54,4.41V1.62h-1.15v-.36h2.74v.36h-1.17v2.79h-.43Z"/><path class="cls-12" d="M90.79,4.41h-1.34V1.26h1.29c.78,0,1.1,.34,1.1,.84,0,.37-.26,.62-.6,.68,.39,.07,.69,.32,.69,.77,0,.55-.4,.87-1.14,.87Zm-.92-1.79h.88c.46,0,.65-.2,.65-.5s-.2-.51-.65-.51h-.88v1.01Zm0,.34v1.1h.91c.47,0,.72-.21,.72-.55s-.25-.55-.72-.55h-.91Z"/><path class="cls-12" d="M92.36,3.21V1.26h.43v1.95c0,.6,.3,.9,.85,.9s.86-.29,.86-.89V1.26h.43v1.95c0,.92-.57,1.27-1.28,1.27s-1.28-.34-1.28-1.27Z"/><path class="cls-12" d="M95.92,1.26v3.15h-.44V1.26h.44Z"/><path class="cls-12" d="M96.96,1.26v2.79h1.76v.36h-2.19V1.26h.44Z"/><path class="cls-12" d="M99.15,1.26h1.14c.99,0,1.62,.59,1.62,1.58s-.62,1.58-1.62,1.58h-1.14V1.26Zm1.12,2.8c.77,0,1.19-.46,1.19-1.22s-.42-1.22-1.19-1.22h-.68v2.44h.68Z"/><path class="cls-12" d="M102.8,1.26v3.15h-.43V1.26h.43Z"/><path class="cls-12" d="M105.59,3.67V1.26h.41v3.15h-.34l-1.83-2.53v2.53h-.41V1.26h.45l1.73,2.41Z"/><path class="cls-12" d="M106.45,2.84c0-.97,.67-1.64,1.54-1.64s1.41,.5,1.46,1.3l-.42,.03c-.04-.58-.41-.96-1.04-.96s-1.1,.49-1.1,1.27,.46,1.27,1.14,1.27c.59,0,.97-.37,1.03-.91h-.96v-.34h1.36v1.56h-.4v-.56c-.14,.4-.58,.62-1.08,.62-.89,0-1.54-.66-1.54-1.64Z"/></g></g></g></g></svg>