<?xml version="1.0" encoding="UTF-8"?><svg id="Layer_1" xmlns="http://www.w3.org/2000/svg" xmlns:xlink="http://www.w3.org/1999/xlink" viewBox="0 0 113.31 101.18"><defs><style>.cls-1{clip-path:url(#clippath-2);}.cls-2{stroke:#ebebec;}.cls-2,.cls-3{stroke-width:.31px;}.cls-2,.cls-3,.cls-4,.cls-5{fill:none;}.cls-2,.cls-3,.cls-5{stroke-linecap:round;stroke-linejoin:round;}.cls-6{clip-path:url(#clippath-1);}.cls-3,.cls-5{stroke:#000;}.cls-7{fill:#f1b784;fill-rule:evenodd;}.cls-8{clip-path:url(#clippath);}.cls-9{clip-path:url(#clippath-3);}.cls-10{clip-path:url(#clippath-5);}.cls-11{fill:#333132;}.cls-5{stroke-width:.47px;}</style><clipPath id="clippath"><rect class="cls-4" x="-1094.39" y="-674.29" width="1224" height="792"/></clipPath><clipPath id="clippath-1"><rect class="cls-4" x="-1094.39" y="-674.29" width="1224" height="792"/></clipPath><clipPath id="clippath-2"><rect class="cls-4" x="-1094.39" y="-497.68" width="622.64" height="378.18"/></clipPath><clipPath id="clippath-3"><rect class="cls-4" x="-433.47" y="-497.68" width="563.08" height="378.18"/></clipPath><clipPath id="clippath-5"><rect class="cls-4" x="-25.92" y="-.28" width="155.53" height="106"/></clipPath></defs><g class="cls-8"><g class="cls-6"><g><path class="cls-11" d="M88.23,95.3v3.91h2.46v.5h-3.07v-4.41h.61Z"/><path class="cls-11" d="M94.43,99.71h-3.15v-4.41h3.08v.5h-2.49v1.39h1.98v.5h-1.98v1.52h2.56v.5Z"/><path class="cls-11" d="M96.5,99.71l-1.77-4.41h.62l1.49,3.71h.03l1.45-3.71h.62l-1.78,4.41h-.66Z"/><path class="cls-11" d="M102.59,99.71h-3.15v-4.41h3.08v.5h-2.49v1.39h1.98v.5h-1.98v1.52h2.56v.5Z"/><path class="cls-11" d="M103.89,95.3v3.91h2.46v.5h-3.07v-4.41h.61Z"/><path class="cls-11" d="M108.55,97.68c.15-.51,.6-.9,1.32-.9,.95,0,1.55,.62,1.55,1.49,0,.91-.62,1.53-1.61,1.53-1.18,0-1.79-.85-1.79-2.21s.58-2.37,1.82-2.37c.88,0,1.46,.5,1.54,1.33l-.58,.02c-.08-.52-.37-.87-.97-.87-.9,0-1.28,.82-1.27,1.97Zm1.25,1.63c.65,0,1.04-.41,1.04-1.02s-.39-1.03-1.06-1.03-1.05,.41-1.05,1.03,.41,1.02,1.07,1.02Z"/></g></g><g class="cls-1"><rect class="cls-5" x="-1111.71" y="-710.62" width="1356.6" height="877.8"/></g><g class="cls-9"><rect class="cls-5" x="-1186.95" y="-710.62" width="1356.6" height="877.8"/></g><polygon class="cls-7" points="96.39 77.01 96.49 76.98 93.85 69.74 78.88 75.19 81.51 82.43 81.61 82.4 84.94 81.18 85.57 82.9 93.68 79.95 93.05 78.23 96.39 77.01"/><polygon class="cls-2" points="96.39 77.02 96.49 76.98 93.85 69.74 78.87 75.19 81.51 82.43 81.6 82.4 84.94 81.18 85.57 82.9 93.68 79.95 93.05 78.23 96.39 77.02"/><line class="cls-3" x1="33.54" y1="31.85" x2="33.54" y2="28.61"/><polyline class="cls-3" points="36.99 31.85 33.54 28.61 30.08 31.85"/><polyline class="cls-3" points="36.99 28.61 33.54 31.85 30.08 28.61"/><line class="cls-3" x1="91.4" y1="64.72" x2="94.11" y2="63.73"/><polyline class="cls-3" points="92.59 68.01 94.11 63.73 90.2 61.43"/><polyline class="cls-3" points="95.3 67.02 91.4 64.72 92.91 60.44"/><polyline class="cls-3" points="89.46 55.04 88.81 53.26 88.81 17.92 106.62 17.92 106.62 43.25"/><polyline class="cls-3" points="106.62 43.86 106.62 44.18 99.69 46.7 101.17 50.78"/><polyline class="cls-3" points="2.97 19.26 1.82 19.26 1.82 11.71 8.67 11.71 8.67 13.29"/><polyline class="cls-3" points="15.69 13.29 15.69 11.71 20.06 11.71 20.06 13.29"/><polyline class="cls-3" points="26.25 13.29 26.25 11.71 32.75 11.71 32.75 13.29"/><line class="cls-3" x1="29.5" y1="11.71" x2="29.5" y2="13.84"/><polyline class="cls-3" points="37.16 13.29 37.16 11.71 43.66 11.71 43.66 13.29"/><polyline class="cls-3" points="48.07 13.29 48.07 11.71 54.57 11.71 54.57 13.29"/><line class="cls-3" x1="51.32" y1="13.84" x2="51.32" y2="11.71"/><polyline class="cls-3" points="58.95 13.29 58.95 11.71 62.27 11.71 62.27 13.29"/><polyline class="cls-3" points="65.97 13.29 65.97 11.71 72.81 11.71 72.81 19.26 71.3 19.26"/><polyline class="cls-3" points="71.3 35.89 72.81 35.89 72.81 43.45 65.97 43.45 65.97 41.86"/><polyline class="cls-3" points="58.63 41.86 58.63 43.45 50.18 43.45 50.18 41.86"/><line class="cls-3" x1="53.41" y1="41.32" x2="53.41" y2="43.45"/><polyline class="cls-3" points="45.75 41.86 45.75 43.45 39.25 43.45 39.25 41.86"/><line class="cls-3" x1="42.5" y1="41.32" x2="42.5" y2="43.45"/><polyline class="cls-3" points="33.33 41.86 33.33 43.45 28.34 43.45 28.34 41.86"/><polyline class="cls-3" points="22.35 41.86 22.35 43.45 19.03 43.45 19.03 41.87"/><polyline class="cls-3" points="15.77 39.79 15.77 41.37 12.27 41.37 12.27 39.24"/><polyline class="cls-3" points="15.46 24.92 13.92 24.92 13.92 20.07"/><line class="cls-3" x1="13.92" y1="24.57" x2="12.37" y2="24.57"/><line class="cls-3" x1="12.37" y1="22.94" x2="13.92" y2="22.21"/><polyline class="cls-3" points="62.27 30.44 60.72 30.44 60.72 35.07"/><line class="cls-3" x1="59.17" y1="33.2" x2="60.72" y2="32.48"/><line class="cls-3" x1="59.17" y1="30.84" x2="60.72" y2="30.84"/><polyline class="cls-3" points="87.6 55.72 87.6 49.32 80.62 49.32 80.62 43.86 78.78 43.86 78.78 43.25 80.62 43.25 80.62 35.44 80.62 29.5 80.62 24.16 80.62 21.32 80.62 12.12 101.17 12.12 101.17 12.66 108.65 12.66 108.65 17.17 109.2 17.17 109.2 25 109.2 28.59 109.2 32.6 109.2 35.44 109.2 43.25 111.45 43.25 111.45 43.86 109.2 43.86 109.2 49.32 103.14 49.32 103.14 50.11"/><polyline class="cls-3" points="58.07 95.32 58.38 96.17 51.88 98.54 49.89 93.09 51.38 92.55"/><polyline class="cls-3" points="50.06 75.73 48.52 76.29 45.93 69.2 52.37 66.86 52.91 68.34"/><polyline class="cls-3" points="59.66 65.89 59.12 64.4 63.22 62.9 63.77 64.39"/><polyline class="cls-3" points="69.56 62.28 69.02 60.8 75.12 58.57 75.66 60.06"/><line class="cls-3" x1="72.07" y1="59.69" x2="72.8" y2="61.69"/><polyline class="cls-3" points="79.81 58.55 79.27 57.07 85.37 54.84 85.91 56.33"/><line class="cls-3" x1="82.32" y1="55.95" x2="83.05" y2="57.95"/><polyline class="cls-3" points="106.87 60.35 108.36 59.81 110.08 64.53 108.56 65.08"/><polyline class="cls-3" points="67.29 91.97 67.6 92.81 63.71 94.23 63.41 93.38"/><line class="cls-3" x1="98.47" y1="63.82" x2="96.99" y2="64.36"/><polyline class="cls-3" points="99.9 63.12 98.42 63.66 99.39 66.32 97.91 66.86"/><line class="cls-3" x1="99.33" y1="66.16" x2="100.81" y2="65.62"/><polyline class="cls-3" points="61.74 72.86 60.39 73.36 61.88 77.43 63.36 76.89"/><line class="cls-3" x1="60.28" y1="77.65" x2="61.76" y2="77.11"/><line class="cls-3" x1="60.96" y1="74.9" x2="59.72" y2="76.13"/><polyline class="cls-3" points="99.21 30.86 97.52 30.86 97.52 27.2 95.84 27.2"/><line class="cls-3" x1="99.21" y1="27.79" x2="97.52" y2="27.79"/><line class="cls-3" x1="95.84" y1="30.53" x2="97.52" y2="30.53"/><rect class="cls-3" x="105.48" y="43.25" width="5.97" height=".61"/><rect class="cls-3" x="78.78" y="43.25" width="5.55" height=".61"/><polyline class="cls-3" points="107.97 68.67 109.48 68.12 111.63 74.01 105.34 76.3 105.03 75.43"/><polyline class="cls-3" points="93.67 79.93 97.24 78.62 97.13 78.31"/><line class="cls-3" x1="82.22" y1="84.09" x2="85.56" y2="82.88"/><polyline class="cls-3" points="74.36 86.98 74.55 87.51 70.99 88.81"/><polygon class="cls-3" points="2.97 19.43 2.97 18.96 3.52 18.96 3.52 13.83 8.39 13.83 8.39 13.29 15.97 13.29 15.97 13.83 19.78 13.83 19.78 13.29 26.5 13.29 26.5 13.83 32.44 13.83 32.44 13.29 37.41 13.29 37.41 13.83 43.35 13.83 43.35 13.29 48.32 13.29 48.32 13.83 54.26 13.83 54.26 13.29 59.23 13.29 59.23 13.83 62.09 13.83 62.09 13.29 66.25 13.29 66.25 13.83 70.75 13.83 70.75 18.98 71.3 18.98 71.3 24.33 70.75 24.33 70.75 30.82 71.3 30.82 71.3 36.17 70.75 36.17 70.75 41.32 66.25 41.32 66.25 41.86 58.35 41.86 58.35 41.32 50.46 41.32 50.46 41.86 45.5 41.86 45.5 41.32 39.56 41.32 39.56 41.86 33.05 41.86 33.05 41.32 28.62 41.32 28.62 41.86 22.07 41.86 22.07 41.32 19.43 41.32 19.43 41.87 18.97 41.87 18.97 39.79 15.49 39.79 15.49 39.24 10.8 39.24 10.8 36.28 10.26 36.28 10.26 34.64 7.14 34.64 7.14 30.14 3.88 30.14 3.88 19.43 2.97 19.43"/><rect class="cls-3" x="10.38" y="26.55" width="53.87" height="2.06"/><line class="cls-3" x1="10.38" y1="27.58" x2="3.88" y2="27.58"/><polyline class="cls-3" points="19.1 28.61 19.1 39.79 18.97 39.79"/><line class="cls-3" x1="24.56" y1="28.61" x2="24.56" y2="41.86"/><polyline class="cls-3" points="30.08 28.61 30.08 31.85 36.99 31.85 36.99 28.61"/><polyline class="cls-3" points="37.05 41.86 37.05 31.85 36.99 31.85"/><line class="cls-3" x1="42.5" y1="41.32" x2="42.5" y2="28.61"/><line class="cls-3" x1="47.96" y1="41.86" x2="47.96" y2="28.61"/><line class="cls-3" x1="53.41" y1="41.32" x2="53.41" y2="29.69"/><polyline class="cls-3" points="53.36 28.69 53.36 29.69 56.02 29.69 56.02 28.61"/><polyline class="cls-3" points="59.17 28.61 59.17 35.07 62.27 35.07 62.27 28.61"/><line class="cls-3" x1="62.23" y1="41.86" x2="62.23" y2="35.07"/><line class="cls-3" x1="70.75" y1="27.58" x2="64.25" y2="27.58"/><polyline class="cls-3" points="62.23 26.55 62.23 13.84 62.09 13.84"/><line class="cls-3" x1="56.77" y1="26.55" x2="56.77" y2="13.29"/><line class="cls-3" x1="51.32" y1="26.55" x2="51.32" y2="13.84"/><line class="cls-3" x1="45.87" y1="26.55" x2="45.87" y2="13.29"/><line class="cls-3" x1="40.41" y1="26.55" x2="40.41" y2="13.84"/><line class="cls-3" x1="34.96" y1="26.55" x2="34.96" y2="13.29"/><line class="cls-3" x1="29.5" y1="26.55" x2="29.5" y2="13.84"/><line class="cls-3" x1="24.05" y1="26.55" x2="24.05" y2="13.29"/><polyline class="cls-3" points="12.37 26.44 12.37 20.07 15.46 20.07 15.46 26.55"/><polyline class="cls-3" points="18.33 26.55 18.33 25.46 15.46 25.46"/><line class="cls-3" x1="12.41" y1="20.07" x2="12.41" y2="13.29"/><polygon class="cls-3" points="103.13 50.07 106.97 60.61 106.45 60.8 107.94 64.89 108.43 64.72 108.57 65.1 106.9 65.71 108.06 68.91 107.54 69.1 109.09 73.36 105.07 74.82 105.26 75.35 96.89 78.39 96.39 77.02 93.05 78.23 93.68 79.95 85.57 82.9 84.94 81.18 81.6 82.4 82.23 84.12 74.12 87.07 73.5 85.35 70.16 86.56 71.57 90.4 67.02 92.04 66.41 90.36 63.05 91.58 63.67 93.29 57.81 95.42 57.62 94.91 53.38 96.45 51.99 92.63 51.48 92.82 50.04 88.86 52.31 88.03 50.89 84.15 52.86 83.43 49.97 75.47 50.48 75.28 48.72 70.45 52.83 68.95 52.64 68.44 59.89 65.8 60.08 66.31 63.66 65.01 63.47 64.5 69.82 62.19 70.01 62.7 75.59 60.67 75.4 60.16 80.07 58.46 80.26 58.97 85.84 56.94 85.65 56.43 103.13 50.07"/><polyline class="cls-3" points="95.3 67.02 92.91 60.44 90.2 61.43 92.59 68.01"/><polyline class="cls-3" points="95.48 60.24 98.57 68.66 96.49 69.43 96.28 68.86 57.68 82.91 56.98 80.97 95.3 67.02"/><rect class="cls-3" x="95.84" y="25.52" width="3.36" height="7.12"/><polyline class="cls-3" points="96.33 62.54 99.3 61.46 101.52 67.56 98.56 68.64"/><polyline class="cls-3" points="60.96 79.52 58.72 73.38 61.69 72.3 63.92 78.44"/><polyline class="cls-3" points="66.64 77.45 66.27 76.44 63.55 77.42"/><polyline class="cls-3" points="106.45 60.8 106.41 60.68 99.88 63.06"/><polyline class="cls-3" points="52.86 83.43 52.91 83.55 57.33 81.94"/><line class="cls-3" x1="56.54" y1="67.02" x2="58.84" y2="73.33"/><line class="cls-3" x1="67.49" y1="63.04" x2="72.02" y2="75.5"/><line class="cls-3" x1="72.8" y1="61.69" x2="77.15" y2="73.63"/><line class="cls-3" x1="77.74" y1="59.31" x2="82.27" y2="71.76"/><line class="cls-3" x1="83.05" y1="57.95" x2="87.4" y2="69.9"/><polyline class="cls-3" points="87.99 55.58 90.13 61.46 90.2 61.43"/><polyline class="cls-3" points="93.15 61.09 95.98 60.06 95 57.35 89.38 59.4"/><polyline class="cls-3" points="92.91 60.44 93.03 60.4 92.76 59.65 91.22 60.21 91.5 60.96"/><polyline class="cls-3" points="96.39 77.02 96.49 76.98 93.85 69.74"/><polyline class="cls-3" points="66.41 90.36 66.47 90.33 63.05 80.95"/><polyline class="cls-3" points="81.61 82.4 81.51 82.43 78.88 75.19"/><g class="cls-10"><rect class="cls-3" x="-391.49" y="-428.27" width="900.29" height="582.54"/></g><g><path class="cls-11" d="M5.85,3.93h.02l.65-2.62h.41l-.81,3.15h-.5l-.66-2.52h-.02l-.67,2.52h-.5l-.81-3.15h.42l.66,2.61h.02l.69-2.61h.41l.7,2.62Z"/><path class="cls-11" d="M9.53,4.46h-2.25V1.31h2.2v.36h-1.78v.99h1.42v.36h-1.42v1.09h1.83v.36Z"/><path class="cls-11" d="M10.17,3.31c.02,.58,.42,.87,.95,.87,.47,0,.77-.2,.77-.55,0-.29-.19-.43-.6-.51l-.62-.12c-.47-.09-.79-.34-.79-.83,0-.55,.44-.93,1.13-.93,.79,0,1.25,.42,1.25,1.13l-.4,.02c-.02-.52-.33-.82-.85-.82-.46,0-.71,.22-.71,.57,0,.31,.21,.41,.57,.48l.57,.11c.58,.11,.87,.36,.87,.87,0,.58-.5,.92-1.18,.92-.78,0-1.34-.43-1.34-1.19l.39-.03Z"/><path class="cls-11" d="M13.56,4.46V1.67h-1.15v-.36h2.74v.36h-1.17v2.79h-.43Z"/><path class="cls-11" d="M17.8,4.46h-1.34V1.31h1.29c.78,0,1.1,.34,1.1,.84,0,.37-.26,.62-.6,.68,.39,.07,.69,.32,.69,.77,0,.55-.4,.87-1.14,.87Zm-.92-1.79h.88c.46,0,.65-.2,.65-.5s-.19-.51-.65-.51h-.88v1.01Zm0,.34v1.1h.91c.47,0,.72-.21,.72-.54s-.25-.56-.72-.56h-.91Z"/><path class="cls-11" d="M19.38,3.26V1.31h.43v1.95c0,.6,.3,.9,.85,.9s.86-.29,.86-.89V1.31h.42v1.95c0,.92-.57,1.27-1.28,1.27s-1.28-.35-1.28-1.27Z"/><path class="cls-11" d="M22.93,1.31v3.15h-.43V1.31h.43Z"/><path class="cls-11" d="M23.98,1.31v2.79h1.76v.36h-2.19V1.31h.43Z"/><path class="cls-11" d="M26.16,1.31h1.14c.99,0,1.62,.59,1.62,1.58s-.63,1.58-1.62,1.58h-1.14V1.31Zm1.12,2.8c.77,0,1.19-.46,1.19-1.22s-.42-1.22-1.19-1.22h-.68v2.44h.68Z"/><path class="cls-11" d="M29.81,1.31v3.15h-.44V1.31h.44Z"/><path class="cls-11" d="M32.6,3.72V1.31h.41v3.15h-.35l-1.83-2.53v2.53h-.41V1.31h.45l1.73,2.41Z"/><path class="cls-11" d="M33.47,2.89c0-.97,.67-1.64,1.54-1.64s1.41,.5,1.46,1.3l-.42,.03c-.04-.58-.41-.96-1.04-.96s-1.1,.49-1.1,1.27,.46,1.27,1.14,1.27c.59,0,.97-.37,1.03-.91h-.96v-.34h1.36v1.56h-.4v-.56c-.14,.4-.58,.62-1.08,.62-.89,0-1.54-.66-1.54-1.64Z"/></g><g><path class="cls-11" d="M78.68,4.46h-2.25V1.31h2.2v.36h-1.78v.99h1.42v.36h-1.42v1.09h1.83v.36Z"/><path class="cls-11" d="M80.69,1.31l1.31,3.15h-.46l-.38-.93h-1.44l-.37,.93h-.42l1.29-3.15h.48Zm-.83,1.88h1.16l-.58-1.4h-.02l-.57,1.4Z"/><path class="cls-11" d="M82.53,3.31c.02,.58,.42,.87,.95,.87,.47,0,.77-.2,.77-.55,0-.29-.19-.43-.6-.51l-.62-.12c-.47-.09-.79-.34-.79-.83,0-.55,.44-.93,1.13-.93,.79,0,1.25,.42,1.25,1.13l-.4,.02c-.02-.52-.33-.82-.85-.82-.46,0-.71,.22-.71,.57,0,.31,.21,.41,.57,.48l.57,.11c.58,.11,.87,.36,.87,.87,0,.58-.5,.92-1.18,.92-.78,0-1.34-.43-1.34-1.19l.39-.03Z"/><path class="cls-11" d="M85.92,4.46V1.67h-1.15v-.36h2.74v.36h-1.17v2.79h-.43Z"/><path class="cls-11" d="M90.16,4.46h-1.34V1.31h1.29c.78,0,1.1,.34,1.1,.84,0,.37-.26,.62-.6,.68,.39,.07,.69,.32,.69,.77,0,.55-.4,.87-1.14,.87Zm-.92-1.79h.88c.46,0,.65-.2,.65-.5s-.2-.51-.65-.51h-.88v1.01Zm0,.34v1.1h.91c.47,0,.72-.21,.72-.54s-.25-.56-.72-.56h-.91Z"/><path class="cls-11" d="M91.74,3.26V1.31h.43v1.95c0,.6,.3,.9,.85,.9s.86-.29,.86-.89V1.31h.43v1.95c0,.92-.57,1.27-1.28,1.27s-1.28-.35-1.28-1.27Z"/><path class="cls-11" d="M95.29,1.31v3.15h-.44V1.31h.44Z"/><path class="cls-11" d="M96.34,1.31v2.79h1.76v.36h-2.19V1.31h.44Z"/><path class="cls-11" d="M98.52,1.31h1.14c.99,0,1.62,.59,1.62,1.58s-.62,1.58-1.62,1.58h-1.14V1.31Zm1.12,2.8c.77,0,1.19-.46,1.19-1.22s-.42-1.22-1.19-1.22h-.68v2.44h.68Z"/><path class="cls-11" d="M102.17,1.31v3.15h-.43V1.31h.43Z"/><path class="cls-11" d="M104.96,3.72V1.31h.41v3.15h-.34l-1.83-2.53v2.53h-.41V1.31h.45l1.73,2.41Z"/><path class="cls-11" d="M105.83,2.89c0-.97,.67-1.64,1.54-1.64s1.41,.5,1.46,1.3l-.42,.03c-.04-.58-.41-.96-1.04-.96s-1.1,.49-1.1,1.27,.46,1.27,1.14,1.27c.59,0,.97-.37,1.03-.91h-.96v-.34h1.36v1.56h-.4v-.56c-.14,.4-.58,.62-1.08,.62-.89,0-1.54-.66-1.54-1.64Z"/></g></g></svg>