<?xml version="1.0" encoding="UTF-8"?><svg id="Layer_1" xmlns="http://www.w3.org/2000/svg" xmlns:xlink="http://www.w3.org/1999/xlink" viewBox="0 0 113.43 99.58"><defs><style>.cls-1{clip-path:url(#clippath-2);}.cls-2{stroke:#ebebec;}.cls-2,.cls-3{stroke-width:.31px;}.cls-2,.cls-3,.cls-4,.cls-5{fill:none;}.cls-2,.cls-3,.cls-5{stroke-linecap:round;stroke-linejoin:round;}.cls-6{clip-path:url(#clippath-1);}.cls-3,.cls-5{stroke:#000;}.cls-7{fill:#f1b784;fill-rule:evenodd;}.cls-8{clip-path:url(#clippath);}.cls-9{clip-path:url(#clippath-3);}.cls-10{clip-path:url(#clippath-5);}.cls-11{fill:#333132;}.cls-5{stroke-width:.47px;}</style><clipPath id="clippath"><rect class="cls-4" x="-1096.3" y="-676.72" width="1224" height="792"/></clipPath><clipPath id="clippath-1"><rect class="cls-4" x="-1096.3" y="-676.72" width="1224" height="792"/></clipPath><clipPath id="clippath-2"><rect class="cls-4" x="-1050.7" y="-559.86" width="637.56" height="525.36"/></clipPath><clipPath id="clippath-3"><rect class="cls-4" x="-388.06" y="-536.1" width="423.72" height="477.84"/></clipPath><clipPath id="clippath-5"><rect class="cls-4" x="-21.7" y="3.68" width="149.4" height="104.4"/></clipPath></defs><g class="cls-8"><g class="cls-6"><g><path class="cls-11" d="M86.31,92.87v3.91h2.46v.5h-3.07v-4.41h.61Z"/><path class="cls-11" d="M92.52,97.28h-3.15v-4.41h3.08v.5h-2.49v1.39h1.98v.5h-1.98v1.52h2.56v.5Z"/><path class="cls-11" d="M94.59,97.28l-1.77-4.41h.62l1.49,3.71h.03l1.45-3.71h.62l-1.78,4.41h-.66Z"/><path class="cls-11" d="M100.68,97.28h-3.15v-4.41h3.08v.5h-2.49v1.39h1.98v.5h-1.98v1.52h2.56v.5Z"/><path class="cls-11" d="M101.98,92.87v3.91h2.46v.5h-3.07v-4.41h.61Z"/><path class="cls-11" d="M106.64,95.25c.15-.51,.6-.9,1.32-.9,.95,0,1.55,.62,1.55,1.49,0,.91-.62,1.53-1.61,1.53-1.18,0-1.79-.85-1.79-2.21s.58-2.37,1.82-2.37c.88,0,1.46,.5,1.54,1.33l-.58,.02c-.08-.52-.37-.87-.97-.87-.9,0-1.28,.82-1.27,1.97Zm1.25,1.63c.65,0,1.04-.41,1.04-1.02s-.39-1.03-1.06-1.03-1.05,.41-1.05,1.03,.41,1.02,1.07,1.02Z"/></g></g><g class="cls-1"><rect class="cls-5" x="-1070.26" y="-677.11" width="1356.6" height="877.8"/></g><g class="cls-9"><rect class="cls-5" x="-1178.83" y="-677.11" width="1356.6" height="877.8"/></g><polygon class="cls-7" points="107.79 68.64 108.31 68.45 107.15 65.26 108.82 64.65 108.68 64.26 108.2 64.44 106.71 60.34 106.66 60.22 100.13 62.6 101.77 67.11 98.82 68.19 98.82 68.21 96.74 68.98 96.53 68.4 94.1 69.29 96.74 76.53 96.64 76.56 97.14 77.94 105.52 74.89 105.32 74.37 109.34 72.91 107.79 68.64"/><polygon class="cls-2" points="107.79 68.64 108.31 68.45 107.15 65.26 108.82 64.65 108.68 64.26 108.2 64.44 106.7 60.34 106.66 60.22 100.13 62.6 101.77 67.11 98.82 68.19 98.82 68.21 96.74 68.98 96.53 68.4 94.1 69.29 96.74 76.53 96.64 76.56 97.14 77.94 105.51 74.89 105.32 74.37 109.34 72.91 107.79 68.64"/><line class="cls-3" x1="33.79" y1="31.39" x2="33.79" y2="28.15"/><polyline class="cls-3" points="37.25 31.39 33.79 28.15 30.33 31.39"/><polyline class="cls-3" points="37.25 28.15 33.79 31.39 30.33 28.15"/><line class="cls-3" x1="91.65" y1="64.26" x2="94.36" y2="63.28"/><polyline class="cls-3" points="92.85 67.55 94.36 63.28 90.45 60.98"/><polyline class="cls-3" points="95.56 66.57 91.65 64.26 93.16 59.99"/><polyline class="cls-3" points="89.71 54.59 89.06 52.81 89.06 17.46 106.87 17.46 106.87 42.8"/><polyline class="cls-3" points="106.87 43.41 106.87 43.72 99.94 46.24 101.42 50.32"/><polyline class="cls-3" points="3.22 18.8 2.07 18.8 2.07 11.25 8.92 11.25 8.92 12.84"/><polyline class="cls-3" points="15.94 12.84 15.94 11.25 20.31 11.25 20.31 12.84"/><polyline class="cls-3" points="26.51 12.84 26.51 11.25 33 11.25 33 12.84"/><line class="cls-3" x1="29.75" y1="11.25" x2="29.75" y2="13.38"/><polyline class="cls-3" points="37.41 12.84 37.41 11.25 43.91 11.25 43.91 12.84"/><polyline class="cls-3" points="48.32 12.84 48.32 11.25 54.82 11.25 54.82 12.84"/><line class="cls-3" x1="51.57" y1="13.38" x2="51.57" y2="11.25"/><polyline class="cls-3" points="59.2 12.84 59.2 11.25 62.52 11.25 62.52 12.84"/><polyline class="cls-3" points="66.22 12.84 66.22 11.25 73.07 11.25 73.07 18.8 71.55 18.8"/><polyline class="cls-3" points="71.55 35.44 73.07 35.44 73.07 42.99 66.22 42.99 66.22 41.41"/><polyline class="cls-3" points="58.88 41.41 58.88 42.99 50.43 42.99 50.43 41.41"/><line class="cls-3" x1="53.66" y1="40.86" x2="53.66" y2="42.99"/><polyline class="cls-3" points="46 41.41 46 42.99 39.5 42.99 39.5 41.41"/><line class="cls-3" x1="42.75" y1="40.86" x2="42.75" y2="42.99"/><polyline class="cls-3" points="33.58 41.41 33.58 42.99 28.59 42.99 28.59 41.41"/><polyline class="cls-3" points="22.6 41.41 22.6 42.99 19.28 42.99 19.28 41.42"/><polyline class="cls-3" points="16.02 39.34 16.02 40.92 12.52 40.92 12.52 38.79"/><polyline class="cls-3" points="15.71 24.47 14.17 24.47 14.17 19.62"/><line class="cls-3" x1="14.17" y1="24.12" x2="12.62" y2="24.12"/><line class="cls-3" x1="12.62" y1="22.48" x2="14.17" y2="21.76"/><polyline class="cls-3" points="62.52 29.99 60.97 29.99 60.97 34.61"/><line class="cls-3" x1="59.43" y1="32.75" x2="60.97" y2="32.02"/><line class="cls-3" x1="59.43" y1="30.38" x2="60.97" y2="30.38"/><polyline class="cls-3" points="87.85 55.26 87.85 48.87 80.87 48.87 80.87 43.41 79.03 43.41 79.03 42.8 80.87 42.8 80.87 34.98 80.87 29.04 80.87 23.71 80.87 20.87 80.87 11.67 101.43 11.67 101.43 12.21 108.9 12.21 108.9 16.72 109.45 16.72 109.45 24.55 109.45 28.13 109.45 32.14 109.45 34.98 109.45 42.8 111.7 42.8 111.7 43.41 109.45 43.41 109.45 48.87 103.4 48.87 103.4 49.66"/><polyline class="cls-3" points="58.32 94.87 58.63 95.71 52.13 98.08 50.15 92.64 51.63 92.1"/><polyline class="cls-3" points="50.31 75.28 48.77 75.84 46.19 68.74 52.62 66.4 53.16 67.89"/><polyline class="cls-3" points="59.91 65.43 59.37 63.95 63.48 62.45 64.02 63.94"/><polyline class="cls-3" points="69.81 61.83 69.27 60.34 75.37 58.12 75.92 59.61"/><line class="cls-3" x1="72.32" y1="59.23" x2="73.05" y2="61.23"/><polyline class="cls-3" points="80.06 58.1 79.52 56.61 85.62 54.39 86.17 55.88"/><line class="cls-3" x1="82.57" y1="55.5" x2="83.3" y2="57.5"/><polyline class="cls-3" points="107.12 59.89 108.61 59.35 110.33 64.07 108.81 64.62"/><polyline class="cls-3" points="67.54 91.51 67.85 92.36 63.97 93.77 63.66 92.93"/><line class="cls-3" x1="98.73" y1="63.36" x2="97.25" y2="63.91"/><polyline class="cls-3" points="100.15 62.66 98.67 63.2 99.64 65.87 98.17 66.41"/><line class="cls-3" x1="99.58" y1="65.71" x2="101.06" y2="65.17"/><polyline class="cls-3" points="61.99 72.41 60.65 72.9 62.13 76.97 63.61 76.43"/><line class="cls-3" x1="60.53" y1="77.2" x2="62.01" y2="76.66"/><line class="cls-3" x1="61.21" y1="74.44" x2="59.98" y2="75.67"/><polyline class="cls-3" points="99.46 30.41 97.77 30.41 97.77 26.74 96.09 26.74"/><line class="cls-3" x1="99.46" y1="27.34" x2="97.77" y2="27.34"/><line class="cls-3" x1="96.09" y1="30.08" x2="97.78" y2="30.08"/><rect class="cls-3" x="105.74" y="42.8" width="5.97" height=".61"/><rect class="cls-3" x="79.03" y="42.8" width="5.55" height=".61"/><polyline class="cls-3" points="108.22 68.21 109.74 67.66 111.88 73.56 105.59 75.85 105.28 74.98"/><polyline class="cls-3" points="93.92 79.47 97.5 78.17 97.38 77.85"/><line class="cls-3" x1="82.47" y1="83.64" x2="85.81" y2="82.42"/><polyline class="cls-3" points="74.61 86.53 74.81 87.05 71.24 88.35"/><polygon class="cls-3" points="3.22 18.97 3.22 18.51 3.77 18.51 3.77 13.38 8.64 13.38 8.64 12.84 16.22 12.84 16.22 13.38 20.03 13.38 20.03 12.84 26.76 12.84 26.76 13.38 32.69 13.38 32.69 12.84 37.66 12.84 37.66 13.38 43.6 13.38 43.6 12.84 48.57 12.84 48.57 13.38 54.51 13.38 54.51 12.84 59.48 12.84 59.48 13.38 62.35 13.38 62.35 12.84 66.5 12.84 66.5 13.38 71.01 13.38 71.01 18.52 71.55 18.52 71.55 23.88 71.01 23.88 71.01 30.36 71.55 30.36 71.55 35.72 71.01 35.72 71.01 40.86 66.5 40.86 66.5 41.41 58.6 41.41 58.6 40.86 50.71 40.86 50.71 41.41 45.75 41.41 45.75 40.86 39.81 40.86 39.81 41.41 33.3 41.41 33.3 40.86 28.87 40.86 28.87 41.41 22.32 41.41 22.32 40.86 19.69 40.86 19.69 41.42 19.23 41.42 19.23 39.34 15.74 39.34 15.74 38.79 11.06 38.79 11.06 35.82 10.51 35.82 10.51 34.19 7.4 34.19 7.4 29.68 4.13 29.68 4.13 18.97 3.22 18.97"/><rect class="cls-3" x="10.63" y="26.09" width="53.87" height="2.06"/><line class="cls-3" x1="10.64" y1="27.12" x2="4.13" y2="27.12"/><polyline class="cls-3" points="19.35 28.15 19.35 39.34 19.22 39.34"/><line class="cls-3" x1="24.81" y1="28.15" x2="24.81" y2="41.41"/><polyline class="cls-3" points="30.33 28.15 30.33 31.39 37.25 31.39 37.25 28.15"/><polyline class="cls-3" points="37.3 41.41 37.3 31.39 37.25 31.39"/><line class="cls-3" x1="42.75" y1="40.86" x2="42.75" y2="28.15"/><line class="cls-3" x1="48.21" y1="41.41" x2="48.21" y2="28.15"/><line class="cls-3" x1="53.66" y1="40.86" x2="53.66" y2="29.24"/><polyline class="cls-3" points="53.61 28.23 53.61 29.24 56.27 29.24 56.27 28.15"/><polyline class="cls-3" points="59.43 28.15 59.43 34.61 62.52 34.61 62.52 28.15"/><line class="cls-3" x1="62.48" y1="41.41" x2="62.48" y2="34.61"/><line class="cls-3" x1="71" y1="27.12" x2="64.5" y2="27.12"/><polyline class="cls-3" points="62.48 26.09 62.48 13.38 62.35 13.38"/><line class="cls-3" x1="57.03" y1="26.09" x2="57.03" y2="12.84"/><line class="cls-3" x1="51.57" y1="26.09" x2="51.57" y2="13.38"/><line class="cls-3" x1="46.12" y1="26.09" x2="46.12" y2="12.84"/><line class="cls-3" x1="40.66" y1="26.09" x2="40.66" y2="13.38"/><line class="cls-3" x1="35.21" y1="26.09" x2="35.21" y2="12.84"/><line class="cls-3" x1="29.75" y1="26.09" x2="29.75" y2="13.38"/><line class="cls-3" x1="24.3" y1="26.09" x2="24.3" y2="12.84"/><polyline class="cls-3" points="12.62 25.98 12.62 19.62 15.71 19.62 15.71 26.09"/><polyline class="cls-3" points="18.58 26.09 18.58 25.01 15.71 25.01"/><line class="cls-3" x1="12.66" y1="19.62" x2="12.66" y2="12.84"/><polygon class="cls-3" points="103.38 49.61 107.22 60.16 106.71 60.34 108.2 64.44 108.68 64.26 108.82 64.65 107.15 65.26 108.31 68.45 107.79 68.64 109.34 72.91 105.32 74.37 105.51 74.89 97.14 77.94 96.64 76.56 93.3 77.78 93.93 79.5 85.82 82.45 85.2 80.73 81.86 81.94 82.48 83.66 74.37 86.61 73.75 84.89 70.41 86.11 71.82 89.94 67.27 91.58 66.66 89.9 63.3 91.12 63.92 92.83 58.06 94.97 57.87 94.45 53.63 96 52.24 92.17 51.73 92.36 50.29 88.4 52.56 87.58 51.14 83.69 53.11 82.97 50.22 75.02 50.73 74.83 48.97 70 53.08 68.5 52.9 67.99 60.15 65.35 60.33 65.86 63.91 64.56 63.73 64.04 70.07 61.73 70.26 62.25 75.84 60.22 75.65 59.7 80.32 58 80.51 58.52 86.09 56.49 85.9 55.97 103.38 49.61"/><polyline class="cls-3" points="95.56 66.57 93.16 59.99 90.45 60.98 92.85 67.55"/><polyline class="cls-3" points="95.74 59.79 98.83 68.21 96.74 68.98 96.53 68.41 57.94 82.45 57.23 80.52 95.56 66.57"/><rect class="cls-3" x="96.09" y="25.07" width="3.36" height="7.12"/><polyline class="cls-3" points="96.58 62.09 99.55 61.01 101.77 67.11 98.82 68.19"/><polyline class="cls-3" points="61.21 79.07 58.97 72.92 61.94 71.84 64.18 77.99"/><polyline class="cls-3" points="66.89 77 66.52 75.98 63.81 76.97"/><polyline class="cls-3" points="106.71 60.34 106.66 60.22 100.13 62.6"/><polyline class="cls-3" points="53.11 82.97 53.16 83.09 57.58 81.48"/><line class="cls-3" x1="56.8" y1="66.57" x2="59.09" y2="72.88"/><line class="cls-3" x1="67.74" y1="62.58" x2="72.27" y2="75.04"/><line class="cls-3" x1="73.05" y1="61.23" x2="77.4" y2="73.18"/><line class="cls-3" x1="77.99" y1="58.85" x2="82.52" y2="71.31"/><line class="cls-3" x1="83.3" y1="57.5" x2="87.65" y2="69.45"/><polyline class="cls-3" points="88.24 55.12 90.38 61 90.45 60.97"/><polyline class="cls-3" points="93.4 60.64 96.24 59.61 95.25 56.9 89.63 58.94"/><polyline class="cls-3" points="93.16 59.99 93.28 59.94 93.01 59.19 91.48 59.75 91.75 60.5"/><polyline class="cls-3" points="96.64 76.56 96.74 76.53 94.1 69.29"/><polyline class="cls-3" points="66.66 89.9 66.72 89.88 63.3 80.5"/><polyline class="cls-3" points="81.86 81.94 81.76 81.98 79.13 74.74"/><g class="cls-10"><rect class="cls-3" x="-391.24" y="-428.72" width="900.29" height="582.54"/></g><g><path class="cls-11" d="M4.65,3.87h.02l.65-2.62h.41l-.81,3.15h-.5l-.66-2.52h-.02l-.67,2.52h-.5L1.76,1.25h.42l.66,2.61h.02l.69-2.61h.41l.7,2.62Z"/><path class="cls-11" d="M8.33,4.4h-2.25V1.25h2.2v.36h-1.78v.99h1.42v.36h-1.42v1.09h1.83v.36Z"/><path class="cls-11" d="M8.98,3.25c.03,.58,.42,.87,.95,.87,.47,0,.77-.2,.77-.55,0-.29-.19-.43-.6-.51l-.62-.12c-.47-.09-.79-.34-.79-.83,0-.55,.44-.93,1.13-.93,.79,0,1.25,.42,1.25,1.13l-.39,.02c-.02-.52-.33-.82-.85-.82-.46,0-.71,.21-.71,.57,0,.31,.21,.41,.57,.48l.57,.11c.58,.11,.87,.36,.87,.87,0,.58-.5,.92-1.18,.92-.78,0-1.34-.42-1.34-1.19l.39-.03Z"/><path class="cls-11" d="M12.37,4.4V1.61h-1.15v-.36h2.74v.36h-1.17v2.79h-.43Z"/><path class="cls-11" d="M16.61,4.4h-1.34V1.25h1.29c.78,0,1.1,.34,1.1,.84,0,.37-.26,.62-.6,.68,.39,.07,.69,.32,.69,.77,0,.55-.4,.87-1.14,.87Zm-.92-1.79h.88c.46,0,.65-.2,.65-.5s-.2-.51-.65-.51h-.88v1.01Zm0,.34v1.1h.91c.47,0,.72-.21,.72-.55s-.25-.55-.72-.55h-.91Z"/><path class="cls-11" d="M18.19,3.19V1.25h.43v1.95c0,.6,.3,.9,.85,.9s.86-.29,.86-.89V1.25h.43v1.95c0,.92-.57,1.27-1.28,1.27s-1.28-.34-1.28-1.27Z"/><path class="cls-11" d="M21.74,1.25v3.15h-.44V1.25h.44Z"/><path class="cls-11" d="M22.79,1.25v2.79h1.76v.36h-2.19V1.25h.44Z"/><path class="cls-11" d="M24.97,1.25h1.14c.99,0,1.62,.59,1.62,1.58s-.62,1.58-1.62,1.58h-1.14V1.25Zm1.12,2.8c.77,0,1.19-.46,1.19-1.22s-.42-1.22-1.19-1.22h-.68v2.44h.68Z"/><path class="cls-11" d="M28.62,1.25v3.15h-.43V1.25h.43Z"/><path class="cls-11" d="M31.41,3.66V1.25h.41v3.15h-.34l-1.83-2.53v2.53h-.41V1.25h.45l1.73,2.41Z"/><path class="cls-11" d="M32.28,2.82c0-.97,.67-1.64,1.54-1.64s1.41,.5,1.46,1.3l-.42,.03c-.04-.58-.41-.96-1.04-.96s-1.1,.49-1.1,1.27,.46,1.27,1.14,1.27c.59,0,.97-.37,1.03-.91h-.96v-.34h1.36v1.56h-.4v-.56c-.14,.4-.58,.62-1.08,.62-.89,0-1.54-.66-1.54-1.64Z"/></g><g><path class="cls-11" d="M77.49,4.4h-2.25V1.25h2.2v.36h-1.78v.99h1.42v.36h-1.42v1.09h1.83v.36Z"/><path class="cls-11" d="M79.5,1.25l1.31,3.15h-.46l-.38-.93h-1.44l-.37,.93h-.43l1.29-3.15h.47Zm-.83,1.88h1.16l-.58-1.4h-.02l-.57,1.4Z"/><path class="cls-11" d="M81.34,3.25c.03,.58,.42,.87,.95,.87,.47,0,.77-.2,.77-.55,0-.29-.19-.43-.6-.51l-.62-.12c-.47-.09-.79-.34-.79-.83,0-.55,.44-.93,1.13-.93,.79,0,1.25,.42,1.25,1.13l-.39,.02c-.02-.52-.33-.82-.85-.82-.46,0-.71,.21-.71,.57,0,.31,.21,.41,.57,.48l.57,.11c.58,.11,.87,.36,.87,.87,0,.58-.5,.92-1.18,.92-.78,0-1.34-.42-1.34-1.19l.39-.03Z"/><path class="cls-11" d="M84.73,4.4V1.61h-1.15v-.36h2.74v.36h-1.17v2.79h-.43Z"/><path class="cls-11" d="M88.97,4.4h-1.34V1.25h1.29c.78,0,1.1,.34,1.1,.84,0,.37-.26,.62-.6,.68,.39,.07,.69,.32,.69,.77,0,.55-.4,.87-1.14,.87Zm-.92-1.79h.88c.46,0,.65-.2,.65-.5s-.19-.51-.65-.51h-.88v1.01Zm0,.34v1.1h.91c.47,0,.72-.21,.72-.55s-.25-.55-.72-.55h-.91Z"/><path class="cls-11" d="M90.55,3.19V1.25h.43v1.95c0,.6,.3,.9,.85,.9s.86-.29,.86-.89V1.25h.42v1.95c0,.92-.57,1.27-1.28,1.27s-1.28-.34-1.28-1.27Z"/><path class="cls-11" d="M94.1,1.25v3.15h-.43V1.25h.43Z"/><path class="cls-11" d="M95.15,1.25v2.79h1.76v.36h-2.19V1.25h.43Z"/><path class="cls-11" d="M97.33,1.25h1.14c.99,0,1.62,.59,1.62,1.58s-.63,1.58-1.62,1.58h-1.14V1.25Zm1.12,2.8c.77,0,1.19-.46,1.19-1.22s-.42-1.22-1.19-1.22h-.68v2.44h.68Z"/><path class="cls-11" d="M100.98,1.25v3.15h-.44V1.25h.44Z"/><path class="cls-11" d="M103.77,3.66V1.25h.41v3.15h-.35l-1.83-2.53v2.53h-.41V1.25h.45l1.73,2.41Z"/><path class="cls-11" d="M104.64,2.82c0-.97,.67-1.64,1.54-1.64s1.41,.5,1.46,1.3l-.42,.03c-.04-.58-.41-.96-1.04-.96s-1.1,.49-1.1,1.27,.46,1.27,1.14,1.27c.59,0,.97-.37,1.03-.91h-.96v-.34h1.36v1.56h-.4v-.56c-.14,.4-.58,.62-1.08,.62-.89,0-1.54-.66-1.54-1.64Z"/></g></g></svg>