<?xml version="1.0" encoding="UTF-8"?><svg id="Layer_1" xmlns="http://www.w3.org/2000/svg" xmlns:xlink="http://www.w3.org/1999/xlink" viewBox="0 0 113.67 99.97"><defs><style>.cls-1{clip-path:url(#clippath-2);}.cls-2{stroke:#ebebec;}.cls-2,.cls-3{stroke-width:.31px;}.cls-2,.cls-3,.cls-4,.cls-5{fill:none;}.cls-2,.cls-3,.cls-5{stroke-linecap:round;stroke-linejoin:round;}.cls-6{clip-path:url(#clippath-1);}.cls-3,.cls-5{stroke:#000;}.cls-7{fill:#f1b784;fill-rule:evenodd;}.cls-8{clip-path:url(#clippath);}.cls-9{clip-path:url(#clippath-3);}.cls-10{clip-path:url(#clippath-5);}.cls-11{fill:#333132;}.cls-5{stroke-width:.47px;}</style><clipPath id="clippath"><rect class="cls-4" x="-1093.55" y="-676.45" width="1224" height="792"/></clipPath><clipPath id="clippath-1"><rect class="cls-4" x="-1093.55" y="-676.45" width="1224" height="792"/></clipPath><clipPath id="clippath-2"><rect class="cls-4" x="-1018.98" y="-537.37" width="576.84" height="488.4"/></clipPath><clipPath id="clippath-3"><rect class="cls-4" x="-378.12" y="-537.37" width="398.64" height="488.4"/></clipPath><clipPath id="clippath-5"><rect class="cls-4" x="-15.95" y="-14.67" width="138" height="124.09"/></clipPath></defs><g class="cls-8"><g class="cls-6"><g><path class="cls-11" d="M89.06,93.14v3.91h2.46v.5h-3.07v-4.41h.61Z"/><path class="cls-11" d="M95.27,97.55h-3.15v-4.41h3.08v.5h-2.49v1.39h1.98v.5h-1.98v1.52h2.56v.5Z"/><path class="cls-11" d="M97.34,97.55l-1.77-4.41h.62l1.49,3.71h.03l1.45-3.71h.62l-1.78,4.41h-.66Z"/><path class="cls-11" d="M103.43,97.55h-3.15v-4.41h3.08v.5h-2.49v1.39h1.98v.5h-1.98v1.52h2.56v.5Z"/><path class="cls-11" d="M104.73,93.14v3.91h2.46v.5h-3.07v-4.41h.61Z"/><path class="cls-11" d="M109.39,95.51c.15-.51,.6-.9,1.32-.9,.95,0,1.55,.62,1.55,1.49,0,.91-.62,1.53-1.61,1.53-1.18,0-1.79-.85-1.79-2.21s.58-2.37,1.82-2.37c.88,0,1.46,.5,1.54,1.33l-.58,.02c-.08-.52-.37-.87-.97-.87-.9,0-1.28,.82-1.27,1.97Zm1.25,1.63c.65,0,1.04-.41,1.04-1.02s-.39-1.03-1.06-1.03-1.05,.41-1.05,1.03,.41,1.02,1.07,1.02Z"/></g></g><g class="cls-1"><rect class="cls-5" x="-1092.67" y="-687.62" width="1356.6" height="877.8"/></g><g class="cls-9"><rect class="cls-5" x="-1172.53" y="-687.62" width="1356.6" height="877.8"/></g><polygon class="cls-7" points="63.14 80.35 57.78 82.31 57.43 81.34 53 82.95 52.96 82.83 50.99 83.54 52.4 87.43 50.13 88.26 51.57 92.21 52.09 92.03 53.48 95.85 57.72 94.31 57.9 94.82 63.77 92.69 63.14 90.98 66.56 89.74 63.14 80.35"/><polygon class="cls-2" points="63.14 80.35 57.78 82.31 57.42 81.34 53 82.95 52.96 82.83 50.98 83.55 52.4 87.43 50.13 88.26 51.57 92.22 52.09 92.03 53.48 95.85 57.72 94.31 57.9 94.82 63.76 92.69 63.14 90.98 66.56 89.74 63.14 80.35"/><line class="cls-3" x1="33.63" y1="31.25" x2="33.63" y2="28.01"/><polyline class="cls-3" points="37.09 31.25 33.63 28.01 30.17 31.25"/><polyline class="cls-3" points="37.09 28.01 33.63 31.25 30.17 28.01"/><line class="cls-3" x1="91.49" y1="64.12" x2="94.2" y2="63.13"/><polyline class="cls-3" points="92.69 67.41 94.2 63.13 90.29 60.83"/><polyline class="cls-3" points="95.4 66.42 91.49 64.12 93 59.84"/><polyline class="cls-3" points="89.55 54.44 88.91 52.66 88.91 17.32 106.71 17.32 106.71 42.65"/><polyline class="cls-3" points="106.71 43.26 106.71 43.58 99.78 46.1 101.27 50.18"/><polyline class="cls-3" points="3.06 18.66 1.91 18.66 1.91 11.11 8.76 11.11 8.76 12.69"/><polyline class="cls-3" points="15.78 12.69 15.78 11.11 20.15 11.11 20.15 12.69"/><polyline class="cls-3" points="26.35 12.69 26.35 11.11 32.85 11.11 32.85 12.69"/><line class="cls-3" x1="29.6" y1="11.11" x2="29.6" y2="13.24"/><polyline class="cls-3" points="37.26 12.69 37.26 11.11 43.75 11.11 43.75 12.69"/><polyline class="cls-3" points="48.16 12.69 48.16 11.11 54.66 11.11 54.66 12.69"/><line class="cls-3" x1="51.41" y1="13.24" x2="51.41" y2="11.11"/><polyline class="cls-3" points="59.04 12.69 59.04 11.11 62.37 11.11 62.37 12.69"/><polyline class="cls-3" points="66.06 12.69 66.06 11.11 72.91 11.11 72.91 18.66 71.39 18.66"/><polyline class="cls-3" points="71.39 35.29 72.91 35.29 72.91 42.85 66.06 42.85 66.06 41.26"/><polyline class="cls-3" points="58.72 41.26 58.72 42.85 50.27 42.85 50.27 41.26"/><line class="cls-3" x1="53.5" y1="40.72" x2="53.5" y2="42.85"/><polyline class="cls-3" points="45.84 41.26 45.84 42.85 39.35 42.85 39.35 41.26"/><line class="cls-3" x1="42.6" y1="40.72" x2="42.6" y2="42.85"/><polyline class="cls-3" points="33.42 41.26 33.42 42.85 28.43 42.85 28.43 41.26"/><polyline class="cls-3" points="22.44 41.26 22.44 42.85 19.12 42.85 19.12 41.27"/><polyline class="cls-3" points="15.86 39.19 15.86 40.77 12.36 40.77 12.36 38.65"/><polyline class="cls-3" points="15.56 24.32 14.01 24.32 14.01 19.47"/><line class="cls-3" x1="14.01" y1="23.97" x2="12.47" y2="23.97"/><line class="cls-3" x1="12.47" y1="22.34" x2="14.01" y2="21.61"/><polyline class="cls-3" points="62.36 29.84 60.81 29.84 60.81 34.47"/><line class="cls-3" x1="59.27" y1="32.6" x2="60.81" y2="31.88"/><line class="cls-3" x1="59.27" y1="30.24" x2="60.81" y2="30.24"/><polyline class="cls-3" points="87.69 55.12 87.69 48.73 80.72 48.73 80.72 43.26 78.87 43.26 78.87 42.65 80.72 42.65 80.72 34.84 80.72 28.9 80.72 23.56 80.72 20.72 80.72 11.52 101.27 11.52 101.27 12.07 108.75 12.07 108.75 16.57 109.29 16.57 109.29 24.4 109.29 27.99 109.29 32 109.29 34.84 109.29 42.65 111.54 42.65 111.54 43.26 109.29 43.26 109.29 48.73 103.24 48.73 103.24 49.51"/><polyline class="cls-3" points="58.17 94.73 58.47 95.57 51.97 97.94 49.99 92.49 51.48 91.95"/><polyline class="cls-3" points="50.16 75.13 48.61 75.7 46.03 68.6 52.46 66.26 53 67.75"/><polyline class="cls-3" points="59.75 65.29 59.21 63.8 63.32 62.31 63.86 63.79"/><polyline class="cls-3" points="69.65 61.68 69.11 60.2 75.22 57.97 75.76 59.46"/><line class="cls-3" x1="72.16" y1="59.09" x2="72.89" y2="61.09"/><polyline class="cls-3" points="79.9 57.95 79.36 56.47 85.47 54.24 86.01 55.73"/><line class="cls-3" x1="82.41" y1="55.36" x2="83.14" y2="57.36"/><polyline class="cls-3" points="106.96 59.75 108.45 59.21 110.17 63.93 108.65 64.48"/><polyline class="cls-3" points="67.39 91.37 67.69 92.21 63.81 93.63 63.5 92.78"/><line class="cls-3" x1="98.57" y1="63.22" x2="97.09" y2="63.76"/><polyline class="cls-3" points="99.99 62.52 98.51 63.06 99.48 65.72 98.01 66.26"/><line class="cls-3" x1="99.42" y1="65.56" x2="100.9" y2="65.02"/><polyline class="cls-3" points="61.84 72.26 60.49 72.76 61.97 76.83 63.45 76.29"/><line class="cls-3" x1="60.37" y1="77.05" x2="61.86" y2="76.51"/><line class="cls-3" x1="61.05" y1="74.3" x2="59.82" y2="75.53"/><polyline class="cls-3" points="99.3 30.26 97.62 30.26 97.62 26.6 95.94 26.6"/><line class="cls-3" x1="99.3" y1="27.19" x2="97.62" y2="27.19"/><line class="cls-3" x1="95.94" y1="29.93" x2="97.62" y2="29.93"/><rect class="cls-3" x="105.58" y="42.65" width="5.97" height=".61"/><rect class="cls-3" x="78.87" y="42.65" width="5.55" height=".61"/><polyline class="cls-3" points="108.07 68.07 109.58 67.52 111.72 73.41 105.43 75.7 105.12 74.83"/><polyline class="cls-3" points="93.76 79.33 97.34 78.02 97.22 77.71"/><line class="cls-3" x1="82.32" y1="83.49" x2="85.65" y2="82.28"/><polyline class="cls-3" points="74.46 86.38 74.65 86.91 71.08 88.21"/><polygon class="cls-3" points="3.06 18.83 3.06 18.36 3.61 18.36 3.61 13.24 8.48 13.24 8.48 12.69 16.06 12.69 16.06 13.24 19.87 13.24 19.87 12.69 26.6 12.69 26.6 13.24 32.54 13.24 32.54 12.69 37.51 12.69 37.51 13.24 43.44 13.24 43.44 12.69 48.41 12.69 48.41 13.24 54.35 13.24 54.35 12.69 59.32 12.69 59.32 13.24 62.19 13.24 62.19 12.69 66.34 12.69 66.34 13.24 70.85 13.24 70.85 18.38 71.39 18.38 71.39 23.74 70.85 23.74 70.85 30.22 71.39 30.22 71.39 35.58 70.85 35.58 70.85 40.72 66.34 40.72 66.34 41.26 58.44 41.26 58.44 40.72 50.55 40.72 50.55 41.26 45.6 41.26 45.6 40.72 39.66 40.72 39.66 41.26 33.14 41.26 33.14 40.72 28.71 40.72 28.71 41.26 22.16 41.26 22.16 40.72 19.53 40.72 19.53 41.27 19.07 41.27 19.07 39.19 15.58 39.19 15.58 38.65 10.9 38.65 10.9 35.68 10.35 35.68 10.35 34.04 7.24 34.04 7.24 29.54 3.97 29.54 3.97 18.83 3.06 18.83"/><rect class="cls-3" x="10.48" y="25.95" width="53.87" height="2.06"/><line class="cls-3" x1="10.48" y1="26.98" x2="3.97" y2="26.98"/><polyline class="cls-3" points="19.2 28.01 19.2 39.19 19.07 39.19"/><line class="cls-3" x1="24.65" y1="28.01" x2="24.65" y2="41.26"/><polyline class="cls-3" points="30.17 28.01 30.17 31.25 37.09 31.25 37.09 28.01"/><polyline class="cls-3" points="37.14 41.26 37.14 31.25 37.09 31.25"/><line class="cls-3" x1="42.6" y1="40.72" x2="42.6" y2="28.01"/><line class="cls-3" x1="48.05" y1="41.26" x2="48.05" y2="28.01"/><line class="cls-3" x1="53.5" y1="40.72" x2="53.5" y2="29.09"/><polyline class="cls-3" points="53.45 28.09 53.45 29.09 56.11 29.09 56.11 28.01"/><polyline class="cls-3" points="59.27 28.01 59.27 34.47 62.36 34.47 62.36 28.01"/><line class="cls-3" x1="62.32" y1="41.26" x2="62.32" y2="34.47"/><line class="cls-3" x1="70.85" y1="26.98" x2="64.35" y2="26.98"/><polyline class="cls-3" points="62.32 25.95 62.32 13.24 62.19 13.24"/><line class="cls-3" x1="56.87" y1="25.95" x2="56.87" y2="12.69"/><line class="cls-3" x1="51.41" y1="25.95" x2="51.41" y2="13.24"/><line class="cls-3" x1="45.96" y1="25.95" x2="45.96" y2="12.69"/><line class="cls-3" x1="40.51" y1="25.95" x2="40.51" y2="13.24"/><line class="cls-3" x1="35.05" y1="25.95" x2="35.05" y2="12.69"/><line class="cls-3" x1="29.6" y1="25.95" x2="29.6" y2="13.24"/><line class="cls-3" x1="24.14" y1="25.95" x2="24.14" y2="12.69"/><polyline class="cls-3" points="12.47 25.84 12.47 19.47 15.56 19.47 15.56 25.95"/><polyline class="cls-3" points="18.43 25.95 18.43 24.86 15.56 24.86"/><line class="cls-3" x1="12.5" y1="19.47" x2="12.5" y2="12.69"/><polygon class="cls-3" points="103.22 49.47 107.06 60.01 106.55 60.2 108.04 64.29 108.52 64.12 108.66 64.5 106.99 65.11 108.15 68.31 107.63 68.5 109.18 72.76 105.17 74.22 105.36 74.75 96.98 77.79 96.48 76.42 93.14 77.63 93.77 79.35 85.66 82.3 85.04 80.58 81.7 81.8 82.32 83.52 74.22 86.47 73.59 84.75 70.25 85.96 71.66 89.8 67.11 91.44 66.5 89.76 63.14 90.98 63.76 92.69 57.9 94.82 57.72 94.31 53.48 95.85 52.09 92.03 51.57 92.22 50.13 88.26 52.4 87.43 50.98 83.55 52.96 82.83 50.06 74.87 50.57 74.68 48.81 69.85 52.92 68.35 52.74 67.84 59.99 65.2 60.17 65.71 63.75 64.41 63.57 63.9 69.91 61.59 70.1 62.1 75.68 60.07 75.49 59.56 80.16 57.86 80.35 58.37 85.93 56.34 85.74 55.83 103.22 49.47"/><polyline class="cls-3" points="95.4 66.42 93 59.84 90.3 60.83 92.69 67.41"/><polyline class="cls-3" points="95.58 59.64 98.67 68.06 96.58 68.83 96.37 68.26 57.78 82.31 57.07 80.37 95.4 66.42"/><rect class="cls-3" x="95.94" y="24.92" width="3.36" height="7.12"/><polyline class="cls-3" points="96.42 61.95 99.39 60.87 101.61 66.97 98.66 68.04"/><polyline class="cls-3" points="61.05 78.92 58.82 72.78 61.78 71.7 64.02 77.84"/><polyline class="cls-3" points="66.74 76.85 66.37 75.84 63.65 76.82"/><polyline class="cls-3" points="106.55 60.2 106.5 60.08 99.97 62.46"/><polyline class="cls-3" points="52.96 82.83 53 82.95 57.42 81.34"/><line class="cls-3" x1="56.64" y1="66.42" x2="58.94" y2="72.73"/><line class="cls-3" x1="67.58" y1="62.44" x2="72.11" y2="74.9"/><line class="cls-3" x1="72.89" y1="61.09" x2="77.24" y2="73.03"/><line class="cls-3" x1="77.83" y1="58.71" x2="82.36" y2="71.17"/><line class="cls-3" x1="83.14" y1="57.36" x2="87.49" y2="69.3"/><polyline class="cls-3" points="88.08 54.98 90.22 60.86 90.29 60.83"/><polyline class="cls-3" points="93.24 60.49 96.08 59.46 95.09 56.75 89.47 58.8"/><polyline class="cls-3" points="93 59.84 93.13 59.8 92.85 59.05 91.32 59.61 91.59 60.36"/><polyline class="cls-3" points="96.48 76.42 96.58 76.38 93.94 69.14"/><polyline class="cls-3" points="66.5 89.76 66.56 89.74 63.14 80.35"/><polyline class="cls-3" points="81.7 81.8 81.6 81.83 78.97 74.59"/><g class="cls-10"><rect class="cls-3" x="-391.4" y="-428.87" width="900.29" height="582.54"/></g><g><path class="cls-11" d="M5.48,3.93h.02l.65-2.62h.41l-.81,3.15h-.5l-.66-2.52h-.02l-.67,2.52h-.5l-.81-3.15h.42l.66,2.61h.02l.69-2.61h.41l.7,2.62Z"/><path class="cls-11" d="M9.16,4.46h-2.25V1.31h2.2v.36h-1.78v.99h1.42v.36h-1.42v1.09h1.83v.36Z"/><path class="cls-11" d="M9.8,3.31c.03,.58,.42,.87,.95,.87,.47,0,.77-.2,.77-.55,0-.29-.19-.43-.6-.51l-.62-.12c-.47-.09-.79-.34-.79-.83,0-.55,.44-.93,1.13-.93,.79,0,1.25,.42,1.25,1.13l-.39,.02c-.02-.52-.33-.82-.85-.82-.46,0-.71,.22-.71,.57,0,.31,.21,.41,.57,.48l.57,.11c.58,.11,.87,.36,.87,.87,0,.58-.5,.92-1.18,.92-.78,0-1.34-.43-1.34-1.19l.39-.03Z"/><path class="cls-11" d="M13.19,4.46V1.67h-1.15v-.36h2.74v.36h-1.17v2.79h-.43Z"/><path class="cls-11" d="M17.44,4.46h-1.34V1.31h1.29c.78,0,1.1,.34,1.1,.84,0,.37-.26,.62-.6,.68,.39,.07,.69,.32,.69,.77,0,.55-.4,.87-1.14,.87Zm-.92-1.79h.88c.46,0,.65-.2,.65-.5s-.2-.51-.65-.51h-.88v1.01Zm0,.34v1.1h.91c.47,0,.72-.21,.72-.54s-.25-.56-.72-.56h-.91Z"/><path class="cls-11" d="M19.01,3.26V1.31h.43v1.95c0,.6,.3,.9,.85,.9s.86-.29,.86-.89V1.31h.43v1.95c0,.92-.57,1.27-1.28,1.27s-1.28-.35-1.28-1.27Z"/><path class="cls-11" d="M22.57,1.31v3.15h-.44V1.31h.44Z"/><path class="cls-11" d="M23.61,1.31v2.79h1.76v.36h-2.19V1.31h.44Z"/><path class="cls-11" d="M25.8,1.31h1.14c.99,0,1.62,.59,1.62,1.58s-.62,1.58-1.62,1.58h-1.14V1.31Zm1.12,2.8c.77,0,1.19-.46,1.19-1.22s-.42-1.22-1.19-1.22h-.68v2.44h.68Z"/><path class="cls-11" d="M29.45,1.31v3.15h-.43V1.31h.43Z"/><path class="cls-11" d="M32.23,3.72V1.31h.41v3.15h-.34l-1.83-2.53v2.53h-.41V1.31h.45l1.73,2.41Z"/><path class="cls-11" d="M33.1,2.89c0-.97,.67-1.64,1.54-1.64s1.41,.5,1.46,1.3l-.42,.03c-.04-.58-.41-.96-1.04-.96s-1.1,.49-1.1,1.27,.46,1.27,1.14,1.27c.59,0,.97-.37,1.03-.91h-.96v-.34h1.36v1.56h-.4v-.56c-.14,.4-.58,.62-1.08,.62-.89,0-1.54-.66-1.54-1.64Z"/></g><g><path class="cls-11" d="M78.32,4.46h-2.25V1.31h2.2v.36h-1.78v.99h1.42v.36h-1.42v1.09h1.83v.36Z"/><path class="cls-11" d="M80.32,1.31l1.31,3.15h-.46l-.38-.93h-1.44l-.37,.93h-.43l1.29-3.15h.47Zm-.83,1.88h1.16l-.58-1.4h-.02l-.57,1.4Z"/><path class="cls-11" d="M82.16,3.31c.03,.58,.42,.87,.95,.87,.47,0,.77-.2,.77-.55,0-.29-.19-.43-.6-.51l-.62-.12c-.47-.09-.79-.34-.79-.83,0-.55,.44-.93,1.13-.93,.79,0,1.25,.42,1.25,1.13l-.39,.02c-.02-.52-.33-.82-.85-.82-.46,0-.71,.22-.71,.57,0,.31,.21,.41,.57,.48l.57,.11c.58,.11,.87,.36,.87,.87,0,.58-.5,.92-1.18,.92-.78,0-1.34-.43-1.34-1.19l.39-.03Z"/><path class="cls-11" d="M85.55,4.46V1.67h-1.15v-.36h2.74v.36h-1.17v2.79h-.43Z"/><path class="cls-11" d="M89.8,4.46h-1.34V1.31h1.29c.78,0,1.1,.34,1.1,.84,0,.37-.26,.62-.6,.68,.39,.07,.69,.32,.69,.77,0,.55-.4,.87-1.14,.87Zm-.92-1.79h.88c.46,0,.65-.2,.65-.5s-.19-.51-.65-.51h-.88v1.01Zm0,.34v1.1h.91c.47,0,.72-.21,.72-.54s-.25-.56-.72-.56h-.91Z"/><path class="cls-11" d="M91.37,3.26V1.31h.43v1.95c0,.6,.3,.9,.85,.9s.86-.29,.86-.89V1.31h.42v1.95c0,.92-.57,1.27-1.28,1.27s-1.28-.35-1.28-1.27Z"/><path class="cls-11" d="M94.93,1.31v3.15h-.43V1.31h.43Z"/><path class="cls-11" d="M95.97,1.31v2.79h1.76v.36h-2.19V1.31h.43Z"/><path class="cls-11" d="M98.16,1.31h1.14c.99,0,1.62,.59,1.62,1.58s-.63,1.58-1.62,1.58h-1.14V1.31Zm1.12,2.8c.77,0,1.19-.46,1.19-1.22s-.42-1.22-1.19-1.22h-.68v2.44h.68Z"/><path class="cls-11" d="M101.81,1.31v3.15h-.44V1.31h.44Z"/><path class="cls-11" d="M104.6,3.72V1.31h.41v3.15h-.35l-1.83-2.53v2.53h-.41V1.31h.45l1.73,2.41Z"/><path class="cls-11" d="M105.46,2.89c0-.97,.67-1.64,1.54-1.64s1.41,.5,1.46,1.3l-.42,.03c-.04-.58-.41-.96-1.04-.96s-1.1,.49-1.1,1.27,.46,1.27,1.14,1.27c.59,0,.97-.37,1.03-.91h-.96v-.34h1.36v1.56h-.4v-.56c-.14,.4-.58,.62-1.08,.62-.89,0-1.54-.66-1.54-1.64Z"/></g></g></svg>