<?xml version="1.0" encoding="UTF-8"?><svg xmlns="http://www.w3.org/2000/svg" xmlns:xlink="http://www.w3.org/1999/xlink" viewBox="0 0 114.03 100.3"><defs><style>.cls-1{clip-path:url(#clippath-2);}.cls-2{isolation:isolate;}.cls-3{stroke:#ebebec;}.cls-3,.cls-4{stroke-width:.31px;}.cls-3,.cls-4,.cls-5,.cls-6{fill:none;}.cls-3,.cls-4,.cls-6{stroke-linecap:round;stroke-linejoin:round;}.cls-7{clip-path:url(#clippath-7);}.cls-8{clip-path:url(#clippath-1);}.cls-9{clip-path:url(#clippath-4);}.cls-4,.cls-6{stroke:#000;}.cls-10{fill:#f1b784;fill-rule:evenodd;}.cls-11{clip-path:url(#clippath);}.cls-12{clip-path:url(#clippath-3);}.cls-13{clip-path:url(#clippath-5);}.cls-14{fill:#333132;}.cls-15{mix-blend-mode:multiply;}.cls-6{stroke-width:.47px;}</style><clipPath id="clippath"><rect class="cls-5" x="-1093.67" y="-675.16" width="1224" height="792"/></clipPath><clipPath id="clippath-1"><rect class="cls-5" x="-1093.67" y="-675.16" width="1224" height="792"/></clipPath><clipPath id="clippath-2"><rect class="cls-5" x="-1093.67" y="-675.16" width="1224" height="792"/></clipPath><clipPath id="clippath-3"><rect class="cls-5" x="-1055.07" y="-528.68" width="592.04" height="453.44"/></clipPath><clipPath id="clippath-4"><rect class="cls-5" x="-1054.07" y="-527.68" width="590.04" height="451.44"/></clipPath><clipPath id="clippath-5"><rect class="cls-5" x="-417.49" y="-527.68" width="532.94" height="451.44"/></clipPath><clipPath id="clippath-7"><rect class="cls-5" x="-13.67" y="-2.66" width="136.66" height="109.5"/></clipPath></defs><g class="cls-2"><g id="Layer_1"><g class="cls-11"><g class="cls-8"><g><path class="cls-14" d="M88.94,94.42v3.91h2.46v.5h-3.07v-4.41h.61Z"/><path class="cls-14" d="M95.15,98.84h-3.15v-4.41h3.08v.5h-2.49v1.39h1.98v.5h-1.98v1.52h2.56v.5Z"/><path class="cls-14" d="M97.22,98.84l-1.77-4.41h.62l1.49,3.71h.03l1.45-3.71h.62l-1.78,4.41h-.66Z"/><path class="cls-14" d="M103.31,98.84h-3.15v-4.41h3.08v.5h-2.49v1.39h1.98v.5h-1.98v1.52h2.56v.5Z"/><path class="cls-14" d="M104.61,94.42v3.91h2.46v.5h-3.07v-4.41h.61Z"/><path class="cls-14" d="M109.27,96.8c.15-.51,.6-.9,1.32-.9,.95,0,1.55,.62,1.55,1.49,0,.91-.62,1.53-1.61,1.53-1.18,0-1.79-.85-1.79-2.21s.58-2.37,1.82-2.37c.88,0,1.46,.5,1.54,1.33l-.58,.02c-.08-.52-.37-.87-.97-.87-.9,0-1.28,.82-1.27,1.97Zm1.25,1.63c.65,0,1.04-.41,1.04-1.02s-.39-1.03-1.06-1.03-1.05,.41-1.05,1.03,.41,1.02,1.07,1.02Z"/></g></g><g class="cls-1"><g class="cls-15"><g class="cls-12"><g class="cls-9"><rect class="cls-6" x="-1105.32" y="-712.25" width="1356.6" height="877.8"/></g></g></g></g><g class="cls-13"><rect class="cls-6" x="-1172.23" y="-712.25" width="1356.6" height="877.8"/></g><polygon class="cls-10" points="79.23 75.22 63.4 80.98 66.82 90.36 67.37 92.06 71.92 90.42 70.51 86.59 73.85 85.37 74.47 87.09 82.58 84.14 81.96 82.42 81.86 82.46 79.23 75.22"/><polygon class="cls-3" points="79.22 75.22 63.4 80.98 66.81 90.36 67.37 92.06 71.91 90.42 70.51 86.59 73.85 85.37 74.47 87.09 82.58 84.14 81.95 82.42 81.86 82.46 79.22 75.22"/><line class="cls-4" x1="33.88" y1="31.87" x2="33.88" y2="28.63"/><polyline class="cls-4" points="37.34 31.87 33.88 28.63 30.43 31.87"/><polyline class="cls-4" points="37.34 28.63 33.88 31.87 30.43 28.63"/><line class="cls-4" x1="91.75" y1="64.74" x2="94.46" y2="63.76"/><polyline class="cls-4" points="92.94 68.03 94.46 63.76 90.55 61.46"/><polyline class="cls-4" points="95.65 67.05 91.75 64.74 93.26 60.47"/><polyline class="cls-4" points="89.81 55.07 89.16 53.29 89.16 17.94 106.97 17.94 106.97 43.28"/><polyline class="cls-4" points="106.97 43.89 106.97 44.2 100.04 46.72 101.52 50.8"/><polyline class="cls-4" points="3.32 19.29 2.17 19.29 2.17 11.73 9.02 11.73 9.02 13.32"/><polyline class="cls-4" points="16.04 13.32 16.04 11.73 20.41 11.73 20.41 13.32"/><polyline class="cls-4" points="26.6 13.32 26.6 11.73 33.1 11.73 33.1 13.32"/><line class="cls-4" x1="29.85" y1="11.73" x2="29.85" y2="13.86"/><polyline class="cls-4" points="37.51 13.32 37.51 11.73 44.01 11.73 44.01 13.32"/><polyline class="cls-4" points="48.42 13.32 48.42 11.73 54.92 11.73 54.92 13.32"/><line class="cls-4" x1="51.67" y1="13.86" x2="51.67" y2="11.73"/><polyline class="cls-4" points="59.3 13.32 59.3 11.73 62.62 11.73 62.62 13.32"/><polyline class="cls-4" points="66.31 13.32 66.31 11.73 73.16 11.73 73.16 19.29 71.65 19.29"/><polyline class="cls-4" points="71.65 35.92 73.16 35.92 73.16 43.47 66.31 43.47 66.31 41.89"/><polyline class="cls-4" points="58.97 41.89 58.97 43.47 50.52 43.47 50.52 41.89"/><line class="cls-4" x1="53.76" y1="41.34" x2="53.76" y2="43.47"/><polyline class="cls-4" points="46.1 41.89 46.1 43.47 39.6 43.47 39.6 41.89"/><line class="cls-4" x1="42.85" y1="41.34" x2="42.85" y2="43.47"/><polyline class="cls-4" points="33.68 41.89 33.68 43.47 28.68 43.47 28.68 41.89"/><polyline class="cls-4" points="22.7 41.89 22.7 43.47 19.37 43.47 19.37 41.9"/><polyline class="cls-4" points="16.11 39.82 16.11 41.4 12.61 41.4 12.61 39.27"/><polyline class="cls-4" points="15.81 24.95 14.27 24.95 14.27 20.1"/><line class="cls-4" x1="14.27" y1="24.6" x2="12.72" y2="24.6"/><line class="cls-4" x1="12.72" y1="22.96" x2="14.26" y2="22.24"/><polyline class="cls-4" points="62.61 30.47 61.07 30.47 61.07 35.1"/><line class="cls-4" x1="59.52" y1="33.23" x2="61.07" y2="32.5"/><line class="cls-4" x1="59.52" y1="30.86" x2="61.07" y2="30.86"/><polyline class="cls-4" points="87.95 55.74 87.95 49.35 80.97 49.35 80.97 43.89 79.13 43.89 79.13 43.28 80.97 43.28 80.97 35.46 80.97 29.52 80.97 24.19 80.97 21.35 80.97 12.15 101.52 12.15 101.52 12.69 109 12.69 109 17.2 109.55 17.2 109.55 25.03 109.55 28.61 109.55 32.62 109.55 35.46 109.55 43.28 111.8 43.28 111.8 43.89 109.55 43.89 109.55 49.35 103.49 49.35 103.49 50.14"/><polyline class="cls-4" points="58.42 95.35 58.73 96.19 52.22 98.56 50.24 93.12 51.73 92.58"/><polyline class="cls-4" points="50.41 75.76 48.87 76.32 46.28 69.22 52.71 66.88 53.26 68.37"/><polyline class="cls-4" points="60.01 65.91 59.47 64.43 63.57 62.93 64.11 64.42"/><polyline class="cls-4" points="69.91 62.31 69.37 60.82 75.47 58.6 76.01 60.09"/><line class="cls-4" x1="72.42" y1="59.71" x2="73.15" y2="61.71"/><polyline class="cls-4" points="80.16 58.58 79.62 57.09 85.72 54.87 86.26 56.36"/><line class="cls-4" x1="82.67" y1="55.98" x2="83.4" y2="57.98"/><polyline class="cls-4" points="107.22 60.37 108.71 59.83 110.42 64.55 108.91 65.1"/><polyline class="cls-4" points="67.64 91.99 67.95 92.84 64.06 94.25 63.76 93.41"/><line class="cls-4" x1="98.82" y1="63.84" x2="97.34" y2="64.39"/><polyline class="cls-4" points="100.25 63.14 98.76 63.68 99.73 66.35 98.26 66.89"/><line class="cls-4" x1="99.68" y1="66.19" x2="101.16" y2="65.65"/><polyline class="cls-4" points="62.09 72.89 60.74 73.38 62.22 77.45 63.71 76.91"/><line class="cls-4" x1="60.63" y1="77.68" x2="62.11" y2="77.14"/><line class="cls-4" x1="61.3" y1="74.92" x2="60.07" y2="76.15"/><polyline class="cls-4" points="99.55 30.89 97.87 30.89 97.87 27.22 96.19 27.22"/><line class="cls-4" x1="99.55" y1="27.82" x2="97.87" y2="27.82"/><line class="cls-4" x1="96.19" y1="30.56" x2="97.87" y2="30.56"/><rect class="cls-4" x="105.83" y="43.28" width="5.97" height=".61"/><rect class="cls-4" x="79.13" y="43.28" width="5.55" height=".61"/><polyline class="cls-4" points="108.32 68.69 109.83 68.14 111.98 74.04 105.69 76.33 105.37 75.46"/><polyline class="cls-4" points="94.02 79.95 97.59 78.65 97.48 78.33"/><line class="cls-4" x1="82.57" y1="84.12" x2="85.91" y2="82.9"/><polyline class="cls-4" points="74.71 87.01 74.9 87.53 71.33 88.83"/><polygon class="cls-4" points="3.32 19.45 3.32 18.99 3.86 18.99 3.86 13.86 8.73 13.86 8.73 13.32 16.32 13.32 16.32 13.86 20.13 13.86 20.13 13.32 26.85 13.32 26.85 13.86 32.79 13.86 32.79 13.32 37.76 13.32 37.76 13.86 43.7 13.86 43.7 13.32 48.67 13.32 48.67 13.86 54.61 13.86 54.61 13.32 59.58 13.32 59.58 13.86 62.44 13.86 62.44 13.32 66.59 13.32 66.59 13.86 71.1 13.86 71.1 19 71.65 19 71.65 24.36 71.1 24.36 71.1 30.84 71.65 30.84 71.65 36.2 71.1 36.2 71.1 41.34 66.59 41.34 66.59 41.89 58.69 41.89 58.69 41.34 50.8 41.34 50.8 41.89 45.85 41.89 45.85 41.34 39.91 41.34 39.91 41.89 33.4 41.89 33.4 41.34 28.96 41.34 28.96 41.89 22.42 41.89 22.42 41.34 19.78 41.34 19.78 41.9 19.32 41.9 19.32 39.82 15.83 39.82 15.83 39.27 11.15 39.27 11.15 36.3 10.61 36.3 10.61 34.67 7.49 34.67 7.49 30.16 4.23 30.16 4.23 19.45 3.32 19.45"/><rect class="cls-4" x="10.73" y="26.57" width="53.87" height="2.06"/><line class="cls-4" x1="10.73" y1="27.6" x2="4.23" y2="27.6"/><polyline class="cls-4" points="19.45 28.63 19.45 39.82 19.32 39.82"/><line class="cls-4" x1="24.9" y1="28.63" x2="24.9" y2="41.89"/><polyline class="cls-4" points="30.43 28.63 30.43 31.87 37.34 31.87 37.34 28.63"/><polyline class="cls-4" points="37.4 41.89 37.4 31.87 37.34 31.87"/><line class="cls-4" x1="42.85" y1="41.34" x2="42.85" y2="28.63"/><line class="cls-4" x1="48.3" y1="41.89" x2="48.3" y2="28.63"/><line class="cls-4" x1="53.76" y1="41.34" x2="53.76" y2="29.72"/><polyline class="cls-4" points="53.7 28.71 53.7 29.72 56.36 29.72 56.36 28.63"/><polyline class="cls-4" points="59.52 28.63 59.52 35.09 62.61 35.09 62.61 28.63"/><line class="cls-4" x1="62.58" y1="41.89" x2="62.58" y2="35.09"/><line class="cls-4" x1="71.1" y1="27.6" x2="64.6" y2="27.6"/><polyline class="cls-4" points="62.58 26.57 62.58 13.86 62.44 13.86"/><line class="cls-4" x1="57.12" y1="26.57" x2="57.12" y2="13.32"/><line class="cls-4" x1="51.67" y1="26.57" x2="51.67" y2="13.86"/><line class="cls-4" x1="46.21" y1="26.57" x2="46.21" y2="13.32"/><line class="cls-4" x1="40.76" y1="26.57" x2="40.76" y2="13.86"/><line class="cls-4" x1="35.31" y1="26.57" x2="35.31" y2="13.32"/><line class="cls-4" x1="29.85" y1="26.57" x2="29.85" y2="13.86"/><line class="cls-4" x1="24.4" y1="26.57" x2="24.4" y2="13.32"/><polyline class="cls-4" points="12.72 26.46 12.72 20.1 15.81 20.1 15.81 26.57"/><polyline class="cls-4" points="18.68 26.57 18.68 25.49 15.81 25.49"/><line class="cls-4" x1="12.76" y1="20.1" x2="12.76" y2="13.32"/><polygon class="cls-4" points="103.48 50.09 107.32 60.64 106.8 60.82 108.29 64.92 108.78 64.74 108.92 65.13 107.24 65.74 108.41 68.93 107.88 69.12 109.44 73.39 105.42 74.85 105.61 75.37 97.24 78.42 96.74 77.04 93.4 78.26 94.03 79.98 85.92 82.93 85.29 81.21 81.95 82.42 82.58 84.14 74.47 87.09 73.85 85.37 70.51 86.59 71.91 90.42 67.37 92.07 66.76 90.38 63.4 91.6 64.02 93.31 58.16 95.45 57.97 94.93 53.73 96.48 52.34 92.66 51.83 92.84 50.39 88.88 52.65 88.06 51.24 84.17 53.21 83.45 50.31 75.5 50.83 75.31 49.07 70.48 53.18 68.98 52.99 68.47 60.24 65.83 60.43 66.34 64.01 65.04 63.82 64.53 70.17 62.22 70.36 62.73 75.94 60.7 75.75 60.18 80.42 58.48 80.61 59 86.19 56.97 86 56.45 103.48 50.09"/><polyline class="cls-4" points="95.65 67.05 93.26 60.47 90.55 61.46 92.94 68.03"/><polyline class="cls-4" points="95.83 60.27 98.92 68.69 96.83 69.46 96.63 68.89 58.03 82.93 57.33 81 95.65 67.05"/><rect class="cls-4" x="96.19" y="25.55" width="3.36" height="7.12"/><polyline class="cls-4" points="96.68 62.57 99.64 61.49 101.87 67.59 98.91 68.67"/><polyline class="cls-4" points="61.31 79.55 59.07 73.4 62.04 72.32 64.27 78.47"/><polyline class="cls-4" points="66.99 77.48 66.62 76.46 63.9 77.45"/><polyline class="cls-4" points="106.8 60.82 106.76 60.7 100.22 63.08"/><polyline class="cls-4" points="53.21 83.45 53.26 83.57 57.68 81.96"/><line class="cls-4" x1="56.89" y1="67.05" x2="59.19" y2="73.36"/><line class="cls-4" x1="67.83" y1="63.06" x2="72.37" y2="75.52"/><line class="cls-4" x1="73.15" y1="61.71" x2="77.49" y2="73.66"/><line class="cls-4" x1="78.08" y1="59.33" x2="82.62" y2="71.79"/><line class="cls-4" x1="83.4" y1="57.98" x2="87.74" y2="69.93"/><polyline class="cls-4" points="88.34 55.6 90.48 61.48 90.55 61.46"/><polyline class="cls-4" points="93.49 61.12 96.33 60.09 95.35 57.38 89.73 59.42"/><polyline class="cls-4" points="93.26 60.47 93.38 60.42 93.11 59.67 91.57 60.23 91.84 60.98"/><polyline class="cls-4" points="96.74 77.04 96.83 77.01 94.2 69.77"/><polyline class="cls-4" points="66.76 90.38 66.81 90.36 63.4 80.98"/><polyline class="cls-4" points="81.95 82.42 81.86 82.46 79.22 75.22"/><g class="cls-7"><rect class="cls-4" x="-391.14" y="-428.24" width="900.29" height="582.54"/></g><g><path class="cls-14" d="M6.08,4.26h.02l.65-2.62h.41l-.81,3.15h-.5l-.66-2.52h-.02l-.67,2.52h-.5l-.81-3.15h.42l.66,2.61h.02l.69-2.61h.41l.7,2.62Z"/><path class="cls-14" d="M9.76,4.79h-2.25V1.63h2.2v.36h-1.78v.99h1.42v.36h-1.42v1.09h1.83v.36Z"/><path class="cls-14" d="M10.4,3.63c.02,.58,.42,.87,.95,.87,.47,0,.77-.2,.77-.55,0-.29-.19-.43-.6-.51l-.62-.12c-.47-.09-.79-.34-.79-.83,0-.55,.44-.93,1.13-.93,.79,0,1.25,.42,1.25,1.13l-.4,.02c-.02-.52-.33-.82-.85-.82-.46,0-.71,.21-.71,.57,0,.31,.21,.41,.57,.48l.57,.11c.58,.11,.87,.36,.87,.87,0,.58-.5,.92-1.18,.92-.78,0-1.34-.42-1.34-1.19l.39-.03Z"/><path class="cls-14" d="M13.79,4.79V1.99h-1.15v-.36h2.74v.36h-1.17v2.79h-.43Z"/><path class="cls-14" d="M18.04,4.79h-1.34V1.63h1.29c.78,0,1.1,.34,1.1,.84,0,.37-.26,.62-.6,.68,.39,.07,.69,.32,.69,.77,0,.55-.4,.87-1.14,.87Zm-.92-1.79h.88c.46,0,.65-.2,.65-.5s-.19-.51-.65-.51h-.88v1.01Zm0,.34v1.1h.91c.47,0,.72-.21,.72-.55s-.25-.55-.72-.55h-.91Z"/><path class="cls-14" d="M19.61,3.58V1.63h.43v1.95c0,.6,.3,.9,.85,.9s.86-.29,.86-.89V1.63h.42v1.95c0,.92-.57,1.27-1.28,1.27s-1.28-.34-1.28-1.27Z"/><path class="cls-14" d="M23.17,1.63v3.15h-.43V1.63h.43Z"/><path class="cls-14" d="M24.21,1.63v2.79h1.76v.36h-2.19V1.63h.43Z"/><path class="cls-14" d="M26.4,1.63h1.14c.99,0,1.62,.59,1.62,1.58s-.63,1.58-1.62,1.58h-1.14V1.63Zm1.12,2.8c.77,0,1.19-.46,1.19-1.22s-.42-1.22-1.19-1.22h-.68v2.44h.68Z"/><path class="cls-14" d="M30.05,1.63v3.15h-.44V1.63h.44Z"/><path class="cls-14" d="M32.84,4.04V1.63h.41v3.15h-.35l-1.83-2.53v2.53h-.41V1.63h.45l1.73,2.41Z"/><path class="cls-14" d="M33.7,3.21c0-.97,.67-1.64,1.54-1.64s1.41,.5,1.46,1.3l-.42,.03c-.04-.58-.41-.96-1.04-.96s-1.1,.49-1.1,1.27,.46,1.27,1.14,1.27c.59,0,.97-.37,1.03-.91h-.96v-.34h1.36v1.56h-.4v-.56c-.14,.4-.58,.62-1.08,.62-.89,0-1.54-.66-1.54-1.64Z"/></g><g><path class="cls-14" d="M78.92,4.79h-2.25V1.63h2.2v.36h-1.78v.99h1.42v.36h-1.42v1.09h1.83v.36Z"/><path class="cls-14" d="M80.93,1.63l1.31,3.15h-.46l-.38-.93h-1.44l-.37,.93h-.42l1.29-3.15h.48Zm-.83,1.88h1.16l-.58-1.4h-.02l-.57,1.4Z"/><path class="cls-14" d="M82.76,3.63c.02,.58,.42,.87,.95,.87,.47,0,.77-.2,.77-.55,0-.29-.19-.43-.6-.51l-.62-.12c-.47-.09-.79-.34-.79-.83,0-.55,.44-.93,1.13-.93,.79,0,1.25,.42,1.25,1.13l-.4,.02c-.02-.52-.33-.82-.85-.82-.46,0-.71,.21-.71,.57,0,.31,.21,.41,.57,.48l.57,.11c.58,.11,.87,.36,.87,.87,0,.58-.5,.92-1.18,.92-.78,0-1.34-.42-1.34-1.19l.39-.03Z"/><path class="cls-14" d="M86.15,4.79V1.99h-1.15v-.36h2.74v.36h-1.17v2.79h-.43Z"/><path class="cls-14" d="M90.4,4.79h-1.34V1.63h1.29c.78,0,1.1,.34,1.1,.84,0,.37-.26,.62-.6,.68,.39,.07,.69,.32,.69,.77,0,.55-.4,.87-1.14,.87Zm-.92-1.79h.88c.46,0,.65-.2,.65-.5s-.2-.51-.65-.51h-.88v1.01Zm0,.34v1.1h.91c.47,0,.72-.21,.72-.55s-.25-.55-.72-.55h-.91Z"/><path class="cls-14" d="M91.97,3.58V1.63h.43v1.95c0,.6,.3,.9,.85,.9s.86-.29,.86-.89V1.63h.43v1.95c0,.92-.57,1.27-1.28,1.27s-1.28-.34-1.28-1.27Z"/><path class="cls-14" d="M95.53,1.63v3.15h-.44V1.63h.44Z"/><path class="cls-14" d="M96.57,1.63v2.79h1.76v.36h-2.19V1.63h.44Z"/><path class="cls-14" d="M98.76,1.63h1.14c.99,0,1.62,.59,1.62,1.58s-.62,1.58-1.62,1.58h-1.14V1.63Zm1.12,2.8c.77,0,1.19-.46,1.19-1.22s-.42-1.22-1.19-1.22h-.68v2.44h.68Z"/><path class="cls-14" d="M102.41,1.63v3.15h-.43V1.63h.43Z"/><path class="cls-14" d="M105.2,4.04V1.63h.41v3.15h-.34l-1.83-2.53v2.53h-.41V1.63h.45l1.73,2.41Z"/><path class="cls-14" d="M106.06,3.21c0-.97,.67-1.64,1.54-1.64s1.41,.5,1.46,1.3l-.42,.03c-.04-.58-.41-.96-1.04-.96s-1.1,.49-1.1,1.27,.46,1.27,1.14,1.27c.59,0,.97-.37,1.03-.91h-.96v-.34h1.36v1.56h-.4v-.56c-.14,.4-.58,.62-1.08,.62-.89,0-1.54-.66-1.54-1.64Z"/></g></g></g></g></svg>