<?xml version="1.0" encoding="UTF-8"?><svg id="Layer_1" xmlns="http://www.w3.org/2000/svg" xmlns:xlink="http://www.w3.org/1999/xlink" viewBox="0 0 112.59 103.94"><defs><style>.cls-1{clip-path:url(#clippath-2);}.cls-2{stroke:#ebebec;}.cls-2,.cls-3,.cls-4{stroke-width:.31px;}.cls-2,.cls-3,.cls-4,.cls-5,.cls-6{fill:none;}.cls-2,.cls-3,.cls-4,.cls-6{stroke-linecap:round;stroke-linejoin:round;}.cls-7{clip-path:url(#clippath-4);}.cls-3,.cls-4,.cls-6{stroke:#000;}.cls-8{fill:#f1b784;fill-rule:evenodd;}.cls-4{stroke-dasharray:0 0 3.94 1.97;}.cls-9{clip-path:url(#clippath);}.cls-10{fill:#333132;}.cls-6{stroke-width:.47px;}</style><clipPath id="clippath"><rect class="cls-5" x="-483.08" y="-648.24" width="612" height="792"/></clipPath><clipPath id="clippath-2"><rect class="cls-5" x="-449.22" y="-440.64" width="549.34" height="327.6"/></clipPath><clipPath id="clippath-4"><rect class="cls-5" x=".12" y="-1.68" width="121.8" height="109.2"/></clipPath></defs><g class="cls-9"><g class="cls-1"><rect class="cls-6" x="-513.7" y="-651.96" width="678.3" height="877.8"/></g><polygon class="cls-8" points="97.22 71.59 95.35 72.28 95.14 71.71 81.47 76.68 84.11 83.92 84.01 83.96 84.64 85.67 92.74 82.72 92.12 81 95.46 79.79 95.96 81.17 100.15 79.64 97.22 71.59"/><polygon class="cls-2" points="97.22 71.59 95.35 72.28 95.14 71.71 81.47 76.68 84.11 83.92 84.01 83.95 84.63 85.67 92.74 82.72 92.12 81 95.46 79.79 95.96 81.17 100.15 79.64 97.22 71.59"/><line class="cls-3" x1="32.6" y1="34.62" x2="32.6" y2="31.38"/><polyline class="cls-3" points="36.06 34.62 32.6 31.38 29.14 34.62"/><polyline class="cls-3" points="36.06 31.38 32.6 34.62 29.14 31.38"/><line class="cls-3" x1="90.46" y1="67.49" x2="93.17" y2="66.51"/><polyline class="cls-3" points="91.66 70.78 93.17 66.51 89.27 64.2"/><polyline class="cls-3" points="94.37 69.79 90.46 67.49 91.97 63.22"/><line class="cls-4" x1="97.22" y1="71.59" x2="108.24" y2="76.17"/><line class="cls-4" x1="105.46" y1="68.56" x2="100.15" y2="79.64"/><line class="cls-3" x1="76.41" y1="16.5" x2="72.41" y2="19.88"/><line class="cls-3" x1="76.41" y1="19.88" x2="72.41" y2="16.5"/><line class="cls-3" x1="52.47" y1="44.09" x2="52.47" y2="47.69"/><line class="cls-3" x1="41.57" y1="44.09" x2="41.57" y2="47.69"/><line class="cls-3" x1="12.98" y1="27.35" x2="11.44" y2="27.35"/><line class="cls-3" x1="12.98" y1="24.39" x2="14.53" y2="23.67"/><line class="cls-3" x1="70.63" y1="61.06" x2="71.86" y2="64.46"/><line class="cls-3" x1="80.88" y1="57.33" x2="82.11" y2="60.73"/><line class="cls-3" x1="78.11" y1="35.24" x2="80.23" y2="35.24"/><polyline class="cls-3" points="105.94 63.12 107.42 62.58 109.45 68.14 105.8 69.47"/><line class="cls-3" x1="95.01" y1="46.33" x2="92.34" y2="46.33"/><line class="cls-3" x1="97.54" y1="66.59" x2="96.06" y2="67.13"/><polyline class="cls-3" points="98.96 65.89 97.48 66.43 98.45 69.1 96.98 69.64"/><line class="cls-3" x1="98.39" y1="68.94" x2="99.88" y2="68.4"/><polyline class="cls-3" points="60.81 75.64 59.46 76.13 60.94 80.2 62.42 79.66"/><line class="cls-3" x1="59.34" y1="80.43" x2="60.83" y2="79.89"/><line class="cls-3" x1="60.02" y1="77.67" x2="58.79" y2="78.9"/><polyline class="cls-3" points="98.17 33.64 96.59 33.64 96.59 30.64 95.01 30.64"/><line class="cls-3" x1="98.17" y1="30.97" x2="96.59" y2="30.97"/><line class="cls-3" x1="95.01" y1="33.31" x2="96.59" y2="33.31"/><polyline class="cls-3" points="47.78 73.22 47.16 73.45 45.93 70.05 54.44 66.95 55.68 70.35"/><polyline class="cls-3" points="58.57 69.3 57.33 65.9 60.98 64.57"/><line class="cls-3" x1="62.18" y1="64.14" x2="65.64" y2="62.88"/><rect class="cls-3" x="60.65" y="62.11" width="1.27" height="2.86" transform="translate(-18.04 24.8) rotate(-20)"/><rect class="cls-3" x="65.3" y="60.41" width="1.27" height="2.86" transform="translate(-17.18 26.29) rotate(-20)"/><rect class="cls-3" x="70.43" y="58.55" width="1.27" height="2.86" transform="translate(-16.23 27.93) rotate(-20)"/><rect class="cls-3" x="75.55" y="56.68" width="1.27" height="2.86" transform="translate(-15.28 29.57) rotate(-20)"/><rect class="cls-3" x="80.68" y="54.81" width="1.27" height="2.86" transform="translate(-14.33 31.21) rotate(-20)"/><line class="cls-3" x1="66.84" y1="62.44" x2="70.77" y2="61.01"/><line class="cls-3" x1="71.96" y1="60.58" x2="75.89" y2="59.15"/><line class="cls-3" x1="77.09" y1="58.71" x2="81.02" y2="57.28"/><polyline class="cls-3" points="82.21 56.85 83.9 56.23 85.14 59.63"/><line class="cls-3" x1="75.75" y1="59.2" x2="76.99" y2="62.59"/><line class="cls-3" x1="65.5" y1="62.93" x2="66.74" y2="66.32"/><rect class="cls-3" x="74.06" y="46.45" width="2.75" height="1.27"/><rect class="cls-3" x="74.06" y="44.94" width="2.75" height="1.27"/><line class="cls-3" x1="76.81" y1="46.22" x2="76.81" y2="46.45"/><line class="cls-3" x1="77.85" y1="46.33" x2="76.81" y2="46.33"/><polyline class="cls-3" points="76.09 47.72 76.09 52.64 79.69 52.64 79.69 52.1"/><rect class="cls-3" x="74.06" y="39.27" width="2.75" height="1.27"/><rect class="cls-3" x="74.06" y="33.82" width="2.75" height="1.27"/><line class="cls-3" x1="76.09" y1="23.8" x2="76.09" y2="33.82"/><line class="cls-3" x1="76.09" y1="35.09" x2="76.09" y2="39.27"/><line class="cls-3" x1="76.09" y1="40.55" x2="76.09" y2="44.94"/><line class="cls-3" x1="79.69" y1="40.69" x2="76.09" y2="40.68"/><line class="cls-3" x1="80.23" y1="35.24" x2="76.09" y2="35.24"/><line class="cls-3" x1="79.69" y1="29.79" x2="76.09" y2="29.79"/><line class="cls-3" x1="110.52" y1="23.96" x2="110.52" y2="46.03"/><line class="cls-3" x1="108.26" y1="40.69" x2="110.51" y2="40.69"/><line class="cls-3" x1="108.26" y1="35.37" x2="110.51" y2="35.37"/><polyline class="cls-3" points="110.52 46.64 110.52 51.84 108.26 51.84"/><rect class="cls-3" x="64.54" y="47.15" width="1.27" height="2.85"/><rect class="cls-3" x="52.62" y="47.15" width="1.27" height="2.85"/><rect class="cls-3" x="47.17" y="47.15" width="1.27" height="2.85"/><rect class="cls-3" x="41.9" y="47.15" width="1.27" height="2.85"/><rect class="cls-3" x="36.3" y="47.15" width="1.27" height="2.85"/><rect class="cls-3" x="28.9" y="47.15" width="1.27" height="2.85"/><rect class="cls-3" x="22.2" y="47.15" width="1.27" height="2.85"/><polyline class="cls-3" points="69.82 44.09 70.36 44.09 70.36 47.69 65.81 47.69"/><line class="cls-3" x1="64.54" y1="47.69" x2="60.13" y2="47.69"/><line class="cls-3" x1="58.32" y1="47.69" x2="53.89" y2="47.69"/><line class="cls-3" x1="52.62" y1="47.69" x2="48.44" y2="47.69"/><line class="cls-3" x1="47.17" y1="47.69" x2="43.17" y2="47.69"/><line class="cls-3" x1="41.9" y1="47.69" x2="37.57" y2="47.69"/><line class="cls-3" x1="36.3" y1="47.69" x2="30.17" y2="47.69"/><line class="cls-3" x1="28.9" y1="47.69" x2="23.48" y2="47.69"/><polyline class="cls-3" points="22.2 47.69 20.07 47.69 17.66 46.23 17.66 44.09 18.04 44.09"/><line class="cls-3" x1="47.02" y1="44.09" x2="47.02" y2="47.69"/><line class="cls-3" x1="36.11" y1="44.09" x2="36.11" y2="47.69"/><line class="cls-3" x1="23.62" y1="44.09" x2="23.62" y2="47.69"/><line class="cls-3" x1="60.13" y1="44.09" x2="60.13" y2="47.69"/><line class="cls-3" x1="58.32" y1="44.09" x2="58.32" y2="47.69"/><polyline class="cls-3" points="2.94 16.61 2.19 16.61 2.19 13.71 11.24 13.71 11.24 16.61"/><polyline class="cls-3" points="28.02 16.61 28.02 13.71 18.49 13.71 18.49 14.76 14.69 14.76 14.69 16.61"/><line class="cls-3" x1="23.11" y1="16.61" x2="23.11" y2="13.71"/><line class="cls-3" x1="12.98" y1="25.85" x2="11.44" y2="25.85"/><line class="cls-3" x1="12.98" y1="18.22" x2="11.44" y2="18.22"/><line class="cls-3" x1="12.98" y1="20.33" x2="14.53" y2="20.33"/><line class="cls-3" x1="12.98" y1="21.33" x2="14.53" y2="21.33"/><line class="cls-3" x1="12.98" y1="23.36" x2="14.53" y2="23.36"/><line class="cls-3" x1="59.78" y1="37.24" x2="61.33" y2="36.52"/><line class="cls-3" x1="59.78" y1="38.22" x2="61.33" y2="38.22"/><polyline class="cls-3" points="66.09 94.81 66.23 95.22 62.87 96.43 62.73 96.06"/><polyline class="cls-3" points="52.45 99.22 53.49 102.11 57.77 100.57 57.57 100.01 61.48 98.6 60.81 96.76"/><polyline class="cls-3" points="70.63 93.17 73.6 90.83 81.65 87.87 81.4 87.19 84.74 85.96 84.63 85.67"/><polyline class="cls-3" points="96 81.15 96.23 81.78 92.8 83.04 92.7 82.74"/><line class="cls-3" x1="73.56" y1="90.86" x2="73.19" y2="89.84"/><polygon class="cls-3" points="2.04 22.2 2.04 21.74 2.94 21.74 2.94 16.61 7.45 16.61 15.03 16.61 18.84 16.61 25.57 16.61 31.51 16.61 35.66 16.61 35.66 12.38 38.21 12.38 38.21 13.1 69.36 13.1 69.36 16.5 70.09 16.5 70.09 23.52 69.82 23.52 69.82 33.59 69.82 38.95 69.82 44.09 65.31 44.09 57.41 44.09 49.52 44.09 44.57 44.09 38.63 44.09 32.11 44.09 27.68 44.09 21.14 44.09 18.04 44.09 18.04 42.02 14.55 42.02 9.87 42.02 9.87 39.05 9.32 39.05 9.32 37.42 6.21 37.42 6.21 32.91 2.94 32.91 2.94 22.2 2.04 22.2"/><polyline class="cls-3" points="35.96 16.61 35.96 29.32 63.32 29.32 63.32 31.38 9.45 31.38 9.45 29.32 28.57 29.32 28.57 16.61"/><line class="cls-3" x1="9.45" y1="30.35" x2="2.94" y2="30.35"/><line class="cls-3" x1="14.42" y1="31.38" x2="14.42" y2="42.02"/><line class="cls-3" x1="23.62" y1="31.38" x2="23.62" y2="44.09"/><polyline class="cls-3" points="29.14 31.38 29.14 34.62 36.06 34.62 36.06 31.38"/><polyline class="cls-3" points="36.11 44.09 36.11 34.62 36.06 34.62"/><line class="cls-3" x1="41.57" y1="44.09" x2="41.57" y2="31.38"/><line class="cls-3" x1="47.02" y1="44.09" x2="47.02" y2="31.38"/><line class="cls-3" x1="52.47" y1="44.09" x2="52.47" y2="32.46"/><polyline class="cls-3" points="52.42 31.46 52.42 32.46 55.08 32.46 55.08 31.38"/><line class="cls-3" x1="58.24" y1="31.38" x2="58.24" y2="44.09"/><line class="cls-3" x1="61.33" y1="44.09" x2="61.33" y2="31.38"/><line class="cls-3" x1="69.82" y1="30.35" x2="63.32" y2="30.35"/><line class="cls-3" x1="23.11" y1="29.32" x2="23.11" y2="16.61"/><line class="cls-3" x1="11.44" y1="29.32" x2="11.44" y2="16.61"/><line class="cls-3" x1="14.53" y1="16.61" x2="14.53" y2="29.32"/><polyline class="cls-3" points="17.4 29.32 17.4 28.24 14.53 28.24"/><polyline class="cls-3" points="14.53 27.69 12.98 27.69 12.98 23.03"/><polygon class="cls-3" points="86.67 59.07 86.67 52.1 79.69 52.1 79.69 49.4 80.23 49.4 80.23 46.64 77.85 46.64 77.85 46.03 80.23 46.03 80.23 43.26 79.69 43.26 79.69 38.21 80.23 38.21 80.23 32.27 79.69 32.27 79.69 26.93 80.23 26.93 80.23 24.09 79.69 24.09 79.69 23.8 73.54 23.8 73.54 19.88 72.41 19.88 72.41 16.5 73.59 16.5 73.59 13.1 88.24 13.1 88.24 12.38 90.8 12.38 90.8 13.1 97.15 13.1 97.15 12.38 99.71 12.38 99.71 13.1 109.6 13.1 109.6 21.41 110.85 21.41 110.85 23.96 108.26 23.96 108.26 27.78 107.72 27.78 107.72 31.36 108.26 31.36 108.26 35.37 107.72 35.37 107.72 38.21 108.26 38.21 108.26 43.26 107.72 43.26 107.72 46.03 110.52 46.03 110.52 46.64 107.72 46.64 107.72 49.4 108.26 49.4 108.26 52.1 102.21 52.1 102.21 52.9 102.22 52.91 106.02 63.36 105.47 63.56 106.97 67.68 107.49 67.49 107.63 67.87 105.5 68.65 108.23 76.17 104.16 77.66 104.33 78.12 95.96 81.17 95.46 79.79 92.12 81 92.74 82.72 84.63 85.67 84.01 83.96 80.67 85.17 81.3 86.89 73.19 89.84 72.56 88.12 69.22 89.34 70.63 93.17 66.09 94.81 65.47 93.13 62.11 94.35 62.73 96.06 56.87 98.19 56.69 97.68 52.45 99.22 51.06 95.4 50.54 95.59 49.1 91.63 51.37 90.81 49.96 86.92 51.93 86.2 49.03 78.24 49.54 78.06 47.79 73.22 51.9 71.73 59.15 69.09 62.73 67.78 69.07 65.47 74.65 63.44 79.32 61.74 86.67 59.07"/><polyline class="cls-3" points="94.37 69.79 91.97 63.22 89.27 64.2 91.66 70.78"/><polyline class="cls-3" points="89.66 64.06 89.66 62.96 91.58 62.96 91.71 63.31"/><polyline class="cls-3" points="91.97 63.22 91.92 63.08 92.95 62.7 92.95 53.99 88.79 53.99 88.79 54.6 86.67 54.6"/><polyline class="cls-3" points="92.95 59.92 91.8 59.92 91.8 62.96 91.58 62.96"/><polyline class="cls-3" points="92.95 23.91 91.86 23.91 91.86 26.64 92.95 26.64"/><polyline class="cls-3" points="95.01 28.8 98.17 28.8 98.17 35.24 95.01 35.24"/><polyline class="cls-3" points="95.39 65.32 98.36 64.24 100.58 70.34 97.63 71.41"/><line class="cls-3" x1="58.64" y1="69.27" x2="62.99" y2="81.22"/><polyline class="cls-3" points="65.71 80.23 65.34 79.21 62.62 80.2"/><line class="cls-3" x1="95.01" y1="23.96" x2="108.26" y2="23.96"/><polyline class="cls-3" points="107.72 35.37 107.72 35.24 98.17 35.24"/><line class="cls-3" x1="108.26" y1="40.69" x2="95" y2="40.69"/><line class="cls-3" x1="95.01" y1="46.33" x2="110.52" y2="46.33"/><line class="cls-3" x1="77.85" y1="46.33" x2="92.34" y2="46.33"/><polyline class="cls-3" points="95.01 59.65 100.71 59.65 104.21 58.38"/><polyline class="cls-3" points="105.5 68.65 105.46 68.56 100.58 70.33"/><line class="cls-3" x1="100.15" y1="79.64" x2="97.22" y2="71.59"/><polyline class="cls-3" points="84.01 83.96 84.1 83.92 81.47 76.68"/><polyline class="cls-3" points="62.11 94.35 61.99 94.4 58.58 85.01"/><polyline class="cls-3" points="51.93 86.2 51.97 86.32 56.4 84.71"/><line class="cls-3" x1="55.68" y1="70.35" x2="60.02" y2="82.3"/><line class="cls-3" x1="66.74" y1="66.32" x2="71.09" y2="78.27"/><line class="cls-3" x1="71.86" y1="64.46" x2="76.21" y2="76.4"/><line class="cls-3" x1="76.99" y1="62.59" x2="81.34" y2="74.54"/><line class="cls-3" x1="82.11" y1="60.73" x2="86.46" y2="72.67"/><polyline class="cls-3" points="86.67 58.49 86.79 58.49 86.79 59.4 89.71 59.4 89.71 62.96"/><line class="cls-3" x1="79.69" y1="40.69" x2="92.94" y2="40.69"/><line class="cls-3" x1="80.23" y1="35.24" x2="92.95" y2="35.24"/><line class="cls-3" x1="79.69" y1="29.79" x2="92.94" y2="29.79"/><polyline class="cls-3" points="80.23 24.09 80.23 23.96 91.86 23.96"/><polyline class="cls-3" points="57.38 75.02 58.85 74.48 57.15 69.81"/><polyline class="cls-3" points="94.37 69.79 56.04 83.74 56.75 85.68 95.14 71.71 95.34 72.28 97.64 71.44 95.01 64.26 95.01 23.91 92.95 23.91 92.95 43.51 92.34 43.86 92.34 48.8 92.7 49 92.95 49.15 92.95 51.97 86.67 51.97 86.67 52.1"/><polyline class="cls-3" points="73.59 16.5 76.4 16.5 76.4 19.88 73.54 19.88"/><polyline class="cls-3" points="11.44 21.59 12.98 21.59 12.98 16.61"/><polyline class="cls-3" points="59.78 40.87 59.78 33.26 61.33 33.26"/><polyline class="cls-3" points="96.77 23.96 96.77 22.02 90.43 22.02 90.43 23.96"/><polyline class="cls-3" points="72.56 88.12 72.66 88.09 70.02 80.85"/><g class="cls-7"><rect class="cls-3" x="-167.73" y="-435.92" width="450.14" height="582.54"/></g><g><path class="cls-10" d="M89.34,94.2v3.91h2.46v.5h-3.07v-4.41h.61Z"/><path class="cls-10" d="M95.55,98.61h-3.15v-4.41h3.08v.5h-2.49v1.39h1.98v.5h-1.98v1.52h2.56v.5Z"/><path class="cls-10" d="M97.62,98.61l-1.77-4.41h.62l1.49,3.71h.03l1.45-3.71h.62l-1.78,4.41h-.66Z"/><path class="cls-10" d="M103.71,98.61h-3.15v-4.41h3.08v.5h-2.49v1.39h1.98v.5h-1.98v1.52h2.56v.5Z"/><path class="cls-10" d="M105.01,94.2v3.91h2.46v.5h-3.07v-4.41h.61Z"/><path class="cls-10" d="M108.97,94.84c.62,0,.88-.21,1.04-.67h.4v4.44h-.61v-3.38h-.83v-.39Z"/></g><g><path class="cls-10" d="M7.67,4.18h.02l.65-2.62h.41l-.81,3.15h-.5l-.66-2.52h-.02l-.67,2.52h-.5l-.81-3.15h.42l.66,2.61h.02l.69-2.61h.41l.7,2.62Z"/><path class="cls-10" d="M11.35,4.71h-2.25V1.56h2.2v.36h-1.78v.99h1.42v.36h-1.42v1.09h1.83v.36Z"/><path class="cls-10" d="M11.99,3.56c.02,.58,.42,.87,.95,.87,.47,0,.77-.2,.77-.55,0-.29-.19-.43-.6-.51l-.62-.12c-.47-.09-.79-.34-.79-.83,0-.55,.44-.93,1.13-.93,.79,0,1.25,.42,1.25,1.13l-.4,.02c-.02-.52-.33-.82-.85-.82-.46,0-.71,.21-.71,.57,0,.31,.21,.41,.57,.48l.57,.11c.58,.11,.87,.36,.87,.87,0,.58-.5,.92-1.18,.92-.78,0-1.34-.42-1.34-1.19l.39-.03Z"/><path class="cls-10" d="M15.38,4.71V1.92h-1.15v-.36h2.74v.36h-1.17v2.79h-.43Z"/><path class="cls-10" d="M19.63,4.71h-1.34V1.56h1.29c.78,0,1.1,.34,1.1,.84,0,.37-.26,.62-.6,.68,.39,.07,.69,.32,.69,.77,0,.55-.4,.87-1.14,.87Zm-.92-1.79h.88c.46,0,.65-.2,.65-.5s-.19-.51-.65-.51h-.88v1.01Zm0,.34v1.1h.91c.47,0,.72-.21,.72-.55s-.25-.55-.72-.55h-.91Z"/><path class="cls-10" d="M21.2,3.51V1.56h.43v1.95c0,.6,.3,.9,.85,.9s.86-.29,.86-.89V1.56h.42v1.95c0,.92-.57,1.27-1.28,1.27s-1.28-.34-1.28-1.27Z"/><path class="cls-10" d="M24.76,1.56v3.15h-.43V1.56h.43Z"/><path class="cls-10" d="M25.8,1.56v2.79h1.76v.36h-2.19V1.56h.43Z"/><path class="cls-10" d="M27.99,1.56h1.14c.99,0,1.62,.59,1.62,1.58s-.63,1.58-1.62,1.58h-1.14V1.56Zm1.12,2.8c.77,0,1.19-.46,1.19-1.22s-.42-1.22-1.19-1.22h-.68v2.44h.68Z"/><path class="cls-10" d="M31.64,1.56v3.15h-.44V1.56h.44Z"/><path class="cls-10" d="M34.42,3.97V1.56h.41v3.15h-.35l-1.83-2.53v2.53h-.41V1.56h.45l1.73,2.41Z"/><path class="cls-10" d="M35.29,3.14c0-.97,.67-1.64,1.54-1.64s1.41,.5,1.46,1.3l-.42,.03c-.04-.58-.41-.96-1.04-.96s-1.1,.49-1.1,1.27,.46,1.27,1.14,1.27c.59,0,.97-.37,1.03-.91h-.96v-.34h1.36v1.56h-.4v-.56c-.14,.4-.58,.62-1.08,.62-.89,0-1.54-.66-1.54-1.64Z"/></g><g><path class="cls-10" d="M80.51,4.71h-2.25V1.56h2.2v.36h-1.78v.99h1.42v.36h-1.42v1.09h1.83v.36Z"/><path class="cls-10" d="M82.52,1.56l1.31,3.15h-.46l-.38-.93h-1.44l-.37,.93h-.42l1.29-3.15h.48Zm-.83,1.88h1.16l-.58-1.4h-.02l-.57,1.4Z"/><path class="cls-10" d="M84.35,3.56c.02,.58,.42,.87,.95,.87,.47,0,.77-.2,.77-.55,0-.29-.19-.43-.6-.51l-.62-.12c-.47-.09-.79-.34-.79-.83,0-.55,.44-.93,1.13-.93,.79,0,1.25,.42,1.25,1.13l-.4,.02c-.02-.52-.33-.82-.85-.82-.46,0-.71,.21-.71,.57,0,.31,.21,.41,.57,.48l.57,.11c.58,.11,.87,.36,.87,.87,0,.58-.5,.92-1.18,.92-.78,0-1.34-.42-1.34-1.19l.39-.03Z"/><path class="cls-10" d="M87.74,4.71V1.92h-1.15v-.36h2.74v.36h-1.17v2.79h-.43Z"/><path class="cls-10" d="M91.99,4.71h-1.34V1.56h1.29c.78,0,1.1,.34,1.1,.84,0,.37-.26,.62-.6,.68,.39,.07,.69,.32,.69,.77,0,.55-.4,.87-1.14,.87Zm-.92-1.79h.88c.46,0,.65-.2,.65-.5s-.2-.51-.65-.51h-.88v1.01Zm0,.34v1.1h.91c.47,0,.72-.21,.72-.55s-.25-.55-.72-.55h-.91Z"/><path class="cls-10" d="M93.56,3.51V1.56h.43v1.95c0,.6,.3,.9,.85,.9s.86-.29,.86-.89V1.56h.43v1.95c0,.92-.57,1.27-1.28,1.27s-1.28-.34-1.28-1.27Z"/><path class="cls-10" d="M97.12,1.56v3.15h-.44V1.56h.44Z"/><path class="cls-10" d="M98.16,1.56v2.79h1.76v.36h-2.19V1.56h.44Z"/><path class="cls-10" d="M100.35,1.56h1.14c.99,0,1.62,.59,1.62,1.58s-.62,1.58-1.62,1.58h-1.14V1.56Zm1.12,2.8c.77,0,1.19-.46,1.19-1.22s-.42-1.22-1.19-1.22h-.68v2.44h.68Z"/><path class="cls-10" d="M104,1.56v3.15h-.43V1.56h.43Z"/><path class="cls-10" d="M106.79,3.97V1.56h.41v3.15h-.34l-1.83-2.53v2.53h-.41V1.56h.45l1.73,2.41Z"/><path class="cls-10" d="M107.65,3.14c0-.97,.67-1.64,1.54-1.64s1.41,.5,1.46,1.3l-.42,.03c-.04-.58-.41-.96-1.04-.96s-1.1,.49-1.1,1.27,.46,1.27,1.14,1.27c.59,0,.97-.37,1.03-.91h-.96v-.34h1.36v1.56h-.4v-.56c-.14,.4-.58,.62-1.08,.62-.89,0-1.54-.66-1.54-1.64Z"/></g></g></svg>