<svg width="86" height="19" viewBox="0 0 86 19" fill="none" xmlns="http://www.w3.org/2000/svg">
<path d="M13.5536 1.0638C13.6984 1.1689 13.8292 1.2627 13.9588 1.35814C15.529 2.51312 17.0989 3.66851 18.67 4.82205C18.723 4.86105 18.7439 4.90005 18.7437 4.96553C18.7421 9.36008 18.7418 13.7546 18.7441 18.1492C18.7441 18.2329 18.718 18.2483 18.6393 18.2481C16.9783 18.2461 15.3176 18.2456 13.6566 18.2487C13.5657 18.2487 13.5513 18.2214 13.5513 18.1397C13.5534 12.4833 13.5532 6.8268 13.5532 1.17033V1.0636L13.5536 1.0638Z" fill="#000"/>
<path d="M19.7174 8.78967C19.8221 8.86603 19.9107 8.92986 19.9985 8.99452C21.6063 10.1789 23.2136 11.3636 24.8227 12.5463C24.8852 12.5923 24.9082 12.6391 24.908 12.7156C24.9057 14.5346 24.9055 16.3536 24.9084 18.1728C24.9084 18.2656 24.886 18.2902 24.7899 18.29C23.1329 18.2869 21.4757 18.2871 19.8188 18.2896C19.7379 18.2896 19.7155 18.2711 19.7155 18.1894C19.7178 15.0814 19.7174 11.9732 19.7174 8.86521V8.78988V8.78967Z" fill="#000"/>
<path d="M30.6422 18.2002C30.5595 17.9752 30.4776 17.7498 30.3938 17.5253C30.2949 17.2605 30.193 16.9965 30.095 16.7314C29.9433 16.3213 29.7945 15.9101 29.6434 15.4998C29.4836 15.0659 29.3258 14.6314 29.1612 14.1995C29.0187 13.8259 28.8776 13.452 28.7449 13.0751C28.6839 12.9017 28.6154 12.7305 28.5504 12.5585C28.5517 12.5203 28.5818 12.5287 28.6039 12.5285C29.041 12.5281 29.4784 12.5279 29.9155 12.5281C29.9305 12.5281 29.9422 12.5322 29.9502 12.5449C29.9974 12.7455 30.0751 12.9368 30.1403 13.1318C30.501 14.2096 30.8639 15.2868 31.2248 16.3644C31.2333 16.39 31.2402 16.4144 31.2682 16.4436C31.3282 16.2747 31.3882 16.1125 31.4431 15.9489C31.6512 15.3292 31.8569 14.7088 32.0652 14.0891C32.174 13.7652 32.2921 13.444 32.3959 13.1184C32.4574 12.9259 32.5155 12.7323 32.5867 12.5429C32.6016 12.5224 32.6239 12.5279 32.644 12.5279C33.0289 12.5277 33.414 12.5277 33.7988 12.5279C33.8128 12.5279 33.8264 12.53 33.8392 12.5359C34.2771 13.8424 34.7151 15.1486 35.1616 16.4801C35.2974 16.0825 35.4326 15.7145 35.5486 15.3407C35.7578 14.6663 36.0077 14.0053 36.2233 13.3333C36.3096 13.0642 36.3923 12.7945 36.4933 12.5304C36.9417 12.525 37.3901 12.5295 37.8385 12.5285C37.8577 12.5285 37.8817 12.5209 37.8909 12.5484C37.7931 12.7471 37.7303 12.9589 37.6534 13.1652C37.2756 14.179 36.8995 15.1932 36.5223 16.2071C36.2839 16.8479 36.0444 17.4885 35.806 18.1294C35.8004 18.1445 35.8031 18.1628 35.8021 18.1796C35.7901 18.2043 35.7692 18.2121 35.7427 18.2119C35.3451 18.2086 34.9472 18.2193 34.5496 18.2061C34.3609 17.7427 34.2241 17.2619 34.0565 16.7913C33.8973 16.3438 33.7545 15.8906 33.5911 15.4446C33.4683 15.1096 33.3615 14.7697 33.2435 14.4333C33.2372 14.4156 33.2428 14.3902 33.2033 14.3814C32.7815 15.654 32.3592 16.9274 31.9369 18.201C31.9252 18.209 31.912 18.2119 31.8978 18.2119C31.4922 18.2119 31.0867 18.2119 30.6809 18.2119C30.6665 18.2119 30.6535 18.2088 30.6422 18.2V18.2002Z" fill="#000"/>
<path d="M55.4879 4.92558C55.8881 4.9264 56.2884 4.93051 56.6884 4.92558C56.7799 4.92456 56.8273 4.9537 56.8756 5.02862C57.3574 5.77534 57.8441 6.51899 58.3343 7.27126C58.4275 7.17232 58.4828 7.05512 58.5518 6.94859C58.7327 6.66965 58.9045 6.38475 59.0813 6.10314C59.3147 5.73162 59.5497 5.36114 59.7831 4.98942C59.8097 4.94734 59.8362 4.92538 59.8941 4.92579C60.3082 4.92948 60.7224 4.92969 61.1365 4.9262C61.2103 4.92558 61.2287 4.9459 61.2287 5.01733C61.2266 6.85294 61.2266 8.68855 61.2289 10.5242C61.2289 10.6011 61.2015 10.611 61.1338 10.6104C60.7545 10.6075 60.3751 10.6091 59.9958 10.6093C59.9806 10.573 59.9881 10.535 59.9881 10.4979C59.9877 9.3501 59.9881 8.2023 59.9858 7.0543C59.9858 7.02269 60.022 6.96912 59.9536 6.95495C59.7263 7.28542 59.4979 7.61506 59.2718 7.94635C58.9808 8.37266 58.6916 8.80001 58.4016 9.22694C58.3378 9.32095 58.2954 9.32157 58.2331 9.2294C57.721 8.47427 57.2089 7.71892 56.6963 6.96399C56.6896 6.95413 56.6769 6.94818 56.6549 6.93094C56.6549 6.97651 56.6549 7.00873 56.6549 7.04116C56.6549 8.19347 56.6535 9.34579 56.6576 10.4981C56.6581 10.5956 56.6278 10.6122 56.5377 10.611C56.1863 10.6061 55.8346 10.6091 55.4829 10.6093C55.4677 10.573 55.4752 10.535 55.4752 10.4979C55.4748 8.67665 55.4748 6.85561 55.4754 5.03437C55.4754 4.99804 55.4624 4.95904 55.4881 4.92517L55.4879 4.92558Z" fill="#000"/>
<path d="M70.173 10.5906C70.1732 8.70222 70.1734 6.81386 70.1737 4.9255C70.2021 4.90661 70.2343 4.91503 70.2648 4.91503C70.601 4.91441 70.937 4.91441 71.2732 4.91503C71.3035 4.91503 71.3358 4.9062 71.3641 4.92591C71.759 5.45362 72.1533 5.98175 72.5488 6.50926C73.0361 7.1591 73.5244 7.80853 74.0125 8.45776C74.0184 8.46535 74.0284 8.46987 74.0363 8.47582C74.0952 8.46946 74.0689 8.4241 74.0693 8.3968C74.0718 8.20919 74.0706 8.02138 74.0706 7.83357C74.0706 6.9052 74.0704 5.97682 74.0708 5.04824C74.0708 4.89327 74.0547 4.91503 74.2116 4.91462C74.5453 4.91359 74.8788 4.9138 75.2125 4.91503C75.2457 4.91503 75.2823 4.90169 75.3122 4.92878C75.3116 6.01151 75.3103 7.09444 75.3103 8.17717C75.3103 8.97993 75.3118 9.78249 75.3128 10.5852C75.2963 10.6025 75.2744 10.5982 75.2541 10.5982C74.8899 10.5984 74.5257 10.5984 74.1613 10.5982C74.141 10.5982 74.1191 10.6029 74.103 10.5846C73.7914 10.1778 73.4797 9.7714 73.1686 9.36417C72.8455 8.94114 72.5223 8.51831 72.2007 8.09404C71.9627 7.78 71.727 7.46452 71.4909 7.14904C71.4679 7.11825 71.4261 7.10573 71.4067 7.06714V10.5902C71.2203 10.6078 71.0335 10.5976 70.8471 10.5969C70.6225 10.5963 70.3977 10.6084 70.1732 10.5902L70.173 10.5906Z" fill="#000"/>
<path d="M12.5437 1.82703V1.92822C12.5437 7.34207 12.5435 12.7559 12.5458 18.1696C12.5458 18.2613 12.5254 18.289 12.4284 18.2868C12.1396 18.2798 11.8504 18.2804 11.5615 18.2868C11.4733 18.2886 11.4549 18.2654 11.4551 18.1811C11.4578 16.3171 11.4572 14.4534 11.4572 12.5895C11.4572 9.2994 11.4576 6.00934 11.4553 2.71948C11.4553 2.63882 11.4808 2.59079 11.5462 2.54358C11.8458 2.32683 12.1413 2.10433 12.4389 1.88491C12.4679 1.86356 12.4923 1.83236 12.5437 1.82744V1.82703Z" fill="#000"/>
<path d="M51.9536 8.29794C51.9228 8.29527 51.8919 8.29055 51.8612 8.29034C51.1449 8.28993 50.4286 8.29157 49.7126 8.28809C49.6304 8.28767 49.6114 8.30882 49.6118 8.38805C49.6152 9.12225 49.6141 9.85645 49.6141 10.5907C49.4831 10.6087 49.3515 10.5968 49.2203 10.5978C48.9534 10.6001 48.6864 10.5991 48.4194 10.5978C48.3859 10.5978 48.3498 10.6095 48.3191 10.5853C48.3199 10.5067 48.3216 10.4283 48.3216 10.3497C48.3216 8.58037 48.3216 6.81085 48.3216 5.04154C48.3216 5.00398 48.3203 4.96642 48.3197 4.92885C48.3354 4.90976 48.3573 4.91469 48.3776 4.91469C48.7731 4.91449 49.1684 4.91449 49.564 4.91469C49.5813 4.91469 49.5987 4.91428 49.6135 4.92557C49.6135 5.62016 49.6135 6.31475 49.6141 7.00934C49.6141 7.04628 49.6192 7.08323 49.6217 7.12038C49.643 7.13701 49.6683 7.13085 49.6921 7.13085C50.4215 7.13105 51.151 7.13105 51.8804 7.13085C51.904 7.13085 51.9295 7.13721 51.9502 7.11894L51.9525 7.11669C51.9761 7.0822 51.9642 7.04341 51.9642 7.00687C51.965 6.34348 51.9661 5.67989 51.9632 5.0165C51.9628 4.93829 51.9801 4.91141 52.0656 4.91264C52.431 4.91756 52.7967 4.91695 53.1623 4.91284C53.2405 4.91202 53.2614 4.93255 53.2614 5.00972C53.2591 6.83938 53.2591 8.66904 53.2614 10.4987C53.2614 10.581 53.2378 10.6013 53.1567 10.6003C52.791 10.5962 52.4254 10.596 52.0599 10.6003C51.9782 10.6013 51.9628 10.5751 51.9632 10.5012C51.9659 9.8035 51.965 9.10583 51.9642 8.40816C51.9642 8.37142 51.9751 8.33283 51.9538 8.29773L51.9536 8.29794Z" fill="#000"/>
<path d="M71.924 18.2007C70.5351 18.2001 69.1464 18.1995 67.7575 18.1987C67.6292 18.1987 67.5651 18.1372 67.5651 18.0143C67.5651 16.2196 67.5659 14.4246 67.5626 12.6298C67.5626 12.533 67.5912 12.5153 67.6827 12.5155C69.0472 12.5184 70.4116 12.5184 71.7761 12.5155C71.8603 12.5155 71.8875 12.5309 71.8858 12.6196C71.8795 12.9238 71.8804 13.2282 71.8854 13.5323C71.8866 13.6095 71.8664 13.6278 71.7882 13.6276C70.845 13.6247 69.9016 13.6266 68.9584 13.6241C68.8809 13.6239 68.8533 13.6374 68.8547 13.7216C68.8606 14.0428 68.8591 14.3643 68.8554 14.6857C68.8545 14.7542 68.8673 14.7772 68.9438 14.777C69.8 14.7739 70.6563 14.7748 71.5126 14.7748C71.5308 14.8866 71.5191 14.9991 71.5201 15.1114C71.5222 15.3468 71.5193 15.5825 71.5218 15.8179C71.5224 15.8751 71.5053 15.9006 71.4453 15.8936C71.4213 15.8907 71.3966 15.8932 71.3724 15.8932C70.5732 15.8932 69.7737 15.8932 68.9745 15.8938C68.9371 15.8938 68.898 15.8836 68.8623 15.9039C68.855 16.2937 68.8501 16.6837 68.8648 17.0734C68.9005 17.0944 68.9396 17.0837 68.977 17.0837C69.9221 17.0843 70.8674 17.0841 71.8124 17.0843C71.9558 17.0843 71.938 17.0718 71.9382 17.2122C71.9389 17.5092 71.9389 17.806 71.9378 18.103C71.9378 18.1356 71.9512 18.1716 71.9238 18.2009L71.924 18.2007Z" fill="#000"/>
<path d="M53.4789 14.7699C53.5481 14.7717 53.6174 14.775 53.6866 14.775C54.5165 14.7752 55.3463 14.775 56.1762 14.7748C56.1938 14.8696 56.1831 14.9651 56.1838 15.0603C56.1856 15.3095 56.1821 15.5589 56.1859 15.8081C56.1869 15.8754 56.1673 15.9035 56.0981 15.8939C56.0776 15.891 56.0565 15.8935 56.0356 15.8935C55.2153 15.8935 54.3949 15.8949 53.5746 15.8914C53.4864 15.891 53.4653 15.9175 53.4664 16.0002C53.471 16.328 53.468 16.6558 53.4687 16.9834C53.4687 17.0133 53.4603 17.0449 53.4791 17.0733H53.4793C53.5152 17.0936 53.5543 17.0835 53.5917 17.0837C54.556 17.0844 55.5203 17.0841 56.4847 17.0844C56.5629 17.0844 56.6021 17.123 56.6023 17.2003C56.6023 17.5012 56.6027 17.8021 56.6017 18.103C56.6017 18.1357 56.615 18.1716 56.5877 18.2012C55.1948 18.2005 53.8019 18.1999 52.4091 18.1991C52.2888 18.1991 52.2287 18.1405 52.2287 18.0232C52.2287 16.2241 52.2296 14.425 52.2264 12.6262C52.2264 12.5344 52.2498 12.5155 52.3403 12.5157C53.7054 12.5188 55.0705 12.5188 56.4355 12.5157C56.5254 12.5157 56.5519 12.5334 56.5498 12.626C56.5427 12.9269 56.5438 13.228 56.5494 13.5289C56.5511 13.6122 56.5248 13.628 56.4456 13.6278C55.4948 13.6252 54.5443 13.626 53.5936 13.6264C53.5556 13.6264 53.5173 13.6297 53.4793 13.6315C53.459 13.6629 53.4691 13.698 53.4689 13.7311C53.468 14.0443 53.468 14.3573 53.4689 14.6705C53.4689 14.7038 53.459 14.7387 53.4793 14.7701L53.4789 14.7699Z" fill="#000"/>
<path d="M45.4744 12.5171C45.8996 12.5174 46.3248 12.5176 46.75 12.5178C46.7711 12.5529 46.7605 12.5912 46.7605 12.628C46.7611 13.379 46.7605 14.1301 46.7626 14.8811C46.7626 14.9131 46.736 14.957 46.7864 14.9794C46.9149 14.8396 47.0382 14.6947 47.1732 14.5611C47.4036 14.3326 47.6163 14.088 47.8441 13.8571C48.0184 13.6803 48.188 13.4977 48.3548 13.314C48.5721 13.0748 48.7998 12.8451 49.0142 12.6036C49.0692 12.5416 49.1321 12.5141 49.2217 12.5153C49.6567 12.5208 50.0918 12.5178 50.5268 12.5178H50.6338C50.5974 12.6007 50.5304 12.6463 50.4769 12.7011C50.2004 12.9845 49.92 13.2641 49.6423 13.5465C49.2875 13.9071 48.9338 14.2688 48.5802 14.6307C48.4987 14.7142 48.4227 14.8031 48.3381 14.8833C48.2938 14.9252 48.3057 14.9503 48.3366 14.9911C48.9772 15.8372 49.6162 16.6845 50.2558 17.5312C50.4012 17.7237 50.5477 17.9152 50.6934 18.1075C50.7113 18.1311 50.7257 18.1574 50.7412 18.1816C50.7195 18.2106 50.6931 18.1982 50.6714 18.1984C50.205 18.1993 49.7387 18.1984 49.2723 18.1999C49.2249 18.1999 49.1989 18.1894 49.1668 18.1461C48.7706 17.6122 48.3702 17.0816 47.9785 16.5447C47.8092 16.3128 47.6303 16.0872 47.4626 15.854C47.4277 15.8054 47.3919 15.813 47.3535 15.8546C47.1604 16.0632 46.9659 16.2707 46.772 16.4784C46.7519 16.5137 46.7619 16.5521 46.7617 16.5888C46.7609 17.0903 46.7617 17.5917 46.7605 18.0932C46.7605 18.1291 46.7751 18.1683 46.7467 18.2011C46.3244 18.2011 45.9021 18.2015 45.4798 18.2017C45.4552 18.1714 45.4671 18.1358 45.4671 18.1028C45.4665 16.2748 45.4665 14.4468 45.4669 12.619C45.4669 12.5853 45.46 12.5506 45.4746 12.5178L45.4744 12.5171Z" fill="#000"/>
<path d="M36.9929 8.31208C37.023 8.92826 37.3715 9.38639 38.0032 9.47568C38.3511 9.52494 38.6942 9.48676 38.9904 9.26098C39.2201 9.0859 39.3559 8.85786 39.4192 8.58384C39.4353 8.51426 39.4462 8.44365 39.4593 8.37366C39.4815 8.34164 39.461 8.30346 39.4742 8.27021C39.4771 8.20555 39.4827 8.14089 39.4827 8.07624C39.4834 7.044 39.4846 6.01197 39.4806 4.97974C39.4802 4.88244 39.5097 4.86315 39.6018 4.86459C39.9566 4.86972 40.3118 4.87095 40.6666 4.86397C40.7636 4.86212 40.7776 4.89209 40.7772 4.97748C40.773 6.02675 40.773 7.07582 40.772 8.12509C40.772 8.16614 40.7738 8.20699 40.7749 8.24804C40.75 8.3012 40.7763 8.35929 40.7588 8.41327C40.7057 8.8441 40.6061 9.26078 40.3593 9.62942C40.0427 10.1021 39.587 10.3753 39.0352 10.5061C38.9265 10.5317 38.8162 10.5504 38.7065 10.5722C38.6724 10.5882 38.6327 10.5666 38.5997 10.588C38.5585 10.5898 38.5176 10.5919 38.4764 10.5937C38.2957 10.6019 38.1147 10.6027 37.934 10.5931C37.5667 10.58 37.2142 10.4952 36.8859 10.3388C36.4759 10.1434 36.1698 9.83816 35.9692 9.43175C35.8403 9.17067 35.7615 8.89788 35.7191 8.61114C35.7053 8.51734 35.7116 8.42333 35.693 8.33096C35.684 8.30079 35.688 8.2698 35.688 8.23942C35.6878 7.14725 35.6878 6.05508 35.6884 4.96291C35.6884 4.93006 35.6765 4.89435 35.7011 4.86418C36.0904 4.865 36.4799 4.8691 36.8692 4.86418C36.9596 4.86295 36.9747 4.89024 36.9745 4.97214C36.9716 5.97954 36.9724 6.98674 36.9728 7.99414C36.9728 8.03149 36.9764 8.06885 36.978 8.10621C36.9935 8.17415 36.9684 8.24496 36.9929 8.31228V8.31208Z" fill="#000"/>
<path d="M10.4404 3.26587V3.39723C10.4404 8.29055 10.4402 13.1837 10.4425 18.077C10.4425 18.1714 10.4271 18.2051 10.3211 18.2018C10.0428 18.1932 9.76385 18.1923 9.48574 18.202C9.37333 18.2059 9.35139 18.1692 9.35891 18.0708C9.36727 17.962 9.36079 17.852 9.36079 17.7426C9.36079 13.2085 9.361 8.67418 9.3587 4.14006C9.3587 4.05118 9.38544 3.99987 9.45962 3.94958C9.78224 3.73057 10.1001 3.50417 10.4404 3.26587V3.26587Z" fill="#000"/>
<path d="M44.2004 5.8886C44.0001 5.89373 43.8086 5.93191 43.6747 6.09139C43.5078 6.29008 43.5297 6.63758 43.8312 6.79727C44.078 6.92802 44.3423 7.00622 44.6091 7.07827C44.9809 7.17843 45.3559 7.26936 45.7055 7.43275C46.0883 7.61152 46.4116 7.85496 46.561 8.2667C46.6117 8.40689 46.6337 8.55386 46.6518 8.70103C46.6592 8.79647 46.66 8.89192 46.6512 8.98736C46.6128 9.34163 46.5114 9.67004 46.2701 9.94878C46.0486 10.2047 45.7634 10.357 45.4481 10.463C45.2274 10.537 44.9978 10.5732 44.7656 10.5923C44.5918 10.6033 44.418 10.6003 44.2441 10.5939C44.2025 10.5919 44.1612 10.59 44.1196 10.588C44.0872 10.5654 44.0475 10.588 44.014 10.5717C43.6676 10.5414 43.3435 10.433 43.0238 10.3051C42.6956 10.1737 42.4112 9.97649 42.1366 9.76138C42.0746 9.71274 42.0771 9.67702 42.1264 9.61976C42.3197 9.39521 42.5092 9.16737 42.6979 8.93912C42.781 8.83855 42.7967 8.83485 42.906 8.91614C43.3051 9.21335 43.7481 9.41881 44.2466 9.47484C44.518 9.50543 44.798 9.51918 45.0584 9.38966C45.2046 9.317 45.3217 9.22464 45.353 9.05633C45.3668 8.98982 45.3668 8.92332 45.353 8.85702C45.3049 8.64725 45.1328 8.5633 44.9573 8.48797C44.6559 8.35825 44.335 8.28928 44.0197 8.20143C43.6062 8.08608 43.1943 7.95718 42.8443 7.69999C42.5735 7.50089 42.3993 7.23242 42.3249 6.90585C42.3103 6.84161 42.3057 6.7749 42.2965 6.70942C42.2862 6.55917 42.2862 6.40872 42.2965 6.25847C42.3316 5.8771 42.4849 5.54644 42.7652 5.28309C43.0667 4.99963 43.4411 4.85883 43.8504 4.80156C43.9119 4.79294 43.9735 4.78473 44.0349 4.77652C44.2228 4.76749 44.4106 4.76646 44.5985 4.77693C45.2115 4.83214 45.7845 4.99984 46.2912 5.35637C46.4487 5.46721 46.4517 5.46433 46.3411 5.62382C46.1696 5.87156 45.9972 6.11869 45.8261 6.36664C45.7931 6.41467 45.7682 6.44012 45.7047 6.39333C45.3919 6.16303 45.0511 5.99246 44.6601 5.92657C44.5707 5.91138 44.484 5.88244 44.3914 5.8886C44.3279 5.87259 44.2642 5.87259 44.2006 5.8886H44.2004Z" fill="#000"/>
<path d="M31.4358 10.5309C31.0695 10.5038 30.7243 10.3956 30.3936 10.2478C30.1951 10.1591 30.0168 10.0325 29.844 9.89846C29.5561 9.67514 29.3331 9.39866 29.1541 9.09016C29.0109 8.84344 28.9044 8.57805 28.8521 8.29561C28.8329 8.19134 28.8162 8.08666 28.7984 7.98219C28.7832 7.94873 28.8045 7.90994 28.7828 7.8773L28.7769 7.71535C28.7679 7.63366 28.7692 7.55176 28.7763 7.47007C28.7805 7.27959 28.8003 7.08932 28.848 6.90603C28.942 6.54375 29.0939 6.20384 29.3233 5.90253C29.6307 5.4992 30.0127 5.18659 30.4857 4.98256C30.7837 4.85407 31.094 4.77628 31.4149 4.73482C31.4488 4.72168 31.4876 4.742 31.5202 4.72025C31.5756 4.7186 31.631 4.71717 31.6863 4.71553C31.8531 4.70547 32.02 4.70752 32.187 4.7145C32.7915 4.76458 33.3366 4.96943 33.8245 5.32247C33.8469 5.33869 33.8674 5.35716 33.8885 5.37481C34.074 5.52916 34.0707 5.52608 33.9127 5.70302C33.7052 5.93537 33.4996 6.16936 33.303 6.41054C33.2491 6.47683 33.2207 6.46329 33.176 6.41834C32.9839 6.2258 32.7614 6.08171 32.5061 5.97929C32.3882 5.93208 32.2677 5.91484 32.1471 5.88898C32.1074 5.86558 32.0614 5.88959 32.0207 5.87317C31.9716 5.87317 31.9227 5.87358 31.8736 5.87379C31.8034 5.89 31.7304 5.86558 31.6606 5.88795C31.1642 5.91689 30.7684 6.13241 30.4738 6.52158C30.2772 6.78123 30.1549 7.07269 30.1376 7.40069C30.1205 7.43559 30.1359 7.47438 30.1242 7.5101C30.115 7.60616 30.115 7.70242 30.1242 7.79848C30.1366 7.83296 30.1186 7.87114 30.1382 7.9048C30.1652 8.28473 30.3236 8.60842 30.5835 8.88511C30.89 9.21147 31.2693 9.39435 31.7233 9.42063C31.8098 9.4354 31.8963 9.4354 31.9829 9.42063C32.3404 9.38881 32.6576 9.25601 32.9476 9.05281C33.0577 8.97563 33.1465 8.8769 33.2416 8.78454C33.2767 8.75026 33.3007 8.7365 33.3479 8.78084C33.6058 9.02263 33.868 9.26032 34.1307 9.49719C34.1848 9.54583 34.143 9.57211 34.1148 9.60289C33.9292 9.80589 33.7155 9.97441 33.4787 10.1171C33.0936 10.349 32.6741 10.4779 32.2286 10.5329C32.1876 10.5469 32.1423 10.5247 32.1024 10.5475H31.5827C31.5357 10.5231 31.483 10.5493 31.4354 10.5313L31.4358 10.5309Z" fill="#000"/>
<path d="M8.47631 4.77039C8.47631 4.83073 8.47631 4.86829 8.47631 4.90585C8.47631 9.29301 8.47589 13.6802 8.4786 18.0675C8.4786 18.1708 8.45771 18.2053 8.3455 18.2018C8.06384 18.1927 7.78154 18.194 7.49967 18.2016C7.40272 18.2042 7.38767 18.1739 7.38788 18.0872C7.39018 14.1549 7.38976 10.2224 7.38976 6.29011C7.38976 6.07808 7.38976 5.86605 7.38976 5.65402C7.38976 5.61686 7.38684 5.58259 7.42507 5.55447C7.7711 5.29831 8.11566 5.04009 8.47631 4.77059V4.77039Z" fill="#000"/>
<path d="M62.2966 14.8961C62.2964 15.2796 62.2962 15.663 62.296 16.0464C62.2603 16.0669 62.2212 16.0567 62.184 16.0567C61.3547 16.0573 60.5253 16.0571 59.6958 16.0577C59.6584 16.0577 59.6193 16.0476 59.5836 16.0677C59.5813 16.0811 59.5767 16.0944 59.5767 16.1076C59.5771 16.8042 59.5778 17.5008 59.5784 18.1975C59.5627 18.2166 59.5408 18.2116 59.5205 18.2116C59.125 18.2118 58.7296 18.2118 58.3341 18.2116C58.3167 18.2116 58.2994 18.2121 58.2846 18.2008C58.2843 16.3124 58.2841 14.424 58.2839 12.5357C58.3174 12.5213 58.3527 12.5281 58.3872 12.5281C59.7863 12.5277 61.1854 12.5277 62.5846 12.5279C62.6635 12.5279 62.7031 12.5661 62.7032 12.6426C62.7032 12.9571 62.7035 13.2715 62.7028 13.5862C62.7028 13.6201 62.7097 13.6545 62.6951 13.6874C61.6861 13.6874 60.6768 13.6878 59.6678 13.6853C59.5982 13.6853 59.5734 13.6964 59.5744 13.7721C59.5792 14.1139 59.5763 14.4557 59.5769 14.7974C59.5769 14.8241 59.5692 14.8524 59.5872 14.877C59.6229 14.8978 59.662 14.8873 59.6994 14.8873C60.5272 14.8879 61.3553 14.8877 62.1832 14.8881C62.221 14.8881 62.2596 14.8807 62.2966 14.8957V14.8961Z" fill="#000"/>
<path d="M73.8696 12.5171C74.2626 12.5171 74.6554 12.5202 75.0485 12.5153C75.1335 12.5143 75.1479 12.5401 75.1479 12.6167C75.1456 14.0648 75.1463 15.5131 75.1465 16.9611C75.1465 16.9985 75.1498 17.0359 75.1517 17.0732C75.1874 17.0935 75.2267 17.0833 75.2639 17.0833C76.1434 17.0839 77.023 17.0837 77.9025 17.0839C77.98 17.0839 78.0188 17.1229 78.0189 17.2009C78.0189 17.5014 78.0193 17.8019 78.0183 18.1024C78.0183 18.1352 78.0302 18.1709 78.0055 18.2011C77.331 18.2003 76.6565 18.1986 75.9818 18.1988C75.2796 18.1988 74.5771 18.2003 73.8748 18.2011C73.8501 18.1707 73.862 18.1352 73.862 18.1022C73.8614 16.2742 73.8614 14.4461 73.8618 12.6183C73.8618 12.5847 73.8549 12.55 73.8696 12.5171V12.5171Z" fill="#000"/>
<path d="M6.3801 9.45374V9.56334C6.3801 12.402 6.37947 15.2407 6.3826 18.0797C6.3826 18.18 6.35711 18.204 6.25702 18.2016C5.9716 18.1944 5.68596 18.1948 5.40053 18.2016C5.30964 18.2036 5.29501 18.1755 5.29501 18.0934C5.29731 15.4975 5.29731 12.9016 5.29501 10.3058C5.29501 10.2319 5.31821 10.1906 5.3788 10.1491C5.68387 9.94019 5.9856 9.72611 6.28837 9.51408C6.31323 9.49663 6.33914 9.48083 6.37989 9.45415L6.3801 9.45374Z" fill="#000"/>
<path d="M4.28369 10.9585C4.28369 11.3587 4.28369 11.7383 4.28369 12.1178C4.28369 14.1047 4.28285 16.0918 4.28599 18.0786C4.28599 18.177 4.26342 18.2045 4.16145 18.2016C3.87958 18.1938 3.59729 18.1952 3.31541 18.2012C3.22264 18.2032 3.19422 18.1821 3.19443 18.0854C3.19777 16.4235 3.19694 14.7613 3.19694 13.0993C3.19694 12.6685 3.19882 12.2375 3.19506 11.8066C3.19443 11.7366 3.21804 11.6962 3.27508 11.657C3.58287 11.4458 3.88794 11.2305 4.19384 11.017C4.2185 10.9998 4.2442 10.9842 4.28348 10.9587L4.28369 10.9585Z" fill="#000"/>
<path d="M65.7811 18.2007C65.4016 18.2001 65.022 18.1972 64.6425 18.2007C64.569 18.2013 64.551 18.182 64.5512 18.1106C64.5533 16.2742 64.5533 14.4375 64.5514 12.6011C64.5514 12.536 64.5656 12.5155 64.6356 12.5161C65.0186 12.5198 65.4016 12.518 65.7846 12.5182C65.8055 12.5533 65.7951 12.5919 65.7951 12.6286C65.7957 14.4501 65.7957 16.2713 65.7949 18.0927C65.7949 18.1287 65.8093 18.1681 65.7811 18.2011V18.2007Z" fill="#000"/>
<path d="M2.31267 12.4749C2.31267 12.5163 2.31267 12.549 2.31267 12.5816C2.31267 14.4176 2.31184 16.2538 2.31497 18.0899C2.31497 18.1814 2.29178 18.2027 2.20068 18.2009C1.90835 18.1947 1.61582 18.196 1.3235 18.2003C1.24932 18.2013 1.23135 18.1798 1.23135 18.1089C1.23323 16.519 1.23303 14.9291 1.2324 13.3392C1.2324 13.2961 1.23846 13.2624 1.27774 13.2335C1.61144 12.9874 1.94346 12.7392 2.27632 12.4919C2.28363 12.4866 2.29303 12.4841 2.31267 12.4751V12.4749Z" fill="#000"/>
<path d="M51.9536 8.29797C51.9759 8.33266 51.9636 8.37125 51.9636 8.40758C51.9644 9.10176 51.9663 9.79594 51.9617 10.4901C51.9611 10.5839 51.9891 10.602 52.0781 10.6007C52.4367 10.5956 52.7952 10.5968 53.154 10.6001C53.2259 10.6007 53.2547 10.5915 53.2547 10.5086C53.2518 8.67565 53.252 6.8427 53.2541 5.00976C53.2541 4.93895 53.238 4.91863 53.1636 4.91945C52.7946 4.92355 52.4254 4.92437 52.0564 4.91904C51.9726 4.91781 51.9621 4.94593 51.9625 5.01756C51.9653 5.68095 51.9644 6.34434 51.9634 7.00773C51.9634 7.04385 51.977 7.08265 51.9519 7.11672C51.9523 6.41946 51.955 5.722 51.9508 5.02474C51.9502 4.92335 51.9824 4.90036 52.0804 4.9018C52.4423 4.90734 52.8042 4.90631 53.1661 4.90221C53.2493 4.90118 53.2718 4.92602 53.2716 5.00648C53.2695 6.8386 53.2693 8.67072 53.2716 10.5028C53.2716 10.5895 53.2449 10.612 53.1594 10.611C52.794 10.6069 52.4285 10.6067 52.0633 10.611C51.9774 10.612 51.9508 10.5888 51.9513 10.5024C51.9546 9.76761 51.9531 9.03259 51.9531 8.29777L51.9536 8.29797Z" fill="#FCFCFC"/>
<path d="M45.4742 12.5172C45.4715 12.5544 45.4663 12.5915 45.4663 12.6287C45.4659 14.446 45.4659 16.2634 45.4663 18.0809C45.4663 18.1211 45.4572 18.1632 45.4793 18.2014C45.4401 18.1739 45.456 18.1326 45.456 18.0975C45.4552 16.2732 45.4552 14.4489 45.456 12.6246C45.456 12.5884 45.443 12.5486 45.4744 12.5172H45.4742Z" fill="#FCFCFC"/>
<path d="M65.7811 18.2008C65.7838 18.1702 65.7885 18.1398 65.7885 18.1092C65.7889 16.2693 65.7889 14.4294 65.7885 12.5893C65.7885 12.5654 65.7858 12.5416 65.7844 12.5178C65.8199 12.5474 65.8055 12.5878 65.8055 12.6235C65.8061 14.4483 65.8061 16.273 65.8055 18.0977C65.8055 18.1328 65.822 18.1743 65.7809 18.2008H65.7811Z" fill="#FCFCFC"/>
<path d="M73.8693 12.5172C73.8666 12.5544 73.8615 12.5915 73.8615 12.6287C73.8611 14.446 73.8611 16.2634 73.8615 18.0809C73.8615 18.1211 73.8524 18.1632 73.8745 18.2014C73.8352 18.1739 73.8511 18.1326 73.8511 18.0975C73.8503 16.2732 73.8503 14.4489 73.8511 12.6246C73.8511 12.5884 73.8381 12.5486 73.8695 12.5172H73.8693Z" fill="#FCFCFC"/>
<path d="M55.4877 4.9255C55.468 4.9569 55.4746 4.9918 55.4746 5.02546C55.4744 6.85655 55.4744 8.68765 55.4746 10.5185C55.4746 10.5489 55.4798 10.5791 55.4825 10.6095C55.4511 10.5781 55.4641 10.5382 55.4641 10.5021C55.4635 8.6778 55.4635 6.85347 55.4641 5.02915C55.4641 4.99385 55.4482 4.9528 55.4874 4.92529L55.4877 4.9255Z" fill="#FCFCFC"/>
<path d="M62.6953 13.6877C62.7141 13.3634 62.6993 13.0389 62.7032 12.7146C62.7053 12.528 62.7036 12.528 62.5127 12.528C61.1445 12.528 59.7765 12.528 58.4082 12.5284C58.3669 12.5284 58.3257 12.5336 58.2843 12.5362C58.3163 12.5052 58.3568 12.518 58.3936 12.518C59.7951 12.5174 61.1965 12.5182 62.5979 12.5157C62.6865 12.5157 62.7187 12.5338 62.717 12.6278C62.711 12.9488 62.7149 13.2698 62.7143 13.5908C62.7143 13.6237 62.7254 13.66 62.6957 13.6877H62.6953Z" fill="#FCFCFC"/>
<path d="M53.4791 17.0732C53.444 17.0515 53.4626 17.0174 53.4624 16.9899C53.4609 16.6553 53.464 16.3208 53.4595 15.9864C53.4584 15.9064 53.4791 15.8844 53.5623 15.8848C54.3999 15.8881 55.2374 15.885 56.0751 15.8891C56.1689 15.8895 56.1894 15.8651 56.1867 15.777C56.1762 15.4431 56.1952 15.1087 56.1762 14.7748C56.2036 14.7992 56.195 14.8318 56.195 14.8616C56.1955 15.1761 56.1921 15.4905 56.1973 15.805C56.1988 15.8918 56.1649 15.9055 56.0878 15.9053C55.2596 15.9033 54.4313 15.9057 53.6032 15.9018C53.5019 15.9014 53.4751 15.9296 53.4768 16.0275C53.4826 16.376 53.4791 16.7247 53.4791 17.0732V17.0732Z" fill="#FCFCFC"/>
<path d="M75.3117 4.92902C74.9751 4.91136 74.6381 4.92491 74.3013 4.92163C74.0702 4.91937 74.0702 4.92122 74.0702 5.147C74.0702 6.2324 74.0702 7.31779 74.0702 8.40319C74.0702 8.43049 74.0773 8.46046 74.0679 8.48447C74.0578 8.51033 74.0432 8.49371 74.0359 8.47585C74.0766 8.43973 74.0582 8.39211 74.0582 8.35003C74.0593 7.24246 74.0603 6.1349 74.057 5.02733C74.0568 4.92963 74.0817 4.89966 74.1834 4.90131C74.5244 4.90746 74.8654 4.90315 75.2066 4.90438C75.2424 4.90438 75.2846 4.88796 75.3115 4.92881L75.3117 4.92902Z" fill="#FCFCFC"/>
<path d="M56.5877 18.2007C56.6056 17.8461 56.5902 17.4912 56.596 17.1363C56.5967 17.0967 56.5831 17.08 56.5423 17.0835C56.5181 17.0856 56.4936 17.0837 56.4694 17.0837C55.5099 17.0837 54.5506 17.0837 53.5911 17.0831C53.5539 17.0831 53.5148 17.0944 53.4793 17.0731C54.4819 17.0731 55.4844 17.0743 56.487 17.0708C56.586 17.0704 56.6178 17.0944 56.6155 17.1948C56.6088 17.4955 56.6136 17.7966 56.6123 18.0973C56.6123 18.1324 56.629 18.1741 56.5875 18.2005L56.5877 18.2007Z" fill="#FCFCFC"/>
<path d="M71.924 18.2007C71.942 17.8458 71.9265 17.4905 71.9324 17.1357C71.933 17.0948 71.9178 17.0802 71.8779 17.0837C71.8536 17.0858 71.8292 17.0841 71.8049 17.0841C70.8621 17.0841 69.9194 17.0841 68.9766 17.0835C68.9396 17.0835 68.9003 17.0954 68.865 17.0737C69.8519 17.0737 70.8387 17.0751 71.8256 17.0714C71.9272 17.071 71.9539 17.0997 71.9518 17.1972C71.9456 17.4975 71.9502 17.7978 71.9487 18.0983C71.9487 18.1334 71.9654 18.1749 71.9238 18.2014L71.924 18.2007Z" fill="#FCFCFC"/>
<path d="M78.0055 18.2014C78.0333 18.1318 78.0175 18.0593 78.0181 17.9885C78.0204 17.7219 78.0154 17.4552 78.021 17.1888C78.0227 17.1073 77.9984 17.0887 77.918 17.0891C77.0306 17.0919 76.1432 17.0911 75.256 17.0897C75.2219 17.0897 75.1807 17.1116 75.1515 17.0737C76.0692 17.0737 76.9871 17.0751 77.9048 17.0714C78.0051 17.071 78.0342 17.0975 78.0321 17.1964C78.0256 17.4967 78.0302 17.7974 78.029 18.0979C78.029 18.1332 78.045 18.1743 78.0053 18.2018L78.0055 18.2014Z" fill="#FCFCFC"/>
<path d="M68.8623 15.9039C68.8915 15.8659 68.9327 15.8879 68.9667 15.8879C69.7846 15.8862 70.6024 15.8854 71.42 15.8885C71.5009 15.8887 71.5249 15.8698 71.5226 15.7885C71.5128 15.4507 71.5312 15.1126 71.5124 14.7748C71.5398 14.7992 71.5312 14.8316 71.5312 14.8614C71.5316 15.1752 71.5285 15.4893 71.5335 15.8031C71.5348 15.8867 71.5061 15.9057 71.4263 15.9055C70.5717 15.9031 69.7169 15.9039 68.8623 15.9039Z" fill="#FCFCFC"/>
<path d="M59.9534 6.95511C59.9603 6.93807 59.9759 6.91898 59.9857 6.94505C59.996 6.97215 59.9883 7.00581 59.9883 7.03639C59.9883 8.19035 59.9883 9.3443 59.9887 10.498C59.9887 10.5352 59.9941 10.5723 59.9969 10.6093C59.9628 10.5744 59.978 10.5311 59.978 10.4919C59.9772 9.35477 59.9776 8.21764 59.9765 7.08052C59.9765 7.03844 59.9954 6.99082 59.9536 6.9549L59.9534 6.95511Z" fill="#FCFCFC"/>
<path d="M35.7008 4.86401C35.68 4.8987 35.6878 4.93729 35.6878 4.97424C35.6874 6.02515 35.6874 7.07607 35.6878 8.12677C35.6878 8.19471 35.6911 8.26286 35.693 8.3308C35.6676 8.30124 35.6775 8.26553 35.6775 8.23248C35.6769 7.14421 35.6769 6.05594 35.6775 4.96767C35.6775 4.93257 35.6618 4.89131 35.701 4.86401H35.7008Z" fill="#FCFCFC"/>
<path d="M62.2966 14.8961C62.2588 14.8934 62.221 14.8883 62.1832 14.8883C61.3551 14.8879 60.5268 14.8883 59.6987 14.8873C59.6618 14.8873 59.6225 14.8992 59.5872 14.8774C60.4539 14.8774 61.3206 14.8772 62.1873 14.8778C62.2241 14.8778 62.2647 14.8651 62.2966 14.8961Z" fill="#FCFCFC"/>
<path d="M59.5838 16.0679C59.6133 16.0304 59.6542 16.0519 59.6885 16.0519C60.5195 16.0503 61.3505 16.0507 62.1817 16.0505C62.2197 16.0505 62.258 16.0478 62.296 16.0464C62.2624 16.0835 62.2177 16.0671 62.1782 16.0671C61.3133 16.0681 60.4485 16.0677 59.5836 16.0677L59.5838 16.0679Z" fill="#FCFCFC"/>
<path d="M46.7873 14.9795C46.7807 14.9897 46.7685 15.0101 46.7612 14.9893C46.7513 14.9618 46.7548 14.9296 46.7546 14.8992C46.7543 14.1428 46.7546 13.3865 46.7541 12.6299C46.7541 12.5925 46.7513 12.5552 46.7498 12.5178C46.7886 12.5509 46.7715 12.5948 46.7717 12.6338C46.7727 13.3758 46.7723 14.1176 46.773 14.8596C46.773 14.8996 46.7605 14.9419 46.7871 14.9795H46.7873Z" fill="#FCFCFC"/>
<path d="M64.3412 9.31541C64.3648 9.31234 64.3882 9.30638 64.4118 9.30638C65.1782 9.30597 65.9449 9.30597 66.7113 9.30638C66.7345 9.30638 66.76 9.29817 66.7809 9.31665C65.9677 9.31624 65.1544 9.31583 64.3412 9.31562V9.31541Z" fill="#FCFCFC"/>
<path d="M51.9498 7.1189C51.9333 7.13696 51.9111 7.1306 51.8913 7.1306C51.1545 7.1308 50.4175 7.1308 49.6808 7.1306C49.6607 7.1306 49.6388 7.13655 49.6214 7.12033C50.3975 7.11992 51.1737 7.11951 51.9498 7.1189V7.1189Z" fill="#FCFCFC"/>
<path d="M46.7465 18.2007C46.7492 18.102 46.7537 18.0035 46.7539 17.9048C46.7548 17.4647 46.7539 17.0244 46.7552 16.5844C46.7552 16.549 46.7388 16.5092 46.7715 16.478C46.7715 17.0179 46.7721 17.5579 46.7711 18.0977C46.7711 18.1328 46.7876 18.1743 46.7465 18.2007Z" fill="#FCFCFC"/>
<path d="M29.95 12.5451C29.9193 12.5233 29.8837 12.5281 29.8493 12.5281C29.4456 12.5281 29.0417 12.5276 28.638 12.5289C28.6077 12.5289 28.5653 12.5086 28.5504 12.5584C28.5239 12.5211 28.5533 12.518 28.5784 12.518C29.0222 12.5176 29.4663 12.518 29.9101 12.5182C29.9289 12.5182 29.9427 12.5276 29.9502 12.5451H29.95Z" fill="#FCFCFC"/>
<path d="M37.8905 12.5486C37.8692 12.5256 37.8408 12.5281 37.8132 12.5281C37.3732 12.5289 36.9331 12.5297 36.4931 12.5305C36.5244 12.509 36.5604 12.5178 36.5942 12.5178C36.9895 12.5172 37.3849 12.5168 37.7802 12.5184C37.818 12.5184 37.8659 12.4975 37.8907 12.5486H37.8905Z" fill="#FCFCFC"/>
<path d="M37.972 18.182C37.9825 18.2144 38.0105 18.2052 38.0328 18.2052C38.4244 18.2056 38.816 18.2056 39.2076 18.2052C39.2278 18.2052 39.2481 18.1986 39.2684 18.1951C39.2479 18.2368 39.2088 18.2224 39.1766 18.2224C38.7989 18.2233 38.4213 18.2239 38.0435 18.221C38.0205 18.221 37.957 18.261 37.9718 18.1822L37.972 18.182Z" fill="#FCFCFC"/>
<path d="M42.7821 18.1991C43.2131 18.2114 43.6442 18.2063 44.0753 18.2018C44.0792 18.2414 44.0477 18.2219 44.0345 18.2219C43.6419 18.2231 43.2493 18.2229 42.8567 18.2227C42.8297 18.2227 42.7998 18.2284 42.7821 18.1991V18.1991Z" fill="#FCFCFC"/>
<path d="M48.3188 10.5854C48.3251 10.5883 48.3314 10.5939 48.3377 10.5939C48.7631 10.5994 49.1885 10.6062 49.6139 10.5906C49.5926 10.6146 49.5636 10.6093 49.5364 10.6093C49.1588 10.6095 48.7813 10.6097 48.4035 10.6093C48.3738 10.6093 48.3397 10.6187 48.3188 10.5857V10.5854Z" fill="#FCFCFC"/>
<path d="M49.6133 4.92556C49.182 4.92084 48.7507 4.91386 48.3195 4.92905C48.3393 4.89436 48.3736 4.90442 48.4032 4.90421C48.7777 4.90359 49.1523 4.90359 49.5268 4.90421C49.5569 4.90421 49.5903 4.89518 49.6131 4.92556H49.6133Z" fill="#FCFCFC"/>
<path d="M30.6422 18.2002C31.0737 18.2006 31.5052 18.2008 31.9367 18.2012C31.9139 18.2314 31.8805 18.2223 31.8504 18.2223C31.4762 18.2227 31.1019 18.2227 30.7277 18.2223C30.6978 18.2223 30.6642 18.2316 30.6422 18.2V18.2002Z" fill="#FCFCFC"/>
<path d="M58.2848 18.2014C58.716 18.2061 59.1473 18.2129 59.5786 18.1979C59.5587 18.2324 59.5245 18.2225 59.4948 18.2227C59.1204 18.2233 58.7457 18.2233 58.3713 18.2227C58.3412 18.2227 58.3077 18.2317 58.285 18.2014H58.2848Z" fill="#FCFCFC"/>
<path d="M34.5494 18.2063C34.928 18.2061 35.3069 18.2061 35.6855 18.2051C35.7254 18.2051 35.7699 18.2184 35.8019 18.1798C35.7994 18.2159 35.7753 18.2229 35.744 18.2227C35.3547 18.2219 34.9656 18.2215 34.5764 18.2202C34.5674 18.2202 34.5584 18.2112 34.5494 18.2063V18.2063Z" fill="#FCFCFC"/>
<path d="M33.8388 12.5363C33.5 12.5178 33.1611 12.5318 32.8222 12.5293C32.7439 12.5287 32.6632 12.5118 32.5863 12.5435C32.602 12.512 32.6319 12.5176 32.6588 12.5176C33.0297 12.5174 33.4006 12.5176 33.7715 12.5176C33.7957 12.5176 33.8206 12.5155 33.8388 12.5365V12.5363Z" fill="#FCFCFC"/>
<path d="M70.173 10.5906C70.4599 10.6093 70.747 10.5955 71.0339 10.5978C71.158 10.5988 71.2826 10.6082 71.4065 10.5906C71.3852 10.6144 71.3561 10.6093 71.3292 10.6093C70.9696 10.6095 70.6099 10.6095 70.2503 10.6093C70.2232 10.6093 70.1943 10.6144 70.173 10.5906Z" fill="#FCFCFC"/>
<path d="M41.6307 12.5422C41.6142 12.5376 41.5979 12.5288 41.5814 12.529C41.1946 12.5296 40.8077 12.5311 40.4209 12.5325C40.441 12.5147 40.4656 12.5175 40.4896 12.5175C40.8421 12.5175 41.1946 12.5173 41.5471 12.5177C41.5768 12.5177 41.6109 12.5081 41.6307 12.5424V12.5422Z" fill="#FCFCFC"/>
<path d="M74.1028 10.5847C74.1262 10.5894 74.1496 10.598 74.1732 10.598C74.533 10.5988 74.8928 10.5988 75.2528 10.598C75.2727 10.598 75.2928 10.5898 75.3126 10.5853C75.2917 10.6185 75.2577 10.6089 75.228 10.6089C74.8811 10.6095 74.5341 10.6095 74.1872 10.6089C74.1575 10.6089 74.1233 10.6185 74.103 10.5845L74.1028 10.5847Z" fill="#FCFCFC"/>
<path d="M71.3638 4.92595C70.967 4.92595 70.5702 4.92554 70.1736 4.92554C70.1964 4.89536 70.2299 4.90439 70.2599 4.90419C70.5993 4.90378 70.9386 4.90378 71.2782 4.90419C71.308 4.90419 71.3417 4.89516 71.364 4.92595H71.3638Z" fill="#FCFCFC"/>
<path d="M53.4787 14.7699C53.4502 14.7605 53.4617 14.7362 53.4617 14.7186C53.4611 14.3734 53.4611 14.0279 53.4617 13.6827C53.4617 13.665 53.4502 13.6408 53.4787 13.6313C53.4787 14.0109 53.4787 14.3904 53.4787 14.7701V14.7699Z" fill="#FCFCFC"/>
<path d="M44.5987 4.77719C44.4108 4.76939 44.223 4.76816 44.0352 4.77678C44.223 4.7501 44.4108 4.74948 44.5987 4.77719Z" fill="#FCFCFC"/>
<path d="M37.934 10.5929C38.1147 10.5929 38.2957 10.5933 38.4764 10.5935C38.2955 10.6198 38.1147 10.6206 37.934 10.5929Z" fill="#FCFCFC"/>
<path d="M44.2443 10.5942C44.4181 10.5936 44.592 10.5931 44.7658 10.5925C44.592 10.6219 44.4181 10.618 44.2443 10.5942Z" fill="#FCFCFC"/>
<path d="M32.1872 4.71389C32.0203 4.7143 31.8535 4.71471 31.6866 4.71492C31.8533 4.68762 32.0203 4.68865 32.1872 4.71389Z" fill="#FCFCFC"/>
<path d="M42.2964 6.25891C42.2873 6.40916 42.2882 6.55961 42.2964 6.70986C42.2685 6.55961 42.2685 6.40916 42.2964 6.25891V6.25891Z" fill="#FCFCFC"/>
<path d="M46.6514 8.98738C46.6514 8.89194 46.6518 8.79649 46.652 8.70105C46.6762 8.79649 46.6775 8.89194 46.6514 8.98738Z" fill="#FCFCFC"/>
<path d="M31.9833 9.42029C31.8968 9.44656 31.8103 9.44163 31.7238 9.42029C31.8103 9.42029 31.8968 9.42029 31.9833 9.42029Z" fill="#FCFCFC"/>
<path d="M28.7763 7.46985C28.7763 7.55154 28.7767 7.63344 28.7769 7.71513C28.7509 7.63344 28.7521 7.55175 28.7763 7.46985Z" fill="#FCFCFC"/>
<path d="M36.9927 8.31203C36.9687 8.24471 36.9759 8.17513 36.978 8.10596C37.0088 8.17287 36.9873 8.24327 36.9927 8.31203Z" fill="#FCFCFC"/>
<path d="M79.8416 6.07434C79.842 6.14249 79.8424 6.21063 79.8426 6.27857C79.8153 6.21063 79.8172 6.14249 79.8416 6.07434Z" fill="#FCFCFC"/>
<path d="M31.6611 5.88784C31.7313 5.87081 31.8023 5.8704 31.874 5.87368C31.8048 5.90529 31.7321 5.88415 31.6611 5.88784Z" fill="#FCFCFC"/>
<path d="M44.2004 5.88859C44.264 5.87258 44.3277 5.87258 44.3912 5.88859C44.3277 5.88859 44.264 5.88859 44.2004 5.88859Z" fill="#FCFCFC"/>
<path d="M45.3532 8.85742C45.3759 8.92393 45.3778 8.99043 45.3532 9.05673C45.3532 8.99022 45.3532 8.92372 45.3532 8.85742Z" fill="#FCFCFC"/>
<path d="M40.7588 8.41303C40.7561 8.3572 40.7598 8.30199 40.7747 8.2478C40.7689 8.30281 40.7919 8.36049 40.7588 8.41303Z" fill="#FCFCFC"/>
<path d="M82.0337 18.2001C82.0918 18.1954 82.1499 18.1906 82.208 18.1859C82.1522 18.2185 82.092 18.1968 82.0337 18.2001Z" fill="#FCFCFC"/>
<path d="M81.4766 4.8165C81.4275 4.81157 81.3786 4.80664 81.3295 4.80192C81.3786 4.80664 81.4302 4.78694 81.4766 4.8165Z" fill="#FCFCFC"/>
<path d="M81.229 4.80236C81.1795 4.80729 81.13 4.81221 81.0807 4.81714C81.1275 4.78656 81.1795 4.80667 81.229 4.80236Z" fill="#FCFCFC"/>
<path d="M31.4358 10.5309C31.4856 10.5301 31.5353 10.5303 31.5831 10.5471C31.534 10.5418 31.4818 10.5633 31.4358 10.5309Z" fill="#FCFCFC"/>
<path d="M84.9285 15.6983C84.9335 15.648 84.9384 15.5979 84.9434 15.5476C84.9403 15.5979 84.9611 15.6506 84.9285 15.6983Z" fill="#FCFCFC"/>
<path d="M32.0209 5.87299C32.0639 5.87114 32.107 5.86889 32.1473 5.8888C32.1051 5.88448 32.0597 5.90296 32.0209 5.87299Z" fill="#FCFCFC"/>
<path d="M82.2707 12.5338C82.2272 12.5358 82.1844 12.5336 82.143 12.5184C82.1858 12.5219 82.2312 12.5038 82.2707 12.5338Z" fill="#FCFCFC"/>
<path d="M84.9434 15.1724C84.9391 15.1291 84.9345 15.0858 84.9302 15.0425C84.9587 15.0833 84.9415 15.1289 84.9434 15.1724Z" fill="#FCFCFC"/>
<path d="M32.1028 10.5471C32.1435 10.5308 32.1862 10.5304 32.229 10.5325C32.1897 10.5606 32.145 10.5432 32.1028 10.5471Z" fill="#FCFCFC"/>
<path d="M31.5204 4.71987C31.487 4.73588 31.4511 4.73609 31.4151 4.73445C31.4471 4.70838 31.4851 4.72254 31.5204 4.71987Z" fill="#FCFCFC"/>
<path d="M82.7719 6.11623C82.7546 6.08359 82.754 6.04829 82.7554 6.01257C82.7843 6.04336 82.7688 6.08133 82.7719 6.11623Z" fill="#FCFCFC"/>
<path d="M44.014 10.572C44.0504 10.5701 44.0863 10.5711 44.1196 10.5882C44.084 10.5851 44.0456 10.6005 44.014 10.572Z" fill="#FCFCFC"/>
<path d="M30.1246 7.50995C30.1205 7.4726 30.1219 7.43565 30.1378 7.40076C30.1368 7.4375 30.1513 7.47629 30.1246 7.50995Z" fill="#FCFCFC"/>
<path d="M30.1385 7.90442C30.1205 7.87076 30.1211 7.83463 30.1246 7.7981C30.1509 7.83073 30.1368 7.8687 30.1385 7.90442Z" fill="#FCFCFC"/>
<path d="M38.5997 10.5878C38.6338 10.5718 38.6697 10.5699 38.7065 10.572C38.6745 10.6005 38.6356 10.5853 38.5997 10.5878Z" fill="#FCFCFC"/>
<path d="M28.783 7.8772C28.7993 7.91045 28.8009 7.94596 28.7985 7.98208C28.7706 7.95047 28.7855 7.9125 28.783 7.8772Z" fill="#FCFCFC"/>
<path d="M39.4742 8.27026C39.4779 8.30598 39.4777 8.34108 39.4595 8.37371C39.4624 8.33902 39.448 8.30167 39.4742 8.27026Z" fill="#FCFCFC"/>
<path d="M81.2668 10.6908C81.3003 10.6738 81.336 10.6728 81.3724 10.6746C81.3408 10.7031 81.3024 10.6877 81.2668 10.6908Z" fill="#FCFCFC"/>
<path d="M84.9436 15.1724C84.925 15.1305 84.9427 15.085 84.9302 15.0425C84.9059 14.9068 84.8919 14.7685 84.8558 14.6359C84.6458 13.8635 84.1857 13.2799 83.4707 12.8945C83.0966 12.6929 82.6904 12.5909 82.2709 12.5338C82.2297 12.5178 82.1837 12.5408 82.1432 12.5184C81.3323 12.5182 80.5215 12.5197 79.7106 12.5151C79.618 12.5147 79.5978 12.5369 79.598 12.6266C79.6009 14.4452 79.6009 16.264 79.598 18.0827C79.598 18.1741 79.6178 18.2016 79.7158 18.2012C80.4885 18.1973 81.2612 18.1995 82.0337 18.2001C82.0905 18.1796 82.1509 18.2022 82.208 18.186C82.5281 18.155 82.8405 18.0885 83.1407 17.975C83.6677 17.7759 84.1042 17.4577 84.4341 17.0053C84.7191 16.6143 84.8658 16.1712 84.9285 15.6983C84.9454 15.6492 84.9229 15.5963 84.9436 15.5476V15.1724V15.1724ZM83.2437 16.4631C82.9247 16.8658 82.4896 17.0571 81.9794 17.0807C81.639 17.0963 81.2976 17.0858 80.9566 17.0922C80.8751 17.0936 80.8887 17.047 80.8887 17.0004C80.8887 16.4602 80.8887 15.9201 80.8887 15.3799C80.8887 14.8397 80.8905 14.3064 80.8866 13.7697C80.8859 13.6909 80.9081 13.6736 80.9848 13.6755C81.3396 13.6839 81.6948 13.6636 82.0494 13.6859C82.88 13.7381 83.5223 14.3653 83.5916 15.1806C83.6316 15.6502 83.5427 16.0858 83.2437 16.4628V16.4631Z" fill="#000"/>
<path d="M84.3562 10.1876C84.0676 9.87065 83.7803 9.55271 83.4882 9.23908C83.4362 9.18325 83.4527 9.15451 83.4947 9.10812C83.6781 8.90471 83.8547 8.69535 84.0415 8.49502C84.0969 8.4357 84.0871 8.40471 84.038 8.35442C83.8244 8.13541 83.6117 7.91558 83.4034 7.69185C83.3459 7.63007 83.3098 7.61939 83.2486 7.68754C83.0918 7.86242 82.9261 8.0295 82.7692 8.20397C82.7159 8.26308 82.6867 8.24748 82.6445 8.19658C82.4455 7.95786 82.2456 7.71997 82.0433 7.48392C82.0024 7.4361 82.0122 7.41557 82.0625 7.38396C82.1378 7.33696 82.2111 7.28442 82.2765 7.22489C82.6039 6.92624 82.7655 6.55432 82.7721 6.1165C82.7492 6.08469 82.7723 6.04569 82.7554 6.01285C82.6975 5.72734 82.5864 5.46584 82.3806 5.25196C82.1353 4.99724 81.8241 4.86957 81.4769 4.81682C81.4288 4.80204 81.3768 4.82585 81.3298 4.80225C81.2963 4.80225 81.2627 4.80245 81.2292 4.80266C81.1816 4.82565 81.1292 4.80184 81.0809 4.81743C80.7779 4.86054 80.5002 4.96214 80.2754 5.17314C80.0142 5.41822 79.8736 5.7218 79.8422 6.07463C79.8353 6.14278 79.8335 6.21092 79.8433 6.27886C79.8961 6.65654 80.0951 6.96565 80.3291 7.26204C80.1981 7.33737 80.0648 7.39218 79.9494 7.48269C79.8295 7.5767 79.7144 7.66948 79.6176 7.78935C79.3945 8.06603 79.243 8.36735 79.221 8.72552C79.2005 9.05804 79.2567 9.37844 79.4149 9.66991C79.5367 9.89446 79.6922 10.0985 79.9022 10.2629C80.1381 10.4474 80.3957 10.5722 80.6856 10.6443C80.8776 10.6921 81.0719 10.6902 81.2669 10.6907C81.2992 10.6681 81.3389 10.6907 81.3724 10.6744C81.8688 10.58 82.297 10.3604 82.6478 10.001C82.6986 9.94906 82.7326 9.97451 82.7652 10.0156C82.8946 10.1777 83.0264 10.338 83.1489 10.5051C83.1923 10.5644 83.2356 10.5905 83.3089 10.5901C83.6708 10.5874 84.0329 10.5888 84.3949 10.5888H84.7181C84.589 10.4456 84.473 10.3161 84.356 10.1878L84.3562 10.1876ZM81.0053 5.94594C81.0961 5.81765 81.2859 5.74602 81.4257 5.78091C81.6012 5.82484 81.6891 5.94635 81.7255 6.11158C81.732 6.14134 81.7318 6.17254 81.736 6.2179C81.7341 6.3895 81.6286 6.52107 81.4965 6.63827C81.3915 6.73159 81.2909 6.72879 81.1948 6.62985C81.1177 6.55083 81.0506 6.46483 80.9892 6.37308C80.8899 6.22488 80.9079 6.08305 81.0053 5.94573V5.94594ZM82.0141 9.16334C81.7721 9.42134 81.5005 9.62311 81.251 9.62783C80.8059 9.62722 80.5188 9.4546 80.4171 9.17586C80.2869 8.81974 80.3278 8.5958 80.5857 8.34272C80.7096 8.221 80.8577 8.13254 81.0136 8.05536C81.0546 8.03504 81.0788 8.0375 81.1104 8.07363C81.4071 8.41271 81.7061 8.74995 82.0045 9.0876C82.0254 9.1112 82.0467 9.12844 82.0141 9.16334V9.16334Z" fill="#000"/>
<path d="M68.458 10.1833C68.1907 9.56728 67.9228 8.95151 67.6554 8.33553C67.4218 7.79735 67.1886 7.25896 66.9552 6.72057C66.708 6.15078 66.4595 5.5814 66.2155 5.01037C66.1864 4.94264 66.1488 4.9254 66.0782 4.92642C65.765 4.93012 65.4514 4.93586 65.1386 4.92458C64.9915 4.91924 64.9206 4.95495 64.8598 5.10007C64.6947 5.49375 64.5272 5.88682 64.3475 6.27496C64.1872 6.62082 64.0506 6.97735 63.8989 7.32711C63.7444 7.68282 63.5815 8.03483 63.427 8.39054C63.2766 8.73681 63.1341 9.08657 62.9847 9.43324C62.8159 9.82487 62.6433 10.2149 62.4707 10.6092C62.9022 10.6092 63.3267 10.6088 63.7515 10.6098C63.7977 10.6098 63.8251 10.6028 63.8437 10.5527C63.9308 10.3169 64.0192 10.0814 64.1162 9.8493C64.1905 9.67093 64.2415 9.48312 64.3416 9.31522C64.3638 9.30085 64.3888 9.30578 64.4129 9.30578C65.1789 9.30558 65.9449 9.30558 66.7109 9.30578C66.7347 9.30578 66.76 9.29983 66.7815 9.31625C66.8357 9.447 66.8921 9.57713 66.9435 9.70891C67.049 9.97923 67.1503 10.2512 67.2571 10.5213C67.2791 10.5769 67.3133 10.6159 67.3938 10.612C67.5883 10.6028 67.7835 10.609 67.9784 10.609H68.6404C68.5764 10.4593 68.5183 10.3208 68.4586 10.183L68.458 10.1833ZM64.8015 8.18775C65.055 7.59189 65.3055 7.00259 65.5625 6.39811C65.8204 7.00321 66.0713 7.59189 66.3252 8.18775H64.8015Z" fill="#000"/>
<path d="M43.6137 17.1299C43.3634 16.5517 43.1128 15.9735 42.8617 15.3955C42.5679 14.719 42.272 14.0431 41.9801 13.3657C41.862 13.0919 41.7317 12.823 41.6307 12.5423C41.6207 12.5318 41.6082 12.5281 41.5935 12.5283C41.2026 12.5308 40.8117 12.523 40.4207 12.5324C40.3578 12.6794 40.2955 12.8267 40.232 12.9733C40.1165 13.2391 40.0003 13.5047 39.8841 13.7703C39.778 14.0131 39.6704 14.2555 39.5648 14.4986C39.4334 14.8013 39.3047 15.1053 39.1726 15.4078C39.0611 15.6634 38.9445 15.9169 38.8341 16.173C38.6845 16.5199 38.5395 16.8687 38.3907 17.2157C38.2524 17.5384 38.1116 17.8598 37.9718 18.1819C37.9854 18.2328 38.0282 18.2108 38.0575 18.211C38.4357 18.2127 38.8139 18.2123 39.1921 18.2114C39.2176 18.2114 39.2485 18.2248 39.2681 18.1948C39.269 18.1846 39.2671 18.1733 39.2711 18.1644C39.4451 17.7761 39.62 17.3882 39.7939 16.9996C39.8116 16.9598 39.8375 16.9491 39.8816 16.9491C40.6363 16.9508 41.3911 16.951 42.1456 16.9491C42.2031 16.9491 42.2325 16.969 42.2545 17.0183C42.4294 17.4124 42.6059 17.8057 42.7819 18.1993C42.8019 18.2188 42.8274 18.2121 42.851 18.2121C43.239 18.2125 43.6271 18.2125 44.0151 18.2121C44.0356 18.2121 44.0569 18.2156 44.075 18.2018C43.9213 17.8444 43.7679 17.4871 43.6135 17.1299H43.6137ZM40.2343 15.8395C40.4876 15.2272 40.7385 14.6207 40.9972 13.9951C41.2559 14.619 41.5077 15.2262 41.762 15.8395H40.2341H40.2343Z" fill="#000"/>
</svg>
