<svg width="1279" height="1012" viewBox="0 0 1279 1012" fill="none" xmlns="http://www.w3.org/2000/svg">
<path d="M567 635H483L494.667 667H574L567 646.428V635Z" fill="#EEEEEE"/>
<path d="M684 974.29L584.833 704L514 730.081L615.528 998L684 974.29Z" fill="#EEEEEE"/>
<path d="M905.185 603L680 685.196L703.704 758L936 673.454L907.556 603H905.185Z" fill="#EEEEEE"/>
<path d="M1043.37 728L740.386 837.922H738L766.629 912L1072 802.078L1043.37 728Z" fill="#EEEEEE"/>
<path d="M766.2 256H702V323.926H704.378V387H809V323.926H766.2V256Z" fill="#EEEEEE"/>
<path d="M404.153 306.957H378V376.143L404.153 400H587.224V323.657H611V233H542.051V235.386V323.657H404.153V306.957Z" fill="#EEEEEE"/>
<path d="M407 247H330V307H407V247Z" fill="#EEEEEE"/>
<path d="M815 488H662V565H815V488Z" fill="#EEEEEE"/>
<path d="M250.653 391L205 449.846L219.417 456.908L334.75 544L378 489.862L250.653 391Z" fill="#EEEEEE"/>
<path d="M562 487H379V565H562V487Z" fill="#EEEEEE"/>
<path d="M125.4 509.44H124.428L122.784 515.704H122.736L121.152 509.44H120.144L122.076 517H123.276L124.884 510.964H124.932L126.504 517H127.716L129.648 509.44H128.676L127.128 515.728H127.08L125.4 509.44ZM134.195 515.14C133.979 515.944 133.463 516.364 132.587 516.364C131.651 516.364 130.919 515.644 130.871 514.624H135.047V514.228C135.047 512.8 134.195 511.612 132.527 511.612C131.015 511.612 129.875 512.8 129.875 514.456C129.875 516.088 131.015 517.144 132.575 517.144C133.883 517.144 134.759 516.424 135.023 515.236L134.195 515.14ZM130.895 513.976C131.015 513.112 131.579 512.368 132.527 512.368C133.523 512.368 133.991 513.136 134.027 513.976H130.895ZM135.745 515.236C135.841 516.532 136.837 517.144 138.145 517.144C139.369 517.144 140.293 516.58 140.293 515.536C140.293 514.588 139.669 514.192 138.613 514.012L137.629 513.856C137.089 513.76 136.825 513.544 136.825 513.124C136.825 512.644 137.257 512.344 137.917 512.344C138.805 512.344 139.297 512.716 139.417 513.52L140.221 513.472C140.125 512.26 139.309 511.612 137.917 511.612C136.705 511.612 135.901 512.26 135.901 513.22C135.901 514.12 136.489 514.54 137.473 514.696L138.361 514.852C139.009 514.972 139.357 515.14 139.357 515.632C139.357 516.16 138.841 516.412 138.145 516.412C137.245 516.412 136.681 515.98 136.585 515.176L135.745 515.236ZM141.501 515.776C141.501 516.796 142.029 517.144 142.773 517.144C143.349 517.144 143.733 516.988 144.117 516.7V516.028C143.817 516.196 143.469 516.34 143.133 516.34C142.677 516.34 142.485 516.124 142.485 515.656V512.476H143.961V511.756H142.485V510.304H141.921L141.765 511.036C141.645 511.54 141.537 511.78 141.045 511.876L140.709 511.936V512.476H141.501V515.776ZM153.133 514.924C153.133 513.844 152.413 513.232 151.489 513.076C152.293 512.932 152.917 512.332 152.917 511.456C152.917 510.256 152.149 509.44 150.277 509.44H147.193V517H150.409C152.173 517 153.133 516.232 153.133 514.924ZM150.385 513.508C151.513 513.508 152.101 514.012 152.101 514.84C152.101 515.656 151.513 516.148 150.385 516.148H148.201V513.508H150.385ZM148.201 510.292H150.313C151.405 510.292 151.873 510.784 151.873 511.504C151.873 512.236 151.405 512.704 150.313 512.704H148.201V510.292ZM157.763 514.768C157.763 515.74 157.163 516.364 156.383 516.364C155.555 516.364 155.171 515.8 155.171 514.924V511.756H154.175V515.02C154.175 516.244 154.679 517.144 156.047 517.144C156.839 517.144 157.511 516.7 157.763 516.076V517H158.759V511.756H157.763V514.768ZM160.129 511.756V517H161.125V511.756H160.129ZM160.105 510.568H161.137V509.44H160.105V510.568ZM162.485 509.44V517H163.481V509.44H162.485ZM168.8 514.528C168.8 515.68 168.08 516.352 167.132 516.352C166.1 516.352 165.524 515.584 165.524 514.384C165.524 513.184 166.1 512.416 167.132 512.416C168.08 512.416 168.8 513.088 168.8 514.228V514.528ZM168.788 517H169.784V509.44H168.788V512.86C168.548 512.212 167.888 511.612 166.904 511.612C165.344 511.612 164.504 512.836 164.504 514.384C164.504 515.932 165.344 517.144 166.904 517.144C167.888 517.144 168.548 516.556 168.788 515.908V517ZM171.145 511.756V517H172.141V511.756H171.145ZM171.121 510.568H172.153V509.44H171.121V510.568ZM174.496 513.988C174.496 513.028 175.12 512.404 175.912 512.404C176.74 512.404 177.16 512.956 177.16 513.832V517H178.156V513.748C178.156 512.524 177.604 511.612 176.236 511.612C175.456 511.612 174.748 512.056 174.496 512.692V511.756H173.5V517H174.496V513.988ZM183.774 513.4C183.774 513.064 183.678 512.764 183.522 512.512C183.786 512.38 184.182 512.296 184.53 512.296V511.432C183.966 511.432 183.474 511.732 183.198 512.152C182.802 511.816 182.214 511.612 181.554 511.612C180.27 511.612 179.358 512.296 179.358 513.4C179.358 513.976 179.61 514.444 180.042 514.756C179.574 514.96 179.25 515.284 179.25 515.74C179.25 516.136 179.466 516.484 179.946 516.64C179.298 516.76 178.866 517.144 178.866 517.744C178.866 518.716 180.042 519.16 181.458 519.16C183.018 519.16 184.482 518.656 184.482 517.348C184.482 516.532 183.882 515.932 182.742 515.932H180.69C180.234 515.932 180.054 515.764 180.054 515.476C180.054 515.236 180.222 515.068 180.402 514.96C180.726 515.104 181.122 515.176 181.554 515.176C182.85 515.176 183.774 514.492 183.774 513.4ZM179.814 517.552C179.814 516.988 180.282 516.808 180.822 516.808H182.514C183.126 516.808 183.522 516.976 183.522 517.456C183.522 518.212 182.658 518.5 181.458 518.5C180.486 518.5 179.814 518.212 179.814 517.552ZM182.766 513.412C182.766 514.132 182.31 514.54 181.566 514.54C180.834 514.54 180.378 514.132 180.378 513.412C180.378 512.668 180.834 512.26 181.566 512.26C182.31 512.26 182.766 512.668 182.766 513.412Z" fill="black"/>
<path d="M936.12 903.136H931.74V900.532H935.136V899.68H931.74V897.304H936.012V896.44H930.732V904H936.12V903.136ZM940.475 901.66C940.475 902.716 939.767 903.412 938.843 903.412C938.243 903.412 937.943 903.076 937.943 902.632C937.943 901.996 938.471 901.84 939.299 901.66L940.475 901.408V901.66ZM941.435 900.616C941.435 899.284 940.655 898.612 939.335 898.612C938.099 898.612 937.319 899.332 937.115 900.316L938.003 900.436C938.159 899.824 938.567 899.38 939.323 899.38C940.055 899.38 940.475 899.824 940.475 900.544V900.748L939.059 901.036C937.799 901.288 936.947 901.696 936.947 902.692C936.947 903.592 937.607 904.144 938.627 904.144C939.479 904.144 940.223 903.688 940.511 903.076C940.571 903.7 940.955 904.108 941.495 904.108C941.903 904.108 942.119 903.976 942.299 903.796V903.256C942.155 903.34 941.963 903.376 941.843 903.376C941.591 903.376 941.435 903.244 941.435 902.968V900.616ZM942.698 902.236C942.794 903.532 943.79 904.144 945.098 904.144C946.322 904.144 947.246 903.58 947.246 902.536C947.246 901.588 946.622 901.192 945.566 901.012L944.582 900.856C944.042 900.76 943.778 900.544 943.778 900.124C943.778 899.644 944.21 899.344 944.87 899.344C945.758 899.344 946.25 899.716 946.37 900.52L947.174 900.472C947.078 899.26 946.262 898.612 944.87 898.612C943.658 898.612 942.854 899.26 942.854 900.22C942.854 901.12 943.442 901.54 944.426 901.696L945.314 901.852C945.962 901.972 946.31 902.14 946.31 902.632C946.31 903.16 945.794 903.412 945.098 903.412C944.198 903.412 943.634 902.98 943.538 902.176L942.698 902.236ZM948.454 902.776C948.454 903.796 948.982 904.144 949.726 904.144C950.302 904.144 950.686 903.988 951.07 903.7V903.028C950.77 903.196 950.422 903.34 950.086 903.34C949.63 903.34 949.438 903.124 949.438 902.656V899.476H950.914V898.756H949.438V897.304H948.874L948.718 898.036C948.598 898.54 948.49 898.78 947.998 898.876L947.662 898.936V899.476H948.454V902.776ZM960.086 901.924C960.086 900.844 959.366 900.232 958.442 900.076C959.246 899.932 959.87 899.332 959.87 898.456C959.87 897.256 959.102 896.44 957.23 896.44H954.146V904H957.362C959.126 904 960.086 903.232 960.086 901.924ZM957.338 900.508C958.466 900.508 959.054 901.012 959.054 901.84C959.054 902.656 958.466 903.148 957.338 903.148H955.154V900.508H957.338ZM955.154 897.292H957.266C958.358 897.292 958.826 897.784 958.826 898.504C958.826 899.236 958.358 899.704 957.266 899.704H955.154V897.292ZM964.716 901.768C964.716 902.74 964.116 903.364 963.336 903.364C962.508 903.364 962.124 902.8 962.124 901.924V898.756H961.128V902.02C961.128 903.244 961.632 904.144 963 904.144C963.792 904.144 964.464 903.7 964.716 903.076V904H965.712V898.756H964.716V901.768ZM967.082 898.756V904H968.078V898.756H967.082ZM967.058 897.568H968.09V896.44H967.058V897.568ZM969.438 896.44V904H970.434V896.44H969.438ZM975.753 901.528C975.753 902.68 975.033 903.352 974.085 903.352C973.053 903.352 972.477 902.584 972.477 901.384C972.477 900.184 973.053 899.416 974.085 899.416C975.033 899.416 975.753 900.088 975.753 901.228V901.528ZM975.741 904H976.737V896.44H975.741V899.86C975.501 899.212 974.841 898.612 973.857 898.612C972.297 898.612 971.457 899.836 971.457 901.384C971.457 902.932 972.297 904.144 973.857 904.144C974.841 904.144 975.501 903.556 975.741 902.908V904ZM978.098 898.756V904H979.094V898.756H978.098ZM978.074 897.568H979.106V896.44H978.074V897.568ZM981.45 900.988C981.45 900.028 982.074 899.404 982.866 899.404C983.694 899.404 984.114 899.956 984.114 900.832V904H985.11V900.748C985.11 899.524 984.558 898.612 983.19 898.612C982.41 898.612 981.702 899.056 981.45 899.692V898.756H980.454V904H981.45V900.988ZM990.727 900.4C990.727 900.064 990.631 899.764 990.475 899.512C990.739 899.38 991.135 899.296 991.483 899.296V898.432C990.919 898.432 990.427 898.732 990.151 899.152C989.755 898.816 989.167 898.612 988.507 898.612C987.223 898.612 986.311 899.296 986.311 900.4C986.311 900.976 986.563 901.444 986.995 901.756C986.527 901.96 986.203 902.284 986.203 902.74C986.203 903.136 986.419 903.484 986.899 903.64C986.251 903.76 985.819 904.144 985.819 904.744C985.819 905.716 986.995 906.16 988.411 906.16C989.971 906.16 991.435 905.656 991.435 904.348C991.435 903.532 990.835 902.932 989.695 902.932H987.643C987.187 902.932 987.007 902.764 987.007 902.476C987.007 902.236 987.175 902.068 987.355 901.96C987.679 902.104 988.075 902.176 988.507 902.176C989.803 902.176 990.727 901.492 990.727 900.4ZM986.767 904.552C986.767 903.988 987.235 903.808 987.775 903.808H989.467C990.079 903.808 990.475 903.976 990.475 904.456C990.475 905.212 989.611 905.5 988.411 905.5C987.439 905.5 986.767 905.212 986.767 904.552ZM989.719 900.412C989.719 901.132 989.263 901.54 988.519 901.54C987.787 901.54 987.331 901.132 987.331 900.412C987.331 899.668 987.787 899.26 988.519 899.26C989.263 899.26 989.719 899.668 989.719 900.412Z" fill="black"/>
<mask id="path-13-inside-1_1_257" fill="white">
<rect x="266" y="82" width="133" height="77" rx="0.2"/>
</mask>
<rect x="266" y="82" width="133" height="77" rx="0.2" fill="#EEEEEE" stroke="#EEEEEE" stroke-width="2" mask="url(#path-13-inside-1_1_257)"/>
<rect x="167.829" y="251.535" width="71.498" height="133.463" rx="0.2" fill="#EEEEEE"/>
<rect x="167.829" y="160.97" width="66.7315" height="61.9649" rx="0.2" fill="#EEEEEE"/>
<rect x="167" y="159" width="68" height="65" rx="0.2" fill="#EEEEEE"/>
<path d="M151.148 58.4912H213.113" stroke="#303030"/>
<path d="M153.532 58.4912V79.9406" stroke="#303030"/>
<path d="M194.045 58.4912V79.9406" stroke="#303030"/>
<path d="M189.28 58.4912V82.3239" stroke="#303030"/>
<path d="M679.821 685.207L703.726 757.879C703.762 757.986 703.879 758.043 703.985 758.004L936.584 672.814C936.69 672.775 936.743 672.657 936.701 672.552L908.013 599.875" stroke="#303030"/>
<path d="M778.578 906.687L765.35 912.357C765.244 912.402 765.122 912.349 765.083 912.241L738.378 838.802C738.34 838.698 738.394 838.583 738.498 838.545L1043.02 728.42C1043.12 728.383 1043.23 728.436 1043.27 728.539L1070.05 801.221" stroke="#303030"/>
<path d="M541.759 232.661V322.587C541.759 322.698 541.669 322.787 541.559 322.787H403.893C403.783 322.787 403.693 322.698 403.693 322.587V249.161C403.693 249.05 403.604 248.961 403.493 248.961H330.066C329.956 248.961 329.866 249.05 329.866 249.161V338.033C329.866 338.093 329.893 338.15 329.94 338.188L403.638 398.487C403.674 398.516 403.718 398.532 403.765 398.532H610.591C610.702 398.532 610.791 398.442 610.791 398.332V386.267C610.791 386.157 610.881 386.067 610.991 386.067H809.061C809.171 386.067 809.261 385.978 809.261 385.867V375.521" stroke="#303030"/>
<path d="M564.769 633.435V644.905C564.769 644.928 564.773 644.951 564.781 644.973L684.618 974.763" stroke="#303030"/>
<path d="M234.944 158.834V223.832C234.944 223.943 234.855 224.032 234.744 224.032H165.912" stroke="#303030"/>
<path d="M166.869 250.878H240.495C240.606 250.878 240.695 250.968 240.695 251.078V385.868C240.695 385.978 240.606 386.068 240.495 386.068H166.869" stroke="#303030"/>
<path d="M206.18 448.387L251.12 391.017C251.188 390.93 251.313 390.915 251.4 390.982L377.647 489.493C377.733 489.561 377.75 489.685 377.683 489.772L334.658 546.183" stroke="#303030"/>
<path d="M378.763 565.36V486.939C378.763 486.829 378.852 486.739 378.963 486.739H561.892" stroke="#303030"/>
<path d="M661.605 487.698H814.811C814.922 487.698 815.011 487.787 815.011 487.898V565.359" stroke="#303030"/>
<path d="M398.898 233.421V36.3107C398.898 36.2003 398.988 36.1107 399.098 36.1107H429.379C429.49 36.1107 429.579 36.2003 429.579 36.3107V41.6081C429.579 41.7186 429.669 41.8081 429.779 41.8081H502.247C502.358 41.8081 502.447 41.8977 502.447 42.0081V58.7004C502.447 58.8108 502.537 58.9004 502.647 58.9004H532.929C533.039 58.9004 533.129 58.9899 533.129 59.1004V233.421C533.129 233.532 533.039 233.621 532.929 233.621H399.098C398.988 233.621 398.898 233.532 398.898 233.421Z" fill="#DCE9D2" stroke="#303030"/>
<path d="M657.569 233.62H533.327C533.216 233.62 533.127 233.53 533.127 233.42V60.8962C533.127 60.7858 533.216 60.6962 533.327 60.6962H560.832C560.942 60.6962 561.032 60.6067 561.032 60.4962V43.9798C561.032 43.8693 561.121 43.7798 561.232 43.7798H657.569C657.68 43.7798 657.769 43.8693 657.769 43.9798V233.42C657.769 233.53 657.68 233.62 657.569 233.62Z" fill="#DCE9D2" stroke="#303030"/>
<path d="M774.959 43.7798H657.97C657.86 43.7798 657.77 43.8693 657.77 43.9798V233.689C657.77 233.799 657.86 233.889 657.97 233.889H707.094C707.204 233.889 707.294 233.978 707.294 234.089V243.008C707.294 243.118 707.383 243.208 707.494 243.208H784.13C784.241 243.208 784.33 243.118 784.33 243.008V159.536C784.33 159.426 784.241 159.336 784.13 159.336H768.023C767.912 159.336 767.823 159.247 767.823 159.136V120.396C767.823 120.286 767.912 120.196 768.023 120.196H784.13C784.241 120.196 784.33 120.107 784.33 119.996V84.9837C784.33 84.8732 784.241 84.7837 784.13 84.7837H775.359C775.249 84.7837 775.159 84.6941 775.159 84.5837V43.9798C775.159 43.8693 775.07 43.7798 774.959 43.7798Z" fill="#DCE9D2" stroke="#303030"/>
<path d="M1019.52 32.2742H1001.22C1001.11 32.2742 1001.02 32.3637 1001.02 32.4742V233.42C1001.02 233.53 1001.11 233.62 1001.22 233.62H1064.4C1064.51 233.62 1064.6 233.53 1064.6 233.42V214.825C1064.6 214.714 1064.69 214.625 1064.8 214.625H1227.09C1227.2 214.625 1227.29 214.535 1227.29 214.425V74.2629C1227.29 74.1524 1227.2 74.0629 1227.09 74.0629H1197.57C1197.46 74.0629 1197.37 73.9733 1197.37 73.8629V41.9716C1197.37 41.8611 1197.28 41.7716 1197.17 41.7716H1117.16C1117.05 41.7716 1116.96 41.6821 1116.96 41.5716V32.4742C1116.96 32.3637 1116.87 32.2742 1116.76 32.2742H1089.11C1089 32.2742 1088.91 32.3637 1088.91 32.4742V41.5716C1088.91 41.6821 1088.82 41.7716 1088.71 41.7716H1019.92C1019.81 41.7716 1019.72 41.6821 1019.72 41.5716V32.4742C1019.72 32.3637 1019.63 32.2742 1019.52 32.2742Z" fill="#DCE9D2" stroke="#303030"/>
<path d="M1227.29 442.435V214.643C1227.29 214.533 1227.2 214.443 1227.09 214.443H1098.09C1097.98 214.443 1097.89 214.533 1097.89 214.643V300.994C1097.89 301.104 1097.8 301.194 1097.69 301.194H1079.33C1079.22 301.194 1079.13 301.283 1079.13 301.394V340.597C1079.13 340.708 1079.04 340.797 1078.93 340.797H1056.83C1056.72 340.797 1056.63 340.887 1056.63 340.997V442.435C1056.63 442.545 1056.72 442.635 1056.83 442.635H1227.09C1227.2 442.635 1227.29 442.545 1227.29 442.435Z" fill="#DCE9D2" stroke="#303030"/>
<path d="M984.444 41.7057H879.234C879.124 41.7057 879.034 41.7953 879.034 41.9057V186.752C879.034 186.862 878.945 186.952 878.834 186.952H809.457C809.346 186.952 809.257 187.041 809.257 187.152V379.155C809.257 379.266 809.346 379.355 809.457 379.355H1037.25C1037.36 379.355 1037.45 379.266 1037.45 379.155V336.17C1037.45 336.06 1037.36 335.97 1037.25 335.97H999.931C999.82 335.97 999.731 335.881 999.731 335.77V32.4742C999.731 32.3637 999.641 32.2742 999.531 32.2742H984.844C984.733 32.2742 984.644 32.3637 984.644 32.4742V41.5057C984.644 41.6162 984.554 41.7057 984.444 41.7057Z" fill="#DCE9D2" stroke="#303030"/>
<path d="M1048.96 164.786V233.419C1048.96 233.529 1049.05 233.619 1049.16 233.619H1065.46C1065.57 233.619 1065.66 233.529 1065.66 233.419V183.962C1065.66 183.851 1065.75 183.762 1065.86 183.762H1106.28C1106.39 183.762 1106.48 183.672 1106.48 183.562V145.61C1106.48 145.5 1106.39 145.41 1106.28 145.41H1088.13C1088.02 145.41 1087.93 145.5 1087.93 145.61V164.386C1087.93 164.497 1087.84 164.586 1087.73 164.586H1049.16C1049.05 164.586 1048.96 164.676 1048.96 164.786Z" fill="white" stroke="#303030"/>
<path d="M398.897 81.1731H1.2C1.08954 81.1731 1 81.2626 1 81.3731V257.539C1 257.573 1.00844 257.606 1.02455 257.635L56.5835 359.174C56.6007 359.205 56.6259 359.231 56.6565 359.25L220.563 457.018L359.533 565.319C359.568 565.346 359.611 565.361 359.656 565.361H561.691C561.802 565.361 561.891 565.272 561.891 565.161V486.94C561.891 486.83 561.981 486.74 562.091 486.74H661.405C661.516 486.74 661.605 486.83 661.605 486.94V565.161C661.605 565.272 661.695 565.361 661.805 565.361H897.318C897.406 565.361 897.484 565.419 897.509 565.504L907.96 600.656C907.99 600.758 907.937 600.865 907.838 600.901L679.035 685.146C678.938 685.182 678.829 685.138 678.785 685.044L661.624 648.816C661.612 648.79 661.605 648.76 661.605 648.731V633.635C661.605 633.525 661.516 633.435 661.405 633.435H480.676C480.538 633.435 480.442 633.571 480.488 633.701L561.83 865.288C561.864 865.386 561.818 865.494 561.722 865.537L536.177 876.89C536.08 876.934 536.033 877.045 536.071 877.144L586.749 1011.01C586.788 1011.11 586.903 1011.17 587.007 1011.13L791.793 933.614C791.904 933.572 791.954 933.444 791.901 933.338L778.678 906.89C778.624 906.784 778.676 906.654 778.788 906.613L1240.58 738.95C1240.66 738.921 1240.71 738.846 1240.71 738.762V442.836C1240.71 442.726 1240.62 442.636 1240.51 442.636H1226.33" stroke="#303030"/>
<path d="M265.624 82.1316V158.635C265.624 158.745 265.534 158.835 265.424 158.835H167.069C166.958 158.835 166.869 158.924 166.869 159.035V425.378" stroke="#303030"/>
<path d="M265.543 158.587H399.006" stroke="#303030"/>
<path d="M306.057 158.587V82.322" stroke="#303030"/>
<path d="M341.808 158.587V82.322" stroke="#303030"/>
<path d="M167.829 194.336H234.561" stroke="#303030"/>
<path d="M167.83 301.583H239.328" stroke="#303030"/>
<path d="M167.83 342.099H239.328" stroke="#303030"/>
<path d="M236.944 468.412L279.843 413.596" stroke="#303030"/>
<path d="M260.775 487.478L306.057 432.663" stroke="#303030"/>
<path d="M286.992 508.926L332.274 454.111" stroke="#303030"/>
<path d="M310.825 527.994L356.107 473.179" stroke="#303030"/>
<path d="M415.69 487.477V566.125" stroke="#303030"/>
<path d="M451.438 487.477V566.125" stroke="#303030"/>
<path d="M489.571 487.477V563.742" stroke="#303030"/>
<path d="M522.936 487.477V563.742" stroke="#303030"/>
<path d="M704.063 487.477V566.125" stroke="#303030"/>
<path d="M742.195 487.477V566.125" stroke="#303030"/>
<path d="M777.945 487.477V566.125" stroke="#303030"/>
<path d="M542.003 261.068H611.117" stroke="#303030"/>
<path d="M542.003 294.433H611.117" stroke="#303030"/>
<path d="M611.116 234.852V323.032" stroke="#303030"/>
<path d="M542.003 323.032H704.065" stroke="#303030"/>
<path d="M704.063 323.032H808.927" stroke="#303030"/>
<path d="M704.063 323.032V384.997" stroke="#303030"/>
<path d="M737.428 323.032V384.997" stroke="#303030"/>
<path d="M770.794 323.032V384.997" stroke="#303030"/>
<path d="M701.679 234.852V323.032" stroke="#303030"/>
<path d="M701.679 256.302H766.027" stroke="#303030"/>
<path d="M701.679 289.666H766.027" stroke="#303030"/>
<path d="M766.03 256.302V323.034" stroke="#303030"/>
<path d="M429.988 37.0413H827.793C827.904 37.0413 827.993 37.1308 827.993 37.2413V84.5066C827.993 84.617 827.904 84.7066 827.793 84.7066H782.711" stroke="#303030"/>
<path d="M880.425 41.8064C878.518 41.8064 844.676 41.8064 827.993 41.8064" stroke="#303030"/>
<path d="M816.077 84.7061V115.489C816.077 115.599 816.167 115.689 816.277 115.689H878.042" stroke="#303030"/>
<path d="M830.377 115.689V187.187" stroke="#303030"/>
<path d="M808.927 387.379V399.095C808.927 399.206 809.016 399.295 809.127 399.295H887.494C887.545 399.295 887.595 399.316 887.633 399.352L966.164 475.504C966.201 475.54 966.251 475.56 966.303 475.56H1073.27C1073.38 475.56 1073.47 475.47 1073.47 475.36V442.194" stroke="#303030"/>
<path d="M132.081 79.9401V58.6907C132.081 58.5802 132.17 58.4907 132.281 58.4907H150.947C151.057 58.4907 151.147 58.4011 151.147 58.2907V37.2413C151.147 37.1308 151.236 37.0413 151.347 37.0413H212.912C213.022 37.0413 213.112 37.1308 213.112 37.2413V58.2907C213.112 58.4011 213.201 58.4907 213.312 58.4907H289.176C289.287 58.4907 289.376 58.5802 289.376 58.6907V79.9401" stroke="#303030"/>
<path opacity="0.5" d="M1240.3 477.945H1133.25C1133.14 477.945 1133.05 478.035 1133.05 478.145V568.309C1133.05 568.42 1133.14 568.509 1133.25 568.509H1240.3" stroke="#303030"/>
<path d="M491.954 666.224H570.602" stroke="#303030"/>
<path d="M515.787 730.571L584.901 704.355" stroke="#303030"/>
<path d="M525.321 763.935L596.819 737.719" stroke="#303030"/>
<path d="M539.619 797.304L611.117 771.088" stroke="#303030"/>
<path d="M551.535 830.668L623.033 804.452" stroke="#303030"/>
<path d="M563.453 864.034L634.951 837.818" stroke="#303030"/>
<path d="M563 863L616 1000" stroke="#303030"/>
<path d="M577.751 902.167L646.866 875.951" stroke="#303030"/>
<path d="M592.052 935.531L661.167 909.315" stroke="#303030"/>
<path d="M601.584 964.132L670.699 940.299" stroke="#303030"/>
<path d="M715.981 670.989L742.197 744.871" stroke="#303030"/>
<path d="M749.347 659.073L775.563 730.571" stroke="#303030"/>
<path d="M782.712 647.157L808.928 718.655" stroke="#303030"/>
<path d="M818.46 635.241L842.293 706.739" stroke="#303030"/>
<path d="M849.443 623.324L875.659 694.822" stroke="#303030"/>
<path d="M885.191 609.023L911.407 680.521" stroke="#303030"/>
<path d="M773.18 825.901L799.395 897.399" stroke="#303030"/>
<path d="M806.546 813.985L832.762 885.483" stroke="#303030"/>
<path d="M839.911 802.068L866.127 875.95" stroke="#303030"/>
<path d="M873.277 790.153L901.876 861.651" stroke="#303030"/>
<path d="M906.642 778.236L932.858 849.734" stroke="#303030"/>
<path d="M940.008 766.32L966.224 837.818" stroke="#303030"/>
<path d="M975.756 754.402L1001.97 825.9" stroke="#303030"/>
<path d="M1006.74 742.487L1032.96 813.985" stroke="#303030"/>
<path d="M329.891 280.134C335.611 280.134 381.529 280.134 403.773 280.134" stroke="#303030"/>
<path d="M329.891 306.349H403.773" stroke="#303030"/>
<path d="M410.923 323.032V399.296" stroke="#303030"/>
<path d="M446.672 323.032V399.296" stroke="#303030"/>
<path d="M482.419 323.032V399.296" stroke="#303030"/>
<path d="M518.17 323.032V399.296" stroke="#303030"/>
<path d="M553.919 323.032V399.296" stroke="#303030"/>
<path d="M587.284 323.032V396.913" stroke="#303030"/>
<path d="M377.556 306.349V377.847" stroke="#303030"/>
<path d="M31.9832 82.3213V248.95C31.9832 249.06 31.8937 249.15 31.7832 249.15H1.00073" stroke="#303030"/>
<path d="M46.2836 82.3222V222.735C46.2836 222.845 46.3731 222.935 46.4836 222.935H93.7489C93.8594 222.935 93.9489 222.845 93.9489 222.735V158.787C93.9489 158.676 93.8594 158.587 93.7489 158.587H70.3162C70.2058 158.587 70.1162 158.497 70.1162 158.387V127.804C70.1162 127.694 70.2058 127.604 70.3162 127.604H131.881C131.992 127.604 132.081 127.515 132.081 127.404V77.5557" stroke="#303030"/>
<path d="M132.079 127.605H243.893C244.003 127.605 244.093 127.695 244.093 127.805V158.588" stroke="#303030"/>
<path d="M265.544 110.922H93.9489" stroke="#303030"/>
<path d="M93.9489 82.3213V127.603" stroke="#303030"/>
<path d="M132.079 127.605V222.736C132.079 222.846 132.169 222.936 132.279 222.936H136.646C136.756 222.936 136.846 222.846 136.846 222.736V127.605" stroke="#303030"/>
<path d="M167.83 246.767H75.0826C74.9721 246.767 74.8826 246.856 74.8826 246.967V353.904C74.8826 353.972 74.9175 354.036 74.9752 354.073L101.006 370.638C101.064 370.674 101.099 370.738 101.099 370.806V384.996" stroke="#303030"/>
<path d="M20.0654 249.152V258.631C20.0654 258.666 20.0749 258.701 20.0929 258.732L60.4855 327.637C60.5391 327.728 60.5121 327.846 60.4239 327.904L46.2814 337.333" stroke="#303030"/>
<path d="M117.781 127.605V222.736C117.781 222.846 117.87 222.936 117.981 222.936H132.08" stroke="#303030"/>
<path d="M101.098 246.767V373.08" stroke="#303030"/>
<path d="M132.081 246.767V322.831C132.081 322.942 131.991 323.031 131.881 323.031H101.098" stroke="#303030"/>
<path d="M127.315 323.032C125.415 323.032 126.512 360.895 127.306 380.027C127.311 380.141 127.22 380.23 127.106 380.23H101.099" stroke="#303030"/>
<path d="M141.614 246.767V394.329C141.614 394.44 141.703 394.529 141.814 394.529H167.83" stroke="#303030"/>
<path d="M20.0669 258.683H1.00073" stroke="#303030"/>
<path d="M999.589 246.767H1039.9C1040.02 246.767 1040.1 246.856 1040.1 246.967V332.481C1040.1 332.534 1040.08 332.585 1040.05 332.623L1035.34 337.331" stroke="#303030"/>
<path d="M1061.55 234.85V289.573C1061.55 289.632 1061.58 289.687 1061.62 289.725L1078.24 303.965" stroke="#303030"/>
<path d="M1056.79 339.715V327.905C1056.79 327.838 1056.82 327.776 1056.88 327.739L1063.89 323.065C1063.92 323.043 1063.96 323.032 1064 323.032H1078.24" stroke="#303030"/>
<path d="M1000 247L1040 333" stroke="black"/>
<path d="M1040 247L1000 335" stroke="black"/>
<path d="M626.563 6.31151C626.563 8.13551 627.967 9.14351 629.911 9.14351C631.615 9.14351 632.899 8.33951 632.899 6.85151C632.899 5.62751 632.203 4.91951 630.715 4.64351L629.323 4.39151C628.639 4.25951 628.243 4.06751 628.243 3.51551C628.243 2.86751 628.747 2.47151 629.635 2.47151C630.667 2.47151 631.339 3.01151 631.387 4.04351L632.767 3.99551C632.743 2.31551 631.627 1.29551 629.647 1.29551C627.883 1.29551 626.767 2.20751 626.767 3.62351C626.767 4.87151 627.583 5.51951 628.759 5.73551L630.199 5.99951C630.991 6.15551 631.447 6.37151 631.447 6.94751C631.447 7.58351 630.847 7.95551 629.911 7.95551C628.855 7.95551 628.003 7.42751 627.943 6.25151L626.563 6.31151ZM634.087 7.65551C634.087 8.78351 634.771 9.14351 635.587 9.14351C636.235 9.14351 636.667 8.97551 637.051 8.68751V7.73951C636.739 7.88351 636.439 7.99151 636.151 7.99151C635.719 7.99151 635.515 7.78751 635.515 7.33151V4.71551H636.955V3.70751H635.515V2.24351H634.639L634.471 2.96351C634.351 3.45551 634.207 3.71951 633.691 3.80351L633.331 3.86351V4.71551H634.087V7.65551ZM637.851 8.99951H639.459V7.39151H637.851V8.99951ZM644.272 1.43951V6.25151C644.272 7.35551 643.84 7.88351 642.928 7.88351C642.004 7.88351 641.536 7.24751 641.464 6.15551L640.024 6.21551C640.072 8.12351 641.176 9.14351 642.928 9.14351C644.62 9.14351 645.772 8.25551 645.772 6.34751V1.43951H644.272ZM648.078 6.35951C648.078 5.35151 648.534 4.65551 649.41 4.65551C650.298 4.65551 650.754 5.35151 650.754 6.35951C650.754 7.35551 650.298 8.05151 649.41 8.05151C648.534 8.05151 648.078 7.35551 648.078 6.35951ZM652.206 6.35951C652.206 4.71551 651.054 3.56351 649.41 3.56351C647.778 3.56351 646.626 4.71551 646.626 6.35951C646.626 8.00351 647.778 9.14351 649.41 9.14351C651.054 9.14351 652.206 8.00351 652.206 6.35951ZM654.554 6.16751C654.554 5.27951 655.01 4.70351 655.742 4.70351C656.45 4.70351 656.774 5.17151 656.774 5.98751V8.99951H658.214V5.69951C658.214 4.52351 657.698 3.56351 656.282 3.56351C655.49 3.56351 654.818 3.97151 654.554 4.57151V1.43951H653.114V8.99951H654.554V6.16751ZM660.812 6.16751C660.812 5.27951 661.268 4.70351 662 4.70351C662.708 4.70351 663.032 5.17151 663.032 5.98751V8.99951H664.472V5.69951C664.472 4.52351 663.956 3.56351 662.54 3.56351C661.748 3.56351 661.076 3.97151 660.812 4.57151V3.70751H659.372V8.99951H660.812V6.16751ZM665.246 7.24751C665.342 8.54351 666.398 9.14351 667.778 9.14351C669.146 9.14351 670.082 8.54351 670.082 7.46351C670.082 6.46751 669.422 5.99951 668.306 5.81951L667.298 5.65151C666.914 5.59151 666.722 5.42351 666.722 5.13551C666.722 4.77551 667.058 4.54751 667.574 4.54751C668.33 4.54751 668.738 4.84751 668.834 5.44751L670.022 5.39951C669.926 4.22351 669.05 3.56351 667.586 3.56351C666.242 3.56351 665.39 4.25951 665.39 5.26751C665.39 6.25151 666.014 6.67151 667.142 6.85151L667.982 6.99551C668.51 7.07951 668.75 7.23551 668.75 7.59551C668.75 7.97951 668.318 8.15951 667.79 8.15951C667.058 8.15951 666.578 7.83551 666.494 7.19951L665.246 7.24751ZM672.781 6.31151C672.781 8.13551 674.185 9.14351 676.129 9.14351C677.833 9.14351 679.117 8.33951 679.117 6.85151C679.117 5.62751 678.421 4.91951 676.933 4.64351L675.541 4.39151C674.857 4.25951 674.461 4.06751 674.461 3.51551C674.461 2.86751 674.965 2.47151 675.853 2.47151C676.885 2.47151 677.557 3.01151 677.605 4.04351L678.985 3.99551C678.961 2.31551 677.845 1.29551 675.865 1.29551C674.101 1.29551 672.985 2.20751 672.985 3.62351C672.985 4.87151 673.801 5.51951 674.977 5.73551L676.417 5.99951C677.209 6.15551 677.665 6.37151 677.665 6.94751C677.665 7.58351 677.065 7.95551 676.129 7.95551C675.073 7.95551 674.221 7.42751 674.161 6.25151L672.781 6.31151ZM680.306 7.65551C680.306 8.78351 680.99 9.14351 681.806 9.14351C682.454 9.14351 682.886 8.97551 683.27 8.68751V7.73951C682.958 7.88351 682.658 7.99151 682.37 7.99151C681.938 7.99151 681.734 7.78751 681.734 7.33151V4.71551H683.174V3.70751H681.734V2.24351H680.858L680.69 2.96351C680.57 3.45551 680.426 3.71951 679.91 3.80351L679.55 3.86351V4.71551H680.306V7.65551ZM687.747 3.77951C687.591 3.64751 687.327 3.56351 687.003 3.56351C686.271 3.56351 685.719 4.11551 685.527 4.71551V3.70751H684.087V8.99951H685.527V6.38351C685.527 5.42351 686.031 4.89551 686.775 4.89551C687.123 4.89551 687.363 4.96751 687.639 5.12351L687.747 3.77951ZM692.17 7.15151C691.966 7.75151 691.546 8.05151 690.838 8.05151C690.058 8.05151 689.446 7.49951 689.398 6.71951H693.37V6.20351C693.37 4.76351 692.482 3.56351 690.754 3.56351C689.17 3.56351 687.982 4.76351 687.982 6.43151C687.982 8.09951 689.158 9.14351 690.79 9.14351C692.146 9.14351 693.058 8.44751 693.334 7.27151L692.17 7.15151ZM689.422 5.81951C689.554 5.15951 689.95 4.61951 690.742 4.61951C691.546 4.61951 691.918 5.20751 691.966 5.81951H689.422ZM698.217 7.15151C698.013 7.75151 697.593 8.05151 696.885 8.05151C696.105 8.05151 695.493 7.49951 695.445 6.71951H699.417V6.20351C699.417 4.76351 698.529 3.56351 696.801 3.56351C695.217 3.56351 694.029 4.76351 694.029 6.43151C694.029 8.09951 695.205 9.14351 696.837 9.14351C698.193 9.14351 699.105 8.44751 699.381 7.27151L698.217 7.15151ZM695.469 5.81951C695.601 5.15951 695.997 4.61951 696.789 4.61951C697.593 4.61951 697.965 5.20751 698.013 5.81951H695.469ZM700.521 7.65551C700.521 8.78351 701.205 9.14351 702.021 9.14351C702.669 9.14351 703.101 8.97551 703.485 8.68751V7.73951C703.173 7.88351 702.873 7.99151 702.585 7.99151C702.153 7.99151 701.949 7.78751 701.949 7.33151V4.71551H703.389V3.70751H701.949V2.24351H701.073L700.905 2.96351C700.785 3.45551 700.641 3.71951 700.125 3.80351L699.765 3.86351V4.71551H700.521V7.65551Z" fill="#303030"/>
<path d="M1268.44 476.869L1276 479.929L1276 478.417L1274.13 477.685L1274.13 474.469L1276 473.713L1276 472.117L1268.44 475.201L1268.44 476.869ZM1270.14 476.113L1270.14 476.065L1272.98 474.925L1272.98 477.229L1270.14 476.113ZM1268.44 471.432L1276 471.432L1276 469.992L1268.44 469.992L1268.44 471.432ZM1273.25 467.356C1272.29 467.356 1271.69 466.78 1271.69 465.964C1271.69 465.052 1272.35 464.584 1273.36 464.584C1274.36 464.584 1275.02 465.052 1275.02 465.964C1275.02 466.78 1274.43 467.356 1273.46 467.356L1273.25 467.356ZM1274.98 467.416C1275.64 467.14 1276.14 466.468 1276.14 465.544C1276.14 463.96 1274.92 463.132 1273.36 463.132C1271.8 463.132 1270.56 463.96 1270.56 465.52C1270.56 466.468 1271.08 467.104 1271.73 467.344L1268.44 467.344L1268.44 468.784L1276 468.784L1276 467.68L1274.98 467.416ZM1274.15 458.31C1274.75 458.514 1275.05 458.934 1275.05 459.642C1275.05 460.422 1274.5 461.034 1273.72 461.082L1273.72 457.11L1273.2 457.11C1271.76 457.11 1270.56 457.998 1270.56 459.726C1270.56 461.31 1271.76 462.498 1273.43 462.498C1275.1 462.498 1276.14 461.322 1276.14 459.69C1276.14 458.334 1275.45 457.422 1274.27 457.146L1274.15 458.31ZM1272.82 461.058C1272.16 460.926 1271.62 460.53 1271.62 459.738C1271.62 458.934 1272.21 458.562 1272.82 458.514L1272.82 461.058ZM1270.78 452.526C1270.65 452.682 1270.56 452.946 1270.56 453.27C1270.56 454.002 1271.12 454.554 1271.72 454.746L1270.71 454.746L1270.71 456.186L1276 456.186L1276 454.746L1273.38 454.746C1272.42 454.746 1271.9 454.242 1271.9 453.498C1271.9 453.15 1271.97 452.91 1272.12 452.634L1270.78 452.526ZM1274.66 451.483C1275.78 451.483 1276.14 450.799 1276.14 449.983C1276.14 449.335 1275.98 448.903 1275.69 448.519L1274.74 448.519C1274.88 448.831 1274.99 449.131 1274.99 449.419C1274.99 449.851 1274.79 450.055 1274.33 450.055L1271.72 450.055L1271.72 448.615L1270.71 448.615L1270.71 450.055L1269.24 450.055L1269.24 450.931L1269.96 451.099C1270.46 451.219 1270.72 451.363 1270.8 451.879L1270.86 452.239L1271.72 452.239L1271.72 451.483L1274.66 451.483ZM1273.31 445.906C1275.14 445.906 1276.14 444.502 1276.14 442.558C1276.14 440.854 1275.34 439.57 1273.85 439.57C1272.63 439.57 1271.92 440.266 1271.64 441.754L1271.39 443.146C1271.26 443.83 1271.07 444.226 1270.52 444.226C1269.87 444.226 1269.47 443.722 1269.47 442.834C1269.47 441.802 1270.01 441.13 1271.04 441.082L1271 439.702C1269.32 439.726 1268.3 440.842 1268.3 442.822C1268.3 444.586 1269.21 445.702 1270.62 445.702C1271.87 445.702 1272.52 444.886 1272.74 443.71L1273 442.27C1273.16 441.478 1273.37 441.022 1273.95 441.022C1274.58 441.022 1274.96 441.622 1274.96 442.558C1274.96 443.614 1274.43 444.466 1273.25 444.526L1273.31 445.906ZM1274.66 438.381C1275.78 438.381 1276.14 437.697 1276.14 436.881C1276.14 436.233 1275.98 435.801 1275.69 435.417L1274.74 435.417C1274.88 435.729 1274.99 436.029 1274.99 436.317C1274.99 436.749 1274.79 436.953 1274.33 436.953L1271.72 436.953L1271.72 435.513L1270.71 435.513L1270.71 436.953L1269.24 436.953L1269.24 437.829L1269.96 437.997C1270.46 438.117 1270.72 438.261 1270.8 438.777L1270.86 439.137L1271.72 439.137L1271.72 438.381L1274.66 438.381ZM1270.78 430.94C1270.65 431.096 1270.56 431.36 1270.56 431.684C1270.56 432.416 1271.12 432.968 1271.72 433.16L1270.71 433.16L1270.71 434.6L1276 434.6L1276 433.16L1273.38 433.16C1272.42 433.16 1271.9 432.656 1271.9 431.912C1271.9 431.564 1271.97 431.324 1272.12 431.048L1270.78 430.94ZM1274.15 426.517C1274.75 426.721 1275.05 427.141 1275.05 427.849C1275.05 428.629 1274.5 429.241 1273.72 429.289L1273.72 425.317L1273.2 425.317C1271.76 425.317 1270.56 426.205 1270.56 427.933C1270.56 429.517 1271.76 430.705 1273.43 430.705C1275.1 430.705 1276.14 429.529 1276.14 427.897C1276.14 426.541 1275.45 425.629 1274.27 425.353L1274.15 426.517ZM1272.82 429.265C1272.16 429.133 1271.62 428.737 1271.62 427.945C1271.62 427.141 1272.21 426.769 1272.82 426.721L1272.82 429.265ZM1274.15 420.47C1274.75 420.674 1275.05 421.094 1275.05 421.802C1275.05 422.582 1274.5 423.194 1273.72 423.242L1273.72 419.27L1273.2 419.27C1271.76 419.27 1270.56 420.158 1270.56 421.886C1270.56 423.47 1271.76 424.658 1273.43 424.658C1275.1 424.658 1276.14 423.482 1276.14 421.85C1276.14 420.494 1275.45 419.582 1274.27 419.306L1274.15 420.47ZM1272.82 423.218C1272.16 423.086 1271.62 422.69 1271.62 421.898C1271.62 421.094 1272.21 420.722 1272.82 420.674L1272.82 423.218ZM1274.66 418.166C1275.78 418.166 1276.14 417.482 1276.14 416.666C1276.14 416.018 1275.98 415.586 1275.69 415.202L1274.74 415.202C1274.88 415.514 1274.99 415.814 1274.99 416.102C1274.99 416.534 1274.79 416.738 1274.33 416.738L1271.72 416.738L1271.72 415.298L1270.71 415.298L1270.71 416.738L1269.24 416.738L1269.24 417.614L1269.96 417.782C1270.46 417.902 1270.72 418.046 1270.8 418.562L1270.86 418.922L1271.72 418.922L1271.72 418.166L1274.66 418.166Z" fill="#303030"/>
<path d="M447.263 129.22C447.263 131.548 448.907 133.144 451.055 133.144C453.287 133.144 454.523 131.752 454.655 129.832L453.215 129.772C453.107 130.9 452.435 131.824 451.055 131.824C449.711 131.824 448.823 130.816 448.823 129.22C448.823 127.624 449.711 126.616 451.055 126.616C452.435 126.616 453.107 127.54 453.215 128.668L454.655 128.608C454.523 126.7 453.287 125.296 451.055 125.296C448.907 125.296 447.263 126.892 447.263 129.22ZM462.023 133C461.771 132.724 461.735 132.34 461.639 131.224C461.555 130.336 461.111 129.832 460.247 129.664C461.171 129.544 461.915 128.884 461.915 127.744C461.915 126.34 460.967 125.44 459.035 125.44H455.615V133H457.091V130.204H458.867C459.731 130.204 460.115 130.588 460.175 131.44C460.235 132.28 460.331 132.796 460.487 133H462.023ZM457.091 129.028V126.652H458.831C459.923 126.652 460.427 127.096 460.427 127.852C460.427 128.668 459.923 129.028 458.831 129.028H457.091ZM466.154 133.144C467.966 133.144 469.406 132.268 469.406 130.06V125.44H467.906V129.916C467.906 131.212 467.354 131.884 466.154 131.884C464.966 131.884 464.414 131.212 464.414 129.904V125.44H462.926V130.06C462.926 132.268 464.342 133.144 466.154 133.144ZM477.655 125.44H475.843L472.339 129.784V131.176H476.179V133H477.655V131.176H478.807V129.928H477.655V125.44ZM476.179 126.76V129.928H473.635L476.179 126.76ZM444.897 141.216H446.313V147H447.357V139.392H446.673C446.397 140.184 445.953 140.544 444.897 140.544V141.216ZM448.69 147H449.254C449.254 147.528 449.134 147.696 448.69 147.732V148.32C449.65 148.308 449.89 147.816 449.89 146.976V145.8H448.69V147ZM455.051 144.924C455.051 145.824 454.367 146.304 453.383 146.304C452.243 146.304 451.511 145.692 451.487 144.492L450.467 144.444C450.467 146.124 451.571 147.144 453.371 147.144C455.039 147.144 456.095 146.256 456.095 144.996C456.095 144.012 455.399 143.316 454.475 143.184C455.219 143.064 455.939 142.404 455.939 141.432C455.939 140.16 455.015 139.296 453.347 139.296C451.643 139.296 450.599 140.436 450.599 141.996L451.607 142.032C451.607 140.832 452.267 140.136 453.335 140.136C454.379 140.136 454.907 140.7 454.907 141.516C454.907 142.488 454.175 142.812 453.383 142.812C453.047 142.812 452.831 142.8 452.663 142.776V143.628C452.843 143.604 453.083 143.592 453.383 143.592C454.331 143.592 455.051 144.06 455.051 144.924ZM459.463 146.316C458.443 146.316 457.939 145.716 457.807 144.828L456.811 144.864C456.943 146.28 457.951 147.144 459.451 147.144C461.575 147.144 462.571 145.44 462.571 143.076C462.571 140.76 461.515 139.296 459.499 139.296C457.807 139.296 456.739 140.364 456.739 141.924C456.739 143.412 457.759 144.48 459.391 144.48C460.615 144.48 461.383 143.808 461.647 142.932C461.659 144.912 460.999 146.316 459.463 146.316ZM461.347 141.888C461.347 142.956 460.687 143.652 459.547 143.652C458.395 143.652 457.735 142.956 457.735 141.888C457.735 140.832 458.395 140.136 459.511 140.136C460.639 140.136 461.347 140.844 461.347 141.888ZM467.813 144.924C467.813 145.824 467.129 146.304 466.145 146.304C465.005 146.304 464.273 145.692 464.249 144.492L463.229 144.444C463.229 146.124 464.333 147.144 466.133 147.144C467.801 147.144 468.857 146.256 468.857 144.996C468.857 144.012 468.161 143.316 467.237 143.184C467.981 143.064 468.701 142.404 468.701 141.432C468.701 140.16 467.777 139.296 466.109 139.296C464.405 139.296 463.361 140.436 463.361 141.996L464.369 142.032C464.369 140.832 465.029 140.136 466.097 140.136C467.141 140.136 467.669 140.7 467.669 141.516C467.669 142.488 466.937 142.812 466.145 142.812C465.809 142.812 465.593 142.8 465.425 142.776V143.628C465.605 143.604 465.845 143.592 466.145 143.592C467.093 143.592 467.813 144.06 467.813 144.924ZM471.573 144.3C471.573 146.124 472.929 147.144 474.789 147.144C476.421 147.144 477.621 146.34 477.621 144.948C477.621 143.736 476.925 143.136 475.545 142.872L474.177 142.608C473.301 142.44 472.809 142.2 472.809 141.456C472.809 140.616 473.421 140.1 474.513 140.1C475.761 140.1 476.517 140.808 476.553 142.056L477.501 142.008C477.489 140.304 476.397 139.296 474.501 139.296C472.845 139.296 471.801 140.196 471.801 141.516C471.801 142.692 472.569 143.292 473.685 143.508L475.185 143.796C476.169 143.988 476.625 144.324 476.625 145.02C476.625 145.848 475.917 146.328 474.789 146.328C473.517 146.328 472.569 145.62 472.509 144.24L471.573 144.3ZM479.799 147V143.676H483.039V142.812H479.799V140.304H483.927V139.44H478.767V147H479.799Z" fill="black"/>
<path d="M579.998 129.22C579.998 131.548 581.642 133.144 583.79 133.144C586.022 133.144 587.258 131.752 587.39 129.832L585.95 129.772C585.842 130.9 585.17 131.824 583.79 131.824C582.446 131.824 581.558 130.816 581.558 129.22C581.558 127.624 582.446 126.616 583.79 126.616C585.17 126.616 585.842 127.54 585.95 128.668L587.39 128.608C587.258 126.7 586.022 125.296 583.79 125.296C581.642 125.296 579.998 126.892 579.998 129.22ZM594.757 133C594.505 132.724 594.469 132.34 594.373 131.224C594.289 130.336 593.845 129.832 592.981 129.664C593.905 129.544 594.649 128.884 594.649 127.744C594.649 126.34 593.701 125.44 591.769 125.44H588.349V133H589.825V130.204H591.601C592.465 130.204 592.849 130.588 592.909 131.44C592.969 132.28 593.065 132.796 593.221 133H594.757ZM589.825 129.028V126.652H591.565C592.657 126.652 593.161 127.096 593.161 127.852C593.161 128.668 592.657 129.028 591.565 129.028H589.825ZM598.888 133.144C600.7 133.144 602.14 132.268 602.14 130.06V125.44H600.64V129.916C600.64 131.212 600.088 131.884 598.888 131.884C597.7 131.884 597.148 131.212 597.148 129.904V125.44H595.66V130.06C595.66 132.268 597.076 133.144 598.888 133.144ZM610.401 125.44H605.829C605.793 126.688 605.529 128.644 605.337 129.688L606.801 129.796C607.041 129.388 607.461 129.052 608.133 129.052C609.009 129.052 609.513 129.676 609.513 130.492C609.513 131.38 608.973 131.932 608.121 131.932C607.185 131.932 606.681 131.356 606.681 130.444L605.217 130.336C605.157 132.04 606.201 133.144 608.109 133.144C609.765 133.144 610.929 132.1 610.929 130.48C610.929 129.052 610.053 127.9 608.313 127.9C607.557 127.9 607.041 128.176 606.729 128.488C606.801 128.152 606.933 127.144 606.945 126.772H610.401V125.44ZM577.339 141.216H578.755V147H579.799V139.392H579.115C578.839 140.184 578.395 140.544 577.339 140.544V141.216ZM581.132 147H581.696C581.696 147.528 581.576 147.696 581.132 147.732V148.32C582.092 148.308 582.332 147.816 582.332 146.976V145.8H581.132V147ZM587.493 144.924C587.493 145.824 586.809 146.304 585.825 146.304C584.685 146.304 583.953 145.692 583.929 144.492L582.909 144.444C582.909 146.124 584.013 147.144 585.813 147.144C587.481 147.144 588.537 146.256 588.537 144.996C588.537 144.012 587.841 143.316 586.917 143.184C587.661 143.064 588.381 142.404 588.381 141.432C588.381 140.16 587.457 139.296 585.789 139.296C584.085 139.296 583.041 140.436 583.041 141.996L584.049 142.032C584.049 140.832 584.709 140.136 585.777 140.136C586.821 140.136 587.349 140.7 587.349 141.516C587.349 142.488 586.617 142.812 585.825 142.812C585.489 142.812 585.273 142.8 585.105 142.776V143.628C585.285 143.604 585.525 143.592 585.825 143.592C586.773 143.592 587.493 144.06 587.493 144.924ZM592.336 140.124C593.356 140.124 593.86 140.724 593.992 141.612L594.988 141.576C594.856 140.16 593.848 139.296 592.348 139.296C590.224 139.296 589.228 141 589.228 143.364C589.228 145.68 590.284 147.144 592.3 147.144C593.992 147.144 595.06 146.076 595.06 144.516C595.06 143.028 594.04 141.96 592.408 141.96C591.184 141.96 590.416 142.632 590.152 143.508C590.14 141.528 590.8 140.124 592.336 140.124ZM590.452 144.552C590.452 143.484 591.112 142.788 592.252 142.788C593.404 142.788 594.064 143.484 594.064 144.552C594.064 145.608 593.404 146.304 592.288 146.304C591.16 146.304 590.452 145.596 590.452 144.552ZM600.878 139.44H596.45C596.414 140.688 596.162 142.62 595.97 143.664L597.002 143.736C597.278 143.22 597.818 142.776 598.658 142.776C599.726 142.776 600.374 143.508 600.374 144.504C600.374 145.608 599.726 146.316 598.658 146.316C597.47 146.316 596.858 145.548 596.858 144.408L595.85 144.324C595.766 146.004 596.81 147.144 598.634 147.144C600.278 147.144 601.382 146.064 601.382 144.492C601.382 143.1 600.494 141.948 598.778 141.948C597.938 141.948 597.326 142.296 596.978 142.716C597.062 142.332 597.242 140.784 597.254 140.376H600.878V139.44ZM604.131 144.3C604.131 146.124 605.487 147.144 607.347 147.144C608.979 147.144 610.179 146.34 610.179 144.948C610.179 143.736 609.483 143.136 608.103 142.872L606.735 142.608C605.859 142.44 605.367 142.2 605.367 141.456C605.367 140.616 605.979 140.1 607.071 140.1C608.319 140.1 609.075 140.808 609.111 142.056L610.059 142.008C610.047 140.304 608.955 139.296 607.059 139.296C605.403 139.296 604.359 140.196 604.359 141.516C604.359 142.692 605.127 143.292 606.243 143.508L607.743 143.796C608.727 143.988 609.183 144.324 609.183 145.02C609.183 145.848 608.475 146.328 607.347 146.328C606.075 146.328 605.127 145.62 605.067 144.24L604.131 144.3ZM612.358 147V143.676H615.598V142.812H612.358V140.304H616.486V139.44H611.326V147H612.358Z" fill="black"/>
<path d="M700.839 129.22C700.839 131.548 702.483 133.144 704.631 133.144C706.863 133.144 708.099 131.752 708.231 129.832L706.791 129.772C706.683 130.9 706.011 131.824 704.631 131.824C703.287 131.824 702.399 130.816 702.399 129.22C702.399 127.624 703.287 126.616 704.631 126.616C706.011 126.616 706.683 127.54 706.791 128.668L708.231 128.608C708.099 126.7 706.863 125.296 704.631 125.296C702.483 125.296 700.839 126.892 700.839 129.22ZM715.599 133C715.347 132.724 715.311 132.34 715.215 131.224C715.131 130.336 714.687 129.832 713.823 129.664C714.747 129.544 715.491 128.884 715.491 127.744C715.491 126.34 714.543 125.44 712.611 125.44H709.191V133H710.667V130.204H712.443C713.307 130.204 713.691 130.588 713.751 131.44C713.811 132.28 713.907 132.796 714.063 133H715.599ZM710.667 129.028V126.652H712.407C713.499 126.652 714.003 127.096 714.003 127.852C714.003 128.668 713.499 129.028 712.407 129.028H710.667ZM719.73 133.144C721.542 133.144 722.982 132.268 722.982 130.06V125.44H721.482V129.916C721.482 131.212 720.93 131.884 719.73 131.884C718.542 131.884 717.99 131.212 717.99 129.904V125.44H716.502V130.06C716.502 132.268 717.918 133.144 719.73 133.144ZM729.239 126.496C730.055 126.496 730.487 126.94 730.583 127.648L731.987 127.612C731.855 126.148 730.823 125.296 729.263 125.296C727.115 125.296 726.059 126.976 726.059 129.316C726.059 131.668 727.151 133.144 729.215 133.144C730.919 133.144 732.071 132.112 732.071 130.528C732.071 129.052 731.063 128.02 729.419 128.02C728.423 128.02 727.727 128.5 727.427 129.172C727.451 127.6 728.039 126.496 729.239 126.496ZM727.739 130.564C727.739 129.712 728.267 129.16 729.179 129.16C730.103 129.16 730.631 129.712 730.631 130.564C730.631 131.392 730.103 131.956 729.191 131.956C728.291 131.956 727.739 131.38 727.739 130.564ZM698.075 141.216H699.491V147H700.535V139.392H699.851C699.575 140.184 699.131 140.544 698.075 140.544V141.216ZM701.868 147H702.432C702.432 147.528 702.312 147.696 701.868 147.732V148.32C702.828 148.308 703.068 147.816 703.068 146.976V145.8H701.868V147ZM708.237 139.44H706.977L703.245 144V144.984H707.217V147H708.237V144.984H709.533V144.132H708.237V139.44ZM707.217 140.376V144.132H704.145L707.217 140.376ZM716.287 143.22C716.287 140.712 715.123 139.296 713.143 139.296C711.163 139.296 710.011 140.712 710.011 143.22C710.011 145.728 711.163 147.144 713.143 147.144C715.123 147.144 716.287 145.728 716.287 143.22ZM715.195 143.22C715.195 145.272 714.535 146.304 713.143 146.304C711.751 146.304 711.091 145.272 711.091 143.22C711.091 141.168 711.751 140.136 713.143 140.136C714.535 140.136 715.195 141.168 715.195 143.22ZM722.142 139.44H717.714C717.678 140.688 717.426 142.62 717.234 143.664L718.266 143.736C718.542 143.22 719.082 142.776 719.922 142.776C720.99 142.776 721.638 143.508 721.638 144.504C721.638 145.608 720.99 146.316 719.922 146.316C718.734 146.316 718.122 145.548 718.122 144.408L717.114 144.324C717.03 146.004 718.074 147.144 719.898 147.144C721.542 147.144 722.646 146.064 722.646 144.492C722.646 143.1 721.758 141.948 720.042 141.948C719.202 141.948 718.59 142.296 718.242 142.716C718.326 142.332 718.506 140.784 718.518 140.376H722.142V139.44ZM725.395 144.3C725.395 146.124 726.751 147.144 728.611 147.144C730.243 147.144 731.443 146.34 731.443 144.948C731.443 143.736 730.747 143.136 729.367 142.872L727.999 142.608C727.123 142.44 726.631 142.2 726.631 141.456C726.631 140.616 727.243 140.1 728.335 140.1C729.583 140.1 730.339 140.808 730.375 142.056L731.323 142.008C731.311 140.304 730.219 139.296 728.323 139.296C726.667 139.296 725.623 140.196 725.623 141.516C725.623 142.692 726.391 143.292 727.507 143.508L729.007 143.796C729.991 143.988 730.447 144.324 730.447 145.02C730.447 145.848 729.739 146.328 728.611 146.328C727.339 146.328 726.391 145.62 726.331 144.24L725.395 144.3ZM733.621 147V143.676H736.861V142.812H733.621V140.304H737.749V139.44H732.589V147H733.621Z" fill="black"/>
<path d="M887.24 278.22C887.24 280.548 888.884 282.144 891.032 282.144C893.264 282.144 894.5 280.752 894.632 278.832L893.192 278.772C893.084 279.9 892.412 280.824 891.032 280.824C889.688 280.824 888.8 279.816 888.8 278.22C888.8 276.624 889.688 275.616 891.032 275.616C892.412 275.616 893.084 276.54 893.192 277.668L894.632 277.608C894.5 275.7 893.264 274.296 891.032 274.296C888.884 274.296 887.24 275.892 887.24 278.22ZM902 282C901.748 281.724 901.712 281.34 901.616 280.224C901.532 279.336 901.088 278.832 900.224 278.664C901.148 278.544 901.892 277.884 901.892 276.744C901.892 275.34 900.944 274.44 899.012 274.44H895.592V282H897.068V279.204H898.844C899.708 279.204 900.092 279.588 900.152 280.44C900.212 281.28 900.308 281.796 900.464 282H902ZM897.068 278.028V275.652H898.808C899.9 275.652 900.404 276.096 900.404 276.852C900.404 277.668 899.9 278.028 898.808 278.028H897.068ZM906.13 282.144C907.942 282.144 909.382 281.268 909.382 279.06V274.44H907.882V278.916C907.882 280.212 907.33 280.884 906.13 280.884C904.942 280.884 904.39 280.212 904.39 278.904V274.44H902.902V279.06C902.902 281.268 904.318 282.144 906.13 282.144ZM912.243 276.552H913.659V282H915.159V274.416H914.055C913.779 275.208 913.299 275.568 912.243 275.568V276.552ZM887.926 293.924C887.926 294.824 887.242 295.304 886.258 295.304C885.118 295.304 884.386 294.692 884.362 293.492L883.342 293.444C883.342 295.124 884.446 296.144 886.246 296.144C887.914 296.144 888.97 295.256 888.97 293.996C888.97 293.012 888.274 292.316 887.35 292.184C888.094 292.064 888.814 291.404 888.814 290.432C888.814 289.16 887.89 288.296 886.222 288.296C884.518 288.296 883.474 289.436 883.474 290.996L884.482 291.032C884.482 289.832 885.142 289.136 886.21 289.136C887.254 289.136 887.782 289.7 887.782 290.516C887.782 291.488 887.05 291.812 886.258 291.812C885.922 291.812 885.706 291.8 885.538 291.776V292.628C885.718 292.604 885.958 292.592 886.258 292.592C887.206 292.592 887.926 293.06 887.926 293.924ZM889.628 296H890.192C890.192 296.528 890.072 296.696 889.628 296.732V297.32C890.588 297.308 890.828 296.816 890.828 295.976V294.8H889.628V296ZM895.989 293.924C895.989 294.824 895.305 295.304 894.321 295.304C893.181 295.304 892.449 294.692 892.425 293.492L891.405 293.444C891.405 295.124 892.509 296.144 894.309 296.144C895.977 296.144 897.033 295.256 897.033 293.996C897.033 293.012 896.337 292.316 895.413 292.184C896.157 292.064 896.877 291.404 896.877 290.432C896.877 289.16 895.953 288.296 894.285 288.296C892.581 288.296 891.537 289.436 891.537 290.996L892.545 291.032C892.545 289.832 893.205 289.136 894.273 289.136C895.317 289.136 895.845 289.7 895.845 290.516C895.845 291.488 895.113 291.812 894.321 291.812C893.985 291.812 893.769 291.8 893.601 291.776V292.628C893.781 292.604 894.021 292.592 894.321 292.592C895.269 292.592 895.989 293.06 895.989 293.924ZM904 292.22C904 289.712 902.836 288.296 900.856 288.296C898.876 288.296 897.724 289.712 897.724 292.22C897.724 294.728 898.876 296.144 900.856 296.144C902.836 296.144 904 294.728 904 292.22ZM902.908 292.22C902.908 294.272 902.248 295.304 900.856 295.304C899.464 295.304 898.804 294.272 898.804 292.22C898.804 290.168 899.464 289.136 900.856 289.136C902.248 289.136 902.908 290.168 902.908 292.22ZM904.503 290.216H905.919V296H906.963V288.392H906.279C906.003 289.184 905.559 289.544 904.503 289.544V290.216ZM910.272 293.3C910.272 295.124 911.628 296.144 913.488 296.144C915.12 296.144 916.32 295.34 916.32 293.948C916.32 292.736 915.624 292.136 914.244 291.872L912.876 291.608C912 291.44 911.508 291.2 911.508 290.456C911.508 289.616 912.12 289.1 913.212 289.1C914.46 289.1 915.216 289.808 915.252 291.056L916.2 291.008C916.188 289.304 915.096 288.296 913.2 288.296C911.544 288.296 910.5 289.196 910.5 290.516C910.5 291.692 911.268 292.292 912.384 292.508L913.884 292.796C914.868 292.988 915.324 293.324 915.324 294.02C915.324 294.848 914.616 295.328 913.488 295.328C912.216 295.328 911.268 294.62 911.208 293.24L910.272 293.3ZM918.498 296V292.676H921.738V291.812H918.498V289.304H922.626V288.44H917.466V296H918.498Z" fill="black"/>
<path d="M1120.09 89.2195C1120.09 91.5475 1121.74 93.1435 1123.88 93.1435C1126.12 93.1435 1127.35 91.7515 1127.48 89.8315L1126.04 89.7715C1125.94 90.8995 1125.26 91.8235 1123.88 91.8235C1122.54 91.8235 1121.65 90.8155 1121.65 89.2195C1121.65 87.6235 1122.54 86.6155 1123.88 86.6155C1125.26 86.6155 1125.94 87.5395 1126.04 88.6675L1127.48 88.6075C1127.35 86.6995 1126.12 85.2955 1123.88 85.2955C1121.74 85.2955 1120.09 86.8915 1120.09 89.2195ZM1134.85 92.9995C1134.6 92.7235 1134.56 92.3395 1134.47 91.2235C1134.38 90.3355 1133.94 89.8315 1133.08 89.6635C1134 89.5435 1134.74 88.8835 1134.74 87.7435C1134.74 86.3395 1133.8 85.4395 1131.86 85.4395H1128.44V92.9995H1129.92V90.2035H1131.7C1132.56 90.2035 1132.94 90.5875 1133 91.4395C1133.06 92.2795 1133.16 92.7955 1133.32 92.9995H1134.85ZM1129.92 89.0275V86.6515H1131.66C1132.75 86.6515 1133.26 87.0955 1133.26 87.8515C1133.26 88.6675 1132.75 89.0275 1131.66 89.0275H1129.92ZM1138.98 93.1435C1140.79 93.1435 1142.23 92.2675 1142.23 90.0595V85.4395H1140.73V89.9155C1140.73 91.2115 1140.18 91.8835 1138.98 91.8835C1137.79 91.8835 1137.24 91.2115 1137.24 89.9035V85.4395H1135.75V90.0595C1135.75 92.2675 1137.17 93.1435 1138.98 93.1435ZM1147.49 91.7275L1148.69 90.7675C1149.83 89.8555 1150.77 89.0035 1150.77 87.6715C1150.77 86.3275 1149.86 85.2955 1148.06 85.2955C1146.39 85.2955 1145.27 86.3155 1145.27 87.8995C1145.27 88.1275 1145.31 88.3675 1145.36 88.6075L1146.85 88.6675C1146.79 88.4635 1146.76 88.2595 1146.76 88.0075C1146.76 87.1315 1147.18 86.5555 1148.02 86.5555C1148.84 86.5555 1149.2 87.0595 1149.2 87.7555C1149.2 88.6675 1148.55 89.2675 1147.37 90.2515L1145.26 91.9915V92.9995H1150.96V91.7275H1147.49ZM1120.86 106.1L1122.28 104.924C1123.38 104.024 1124.54 102.98 1124.54 101.612C1124.54 100.328 1123.74 99.2955 1121.97 99.2955C1120.36 99.2955 1119.32 100.292 1119.32 101.84C1119.32 102.068 1119.36 102.308 1119.4 102.548L1120.44 102.596C1120.38 102.368 1120.35 102.14 1120.35 101.912C1120.35 100.808 1120.93 100.148 1121.96 100.148C1122.96 100.148 1123.46 100.772 1123.46 101.66C1123.46 102.764 1122.57 103.532 1121.38 104.564L1119.25 106.4V107H1124.8V106.1H1120.86ZM1125.68 107H1126.25C1126.25 107.528 1126.13 107.696 1125.68 107.732V108.32C1126.64 108.308 1126.88 107.816 1126.88 106.976V105.8H1125.68V107ZM1126.88 101.216H1128.3V107H1129.34V99.3915H1128.66C1128.38 100.184 1127.94 100.544 1126.88 100.544V101.216ZM1135.7 99.4395H1131.28C1131.24 100.688 1130.99 102.62 1130.8 103.664L1131.83 103.736C1132.1 103.22 1132.64 102.776 1133.48 102.776C1134.55 102.776 1135.2 103.508 1135.2 104.504C1135.2 105.608 1134.55 106.316 1133.48 106.316C1132.3 106.316 1131.68 105.548 1131.68 104.408L1130.68 104.324C1130.59 106.004 1131.64 107.144 1133.46 107.144C1135.1 107.144 1136.21 106.064 1136.21 104.492C1136.21 103.1 1135.32 101.948 1133.6 101.948C1132.76 101.948 1132.15 102.296 1131.8 102.716C1131.89 102.332 1132.07 100.784 1132.08 100.376H1135.7V99.4395ZM1136.65 101.216H1138.06V107H1139.11V99.3915H1138.42C1138.15 100.184 1137.7 100.544 1136.65 100.544V101.216ZM1142.41 104.3C1142.41 106.124 1143.77 107.144 1145.63 107.144C1147.26 107.144 1148.46 106.34 1148.46 104.948C1148.46 103.736 1147.77 103.136 1146.39 102.872L1145.02 102.608C1144.14 102.44 1143.65 102.2 1143.65 101.456C1143.65 100.616 1144.26 100.1 1145.35 100.1C1146.6 100.1 1147.36 100.808 1147.39 102.056L1148.34 102.008C1148.33 100.304 1147.24 99.2955 1145.34 99.2955C1143.69 99.2955 1142.64 100.196 1142.64 101.516C1142.64 102.692 1143.41 103.292 1144.53 103.508L1146.03 103.796C1147.01 103.988 1147.47 104.324 1147.47 105.02C1147.47 105.848 1146.76 106.328 1145.63 106.328C1144.36 106.328 1143.41 105.62 1143.35 104.24L1142.41 104.3ZM1150.64 107V103.676H1153.88V102.812H1150.64V100.304H1154.77V99.4395H1149.61V107H1150.64Z" fill="black"/>
<path d="M1134.49 356.22C1134.49 358.548 1136.14 360.144 1138.28 360.144C1140.52 360.144 1141.75 358.752 1141.88 356.832L1140.44 356.772C1140.34 357.9 1139.66 358.824 1138.28 358.824C1136.94 358.824 1136.05 357.816 1136.05 356.22C1136.05 354.624 1136.94 353.616 1138.28 353.616C1139.66 353.616 1140.34 354.54 1140.44 355.668L1141.88 355.608C1141.75 353.7 1140.52 352.296 1138.28 352.296C1136.14 352.296 1134.49 353.892 1134.49 356.22ZM1149.25 360C1149 359.724 1148.96 359.34 1148.87 358.224C1148.78 357.336 1148.34 356.832 1147.48 356.664C1148.4 356.544 1149.14 355.884 1149.14 354.744C1149.14 353.34 1148.2 352.44 1146.26 352.44H1142.84V360H1144.32V357.204H1146.1C1146.96 357.204 1147.34 357.588 1147.4 358.44C1147.46 359.28 1147.56 359.796 1147.72 360H1149.25ZM1144.32 356.028V353.652H1146.06C1147.15 353.652 1147.66 354.096 1147.66 354.852C1147.66 355.668 1147.15 356.028 1146.06 356.028H1144.32ZM1153.38 360.144C1155.19 360.144 1156.63 359.268 1156.63 357.06V352.44H1155.13V356.916C1155.13 358.212 1154.58 358.884 1153.38 358.884C1152.19 358.884 1151.64 358.212 1151.64 356.904V352.44H1150.15V357.06C1150.15 359.268 1151.57 360.144 1153.38 360.144ZM1163.9 357.852C1163.9 358.56 1163.35 358.932 1162.6 358.932C1161.68 358.932 1161.09 358.452 1161.06 357.48L1159.58 357.42C1159.58 359.1 1160.72 360.144 1162.6 360.144C1164.32 360.144 1165.44 359.304 1165.44 357.972C1165.44 357.012 1164.81 356.328 1163.85 356.172C1164.57 356.076 1165.27 355.428 1165.27 354.492C1165.27 353.184 1164.3 352.296 1162.57 352.296C1160.78 352.296 1159.7 353.484 1159.7 355.044L1161.15 355.104C1161.15 354.132 1161.66 353.508 1162.53 353.508C1163.36 353.508 1163.77 353.964 1163.77 354.636C1163.77 355.404 1163.19 355.692 1162.56 355.692C1162.28 355.692 1162.05 355.692 1161.9 355.668V356.796C1162.1 356.772 1162.32 356.76 1162.54 356.76C1163.32 356.76 1163.9 357.132 1163.9 357.852ZM1133.17 368.216H1134.58V374H1135.63V366.392H1134.94C1134.67 367.184 1134.22 367.544 1133.17 367.544V368.216ZM1136.96 374H1137.53C1137.53 374.528 1137.41 374.696 1136.96 374.732V375.32C1137.92 375.308 1138.16 374.816 1138.16 373.976V372.8H1136.96V374ZM1141.58 373.316C1140.56 373.316 1140.06 372.716 1139.93 371.828L1138.93 371.864C1139.06 373.28 1140.07 374.144 1141.57 374.144C1143.69 374.144 1144.69 372.44 1144.69 370.076C1144.69 367.76 1143.63 366.296 1141.62 366.296C1139.93 366.296 1138.86 367.364 1138.86 368.924C1138.86 370.412 1139.88 371.48 1141.51 371.48C1142.73 371.48 1143.5 370.808 1143.77 369.932C1143.78 371.912 1143.12 373.316 1141.58 373.316ZM1143.47 368.888C1143.47 369.956 1142.81 370.652 1141.67 370.652C1140.51 370.652 1139.85 369.956 1139.85 368.888C1139.85 367.832 1140.51 367.136 1141.63 367.136C1142.76 367.136 1143.47 367.844 1143.47 368.888ZM1148.25 367.064C1149.18 367.064 1149.82 367.532 1149.82 368.468C1149.82 369.332 1149.18 369.812 1148.25 369.812C1147.32 369.812 1146.68 369.332 1146.68 368.468C1146.68 367.532 1147.32 367.064 1148.25 367.064ZM1148.25 370.592C1149.39 370.592 1150.03 371.06 1150.03 371.948C1150.03 372.836 1149.39 373.364 1148.25 373.364C1147.1 373.364 1146.46 372.836 1146.46 371.948C1146.46 371.06 1147.1 370.592 1148.25 370.592ZM1148.25 374.144C1150.03 374.144 1151.1 373.316 1151.1 371.996C1151.1 371.012 1150.36 370.34 1149.55 370.184C1150.34 369.896 1150.83 369.284 1150.83 368.396C1150.83 367.088 1149.73 366.296 1148.25 366.296C1146.76 366.296 1145.66 367.088 1145.66 368.396C1145.66 369.284 1146.15 369.896 1146.94 370.184C1146.13 370.34 1145.38 371.012 1145.38 371.996C1145.38 373.316 1146.46 374.144 1148.25 374.144ZM1151.53 368.216H1152.95V374H1153.99V366.392H1153.31C1153.03 367.184 1152.59 367.544 1151.53 367.544V368.216ZM1157.3 371.3C1157.3 373.124 1158.66 374.144 1160.52 374.144C1162.15 374.144 1163.35 373.34 1163.35 371.948C1163.35 370.736 1162.65 370.136 1161.27 369.872L1159.91 369.608C1159.03 369.44 1158.54 369.2 1158.54 368.456C1158.54 367.616 1159.15 367.1 1160.24 367.1C1161.49 367.1 1162.25 367.808 1162.28 369.056L1163.23 369.008C1163.22 367.304 1162.13 366.296 1160.23 366.296C1158.57 366.296 1157.53 367.196 1157.53 368.516C1157.53 369.692 1158.3 370.292 1159.41 370.508L1160.91 370.796C1161.9 370.988 1162.35 371.324 1162.35 372.02C1162.35 372.848 1161.65 373.328 1160.52 373.328C1159.25 373.328 1158.3 372.62 1158.24 371.24L1157.3 371.3ZM1165.53 374V370.676H1168.77V369.812H1165.53V367.304H1169.66V366.44H1164.5V374H1165.53Z" fill="black"/>
</svg>
