<svg width="1266" height="1014" viewBox="0 0 1266 1014" fill="none" xmlns="http://www.w3.org/2000/svg">
<path d="M975 31.5H1003.5V39.5H1075.5V31.5H1104.5V39.5H1215.5V133.5H1230V162.5H1071V140.5H999V162.5H884V164H878.5V160.5H809.5V116.5H841V78H809.5V39.5H975V31.5Z" fill="#DCE9D2"/>
<path d="M143.126 364.515V245.277H244.699V388.401H184.145V366.044C184.145 365.216 183.454 364.515 182.637 364.515H143.126Z" fill="#EEEEEE"/>
<path d="M1017.15 162.174V191.917C1017.15 192.754 1017.86 193.462 1018.71 193.462H1029.57V226.811H877.216V197.067H881.9C882.745 197.067 883.461 196.359 883.461 195.522V162.174H1017.21H1017.15Z" fill="#EEEEEE"/>
<path d="M307.733 282.857H387.823V388.401H244.699V245.277H306.177V281.329C306.177 282.157 306.89 282.857 307.733 282.857Z" fill="#EEEEEE"/>
<path d="M387.822 279.991V245.277H447.842V388.401H388.835V281.329C388.835 280.692 388.392 280.246 387.822 279.991Z" fill="#EEEEEE"/>
<path d="M512.477 245.277H447.84V388.401H512.477V245.277Z" fill="#EEEEEE"/>
<path d="M571.621 259.65V388.147H513.355V247.576H571.121V258.524C571.121 258.962 571.309 259.337 571.621 259.588" fill="#EEEEEE"/>
<path d="M601.443 257.952C602.286 257.952 603 257.252 603 256.424V245.277H637.136V388.401H572.499V257.952H601.443Z" fill="#EEEEEE"/>
<path d="M669.52 388.403V247.519H691.371C692.221 247.519 692.941 246.829 692.941 246.014V236.045H766.41V388.403H669.455H669.52Z" fill="#EEEEEE"/>
<path d="M300.1 79.0693H240.081V222.194H300.1V79.0693Z" fill="#EEEEEE"/>
<path d="M143.126 204.932V79.0693H240.082V222.194H176.653V211.047C176.653 210.219 175.941 209.518 175.1 209.518H143.126V204.996V204.932Z" fill="#EEEEEE"/>
<path d="M0 138.823H9.20864C10.0458 138.823 10.7541 138.113 10.7541 137.273V79.0693H106.189V224.223H84.6808C83.8436 224.223 83.1353 224.934 83.1353 225.773V236.045H10.8185V142.376C10.8185 141.536 10.1102 140.826 9.273 140.826H0.0643607V138.759L0 138.823Z" fill="#EEEEEE"/>
<path d="M1015 605.042L1014.69 605.167L1014.5 604.54H1014.82H1014.88L1015 605.042Z" fill="#303030"/>
<path d="M884.718 379.53H880.123V351.468H1029.57V382.922L1023.7 386.712C1023.25 386.978 1023 387.51 1023 388.042V416.105H858.746V415.573H884.654C885.484 415.573 886.185 414.841 886.185 413.977V381.126C886.185 380.262 885.484 379.53 884.654 379.53" fill="#EEEEEE"/>
<path d="M1195.86 248.036H1200.4V291.448H1197.37C1197.37 290.614 1196.68 289.909 1195.86 289.909H1088.85V216.871C1088.85 216.038 1088.16 215.332 1087.34 215.332H1052.66V162.174H1200.4V203.534H1195.86C1195.04 203.534 1194.35 204.239 1194.35 205.073V246.433C1194.35 247.266 1195.04 247.972 1195.86 247.972" fill="#EEEEEE"/>
<path d="M1197.59 415.573H1228.1V416.105H1052.66V351.468H1202.19V379.53H1197.59C1196.77 379.53 1196.06 380.262 1196.06 381.126V413.977C1196.06 414.841 1196.77 415.573 1197.59 415.573Z" fill="#EEEEEE"/>
<path d="M1052.66 351.467V291.447H1194.35V324.291C1194.35 325.128 1195.04 325.836 1195.86 325.836H1200.4V351.467H1052.66Z" fill="#EEEEEE"/>
<path d="M881.9 254.178H877.216V226.811H1029.57V291.447H883.396V255.828C883.396 254.934 882.68 254.178 881.835 254.178" fill="#EEEEEE"/>
<path d="M883.396 324.291V291.447H1029.57V351.467H877.216V325.836H881.9C882.745 325.836 883.461 325.128 883.461 324.291" fill="#EEEEEE"/>
<path d="M717.948 784.667C717.821 784.294 717.504 783.982 717.187 783.796C716.807 783.609 716.427 783.609 716.046 783.733L686.253 794.131L641.753 674.399L645.873 672.905L731.387 642.333L780.26 773.709L721.561 794.692L718.011 784.605L717.948 784.667Z" fill="#EEEEEE"/>
<path d="M898.995 734.672L849.513 598.399L875.383 588.919L906.349 577.697L955.702 714.035L898.995 734.672Z" fill="#EEEEEE"/>
<path d="M895.682 733.047L838.746 753.14L789.493 620.875L820.413 609.983L846.17 600.782L895.682 733.047Z" fill="#EEEEEE"/>
<path d="M840.28 755.569L783.74 776.223L734.091 640.032L791.081 619.248L840.28 755.569Z" fill="#EEEEEE"/>
<path d="M531.558 778.373L536.208 776.84C536.595 776.712 536.918 776.393 537.112 776.073C537.305 775.69 537.305 775.307 537.112 774.86L517.094 720.312L563.457 704.024L606.333 688.502L625.253 740.304C625.253 740.304 625.188 740.559 625.253 740.751C625.317 740.943 625.446 741.07 625.576 741.198L655.602 823.404L610.724 839.564C610.337 839.691 610.014 840.011 609.82 840.33C609.626 840.713 609.626 841.097 609.82 841.48L613.436 851.253L564.749 868.562L531.494 778.309L531.558 778.373Z" fill="#EEEEEE"/>
<path d="M621.534 999.568L619.964 995.466C619.833 995.087 619.506 994.771 619.179 994.582C618.787 994.392 618.394 994.392 618.002 994.582L569.405 1011.69L553.249 969.333C552.988 968.702 552.399 968.323 551.81 968.323C551.614 968.323 551.418 968.323 551.287 968.386L547.036 969.901L530.946 927.988L556.062 918.962C556.847 918.646 557.305 917.825 556.978 917.005L540.822 874.208L561.556 867.076C561.883 867.454 562.276 867.77 562.799 867.77C562.995 867.77 563.191 867.77 563.322 867.707L613.946 850.096L617.609 859.753C617.74 860.132 618.067 860.448 618.394 860.637C618.59 860.7 618.852 860.763 619.048 860.763C619.244 860.763 619.441 860.763 619.571 860.7L639.913 853.567L679.549 958.918C679.745 959.549 680.399 959.928 681.053 959.928C681.184 959.928 681.38 959.928 681.577 959.865H681.642L687.921 976.592L621.534 999.695V999.568Z" fill="#EEEEEE"/>
<path d="M798.532 886.56L759.567 901.197C758.785 901.525 758.329 902.378 758.655 903.231L774.749 946.747L724.252 965.518L717.54 946.616C717.41 946.222 717.084 945.894 716.759 945.697C716.368 945.5 715.977 945.5 715.586 945.697L676.1 960.333L637.135 852.233L768.755 803.926L798.727 886.56H798.532Z" fill="#EEEEEE"/>
<path d="M888.905 852.099C888.514 852.227 888.188 852.546 887.993 852.865C887.797 853.248 887.797 853.632 887.993 854.015L894.769 872.411L802.636 905.498L795.99 888.571C796.38 888.443 796.706 888.124 796.902 887.805C797.097 887.421 797.097 886.974 796.967 886.591L766.408 804.704L897.897 757.756L928 838.493L888.97 852.099H888.905Z" fill="#EEEEEE"/>
<path d="M1062.51 806.482L1057.51 792.469C1057.39 792.093 1057.08 791.781 1056.76 791.593C1056.39 791.405 1056.01 791.405 1055.64 791.593L1017.75 805.544C1017.38 805.669 1017.06 805.982 1016.88 806.357C1016.69 806.732 1016.69 807.17 1016.88 807.546L1023.82 825.563L934.978 857.906L928.914 841.077C929.476 840.702 929.726 840.014 929.476 839.388L900.093 758.999L1051.7 703.697L1053.7 708.827C1054.01 709.577 1054.89 709.953 1055.64 709.703L1075.27 702.508L1107.34 790.217L1062.51 806.482Z" fill="#EEEEEE"/>
<path d="M1177.24 606.415L1172.15 607.999C1171.77 608.131 1171.38 608.395 1171.25 608.791C1171.06 609.187 1171.06 609.649 1171.19 610.045L1188.64 659.469C1188.96 660.261 1189.8 660.723 1190.57 660.459L1195.33 658.809L1195.78 660.129L1173.83 668.575C1173.44 668.048 1172.73 667.718 1172.15 667.982L1116.66 688.504L1091.55 617.435C1091.29 616.643 1090.39 616.181 1089.55 616.511L1056.59 628.653L1052.66 617.765V564.909H1117.3C1117.3 564.909 1117.69 564.909 1117.81 564.777L1157.15 549.996L1177.37 606.415H1177.24Z" fill="#EEEEEE"/>
<path d="M1202.25 478.447H1134.09C1133.26 478.447 1132.56 479.136 1132.56 479.95V488.973C1132.56 488.973 1132.56 489.349 1132.63 489.474L1155.22 549.874L1116.48 563.846H1052.66V416.104H1228.1V416.606H1197.59C1196.77 416.606 1196.06 417.295 1196.06 418.109V449.562C1196.06 450.377 1196.77 451.066 1197.59 451.066H1202.19V478.509L1202.25 478.447Z" fill="#EEEEEE"/>
<path d="M957.336 480.741H880.059V452.317H884.654C885.483 452.317 886.185 451.603 886.185 450.759V418.181C886.185 417.338 885.483 416.624 884.654 416.624H858.746V416.104H1023V443.491C1023 444.01 1023.25 444.529 1023.7 444.789L1029.57 448.488V479.119H958.932C958.102 479.119 957.4 479.833 957.4 480.676" fill="#EEEEEE"/>
<path d="M957.583 559.357V561.262C957.583 562.087 958.317 562.786 959.185 562.786H992.694V601.146C992.694 601.146 992.16 601.781 992.16 602.225V613.657L988.422 614.927C988.021 615.054 987.687 615.372 987.487 615.689C987.287 616.07 987.287 616.451 987.487 616.832L1015.72 690.884L955.981 711.588L904.917 577.33L957.583 559.229V559.357Z" fill="#EEEEEE"/>
<path d="M447.836 389.648V430.5M570.872 389.648V430.5" stroke="#303030" stroke-linecap="round" stroke-linejoin="round"/>
<path d="M125.494 167.311L142.937 159.304M125.494 200.655H107.552" stroke="#303030" stroke-linecap="round" stroke-linejoin="round"/>
<path d="M1174.74 604.977L1191.18 598.471L1214.12 661.281L1172.73 676.233M860.394 289.866H884.339M891.778 539.102L905.72 577.514M776.183 581.518L790.124 619.929" stroke="#303030" stroke-linecap="round" stroke-linejoin="round"/>
<path d="M1051.14 415.048H1021.25" stroke="#303030" stroke-linecap="round" stroke-linejoin="round"/>
<path d="M1051.13 268.032H1069.08" stroke="#303030" stroke-linecap="round" stroke-linejoin="round"/>
<path d="M1087.02 241.57H1069.08" stroke="#303030" stroke-linecap="round" stroke-linejoin="round"/>
<path d="M1087.02 271.474H1069.08V237.629H1051.13" stroke="#303030" stroke-linecap="round" stroke-linejoin="round"/>
<path d="M656.084 769.009L642.143 782.96" stroke="#303030" stroke-linecap="round" stroke-linejoin="round"/>
<path d="M648.644 800.414L665.586 793.971" stroke="#303030" stroke-linecap="round" stroke-linejoin="round"/>
<path d="M665.087 746.112L650.145 751.555L666.525 797.911L683.467 791.468" stroke="#303030" stroke-linecap="round" stroke-linejoin="round"/>
<path d="M1089.52 670.29L1105.96 664.347" stroke="#303030" stroke-linecap="round" stroke-linejoin="round"/>
<path d="M1095.96 635.945L1079.08 642.389L1090.02 672.292L1073.58 678.298" stroke="#303030" stroke-linecap="round" stroke-linejoin="round"/>
<path d="M1079.52 643.89L1063.14 649.895" stroke="#303030" stroke-linecap="round" stroke-linejoin="round"/>
<path d="M717.854 602.538L731.795 640.887" stroke="#303030" stroke-linecap="round" stroke-linejoin="round"/>
<path d="M833.949 560.624L847.891 599.035" stroke="#303030" stroke-linecap="round" stroke-linejoin="round"/>
<path d="M906.658 533.722L925.601 526.715L939.542 565.127" stroke="#303030" stroke-linecap="round" stroke-linejoin="round"/>
<path d="M848.888 555.181L893.213 538.728" stroke="#303030" stroke-linecap="round" stroke-linejoin="round"/>
<path d="M791.061 576.076L835.449 559.623" stroke="#303030" stroke-linecap="round" stroke-linejoin="round"/>
<path d="M733.295 597.034L777.62 581.081" stroke="#303030" stroke-linecap="round" stroke-linejoin="round"/>
<path d="M895.218 544.671L908.659 539.666L897.718 509.262L884.277 514.267L895.218 544.671Z" stroke="#303030" stroke-linecap="round" stroke-linejoin="round"/>
<path d="M837.45 565.628L850.891 561.124L839.888 530.72L826.447 535.224L837.45 565.628Z" stroke="#303030" stroke-linecap="round" stroke-linejoin="round"/>
<path d="M779.621 587.087L793.063 582.082L782.122 551.678L768.681 556.683L779.621 587.087Z" stroke="#303030" stroke-linecap="round" stroke-linejoin="round"/>
<path d="M721.854 607.981L735.295 603.039L724.355 572.635L710.913 577.577L721.854 607.981Z" stroke="#303030" stroke-linecap="round" stroke-linejoin="round"/>
<path d="M669.026 626.935L682.468 622.431L671.527 592.027L658.085 596.532L669.026 626.935Z" stroke="#303030" stroke-linecap="round" stroke-linejoin="round"/>
<path d="M680.53 616.49L719.854 602.039" stroke="#303030" stroke-linecap="round" stroke-linejoin="round"/>
<path d="M639.643 674.794L625.702 636.383L667.026 620.931" stroke="#303030" stroke-linecap="round" stroke-linejoin="round"/>
<path d="M518.11 718.648L511.108 721.651L497.167 683.239L593.32 647.893L607.261 686.242" stroke="#303030" stroke-linecap="round" stroke-linejoin="round"/>
<path d="M845.89 416.55H814.506V431.001H845.89V416.55Z" stroke="#303030" stroke-linecap="round" stroke-linejoin="round"/>
<path d="M845.89 399.594H814.506V413.545H845.89V399.594Z" stroke="#303030" stroke-linecap="round" stroke-linejoin="round"/>
<path d="M837.449 431V486.303H878.273V480.297M857.33 414.985H845.889M845.889 413.484V416.487" stroke="#303030" stroke-linecap="round" stroke-linejoin="round"/>
<path d="M845.89 335.285H814.506V349.736H845.89V335.285Z" stroke="#303030" stroke-linecap="round" stroke-linejoin="round"/>
<path d="M845.89 273.976H814.506V287.926H845.89V273.976Z" stroke="#303030" stroke-linecap="round" stroke-linejoin="round"/>
<path d="M878.273 228.12H837.449M884.275 289.929H837.449M878.273 351.237H837.449M837.449 349.736V399.595M837.449 287.927V335.284M837.449 160.806V273.976" stroke="#303030" stroke-linecap="round" stroke-linejoin="round"/>
<path d="M1226 418.551V477.357H1200.62M1200.62 291.431H1226M1200.62 351.237H1226M1226 162.308V411.545" stroke="#303030" stroke-linecap="round" stroke-linejoin="round"/>
<path d="M721.355 424.557H707.414V456.462H721.355V424.557Z" stroke="#303030" stroke-linecap="round" stroke-linejoin="round"/>
<path d="M586.814 424.557H572.872V456.462H586.814V424.557Z" stroke="#303030" stroke-linecap="round" stroke-linejoin="round"/>
<path d="M525.549 424.557H511.107V456.462H525.549V424.557Z" stroke="#303030" stroke-linecap="round" stroke-linejoin="round"/>
<path d="M465.78 424.557H451.839V456.462H465.78V424.557Z" stroke="#303030" stroke-linecap="round" stroke-linejoin="round"/>
<path d="M403.012 424.557H388.57V456.462H403.012V424.557Z" stroke="#303030" stroke-linecap="round" stroke-linejoin="round"/>
<path d="M319.3 424.557H304.858V456.462H319.3V424.557Z" stroke="#303030" stroke-linecap="round" stroke-linejoin="round"/>
<path d="M243.589 424.557H229.147V456.462H243.589V424.557Z" stroke="#303030" stroke-linecap="round" stroke-linejoin="round"/>
<path d="M125.492 183.766H107.55M239.588 79.542V46.6357M294.916 79.542V46.6357H187.323V58.5846H144.498V79.542M11.9595 79.542H3.45703V46.6357H105.612V79.542M637.202 389.649V430.5M657.646 389.649V430.5M245.652 389.649V430.5M386.63 389.649V430.5M509.665 389.649V430.5M229.147 430.5H205.265L177.882 414.047V389.649H182.384M304.919 430.5H243.651M388.631 430.5H319.423M451.961 430.5H403.135M511.228 430.5H465.903M572.996 430.5H525.67M637.265 430.5H586.938M707.473 430.5H657.646M766.74 389.649H772.741V430.5H721.414" stroke="#303030" stroke-linecap="round" stroke-linejoin="round"/>
<path d="M125.494 155.863H142.937M125.494 132.904H142.937M125.494 121.455H142.937M125.494 97.5576H107.552" stroke="#303030" stroke-linecap="round" stroke-linejoin="round"/>
<path d="M653.581 323.336H671.024M653.581 312.388L671.024 304.443" stroke="#303030" stroke-linecap="round" stroke-linejoin="round"/>
<path d="M724.853 962.942L726.354 967.447L688.468 980.897L686.967 976.893" stroke="#303030" stroke-linecap="round" stroke-linejoin="round"/>
<g style="mix-blend-mode:darken">
<path d="M790.124 619.992L821.508 608.481L847.89 599.034L896.717 733.6L838.95 755.058L790.124 619.992Z" stroke="#EEEEEE" stroke-linecap="round" stroke-linejoin="round"/>
</g>
<g style="mix-blend-mode:darken">
<path d="M905.656 577.577L874.272 589.026L847.89 599.035L896.716 733.6L954.483 712.705L905.656 577.577Z" stroke="#EEEEEE" stroke-linecap="round" stroke-linejoin="round"/>
</g>
<path d="M175.319 223.117V210.667H142.935" stroke="#303030" stroke-linecap="round" stroke-linejoin="round"/>
<path d="M142.935 79.5415V223.115" stroke="#303030" stroke-linecap="round" stroke-linejoin="round"/>
<path d="M107.552 223.115V79.5415" stroke="#303030" stroke-linecap="round" stroke-linejoin="round"/>
<path d="M239.587 223.115V79.5415" stroke="#303030" stroke-linecap="round" stroke-linejoin="round"/>
<path d="M766.677 234.627H693.469" stroke="#303030" stroke-linecap="round" stroke-linejoin="round"/>
<path d="M671.027 389.65V246.076" stroke="#303030" stroke-linecap="round" stroke-linejoin="round"/>
<path d="M636.14 246.076V389.65" stroke="#303030" stroke-linecap="round" stroke-linejoin="round"/>
<path d="M570.373 247.077V258.525H600.257V246.076" stroke="#303030" stroke-linecap="round" stroke-linejoin="round"/>
<path d="M570.874 389.649V258.524" stroke="#303030" stroke-linecap="round" stroke-linejoin="round"/>
<path d="M509.604 389.65V246.076" stroke="#303030" stroke-linecap="round" stroke-linejoin="round"/>
<path d="M447.836 389.65V246.076" stroke="#303030" stroke-linecap="round" stroke-linejoin="round"/>
<path d="M386.572 389.648V282.984H385.57" stroke="#303030" stroke-linecap="round" stroke-linejoin="round"/>
<path d="M307.858 246.076V282.986H385.568V246.076" stroke="#303030" stroke-linecap="round" stroke-linejoin="round"/>
<path d="M245.59 246.076V389.65" stroke="#303030" stroke-linecap="round" stroke-linejoin="round"/>
<path d="M141.437 246.076V366.19" stroke="#303030" stroke-linecap="round" stroke-linejoin="round"/>
<path d="M85.1698 234.627H11.8987" stroke="#303030" stroke-linecap="round" stroke-linejoin="round"/>
<path d="M384.569 79.5415V223.115H693.471V246.075H85.1704V223.115H301.358V79.5415" stroke="#303030" stroke-linecap="round" stroke-linejoin="round"/>
<path d="M1.45679 142.414V137.409H11.8973V79.542H62.7245H148.437H191.262H267.471H334.24H381.066V31.6841H409.95V39.6917H761.676V78.1032H769.679V157.366H766.678V270.974V331.844V389.649H715.85H626.7H537.487H481.72H414.951H341.242H291.415H217.144H182.321V366.189H142.935H90.1074V332.845H84.1682V314.39H48.7829V263.529H11.8973V142.414H1.45679Z" stroke="#303030" stroke-linecap="round" stroke-linejoin="round"/>
<path d="M142.937 204.723H125.494V151.86" stroke="#303030" stroke-linecap="round" stroke-linejoin="round"/>
<path d="M385.57 246.076L346.684 282.986L307.797 246.076M346.684 246.076L307.797 282.986M346.684 282.986V246.076L385.57 282.986" stroke="#303030" stroke-linecap="round" stroke-linejoin="round"/>
<path d="M956.984 559.122V480.36H878.273V449.956H884.275V418.551H857.33V411.607H884.275V380.64H878.273V323.336H884.275V256.022H878.273V196.215H884.275V163.81H878.273V160.807H809.066V116.452H796.062V78.1032H809.566V39.6917H974.926V31.6841H1003.81V39.6917H1075.58V31.6841H1104.46V39.6917H1215.56V133.406H1230V162.308H1200.62V205.724H1194.61V246.075H1200.62V291.431H1194.61V323.336H1200.62V380.64H1194.61V411.607H1226V418.551H1194.61V449.956H1200.62V480.36H1132.35V489.369L1175.67 607.481L1169.23 609.483L1186.17 656.34L1192.11 654.338L1193.61 658.342L1169.73 667.288L1200.62 752.056L1154.29 769.009L1156.29 774.014L1061.64 808.422L1056.14 792.907L1018.25 806.92L1025.75 826.314L934.102 859.72L927.1 840.327L889.277 853.777L896.216 873.171L805.065 906.577L797.563 887.184L760.239 901.135L776.181 943.988L724.854 962.943L717.852 943.487L680.029 957.438L686.968 976.894L620.699 1000.79L618.761 995.349L570.935 1012.8L554.993 969.387L549.491 971.389L533.049 927.034L558.431 917.588L542.489 873.734L564.933 865.726L532.048 775.515L538.05 773.513L518.107 718.649L564.433 702.196L646.144 672.292L686.968 657.341L758.239 631.441L821.507 608.482L874.272 589.026L956.984 559.122Z" stroke="#303030" stroke-linecap="round" stroke-linejoin="round"/>
<path d="M1027.75 568.63H1014.81V603.038H1012.31M1016.81 606.041L1016.31 604.039L1027.75 600.035V501.817H980.929V508.323H956.984M990.869 615.487V603.038H1012.31L1013.81 607.042M1043.7 680.299L1016.81 606.041L986.43 616.989L1013.31 691.247" stroke="#303030" stroke-linecap="round" stroke-linejoin="round"/>
<path d="M884.274 163.81V162.308H1015.81M878.334 228.121H1027.82M884.336 289.929H1027.82M878.334 351.237H1027.82M957.107 552.616H958.608V562.563H991.492V602.914M905.78 577.515L954.607 712.643M848.013 598.973L896.84 733.538M790.247 619.868L839.073 754.933M731.98 640.762L781.307 775.891M607.444 686.181L656.27 821.246M565.119 865.601L565.619 866.602L615.446 848.647M680.215 957.313L678.714 957.814L640.328 852.151M927.286 840.202L928.286 839.701L898.403 757.936M1109.65 791.343L1076.27 700.131M1169.92 667.225L1169.42 666.224L1114.09 686.181M1051.32 565.566H1115.59L1154.91 551.115M857.516 414.986H1021.44M1051.32 414.986H1226.18M1200.8 351.175H1051.32M1194.8 291.368V289.867H1087.21M1051.32 162.246H1200.8M720.539 797.849L716.538 786.401L685.654 797.349M640.828 674.232L690.155 809.36M1055.82 629.377L1089.21 617.428L1114.15 686.243L1080.77 698.192M1051.38 217.11H1087.27V289.929H1051.38M1028 161.808H1016.06V192.712H1028" stroke="#303030" stroke-linecap="round" stroke-linejoin="round"/>
<path d="M1043.69 680.3L999.869 654.4L1016.81 606.042M1030.25 642.952L986.428 616.989M999.869 654.4L1030.25 642.952L1013.31 691.31" stroke="#303030" stroke-linecap="round" stroke-linejoin="round"/>
<path d="M1043.7 680.3L611.26 837.824L619.262 859.783L1052.7 701.758L1055.2 708.264L1081.08 698.817L1051.2 617.553V161.808H1027.76V383.143L1021.25 387.147V443.012L1025.25 445.514L1027.76 447.016V478.921H956.985V480.423M626.202 739.168L643.144 733.163L623.701 680.3" stroke="#303030" stroke-linecap="round" stroke-linejoin="round"/>
<path d="M809.503 78.0391H840.887V116.451H809.002" stroke="#303030" stroke-linecap="round" stroke-linejoin="round"/>
<path d="M107.552 135.908H125.494V79.5415" stroke="#303030" stroke-linecap="round" stroke-linejoin="round"/>
<path d="M653.581 353.239V267.533H671.024" stroke="#303030" stroke-linecap="round" stroke-linejoin="round"/>
<path d="M1132.35 742.607L1109.47 791.466M1169.23 666.348L1145.79 714.706M1152.79 732.16L1200.62 752.117M1076.08 700.255L1123.91 720.211" stroke="#303030" stroke-linecap="round" stroke-linejoin="round"/>
<path d="M1071.08 162.308V140.412H999.372V162.308" stroke="#303030" stroke-linecap="round" stroke-linejoin="round"/>
<path d="M797.561 887.183L799.061 886.683L769.178 804.917" stroke="#303030" stroke-linecap="round" stroke-linejoin="round"/>
<path d="M840.888 116.451L796.063 78.0391M840.888 78.0391L796.063 116.451" stroke="#303030" stroke-linecap="round" stroke-linejoin="round"/>
<path d="M151.4 491.44H150.428L148.784 497.704H148.736L147.152 491.44H146.144L148.076 499H149.276L150.884 492.964H150.932L152.504 499H153.716L155.648 491.44H154.676L153.128 497.728H153.08L151.4 491.44ZM160.195 497.14C159.979 497.944 159.463 498.364 158.587 498.364C157.651 498.364 156.919 497.644 156.871 496.624H161.047V496.228C161.047 494.8 160.195 493.612 158.527 493.612C157.015 493.612 155.875 494.8 155.875 496.456C155.875 498.088 157.015 499.144 158.575 499.144C159.883 499.144 160.759 498.424 161.023 497.236L160.195 497.14ZM156.895 495.976C157.015 495.112 157.579 494.368 158.527 494.368C159.523 494.368 159.991 495.136 160.027 495.976H156.895ZM161.745 497.236C161.841 498.532 162.837 499.144 164.145 499.144C165.369 499.144 166.293 498.58 166.293 497.536C166.293 496.588 165.669 496.192 164.613 496.012L163.629 495.856C163.089 495.76 162.825 495.544 162.825 495.124C162.825 494.644 163.257 494.344 163.917 494.344C164.805 494.344 165.297 494.716 165.417 495.52L166.221 495.472C166.125 494.26 165.309 493.612 163.917 493.612C162.705 493.612 161.901 494.26 161.901 495.22C161.901 496.12 162.489 496.54 163.473 496.696L164.361 496.852C165.009 496.972 165.357 497.14 165.357 497.632C165.357 498.16 164.841 498.412 164.145 498.412C163.245 498.412 162.681 497.98 162.585 497.176L161.745 497.236ZM167.501 497.776C167.501 498.796 168.029 499.144 168.773 499.144C169.349 499.144 169.733 498.988 170.117 498.7V498.028C169.817 498.196 169.469 498.34 169.133 498.34C168.677 498.34 168.485 498.124 168.485 497.656V494.476H169.961V493.756H168.485V492.304H167.921L167.765 493.036C167.645 493.54 167.537 493.78 167.045 493.876L166.709 493.936V494.476H167.501V497.776ZM179.133 496.924C179.133 495.844 178.413 495.232 177.489 495.076C178.293 494.932 178.917 494.332 178.917 493.456C178.917 492.256 178.149 491.44 176.277 491.44H173.193V499H176.409C178.173 499 179.133 498.232 179.133 496.924ZM176.385 495.508C177.513 495.508 178.101 496.012 178.101 496.84C178.101 497.656 177.513 498.148 176.385 498.148H174.201V495.508H176.385ZM174.201 492.292H176.313C177.405 492.292 177.873 492.784 177.873 493.504C177.873 494.236 177.405 494.704 176.313 494.704H174.201V492.292ZM183.763 496.768C183.763 497.74 183.163 498.364 182.383 498.364C181.555 498.364 181.171 497.8 181.171 496.924V493.756H180.175V497.02C180.175 498.244 180.679 499.144 182.047 499.144C182.839 499.144 183.511 498.7 183.763 498.076V499H184.759V493.756H183.763V496.768ZM186.129 493.756V499H187.125V493.756H186.129ZM186.105 492.568H187.137V491.44H186.105V492.568ZM188.485 491.44V499H189.481V491.44H188.485ZM194.8 496.528C194.8 497.68 194.08 498.352 193.132 498.352C192.1 498.352 191.524 497.584 191.524 496.384C191.524 495.184 192.1 494.416 193.132 494.416C194.08 494.416 194.8 495.088 194.8 496.228V496.528ZM194.788 499H195.784V491.44H194.788V494.86C194.548 494.212 193.888 493.612 192.904 493.612C191.344 493.612 190.504 494.836 190.504 496.384C190.504 497.932 191.344 499.144 192.904 499.144C193.888 499.144 194.548 498.556 194.788 497.908V499ZM197.145 493.756V499H198.141V493.756H197.145ZM197.121 492.568H198.153V491.44H197.121V492.568ZM200.496 495.988C200.496 495.028 201.12 494.404 201.912 494.404C202.74 494.404 203.16 494.956 203.16 495.832V499H204.156V495.748C204.156 494.524 203.604 493.612 202.236 493.612C201.456 493.612 200.748 494.056 200.496 494.692V493.756H199.5V499H200.496V495.988ZM209.774 495.4C209.774 495.064 209.678 494.764 209.522 494.512C209.786 494.38 210.182 494.296 210.53 494.296V493.432C209.966 493.432 209.474 493.732 209.198 494.152C208.802 493.816 208.214 493.612 207.554 493.612C206.27 493.612 205.358 494.296 205.358 495.4C205.358 495.976 205.61 496.444 206.042 496.756C205.574 496.96 205.25 497.284 205.25 497.74C205.25 498.136 205.466 498.484 205.946 498.64C205.298 498.76 204.866 499.144 204.866 499.744C204.866 500.716 206.042 501.16 207.458 501.16C209.018 501.16 210.482 500.656 210.482 499.348C210.482 498.532 209.882 497.932 208.742 497.932H206.69C206.234 497.932 206.054 497.764 206.054 497.476C206.054 497.236 206.222 497.068 206.402 496.96C206.726 497.104 207.122 497.176 207.554 497.176C208.85 497.176 209.774 496.492 209.774 495.4ZM205.814 499.552C205.814 498.988 206.282 498.808 206.822 498.808H208.514C209.126 498.808 209.522 498.976 209.522 499.456C209.522 500.212 208.658 500.5 207.458 500.5C206.486 500.5 205.814 500.212 205.814 499.552ZM208.766 495.412C208.766 496.132 208.31 496.54 207.566 496.54C206.834 496.54 206.378 496.132 206.378 495.412C206.378 494.668 206.834 494.26 207.566 494.26C208.31 494.26 208.766 494.668 208.766 495.412Z" fill="black"/>
<path d="M923.12 905.136H918.74V902.532H922.136V901.68H918.74V899.304H923.012V898.44H917.732V906H923.12V905.136ZM927.475 903.66C927.475 904.716 926.767 905.412 925.843 905.412C925.243 905.412 924.943 905.076 924.943 904.632C924.943 903.996 925.471 903.84 926.299 903.66L927.475 903.408V903.66ZM928.435 902.616C928.435 901.284 927.655 900.612 926.335 900.612C925.099 900.612 924.319 901.332 924.115 902.316L925.003 902.436C925.159 901.824 925.567 901.38 926.323 901.38C927.055 901.38 927.475 901.824 927.475 902.544V902.748L926.059 903.036C924.799 903.288 923.947 903.696 923.947 904.692C923.947 905.592 924.607 906.144 925.627 906.144C926.479 906.144 927.223 905.688 927.511 905.076C927.571 905.7 927.955 906.108 928.495 906.108C928.903 906.108 929.119 905.976 929.299 905.796V905.256C929.155 905.34 928.963 905.376 928.843 905.376C928.591 905.376 928.435 905.244 928.435 904.968V902.616ZM929.698 904.236C929.794 905.532 930.79 906.144 932.098 906.144C933.322 906.144 934.246 905.58 934.246 904.536C934.246 903.588 933.622 903.192 932.566 903.012L931.582 902.856C931.042 902.76 930.778 902.544 930.778 902.124C930.778 901.644 931.21 901.344 931.87 901.344C932.758 901.344 933.25 901.716 933.37 902.52L934.174 902.472C934.078 901.26 933.262 900.612 931.87 900.612C930.658 900.612 929.854 901.26 929.854 902.22C929.854 903.12 930.442 903.54 931.426 903.696L932.314 903.852C932.962 903.972 933.31 904.14 933.31 904.632C933.31 905.16 932.794 905.412 932.098 905.412C931.198 905.412 930.634 904.98 930.538 904.176L929.698 904.236ZM935.454 904.776C935.454 905.796 935.982 906.144 936.726 906.144C937.302 906.144 937.686 905.988 938.07 905.7V905.028C937.77 905.196 937.422 905.34 937.086 905.34C936.63 905.34 936.438 905.124 936.438 904.656V901.476H937.914V900.756H936.438V899.304H935.874L935.718 900.036C935.598 900.54 935.49 900.78 934.998 900.876L934.662 900.936V901.476H935.454V904.776ZM947.086 903.924C947.086 902.844 946.366 902.232 945.442 902.076C946.246 901.932 946.87 901.332 946.87 900.456C946.87 899.256 946.102 898.44 944.23 898.44H941.146V906H944.362C946.126 906 947.086 905.232 947.086 903.924ZM944.338 902.508C945.466 902.508 946.054 903.012 946.054 903.84C946.054 904.656 945.466 905.148 944.338 905.148H942.154V902.508H944.338ZM942.154 899.292H944.266C945.358 899.292 945.826 899.784 945.826 900.504C945.826 901.236 945.358 901.704 944.266 901.704H942.154V899.292ZM951.716 903.768C951.716 904.74 951.116 905.364 950.336 905.364C949.508 905.364 949.124 904.8 949.124 903.924V900.756H948.128V904.02C948.128 905.244 948.632 906.144 950 906.144C950.792 906.144 951.464 905.7 951.716 905.076V906H952.712V900.756H951.716V903.768ZM954.082 900.756V906H955.078V900.756H954.082ZM954.058 899.568H955.09V898.44H954.058V899.568ZM956.438 898.44V906H957.434V898.44H956.438ZM962.753 903.528C962.753 904.68 962.033 905.352 961.085 905.352C960.053 905.352 959.477 904.584 959.477 903.384C959.477 902.184 960.053 901.416 961.085 901.416C962.033 901.416 962.753 902.088 962.753 903.228V903.528ZM962.741 906H963.737V898.44H962.741V901.86C962.501 901.212 961.841 900.612 960.857 900.612C959.297 900.612 958.457 901.836 958.457 903.384C958.457 904.932 959.297 906.144 960.857 906.144C961.841 906.144 962.501 905.556 962.741 904.908V906ZM965.098 900.756V906H966.094V900.756H965.098ZM965.074 899.568H966.106V898.44H965.074V899.568ZM968.45 902.988C968.45 902.028 969.074 901.404 969.866 901.404C970.694 901.404 971.114 901.956 971.114 902.832V906H972.11V902.748C972.11 901.524 971.558 900.612 970.19 900.612C969.41 900.612 968.702 901.056 968.45 901.692V900.756H967.454V906H968.45V902.988ZM977.727 902.4C977.727 902.064 977.631 901.764 977.475 901.512C977.739 901.38 978.135 901.296 978.483 901.296V900.432C977.919 900.432 977.427 900.732 977.151 901.152C976.755 900.816 976.167 900.612 975.507 900.612C974.223 900.612 973.311 901.296 973.311 902.4C973.311 902.976 973.563 903.444 973.995 903.756C973.527 903.96 973.203 904.284 973.203 904.74C973.203 905.136 973.419 905.484 973.899 905.64C973.251 905.76 972.819 906.144 972.819 906.744C972.819 907.716 973.995 908.16 975.411 908.16C976.971 908.16 978.435 907.656 978.435 906.348C978.435 905.532 977.835 904.932 976.695 904.932H974.643C974.187 904.932 974.007 904.764 974.007 904.476C974.007 904.236 974.175 904.068 974.355 903.96C974.679 904.104 975.075 904.176 975.507 904.176C976.803 904.176 977.727 903.492 977.727 902.4ZM973.767 906.552C973.767 905.988 974.235 905.808 974.775 905.808H976.467C977.079 905.808 977.475 905.976 977.475 906.456C977.475 907.212 976.611 907.5 975.411 907.5C974.439 907.5 973.767 907.212 973.767 906.552ZM976.719 902.412C976.719 903.132 976.263 903.54 975.519 903.54C974.787 903.54 974.331 903.132 974.331 902.412C974.331 901.668 974.787 901.26 975.519 901.26C976.263 901.26 976.719 901.668 976.719 902.412Z" fill="black"/>
<path d="M613.563 6.312C613.563 8.136 614.967 9.144 616.911 9.144C618.615 9.144 619.899 8.34 619.899 6.852C619.899 5.628 619.203 4.92 617.715 4.644L616.323 4.392C615.639 4.26 615.243 4.068 615.243 3.516C615.243 2.868 615.747 2.472 616.635 2.472C617.667 2.472 618.339 3.012 618.387 4.044L619.767 3.996C619.743 2.316 618.627 1.296 616.647 1.296C614.883 1.296 613.767 2.208 613.767 3.624C613.767 4.872 614.583 5.52 615.759 5.736L617.199 6C617.991 6.156 618.447 6.372 618.447 6.948C618.447 7.584 617.847 7.956 616.911 7.956C615.855 7.956 615.003 7.428 614.943 6.252L613.563 6.312ZM621.087 7.656C621.087 8.784 621.771 9.144 622.587 9.144C623.235 9.144 623.667 8.976 624.051 8.688V7.74C623.739 7.884 623.439 7.992 623.151 7.992C622.719 7.992 622.515 7.788 622.515 7.332V4.716H623.955V3.708H622.515V2.244H621.639L621.471 2.964C621.351 3.456 621.207 3.72 620.691 3.804L620.331 3.864V4.716H621.087V7.656ZM624.851 9H626.459V7.392H624.851V9ZM631.272 1.44V6.252C631.272 7.356 630.84 7.884 629.928 7.884C629.004 7.884 628.536 7.248 628.464 6.156L627.024 6.216C627.072 8.124 628.176 9.144 629.928 9.144C631.62 9.144 632.772 8.256 632.772 6.348V1.44H631.272ZM635.078 6.36C635.078 5.352 635.534 4.656 636.41 4.656C637.298 4.656 637.754 5.352 637.754 6.36C637.754 7.356 637.298 8.052 636.41 8.052C635.534 8.052 635.078 7.356 635.078 6.36ZM639.206 6.36C639.206 4.716 638.054 3.564 636.41 3.564C634.778 3.564 633.626 4.716 633.626 6.36C633.626 8.004 634.778 9.144 636.41 9.144C638.054 9.144 639.206 8.004 639.206 6.36ZM641.554 6.168C641.554 5.28 642.01 4.704 642.742 4.704C643.45 4.704 643.774 5.172 643.774 5.988V9H645.214V5.7C645.214 4.524 644.698 3.564 643.282 3.564C642.49 3.564 641.818 3.972 641.554 4.572V1.44H640.114V9H641.554V6.168ZM647.812 6.168C647.812 5.28 648.268 4.704 649 4.704C649.708 4.704 650.032 5.172 650.032 5.988V9H651.472V5.7C651.472 4.524 650.956 3.564 649.54 3.564C648.748 3.564 648.076 3.972 647.812 4.572V3.708H646.372V9H647.812V6.168ZM652.246 7.248C652.342 8.544 653.398 9.144 654.778 9.144C656.146 9.144 657.082 8.544 657.082 7.464C657.082 6.468 656.422 6 655.306 5.82L654.298 5.652C653.914 5.592 653.722 5.424 653.722 5.136C653.722 4.776 654.058 4.548 654.574 4.548C655.33 4.548 655.738 4.848 655.834 5.448L657.022 5.4C656.926 4.224 656.05 3.564 654.586 3.564C653.242 3.564 652.39 4.26 652.39 5.268C652.39 6.252 653.014 6.672 654.142 6.852L654.982 6.996C655.51 7.08 655.75 7.236 655.75 7.596C655.75 7.98 655.318 8.16 654.79 8.16C654.058 8.16 653.578 7.836 653.494 7.2L652.246 7.248ZM659.781 6.312C659.781 8.136 661.185 9.144 663.129 9.144C664.833 9.144 666.117 8.34 666.117 6.852C666.117 5.628 665.421 4.92 663.933 4.644L662.541 4.392C661.857 4.26 661.461 4.068 661.461 3.516C661.461 2.868 661.965 2.472 662.853 2.472C663.885 2.472 664.557 3.012 664.605 4.044L665.985 3.996C665.961 2.316 664.845 1.296 662.865 1.296C661.101 1.296 659.985 2.208 659.985 3.624C659.985 4.872 660.801 5.52 661.977 5.736L663.417 6C664.209 6.156 664.665 6.372 664.665 6.948C664.665 7.584 664.065 7.956 663.129 7.956C662.073 7.956 661.221 7.428 661.161 6.252L659.781 6.312ZM667.306 7.656C667.306 8.784 667.99 9.144 668.806 9.144C669.454 9.144 669.886 8.976 670.27 8.688V7.74C669.958 7.884 669.658 7.992 669.37 7.992C668.938 7.992 668.734 7.788 668.734 7.332V4.716H670.174V3.708H668.734V2.244H667.858L667.69 2.964C667.57 3.456 667.426 3.72 666.91 3.804L666.55 3.864V4.716H667.306V7.656ZM674.747 3.78C674.591 3.648 674.327 3.564 674.003 3.564C673.271 3.564 672.719 4.116 672.527 4.716V3.708H671.087V9H672.527V6.384C672.527 5.424 673.031 4.896 673.775 4.896C674.123 4.896 674.363 4.968 674.639 5.124L674.747 3.78ZM679.17 7.152C678.966 7.752 678.546 8.052 677.838 8.052C677.058 8.052 676.446 7.5 676.398 6.72H680.37V6.204C680.37 4.764 679.482 3.564 677.754 3.564C676.17 3.564 674.982 4.764 674.982 6.432C674.982 8.1 676.158 9.144 677.79 9.144C679.146 9.144 680.058 8.448 680.334 7.272L679.17 7.152ZM676.422 5.82C676.554 5.16 676.95 4.62 677.742 4.62C678.546 4.62 678.918 5.208 678.966 5.82H676.422ZM685.217 7.152C685.013 7.752 684.593 8.052 683.885 8.052C683.105 8.052 682.493 7.5 682.445 6.72H686.417V6.204C686.417 4.764 685.529 3.564 683.801 3.564C682.217 3.564 681.029 4.764 681.029 6.432C681.029 8.1 682.205 9.144 683.837 9.144C685.193 9.144 686.105 8.448 686.381 7.272L685.217 7.152ZM682.469 5.82C682.601 5.16 682.997 4.62 683.789 4.62C684.593 4.62 684.965 5.208 685.013 5.82H682.469ZM687.521 7.656C687.521 8.784 688.205 9.144 689.021 9.144C689.669 9.144 690.101 8.976 690.485 8.688V7.74C690.173 7.884 689.873 7.992 689.585 7.992C689.153 7.992 688.949 7.788 688.949 7.332V4.716H690.389V3.708H688.949V2.244H688.073L687.905 2.964C687.785 3.456 687.641 3.72 687.125 3.804L686.765 3.864V4.716H687.521V7.656Z" fill="#303030"/>
<path d="M1255.44 476.87L1263 479.93L1263 478.418L1261.13 477.686L1261.13 474.47L1263 473.714L1263 472.118L1255.44 475.202L1255.44 476.87ZM1257.14 476.114L1257.14 476.066L1259.98 474.926L1259.98 477.23L1257.14 476.114ZM1255.44 471.433L1263 471.433L1263 469.993L1255.44 469.993L1255.44 471.433ZM1260.25 467.356C1259.29 467.356 1258.69 466.78 1258.69 465.964C1258.69 465.052 1259.35 464.584 1260.36 464.584C1261.36 464.584 1262.02 465.052 1262.02 465.964C1262.02 466.78 1261.43 467.356 1260.46 467.356L1260.25 467.356ZM1261.98 467.416C1262.64 467.14 1263.14 466.468 1263.14 465.544C1263.14 463.96 1261.92 463.132 1260.36 463.132C1258.8 463.132 1257.56 463.96 1257.56 465.52C1257.56 466.468 1258.08 467.104 1258.73 467.344L1255.44 467.344L1255.44 468.784L1263 468.784L1263 467.68L1261.98 467.416ZM1261.15 458.311C1261.75 458.515 1262.05 458.935 1262.05 459.643C1262.05 460.423 1261.5 461.035 1260.72 461.083L1260.72 457.111L1260.2 457.111C1258.76 457.111 1257.56 457.999 1257.56 459.727C1257.56 461.311 1258.76 462.499 1260.43 462.499C1262.1 462.499 1263.14 461.323 1263.14 459.691C1263.14 458.335 1262.45 457.423 1261.27 457.147L1261.15 458.311ZM1259.82 461.059C1259.16 460.927 1258.62 460.531 1258.62 459.739C1258.62 458.935 1259.21 458.563 1259.82 458.515L1259.82 461.059ZM1257.78 452.527C1257.65 452.683 1257.56 452.947 1257.56 453.271C1257.56 454.003 1258.12 454.555 1258.72 454.747L1257.71 454.747L1257.71 456.187L1263 456.187L1263 454.747L1260.38 454.747C1259.42 454.747 1258.9 454.243 1258.9 453.499C1258.9 453.151 1258.97 452.911 1259.12 452.635L1257.78 452.527ZM1261.66 451.483C1262.78 451.483 1263.14 450.799 1263.14 449.983C1263.14 449.335 1262.98 448.903 1262.69 448.519L1261.74 448.519C1261.88 448.831 1261.99 449.131 1261.99 449.419C1261.99 449.851 1261.79 450.055 1261.33 450.055L1258.72 450.055L1258.72 448.615L1257.71 448.615L1257.71 450.055L1256.24 450.055L1256.24 450.931L1256.96 451.099C1257.46 451.219 1257.72 451.363 1257.8 451.879L1257.86 452.239L1258.72 452.239L1258.72 451.483L1261.66 451.483ZM1260.31 445.906C1262.14 445.906 1263.14 444.502 1263.14 442.558C1263.14 440.854 1262.34 439.57 1260.85 439.57C1259.63 439.57 1258.92 440.266 1258.64 441.754L1258.39 443.146C1258.26 443.83 1258.07 444.226 1257.52 444.226C1256.87 444.226 1256.47 443.722 1256.47 442.834C1256.47 441.802 1257.01 441.13 1258.04 441.082L1258 439.702C1256.32 439.726 1255.3 440.842 1255.3 442.822C1255.3 444.586 1256.21 445.702 1257.62 445.702C1258.87 445.702 1259.52 444.886 1259.74 443.71L1260 442.27C1260.16 441.478 1260.37 441.022 1260.95 441.022C1261.58 441.022 1261.96 441.622 1261.96 442.558C1261.96 443.614 1261.43 444.466 1260.25 444.526L1260.31 445.906ZM1261.66 438.382C1262.78 438.382 1263.14 437.698 1263.14 436.882C1263.14 436.234 1262.98 435.802 1262.69 435.418L1261.74 435.418C1261.88 435.73 1261.99 436.03 1261.99 436.318C1261.99 436.75 1261.79 436.954 1261.33 436.954L1258.72 436.954L1258.72 435.514L1257.71 435.514L1257.71 436.954L1256.24 436.954L1256.24 437.83L1256.96 437.998C1257.46 438.118 1257.72 438.262 1257.8 438.778L1257.86 439.138L1258.72 439.138L1258.72 438.382L1261.66 438.382ZM1257.78 430.941C1257.65 431.097 1257.56 431.361 1257.56 431.685C1257.56 432.417 1258.12 432.969 1258.72 433.161L1257.71 433.161L1257.71 434.601L1263 434.601L1263 433.161L1260.38 433.161C1259.42 433.161 1258.9 432.657 1258.9 431.913C1258.9 431.565 1258.97 431.325 1259.12 431.049L1257.78 430.941ZM1261.15 426.518C1261.75 426.722 1262.05 427.142 1262.05 427.85C1262.05 428.63 1261.5 429.242 1260.72 429.29L1260.72 425.318L1260.2 425.318C1258.76 425.318 1257.56 426.206 1257.56 427.934C1257.56 429.518 1258.76 430.706 1260.43 430.706C1262.1 430.706 1263.14 429.53 1263.14 427.898C1263.14 426.542 1262.45 425.63 1261.27 425.354L1261.15 426.518ZM1259.82 429.266C1259.16 429.134 1258.62 428.738 1258.62 427.946C1258.62 427.142 1259.21 426.77 1259.82 426.722L1259.82 429.266ZM1261.15 420.471C1261.75 420.675 1262.05 421.095 1262.05 421.803C1262.05 422.583 1261.5 423.195 1260.72 423.243L1260.72 419.271L1260.2 419.271C1258.76 419.271 1257.56 420.159 1257.56 421.887C1257.56 423.471 1258.76 424.659 1260.43 424.659C1262.1 424.659 1263.14 423.483 1263.14 421.851C1263.14 420.495 1262.45 419.583 1261.27 419.307L1261.15 420.471ZM1259.82 423.219C1259.16 423.087 1258.62 422.691 1258.62 421.899C1258.62 421.095 1259.21 420.723 1259.82 420.675L1259.82 423.219ZM1261.66 418.167C1262.78 418.167 1263.14 417.483 1263.14 416.667C1263.14 416.019 1262.98 415.587 1262.69 415.203L1261.74 415.203C1261.88 415.515 1261.99 415.815 1261.99 416.103C1261.99 416.535 1261.79 416.739 1261.33 416.739L1258.72 416.739L1258.72 415.299L1257.71 415.299L1257.71 416.739L1256.24 416.739L1256.24 417.615L1256.96 417.783C1257.46 417.903 1257.72 418.047 1257.8 418.563L1257.86 418.923L1258.72 418.923L1258.72 418.167L1261.66 418.167Z" fill="#303030"/>
<path d="M1007.19 85.22C1007.19 87.548 1008.83 89.144 1010.98 89.144C1013.21 89.144 1014.45 87.752 1014.58 85.832L1013.14 85.772C1013.03 86.9 1012.36 87.824 1010.98 87.824C1009.63 87.824 1008.75 86.816 1008.75 85.22C1008.75 83.624 1009.63 82.616 1010.98 82.616C1012.36 82.616 1013.03 83.54 1013.14 84.668L1014.58 84.608C1014.45 82.7 1013.21 81.296 1010.98 81.296C1008.83 81.296 1007.19 82.892 1007.19 85.22ZM1021.94 89C1021.69 88.724 1021.66 88.34 1021.56 87.224C1021.48 86.336 1021.03 85.832 1020.17 85.664C1021.09 85.544 1021.84 84.884 1021.84 83.744C1021.84 82.34 1020.89 81.44 1018.96 81.44H1015.54V89H1017.01V86.204H1018.79C1019.65 86.204 1020.04 86.588 1020.1 87.44C1020.16 88.28 1020.25 88.796 1020.41 89H1021.94ZM1017.01 85.028V82.652H1018.75C1019.84 82.652 1020.35 83.096 1020.35 83.852C1020.35 84.668 1019.84 85.028 1018.75 85.028H1017.01ZM1026.08 89.144C1027.89 89.144 1029.33 88.268 1029.33 86.06V81.44H1027.83V85.916C1027.83 87.212 1027.28 87.884 1026.08 87.884C1024.89 87.884 1024.34 87.212 1024.34 85.904V81.44H1022.85V86.06C1022.85 88.268 1024.26 89.144 1026.08 89.144ZM1036.14 82.796C1034.62 84.416 1033.89 86.42 1033.86 89H1035.5C1035.51 86.54 1035.87 84.488 1037.79 82.532V81.44H1032.26V82.796H1036.14ZM1009.04 100.924C1009.04 101.824 1008.35 102.304 1007.37 102.304C1006.23 102.304 1005.5 101.692 1005.47 100.492L1004.45 100.444C1004.45 102.124 1005.56 103.144 1007.36 103.144C1009.03 103.144 1010.08 102.256 1010.08 100.996C1010.08 100.012 1009.39 99.316 1008.46 99.184C1009.21 99.064 1009.93 98.404 1009.93 97.432C1009.93 96.16 1009 95.296 1007.33 95.296C1005.63 95.296 1004.59 96.436 1004.59 97.996L1005.59 98.032C1005.59 96.832 1006.25 96.136 1007.32 96.136C1008.37 96.136 1008.89 96.7 1008.89 97.516C1008.89 98.488 1008.16 98.812 1007.37 98.812C1007.03 98.812 1006.82 98.8 1006.65 98.776V99.628C1006.83 99.604 1007.07 99.592 1007.37 99.592C1008.32 99.592 1009.04 100.06 1009.04 100.924ZM1010.74 103H1011.3C1011.3 103.528 1011.18 103.696 1010.74 103.732V104.32C1011.7 104.308 1011.94 103.816 1011.94 102.976V101.8H1010.74V103ZM1018.71 99.22C1018.71 96.712 1017.55 95.296 1015.57 95.296C1013.59 95.296 1012.44 96.712 1012.44 99.22C1012.44 101.728 1013.59 103.144 1015.57 103.144C1017.55 103.144 1018.71 101.728 1018.71 99.22ZM1017.62 99.22C1017.62 101.272 1016.96 102.304 1015.57 102.304C1014.18 102.304 1013.52 101.272 1013.52 99.22C1013.52 97.168 1014.18 96.136 1015.57 96.136C1016.96 96.136 1017.62 97.168 1017.62 99.22ZM1019.22 97.216H1020.63V103H1021.68V95.392H1020.99C1020.72 96.184 1020.27 96.544 1019.22 96.544V97.216ZM1027.4 100.924C1027.4 101.824 1026.72 102.304 1025.73 102.304C1024.59 102.304 1023.86 101.692 1023.84 100.492L1022.82 100.444C1022.82 102.124 1023.92 103.144 1025.72 103.144C1027.39 103.144 1028.44 102.256 1028.44 100.996C1028.44 100.012 1027.75 99.316 1026.82 99.184C1027.57 99.064 1028.29 98.404 1028.29 97.432C1028.29 96.16 1027.36 95.296 1025.7 95.296C1023.99 95.296 1022.95 96.436 1022.95 97.996L1023.96 98.032C1023.96 96.832 1024.62 96.136 1025.68 96.136C1026.73 96.136 1027.26 96.7 1027.26 97.516C1027.26 98.488 1026.52 98.812 1025.73 98.812C1025.4 98.812 1025.18 98.8 1025.01 98.776V99.628C1025.19 99.604 1025.43 99.592 1025.73 99.592C1026.68 99.592 1027.4 100.06 1027.4 100.924ZM1031.16 100.3C1031.16 102.124 1032.52 103.144 1034.38 103.144C1036.01 103.144 1037.21 102.34 1037.21 100.948C1037.21 99.736 1036.51 99.136 1035.13 98.872L1033.76 98.608C1032.89 98.44 1032.4 98.2 1032.4 97.456C1032.4 96.616 1033.01 96.1 1034.1 96.1C1035.35 96.1 1036.1 96.808 1036.14 98.056L1037.09 98.008C1037.08 96.304 1035.98 95.296 1034.09 95.296C1032.43 95.296 1031.39 96.196 1031.39 97.516C1031.39 98.692 1032.16 99.292 1033.27 99.508L1034.77 99.796C1035.76 99.988 1036.21 100.324 1036.21 101.02C1036.21 101.848 1035.5 102.328 1034.38 102.328C1033.1 102.328 1032.16 101.62 1032.1 100.24L1031.16 100.3ZM1039.39 103V99.676H1042.63V98.812H1039.39V96.304H1043.52V95.44H1038.36V103H1039.39Z" fill="black"/>
</svg>
