<?xml version="1.0" encoding="utf-8"?>
<!-- Generator: Adobe Illustrator 25.2.3, SVG Export Plug-In . SVG Version: 6.00 Build 0)  -->
<svg version="1.1" id="Layer_1" xmlns="http://www.w3.org/2000/svg" xmlns:xlink="http://www.w3.org/1999/xlink" x="0px" y="0px"
	 viewBox="0 0 274.3 131.47" enable-background="new 0 0 274.3 131.47" xml:space="preserve">
<path fill="#231F20" d="M249.53,129.78h24.78v-23.77h-24.78V129.78z M203.92,60.17c11.12,0,18.37,8.09,19.72,22.25h-39.78
	C185.38,68.26,192.63,60.17,203.92,60.17 M247.14,87.48c0-27.81-15.51-43.99-41.46-43.99c-26.29,0-41.8,16.18-41.8,43.99
	c0,27.64,15.51,43.99,41.8,43.99c22.92,0,38.43-11.8,41.46-31.86h-21.57c-2.19,9.27-9.44,15-19.89,15
	c-11.97,0-19.38-9.1-20.23-24.61h61.69V87.48z M139.13,45.17v45.68c0,14.5-6.57,22.92-17.7,22.92c-9.94,0-15.84-6.57-15.84-18.03
	V45.17H83.34v51.57c0,21.74,10.79,34.72,28.99,34.72c16.69,0,26.46-11.8,26.46-31.52h0.34v29.83h22.25V45.17H139.13z M50.06,43.49
	c-17.19,0-27.47,11.63-27.47,31.35h-0.34V0H0v129.78h22.25V83.94c0-14.33,6.91-22.92,18.71-22.92c10.45,0,16.52,6.74,16.52,18.2
	v50.56h22.25V78.21C79.72,56.3,68.77,43.49,50.06,43.49"/>
</svg>
