<svg width="447" height="214" viewBox="0 0 447 214" fill="none" xmlns="http://www.w3.org/2000/svg">
<g clip-path="url(#clip0)">
<path d="M406.635 211.249H447.016V172.558H406.635V211.249ZM332.309 97.9416C350.43 97.9416 362.244 111.11 364.444 134.159H299.619C302.096 111.11 313.91 97.9416 332.309 97.9416ZM402.74 142.395C402.74 97.1277 377.465 70.7908 335.177 70.7908C292.334 70.7908 267.059 97.1277 267.059 142.395C267.059 187.386 292.334 214 335.177 214C372.527 214 397.802 194.793 402.74 162.14H367.589C364.021 177.229 352.206 186.556 335.177 186.556C315.67 186.556 303.595 171.744 302.21 146.497H402.74V142.395ZM226.727 73.5254V147.881C226.727 171.483 216.02 185.189 197.883 185.189C181.684 185.189 172.07 174.495 172.07 155.841V73.5254H135.811V157.468C135.811 192.856 153.395 213.984 183.053 213.984C210.251 213.984 226.173 194.776 226.173 162.677H226.727V211.233H262.985V73.5254H226.727ZM81.5779 70.7908C53.565 70.7908 36.8127 89.7215 36.8127 121.821H36.2587V0H0V211.249H36.2587V136.633C36.2587 113.308 47.5192 99.3252 66.7485 99.3252C83.7779 99.3252 93.6696 110.296 93.6696 128.95V211.249H129.928V127.306C129.912 91.6422 112.068 70.7908 81.5779 70.7908Z" fill="white"/>
</g>
<defs>
<clipPath id="clip0">
<rect width="447" height="214" fill="white"/>
</clipPath>
</defs>
</svg>
