<svg width="125" height="42" viewBox="0 0 125 42" fill="none" xmlns="http://www.w3.org/2000/svg">
<g clip-path="url(#clip0)">
<path fill-rule="evenodd" clip-rule="evenodd" d="M114.1 19.6002C116.8 19.6002 118.6 21.9002 118.8 26.8002H109.1C109.2 22.5002 111.4 19.6002 114.1 19.6002ZM123.2 31.8002C122 35.4002 119.6 38.0002 116.3 38.0002C113.1 38.0002 109.1 36.4002 109 28.4002L124.7 28.3002C124.2 21.2002 119.8 17.7002 114.4 17.7002C108.2 17.7002 103.1 22.9002 103.1 29.4002C103.1 35.8002 108.1 41.1002 114.4 41.1002C119.8 41.1002 123.6 37.1002 124.5 31.8002H123.2Z" fill="#091D29"/>
<path fill-rule="evenodd" clip-rule="evenodd" d="M27.6 19.6002C30.3 19.6002 32.1 21.9002 32.3 26.8002H22.6C22.7 22.5002 24.9 19.6002 27.6 19.6002ZM36.7 31.8002C35.5 35.4002 33.1 38.0002 29.8 38.0002C26.6 38.0002 22.6 36.4002 22.5 28.4002L38.2 28.3002C37.7 21.2002 33.3 17.7002 27.9 17.7002C21.7 17.7002 16.6 22.9002 16.6 29.4002C16.6 35.8002 21.6 41.1002 27.9 41.1002C33.3 41.1002 37.1 37.1002 38 31.8002H36.7Z" fill="#091D29"/>
<path fill-rule="evenodd" clip-rule="evenodd" d="M62.3 40.6002V26.7002C62.3 21.8002 60.4 18.2002 54.6 18.2002C49.7 18.2002 48 22.5002 47.5 24.0002V18.6002H42V40.6002H47.5V25.5002C47.9 24.5002 49 22.1002 51.9 22.1002C55.5 22.1002 56.7 24.3002 56.7 27.4002V40.6002H62.3Z" fill="#091D29"/>
<path fill-rule="evenodd" clip-rule="evenodd" d="M88.1 40.6002V26.7002C88.1 21.8002 86.2 18.2002 80.4 18.2002C75.5 18.2002 73.8 22.5002 73.3 24.0002V18.6002H67.8V40.6002H73.3V25.5002C73.7 24.5002 74.8 22.1002 77.7 22.1002C81.3 22.1002 82.5 24.3002 82.5 27.4002V40.6002H88.1Z" fill="#091D29"/>
<path fill-rule="evenodd" clip-rule="evenodd" d="M93.7 40.6001H99.2V18.6001H93.7V40.6001Z" fill="#091D29"/>
<path fill-rule="evenodd" clip-rule="evenodd" d="M96.5 16.4002C98.5 16.4002 100 14.8002 100 12.8002C100 10.8002 98.4 9.2002 96.5 9.2002C94.6 9.2002 93 10.8002 93 12.8002C92.9 14.8002 94.5 16.4002 96.5 16.4002Z" fill="#091D29"/>
<path fill-rule="evenodd" clip-rule="evenodd" d="M0.0999756 40.6001H5.59998V18.6001H0.0999756V40.6001Z" fill="#091D29"/>
<path fill-rule="evenodd" clip-rule="evenodd" d="M11.1 25.2998C13.1 25.2998 14.6 23.6998 14.6 21.7998C14.6 19.8998 13 18.2998 11.1 18.2998C9.09998 18.2998 7.59998 19.8998 7.59998 21.7998C7.59998 23.6998 9.09998 25.2998 11.1 25.2998Z" fill="#091D29"/>
<path d="M0.9 5.6C1.1 6.6 1.7 7 2.5 7C3.4 7 4 6.6 4 5.8C4 5.1 3.7 4.7 2.4 4.2C1.4 3.8 0.3 3.4 0.3 2C0.3 0.6 1.4 0 2.5 0C3.8 0 4.8 0.5 4.9 2L4 2.1C3.9 1.3 3.3 0.8 2.5 0.8C1.8 0.8 1.2 1.2 1.2 2C1.2 2.8 1.9 3.1 2.9 3.5C3.9 3.9 4.9 4.3 4.9 5.7C4.9 7.1 3.8 7.8 2.4 7.8C1 7.7 0.2 7.1 0 5.8L0.9 5.6Z" fill="#091D29"/>
<path d="M10.5 5.4002H7.39998L6.59998 7.6002H5.59998L8.29998 0.200195H9.59998L12.3 7.6002H11.3L10.5 5.4002ZM7.59998 4.6002H10.1L9.49998 2.7002C9.09998 1.5002 8.99998 0.800195 8.99998 0.800195H8.89998C8.89998 0.800195 8.69998 1.5002 8.29998 2.7002L7.59998 4.6002Z" fill="#091D29"/>
<path d="M14.5 0.200195V6.8002H18V7.7002H13.6V0.200195H14.5Z" fill="#091D29"/>
<path d="M23.7 7.6002H19.3V0.200195H23.7V1.0002H20.2V3.4002H23.3V4.3002H20.2V6.7002H23.7V7.6002Z" fill="#091D29"/>
<path d="M25.6 5.5999C25.8 6.5999 26.4 6.9999 27.2 6.9999C28.1 6.9999 28.7 6.5999 28.7 5.7999C28.7 5.0999 28.4 4.6999 27.1 4.1999C26.1 3.7999 25 3.3999 25 1.9999C25 0.499902 26.2 -0.100098 27.3 -0.100098C28.6 -0.100098 29.6 0.399902 29.7 1.8999L28.8 2.0999C28.7 1.1999 28.2 0.799902 27.3 0.799902C26.5 0.799902 26 1.1999 26 1.9999C26 2.7999 26.7 3.0999 27.7 3.4999C28.7 3.8999 29.7 4.2999 29.7 5.6999C29.7 7.0999 28.6 7.7999 27.2 7.7999C25.7 7.7999 24.9 7.1999 24.7 5.7999L25.6 5.5999Z" fill="#091D29"/>
<path d="M37.2 3.8002C38.1 3.9002 38.8 4.4002 38.8 5.5002C38.8 6.8002 38 7.6002 36.2 7.6002H34V0.200195H36.2C37.7 0.200195 38.5 0.800195 38.5 2.1002C38.5 3.1002 37.9 3.6002 37.2 3.8002ZM36.1 3.5002C36.9 3.5002 37.5 3.1002 37.5 2.2002C37.5 1.4002 37 1.0002 36.1 1.0002H35V3.5002H36.1ZM35 6.8002H36.4C37.3 6.8002 37.9 6.4002 37.9 5.5002C37.9 4.8002 37.5 4.3002 36.4 4.3002H35V6.8002Z" fill="#091D29"/>
<path d="M41.6 2.7002C42 3.5002 42.1 3.9002 42.1 3.9002H42.2C42.2 3.9002 42.3 3.6002 42.6 2.8002L43.8 0.200195H44.8L42.6 4.7002V7.6002H41.6V4.7002L39.2 0.200195H40.3L41.6 2.7002Z" fill="#091D29"/>
</g>
<defs>
<clipPath id="clip0">
<rect width="124.7" height="41.1" fill="white"/>
</clipPath>
</defs>
</svg>
